G04*
G04 #@! TF.GenerationSoftware,Altium Limited,Altium Designer,19.1.5 (86)*
G04*
G04 Layer_Color=2752767*
%FSLAX25Y25*%
%MOIN*%
G70*
G01*
G75*
%ADD66C,0.00200*%
%ADD67C,0.00267*%
%ADD68C,0.00133*%
D66*
X111000Y303818D02*
Y305418D01*
X112600D01*
Y303818D01*
X111000D01*
Y319566D02*
Y321166D01*
X112600D01*
Y319566D01*
X111000D01*
Y343188D02*
Y344788D01*
X112600D01*
Y343188D01*
X111000D01*
Y335314D02*
Y336914D01*
X112600D01*
Y335314D01*
X111000D01*
Y327440D02*
Y329040D01*
X112600D01*
Y327440D01*
X111000D01*
Y311692D02*
Y313292D01*
X112600D01*
Y311692D01*
X111000D01*
Y351062D02*
Y352662D01*
X112600D01*
Y351062D01*
X111000D01*
Y295944D02*
Y297544D01*
X112600D01*
Y295944D01*
X111000D01*
Y288070D02*
Y289670D01*
X112600D01*
Y288070D01*
X111000D01*
Y232952D02*
Y234552D01*
X112600D01*
Y232952D01*
X111000D01*
Y248700D02*
Y250300D01*
X112600D01*
Y248700D01*
X111000D01*
Y264448D02*
Y266048D01*
X112600D01*
Y264448D01*
X111000D01*
Y256574D02*
Y258174D01*
X112600D01*
Y256574D01*
X111000D01*
Y240826D02*
Y242426D01*
X112600D01*
Y240826D01*
X111000D01*
Y280196D02*
Y281796D01*
X112600D01*
Y280196D01*
X111000D01*
Y225078D02*
Y226678D01*
X112600D01*
Y225078D01*
X111000D01*
Y217204D02*
Y218804D01*
X112600D01*
Y217204D01*
X111000D01*
Y272322D02*
Y273922D01*
X112600D01*
Y272322D01*
X111000D01*
Y209330D02*
Y210930D01*
X112600D01*
Y209330D01*
X111000D01*
Y358936D02*
Y360536D01*
X112600D01*
Y358936D01*
X111000D01*
X402339Y303818D02*
Y305418D01*
X403939D01*
Y303818D01*
X402339D01*
Y319566D02*
Y321166D01*
X403939D01*
Y319566D01*
X402339D01*
Y343188D02*
Y344788D01*
X403939D01*
Y343188D01*
X402339D01*
Y335314D02*
Y336914D01*
X403939D01*
Y335314D01*
X402339D01*
Y327440D02*
Y329040D01*
X403939D01*
Y327440D01*
X402339D01*
Y311692D02*
Y313292D01*
X403939D01*
Y311692D01*
X402339D01*
Y351062D02*
Y352662D01*
X403939D01*
Y351062D01*
X402339D01*
Y295944D02*
Y297544D01*
X403939D01*
Y295944D01*
X402339D01*
Y288070D02*
Y289670D01*
X403939D01*
Y288070D01*
X402339D01*
Y232952D02*
Y234552D01*
X403939D01*
Y232952D01*
X402339D01*
Y248700D02*
Y250300D01*
X403939D01*
Y248700D01*
X402339D01*
Y264448D02*
Y266048D01*
X403939D01*
Y264448D01*
X402339D01*
Y256574D02*
Y258174D01*
X403939D01*
Y256574D01*
X402339D01*
Y240826D02*
Y242426D01*
X403939D01*
Y240826D01*
X402339D01*
Y280196D02*
Y281796D01*
X403939D01*
Y280196D01*
X402339D01*
Y225078D02*
Y226678D01*
X403939D01*
Y225078D01*
X402339D01*
Y217204D02*
Y218804D01*
X403939D01*
Y217204D01*
X402339D01*
Y272322D02*
Y273922D01*
X403939D01*
Y272322D01*
X402339D01*
Y209330D02*
Y210930D01*
X403939D01*
Y209330D01*
X402339D01*
Y358936D02*
Y360536D01*
X403939D01*
Y358936D01*
X402339D01*
X228950Y35200D02*
X228150Y36800D01*
X229750D01*
X228950Y35200D01*
X217150D02*
X216350Y36800D01*
X217950D01*
X217150Y35200D01*
X205350D02*
X204550Y36800D01*
X206150D01*
X205350Y35200D01*
X193550D02*
X192750Y36800D01*
X194350D01*
X193550Y35200D01*
X181750D02*
X180950Y36800D01*
X182550D01*
X181750Y35200D01*
X169950D02*
X169150Y36800D01*
X170750D01*
X169950Y35200D01*
X158150D02*
X157350Y36800D01*
X158950D01*
X158150Y35200D01*
X146350D02*
X145550Y36800D01*
X147150D01*
X146350Y35200D01*
X134550D02*
X133750Y36800D01*
X135350D01*
X134550Y35200D01*
X220450Y18200D02*
X220850Y18600D01*
X221250D01*
X220850Y19000D01*
X221250Y19400D01*
X220850D01*
X220450Y19800D01*
X220050Y19400D01*
X219650D01*
X220050Y19000D01*
X219650Y18600D01*
X220050D01*
X220450Y18200D01*
X142850D02*
X143250Y18600D01*
X143650D01*
X143250Y19000D01*
X143650Y19400D01*
X143250D01*
X142850Y19800D01*
X142450Y19400D01*
X142050D01*
X142450Y19000D01*
X142050Y18600D01*
X142450D01*
X142850Y18200D01*
X388950Y35200D02*
X388150Y36800D01*
X389750D01*
X388950Y35200D01*
X377150D02*
X376350Y36800D01*
X377950D01*
X377150Y35200D01*
X365350D02*
X364550Y36800D01*
X366150D01*
X365350Y35200D01*
X353550D02*
X352750Y36800D01*
X354350D01*
X353550Y35200D01*
X341750D02*
X340950Y36800D01*
X342550D01*
X341750Y35200D01*
X329950D02*
X329150Y36800D01*
X330750D01*
X329950Y35200D01*
X318150D02*
X317350Y36800D01*
X318950D01*
X318150Y35200D01*
X306350D02*
X305550Y36800D01*
X307150D01*
X306350Y35200D01*
X294550D02*
X293750Y36800D01*
X295350D01*
X294550Y35200D01*
X380450Y18200D02*
X380850Y18600D01*
X381250D01*
X380850Y19000D01*
X381250Y19400D01*
X380850D01*
X380450Y19800D01*
X380050Y19400D01*
X379650D01*
X380050Y19000D01*
X379650Y18600D01*
X380050D01*
X380450Y18200D01*
X302850D02*
X303250Y18600D01*
X303650D01*
X303250Y19000D01*
X303650Y19400D01*
X303250D01*
X302850Y19800D01*
X302450Y19400D01*
X302050D01*
X302450Y19000D01*
X302050Y18600D01*
X302450D01*
X302850Y18200D01*
X137300Y493200D02*
X136500Y494800D01*
X138100D01*
X137300Y493200D01*
X149100D02*
X148300Y494800D01*
X149900D01*
X149100Y493200D01*
X160900D02*
X160100Y494800D01*
X161700D01*
X160900Y493200D01*
X172700D02*
X171900Y494800D01*
X173500D01*
X172700Y493200D01*
X184500D02*
X183700Y494800D01*
X185300D01*
X184500Y493200D01*
X196300D02*
X195500Y494800D01*
X197100D01*
X196300Y493200D01*
X208100D02*
X207300Y494800D01*
X208900D01*
X208100Y493200D01*
X219900D02*
X219100Y494800D01*
X220700D01*
X219900Y493200D01*
X231700D02*
X230900Y494800D01*
X232500D01*
X231700Y493200D01*
X145800Y510200D02*
X146200Y510600D01*
X146600D01*
X146200Y511000D01*
X146600Y511400D01*
X146200D01*
X145800Y511800D01*
X145400Y511400D01*
X145000D01*
X145400Y511000D01*
X145000Y510600D01*
X145400D01*
X145800Y510200D01*
X223400D02*
X223800Y510600D01*
X224200D01*
X223800Y511000D01*
X224200Y511400D01*
X223800D01*
X223400Y511800D01*
X223000Y511400D01*
X222600D01*
X223000Y511000D01*
X222600Y510600D01*
X223000D01*
X223400Y510200D01*
X24200Y24200D02*
X24600Y25000D01*
X24200Y25800D01*
X25000Y25400D01*
X25800Y25800D01*
X25400Y25000D01*
X25800Y24200D01*
X25000Y24600D01*
X24200Y24200D01*
X498200D02*
X498600Y25000D01*
X498200Y25800D01*
X499000Y25400D01*
X499800Y25800D01*
X499400Y25000D01*
X499800Y24200D01*
X499000Y24600D01*
X498200Y24200D01*
X423200Y503200D02*
X423600Y504000D01*
X423200Y504800D01*
X424000Y504400D01*
X424800Y504800D01*
X424400Y504000D01*
X424800Y503200D01*
X424000Y503600D01*
X423200Y503200D01*
X99200D02*
X99600Y504000D01*
X99200Y504800D01*
X100000Y504400D01*
X100800Y504800D01*
X100400Y504000D01*
X100800Y503200D01*
X100000Y503600D01*
X99200Y503200D01*
X84100Y358100D02*
Y357700D01*
X84900D01*
Y358100D01*
X85300D01*
Y358900D01*
X84900D01*
Y359300D01*
X84100D01*
Y358900D01*
X83700D01*
Y358100D01*
X84100D01*
X54100D02*
Y357700D01*
X54900D01*
Y358100D01*
X55300D01*
Y358900D01*
X54900D01*
Y359300D01*
X54100D01*
Y358900D01*
X53700D01*
Y358100D01*
X54100D01*
X484600Y172100D02*
Y171700D01*
X485400D01*
Y172100D01*
X485800D01*
Y172900D01*
X485400D01*
Y173300D01*
X484600D01*
Y172900D01*
X484200D01*
Y172100D01*
X484600D01*
X514600D02*
Y171700D01*
X515400D01*
Y172100D01*
X515800D01*
Y172900D01*
X515400D01*
Y173300D01*
X514600D01*
Y172900D01*
X514200D01*
Y172100D01*
X514600D01*
X535100Y223600D02*
Y223200D01*
X535900D01*
Y223600D01*
X536300D01*
Y224400D01*
X535900D01*
Y224800D01*
X535100D01*
Y224400D01*
X534700D01*
Y223600D01*
X535100D01*
X505100D02*
Y223200D01*
X505900D01*
Y223600D01*
X506300D01*
Y224400D01*
X505900D01*
Y224800D01*
X505100D01*
Y224400D01*
X504700D01*
Y223600D01*
X505100D01*
X86200Y80700D02*
X86600D01*
X87000Y81100D01*
X87400Y80700D01*
X87800D01*
Y81100D01*
X87400Y81500D01*
X87800Y81900D01*
Y82300D01*
X87400D01*
X87000Y81900D01*
X86600Y82300D01*
X86200D01*
Y81900D01*
X86600Y81500D01*
X86200Y81100D01*
Y80700D01*
Y99204D02*
X86600D01*
X87000Y99604D01*
X87400Y99204D01*
X87800D01*
Y99604D01*
X87400Y100004D01*
X87800Y100404D01*
Y100804D01*
X87400D01*
X87000Y100404D01*
X86600Y100804D01*
X86200D01*
Y100404D01*
X86600Y100004D01*
X86200Y99604D01*
Y99204D01*
Y117708D02*
X86600D01*
X87000Y118108D01*
X87400Y117708D01*
X87800D01*
Y118108D01*
X87400Y118508D01*
X87800Y118908D01*
Y119308D01*
X87400D01*
X87000Y118908D01*
X86600Y119308D01*
X86200D01*
Y118908D01*
X86600Y118508D01*
X86200Y118108D01*
Y117708D01*
X166200Y80700D02*
X166600D01*
X167000Y81100D01*
X167400Y80700D01*
X167800D01*
Y81100D01*
X167400Y81500D01*
X167800Y81900D01*
Y82300D01*
X167400D01*
X167000Y81900D01*
X166600Y82300D01*
X166200D01*
Y81900D01*
X166600Y81500D01*
X166200Y81100D01*
Y80700D01*
Y99204D02*
X166600D01*
X167000Y99604D01*
X167400Y99204D01*
X167800D01*
Y99604D01*
X167400Y100004D01*
X167800Y100404D01*
Y100804D01*
X167400D01*
X167000Y100404D01*
X166600Y100804D01*
X166200D01*
Y100404D01*
X166600Y100004D01*
X166200Y99604D01*
Y99204D01*
Y117708D02*
X166600D01*
X167000Y118108D01*
X167400Y117708D01*
X167800D01*
Y118108D01*
X167400Y118508D01*
X167800Y118908D01*
Y119308D01*
X167400D01*
X167000Y118908D01*
X166600Y119308D01*
X166200D01*
Y118908D01*
X166600Y118508D01*
X166200Y118108D01*
Y117708D01*
X356200Y80700D02*
X356600D01*
X357000Y81100D01*
X357400Y80700D01*
X357800D01*
Y81100D01*
X357400Y81500D01*
X357800Y81900D01*
Y82300D01*
X357400D01*
X357000Y81900D01*
X356600Y82300D01*
X356200D01*
Y81900D01*
X356600Y81500D01*
X356200Y81100D01*
Y80700D01*
Y99204D02*
X356600D01*
X357000Y99604D01*
X357400Y99204D01*
X357800D01*
Y99604D01*
X357400Y100004D01*
X357800Y100404D01*
Y100804D01*
X357400D01*
X357000Y100404D01*
X356600Y100804D01*
X356200D01*
Y100404D01*
X356600Y100004D01*
X356200Y99604D01*
Y99204D01*
Y117708D02*
X356600D01*
X357000Y118108D01*
X357400Y117708D01*
X357800D01*
Y118108D01*
X357400Y118508D01*
X357800Y118908D01*
Y119308D01*
X357400D01*
X357000Y118908D01*
X356600Y119308D01*
X356200D01*
Y118908D01*
X356600Y118508D01*
X356200Y118108D01*
Y117708D01*
X-7400Y223100D02*
Y222700D01*
X-6600D01*
Y223100D01*
X-6200D01*
Y223900D01*
X-6600D01*
Y224300D01*
X-7400D01*
Y223900D01*
X-7800D01*
Y223100D01*
X-7400D01*
X22600D02*
Y222700D01*
X23400D01*
Y223100D01*
X23800D01*
Y223900D01*
X23400D01*
Y224300D01*
X22600D01*
Y223900D01*
X22200D01*
Y223100D01*
X22600D01*
X447200Y230200D02*
X447600D01*
X448000Y230600D01*
X448400Y230200D01*
X448800D01*
Y230600D01*
X448400Y231000D01*
X448800Y231400D01*
Y231800D01*
X448400D01*
X448000Y231400D01*
X447600Y231800D01*
X447200D01*
Y231400D01*
X447600Y231000D01*
X447200Y230600D01*
Y230200D01*
Y248704D02*
X447600D01*
X448000Y249104D01*
X448400Y248704D01*
X448800D01*
Y249104D01*
X448400Y249504D01*
X448800Y249904D01*
Y250304D01*
X448400D01*
X448000Y249904D01*
X447600Y250304D01*
X447200D01*
Y249904D01*
X447600Y249504D01*
X447200Y249104D01*
Y248704D01*
Y267208D02*
X447600D01*
X448000Y267608D01*
X448400Y267208D01*
X448800D01*
Y267608D01*
X448400Y268008D01*
X448800Y268408D01*
Y268808D01*
X448400D01*
X448000Y268408D01*
X447600Y268808D01*
X447200D01*
Y268408D01*
X447600Y268008D01*
X447200Y267608D01*
Y267208D01*
Y368208D02*
X447600D01*
X448000Y368608D01*
X448400Y368208D01*
X448800D01*
Y368608D01*
X448400Y369008D01*
X448800Y369408D01*
Y369808D01*
X448400D01*
X448000Y369408D01*
X447600Y369808D01*
X447200D01*
Y369408D01*
X447600Y369008D01*
X447200Y368608D01*
Y368208D01*
Y349704D02*
X447600D01*
X448000Y350104D01*
X448400Y349704D01*
X448800D01*
Y350104D01*
X448400Y350504D01*
X448800Y350904D01*
Y351304D01*
X448400D01*
X448000Y350904D01*
X447600Y351304D01*
X447200D01*
Y350904D01*
X447600Y350504D01*
X447200Y350104D01*
Y349704D01*
Y331200D02*
X447600D01*
X448000Y331600D01*
X448400Y331200D01*
X448800D01*
Y331600D01*
X448400Y332000D01*
X448800Y332400D01*
Y332800D01*
X448400D01*
X448000Y332400D01*
X447600Y332800D01*
X447200D01*
Y332400D01*
X447600Y332000D01*
X447200Y331600D01*
Y331200D01*
X509100Y338100D02*
Y337700D01*
X509900D01*
Y338100D01*
X510300D01*
Y338900D01*
X509900D01*
Y339300D01*
X509100D01*
Y338900D01*
X508700D01*
Y338100D01*
X509100D01*
X539100D02*
Y337700D01*
X539900D01*
Y338100D01*
X540300D01*
Y338900D01*
X539900D01*
Y339300D01*
X539100D01*
Y338900D01*
X538700D01*
Y338100D01*
X539100D01*
X436200Y80700D02*
X436600D01*
X437000Y81100D01*
X437400Y80700D01*
X437800D01*
Y81100D01*
X437400Y81500D01*
X437800Y81900D01*
Y82300D01*
X437400D01*
X437000Y81900D01*
X436600Y82300D01*
X436200D01*
Y81900D01*
X436600Y81500D01*
X436200Y81100D01*
Y80700D01*
Y99204D02*
X436600D01*
X437000Y99604D01*
X437400Y99204D01*
X437800D01*
Y99604D01*
X437400Y100004D01*
X437800Y100404D01*
Y100804D01*
X437400D01*
X437000Y100404D01*
X436600Y100804D01*
X436200D01*
Y100404D01*
X436600Y100004D01*
X436200Y99604D01*
Y99204D01*
Y117708D02*
X436600D01*
X437000Y118108D01*
X437400Y117708D01*
X437800D01*
Y118108D01*
X437400Y118508D01*
X437800Y118908D01*
Y119308D01*
X437400D01*
X437000Y118908D01*
X436600Y119308D01*
X436200D01*
Y118908D01*
X436600Y118508D01*
X436200Y118108D01*
Y117708D01*
X127200Y272000D02*
X128000Y272800D01*
X128800Y272000D01*
X128000Y271200D01*
X127200Y272000D01*
X121200Y284000D02*
X122000Y284800D01*
X122800Y284000D01*
X122000Y283200D01*
X121200Y284000D01*
X117700Y278500D02*
X118500Y279300D01*
X119300Y278500D01*
X118500Y277700D01*
X117700Y278500D01*
X487200Y268008D02*
X488000Y268808D01*
X488800Y268008D01*
X488000Y267208D01*
X487200Y268008D01*
X-17800Y337700D02*
Y339300D01*
X-16200D01*
Y337700D01*
X-17800D01*
X-17400Y338100D02*
Y338900D01*
X-16600D01*
Y338100D01*
X-17400D01*
X-20800Y346700D02*
Y348300D01*
X-19200D01*
Y346700D01*
X-20800D01*
X-20400Y347100D02*
Y347900D01*
X-19600D01*
Y347100D01*
X-20400D01*
X326200Y388500D02*
X327000Y389300D01*
X327800Y388500D01*
X327000Y387700D01*
X326200Y388500D01*
X325200Y395500D02*
X326000Y396300D01*
X326800Y395500D01*
X326000Y394700D01*
X325200Y395500D01*
X321200Y385000D02*
X322000Y385800D01*
X322800Y385000D01*
X322000Y384200D01*
X321200Y385000D01*
X179200Y220500D02*
X180000Y221300D01*
X180800Y220500D01*
X180000Y219700D01*
X179200Y220500D01*
X175200Y221000D02*
X176000Y221800D01*
X176800Y221000D01*
X176000Y220200D01*
X175200Y221000D01*
X222200Y328000D02*
X223000Y328800D01*
X223800Y328000D01*
X223000Y327200D01*
X222200Y328000D01*
X206200Y314000D02*
X207000Y314800D01*
X207800Y314000D01*
X207000Y313200D01*
X206200Y314000D01*
X214700Y355000D02*
X215500Y355800D01*
X216300Y355000D01*
X215500Y354200D01*
X214700Y355000D01*
X210200Y330000D02*
X211000Y330800D01*
X211800Y330000D01*
X211000Y329200D01*
X210200Y330000D01*
X337200Y305000D02*
X338000Y305800D01*
X338800Y305000D01*
X338000Y304200D01*
X337200Y305000D01*
X252200Y337500D02*
X253000Y338300D01*
X253800Y337500D01*
X253000Y336700D01*
X252200Y337500D01*
X267700Y330370D02*
X268500Y331170D01*
X269300Y330370D01*
X268500Y329570D01*
X267700Y330370D01*
X265200Y354500D02*
X266000Y355300D01*
X266800Y354500D01*
X266000Y353700D01*
X265200Y354500D01*
X203200Y274000D02*
X204000Y274800D01*
X204800Y274000D01*
X204000Y273200D01*
X203200Y274000D01*
X194700Y309700D02*
Y311300D01*
X196300D01*
Y309700D01*
X194700D01*
X195100Y310100D02*
Y310900D01*
X195900D01*
Y310100D01*
X195100D01*
X224700Y336200D02*
Y337800D01*
X226300D01*
Y336200D01*
X224700D01*
X225100Y336600D02*
Y337400D01*
X225900D01*
Y336600D01*
X225100D01*
X222200Y340200D02*
Y341800D01*
X223800D01*
Y340200D01*
X222200D01*
X222600Y340600D02*
Y341400D01*
X223400D01*
Y340600D01*
X222600D01*
X202700Y378000D02*
X203500Y378800D01*
X204300Y378000D01*
X203500Y377200D01*
X202700Y378000D01*
X196200Y283500D02*
X197000Y284300D01*
X197800Y283500D01*
X197000Y282700D01*
X196200Y283500D01*
X231700Y292000D02*
X232500Y292800D01*
X233300Y292000D01*
X232500Y291200D01*
X231700Y292000D01*
Y283500D02*
X232500Y284300D01*
X233300Y283500D01*
X232500Y282700D01*
X231700Y283500D01*
X147700Y352000D02*
X148500Y352800D01*
X149300Y352000D01*
X148500Y351200D01*
X147700Y352000D01*
X326577Y354500D02*
X327378Y355300D01*
X328177Y354500D01*
X327378Y353700D01*
X326577Y354500D01*
X304705Y349500D02*
X305505Y350300D01*
X306305Y349500D01*
X305505Y348700D01*
X304705Y349500D01*
X190200Y327315D02*
X191000Y328115D01*
X191800Y327315D01*
X191000Y326515D01*
X190200Y327315D01*
X180700D02*
X181500Y328115D01*
X182300Y327315D01*
X181500Y326515D01*
X180700Y327315D01*
X258700Y330185D02*
X259500Y330985D01*
X260300Y330185D01*
X259500Y329385D01*
X258700Y330185D01*
X198385Y358000D02*
X199185Y358800D01*
X199985Y358000D01*
X199185Y357200D01*
X198385Y358000D01*
Y367500D02*
X199185Y368300D01*
X199985Y367500D01*
X199185Y366700D01*
X198385Y367500D01*
X155250Y379950D02*
X156050Y380750D01*
X156850Y379950D01*
X156050Y379150D01*
X155250Y379950D01*
X333700Y348500D02*
X334500Y349300D01*
X335300Y348500D01*
X334500Y347700D01*
X333700Y348500D01*
Y345500D02*
X334500Y346300D01*
X335300Y345500D01*
X334500Y344700D01*
X333700Y345500D01*
X212700Y294000D02*
X213500Y294800D01*
X214300Y294000D01*
X213500Y293200D01*
X212700Y294000D01*
X213200Y273500D02*
X214000Y274300D01*
X214800Y273500D01*
X214000Y272700D01*
X213200Y273500D01*
X204700Y262000D02*
X205500Y262800D01*
X206300Y262000D01*
X205500Y261200D01*
X204700Y262000D01*
X183700Y294000D02*
X184500Y294800D01*
X185300Y294000D01*
X184500Y293200D01*
X183700Y294000D01*
X211700Y307500D02*
X212500Y308300D01*
X213300Y307500D01*
X212500Y306700D01*
X211700Y307500D01*
X214700Y312200D02*
Y313800D01*
X216300D01*
Y312200D01*
X214700D01*
X215100Y312600D02*
Y313400D01*
X215900D01*
Y312600D01*
X215100D01*
X236700Y273000D02*
X237500Y273800D01*
X238300Y273000D01*
X237500Y272200D01*
X236700Y273000D01*
X214700Y330500D02*
X215500Y331300D01*
X216300Y330500D01*
X215500Y329700D01*
X214700Y330500D01*
X230645Y325055D02*
X231445Y325855D01*
X232245Y325055D01*
X231445Y324255D01*
X230645Y325055D01*
X323700Y308500D02*
X324500Y309300D01*
X325300Y308500D01*
X324500Y307700D01*
X323700Y308500D01*
X234700Y328500D02*
X235500Y329300D01*
X236300Y328500D01*
X235500Y327700D01*
X234700Y328500D01*
X309200Y388500D02*
X310000Y389300D01*
X310800Y388500D01*
X310000Y387700D01*
X309200Y388500D01*
X312700Y385000D02*
X313500Y385800D01*
X314300Y385000D01*
X313500Y384200D01*
X312700Y385000D01*
X364700Y408000D02*
X365500Y408800D01*
X366300Y408000D01*
X365500Y407200D01*
X364700Y408000D01*
X307200Y408500D02*
X308000Y409300D01*
X308800Y408500D01*
X308000Y407700D01*
X307200Y408500D01*
X312200Y391500D02*
X313000Y392300D01*
X313800Y391500D01*
X313000Y390700D01*
X312200Y391500D01*
X233700Y338000D02*
X234500Y338800D01*
X235300Y338000D01*
X234500Y337200D01*
X233700Y338000D01*
X222700Y308000D02*
X223500Y308800D01*
X224300Y308000D01*
X223500Y307200D01*
X222700Y308000D01*
X220700Y294500D02*
X221500Y295300D01*
X222300Y294500D01*
X221500Y293700D01*
X220700Y294500D01*
D67*
X533300Y172500D02*
G03*
X533300Y172500I-800J0D01*
G01*
X523300D02*
G03*
X523300Y172500I-800J0D01*
G01*
X559800Y223500D02*
G03*
X559800Y223500I-800J0D01*
G01*
X549800D02*
G03*
X549800Y223500I-800J0D01*
G01*
X558800Y338500D02*
G03*
X558800Y338500I-800J0D01*
G01*
X548800D02*
G03*
X548800Y338500I-800J0D01*
G01*
X-34200Y223500D02*
G03*
X-34200Y223500I-800J0D01*
G01*
X-24200D02*
G03*
X-24200Y223500I-800J0D01*
G01*
X36859Y358500D02*
G03*
X36859Y358500I-800J0D01*
G01*
X46859D02*
G03*
X46859Y358500I-800J0D01*
G01*
X198800Y415000D02*
G03*
X198800Y415000I-800J0D01*
G01*
X218800D02*
G03*
X218800Y415000I-800J0D01*
G01*
X228800D02*
G03*
X228800Y415000I-800J0D01*
G01*
X238800D02*
G03*
X238800Y415000I-800J0D01*
G01*
X248800D02*
G03*
X248800Y415000I-800J0D01*
G01*
X258800D02*
G03*
X258800Y415000I-800J0D01*
G01*
X268800D02*
G03*
X268800Y415000I-800J0D01*
G01*
X278800D02*
G03*
X278800Y415000I-800J0D01*
G01*
X208800D02*
G03*
X208800Y415000I-800J0D01*
G01*
X385300Y510000D02*
G03*
X385300Y510000I-800J0D01*
G01*
X375300D02*
G03*
X375300Y510000I-800J0D01*
G01*
X365300D02*
G03*
X365300Y510000I-800J0D01*
G01*
X355300D02*
G03*
X355300Y510000I-800J0D01*
G01*
X345300D02*
G03*
X345300Y510000I-800J0D01*
G01*
X335300D02*
G03*
X335300Y510000I-800J0D01*
G01*
X325300D02*
G03*
X325300Y510000I-800J0D01*
G01*
X315300D02*
G03*
X315300Y510000I-800J0D01*
G01*
X305300D02*
G03*
X305300Y510000I-800J0D01*
G01*
X295300D02*
G03*
X295300Y510000I-800J0D01*
G01*
X385300Y500000D02*
G03*
X385300Y500000I-800J0D01*
G01*
X375300D02*
G03*
X375300Y500000I-800J0D01*
G01*
X365300D02*
G03*
X365300Y500000I-800J0D01*
G01*
X355300D02*
G03*
X355300Y500000I-800J0D01*
G01*
X345300D02*
G03*
X345300Y500000I-800J0D01*
G01*
X335300D02*
G03*
X335300Y500000I-800J0D01*
G01*
X325300D02*
G03*
X325300Y500000I-800J0D01*
G01*
X315300D02*
G03*
X315300Y500000I-800J0D01*
G01*
X305300D02*
G03*
X305300Y500000I-800J0D01*
G01*
X295300D02*
G03*
X295300Y500000I-800J0D01*
G01*
X300300Y424500D02*
G03*
X300300Y424500I-800J0D01*
G01*
D68*
X299900D02*
G03*
X299900Y424500I-400J0D01*
G01*
M02*
