G04*
G04 #@! TF.GenerationSoftware,Altium Limited,Altium Designer,19.1.5 (86)*
G04*
G04 Layer_Color=32768*
%FSLAX25Y25*%
%MOIN*%
G70*
G01*
G75*
%ADD17C,0.00394*%
%ADD65C,0.00197*%
D17*
X212374Y354260D02*
Y361740D01*
X196626Y354260D02*
Y361740D01*
Y354260D02*
X212374D01*
X196626Y361740D02*
X212374D01*
X202532Y358000D02*
X206469D01*
X204500Y356031D02*
Y359969D01*
X70071Y71067D02*
Y128941D01*
X103929D01*
Y71067D02*
Y128941D01*
X70071Y71067D02*
X103929D01*
X223220Y127559D02*
X296449D01*
Y72441D02*
Y127559D01*
X223220Y72441D02*
X296449D01*
X223220D02*
Y127559D01*
X150071Y71067D02*
Y128941D01*
X183929D01*
Y71067D02*
Y128941D01*
X150071Y71067D02*
X183929D01*
X340071D02*
Y128941D01*
X373929D01*
Y71067D02*
Y128941D01*
X340071Y71067D02*
X373929D01*
X202500Y281531D02*
Y285469D01*
X200532Y283500D02*
X204469D01*
X194626Y287240D02*
X210374D01*
X194626Y279760D02*
X210374D01*
X194626D02*
Y287240D01*
X210374Y279760D02*
Y287240D01*
X202500Y290531D02*
Y294469D01*
X200532Y292500D02*
X204469D01*
X194626Y296240D02*
X210374D01*
X194626Y288760D02*
X210374D01*
X194626D02*
Y296240D01*
X210374Y288760D02*
Y296240D01*
X189031Y322000D02*
X192969D01*
X191000Y320032D02*
Y323969D01*
X194740Y314126D02*
Y329874D01*
X187260Y314126D02*
Y329874D01*
X194740D01*
X187260Y314126D02*
X194740D01*
X179531Y322000D02*
X183469D01*
X181500Y320032D02*
Y323969D01*
X185240Y314126D02*
Y329874D01*
X177760Y314126D02*
Y329874D01*
X185240D01*
X177760Y314126D02*
X185240D01*
X238000Y281532D02*
Y285469D01*
X236032Y283500D02*
X239969D01*
X230126Y279760D02*
X245874D01*
X230126Y287240D02*
X245874D01*
Y279760D02*
Y287240D01*
X230126Y279760D02*
Y287240D01*
X238000Y290532D02*
Y294469D01*
X236032Y292500D02*
X239969D01*
X230126Y288760D02*
X245874D01*
X230126Y296240D02*
X245874D01*
Y288760D02*
Y296240D01*
X230126Y288760D02*
Y296240D01*
X266531Y335685D02*
X270469D01*
X268500Y333717D02*
Y337654D01*
X272240Y327811D02*
Y343559D01*
X264760Y327811D02*
Y343559D01*
X272240D01*
X264760Y327811D02*
X272240D01*
X257531Y335500D02*
X261469D01*
X259500Y333532D02*
Y337469D01*
X263240Y327626D02*
Y343374D01*
X255760Y327626D02*
Y343374D01*
X263240D01*
X255760Y327626D02*
X263240D01*
X204500Y365531D02*
Y369469D01*
X202532Y367500D02*
X206469D01*
X196626Y371240D02*
X212374D01*
X196626Y363760D02*
X212374D01*
X196626D02*
Y371240D01*
X212374Y363760D02*
Y371240D01*
X431071Y220567D02*
Y278441D01*
X464929D01*
Y220567D02*
Y278441D01*
X431071Y220567D02*
X464929D01*
X19720Y349559D02*
X92949D01*
Y294441D02*
Y349559D01*
X19720Y294441D02*
X92949D01*
X19720D02*
Y349559D01*
X431071Y321567D02*
X464929D01*
Y379441D01*
X431071D02*
X464929D01*
X431071Y321567D02*
Y379441D01*
X-30780Y118441D02*
Y173559D01*
Y118441D02*
X42449D01*
Y173559D01*
X-30780D02*
X42449D01*
X501220Y276441D02*
Y331559D01*
Y276441D02*
X574449D01*
Y331559D01*
X501220D02*
X574449D01*
X474720Y108941D02*
Y164059D01*
Y108941D02*
X547949D01*
Y164059D01*
X474720D02*
X547949D01*
X-57780Y307559D02*
X15449D01*
Y252441D02*
Y307559D01*
X-57780Y252441D02*
X15449D01*
X-57780D02*
Y307559D01*
X316500Y345032D02*
Y348969D01*
X314531Y347000D02*
X318469D01*
X-57780Y391559D02*
X15449D01*
Y336441D02*
Y391559D01*
X-57780Y336441D02*
X15449D01*
X-57780D02*
Y391559D01*
X420071Y71067D02*
Y128941D01*
X453929D01*
Y71067D02*
Y128941D01*
X420071Y71067D02*
X453929D01*
D65*
X198024Y299024D02*
Y351976D01*
Y299024D02*
X250976D01*
Y351976D01*
X198024D02*
X250976D01*
X301933Y336173D02*
X331067D01*
X301933Y357827D02*
X331067D01*
Y336173D02*
Y357827D01*
X301933Y336173D02*
Y357827D01*
M02*
