G04*
G04 #@! TF.GenerationSoftware,Altium Limited,Altium Designer,19.1.5 (86)*
G04*
G04 Layer_Color=8421504*
%FSLAX25Y25*%
%MOIN*%
G70*
G01*
G75*
%ADD21R,0.04331X0.06693*%
%ADD22R,0.06102X0.06299*%
%ADD23R,0.06693X0.04331*%
%ADD24R,0.01181X0.05709*%
%ADD25R,0.05709X0.01181*%
%ADD26O,0.05709X0.02362*%
D21*
X209815Y358000D02*
D03*
X199185D02*
D03*
X197185Y283500D02*
D03*
X207815D02*
D03*
X197185Y292500D02*
D03*
X207815D02*
D03*
X243315Y283500D02*
D03*
X232685D02*
D03*
X243315Y292500D02*
D03*
X232685D02*
D03*
X199185Y367500D02*
D03*
X209815D02*
D03*
D22*
X234539Y109843D02*
D03*
X289461D02*
D03*
X234539Y90157D02*
D03*
X289461D02*
D03*
X31039Y331843D02*
D03*
X85961D02*
D03*
X31039Y312157D02*
D03*
X85961D02*
D03*
X35461Y136157D02*
D03*
X-19461D02*
D03*
X35461Y155843D02*
D03*
X-19461D02*
D03*
X567461Y294157D02*
D03*
X512539D02*
D03*
X567461Y313843D02*
D03*
X512539D02*
D03*
X540961Y126657D02*
D03*
X486039D02*
D03*
X540961Y146343D02*
D03*
X486039D02*
D03*
X-46461Y289843D02*
D03*
X8461D02*
D03*
X-46461Y270157D02*
D03*
X8461D02*
D03*
X-46461Y373843D02*
D03*
X8461D02*
D03*
X-46461Y354157D02*
D03*
X8461D02*
D03*
D23*
X191000Y327315D02*
D03*
Y316685D02*
D03*
X181500Y327315D02*
D03*
Y316685D02*
D03*
X268500Y341000D02*
D03*
Y330370D02*
D03*
X259500Y340815D02*
D03*
Y330185D02*
D03*
D24*
X209736Y348138D02*
D03*
X211705D02*
D03*
X213673D02*
D03*
X215642D02*
D03*
X217610D02*
D03*
X219579D02*
D03*
X221547D02*
D03*
X223516D02*
D03*
X225484D02*
D03*
X227453D02*
D03*
X229421D02*
D03*
X231390D02*
D03*
X233358D02*
D03*
X235327D02*
D03*
X237295D02*
D03*
X239264D02*
D03*
Y302862D02*
D03*
X237295D02*
D03*
X235327D02*
D03*
X233358D02*
D03*
X231390D02*
D03*
X229421D02*
D03*
X227453D02*
D03*
X225484D02*
D03*
X223516D02*
D03*
X221547D02*
D03*
X219579D02*
D03*
X217610D02*
D03*
X215642D02*
D03*
X213673D02*
D03*
X211705D02*
D03*
X209736D02*
D03*
D25*
X247138Y340264D02*
D03*
Y338295D02*
D03*
Y336327D02*
D03*
Y334358D02*
D03*
Y332390D02*
D03*
Y330421D02*
D03*
Y328453D02*
D03*
Y326484D02*
D03*
Y324516D02*
D03*
Y322547D02*
D03*
Y320579D02*
D03*
Y318610D02*
D03*
Y316642D02*
D03*
Y314673D02*
D03*
Y312705D02*
D03*
Y310736D02*
D03*
X201862D02*
D03*
Y312705D02*
D03*
Y314673D02*
D03*
Y316642D02*
D03*
Y318610D02*
D03*
Y320579D02*
D03*
Y322547D02*
D03*
Y324516D02*
D03*
Y326484D02*
D03*
Y328453D02*
D03*
Y330421D02*
D03*
Y332390D02*
D03*
Y334358D02*
D03*
Y336327D02*
D03*
Y338295D02*
D03*
Y340264D02*
D03*
D26*
X327228Y339500D02*
D03*
Y344500D02*
D03*
Y349500D02*
D03*
Y354500D02*
D03*
X305772Y339500D02*
D03*
Y344500D02*
D03*
Y349500D02*
D03*
Y354500D02*
D03*
M02*
