G04*
G04 #@! TF.GenerationSoftware,Altium Limited,Altium Designer,19.1.5 (86)*
G04*
G04 Layer_Color=255*
%FSLAX25Y25*%
%MOIN*%
G70*
G01*
G75*
%ADD51C,0.05000*%
%ADD52R,0.05000X0.05000*%
%ADD53C,0.04600*%
%ADD54R,0.07000X0.07000*%
%ADD55C,0.07000*%
%ADD56C,0.13000*%
%ADD57C,0.14600*%
%ADD58R,0.05906X0.05906*%
%ADD59C,0.05906*%
%ADD60C,0.05512*%
%ADD61R,0.10925X0.10925*%
%ADD62C,0.10925*%
D51*
X111800Y304618D02*
D03*
Y320366D02*
D03*
Y343988D02*
D03*
Y336114D02*
D03*
Y328240D02*
D03*
Y312492D02*
D03*
Y351862D02*
D03*
Y296744D02*
D03*
Y288870D02*
D03*
Y233752D02*
D03*
Y249500D02*
D03*
Y265248D02*
D03*
Y257374D02*
D03*
Y241626D02*
D03*
Y280996D02*
D03*
Y225878D02*
D03*
Y218004D02*
D03*
Y273122D02*
D03*
Y210130D02*
D03*
X403139Y304618D02*
D03*
Y320366D02*
D03*
Y343988D02*
D03*
Y336114D02*
D03*
Y328240D02*
D03*
Y312492D02*
D03*
Y351862D02*
D03*
Y296744D02*
D03*
Y288870D02*
D03*
Y233752D02*
D03*
Y249500D02*
D03*
Y265248D02*
D03*
Y257374D02*
D03*
Y241626D02*
D03*
Y280996D02*
D03*
Y225878D02*
D03*
Y218004D02*
D03*
Y273122D02*
D03*
Y210130D02*
D03*
D52*
X111800Y359736D02*
D03*
X403139D02*
D03*
D53*
X532500Y172500D02*
D03*
X522500D02*
D03*
X559000Y223500D02*
D03*
X549000D02*
D03*
X558000Y338500D02*
D03*
X548000D02*
D03*
X-35000Y223500D02*
D03*
X-25000D02*
D03*
X36059Y358500D02*
D03*
X46059D02*
D03*
D54*
X228950Y36000D02*
D03*
X388950D02*
D03*
X137300Y494000D02*
D03*
D55*
X217150Y36000D02*
D03*
X205350D02*
D03*
X193550D02*
D03*
X181750D02*
D03*
X169950D02*
D03*
X158150D02*
D03*
X146350D02*
D03*
X134550D02*
D03*
X377150D02*
D03*
X365350D02*
D03*
X353550D02*
D03*
X341750D02*
D03*
X329950D02*
D03*
X318150D02*
D03*
X306350D02*
D03*
X294550D02*
D03*
X149100Y494000D02*
D03*
X160900D02*
D03*
X172700D02*
D03*
X184500D02*
D03*
X196300D02*
D03*
X208100D02*
D03*
X219900D02*
D03*
X231700D02*
D03*
D56*
X220450Y19000D02*
D03*
X142850D02*
D03*
X380450D02*
D03*
X302850D02*
D03*
X145800Y511000D02*
D03*
X223400D02*
D03*
D57*
X25000Y25000D02*
D03*
X499000D02*
D03*
X424000Y504000D02*
D03*
X100000D02*
D03*
D58*
X198000Y415000D02*
D03*
X294500Y500000D02*
D03*
D59*
X218000Y415000D02*
D03*
X228000D02*
D03*
X238000D02*
D03*
X248000D02*
D03*
X258000D02*
D03*
X268000D02*
D03*
X278000D02*
D03*
X208000D02*
D03*
X384500Y510000D02*
D03*
X374500D02*
D03*
X364500D02*
D03*
X354500D02*
D03*
X344500D02*
D03*
X334500D02*
D03*
X324500D02*
D03*
X314500D02*
D03*
X304500D02*
D03*
X294500D02*
D03*
X384500Y500000D02*
D03*
X374500D02*
D03*
X364500D02*
D03*
X354500D02*
D03*
X344500D02*
D03*
X334500D02*
D03*
X324500D02*
D03*
X314500D02*
D03*
X304500D02*
D03*
D60*
X84500Y358500D02*
D03*
X54500D02*
D03*
X485000Y172500D02*
D03*
X515000D02*
D03*
X535500Y224000D02*
D03*
X505500D02*
D03*
X-7000Y223500D02*
D03*
X23000D02*
D03*
X509500Y338500D02*
D03*
X539500D02*
D03*
D61*
X87000Y81500D02*
D03*
X167000D02*
D03*
X357000D02*
D03*
X448000Y231000D02*
D03*
Y332000D02*
D03*
X437000Y81500D02*
D03*
D62*
X87000Y100004D02*
D03*
Y118508D02*
D03*
X167000Y100004D02*
D03*
Y118508D02*
D03*
X357000Y100004D02*
D03*
Y118508D02*
D03*
X448000Y249504D02*
D03*
Y268008D02*
D03*
Y369008D02*
D03*
Y350504D02*
D03*
X437000Y100004D02*
D03*
Y118508D02*
D03*
M02*
