G04*
G04 #@! TF.GenerationSoftware,Altium Limited,Altium Designer,19.1.5 (86)*
G04*
G04 Layer_Color=65535*
%FSLAX25Y25*%
%MOIN*%
G70*
G01*
G75*
%ADD10C,0.01000*%
%ADD11C,0.00500*%
%ADD12C,0.00787*%
%ADD13C,0.00984*%
%ADD14C,0.02362*%
%ADD15C,0.00100*%
%ADD16C,0.00400*%
%ADD17C,0.00394*%
%ADD18C,0.02000*%
%ADD19C,0.00800*%
%ADD20C,0.00606*%
D10*
X409044Y381390D02*
G03*
X405107Y385327I-3937J0D01*
G01*
Y184539D02*
G03*
X409044Y188477I0J3937D01*
G01*
X105894D02*
G03*
X109832Y184539I3937J0D01*
G01*
Y385327D02*
G03*
X105894Y381390I0J-3937D01*
G01*
X99500Y293000D02*
X101000Y291500D01*
X99500Y293000D02*
X102500D01*
X101000Y291500D02*
X102500Y293000D01*
X101000Y349000D02*
X102500Y347500D01*
X99500D02*
X102500D01*
X99500D02*
X101000Y349000D01*
X412000Y222500D02*
X413500Y221000D01*
X412000Y222500D02*
X415000D01*
X413500Y221000D02*
X415000Y222500D01*
X412000Y277000D02*
X413500Y278500D01*
X412000Y277000D02*
X415000D01*
X413500Y278500D02*
X415000Y277000D01*
X101000Y291500D02*
Y349000D01*
X413500Y221000D02*
Y278500D01*
X409044Y188477D02*
Y381390D01*
X109832Y184539D02*
X405107D01*
X105894Y188477D02*
Y381390D01*
X109832Y385327D02*
X405107D01*
X402351Y368398D02*
Y378137D01*
X401564Y367610D02*
Y378137D01*
X400776Y368004D02*
Y378137D01*
X399989Y367610D02*
Y378137D01*
X400685Y381927D02*
X401564Y381049D01*
X400527Y381927D02*
X400685D01*
X399648Y381049D02*
X402692D01*
X398644Y380045D02*
X403486D01*
X397640Y379041D02*
X404389D01*
X396736Y378137D02*
X405460D01*
X114556Y367610D02*
Y378210D01*
X113768Y367610D02*
Y377453D01*
X112981Y368398D02*
Y378210D01*
X112194Y368004D02*
Y377453D01*
X111406D02*
X115343D01*
X110754Y379950D02*
X115624D01*
X112938Y382134D02*
X113812D01*
X111984Y381180D02*
X114511D01*
X111080Y380276D02*
X115670D01*
X110001Y379197D02*
X116644D01*
X110649Y378210D02*
X117381D01*
X110649D02*
X111406Y377453D01*
X109014Y378210D02*
X110649D01*
X403139Y367610D02*
Y377453D01*
X399202Y367610D02*
Y377453D01*
Y367610D02*
X403139D01*
X396052Y377453D02*
X399202D01*
X403139D02*
X406288D01*
X401170Y382571D02*
X406288Y377453D01*
X396052D02*
X401170Y382571D01*
X115343Y367610D02*
Y377453D01*
X111406Y367610D02*
Y377453D01*
Y367610D02*
X115343D01*
X108257Y377453D02*
X111406D01*
X115343D02*
X118493D01*
X113375Y382571D02*
X118493Y377453D01*
X108257D02*
X113375Y382571D01*
X516500Y331000D02*
Y333999D01*
X518000D01*
X518499Y333499D01*
Y332500D01*
X518000Y332000D01*
X516500D01*
X517500D02*
X518499Y331000D01*
X519499Y333499D02*
X519999Y333999D01*
X520998D01*
X521498Y333499D01*
Y332999D01*
X520998Y332500D01*
X520499D01*
X520998D01*
X521498Y332000D01*
Y331500D01*
X520998Y331000D01*
X519999D01*
X519499Y331500D01*
X418500Y480500D02*
Y484499D01*
X420499Y486498D01*
X422499Y484499D01*
Y480500D01*
Y483499D01*
X418500D01*
X424498Y486498D02*
Y481500D01*
X425498Y480500D01*
X427497D01*
X428497Y481500D01*
Y486498D01*
X430496D02*
X434495Y480500D01*
Y486498D02*
X430496Y480500D01*
X436494Y479500D02*
X440493D01*
X446491Y485498D02*
X445491Y486498D01*
X443492D01*
X442492Y485498D01*
Y484499D01*
X443492Y483499D01*
X445491D01*
X446491Y482499D01*
Y481500D01*
X445491Y480500D01*
X443492D01*
X442492Y481500D01*
X449490Y485498D02*
Y484499D01*
X448490D01*
X450490D01*
X449490D01*
Y481500D01*
X450490Y480500D01*
X456488D02*
X454488D01*
X453489Y481500D01*
Y483499D01*
X454488Y484499D01*
X456488D01*
X457487Y483499D01*
Y482499D01*
X453489D01*
X462486Y480500D02*
X460486D01*
X459487Y481500D01*
Y483499D01*
X460486Y484499D01*
X462486D01*
X463485Y483499D01*
Y482499D01*
X459487D01*
X465485Y484499D02*
Y480500D01*
Y482499D01*
X466484Y483499D01*
X467484Y484499D01*
X468484D01*
X471483Y480500D02*
X473482D01*
X472482D01*
Y484499D01*
X471483D01*
X476481Y480500D02*
Y484499D01*
X479480D01*
X480480Y483499D01*
Y480500D01*
X484479Y478501D02*
X485478D01*
X486478Y479500D01*
Y484499D01*
X483479D01*
X482479Y483499D01*
Y481500D01*
X483479Y480500D01*
X486478D01*
X488477Y486498D02*
Y480500D01*
X490477Y482499D01*
X492476Y480500D01*
Y486498D01*
X494475D02*
Y480500D01*
Y483499D01*
X495475Y484499D01*
X497474D01*
X498474Y483499D01*
Y480500D01*
X503473D02*
X501473D01*
X500473Y481500D01*
Y483499D01*
X501473Y484499D01*
X503473D01*
X504472Y483499D01*
Y482499D01*
X500473D01*
X509471Y480500D02*
X507471D01*
X506471Y481500D01*
Y483499D01*
X507471Y484499D01*
X509471D01*
X510470Y483499D01*
Y482499D01*
X506471D01*
X512470Y480500D02*
X514469D01*
X513469D01*
Y486498D01*
X512470D01*
X517468Y479500D02*
X521467D01*
X523466Y486498D02*
Y482499D01*
X525465Y480500D01*
X527465Y482499D01*
Y486498D01*
X532463Y480500D02*
Y486498D01*
X529464Y483499D01*
X533463D01*
X191499Y358999D02*
X190999Y359499D01*
X190000D01*
X189500Y358999D01*
Y357000D01*
X190000Y356500D01*
X190999D01*
X191499Y357000D01*
X192499Y356500D02*
X193499D01*
X192999D01*
Y359499D01*
X192499Y358999D01*
X106750Y32500D02*
Y38498D01*
X109749D01*
X110749Y37498D01*
Y35499D01*
X109749Y34499D01*
X106750D01*
X116747Y38498D02*
X114747Y37498D01*
X112748Y35499D01*
Y33500D01*
X113748Y32500D01*
X115747D01*
X116747Y33500D01*
Y34499D01*
X115747Y35499D01*
X112748D01*
X266500Y33000D02*
Y38998D01*
X269499D01*
X270499Y37998D01*
Y35999D01*
X269499Y34999D01*
X266500D01*
X276497Y38998D02*
X272498D01*
Y35999D01*
X274497Y36999D01*
X275497D01*
X276497Y35999D01*
Y34000D01*
X275497Y33000D01*
X273498D01*
X272498Y34000D01*
X181000Y412000D02*
Y417998D01*
X183999D01*
X184999Y416998D01*
Y414999D01*
X183999Y413999D01*
X181000D01*
X186998Y412000D02*
X188997D01*
X187998D01*
Y417998D01*
X186998Y416998D01*
X114000Y517498D02*
Y511500D01*
Y514499D01*
X117999D01*
Y517498D01*
Y511500D01*
X119998D02*
X121997D01*
X120998D01*
Y517498D01*
X119998Y516498D01*
X512000Y215000D02*
Y217999D01*
X513499D01*
X513999Y217499D01*
Y216499D01*
X513499Y216000D01*
X512000D01*
X513000D02*
X513999Y215000D01*
X516499D02*
Y217999D01*
X514999Y216499D01*
X516998D01*
X-500Y228500D02*
Y231499D01*
X1000D01*
X1499Y230999D01*
Y229999D01*
X1000Y229500D01*
X-500D01*
X500D02*
X1499Y228500D01*
X2499D02*
X3499D01*
X2999D01*
Y231499D01*
X2499Y230999D01*
X224749Y82998D02*
X223749Y83998D01*
X221750D01*
X220750Y82998D01*
Y81999D01*
X221750Y80999D01*
X223749D01*
X224749Y79999D01*
Y79000D01*
X223749Y78000D01*
X221750D01*
X220750Y79000D01*
X226748Y78000D02*
X228747D01*
X227748D01*
Y83998D01*
X226748Y82998D01*
X231746D02*
X232746Y83998D01*
X234746D01*
X235745Y82998D01*
Y81999D01*
X234746Y80999D01*
X233746D01*
X234746D01*
X235745Y79999D01*
Y79000D01*
X234746Y78000D01*
X232746D01*
X231746Y79000D01*
X352499Y67998D02*
X351499Y68998D01*
X349500D01*
X348500Y67998D01*
Y66999D01*
X349500Y65999D01*
X351499D01*
X352499Y64999D01*
Y64000D01*
X351499Y63000D01*
X349500D01*
X348500Y64000D01*
X354498Y63000D02*
X356497D01*
X355498D01*
Y68998D01*
X354498Y67998D01*
X363495Y63000D02*
X359496D01*
X363495Y66999D01*
Y67998D01*
X362495Y68998D01*
X360496D01*
X359496Y67998D01*
X156999Y68002D02*
X155999Y69002D01*
X154000D01*
X153000Y68002D01*
Y67003D01*
X154000Y66003D01*
X155999D01*
X156999Y65003D01*
Y64004D01*
X155999Y63004D01*
X154000D01*
X153000Y64004D01*
X158998Y63004D02*
X160997D01*
X159998D01*
Y69002D01*
X158998Y68002D01*
X163996Y63004D02*
X165996D01*
X164996D01*
Y69002D01*
X163996Y68002D01*
X100999Y66998D02*
X99999Y67998D01*
X98000D01*
X97000Y66998D01*
Y65999D01*
X98000Y64999D01*
X99999D01*
X100999Y63999D01*
Y63000D01*
X99999Y62000D01*
X98000D01*
X97000Y63000D01*
X106997Y67998D02*
X104997Y66998D01*
X102998Y64999D01*
Y63000D01*
X103998Y62000D01*
X105997D01*
X106997Y63000D01*
Y63999D01*
X105997Y64999D01*
X102998D01*
X249499Y283499D02*
X249000Y283999D01*
X248000D01*
X247500Y283499D01*
Y281500D01*
X248000Y281000D01*
X249000D01*
X249499Y281500D01*
X250499Y281000D02*
X251499D01*
X250999D01*
Y283999D01*
X250499Y283499D01*
X252998D02*
X253498Y283999D01*
X254498D01*
X254998Y283499D01*
Y281500D01*
X254498Y281000D01*
X253498D01*
X252998Y281500D01*
Y283499D01*
X249999Y291999D02*
X249500Y292499D01*
X248500D01*
X248000Y291999D01*
Y290000D01*
X248500Y289500D01*
X249500D01*
X249999Y290000D01*
X250999D02*
X251499Y289500D01*
X252499D01*
X252998Y290000D01*
Y291999D01*
X252499Y292499D01*
X251499D01*
X250999Y291999D01*
Y291499D01*
X251499Y291000D01*
X252998D01*
X189999Y283999D02*
X189499Y284499D01*
X188500D01*
X188000Y283999D01*
Y282000D01*
X188500Y281500D01*
X189499D01*
X189999Y282000D01*
X190999Y283999D02*
X191499Y284499D01*
X192499D01*
X192998Y283999D01*
Y283499D01*
X192499Y282999D01*
X192998Y282500D01*
Y282000D01*
X192499Y281500D01*
X191499D01*
X190999Y282000D01*
Y282500D01*
X191499Y282999D01*
X190999Y283499D01*
Y283999D01*
X191499Y282999D02*
X192499D01*
X189684Y292999D02*
X189185Y293499D01*
X188185D01*
X187685Y292999D01*
Y291000D01*
X188185Y290500D01*
X189185D01*
X189684Y291000D01*
X190684Y293499D02*
X192683D01*
Y292999D01*
X190684Y291000D01*
Y290500D01*
X190499Y335499D02*
X189999Y335999D01*
X189000D01*
X188500Y335499D01*
Y333500D01*
X189000Y333000D01*
X189999D01*
X190499Y333500D01*
X193498Y335999D02*
X192499Y335499D01*
X191499Y334500D01*
Y333500D01*
X191999Y333000D01*
X192999D01*
X193498Y333500D01*
Y334000D01*
X192999Y334500D01*
X191499D01*
X180999Y335499D02*
X180499Y335999D01*
X179500D01*
X179000Y335499D01*
Y333500D01*
X179500Y333000D01*
X180499D01*
X180999Y333500D01*
X183998Y335999D02*
X181999D01*
Y334500D01*
X182999Y334999D01*
X183499D01*
X183998Y334500D01*
Y333500D01*
X183499Y333000D01*
X182499D01*
X181999Y333500D01*
X267499Y347999D02*
X267000Y348499D01*
X266000D01*
X265500Y347999D01*
Y346000D01*
X266000Y345500D01*
X267000D01*
X267499Y346000D01*
X269999Y345500D02*
Y348499D01*
X268499Y347000D01*
X270498D01*
X258499Y347999D02*
X257999Y348499D01*
X257000D01*
X256500Y347999D01*
Y346000D01*
X257000Y345500D01*
X257999D01*
X258499Y346000D01*
X259499Y347999D02*
X259999Y348499D01*
X260999D01*
X261498Y347999D01*
Y347499D01*
X260999Y347000D01*
X260499D01*
X260999D01*
X261498Y346500D01*
Y346000D01*
X260999Y345500D01*
X259999D01*
X259499Y346000D01*
X191499Y368999D02*
X190999Y369499D01*
X190000D01*
X189500Y368999D01*
Y367000D01*
X190000Y366500D01*
X190999D01*
X191499Y367000D01*
X194498Y366500D02*
X192499D01*
X194498Y368499D01*
Y368999D01*
X193999Y369499D01*
X192999D01*
X192499Y368999D01*
X122500Y395498D02*
Y389500D01*
X126499D01*
X132497Y394498D02*
X131497Y395498D01*
X129498D01*
X128498Y394498D01*
Y390500D01*
X129498Y389500D01*
X131497D01*
X132497Y390500D01*
X134496Y395498D02*
Y389500D01*
X137495D01*
X138495Y390500D01*
Y394498D01*
X137495Y395498D01*
X134496D01*
X140494Y389500D02*
X142493D01*
X141494D01*
Y395498D01*
X140494Y394498D01*
X439999Y219002D02*
X438999Y220002D01*
X437000D01*
X436000Y219002D01*
Y218003D01*
X437000Y217003D01*
X438999D01*
X439999Y216003D01*
Y215004D01*
X438999Y214004D01*
X437000D01*
X436000Y215004D01*
X441998Y214004D02*
X443997D01*
X442998D01*
Y220002D01*
X441998Y219002D01*
X440499Y317998D02*
X439499Y318998D01*
X437500D01*
X436500Y317998D01*
Y316999D01*
X437500Y315999D01*
X439499D01*
X440499Y314999D01*
Y314000D01*
X439499Y313000D01*
X437500D01*
X436500Y314000D01*
X445497Y313000D02*
Y318998D01*
X442498Y315999D01*
X446497D01*
X517999Y273998D02*
X516999Y274998D01*
X515000D01*
X514000Y273998D01*
Y272999D01*
X515000Y271999D01*
X516999D01*
X517999Y270999D01*
Y270000D01*
X516999Y269000D01*
X515000D01*
X514000Y270000D01*
X523997Y269000D02*
X519998D01*
X523997Y272999D01*
Y273998D01*
X522997Y274998D01*
X520998D01*
X519998Y273998D01*
X192900Y345100D02*
X194899D01*
X193900D01*
Y351098D01*
X192900Y350098D01*
X490000Y164500D02*
Y167499D01*
X491500D01*
X491999Y166999D01*
Y165999D01*
X491500Y165500D01*
X490000D01*
X491000D02*
X491999Y164500D01*
X494998Y167499D02*
X492999D01*
Y165999D01*
X493999Y166499D01*
X494498D01*
X494998Y165999D01*
Y165000D01*
X494498Y164500D01*
X493499D01*
X492999Y165000D01*
X60000Y364500D02*
Y367499D01*
X61500D01*
X61999Y366999D01*
Y366000D01*
X61500Y365500D01*
X60000D01*
X61000D02*
X61999Y364500D01*
X64998D02*
X62999D01*
X64998Y366499D01*
Y366999D01*
X64499Y367499D01*
X63499D01*
X62999Y366999D01*
X38999Y293498D02*
X37999Y294498D01*
X36000D01*
X35000Y293498D01*
Y292499D01*
X36000Y291499D01*
X37999D01*
X38999Y290499D01*
Y289500D01*
X37999Y288500D01*
X36000D01*
X35000Y289500D01*
X40998Y288500D02*
X42997D01*
X41998D01*
Y294498D01*
X40998Y293498D01*
X45996D02*
X46996Y294498D01*
X48996D01*
X49995Y293498D01*
Y289500D01*
X48996Y288500D01*
X46996D01*
X45996Y289500D01*
Y293498D01*
X-10501Y115498D02*
X-11501Y116498D01*
X-13500D01*
X-14500Y115498D01*
Y114499D01*
X-13500Y113499D01*
X-11501D01*
X-10501Y112499D01*
Y111500D01*
X-11501Y110500D01*
X-13500D01*
X-14500Y111500D01*
X-8502D02*
X-7502Y110500D01*
X-5503D01*
X-4503Y111500D01*
Y115498D01*
X-5503Y116498D01*
X-7502D01*
X-8502Y115498D01*
Y114499D01*
X-7502Y113499D01*
X-4503D01*
X544499Y117998D02*
X543499Y118998D01*
X541500D01*
X540500Y117998D01*
Y116999D01*
X541500Y115999D01*
X543499D01*
X544499Y114999D01*
Y114000D01*
X543499Y113000D01*
X541500D01*
X540500Y114000D01*
X546498Y117998D02*
X547498Y118998D01*
X549497D01*
X550497Y117998D01*
Y116999D01*
X549497Y115999D01*
X550497Y114999D01*
Y114000D01*
X549497Y113000D01*
X547498D01*
X546498Y114000D01*
Y114999D01*
X547498Y115999D01*
X546498Y116999D01*
Y117998D01*
X547498Y115999D02*
X549497D01*
X289400Y367798D02*
Y362800D01*
X290400Y361800D01*
X292399D01*
X293399Y362800D01*
Y367798D01*
X295398Y361800D02*
X297397D01*
X296398D01*
Y367798D01*
X295398Y366798D01*
X-38001Y251498D02*
X-39001Y252498D01*
X-41000D01*
X-42000Y251498D01*
Y250499D01*
X-41000Y249499D01*
X-39001D01*
X-38001Y248499D01*
Y247500D01*
X-39001Y246500D01*
X-41000D01*
X-42000Y247500D01*
X-36002Y252498D02*
X-32003D01*
Y251498D01*
X-36002Y247500D01*
Y246500D01*
X430499Y67002D02*
X429499Y68002D01*
X427500D01*
X426500Y67002D01*
Y66003D01*
X427500Y65003D01*
X429499D01*
X430499Y64003D01*
Y63004D01*
X429499Y62004D01*
X427500D01*
X426500Y63004D01*
X436497Y68002D02*
X432498D01*
Y65003D01*
X434497Y66003D01*
X435497D01*
X436497Y65003D01*
Y63004D01*
X435497Y62004D01*
X433498D01*
X432498Y63004D01*
X-38001Y395998D02*
X-39001Y396998D01*
X-41000D01*
X-42000Y395998D01*
Y394999D01*
X-41000Y393999D01*
X-39001D01*
X-38001Y392999D01*
Y392000D01*
X-39001Y391000D01*
X-41000D01*
X-42000Y392000D01*
X-36002Y395998D02*
X-35002Y396998D01*
X-33003D01*
X-32003Y395998D01*
Y394999D01*
X-33003Y393999D01*
X-34003D01*
X-33003D01*
X-32003Y392999D01*
Y392000D01*
X-33003Y391000D01*
X-35002D01*
X-36002Y392000D01*
X291500Y522998D02*
Y517000D01*
Y519999D01*
X295499D01*
Y522998D01*
Y517000D01*
X301497D02*
X297498D01*
X301497Y520999D01*
Y521998D01*
X300497Y522998D01*
X298498D01*
X297498Y521998D01*
D11*
X533799Y172500D02*
G03*
X533799Y172500I-6299J0D01*
G01*
X560299Y223500D02*
G03*
X560299Y223500I-6299J0D01*
G01*
X559299Y338500D02*
G03*
X559299Y338500I-6299J0D01*
G01*
X-23701Y223500D02*
G03*
X-23701Y223500I-6299J0D01*
G01*
X47358Y358500D02*
G03*
X47358Y358500I-6299J0D01*
G01*
X121400Y40000D02*
X242000D01*
Y1000D02*
Y40000D01*
X121400Y1000D02*
X242000D01*
X121400D02*
Y40000D01*
X281400D02*
X402000D01*
Y1000D02*
Y40000D01*
X281400Y1000D02*
X402000D01*
X281400D02*
Y40000D01*
X124250Y490000D02*
X244850D01*
X124250D02*
Y529000D01*
X244850D01*
Y490000D02*
Y529000D01*
X337499Y119999D02*
X335500D01*
Y118500D01*
X336500Y118999D01*
X337000D01*
X337499Y118500D01*
Y117500D01*
X337000Y117000D01*
X336000D01*
X335500Y117500D01*
X338499Y119999D02*
Y118000D01*
X339499Y117000D01*
X340498Y118000D01*
Y119999D01*
X466000Y348500D02*
Y351499D01*
X467499D01*
X467999Y350999D01*
Y349999D01*
X467499Y349500D01*
X466000D01*
X467000D02*
X467999Y348500D01*
X470499D02*
X469499D01*
X468999Y349000D01*
Y349999D01*
X469499Y350499D01*
X470499D01*
X470998Y349999D01*
Y349500D01*
X468999D01*
X471998Y350499D02*
X472998Y348500D01*
X473997Y350499D01*
X476497Y348500D02*
X475497D01*
X474997Y349000D01*
Y349999D01*
X475497Y350499D01*
X476497D01*
X476996Y349999D01*
Y349500D01*
X474997D01*
X477996Y350499D02*
Y348500D01*
Y349500D01*
X478496Y349999D01*
X478996Y350499D01*
X479496D01*
X480995Y348500D02*
X482495D01*
X482995Y349000D01*
X482495Y349500D01*
X481495D01*
X480995Y349999D01*
X481495Y350499D01*
X482995D01*
X485494Y348500D02*
X484494D01*
X483994Y349000D01*
Y349999D01*
X484494Y350499D01*
X485494D01*
X485993Y349999D01*
Y349500D01*
X483994D01*
X58499Y101499D02*
X57999Y101999D01*
X57000D01*
X56500Y101499D01*
Y100999D01*
X57000Y100499D01*
X57999D01*
X58499Y99999D01*
Y99499D01*
X57999Y99000D01*
X57000D01*
X56500Y99499D01*
X59999Y101499D02*
Y100999D01*
X59499D01*
X60499D01*
X59999D01*
Y99499D01*
X60499Y99000D01*
X63998Y101999D02*
Y99000D01*
X62498D01*
X61998Y99499D01*
Y100499D01*
X62498Y100999D01*
X63998D01*
X64997Y101999D02*
Y99000D01*
X66497D01*
X66997Y99499D01*
Y99999D01*
X66497Y100499D01*
X64997D01*
X66497D01*
X66997Y100999D01*
Y101499D01*
X66497Y101999D01*
X64997D01*
X67996Y100999D02*
Y99499D01*
X68496Y99000D01*
X69996D01*
Y98500D01*
X69496Y98000D01*
X68996D01*
X69996Y99000D02*
Y100999D01*
X28000Y225499D02*
Y222500D01*
X29999D01*
X30999Y225499D02*
X32998D01*
X31999D01*
Y222500D01*
X33998Y222000D02*
X35997D01*
X37497Y222500D02*
X38497D01*
X38996Y223000D01*
Y223999D01*
X38497Y224499D01*
X37497D01*
X36997Y223999D01*
Y223000D01*
X37497Y222500D01*
X39996Y224499D02*
Y223000D01*
X40496Y222500D01*
X41995D01*
Y224499D01*
X43495Y224999D02*
Y224499D01*
X42995D01*
X43995D01*
X43495D01*
Y223000D01*
X43995Y222500D01*
X453000Y147999D02*
Y145000D01*
Y146499D01*
X454999D01*
Y147999D01*
Y145000D01*
X456499Y146999D02*
X457499D01*
X457998Y146499D01*
Y145000D01*
X456499D01*
X455999Y145500D01*
X456499Y146000D01*
X457998D01*
X458998Y146999D02*
X460997D01*
X458998Y145000D01*
X460997D01*
X462497Y146999D02*
X463497D01*
X463996Y146499D01*
Y145000D01*
X462497D01*
X461997Y145500D01*
X462497Y146000D01*
X463996D01*
X464996Y146999D02*
Y145000D01*
Y146000D01*
X465496Y146499D01*
X465996Y146999D01*
X466496D01*
X469994Y147999D02*
Y145000D01*
X468495D01*
X467995Y145500D01*
Y146499D01*
X468495Y146999D01*
X469994D01*
X470994Y145000D02*
X472494D01*
X472994Y145500D01*
X472494Y146000D01*
X471494D01*
X470994Y146499D01*
X471494Y146999D01*
X472994D01*
X473993Y144500D02*
X475993D01*
X476992Y145000D02*
X477992D01*
X477492D01*
Y146999D01*
X476992D01*
X479491Y145000D02*
Y146999D01*
X480991D01*
X481491Y146499D01*
Y145000D01*
X233499Y485001D02*
X233999Y485500D01*
Y486500D01*
X233499Y487000D01*
X231500D01*
X231000Y486500D01*
Y485500D01*
X231500Y485001D01*
X232500D01*
Y486000D01*
X231000Y484001D02*
X233999D01*
X231000Y482002D01*
X233999D01*
Y481002D02*
X231000D01*
Y479502D01*
X231500Y479003D01*
X233499D01*
X233999Y479502D01*
Y481002D01*
X412999Y353499D02*
X412500Y353999D01*
X411500D01*
X411000Y353499D01*
Y351500D01*
X411500Y351000D01*
X412500D01*
X412999Y351500D01*
Y352500D01*
X412000D01*
X413999Y351000D02*
Y353999D01*
X415998Y351000D01*
Y353999D01*
X416998D02*
Y351000D01*
X418498D01*
X418997Y351500D01*
Y353499D01*
X418498Y353999D01*
X416998D01*
X219999Y406618D02*
X220499Y407118D01*
Y408117D01*
X219999Y408617D01*
X218000D01*
X217500Y408117D01*
Y407118D01*
X218000Y406618D01*
X217500Y405618D02*
X220499D01*
Y404118D01*
X219999Y403619D01*
X218999D01*
X218499Y404118D01*
Y405618D01*
X217500Y402619D02*
Y401619D01*
Y402119D01*
X220499D01*
Y402619D01*
X219499Y400120D02*
X218000D01*
X217500Y399620D01*
Y398120D01*
X219499D01*
X217500Y397121D02*
Y395621D01*
X218000Y395122D01*
X218499Y395621D01*
Y396621D01*
X218999Y397121D01*
X219499Y396621D01*
Y395122D01*
X217000Y394122D02*
Y392122D01*
X217500Y391123D02*
Y390123D01*
Y390623D01*
X219499D01*
Y391123D01*
X217500Y388623D02*
X219499D01*
Y387124D01*
X218999Y386624D01*
X217500D01*
X221499Y485001D02*
X221999Y485500D01*
Y486500D01*
X221499Y487000D01*
X219500D01*
X219000Y486500D01*
Y485500D01*
X219500Y485001D01*
X219000Y484001D02*
X220999D01*
X221999Y483001D01*
X220999Y482002D01*
X219000D01*
X220499D01*
Y484001D01*
X219000Y481002D02*
X221999D01*
X219000Y479003D01*
X221999D01*
Y478003D02*
X219000D01*
Y476004D01*
X144499Y81999D02*
X144000Y82499D01*
X143000D01*
X142500Y81999D01*
Y80000D01*
X143000Y79500D01*
X144000D01*
X144499Y80000D01*
Y80999D01*
X143500D01*
X145499Y79500D02*
Y82499D01*
X147498Y79500D01*
Y82499D01*
X148498D02*
Y79500D01*
X149998D01*
X150497Y80000D01*
Y81999D01*
X149998Y82499D01*
X148498D01*
X95500Y210999D02*
X96000Y211499D01*
X97000D01*
X97499Y210999D01*
Y210499D01*
X97000Y209999D01*
X96500D01*
X97000D01*
X97499Y209500D01*
Y209000D01*
X97000Y208500D01*
X96000D01*
X95500Y209000D01*
X98499Y211499D02*
Y209500D01*
X99499Y208500D01*
X100498Y209500D01*
Y211499D01*
X101498Y210999D02*
X101998Y211499D01*
X102998D01*
X103497Y210999D01*
Y210499D01*
X102998Y209999D01*
X102498D01*
X102998D01*
X103497Y209500D01*
Y209000D01*
X102998Y208500D01*
X101998D01*
X101498Y209000D01*
X411000Y297499D02*
X411500Y297999D01*
X412500D01*
X412999Y297499D01*
Y296999D01*
X412500Y296499D01*
X412000D01*
X412500D01*
X412999Y296000D01*
Y295500D01*
X412500Y295000D01*
X411500D01*
X411000Y295500D01*
X413999Y297999D02*
Y296000D01*
X414999Y295000D01*
X415998Y296000D01*
Y297999D01*
X416998Y297499D02*
X417498Y297999D01*
X418498D01*
X418997Y297499D01*
Y296999D01*
X418498Y296499D01*
X417998D01*
X418498D01*
X418997Y296000D01*
Y295500D01*
X418498Y295000D01*
X417498D01*
X416998Y295500D01*
X137999Y487500D02*
X138499Y487000D01*
Y486000D01*
X137999Y485501D01*
X137499D01*
X136999Y486000D01*
Y486500D01*
Y486000D01*
X136500Y485501D01*
X136000D01*
X135500Y486000D01*
Y487000D01*
X136000Y487500D01*
X138499Y484501D02*
X136500D01*
X135500Y483501D01*
X136500Y482502D01*
X138499D01*
X137999Y481502D02*
X138499Y481002D01*
Y480002D01*
X137999Y479503D01*
X137499D01*
X136999Y480002D01*
Y480502D01*
Y480002D01*
X136500Y479503D01*
X136000D01*
X135500Y480002D01*
Y481002D01*
X136000Y481502D01*
X-45500Y157499D02*
Y154500D01*
Y155999D01*
X-43501D01*
Y157499D01*
Y154500D01*
X-42001D02*
X-41001D01*
X-40502Y155000D01*
Y155999D01*
X-41001Y156499D01*
X-42001D01*
X-42501Y155999D01*
Y155000D01*
X-42001Y154500D01*
X-39502Y156499D02*
Y154500D01*
Y155499D01*
X-39002Y155999D01*
X-38502Y156499D01*
X-38002D01*
X-36503Y154500D02*
Y156499D01*
X-35003D01*
X-34504Y155999D01*
Y154500D01*
X-33504Y154000D02*
X-31504D01*
X-30505Y154500D02*
X-29505D01*
X-30005D01*
Y156499D01*
X-30505D01*
X-28006Y154500D02*
Y156499D01*
X-26506D01*
X-26006Y155999D01*
Y154500D01*
X98499Y234999D02*
X98000Y235499D01*
X97000D01*
X96500Y234999D01*
Y234499D01*
X97000Y233999D01*
X98000D01*
X98499Y233500D01*
Y233000D01*
X98000Y232500D01*
X97000D01*
X96500Y233000D01*
X99499Y235499D02*
Y232500D01*
X100999D01*
X101498Y233000D01*
Y234999D01*
X100999Y235499D01*
X99499D01*
X102498D02*
X103498D01*
X102998D01*
Y232500D01*
X102498D01*
X103498D01*
X295999Y53501D02*
X296499Y54001D01*
Y55000D01*
X295999Y55500D01*
X295499D01*
X294999Y55000D01*
Y54001D01*
X294499Y53501D01*
X294000D01*
X293500Y54001D01*
Y55000D01*
X294000Y55500D01*
X295999Y52001D02*
X295499D01*
Y52501D01*
Y51501D01*
Y52001D01*
X294000D01*
X293500Y51501D01*
X296499Y48002D02*
X293500D01*
Y49502D01*
X294000Y50002D01*
X294999D01*
X295499Y49502D01*
Y48002D01*
X296499Y47003D02*
X293500D01*
Y45503D01*
X294000Y45003D01*
X294499D01*
X294999Y45503D01*
Y47003D01*
Y45503D01*
X295499Y45003D01*
X295999D01*
X296499Y45503D01*
Y47003D01*
X295499Y44004D02*
X294000D01*
X293500Y43504D01*
Y42004D01*
X293000D01*
X292500Y42504D01*
Y43004D01*
X293500Y42004D02*
X295499D01*
X343999Y48501D02*
Y50500D01*
X341000D01*
Y48501D01*
X342499Y50500D02*
Y49500D01*
X342999Y45502D02*
Y47001D01*
X342499Y47501D01*
X341500D01*
X341000Y47001D01*
Y45502D01*
Y44002D02*
Y43002D01*
X341500Y42503D01*
X342499D01*
X342999Y43002D01*
Y44002D01*
X342499Y44502D01*
X341500D01*
X341000Y44002D01*
X-41001Y232999D02*
X-41500Y233499D01*
X-42500D01*
X-43000Y232999D01*
Y231000D01*
X-42500Y230500D01*
X-41500D01*
X-41001Y231000D01*
Y231999D01*
X-42000D01*
X-40001Y230500D02*
Y233499D01*
X-38002Y230500D01*
Y233499D01*
X-37002D02*
Y230500D01*
X-35502D01*
X-35003Y231000D01*
Y232999D01*
X-35502Y233499D01*
X-37002D01*
X2499Y335999D02*
X2000Y336499D01*
X1000D01*
X500Y335999D01*
Y334000D01*
X1000Y333500D01*
X2000D01*
X2499Y334000D01*
X3499Y335499D02*
Y333500D01*
Y334500D01*
X3999Y334999D01*
X4499Y335499D01*
X4999D01*
X6498D02*
Y334000D01*
X6998Y333500D01*
X8497D01*
Y335499D01*
X9497Y333500D02*
X10497D01*
X9997D01*
Y335499D01*
X9497D01*
X11996Y333500D02*
X13496D01*
X13996Y334000D01*
X13496Y334500D01*
X12496D01*
X11996Y334999D01*
X12496Y335499D01*
X13996D01*
X16495Y333500D02*
X15495D01*
X14995Y334000D01*
Y334999D01*
X15495Y335499D01*
X16495D01*
X16995Y334999D01*
Y334500D01*
X14995D01*
X17994Y333000D02*
X19994D01*
X20993Y333500D02*
X21993D01*
X21493D01*
Y335499D01*
X20993D01*
X23493Y333500D02*
Y335499D01*
X24992D01*
X25492Y334999D01*
Y333500D01*
X564999Y339499D02*
X564500Y339999D01*
X563500D01*
X563000Y339499D01*
Y337500D01*
X563500Y337000D01*
X564500D01*
X564999Y337500D01*
Y338499D01*
X564000D01*
X565999Y337000D02*
Y339999D01*
X567998Y337000D01*
Y339999D01*
X568998D02*
Y337000D01*
X570498D01*
X570997Y337500D01*
Y339499D01*
X570498Y339999D01*
X568998D01*
X100499Y282499D02*
X99999Y282999D01*
X99000D01*
X98500Y282499D01*
Y280500D01*
X99000Y280000D01*
X99999D01*
X100499Y280500D01*
X103498Y282499D02*
X102999Y282999D01*
X101999D01*
X101499Y282499D01*
Y281999D01*
X101999Y281500D01*
X102999D01*
X103498Y281000D01*
Y280500D01*
X102999Y280000D01*
X101999D01*
X101499Y280500D01*
X162999Y485001D02*
Y487000D01*
X161500D01*
X161999Y486000D01*
Y485500D01*
X161500Y485001D01*
X160500D01*
X160000Y485500D01*
Y486500D01*
X160500Y487000D01*
X162999Y484001D02*
X161000D01*
X160000Y483001D01*
X161000Y482002D01*
X162999D01*
X218000Y90999D02*
X218500Y91499D01*
X219499D01*
X219999Y90999D01*
Y90499D01*
X219499Y90000D01*
X219000D01*
X219499D01*
X219999Y89500D01*
Y89000D01*
X219499Y88500D01*
X218500D01*
X218000Y89000D01*
X220999Y91499D02*
Y89500D01*
X221999Y88500D01*
X222998Y89500D01*
Y91499D01*
X223998Y90999D02*
X224498Y91499D01*
X225498D01*
X225997Y90999D01*
Y90499D01*
X225498Y90000D01*
X224998D01*
X225498D01*
X225997Y89500D01*
Y89000D01*
X225498Y88500D01*
X224498D01*
X223998Y89000D01*
X135499Y49001D02*
X135999Y49501D01*
Y50500D01*
X135499Y51000D01*
X133500D01*
X133000Y50500D01*
Y49501D01*
X133500Y49001D01*
X134500D01*
Y50000D01*
X133000Y48001D02*
X135999D01*
X133000Y46002D01*
X135999D01*
Y45002D02*
X133000D01*
Y43502D01*
X133500Y43003D01*
X135499D01*
X135999Y43502D01*
Y45002D01*
X240500Y277999D02*
X241000Y278499D01*
X242000D01*
X242499Y277999D01*
Y277499D01*
X242000Y276999D01*
X241500D01*
X242000D01*
X242499Y276500D01*
Y276000D01*
X242000Y275500D01*
X241000D01*
X240500Y276000D01*
X243499Y278499D02*
Y276500D01*
X244499Y275500D01*
X245498Y276500D01*
Y278499D01*
X246498Y277999D02*
X246998Y278499D01*
X247998D01*
X248497Y277999D01*
Y277499D01*
X247998Y276999D01*
X247498D01*
X247998D01*
X248497Y276500D01*
Y276000D01*
X247998Y275500D01*
X246998D01*
X246498Y276000D01*
X240499Y408617D02*
X237500D01*
X238999D01*
Y406618D01*
X240499D01*
X237500D01*
X239499Y405118D02*
Y404118D01*
X238999Y403619D01*
X237500D01*
Y405118D01*
X238000Y405618D01*
X238499Y405118D01*
Y403619D01*
X239499Y402619D02*
Y400620D01*
X237500Y402619D01*
Y400620D01*
X239499Y399120D02*
Y398120D01*
X238999Y397621D01*
X237500D01*
Y399120D01*
X238000Y399620D01*
X238499Y399120D01*
Y397621D01*
X239499Y396621D02*
X237500D01*
X238499D01*
X238999Y396121D01*
X239499Y395621D01*
Y395121D01*
X240499Y391623D02*
X237500D01*
Y393122D01*
X238000Y393622D01*
X238999D01*
X239499Y393122D01*
Y391623D01*
X237500Y390623D02*
Y389123D01*
X238000Y388623D01*
X238499Y389123D01*
Y390123D01*
X238999Y390623D01*
X239499Y390123D01*
Y388623D01*
X237000Y387624D02*
Y385625D01*
X237500Y384625D02*
Y383625D01*
Y384125D01*
X239499D01*
Y384625D01*
X237500Y382126D02*
X239499D01*
Y380626D01*
X238999Y380126D01*
X237500D01*
X-59500Y270999D02*
X-59000Y271499D01*
X-58000D01*
X-57501Y270999D01*
Y270499D01*
X-58000Y270000D01*
X-58500D01*
X-58000D01*
X-57501Y269500D01*
Y269000D01*
X-58000Y268500D01*
X-59000D01*
X-59500Y269000D01*
X-56501Y271499D02*
Y269500D01*
X-55501Y268500D01*
X-54502Y269500D01*
Y271499D01*
X-53502Y270999D02*
X-53002Y271499D01*
X-52002D01*
X-51503Y270999D01*
Y270499D01*
X-52002Y270000D01*
X-52502D01*
X-52002D01*
X-51503Y269500D01*
Y269000D01*
X-52002Y268500D01*
X-53002D01*
X-53502Y269000D01*
X24999Y358999D02*
X24499Y359499D01*
X23500D01*
X23000Y358999D01*
Y357000D01*
X23500Y356500D01*
X24499D01*
X24999Y357000D01*
Y357999D01*
X24000D01*
X25999Y356500D02*
Y359499D01*
X27998Y356500D01*
Y359499D01*
X28998D02*
Y356500D01*
X30498D01*
X30997Y357000D01*
Y358999D01*
X30498Y359499D01*
X28998D01*
X274000Y341999D02*
X274500Y342499D01*
X275500D01*
X275999Y341999D01*
Y341499D01*
X275500Y341000D01*
X275000D01*
X275500D01*
X275999Y340500D01*
Y340000D01*
X275500Y339500D01*
X274500D01*
X274000Y340000D01*
X276999Y342499D02*
Y340500D01*
X277999Y339500D01*
X278998Y340500D01*
Y342499D01*
X279998Y341999D02*
X280498Y342499D01*
X281498D01*
X281997Y341999D01*
Y341499D01*
X281498Y341000D01*
X280998D01*
X281498D01*
X281997Y340500D01*
Y340000D01*
X281498Y339500D01*
X280498D01*
X279998Y340000D01*
X-61000Y354999D02*
X-60500Y355499D01*
X-59500D01*
X-59001Y354999D01*
Y354499D01*
X-59500Y353999D01*
X-60000D01*
X-59500D01*
X-59001Y353500D01*
Y353000D01*
X-59500Y352500D01*
X-60500D01*
X-61000Y353000D01*
X-58001Y355499D02*
Y353500D01*
X-57001Y352500D01*
X-56002Y353500D01*
Y355499D01*
X-55002Y354999D02*
X-54502Y355499D01*
X-53502D01*
X-53003Y354999D01*
Y354499D01*
X-53502Y353999D01*
X-54002D01*
X-53502D01*
X-53003Y353500D01*
Y353000D01*
X-53502Y352500D01*
X-54502D01*
X-55002Y353000D01*
X564999Y221999D02*
X564500Y222499D01*
X563500D01*
X563000Y221999D01*
Y220000D01*
X563500Y219500D01*
X564500D01*
X564999Y220000D01*
Y221000D01*
X564000D01*
X565999Y219500D02*
Y222499D01*
X567998Y219500D01*
Y222499D01*
X568998D02*
Y219500D01*
X570498D01*
X570997Y220000D01*
Y221999D01*
X570498Y222499D01*
X568998D01*
X197499Y375999D02*
X197000Y376499D01*
X196000D01*
X195500Y375999D01*
Y374000D01*
X196000Y373500D01*
X197000D01*
X197499Y374000D01*
Y374999D01*
X196500D01*
X198499Y373500D02*
Y376499D01*
X200498Y373500D01*
Y376499D01*
X201498D02*
Y373500D01*
X202998D01*
X203497Y374000D01*
Y375999D01*
X202998Y376499D01*
X201498D01*
X319999Y56000D02*
X317000D01*
Y54001D01*
X318999Y52501D02*
Y51501D01*
X318499Y51002D01*
X317000D01*
Y52501D01*
X317500Y53001D01*
X318000Y52501D01*
Y51002D01*
X319499Y49502D02*
X318999D01*
Y50002D01*
Y49002D01*
Y49502D01*
X317500D01*
X317000Y49002D01*
X318999Y45503D02*
Y47003D01*
X318499Y47503D01*
X317500D01*
X317000Y47003D01*
Y45503D01*
X319999Y44504D02*
X317000D01*
X318499D01*
X318999Y44004D01*
Y43004D01*
X318499Y42504D01*
X317000D01*
X270499Y408617D02*
X267500D01*
X268999D01*
Y406618D01*
X270499D01*
X267500D01*
Y405118D02*
Y404118D01*
X268000Y403619D01*
X268999D01*
X269499Y404118D01*
Y405118D01*
X268999Y405618D01*
X268000D01*
X267500Y405118D01*
X269499Y402619D02*
X267500D01*
X268499D01*
X268999Y402119D01*
X269499Y401619D01*
Y401120D01*
X267500Y399620D02*
X269499D01*
Y398120D01*
X268999Y397621D01*
X267500D01*
X267000Y396621D02*
Y394622D01*
X267500Y393622D02*
Y392622D01*
Y393122D01*
X269499D01*
Y393622D01*
X267500Y391123D02*
X269499D01*
Y389623D01*
X268999Y389123D01*
X267500D01*
X483500Y312500D02*
Y315499D01*
X485000D01*
X485499Y314999D01*
Y313999D01*
X485000Y313499D01*
X483500D01*
X484500D02*
X485499Y312500D01*
X487998D02*
X486999D01*
X486499Y313000D01*
Y313999D01*
X486999Y314499D01*
X487998D01*
X488498Y313999D01*
Y313499D01*
X486499D01*
X490498Y311500D02*
X490998D01*
X491497Y312000D01*
Y314499D01*
X489998D01*
X489498Y313999D01*
Y313000D01*
X489998Y312500D01*
X491497D01*
X493997D02*
X492997D01*
X492497Y313000D01*
Y313999D01*
X492997Y314499D01*
X493997D01*
X494496Y313999D01*
Y313499D01*
X492497D01*
X495496Y312500D02*
Y314499D01*
X496996D01*
X497496Y313999D01*
Y312500D01*
X498495Y312000D02*
X500494D01*
X501494Y312500D02*
X502494D01*
X501994D01*
Y314499D01*
X501494D01*
X503993Y312500D02*
Y314499D01*
X505493D01*
X505993Y313999D01*
Y312500D01*
X206499Y51000D02*
X206999Y50500D01*
Y49501D01*
X206499Y49001D01*
X205999D01*
X205500Y49501D01*
Y50000D01*
Y49501D01*
X205000Y49001D01*
X204500D01*
X204000Y49501D01*
Y50500D01*
X204500Y51000D01*
X206999Y48001D02*
X205000D01*
X204000Y47001D01*
X205000Y46002D01*
X206999D01*
X206499Y45002D02*
X206999Y44502D01*
Y43502D01*
X206499Y43003D01*
X205999D01*
X205500Y43502D01*
Y44002D01*
Y43502D01*
X205000Y43003D01*
X204500D01*
X204000Y43502D01*
Y44502D01*
X204500Y45002D01*
X97499Y265999D02*
X97000Y266499D01*
X96000D01*
X95500Y265999D01*
Y265499D01*
X96000Y265000D01*
X97000D01*
X97499Y264500D01*
Y264000D01*
X97000Y263500D01*
X96000D01*
X95500Y264000D01*
X100498Y265999D02*
X99999Y266499D01*
X98999D01*
X98499Y265999D01*
Y264000D01*
X98999Y263500D01*
X99999D01*
X100498Y264000D01*
X101498Y266499D02*
Y263500D01*
Y264500D01*
X103497Y266499D01*
X101998Y265000D01*
X103497Y263500D01*
X412999Y218999D02*
X412500Y219499D01*
X411500D01*
X411000Y218999D01*
Y217000D01*
X411500Y216500D01*
X412500D01*
X412999Y217000D01*
Y218000D01*
X412000D01*
X413999Y216500D02*
Y219499D01*
X415998Y216500D01*
Y219499D01*
X416998D02*
Y216500D01*
X418498D01*
X418997Y217000D01*
Y218999D01*
X418498Y219499D01*
X416998D01*
X416499Y120499D02*
X414500D01*
Y119000D01*
X415500Y119499D01*
X416000D01*
X416499Y119000D01*
Y118000D01*
X416000Y117500D01*
X415000D01*
X414500Y118000D01*
X417499Y120499D02*
Y118500D01*
X418499Y117500D01*
X419498Y118500D01*
Y120499D01*
X199999Y408617D02*
X197000D01*
Y406618D01*
X199999Y405618D02*
Y403619D01*
Y404618D01*
X197000D01*
X196500Y402619D02*
Y400620D01*
X197000Y399620D02*
Y398620D01*
Y399120D01*
X198999D01*
Y399620D01*
X197000Y397121D02*
X198999D01*
Y395621D01*
X198499Y395122D01*
X197000D01*
X483500Y222500D02*
Y225499D01*
X485000D01*
X485499Y224999D01*
Y223999D01*
X485000Y223499D01*
X483500D01*
X484500D02*
X485499Y222500D01*
X486499Y225499D02*
X488498D01*
X487499D01*
Y222500D01*
X489498Y222000D02*
X491497D01*
X492997Y222500D02*
X493997D01*
X494496Y223000D01*
Y223999D01*
X493997Y224499D01*
X492997D01*
X492497Y223999D01*
Y223000D01*
X492997Y222500D01*
X495496Y224499D02*
Y223000D01*
X495996Y222500D01*
X497496D01*
Y224499D01*
X498995Y224999D02*
Y224499D01*
X498495D01*
X499495D01*
X498995D01*
Y223000D01*
X499495Y222500D01*
X250499Y408617D02*
X247500D01*
X248999D01*
Y406618D01*
X250499D01*
X247500D01*
Y404118D02*
Y405118D01*
X248000Y405618D01*
X248999D01*
X249499Y405118D01*
Y404118D01*
X248999Y403619D01*
X248499D01*
Y405618D01*
X249499Y402119D02*
Y401120D01*
X248999Y400620D01*
X247500D01*
Y402119D01*
X248000Y402619D01*
X248499Y402119D01*
Y400620D01*
X250499Y397621D02*
X247500D01*
Y399120D01*
X248000Y399620D01*
X248999D01*
X249499Y399120D01*
Y397621D01*
X247500Y396621D02*
Y395621D01*
Y396121D01*
X250499D01*
Y396621D01*
X247500Y394122D02*
Y393122D01*
Y393622D01*
X249499D01*
Y394122D01*
X246500Y390623D02*
Y390123D01*
X247000Y389623D01*
X249499D01*
Y391123D01*
X248999Y391623D01*
X248000D01*
X247500Y391123D01*
Y389623D01*
X250499Y388623D02*
X247500D01*
X248999D01*
X249499Y388124D01*
Y387124D01*
X248999Y386624D01*
X247500D01*
X249999Y385125D02*
X249499D01*
Y385625D01*
Y384625D01*
Y385125D01*
X248000D01*
X247500Y384625D01*
Y383125D02*
Y381626D01*
X248000Y381126D01*
X248499Y381626D01*
Y382626D01*
X248999Y383125D01*
X249499Y382626D01*
Y381126D01*
X247000Y380126D02*
Y378127D01*
X247500Y377127D02*
Y376128D01*
Y376627D01*
X249499D01*
Y377127D01*
X247500Y374628D02*
X249499D01*
Y373129D01*
X248999Y372629D01*
X247500D01*
X414499Y101499D02*
X412500D01*
Y98500D01*
X414499D01*
X412500Y99999D02*
X413500D01*
X417498Y100499D02*
X415999D01*
X415499Y99999D01*
Y99000D01*
X415999Y98500D01*
X417498D01*
X418998D02*
X419998D01*
X420497Y99000D01*
Y99999D01*
X419998Y100499D01*
X418998D01*
X418498Y99999D01*
Y99000D01*
X418998Y98500D01*
X18000Y311999D02*
X18500Y312499D01*
X19500D01*
X19999Y311999D01*
Y311499D01*
X19500Y310999D01*
X19000D01*
X19500D01*
X19999Y310500D01*
Y310000D01*
X19500Y309500D01*
X18500D01*
X18000Y310000D01*
X20999Y312499D02*
Y310500D01*
X21999Y309500D01*
X22998Y310500D01*
Y312499D01*
X23998Y311999D02*
X24498Y312499D01*
X25498D01*
X25997Y311999D01*
Y311499D01*
X25498Y310999D01*
X24998D01*
X25498D01*
X25997Y310500D01*
Y310000D01*
X25498Y309500D01*
X24498D01*
X23998Y310000D01*
X168500Y317499D02*
X169000Y317999D01*
X170000D01*
X170499Y317499D01*
Y316999D01*
X170000Y316499D01*
X169500D01*
X170000D01*
X170499Y316000D01*
Y315500D01*
X170000Y315000D01*
X169000D01*
X168500Y315500D01*
X171499Y317999D02*
Y316000D01*
X172499Y315000D01*
X173498Y316000D01*
Y317999D01*
X174498Y317499D02*
X174998Y317999D01*
X175998D01*
X176497Y317499D01*
Y316999D01*
X175998Y316499D01*
X175498D01*
X175998D01*
X176497Y316000D01*
Y315500D01*
X175998Y315000D01*
X174998D01*
X174498Y315500D01*
X468499Y371499D02*
X466500D01*
Y370000D01*
X467500Y370499D01*
X468000D01*
X468499Y370000D01*
Y369000D01*
X468000Y368500D01*
X467000D01*
X466500Y369000D01*
X469499Y371499D02*
Y369500D01*
X470499Y368500D01*
X471498Y369500D01*
Y371499D01*
X412999Y282999D02*
X412500Y283499D01*
X411500D01*
X411000Y282999D01*
Y281000D01*
X411500Y280500D01*
X412500D01*
X412999Y281000D01*
Y281999D01*
X412000D01*
X413999Y280500D02*
Y283499D01*
X415998Y280500D01*
Y283499D01*
X416998D02*
Y280500D01*
X418498D01*
X418997Y281000D01*
Y282999D01*
X418498Y283499D01*
X416998D01*
X170499Y327499D02*
X170000Y327999D01*
X169000D01*
X168500Y327499D01*
Y325500D01*
X169000Y325000D01*
X170000D01*
X170499Y325500D01*
Y326500D01*
X169500D01*
X171499Y325000D02*
Y327999D01*
X173498Y325000D01*
Y327999D01*
X174498D02*
Y325000D01*
X175998D01*
X176497Y325500D01*
Y327499D01*
X175998Y327999D01*
X174498D01*
X97499Y219999D02*
X97000Y220499D01*
X96000D01*
X95500Y219999D01*
Y218000D01*
X96000Y217500D01*
X97000D01*
X97499Y218000D01*
Y219000D01*
X96500D01*
X98499Y217500D02*
Y220499D01*
X100498Y217500D01*
Y220499D01*
X101498D02*
Y217500D01*
X102998D01*
X103497Y218000D01*
Y219999D01*
X102998Y220499D01*
X101498D01*
X277500Y408617D02*
X280499D01*
Y407118D01*
X279999Y406618D01*
X278999D01*
X278500Y407118D01*
Y408617D01*
Y407617D02*
X277500Y406618D01*
Y404118D02*
Y405118D01*
X278000Y405618D01*
X278999D01*
X279499Y405118D01*
Y404118D01*
X278999Y403619D01*
X278500D01*
Y405618D01*
X277500Y402619D02*
Y401120D01*
X278000Y400620D01*
X278500Y401120D01*
Y402119D01*
X278999Y402619D01*
X279499Y402119D01*
Y400620D01*
X277500Y398120D02*
Y399120D01*
X278000Y399620D01*
X278999D01*
X279499Y399120D01*
Y398120D01*
X278999Y397621D01*
X278500D01*
Y399620D01*
X279499Y396621D02*
X277500D01*
X278500D01*
X278999Y396121D01*
X279499Y395621D01*
Y395121D01*
Y393622D02*
X277500Y392622D01*
X279499Y391623D01*
X277500Y389123D02*
Y390123D01*
X278000Y390623D01*
X278999D01*
X279499Y390123D01*
Y389123D01*
X278999Y388623D01*
X278500D01*
Y390623D01*
X280499Y385625D02*
X277500D01*
Y387124D01*
X278000Y387624D01*
X278999D01*
X279499Y387124D01*
Y385625D01*
X279999Y384625D02*
X280499Y384125D01*
Y383125D01*
X279999Y382626D01*
X278000D01*
X277500Y383125D01*
Y384125D01*
X278000Y384625D01*
X279999D01*
X539499Y173499D02*
X539000Y173999D01*
X538000D01*
X537500Y173499D01*
Y171500D01*
X538000Y171000D01*
X539000D01*
X539499Y171500D01*
Y172500D01*
X538500D01*
X540499Y171000D02*
Y173999D01*
X542498Y171000D01*
Y173999D01*
X543498D02*
Y171000D01*
X544998D01*
X545497Y171500D01*
Y173499D01*
X544998Y173999D01*
X543498D01*
X229999Y406618D02*
X230499Y407118D01*
Y408117D01*
X229999Y408617D01*
X228000D01*
X227500Y408117D01*
Y407118D01*
X228000Y406618D01*
X227500Y405618D02*
X230499D01*
X229499Y404618D01*
X230499Y403619D01*
X227500D01*
Y402619D02*
Y401619D01*
Y402119D01*
X229499D01*
Y402619D01*
X227500Y400120D02*
X229499D01*
Y398620D01*
X228999Y398120D01*
X227500D01*
X229499Y397121D02*
X228000D01*
X227500Y396621D01*
Y395122D01*
X229499D01*
X227500Y394122D02*
Y392622D01*
X228000Y392122D01*
X228500Y392622D01*
Y393622D01*
X228999Y394122D01*
X229499Y393622D01*
Y392122D01*
X227000Y391123D02*
Y389123D01*
X227500Y388124D02*
Y387124D01*
Y387624D01*
X229499D01*
Y388124D01*
X227500Y385625D02*
X229499D01*
Y384125D01*
X228999Y383625D01*
X227500D01*
X74499Y366499D02*
X74000Y366999D01*
X73000D01*
X72500Y366499D01*
Y364500D01*
X73000Y364000D01*
X74000D01*
X74499Y364500D01*
X75499Y365999D02*
Y364000D01*
Y365000D01*
X75999Y365499D01*
X76499Y365999D01*
X76999D01*
X78498D02*
Y364500D01*
X78998Y364000D01*
X80497D01*
Y365999D01*
X81497Y364000D02*
X82497D01*
X81997D01*
Y365999D01*
X81497D01*
X83996Y364000D02*
X85496D01*
X85996Y364500D01*
X85496Y365000D01*
X84496D01*
X83996Y365499D01*
X84496Y365999D01*
X85996D01*
X88495Y364000D02*
X87495D01*
X86995Y364500D01*
Y365499D01*
X87495Y365999D01*
X88495D01*
X88995Y365499D01*
Y365000D01*
X86995D01*
X89994Y363500D02*
X91994D01*
X93493Y364000D02*
X94493D01*
X94993Y364500D01*
Y365499D01*
X94493Y365999D01*
X93493D01*
X92993Y365499D01*
Y364500D01*
X93493Y364000D01*
X95992Y365999D02*
Y364500D01*
X96492Y364000D01*
X97992D01*
Y365999D01*
X99491Y366499D02*
Y365999D01*
X98991D01*
X99991D01*
X99491D01*
Y364500D01*
X99991Y364000D01*
X97499Y289999D02*
X97000Y290499D01*
X96000D01*
X95500Y289999D01*
Y288000D01*
X96000Y287500D01*
X97000D01*
X97499Y288000D01*
Y289000D01*
X96500D01*
X98499Y287500D02*
Y290499D01*
X100498Y287500D01*
Y290499D01*
X101498D02*
Y287500D01*
X102998D01*
X103497Y288000D01*
Y289999D01*
X102998Y290499D01*
X101498D01*
X215000Y112499D02*
Y109500D01*
X216999D01*
X218499Y111499D02*
X219498D01*
X219998Y111000D01*
Y109500D01*
X218499D01*
X217999Y110000D01*
X218499Y110500D01*
X219998D01*
X221498Y111999D02*
Y111499D01*
X220998D01*
X221998D01*
X221498D01*
Y110000D01*
X221998Y109500D01*
X225497Y111499D02*
X223997D01*
X223497Y111000D01*
Y110000D01*
X223997Y109500D01*
X225497D01*
X226496Y112499D02*
Y109500D01*
Y111000D01*
X226996Y111499D01*
X227996D01*
X228496Y111000D01*
Y109500D01*
X146499Y119499D02*
X144500D01*
Y117999D01*
X145500Y118499D01*
X146000D01*
X146499Y117999D01*
Y117000D01*
X146000Y116500D01*
X145000D01*
X144500Y117000D01*
X147499Y119499D02*
Y117500D01*
X148499Y116500D01*
X149498Y117500D01*
Y119499D01*
X497500Y294499D02*
X498000Y294999D01*
X499000D01*
X499499Y294499D01*
Y293999D01*
X499000Y293499D01*
X498500D01*
X499000D01*
X499499Y293000D01*
Y292500D01*
X499000Y292000D01*
X498000D01*
X497500Y292500D01*
X500499Y294999D02*
Y293000D01*
X501499Y292000D01*
X502498Y293000D01*
Y294999D01*
X503498Y294499D02*
X503998Y294999D01*
X504998D01*
X505497Y294499D01*
Y293999D01*
X504998Y293499D01*
X504498D01*
X504998D01*
X505497Y293000D01*
Y292500D01*
X504998Y292000D01*
X503998D01*
X503498Y292500D01*
X206500Y375999D02*
X207000Y376499D01*
X207999D01*
X208499Y375999D01*
Y375499D01*
X207999Y374999D01*
X207500D01*
X207999D01*
X208499Y374500D01*
Y374000D01*
X207999Y373500D01*
X207000D01*
X206500Y374000D01*
X209499Y376499D02*
Y374500D01*
X210499Y373500D01*
X211498Y374500D01*
Y376499D01*
X212498Y375999D02*
X212998Y376499D01*
X213998D01*
X214497Y375999D01*
Y375499D01*
X213998Y374999D01*
X213498D01*
X213998D01*
X214497Y374500D01*
Y374000D01*
X213998Y373500D01*
X212998D01*
X212498Y374000D01*
X180500Y56000D02*
X183499D01*
Y54501D01*
X182999Y54001D01*
X181999D01*
X181500Y54501D01*
Y56000D01*
Y55000D02*
X180500Y54001D01*
X183499Y53001D02*
Y51002D01*
Y52001D01*
X180500D01*
X180000Y50002D02*
Y48003D01*
X180500Y47003D02*
Y46003D01*
Y46503D01*
X182499D01*
Y47003D01*
X180500Y44504D02*
X182499D01*
Y43004D01*
X181999Y42504D01*
X180500D01*
X63499Y81999D02*
X62999Y82499D01*
X62000D01*
X61500Y81999D01*
Y80000D01*
X62000Y79500D01*
X62999D01*
X63499Y80000D01*
Y80999D01*
X62500D01*
X64499Y79500D02*
Y82499D01*
X66498Y79500D01*
Y82499D01*
X67498D02*
Y79500D01*
X68998D01*
X69497Y80000D01*
Y81999D01*
X68998Y82499D01*
X67498D01*
X218499Y50500D02*
X218999Y50000D01*
Y49000D01*
X218499Y48501D01*
X217999D01*
X217499Y49000D01*
Y49500D01*
Y49000D01*
X217000Y48501D01*
X216500D01*
X216000Y49000D01*
Y50000D01*
X216500Y50500D01*
X218999Y47501D02*
X217000D01*
X216000Y46501D01*
X217000Y45502D01*
X218999D01*
X218499Y44502D02*
X218999Y44002D01*
Y43002D01*
X218499Y42503D01*
X217999D01*
X217499Y43002D01*
Y43502D01*
Y43002D01*
X217000Y42503D01*
X216500D01*
X216000Y43002D01*
Y44002D01*
X216500Y44502D01*
X257500Y408617D02*
X260499D01*
Y407118D01*
X259999Y406618D01*
X258999D01*
X258499Y407118D01*
Y408617D01*
Y407617D02*
X257500Y406618D01*
Y404118D02*
Y405118D01*
X257999Y405618D01*
X258999D01*
X259499Y405118D01*
Y404118D01*
X258999Y403619D01*
X258499D01*
Y405618D01*
X256500Y401619D02*
Y401120D01*
X257000Y400620D01*
X259499D01*
Y402119D01*
X258999Y402619D01*
X257999D01*
X257500Y402119D01*
Y400620D01*
Y398120D02*
Y399120D01*
X257999Y399620D01*
X258999D01*
X259499Y399120D01*
Y398120D01*
X258999Y397621D01*
X258499D01*
Y399620D01*
X257500Y396621D02*
X259499D01*
Y395121D01*
X258999Y394622D01*
X257500D01*
X257000Y393622D02*
Y391623D01*
X257500Y390623D02*
Y389623D01*
Y390123D01*
X259499D01*
Y390623D01*
X257500Y388124D02*
X259499D01*
Y386624D01*
X258999Y386124D01*
X257500D01*
X229999Y50500D02*
X230499Y50000D01*
Y49000D01*
X229999Y48501D01*
X229499D01*
X228999Y49000D01*
Y49500D01*
Y49000D01*
X228500Y48501D01*
X228000D01*
X227500Y49000D01*
Y50000D01*
X228000Y50500D01*
X230499Y47501D02*
X228500D01*
X227500Y46501D01*
X228500Y45502D01*
X230499D01*
X229999Y44502D02*
X230499Y44002D01*
Y43002D01*
X229999Y42503D01*
X229499D01*
X228999Y43002D01*
Y43502D01*
Y43002D01*
X228500Y42503D01*
X228000D01*
X227500Y43002D01*
Y44002D01*
X228000Y44502D01*
X150999Y485501D02*
X151499Y486000D01*
Y487000D01*
X150999Y487500D01*
X149000D01*
X148500Y487000D01*
Y486000D01*
X149000Y485501D01*
X150499Y484501D02*
X148500D01*
X149499D01*
X149999Y484001D01*
X150499Y483501D01*
Y483002D01*
Y481502D02*
X149000D01*
X148500Y481002D01*
Y479503D01*
X150499D01*
X148500Y478503D02*
Y477503D01*
Y478003D01*
X150499D01*
Y478503D01*
X148500Y476004D02*
Y474504D01*
X149000Y474004D01*
X149499Y474504D01*
Y475504D01*
X149999Y476004D01*
X150499Y475504D01*
Y474004D01*
X148500Y471505D02*
Y472505D01*
X149000Y473005D01*
X149999D01*
X150499Y472505D01*
Y471505D01*
X149999Y471005D01*
X149499D01*
Y473005D01*
X148000Y470006D02*
Y468006D01*
X148500Y467007D02*
Y466007D01*
Y466507D01*
X150499D01*
Y467007D01*
X148500Y464507D02*
X150499D01*
Y463008D01*
X149999Y462508D01*
X148500D01*
X207500Y408617D02*
X210499D01*
Y407118D01*
X209999Y406618D01*
X208999D01*
X208500Y407118D01*
Y408617D01*
Y407617D02*
X207500Y406618D01*
X210499Y405618D02*
Y403619D01*
Y404618D01*
X207500D01*
X207000Y402619D02*
Y400620D01*
X207500Y399620D02*
Y398620D01*
Y399120D01*
X209499D01*
Y399620D01*
X207500Y397121D02*
X209499D01*
Y395621D01*
X208999Y395122D01*
X207500D01*
X335000Y97000D02*
Y99999D01*
X336000Y98999D01*
X336999Y99999D01*
Y97000D01*
X339998Y99499D02*
X339498Y99999D01*
X338499D01*
X337999Y99499D01*
Y97500D01*
X338499Y97000D01*
X339498D01*
X339998Y97500D01*
X335499Y82499D02*
X334999Y82999D01*
X334000D01*
X333500Y82499D01*
Y80500D01*
X334000Y80000D01*
X334999D01*
X335499Y80500D01*
Y81499D01*
X334500D01*
X336499Y80000D02*
Y82999D01*
X338498Y80000D01*
Y82999D01*
X339498D02*
Y80000D01*
X340998D01*
X341497Y80500D01*
Y82499D01*
X340998Y82999D01*
X339498D01*
X147499Y49001D02*
X147999Y49501D01*
Y50500D01*
X147499Y51000D01*
X145500D01*
X145000Y50500D01*
Y49501D01*
X145500Y49001D01*
X146500D01*
Y50000D01*
X145000Y48001D02*
X147999D01*
X145000Y46002D01*
X147999D01*
Y45002D02*
X145000D01*
Y43502D01*
X145500Y43003D01*
X147499D01*
X147999Y43502D01*
Y45002D01*
X467499Y333999D02*
X466999Y334499D01*
X466000D01*
X465500Y333999D01*
Y332000D01*
X466000Y331500D01*
X466999D01*
X467499Y332000D01*
Y332999D01*
X466500D01*
X468499Y331500D02*
Y334499D01*
X470498Y331500D01*
Y334499D01*
X471498D02*
Y331500D01*
X472998D01*
X473497Y332000D01*
Y333999D01*
X472998Y334499D01*
X471498D01*
X195499Y71500D02*
Y69501D01*
Y70500D01*
X192500D01*
X195499Y68501D02*
X192500D01*
X193999D01*
X194499Y68001D01*
Y67001D01*
X193999Y66502D01*
X192500D01*
X194499Y65502D02*
X192500D01*
X193500D01*
X193999Y65002D01*
X194499Y64502D01*
Y64002D01*
X192500Y62003D02*
Y61003D01*
X193000Y60504D01*
X193999D01*
X194499Y61003D01*
Y62003D01*
X193999Y62503D01*
X193000D01*
X192500Y62003D01*
X194999Y59004D02*
X194499D01*
Y59504D01*
Y58504D01*
Y59004D01*
X193000D01*
X192500Y58504D01*
X194999Y56505D02*
X194499D01*
Y57005D01*
Y56005D01*
Y56505D01*
X193000D01*
X192500Y56005D01*
Y54505D02*
Y53506D01*
Y54006D01*
X195499D01*
Y54505D01*
X192500Y50507D02*
Y51507D01*
X193000Y52006D01*
X193999D01*
X194499Y51507D01*
Y50507D01*
X193999Y50007D01*
X193500D01*
Y52006D01*
X192000Y49007D02*
Y47008D01*
X192500Y46008D02*
Y45009D01*
Y45508D01*
X194499D01*
Y46008D01*
X192500Y43509D02*
X194499D01*
Y42009D01*
X193999Y41510D01*
X192500D01*
X328500Y47500D02*
X331499D01*
X330499Y46500D01*
X331499Y45501D01*
X328500D01*
X330999Y42502D02*
X331499Y43001D01*
Y44001D01*
X330999Y44501D01*
X329000D01*
X328500Y44001D01*
Y43001D01*
X329000Y42502D01*
X466999Y230999D02*
X466500Y231499D01*
X465500D01*
X465000Y230999D01*
Y229000D01*
X465500Y228500D01*
X466500D01*
X466999Y229000D01*
Y229999D01*
X466000D01*
X467999Y228500D02*
Y231499D01*
X469998Y228500D01*
Y231499D01*
X470998D02*
Y228500D01*
X472498D01*
X472997Y229000D01*
Y230999D01*
X472498Y231499D01*
X470998D01*
X305500Y55500D02*
X308499D01*
Y54001D01*
X307999Y53501D01*
X306999D01*
X306500Y54001D01*
Y55500D01*
X305500Y52001D02*
Y51001D01*
X306000Y50502D01*
X306999D01*
X307499Y51001D01*
Y52001D01*
X306999Y52501D01*
X306000D01*
X305500Y52001D01*
X307499Y49502D02*
X306000D01*
X305500Y49002D01*
X306000Y48502D01*
X305500Y48002D01*
X306000Y47503D01*
X307499D01*
X305500Y45003D02*
Y46003D01*
X306000Y46503D01*
X306999D01*
X307499Y46003D01*
Y45003D01*
X306999Y44504D01*
X306500D01*
Y46503D01*
X307499Y43504D02*
X305500D01*
X306500D01*
X306999Y43004D01*
X307499Y42504D01*
Y42004D01*
X275999Y331499D02*
X275500Y331999D01*
X274500D01*
X274000Y331499D01*
Y329500D01*
X274500Y329000D01*
X275500D01*
X275999Y329500D01*
Y330500D01*
X275000D01*
X276999Y329000D02*
Y331999D01*
X278998Y329000D01*
Y331999D01*
X279998D02*
Y329000D01*
X281498D01*
X281997Y329500D01*
Y331499D01*
X281498Y331999D01*
X279998D01*
X159499Y49501D02*
X159999Y50001D01*
Y51000D01*
X159499Y51500D01*
X157500D01*
X157000Y51000D01*
Y50001D01*
X157500Y49501D01*
X158500D01*
Y50500D01*
X157000Y48501D02*
X159999D01*
X157000Y46502D01*
X159999D01*
Y45502D02*
X157000D01*
Y44002D01*
X157500Y43503D01*
X159499D01*
X159999Y44002D01*
Y45502D01*
X97499Y352999D02*
X97000Y353499D01*
X96000D01*
X95500Y352999D01*
Y351000D01*
X96000Y350500D01*
X97000D01*
X97499Y351000D01*
Y351999D01*
X96500D01*
X98499Y350500D02*
Y353499D01*
X100498Y350500D01*
Y353499D01*
X101498D02*
Y350500D01*
X102998D01*
X103497Y351000D01*
Y352999D01*
X102998Y353499D01*
X101498D01*
X172000Y487000D02*
X174999D01*
Y485500D01*
X174499Y485001D01*
X173500D01*
X173000Y485500D01*
Y487000D01*
Y486000D02*
X172000Y485001D01*
Y482502D02*
Y483501D01*
X172500Y484001D01*
X173500D01*
X173999Y483501D01*
Y482502D01*
X173500Y482002D01*
X173000D01*
Y484001D01*
X173999Y481002D02*
X172000Y480002D01*
X173999Y479003D01*
X172000Y476503D02*
Y477503D01*
X172500Y478003D01*
X173500D01*
X173999Y477503D01*
Y476503D01*
X173500Y476004D01*
X173000D01*
Y478003D01*
X173999Y475004D02*
X172000D01*
X173000D01*
X173500Y474504D01*
X173999Y474004D01*
Y473504D01*
X172000Y472005D02*
Y470505D01*
X172500Y470006D01*
X173000Y470505D01*
Y471505D01*
X173500Y472005D01*
X173999Y471505D01*
Y470006D01*
X172000Y467506D02*
Y468506D01*
X172500Y469006D01*
X173500D01*
X173999Y468506D01*
Y467506D01*
X173500Y467006D01*
X173000D01*
Y469006D01*
X209499Y485001D02*
X209999Y485500D01*
Y486500D01*
X209499Y487000D01*
X207500D01*
X207000Y486500D01*
Y485500D01*
X207500Y485001D01*
X207000Y484001D02*
X208999D01*
X209999Y483001D01*
X208999Y482002D01*
X207000D01*
X208500D01*
Y484001D01*
X207000Y481002D02*
X209999D01*
X207000Y479003D01*
X209999D01*
Y478003D02*
X207000D01*
X208500D01*
Y476004D01*
X209999D01*
X207000D01*
X413999Y81999D02*
X413499Y82499D01*
X412500D01*
X412000Y81999D01*
Y80000D01*
X412500Y79500D01*
X413499D01*
X413999Y80000D01*
Y80999D01*
X413000D01*
X414999Y79500D02*
Y82499D01*
X416998Y79500D01*
Y82499D01*
X417998D02*
Y79500D01*
X419498D01*
X419997Y80000D01*
Y81999D01*
X419498Y82499D01*
X417998D01*
X479500Y337000D02*
Y339999D01*
X481000D01*
X481499Y339499D01*
Y338499D01*
X481000Y337999D01*
X479500D01*
X480500D02*
X481499Y337000D01*
X483998D02*
X482999D01*
X482499Y337499D01*
Y338499D01*
X482999Y338999D01*
X483998D01*
X484498Y338499D01*
Y337999D01*
X482499D01*
X486498Y336000D02*
X486998D01*
X487497Y336500D01*
Y338999D01*
X485998D01*
X485498Y338499D01*
Y337499D01*
X485998Y337000D01*
X487497D01*
X489997D02*
X488997D01*
X488497Y337499D01*
Y338499D01*
X488997Y338999D01*
X489997D01*
X490496Y338499D01*
Y337999D01*
X488497D01*
X491496Y337000D02*
Y338999D01*
X492996D01*
X493496Y338499D01*
Y337000D01*
X494495Y336500D02*
X496494D01*
X497994Y337000D02*
X498994D01*
X499494Y337499D01*
Y338499D01*
X498994Y338999D01*
X497994D01*
X497494Y338499D01*
Y337499D01*
X497994Y337000D01*
X500493Y338999D02*
Y337499D01*
X500993Y337000D01*
X502493D01*
Y338999D01*
X503992Y339499D02*
Y338999D01*
X503492D01*
X504492D01*
X503992D01*
Y337499D01*
X504492Y337000D01*
X471500Y126499D02*
X472000Y126999D01*
X472999D01*
X473499Y126499D01*
Y125999D01*
X472999Y125499D01*
X472500D01*
X472999D01*
X473499Y125000D01*
Y124500D01*
X472999Y124000D01*
X472000D01*
X471500Y124500D01*
X474499Y126999D02*
Y125000D01*
X475499Y124000D01*
X476498Y125000D01*
Y126999D01*
X477498Y126499D02*
X477998Y126999D01*
X478998D01*
X479497Y126499D01*
Y125999D01*
X478998Y125499D01*
X478498D01*
X478998D01*
X479497Y125000D01*
Y124500D01*
X478998Y124000D01*
X477998D01*
X477498Y124500D01*
X465000Y251499D02*
Y248500D01*
Y249999D01*
X466999D01*
Y251499D01*
Y248500D01*
X469498D02*
X468499D01*
X467999Y249000D01*
Y249999D01*
X468499Y250499D01*
X469498D01*
X469998Y249999D01*
Y249499D01*
X467999D01*
X471498Y250499D02*
X472498D01*
X472997Y249999D01*
Y248500D01*
X471498D01*
X470998Y249000D01*
X471498Y249499D01*
X472997D01*
X475996Y251499D02*
Y248500D01*
X474497D01*
X473997Y249000D01*
Y249999D01*
X474497Y250499D01*
X475996D01*
X476996Y248500D02*
X477996D01*
X477496D01*
Y251499D01*
X476996D01*
X479495Y248500D02*
X480495D01*
X479995D01*
Y250499D01*
X479495D01*
X482994Y247500D02*
X483494D01*
X483994Y248000D01*
Y250499D01*
X482494D01*
X481994Y249999D01*
Y249000D01*
X482494Y248500D01*
X483994D01*
X484994Y251499D02*
Y248500D01*
Y249999D01*
X485493Y250499D01*
X486493D01*
X486993Y249999D01*
Y248500D01*
X488492Y250999D02*
Y250499D01*
X487993D01*
X488992D01*
X488492D01*
Y249000D01*
X488992Y248500D01*
X490492D02*
X491991D01*
X492491Y249000D01*
X491991Y249499D01*
X490992D01*
X490492Y249999D01*
X490992Y250499D01*
X492491D01*
X493491Y248000D02*
X495490D01*
X496490Y248500D02*
X497490D01*
X496990D01*
Y250499D01*
X496490D01*
X498989Y248500D02*
Y250499D01*
X500489D01*
X500988Y249999D01*
Y248500D01*
X230499Y277999D02*
X229999Y278499D01*
X229000D01*
X228500Y277999D01*
Y276000D01*
X229000Y275500D01*
X229999D01*
X230499Y276000D01*
Y276999D01*
X229500D01*
X231499Y275500D02*
Y278499D01*
X233498Y275500D01*
Y278499D01*
X234498D02*
Y275500D01*
X235998D01*
X236497Y276000D01*
Y277999D01*
X235998Y278499D01*
X234498D01*
X-35000Y136999D02*
X-34500Y137499D01*
X-33500D01*
X-33001Y136999D01*
Y136499D01*
X-33500Y136000D01*
X-34000D01*
X-33500D01*
X-33001Y135500D01*
Y135000D01*
X-33500Y134500D01*
X-34500D01*
X-35000Y135000D01*
X-32001Y137499D02*
Y135500D01*
X-31001Y134500D01*
X-30002Y135500D01*
Y137499D01*
X-29002Y136999D02*
X-28502Y137499D01*
X-27502D01*
X-27003Y136999D01*
Y136499D01*
X-27502Y136000D01*
X-28002D01*
X-27502D01*
X-27003Y135500D01*
Y135000D01*
X-27502Y134500D01*
X-28502D01*
X-29002Y135000D01*
X136500Y98000D02*
Y100999D01*
X137999D01*
X138499Y100499D01*
Y99499D01*
X137999Y99000D01*
X136500D01*
X139999Y98000D02*
X140999D01*
X141498Y98500D01*
Y99499D01*
X140999Y99999D01*
X139999D01*
X139499Y99499D01*
Y98500D01*
X139999Y98000D01*
X142498Y99999D02*
Y98500D01*
X142998Y98000D01*
X143498Y98500D01*
X143998Y98000D01*
X144497Y98500D01*
Y99999D01*
X146997Y98000D02*
X145997D01*
X145497Y98500D01*
Y99499D01*
X145997Y99999D01*
X146997D01*
X147496Y99499D01*
Y99000D01*
X145497D01*
X148496Y99999D02*
Y98000D01*
Y99000D01*
X148996Y99499D01*
X149496Y99999D01*
X149996D01*
X448500Y173999D02*
Y171000D01*
Y172499D01*
X450499D01*
Y173999D01*
Y171000D01*
X451999Y172999D02*
X452998D01*
X453498Y172499D01*
Y171000D01*
X451999D01*
X451499Y171500D01*
X451999Y172000D01*
X453498D01*
X454498Y172999D02*
X456497D01*
X454498Y171000D01*
X456497D01*
X457997Y172999D02*
X458997D01*
X459496Y172499D01*
Y171000D01*
X457997D01*
X457497Y171500D01*
X457997Y172000D01*
X459496D01*
X460496Y172999D02*
Y171000D01*
Y172000D01*
X460996Y172499D01*
X461496Y172999D01*
X461996D01*
X465494Y173999D02*
Y171000D01*
X463995D01*
X463495Y171500D01*
Y172499D01*
X463995Y172999D01*
X465494D01*
X466494Y171000D02*
X467994D01*
X468494Y171500D01*
X467994Y172000D01*
X466994D01*
X466494Y172499D01*
X466994Y172999D01*
X468494D01*
X469493Y170500D02*
X471493D01*
X472992Y171000D02*
X473992D01*
X474492Y171500D01*
Y172499D01*
X473992Y172999D01*
X472992D01*
X472492Y172499D01*
Y171500D01*
X472992Y171000D01*
X475491Y172999D02*
Y171500D01*
X475991Y171000D01*
X477491D01*
Y172999D01*
X478990Y173499D02*
Y172999D01*
X478490D01*
X479490D01*
X478990D01*
Y171500D01*
X479490Y171000D01*
X95500Y247500D02*
Y250499D01*
X97000D01*
X97499Y249999D01*
Y249000D01*
X97000Y248500D01*
X95500D01*
X96500D02*
X97499Y247500D01*
X100498Y249999D02*
X99999Y250499D01*
X98999D01*
X98499Y249999D01*
Y249499D01*
X98999Y249000D01*
X99999D01*
X100498Y248500D01*
Y248000D01*
X99999Y247500D01*
X98999D01*
X98499Y248000D01*
X101498Y250499D02*
X103497D01*
X102498D01*
Y247500D01*
X412999Y360999D02*
X411000D01*
Y359500D01*
X412000Y359999D01*
X412500D01*
X412999Y359500D01*
Y358500D01*
X412500Y358000D01*
X411500D01*
X411000Y358500D01*
X413999Y360999D02*
Y359000D01*
X414999Y358000D01*
X415998Y359000D01*
Y360999D01*
X-63501Y381499D02*
X-64000Y381999D01*
X-65000D01*
X-65500Y381499D01*
Y379500D01*
X-65000Y379000D01*
X-64000D01*
X-63501Y379500D01*
X-62501Y379000D02*
Y381999D01*
X-61001D01*
X-60502Y381499D01*
Y380499D01*
X-61001Y379999D01*
X-62501D01*
X-59502Y379000D02*
X-58502D01*
X-59002D01*
Y381999D01*
X-59502D01*
X-57003Y380999D02*
Y379500D01*
X-56503Y379000D01*
X-55003D01*
Y380999D01*
X-54004Y379000D02*
X-52504D01*
X-52004Y379500D01*
X-52504Y379999D01*
X-53504D01*
X-54004Y380499D01*
X-53504Y380999D01*
X-52004D01*
X-51005Y378500D02*
X-49005D01*
X-48006Y379000D02*
X-47006D01*
X-47506D01*
Y380999D01*
X-48006D01*
X-45507Y379000D02*
Y380999D01*
X-44007D01*
X-43507Y380499D01*
Y379000D01*
X171999Y57000D02*
X169000D01*
Y55001D01*
X171999Y54001D02*
Y52002D01*
Y53001D01*
X169000D01*
X168500Y51002D02*
Y49003D01*
X169000Y48003D02*
Y47003D01*
Y47503D01*
X170999D01*
Y48003D01*
X169000Y45504D02*
X170999D01*
Y44004D01*
X170499Y43504D01*
X169000D01*
X465000Y267999D02*
X465500Y268499D01*
X466500D01*
X466999Y267999D01*
Y267499D01*
X466500Y267000D01*
X466000D01*
X466500D01*
X466999Y266500D01*
Y266000D01*
X466500Y265500D01*
X465500D01*
X465000Y266000D01*
X467999Y268499D02*
Y266500D01*
X468999Y265500D01*
X469998Y266500D01*
Y268499D01*
X470998Y267999D02*
X471498Y268499D01*
X472498D01*
X472997Y267999D01*
Y267499D01*
X472498Y267000D01*
X471998D01*
X472498D01*
X472997Y266500D01*
Y266000D01*
X472498Y265500D01*
X471498D01*
X470998Y266000D01*
X-74001Y289499D02*
X-74501Y289999D01*
X-75500D01*
X-76000Y289499D01*
Y287500D01*
X-75500Y287000D01*
X-74501D01*
X-74001Y287500D01*
X-73001Y287000D02*
Y289999D01*
X-72001Y288999D01*
X-71002Y289999D01*
Y287000D01*
X-70002D02*
X-69002D01*
X-69502D01*
Y288999D01*
X-70002D01*
X-67503Y287000D02*
Y288999D01*
X-66003D01*
X-65503Y288499D01*
Y287000D01*
X-64504Y288999D02*
Y287500D01*
X-64004Y287000D01*
X-62504D01*
Y288999D01*
X-61505Y287000D02*
X-60005D01*
X-59505Y287500D01*
X-60005Y288000D01*
X-61005D01*
X-61505Y288499D01*
X-61005Y288999D01*
X-59505D01*
X-58506Y286500D02*
X-56506D01*
X-55507Y287000D02*
X-54507D01*
X-55007D01*
Y288999D01*
X-55507D01*
X-53007Y287000D02*
Y288999D01*
X-51508D01*
X-51008Y288499D01*
Y287000D01*
X66499Y120499D02*
X64500D01*
Y119000D01*
X65500Y119499D01*
X66000D01*
X66499Y119000D01*
Y118000D01*
X66000Y117500D01*
X65000D01*
X64500Y118000D01*
X67499Y120499D02*
Y118500D01*
X68499Y117500D01*
X69498Y118500D01*
Y120499D01*
X194499Y277499D02*
X194000Y277999D01*
X193000D01*
X192500Y277499D01*
Y275500D01*
X193000Y275000D01*
X194000D01*
X194499Y275500D01*
Y276500D01*
X193500D01*
X195499Y275000D02*
Y277999D01*
X197498Y275000D01*
Y277999D01*
X198498D02*
Y275000D01*
X199998D01*
X200497Y275500D01*
Y277499D01*
X199998Y277999D01*
X198498D01*
X97499Y242499D02*
X97000Y242999D01*
X96000D01*
X95500Y242499D01*
Y241999D01*
X96000Y241499D01*
X97000D01*
X97499Y241000D01*
Y240500D01*
X97000Y240000D01*
X96000D01*
X95500Y240500D01*
X98499Y242999D02*
Y240000D01*
X99999D01*
X100498Y240500D01*
Y242499D01*
X99999Y242999D01*
X98499D01*
X102998D02*
X101998D01*
X101498Y242499D01*
Y240500D01*
X101998Y240000D01*
X102998D01*
X103497Y240500D01*
Y242499D01*
X102998Y242999D01*
X203500Y277499D02*
X204000Y277999D01*
X204999D01*
X205499Y277499D01*
Y276999D01*
X204999Y276500D01*
X204500D01*
X204999D01*
X205499Y276000D01*
Y275500D01*
X204999Y275000D01*
X204000D01*
X203500Y275500D01*
X206499Y277999D02*
Y276000D01*
X207499Y275000D01*
X208498Y276000D01*
Y277999D01*
X209498Y277499D02*
X209998Y277999D01*
X210998D01*
X211497Y277499D01*
Y276999D01*
X210998Y276500D01*
X210498D01*
X210998D01*
X211497Y276000D01*
Y275500D01*
X210998Y275000D01*
X209998D01*
X209498Y275500D01*
D12*
X227354Y110630D02*
G03*
X227354Y110236I0J-197D01*
G01*
D02*
G03*
X227354Y110630I0J197D01*
G01*
D02*
G03*
X227354Y110236I0J-197D01*
G01*
X23854Y332630D02*
G03*
X23854Y332236I0J-197D01*
G01*
D02*
G03*
X23854Y332630I0J197D01*
G01*
D02*
G03*
X23854Y332236I0J-197D01*
G01*
X-26646Y156630D02*
G03*
X-26646Y156236I0J-197D01*
G01*
D02*
G03*
X-26646Y156630I0J197D01*
G01*
D02*
G03*
X-26646Y156236I0J-197D01*
G01*
X505354Y314630D02*
G03*
X505354Y314236I0J-197D01*
G01*
D02*
G03*
X505354Y314630I0J197D01*
G01*
D02*
G03*
X505354Y314236I0J-197D01*
G01*
X478854Y147130D02*
G03*
X478854Y146736I0J-197D01*
G01*
D02*
G03*
X478854Y147130I0J197D01*
G01*
D02*
G03*
X478854Y146736I0J-197D01*
G01*
X-53646Y290630D02*
G03*
X-53646Y290236I0J-197D01*
G01*
D02*
G03*
X-53646Y290630I0J197D01*
G01*
D02*
G03*
X-53646Y290236I0J-197D01*
G01*
Y374630D02*
G03*
X-53646Y374236I0J-197D01*
G01*
D02*
G03*
X-53646Y374630I0J197D01*
G01*
D02*
G03*
X-53646Y374236I0J-197D01*
G01*
X107863Y363673D02*
X115737D01*
X107863Y355799D02*
X115737D01*
X107863Y206193D02*
X115737D01*
Y363673D01*
X107863Y206193D02*
Y363673D01*
X399202D02*
X407076D01*
X399202Y355799D02*
X407076D01*
X399202Y206193D02*
X407076D01*
Y363673D01*
X399202Y206193D02*
Y363673D01*
X202925Y355047D02*
X206075D01*
X202925Y360953D02*
X206075D01*
X283000Y410000D02*
Y420000D01*
X193000Y410000D02*
X283000D01*
X193000D02*
Y420000D01*
X283000D01*
X58600Y358500D02*
X59500D01*
X79500D02*
X80400D01*
X59500D02*
Y361500D01*
X79500D01*
Y355500D02*
Y361500D01*
X59500Y355500D02*
X79500D01*
X59500D02*
Y358500D01*
X510000Y172500D02*
X510900D01*
X489100D02*
X490000D01*
X510000Y169500D02*
Y172500D01*
X490000Y169500D02*
X510000D01*
X490000D02*
Y175500D01*
X510000D01*
Y172500D02*
Y175500D01*
X530500Y224000D02*
Y227000D01*
X510500D02*
X530500D01*
X510500Y221000D02*
Y227000D01*
Y221000D02*
X530500D01*
Y224000D01*
X509600D02*
X510500D01*
X530500D02*
X531400D01*
X-2000Y220500D02*
Y223500D01*
Y220500D02*
X18000D01*
Y226500D01*
X-2000D02*
X18000D01*
X-2000Y223500D02*
Y226500D01*
X18000Y223500D02*
X18900D01*
X-2900D02*
X-2000D01*
X200925Y286453D02*
X204075D01*
X200925Y280547D02*
X204075D01*
X200925Y295453D02*
X204075D01*
X200925Y289547D02*
X204075D01*
X193953Y320425D02*
Y323575D01*
X188047Y320425D02*
Y323575D01*
X184453Y320425D02*
Y323575D01*
X178547Y320425D02*
Y323575D01*
X236425Y280547D02*
X239575D01*
X236425Y286453D02*
X239575D01*
X236425Y289547D02*
X239575D01*
X236425Y295453D02*
X239575D01*
X271453Y334110D02*
Y337260D01*
X265547Y334110D02*
Y337260D01*
X262453Y333925D02*
Y337075D01*
X256547Y333925D02*
Y337075D01*
X202925Y370453D02*
X206075D01*
X202925Y364547D02*
X206075D01*
X534500Y338500D02*
X535400D01*
X513600D02*
X514500D01*
X534500Y335500D02*
Y338500D01*
X514500Y335500D02*
X534500D01*
X514500D02*
Y341500D01*
X534500D01*
Y338500D02*
Y341500D01*
X206094Y307094D02*
Y343906D01*
Y307094D02*
X242906D01*
Y343906D01*
X206094D02*
X242906D01*
X289500Y515000D02*
X389500D01*
X289500Y495000D02*
Y515000D01*
Y495000D02*
X389500D01*
Y515000D01*
X310201Y337157D02*
X322799D01*
X310201Y356843D02*
X322799D01*
Y337157D02*
Y356843D01*
X310201Y337157D02*
Y356843D01*
D13*
X200484Y343216D02*
G03*
X200484Y343216I-492J0D01*
G01*
X306264Y357846D02*
G03*
X306264Y357846I-492J0D01*
G01*
D14*
X315319Y352906D02*
G03*
X315319Y352906I-1181J0D01*
G01*
D15*
X459800Y514500D02*
X467200D01*
X459800Y506500D02*
X467200D01*
X498100D02*
X503800D01*
X459800Y498500D02*
X467200D01*
X497200D02*
X504800D01*
X460000Y515700D02*
X467000D01*
X459900Y515600D02*
X467100D01*
X459800Y515500D02*
X467200D01*
X459800Y515400D02*
X467300D01*
X459800Y515300D02*
X467200D01*
X459800Y515200D02*
X467200D01*
X459800Y515100D02*
X467200D01*
X459800Y515000D02*
X467200D01*
X459800Y514900D02*
X467200D01*
X459800Y514800D02*
X467200D01*
X459800Y514700D02*
X467200D01*
X459800Y514600D02*
X467200D01*
X459800Y514400D02*
X467200D01*
X459800Y514300D02*
X467200D01*
X459800Y514200D02*
X467200D01*
X459800Y514100D02*
X467200D01*
X459800Y514000D02*
X467200D01*
X459800Y513900D02*
X467200D01*
X459800Y513800D02*
X467200D01*
X459800Y513700D02*
X467200D01*
X459800Y513600D02*
X467200D01*
X459800Y513500D02*
X467200D01*
X459800Y513400D02*
X467200D01*
X459800Y513300D02*
X467200D01*
X459800Y513200D02*
X467200D01*
X459800Y513100D02*
X467200D01*
X459800Y513000D02*
X467200D01*
X459800Y512900D02*
X467200D01*
X459800Y512800D02*
X467200D01*
X459800Y512700D02*
X467200D01*
X459800Y512600D02*
X467200D01*
X459800Y512500D02*
X467200D01*
X459800Y512400D02*
X467200D01*
X459800Y512300D02*
X467200D01*
X459800Y512200D02*
X467200D01*
X459800Y512100D02*
X467200D01*
X459800Y512000D02*
X467200D01*
X459800Y511900D02*
X467200D01*
X459800Y511800D02*
X467200D01*
X459800Y511700D02*
X467200D01*
X459800Y511600D02*
X467200D01*
X459800Y511500D02*
X467200D01*
X459800Y511400D02*
X467200D01*
X459800Y511300D02*
X467200D01*
X459800Y511200D02*
X467200D01*
X459800Y511100D02*
X467200D01*
X459800Y511000D02*
X467200D01*
X459800Y510900D02*
X467200D01*
X459800Y510800D02*
X467200D01*
X459800Y510700D02*
X467200D01*
X459800Y510600D02*
X467200D01*
X459800Y510500D02*
X467200D01*
X459800Y510400D02*
X467200D01*
X459800Y510300D02*
X467200D01*
X459800Y510200D02*
X467200D01*
X459800Y510100D02*
X467200D01*
X459800Y510000D02*
X467300D01*
X459800Y509900D02*
X467200D01*
X459800Y509800D02*
X467200D01*
X459900Y509700D02*
X467100D01*
X460000Y509600D02*
X467000D01*
X460000Y507900D02*
X467000D01*
X459900Y507800D02*
X467100D01*
X459800Y507700D02*
X467200D01*
X459800Y507600D02*
X467300D01*
X459800Y507500D02*
X467200D01*
X459800Y507400D02*
X467200D01*
X459800Y507300D02*
X467200D01*
X459800Y507200D02*
X467200D01*
X459800Y507100D02*
X467200D01*
X459800Y507000D02*
X467200D01*
X459800Y506900D02*
X467200D01*
X499000D02*
X503000D01*
X459800Y506800D02*
X467200D01*
X498700D02*
X503300D01*
X459800Y506700D02*
X467200D01*
X498500D02*
X503500D01*
X459800Y506600D02*
X467200D01*
X498300D02*
X503700D01*
X459800Y506400D02*
X467200D01*
X498000D02*
X504000D01*
X459800Y506300D02*
X467200D01*
X497800D02*
X504200D01*
X459800Y506200D02*
X467200D01*
X497700D02*
X504300D01*
X459800Y506100D02*
X467200D01*
X497600D02*
X504400D01*
X459800Y506000D02*
X467200D01*
X497500D02*
X504500D01*
X459800Y505900D02*
X467200D01*
X497400D02*
X504600D01*
X459800Y505800D02*
X467200D01*
X497300D02*
X504700D01*
X459800Y505700D02*
X467200D01*
X497200D02*
X504800D01*
X459800Y505600D02*
X467200D01*
X497100D02*
X504900D01*
X459800Y505500D02*
X467200D01*
X497000D02*
X505000D01*
X459800Y505400D02*
X467200D01*
X496900D02*
X505100D01*
X459800Y505300D02*
X467200D01*
X496800D02*
X505200D01*
X459800Y505200D02*
X467200D01*
X496800D02*
X505200D01*
X459800Y505100D02*
X467200D01*
X459800Y505000D02*
X467200D01*
X459800Y504900D02*
X467200D01*
X459800Y504800D02*
X467200D01*
X459800Y504700D02*
X467200D01*
X459800Y504600D02*
X467200D01*
X459800Y504500D02*
X467200D01*
X459800Y504400D02*
X467200D01*
X459800Y504300D02*
X467200D01*
X459800Y504200D02*
X467200D01*
X459800Y504100D02*
X467200D01*
X459800Y504000D02*
X467200D01*
X459800Y503900D02*
X467200D01*
X459800Y503800D02*
X467200D01*
X459800Y503700D02*
X467200D01*
X459800Y503600D02*
X467200D01*
X459800Y503500D02*
X467200D01*
X459800Y503400D02*
X467200D01*
X459800Y503300D02*
X467200D01*
X459800Y503200D02*
X467200D01*
X459800Y503100D02*
X467200D01*
X459800Y503000D02*
X467200D01*
X459800Y502900D02*
X467200D01*
X459800Y502800D02*
X467200D01*
X459800Y502700D02*
X467200D01*
X459800Y502600D02*
X467200D01*
X459800Y502500D02*
X467200D01*
X459800Y502400D02*
X467200D01*
X459800Y502300D02*
X467200D01*
X459800Y502200D02*
X467300D01*
X459800Y502100D02*
X467200D01*
X459800Y502000D02*
X467200D01*
X459900Y501900D02*
X467100D01*
X460000Y501800D02*
X467000D01*
X460000Y500100D02*
X467000D01*
X459900Y500000D02*
X467100D01*
X459800Y499900D02*
X467200D01*
X459800Y499800D02*
X467300D01*
X459800Y499700D02*
X467200D01*
X459800Y499600D02*
X467200D01*
X459800Y499500D02*
X467200D01*
X459800Y499400D02*
X467200D01*
X459800Y499300D02*
X467200D01*
X459800Y499200D02*
X467200D01*
X459800Y499100D02*
X467200D01*
X459800Y499000D02*
X467200D01*
X496800D02*
X505200D01*
X459800Y498900D02*
X467200D01*
X496800D02*
X505200D01*
X459800Y498800D02*
X467200D01*
X496900D02*
X505100D01*
X459800Y498700D02*
X467200D01*
X497000D02*
X505000D01*
X459800Y498600D02*
X467200D01*
X497100D02*
X504900D01*
X459800Y498400D02*
X467200D01*
X497300D02*
X504700D01*
X459800Y498300D02*
X467200D01*
X497400D02*
X504600D01*
X459800Y498200D02*
X467200D01*
X497500D02*
X504500D01*
X459800Y498100D02*
X467200D01*
X497600D02*
X504400D01*
X497700Y498000D02*
X504300D01*
X459800Y497900D02*
X467200D01*
X497800D02*
X504200D01*
X459800Y497800D02*
X467200D01*
X498000D02*
X504000D01*
X459800Y497700D02*
X467200D01*
X498100D02*
X503800D01*
X459800Y497600D02*
X467200D01*
X498300D02*
X503700D01*
X459800Y497500D02*
X467200D01*
X498500D02*
X503500D01*
X459800Y497400D02*
X467200D01*
X498700D02*
X503300D01*
X459800Y497300D02*
X467200D01*
X499000D02*
X503000D01*
X459800Y497200D02*
X467200D01*
X459800Y497100D02*
X467200D01*
X459800Y497000D02*
X467200D01*
X459800Y496900D02*
X467200D01*
X459800Y496800D02*
X467200D01*
X459800Y496700D02*
X467200D01*
X459800Y496600D02*
X467200D01*
X459800Y496500D02*
X467200D01*
X459800Y496400D02*
X467200D01*
X459800Y496300D02*
X467200D01*
X459800Y496200D02*
X467200D01*
X459800Y496100D02*
X467200D01*
X459800Y496000D02*
X467200D01*
X459800Y495900D02*
X467200D01*
X459800Y495800D02*
X467200D01*
X459800Y495700D02*
X467200D01*
X459800Y495600D02*
X467200D01*
X459800Y495500D02*
X467200D01*
X459800Y495400D02*
X467200D01*
X459800Y495300D02*
X467200D01*
X459800Y495200D02*
X467200D01*
X459800Y495100D02*
X467200D01*
X459800Y495000D02*
X467200D01*
X459800Y494900D02*
X467200D01*
X459800Y494800D02*
X467200D01*
X459800Y494700D02*
X467200D01*
X459800Y494600D02*
X467200D01*
X459800Y494500D02*
X467200D01*
X459800Y494400D02*
X467300D01*
X459800Y494300D02*
X467200D01*
X459800Y494200D02*
X467200D01*
X459900Y494100D02*
X467100D01*
X460000Y494000D02*
X467000D01*
X510900Y506500D02*
X513500D01*
X515400D02*
X521500D01*
X514600Y498500D02*
X522600D01*
X470700Y506500D02*
X474800D01*
X480800D02*
X487200D01*
X488900D02*
X495300D01*
X469700Y498500D02*
X475500D01*
X479300D02*
X488300D01*
X490700D02*
X495300D01*
X443500D02*
X451000D01*
X451600D02*
X459100D01*
X517700Y507200D02*
X519300D01*
X517000Y507100D02*
X520000D01*
X516600Y507000D02*
X520400D01*
X516200Y506900D02*
X520800D01*
X516000Y506800D02*
X521000D01*
X515800Y506700D02*
X521200D01*
X511000Y506600D02*
X513500D01*
X515600D02*
X521400D01*
X510700Y506400D02*
X513500D01*
X515300D02*
X521700D01*
X510600Y506300D02*
X513500D01*
X515200D02*
X521800D01*
X510500Y506200D02*
X513500D01*
X515100D02*
X521900D01*
X510400Y506100D02*
X513500D01*
X515000D02*
X522000D01*
X510300Y506000D02*
X513500D01*
X514900D02*
X522100D01*
X510200Y505900D02*
X513500D01*
X514800D02*
X522200D01*
X510100Y505800D02*
X513500D01*
X514700D02*
X522300D01*
X510000Y505700D02*
X513500D01*
X514600D02*
X522400D01*
X510000Y505600D02*
X513500D01*
X514600D02*
X522400D01*
X509900Y505500D02*
X513500D01*
X514500D02*
X522500D01*
X509800Y505400D02*
X513500D01*
X514500D02*
X522600D01*
X509800Y505300D02*
X513500D01*
X518900D02*
X522600D01*
X507100Y505200D02*
X513500D01*
X501300Y505100D02*
X505300D01*
X507100D02*
X513500D01*
X501800Y505000D02*
X505400D01*
X507100D02*
X513500D01*
X502000Y504900D02*
X505400D01*
X507100D02*
X513500D01*
X502200Y504800D02*
X505500D01*
X507100D02*
X513500D01*
X502300Y504700D02*
X505500D01*
X507100D02*
X513500D01*
X502500Y504600D02*
X505600D01*
X507100D02*
X513500D01*
X502600Y504500D02*
X505600D01*
X507100D02*
X511900D01*
X502700Y504400D02*
X505700D01*
X507100D02*
X511500D01*
X502700Y504300D02*
X505700D01*
X507100D02*
X511200D01*
X502800Y504200D02*
X505800D01*
X507100D02*
X511000D01*
X502900Y504100D02*
X505800D01*
X502900Y504000D02*
X505800D01*
X510900D02*
X511000D01*
X503000Y503900D02*
X505900D01*
X503000Y503800D02*
X505900D01*
X519000Y503500D02*
X519100D01*
X514300Y503300D02*
X519300D01*
X503000Y503200D02*
X503100D01*
X514400D02*
X519800D01*
X514400Y503100D02*
X520200D01*
X514500Y503000D02*
X520600D01*
X514500Y502900D02*
X520900D01*
X514600Y502800D02*
X521200D01*
X514700Y502700D02*
X521500D01*
X514800Y502600D02*
X521700D01*
X514900Y502500D02*
X521900D01*
X515000Y502400D02*
X522000D01*
X515100Y502300D02*
X522200D01*
X515300Y502200D02*
X522300D01*
X515400Y502100D02*
X522400D01*
X515600Y502000D02*
X522500D01*
X515800Y501900D02*
X522600D01*
X516100Y501800D02*
X522700D01*
X516400Y501700D02*
X522800D01*
X516800Y501600D02*
X522900D01*
X517100Y501500D02*
X522900D01*
X517600Y501400D02*
X523000D01*
X518000Y501300D02*
X523000D01*
X518400Y501200D02*
X523000D01*
X518800Y501100D02*
X523100D01*
X503000Y501000D02*
X503100D01*
X503000Y500400D02*
X505900D01*
X503000Y500300D02*
X505900D01*
X502900Y500200D02*
X505800D01*
X502900Y500100D02*
X505800D01*
X502800Y500000D02*
X505800D01*
X502700Y499900D02*
X505700D01*
X502700Y499800D02*
X505700D01*
X502600Y499700D02*
X505600D01*
X502500Y499600D02*
X505600D01*
X502400Y499500D02*
X505500D01*
X502200Y499400D02*
X505500D01*
X502000Y499300D02*
X505400D01*
X501800Y499200D02*
X505400D01*
X501300Y499100D02*
X505300D01*
X514400Y498800D02*
X522800D01*
X514500Y498700D02*
X522700D01*
X514600Y498600D02*
X522700D01*
X514700Y498400D02*
X522500D01*
X514800Y498300D02*
X522400D01*
X514900Y498200D02*
X522300D01*
X515000Y498100D02*
X522200D01*
X515100Y498000D02*
X522100D01*
X515200Y497900D02*
X522000D01*
X515400Y497800D02*
X521900D01*
X515500Y497700D02*
X521700D01*
X515700Y497600D02*
X521600D01*
X515900Y497500D02*
X521400D01*
X516100Y497400D02*
X521200D01*
X516400Y497300D02*
X520900D01*
X516700Y497200D02*
X520600D01*
X517200Y497100D02*
X520100D01*
X518100Y497000D02*
X519200D01*
X470900Y514300D02*
X471900D01*
X470400Y514200D02*
X472400D01*
X470100Y514100D02*
X472600D01*
X469900Y514000D02*
X472800D01*
X469800Y513900D02*
X472900D01*
X483700D02*
X487000D01*
X469600Y513800D02*
X473000D01*
X483600D02*
X487100D01*
X469500Y513700D02*
X473100D01*
X475300D02*
X479000D01*
X483500D02*
X487200D01*
X469400Y513600D02*
X471200D01*
X477300D02*
X479100D01*
X485400D02*
X487300D01*
X477800Y513500D02*
X479200D01*
X486100D02*
X487400D01*
X478100Y513400D02*
X479300D01*
X486300D02*
X487400D01*
X478200Y513300D02*
X479400D01*
X486500D02*
X487500D01*
X478400Y513200D02*
X479500D01*
X486600D02*
X487500D01*
X478500Y513100D02*
X479500D01*
X486600D02*
X487600D01*
X478600Y513000D02*
X479600D01*
X486700D02*
X487600D01*
X478700Y512900D02*
X479700D01*
X486700D02*
X487600D01*
X478700Y512800D02*
X479700D01*
X486700D02*
X487600D01*
X478800Y512700D02*
X479800D01*
X486800D02*
X487600D01*
X478900Y512600D02*
X479800D01*
X486800D02*
X487600D01*
X478900Y512500D02*
X479800D01*
X486800D02*
X487600D01*
X479000Y512400D02*
X479900D01*
X486800D02*
X487600D01*
X479000Y512300D02*
X479900D01*
X486800D02*
X487600D01*
X479000Y512200D02*
X479900D01*
X486800D02*
X487600D01*
X486700Y512100D02*
X487600D01*
X486700Y512000D02*
X487600D01*
X486600Y511900D02*
X487600D01*
X486400Y511800D02*
X487600D01*
X469400Y511700D02*
X471200D01*
X485700D02*
X487600D01*
X469500Y511600D02*
X471700D01*
X484900D02*
X487600D01*
X469600Y511500D02*
X472200D01*
X479000D02*
X479100D01*
X484300D02*
X487600D01*
X469700Y511400D02*
X472600D01*
X483900D02*
X487600D01*
X469900Y511300D02*
X472800D01*
X483600D02*
X487600D01*
X470100Y511200D02*
X473000D01*
X486800D02*
X487600D01*
X470400Y511100D02*
X473200D01*
X486800D02*
X487600D01*
X470700Y511000D02*
X473300D01*
X486800D02*
X487600D01*
X486800Y510900D02*
X487600D01*
X479000Y510800D02*
X479100D01*
X486800D02*
X487600D01*
X486800Y510700D02*
X487600D01*
X486800Y510600D02*
X487600D01*
X486800Y510500D02*
X487600D01*
X486800Y510400D02*
X487600D01*
X486800Y510300D02*
X487600D01*
X486800Y510200D02*
X487600D01*
X479000Y510100D02*
X479900D01*
X486700D02*
X487600D01*
X479000Y510000D02*
X479900D01*
X486700D02*
X487600D01*
X478900Y509900D02*
X479900D01*
X486700D02*
X487600D01*
X478900Y509800D02*
X479800D01*
X486600D02*
X487600D01*
X478800Y509700D02*
X479800D01*
X486600D02*
X487600D01*
X478800Y509600D02*
X479800D01*
X486600D02*
X487600D01*
X478700Y509500D02*
X479700D01*
X486500D02*
X487600D01*
X478700Y509400D02*
X479600D01*
X486400D02*
X487600D01*
X478600Y509300D02*
X479600D01*
X486300D02*
X487600D01*
X478500Y509200D02*
X479500D01*
X486200D02*
X487600D01*
X478400Y509100D02*
X479500D01*
X486100D02*
X487700D01*
X478200Y509000D02*
X479400D01*
X486900D02*
X487700D01*
X478000Y508900D02*
X479300D01*
X486900D02*
X487800D01*
X477800Y508800D02*
X479200D01*
X486900D02*
X488300D01*
X469400Y508700D02*
X473400D01*
X475200D02*
X479100D01*
X486900D02*
X488300D01*
X469500Y508600D02*
X473300D01*
X475400D02*
X479000D01*
X486900D02*
X488300D01*
X469600Y508500D02*
X473200D01*
X487000D02*
X488300D01*
X469800Y508400D02*
X473100D01*
X470000Y508300D02*
X472900D01*
X470200Y508200D02*
X472700D01*
X470400Y508100D02*
X472400D01*
X471000Y508000D02*
X471800D01*
X488900Y506900D02*
X495300D01*
X488900Y506800D02*
X495300D01*
X488900Y506700D02*
X495300D01*
X470900Y506600D02*
X474600D01*
X481000D02*
X487100D01*
X488900D02*
X495300D01*
X470500Y506400D02*
X474900D01*
X480600D02*
X487400D01*
X488900D02*
X495300D01*
X470400Y506300D02*
X475000D01*
X480500D02*
X487500D01*
X488900D02*
X495300D01*
X470200Y506200D02*
X475100D01*
X480400D02*
X487600D01*
X488900D02*
X495300D01*
X470100Y506100D02*
X475200D01*
X480300D02*
X487700D01*
X488900D02*
X495300D01*
X470000Y506000D02*
X475300D01*
X480200D02*
X487800D01*
X488900D02*
X495300D01*
X469900Y505900D02*
X475400D01*
X480100D02*
X487900D01*
X488900D02*
X495300D01*
X469800Y505800D02*
X475500D01*
X480000D02*
X487900D01*
X488900D02*
X495300D01*
X469700Y505700D02*
X475500D01*
X479900D02*
X488000D01*
X488900D02*
X495300D01*
X469600Y505600D02*
X478300D01*
X479800D02*
X488000D01*
X488900D02*
X495300D01*
X469500Y505500D02*
X478300D01*
X479700D02*
X488100D01*
X488900D02*
X495300D01*
X469500Y505400D02*
X478300D01*
X479700D02*
X488100D01*
X488900D02*
X495300D01*
X469400Y505300D02*
X478300D01*
X484400D02*
X488200D01*
X488900D02*
X495300D01*
X469300Y505200D02*
X478300D01*
X484800D02*
X488200D01*
X488900D02*
X495300D01*
X469300Y505100D02*
X478300D01*
X485000D02*
X488200D01*
X488900D02*
X495300D01*
X469200Y505000D02*
X478300D01*
X485200D02*
X488200D01*
X469100Y504900D02*
X473200D01*
X485200D02*
X488300D01*
X469100Y504800D02*
X472700D01*
X485300D02*
X488300D01*
X469000Y504700D02*
X472500D01*
X485400D02*
X488300D01*
X469000Y504600D02*
X472300D01*
X485400D02*
X488300D01*
X468900Y504500D02*
X472200D01*
X485400D02*
X488300D01*
X468900Y504400D02*
X472100D01*
X485500D02*
X488300D01*
X468900Y504300D02*
X472000D01*
X485500D02*
X488300D01*
X468800Y504200D02*
X471900D01*
X485500D02*
X488300D01*
X468800Y504100D02*
X471800D01*
X485500D02*
X488300D01*
X468800Y504000D02*
X471700D01*
X485500D02*
X488300D01*
X468700Y503900D02*
X471700D01*
X485500D02*
X488300D01*
X468700Y503800D02*
X471600D01*
X485400D02*
X488300D01*
X468700Y503700D02*
X471600D01*
X485400D02*
X488300D01*
X468700Y503600D02*
X471500D01*
X485300D02*
X488300D01*
X468600Y503500D02*
X471500D01*
X485200D02*
X488300D01*
X468600Y503400D02*
X471500D01*
X485100D02*
X488300D01*
X468600Y503300D02*
X471400D01*
X484800D02*
X488300D01*
X468600Y503200D02*
X471400D01*
X484500D02*
X488300D01*
X468600Y503100D02*
X471400D01*
X484000D02*
X488300D01*
X468500Y503000D02*
X471400D01*
X483100D02*
X488300D01*
X468500Y502900D02*
X471400D01*
X482300D02*
X488300D01*
X468500Y502800D02*
X471300D01*
X481800D02*
X488300D01*
X468500Y502700D02*
X471300D01*
X481300D02*
X488300D01*
X468500Y502600D02*
X471300D01*
X481000D02*
X488300D01*
X468500Y502500D02*
X471300D01*
X480700D02*
X488300D01*
X468500Y502400D02*
X471300D01*
X480500D02*
X488300D01*
X468500Y502300D02*
X471300D01*
X480300D02*
X488300D01*
X468500Y502200D02*
X471300D01*
X480100D02*
X488300D01*
X468500Y502100D02*
X471300D01*
X480000D02*
X488300D01*
X468500Y502000D02*
X471300D01*
X479900D02*
X488300D01*
X468500Y501900D02*
X471300D01*
X479700D02*
X488300D01*
X468500Y501800D02*
X471300D01*
X485500D02*
X488300D01*
X468500Y501700D02*
X471300D01*
X485500D02*
X488300D01*
X468500Y501600D02*
X471300D01*
X485500D02*
X488300D01*
X468500Y501500D02*
X471400D01*
X485500D02*
X488300D01*
X468500Y501400D02*
X471400D01*
X485500D02*
X488300D01*
X468500Y501300D02*
X471400D01*
X485500D02*
X488300D01*
X468600Y501200D02*
X471400D01*
X485500D02*
X488300D01*
X468600Y501100D02*
X471400D01*
X485500D02*
X488300D01*
X468600Y501000D02*
X471500D01*
X485500D02*
X488300D01*
X468600Y500900D02*
X471500D01*
X485500D02*
X488300D01*
X468600Y500800D02*
X471500D01*
X485500D02*
X488300D01*
X468600Y500700D02*
X471600D01*
X479000D02*
X482000D01*
X485500D02*
X488300D01*
X468700Y500600D02*
X471600D01*
X479000D02*
X481900D01*
X485400D02*
X488300D01*
X468700Y500500D02*
X471700D01*
X479000D02*
X481900D01*
X485400D02*
X488300D01*
X468700Y500400D02*
X471700D01*
X479000D02*
X481800D01*
X485400D02*
X488300D01*
X468700Y500300D02*
X471800D01*
X479000D02*
X481800D01*
X485400D02*
X488300D01*
X468800Y500200D02*
X471800D01*
X479000D02*
X481800D01*
X485400D02*
X488300D01*
X468800Y500100D02*
X471900D01*
X479000D02*
X481800D01*
X485400D02*
X488300D01*
X468800Y500000D02*
X472000D01*
X479000D02*
X481800D01*
X485300D02*
X488300D01*
X468900Y499900D02*
X472100D01*
X479000D02*
X481800D01*
X485300D02*
X488300D01*
X468900Y499800D02*
X472200D01*
X479000D02*
X481800D01*
X485200D02*
X488300D01*
X468900Y499700D02*
X472400D01*
X479000D02*
X481800D01*
X485200D02*
X488300D01*
X469000Y499600D02*
X472500D01*
X479000D02*
X481800D01*
X485100D02*
X488300D01*
X469000Y499500D02*
X472800D01*
X479000D02*
X481900D01*
X485000D02*
X488300D01*
X469100Y499400D02*
X478300D01*
X479000D02*
X481900D01*
X485000D02*
X488300D01*
X469100Y499300D02*
X478300D01*
X479000D02*
X482000D01*
X484800D02*
X488300D01*
X490600D02*
X495300D01*
X469200Y499200D02*
X478300D01*
X479000D02*
X482100D01*
X484700D02*
X488300D01*
X490600D02*
X495300D01*
X469200Y499100D02*
X478300D01*
X484600D02*
X488300D01*
X490600D02*
X495300D01*
X469300Y499000D02*
X478300D01*
X484300D02*
X488300D01*
X490600D02*
X495300D01*
X469400Y498900D02*
X478300D01*
X483900D02*
X488300D01*
X490600D02*
X495300D01*
X469500Y498800D02*
X478300D01*
X479200D02*
X488300D01*
X490600D02*
X495300D01*
X469500Y498700D02*
X478300D01*
X479200D02*
X488300D01*
X490600D02*
X495300D01*
X469600Y498600D02*
X478300D01*
X479200D02*
X488300D01*
X490700D02*
X495300D01*
X469800Y498400D02*
X475400D01*
X479300D02*
X488300D01*
X490700D02*
X495300D01*
X469900Y498300D02*
X475300D01*
X479400D02*
X488400D01*
X490800D02*
X495300D01*
X470000Y498200D02*
X475200D01*
X479500D02*
X488400D01*
X490900D02*
X495300D01*
X470100Y498100D02*
X475100D01*
X479500D02*
X488400D01*
X490900D02*
X495300D01*
X470300Y498000D02*
X475000D01*
X485600D02*
X488400D01*
X491000D02*
X495300D01*
X470400Y497900D02*
X474900D01*
X485600D02*
X488400D01*
X491100D02*
X495300D01*
X470600Y497800D02*
X474700D01*
X485600D02*
X488400D01*
X491200D02*
X495300D01*
X470800Y497700D02*
X474500D01*
X485700D02*
X488500D01*
X491300D02*
X495300D01*
X471000Y497600D02*
X474300D01*
X485700D02*
X488500D01*
X491400D02*
X495300D01*
X485700Y497500D02*
X488500D01*
X491600D02*
X495300D01*
X485700Y497400D02*
X488600D01*
X491800D02*
X495300D01*
X485800Y497300D02*
X488600D01*
X492100D02*
X495300D01*
X492600Y497200D02*
X495100D01*
X468900Y496600D02*
X471500D01*
X468800Y496500D02*
X471600D01*
X468800Y496400D02*
X471700D01*
X468800Y496300D02*
X471700D01*
X468800Y496200D02*
X471700D01*
X468900Y496100D02*
X471800D01*
X468900Y496000D02*
X471800D01*
X468900Y495900D02*
X471900D01*
X468900Y495800D02*
X472000D01*
X469000Y495700D02*
X472100D01*
X469000Y495600D02*
X472200D01*
X469100Y495500D02*
X472400D01*
X469100Y495400D02*
X472700D01*
X469200Y495300D02*
X473200D01*
X469200Y495200D02*
X477600D01*
X469300Y495100D02*
X477600D01*
X469400Y495000D02*
X477500D01*
X469400Y494900D02*
X477400D01*
X469500Y494800D02*
X477300D01*
X469600Y494700D02*
X477200D01*
X469700Y494600D02*
X477100D01*
X469800Y494500D02*
X477000D01*
X469900Y494400D02*
X476900D01*
X470100Y494300D02*
X476700D01*
X470200Y494200D02*
X476600D01*
X470400Y494100D02*
X476400D01*
X470600Y494000D02*
X476200D01*
X470700Y493900D02*
X476000D01*
X471000Y493800D02*
X475800D01*
X444300Y516300D02*
X450200D01*
X452400D02*
X458300D01*
X460600D02*
X466400D01*
X444200Y516200D02*
X450300D01*
X452300D02*
X458400D01*
X460500D02*
X466500D01*
X444100Y516100D02*
X450400D01*
X452200D02*
X458500D01*
X460400D02*
X466600D01*
X444000Y516000D02*
X450500D01*
X452100D02*
X458600D01*
X460300D02*
X466700D01*
X443900Y515900D02*
X450600D01*
X452000D02*
X458700D01*
X460200D02*
X466800D01*
X443800Y515800D02*
X450700D01*
X451900D02*
X458800D01*
X460100D02*
X466900D01*
X443900Y509500D02*
X450600D01*
X452000D02*
X458800D01*
X460100D02*
X466900D01*
X444000Y509400D02*
X450500D01*
X452100D02*
X458700D01*
X460200D02*
X466800D01*
X444100Y509300D02*
X450400D01*
X452200D02*
X458600D01*
X460300D02*
X466700D01*
X444200Y509200D02*
X450300D01*
X452300D02*
X458400D01*
X460400D02*
X466600D01*
X444300Y509100D02*
X450200D01*
X452400D02*
X458400D01*
X460500D02*
X466500D01*
X444300Y508500D02*
X450200D01*
X452500D02*
X458300D01*
X460600D02*
X466400D01*
X444200Y508400D02*
X450300D01*
X452400D02*
X458400D01*
X460500D02*
X466500D01*
X444100Y508300D02*
X450400D01*
X452300D02*
X458500D01*
X460400D02*
X466600D01*
X444000Y508200D02*
X450500D01*
X452200D02*
X458500D01*
X460300D02*
X466700D01*
X443900Y508100D02*
X450600D01*
X452100D02*
X458400D01*
X460200D02*
X466800D01*
X443800Y508000D02*
X450700D01*
X452000D02*
X458300D01*
X460100D02*
X466900D01*
X455000Y505500D02*
X455800D01*
X454900Y505400D02*
X455700D01*
X454800Y505300D02*
X455600D01*
X454700Y505200D02*
X455500D01*
X454600Y505100D02*
X455400D01*
X454500Y505000D02*
X455300D01*
X454400Y504900D02*
X455200D01*
X454300Y504800D02*
X455100D01*
X454200Y504700D02*
X455000D01*
Y504600D02*
X455100D01*
X454900Y504500D02*
X455000D01*
Y504400D02*
X459200D01*
X454900Y504300D02*
X459200D01*
X454800Y504200D02*
X459200D01*
X454700Y504100D02*
X459200D01*
X454600Y504000D02*
X459200D01*
X454500Y503900D02*
X459200D01*
X454400Y503800D02*
X459200D01*
X454300Y503700D02*
X459200D01*
X454200Y503600D02*
X459200D01*
X454100Y503500D02*
X459200D01*
X454000Y503400D02*
X459200D01*
X453900Y503300D02*
X459200D01*
X453800Y503200D02*
X459200D01*
X453700Y503100D02*
X459200D01*
X453600Y503000D02*
X459200D01*
X453500Y502900D02*
X459200D01*
X453400Y502800D02*
X459200D01*
X453300Y502700D02*
X459200D01*
X453200Y502600D02*
X459200D01*
X453100Y502500D02*
X459200D01*
X453000Y502400D02*
X459200D01*
X452900Y502300D02*
X459200D01*
X452800Y502200D02*
X459200D01*
X452700Y502100D02*
X459100D01*
X452600Y502000D02*
X459100D01*
X452500Y501900D02*
X459000D01*
X443800Y501800D02*
X450700D01*
X452400D02*
X458900D01*
X443900Y501700D02*
X450600D01*
X452300D02*
X458800D01*
X460100D02*
X466900D01*
X444000Y501600D02*
X450500D01*
X452200D02*
X458700D01*
X460200D02*
X466800D01*
X444100Y501500D02*
X450400D01*
X452200D02*
X458600D01*
X460300D02*
X466700D01*
X444200Y501400D02*
X450300D01*
X452300D02*
X458500D01*
X460400D02*
X466600D01*
X444300Y501300D02*
X450200D01*
X452400D02*
X458400D01*
X460500D02*
X466500D01*
X444300Y500700D02*
X450200D01*
X452400D02*
X458300D01*
X460600D02*
X466400D01*
X444200Y500600D02*
X450300D01*
X452300D02*
X458400D01*
X460500D02*
X466500D01*
X444100Y500500D02*
X450400D01*
X452200D02*
X458500D01*
X460400D02*
X466600D01*
X444000Y500400D02*
X450500D01*
X452100D02*
X458600D01*
X460300D02*
X466700D01*
X443900Y500300D02*
X450600D01*
X452000D02*
X458700D01*
X460200D02*
X466800D01*
X443800Y500200D02*
X450700D01*
X451900D02*
X458800D01*
X460100D02*
X466900D01*
X443700Y500100D02*
X450800D01*
X451800D02*
X458900D01*
X443600Y500000D02*
X450900D01*
X451700D02*
X459000D01*
X443500Y499900D02*
X451000D01*
X451700D02*
X459100D01*
X443500Y499800D02*
X451000D01*
X451600D02*
X459100D01*
X443500Y499700D02*
X451000D01*
X451600D02*
X459100D01*
X443500Y499600D02*
X451000D01*
X451600D02*
X459100D01*
X443500Y499500D02*
X451000D01*
X451600D02*
X459100D01*
X443500Y499400D02*
X451000D01*
X451600D02*
X459100D01*
X443500Y499300D02*
X451000D01*
X451600D02*
X459100D01*
X443500Y499200D02*
X451000D01*
X451600D02*
X459100D01*
X443500Y499100D02*
X451000D01*
X451600D02*
X459100D01*
X443500Y499000D02*
X451000D01*
X451600D02*
X459100D01*
X443500Y498900D02*
X451000D01*
X451600D02*
X459100D01*
X443500Y498800D02*
X451000D01*
X451600D02*
X459100D01*
X443500Y498700D02*
X451000D01*
X451600D02*
X459100D01*
X443500Y498600D02*
X451000D01*
X451600D02*
X459100D01*
X443500Y498400D02*
X451000D01*
X451600D02*
X459100D01*
X443500Y498300D02*
X451000D01*
X451600D02*
X459100D01*
X443500Y498200D02*
X451000D01*
X451600D02*
X459100D01*
X443500Y498100D02*
X451000D01*
X451600D02*
X459100D01*
X443500Y498000D02*
X451000D01*
X451600D02*
X459100D01*
X443500Y497900D02*
X451000D01*
X451600D02*
X459100D01*
X443500Y497800D02*
X451000D01*
X451600D02*
X459100D01*
X443500Y497700D02*
X451000D01*
X451600D02*
X459100D01*
X443500Y497600D02*
X451000D01*
X451600D02*
X459100D01*
X443500Y497500D02*
X451000D01*
X451600D02*
X459100D01*
X443500Y497400D02*
X451000D01*
X451600D02*
X459100D01*
X443500Y497300D02*
X451000D01*
X451600D02*
X459100D01*
X443500Y497200D02*
X451000D01*
X451600D02*
X459100D01*
X443500Y497100D02*
X451000D01*
X451600D02*
X459100D01*
X443500Y497000D02*
X451000D01*
X451600D02*
X459100D01*
X443500Y496900D02*
X451000D01*
X451600D02*
X459100D01*
X443500Y496800D02*
X451000D01*
X451600D02*
X459100D01*
X443500Y496700D02*
X451000D01*
X451600D02*
X459100D01*
X443500Y496600D02*
X451000D01*
X451600D02*
X459100D01*
X443500Y496500D02*
X451000D01*
X451600D02*
X459100D01*
X443500Y496400D02*
X451000D01*
X451600D02*
X459100D01*
X443500Y496300D02*
X451000D01*
X451600D02*
X459100D01*
X443500Y496200D02*
X451000D01*
X451600D02*
X459100D01*
X443500Y496100D02*
X451000D01*
X451600D02*
X459100D01*
X443500Y496000D02*
X451000D01*
X451600D02*
X459100D01*
X443500Y495900D02*
X451000D01*
X451600D02*
X459100D01*
X443500Y495800D02*
X451000D01*
X451600D02*
X459100D01*
X443500Y495700D02*
X451000D01*
X451600D02*
X459100D01*
X443500Y495600D02*
X451000D01*
X451600D02*
X459100D01*
X443500Y495500D02*
X451000D01*
X451600D02*
X459100D01*
X443500Y495400D02*
X451000D01*
X451600D02*
X459100D01*
X443500Y495300D02*
X451000D01*
X451600D02*
X459100D01*
X443500Y495200D02*
X451000D01*
X451600D02*
X459100D01*
X443500Y495100D02*
X451000D01*
X451600D02*
X459100D01*
X443500Y495000D02*
X451000D01*
X451600D02*
X459100D01*
X443500Y494900D02*
X451000D01*
X451600D02*
X459100D01*
X443500Y494800D02*
X451000D01*
X451600D02*
X459100D01*
X443500Y494700D02*
X451000D01*
X451600D02*
X459100D01*
X443500Y494600D02*
X451000D01*
X451600D02*
X459100D01*
X443500Y494500D02*
X451000D01*
X451600D02*
X459100D01*
X443500Y494400D02*
X451000D01*
X451600D02*
X459100D01*
X443500Y494300D02*
X451000D01*
X451600D02*
X459100D01*
X443600Y494200D02*
X450900D01*
X451700D02*
X459100D01*
X443700Y494100D02*
X450800D01*
X451800D02*
X459000D01*
X443800Y494000D02*
X450700D01*
X451900D02*
X458900D01*
X443900Y493900D02*
X450600D01*
X452000D02*
X458800D01*
X460100D02*
X466900D01*
X444000Y493800D02*
X450500D01*
X452100D02*
X458700D01*
X460200D02*
X466800D01*
X444100Y493700D02*
X450400D01*
X452200D02*
X458600D01*
X460300D02*
X466700D01*
X444200Y493600D02*
X450300D01*
X452300D02*
X458500D01*
X460400D02*
X466600D01*
X444300Y493500D02*
X450200D01*
X452400D02*
X458400D01*
X460500D02*
X466500D01*
X507100Y506500D02*
X509700D01*
X507100Y498500D02*
X509900D01*
X480800Y514500D02*
X481700D01*
X475600Y506500D02*
X478300D01*
X475600Y498500D02*
X478300D01*
X469500D02*
X469600D01*
X458500Y514500D02*
X459100D01*
X456000Y506500D02*
X456800D01*
X456900D02*
X457000D01*
X457100D02*
X459200D01*
X450400Y514500D02*
X451000D01*
X451600D02*
X452200D01*
X450400Y506500D02*
X451000D01*
X451700D02*
X452300D01*
X443500Y514500D02*
X444100D01*
X443500Y506500D02*
X444100D01*
X522400Y505800D02*
X522500D01*
X519400Y505200D02*
X522700D01*
X519600Y505100D02*
X522700D01*
X519500Y505000D02*
X519600D01*
X519800D02*
X522700D01*
X519700Y504900D02*
X519800D01*
X519900D02*
X522800D01*
X519800Y504800D02*
X519900D01*
X520000D02*
X522800D01*
X520100Y504700D02*
X522800D01*
X520100Y504600D02*
X522800D01*
X520100Y504500D02*
X522900D01*
X520200Y504400D02*
X522900D01*
X520200Y504300D02*
X522900D01*
X520200Y504200D02*
X522900D01*
X520200Y504100D02*
X522900D01*
X519200Y501000D02*
X523100D01*
X519500Y500900D02*
X523100D01*
X519700Y500800D02*
X523100D01*
X519900Y500700D02*
X523200D01*
X519800Y500600D02*
X519900D01*
X520100D02*
X523200D01*
X520200Y500500D02*
X523200D01*
X520300Y500400D02*
X523200D01*
X520100Y500300D02*
X520200D01*
X520300D02*
X523200D01*
X520300Y500200D02*
X523200D01*
X520400Y500100D02*
X523200D01*
X520400Y500000D02*
X523200D01*
X520300Y499900D02*
X523100D01*
X520300Y499800D02*
X523100D01*
X520300Y499700D02*
X523100D01*
X520300Y499600D02*
X523100D01*
X520000Y499500D02*
X520100D01*
X520200D02*
X523100D01*
X519900Y499400D02*
X520000D01*
X520100D02*
X523000D01*
X519800Y499300D02*
X519900D01*
X520100D02*
X523000D01*
X519600Y499200D02*
X519700D01*
X519900D02*
X523000D01*
X519800Y499100D02*
X522900D01*
X519500Y499000D02*
X522900D01*
X519100Y498900D02*
X522900D01*
X519600Y496900D02*
X519700D01*
X517300Y507300D02*
X517400D01*
X512300Y507100D02*
X513200D01*
X511900Y507000D02*
X513500D01*
X511600Y506900D02*
X513500D01*
X511400Y506800D02*
X513500D01*
X511200Y506700D02*
X513500D01*
X515300Y506600D02*
X515400D01*
X514400Y505300D02*
X517900D01*
X514400Y505200D02*
X517500D01*
X514300Y505100D02*
X517300D01*
X514300Y505000D02*
X517200D01*
X514300Y504900D02*
X517100D01*
X514300Y504800D02*
X517100D01*
X514300Y504700D02*
X517000D01*
X514200Y504600D02*
X517000D01*
X513100Y504500D02*
X513500D01*
X514200D02*
X517000D01*
X514200Y504400D02*
X517000D01*
X514200Y504300D02*
X517100D01*
X514200Y504200D02*
X517100D01*
X517200D02*
X517300D01*
X514200Y504100D02*
X517100D01*
X514200Y504000D02*
X517200D01*
X517400D02*
X517500D01*
X514200Y503900D02*
X517400D01*
X514200Y503800D02*
X517500D01*
X514200Y503700D02*
X517700D01*
X514300Y503600D02*
X518000D01*
X514300Y503500D02*
X518400D01*
X514300Y503400D02*
X518800D01*
X517800Y501200D02*
X517900D01*
X514000Y500400D02*
X516700D01*
X514000Y500300D02*
X516700D01*
X514000Y500200D02*
X516700D01*
X514000Y500100D02*
X516700D01*
X514000Y500000D02*
X516700D01*
X514000Y499900D02*
X516700D01*
X514000Y499800D02*
X516800D01*
X514100Y499700D02*
X516800D01*
X514100Y499600D02*
X516900D01*
X517000D02*
X517100D01*
X514100Y499500D02*
X517000D01*
X517100D02*
X517200D01*
X514100Y499400D02*
X517100D01*
X517200D02*
X517300D01*
X514200Y499300D02*
X517200D01*
X514200Y499200D02*
X517300D01*
X514300Y499100D02*
X517500D01*
X514300Y499000D02*
X517700D01*
X518500D02*
X518600D01*
X518700D02*
X518800D01*
X514400Y498900D02*
X518200D01*
X514600Y498300D02*
X514700D01*
X514800Y498100D02*
X514900D01*
X515000Y497900D02*
X515100D01*
X515400Y497600D02*
X515500D01*
X517600Y496900D02*
X517700D01*
X507100Y506800D02*
X509700D01*
X507100Y506700D02*
X509700D01*
X507100Y506600D02*
X509700D01*
X507100Y506400D02*
X509700D01*
X507100Y506300D02*
X509700D01*
X507100Y506200D02*
X509700D01*
X507100Y506100D02*
X509700D01*
X507100Y506000D02*
X509700D01*
X507100Y505900D02*
X509700D01*
X507100Y505800D02*
X509700D01*
X509900D02*
X510000D01*
X507100Y505700D02*
X509700D01*
X507100Y505600D02*
X509700D01*
X507100Y505500D02*
X509700D01*
X507100Y505400D02*
X509700D01*
X507100Y505300D02*
X509700D01*
X507100Y504100D02*
X510900D01*
X507100Y504000D02*
X510700D01*
X507100Y503900D02*
X510600D01*
X507100Y503800D02*
X510500D01*
X503100Y503700D02*
X505900D01*
X507100D02*
X510500D01*
X503100Y503600D02*
X505900D01*
X507100D02*
X510400D01*
X510500D02*
X510600D01*
X503100Y503500D02*
X506000D01*
X507100D02*
X510300D01*
X503200Y503400D02*
X506000D01*
X507100D02*
X510300D01*
X503200Y503300D02*
X506000D01*
X507100D02*
X510200D01*
X510300D02*
X510400D01*
X503200Y503200D02*
X506000D01*
X507100D02*
X510200D01*
X503200Y503100D02*
X506100D01*
X507100D02*
X510100D01*
X503200Y503000D02*
X506100D01*
X507100D02*
X510100D01*
X503200Y502900D02*
X506100D01*
X507100D02*
X510100D01*
X503300Y502800D02*
X506100D01*
X507100D02*
X510000D01*
X503300Y502700D02*
X506100D01*
X506200D02*
X506300D01*
X507100D02*
X510000D01*
X503300Y502600D02*
X506100D01*
X506200D02*
X506300D01*
X507100D02*
X510000D01*
X503300Y502500D02*
X506100D01*
X507100D02*
X510000D01*
X503300Y502400D02*
X506100D01*
X507100D02*
X509900D01*
X503300Y502300D02*
X506100D01*
X507100D02*
X509900D01*
X503300Y502200D02*
X506100D01*
X507100D02*
X509900D01*
X503300Y502100D02*
X506100D01*
X507100D02*
X509900D01*
X510000D02*
X510100D01*
X503300Y502000D02*
X506100D01*
X507100D02*
X509900D01*
X510000D02*
X510100D01*
X503300Y501900D02*
X506100D01*
X507100D02*
X509900D01*
X503300Y501800D02*
X506100D01*
X507100D02*
X509900D01*
X503300Y501700D02*
X506100D01*
X507100D02*
X509900D01*
X503300Y501600D02*
X506100D01*
X507100D02*
X509900D01*
X503300Y501500D02*
X506100D01*
X506200D02*
X506300D01*
X507100D02*
X509900D01*
X503300Y501400D02*
X506100D01*
X507100D02*
X509900D01*
X503200Y501300D02*
X506100D01*
X507100D02*
X509900D01*
X503200Y501200D02*
X506100D01*
X507100D02*
X509900D01*
X503200Y501100D02*
X506100D01*
X507100D02*
X509900D01*
X503200Y501000D02*
X506000D01*
X507100D02*
X509900D01*
X503200Y500900D02*
X506000D01*
X507100D02*
X509900D01*
X503200Y500800D02*
X506000D01*
X507100D02*
X509900D01*
X503100Y500700D02*
X506000D01*
X507100D02*
X509900D01*
X503100Y500600D02*
X506000D01*
X507100D02*
X509900D01*
X503100Y500500D02*
X505900D01*
X507100D02*
X509900D01*
X507100Y500400D02*
X509900D01*
X507100Y500300D02*
X509900D01*
X507100Y500200D02*
X509900D01*
X507100Y500100D02*
X509900D01*
X507100Y500000D02*
X509900D01*
X507100Y499900D02*
X509900D01*
X507100Y499800D02*
X509900D01*
X507100Y499700D02*
X509900D01*
X507100Y499600D02*
X509900D01*
X507100Y499500D02*
X509900D01*
X507100Y499400D02*
X509900D01*
X507100Y499300D02*
X509900D01*
X507100Y499200D02*
X509900D01*
X507100Y499100D02*
X509900D01*
X507100Y499000D02*
X509900D01*
X507100Y498900D02*
X509900D01*
X507100Y498800D02*
X509900D01*
X507100Y498700D02*
X509900D01*
X507100Y498600D02*
X509900D01*
X507100Y498400D02*
X509900D01*
X507100Y498300D02*
X509900D01*
X507100Y498200D02*
X509900D01*
X507100Y498100D02*
X509900D01*
X507100Y498000D02*
X509900D01*
X504300Y497900D02*
X504400D01*
X507100D02*
X509900D01*
X507100Y497800D02*
X509900D01*
X507100Y497700D02*
X509900D01*
X507100Y497600D02*
X509900D01*
X507100Y497500D02*
X509900D01*
X507100Y497400D02*
X509900D01*
X507100Y497300D02*
X509900D01*
X507100Y497200D02*
X509900D01*
X499900Y507300D02*
X500000D01*
X502000D02*
X502100D01*
X500300Y507200D02*
X501700D01*
X499600Y507100D02*
X502300D01*
X499300Y507000D02*
X502700D01*
X496700Y505100D02*
X500700D01*
X496600Y505000D02*
X500200D01*
X496600Y504900D02*
X500000D01*
X496500Y504800D02*
X499800D01*
X500000D02*
X500100D01*
X496500Y504700D02*
X499600D01*
X499800D02*
X499900D01*
X496400Y504600D02*
X499500D01*
X502200D02*
X502300D01*
X496400Y504500D02*
X499400D01*
X496300Y504400D02*
X499300D01*
X496300Y504300D02*
X499300D01*
X496200Y504200D02*
X499200D01*
X499300D02*
X499400D01*
X502600D02*
X502700D01*
X496200Y504100D02*
X499100D01*
X496200Y504000D02*
X499100D01*
X496100Y503900D02*
X499000D01*
X496100Y503800D02*
X499000D01*
X496100Y503700D02*
X498900D01*
X496000Y503600D02*
X498900D01*
X496000Y503500D02*
X498900D01*
X496000Y503400D02*
X498800D01*
X496000Y503300D02*
X498800D01*
X496000Y503200D02*
X498800D01*
X495900Y503100D02*
X498800D01*
X495900Y503000D02*
X498800D01*
X495900Y502900D02*
X498800D01*
X495900Y502800D02*
X498700D01*
X495900Y502700D02*
X498700D01*
X495900Y502600D02*
X498700D01*
X495900Y502500D02*
X498700D01*
X495900Y502400D02*
X498700D01*
X495900Y502300D02*
X498700D01*
X495900Y502200D02*
X498700D01*
X495900Y502100D02*
X498700D01*
X495900Y502000D02*
X498700D01*
X495900Y501900D02*
X498700D01*
X495900Y501800D02*
X498700D01*
X495900Y501700D02*
X498700D01*
X495900Y501600D02*
X498700D01*
X495900Y501500D02*
X498700D01*
X495900Y501400D02*
X498700D01*
X495900Y501300D02*
X498700D01*
X495900Y501200D02*
X498800D01*
X495900Y501100D02*
X498800D01*
X496000Y501000D02*
X498800D01*
X496000Y500900D02*
X498800D01*
X496000Y500800D02*
X498800D01*
X496000Y500700D02*
X498900D01*
X496000Y500600D02*
X498900D01*
X496100Y500500D02*
X498900D01*
X496100Y500400D02*
X499000D01*
X496100Y500300D02*
X499000D01*
X496200Y500200D02*
X499100D01*
X496200Y500100D02*
X499100D01*
X496200Y500000D02*
X499200D01*
X499300D02*
X499400D01*
X502600D02*
X502700D01*
X496300Y499900D02*
X499200D01*
X496300Y499800D02*
X499300D01*
X496400Y499700D02*
X499400D01*
X496400Y499600D02*
X499500D01*
X496500Y499500D02*
X499600D01*
X499800D02*
X499900D01*
X502100D02*
X502200D01*
X496500Y499400D02*
X499800D01*
X496600Y499300D02*
X499900D01*
X496600Y499200D02*
X500200D01*
X496700Y499100D02*
X500700D01*
X499300Y497200D02*
X502700D01*
X499700Y497100D02*
X502300D01*
X500500Y497000D02*
X501500D01*
X491300Y514200D02*
X492100D01*
X489000Y514100D02*
X489800D01*
X491000D02*
X492100D01*
X489000Y514000D02*
X489800D01*
X490800D02*
X492100D01*
X489000Y513900D02*
X489800D01*
X490600D02*
X492100D01*
X489000Y513800D02*
X489800D01*
X490500D02*
X492100D01*
X489000Y513700D02*
X489800D01*
X490300D02*
X492100D01*
X489000Y513600D02*
X489800D01*
X490200D02*
X492100D01*
X489000Y513500D02*
X489800D01*
X489900D02*
X490000D01*
X490100D02*
X492100D01*
X489000Y513400D02*
X489800D01*
X490100D02*
X492000D01*
X489000Y513300D02*
X489800D01*
X490000D02*
X491200D01*
X489000Y513200D02*
X489800D01*
X489900D02*
X490900D01*
X489000Y513100D02*
X489800D01*
X489900D02*
X490800D01*
X491000D02*
X491100D01*
X489000Y513000D02*
X490600D01*
X490800D02*
X490900D01*
X487700Y512900D02*
X487800D01*
X489000D02*
X490500D01*
X489000Y512800D02*
X490400D01*
X490500D02*
X490600D01*
X489000Y512700D02*
X490300D01*
X490400D02*
X490500D01*
X489000Y512600D02*
X490200D01*
X490300D02*
X490400D01*
X489000Y512500D02*
X490200D01*
X489000Y512400D02*
X490100D01*
X489000Y512300D02*
X490000D01*
X489000Y512200D02*
X490000D01*
X490100D02*
X490200D01*
X489000Y512100D02*
X490000D01*
X489000Y512000D02*
X489900D01*
X489000Y511900D02*
X489900D01*
X489000Y511800D02*
X489900D01*
X489000Y511700D02*
X489900D01*
X489000Y511600D02*
X489900D01*
X489000Y511500D02*
X489800D01*
X489000Y511400D02*
X489800D01*
X489000Y511300D02*
X489800D01*
X489000Y511200D02*
X489800D01*
X489000Y511100D02*
X489800D01*
X489000Y511000D02*
X489800D01*
X489000Y510900D02*
X489800D01*
X489000Y510800D02*
X489800D01*
X489000Y510700D02*
X489800D01*
X489000Y510600D02*
X489800D01*
X489000Y510500D02*
X489800D01*
X489000Y510400D02*
X489800D01*
X489000Y510300D02*
X489800D01*
X489000Y510200D02*
X489800D01*
X489000Y510100D02*
X489800D01*
X489000Y510000D02*
X489800D01*
X489000Y509900D02*
X489800D01*
X489000Y509800D02*
X489800D01*
X490600D02*
X493400D01*
X489000Y509700D02*
X489800D01*
X490600D02*
X493400D01*
X489000Y509600D02*
X489800D01*
X490600D02*
X493400D01*
X489000Y509500D02*
X489800D01*
X490600D02*
X493400D01*
X489000Y509400D02*
X489800D01*
X490600D02*
X493400D01*
X489000Y509300D02*
X489800D01*
X490600D02*
X493400D01*
X489000Y509200D02*
X489800D01*
X490600D02*
X493400D01*
X489000Y509100D02*
X489800D01*
X490600D02*
X493400D01*
X489000Y509000D02*
X489800D01*
X490600D02*
X493400D01*
X488200Y508900D02*
X488300D01*
X489000D02*
X489800D01*
X490600D02*
X493400D01*
X489000Y508800D02*
X489800D01*
X490600D02*
X493400D01*
X489000Y508700D02*
X489800D01*
X490600D02*
X493400D01*
X489000Y508600D02*
X489800D01*
X490600D02*
X493400D01*
X489000Y508500D02*
X489800D01*
X490600D02*
X493400D01*
X487100Y508400D02*
X488300D01*
X489000D02*
X489800D01*
X490600D02*
X493400D01*
X487200Y508300D02*
X488300D01*
X489000D02*
X489800D01*
X490600D02*
X493400D01*
X487300Y508200D02*
X488300D01*
X489000D02*
X489800D01*
X490600D02*
X493400D01*
X490600Y508100D02*
X493400D01*
X490600Y508000D02*
X493400D01*
X490600Y507900D02*
X493400D01*
X490600Y507800D02*
X493400D01*
X490600Y507700D02*
X493400D01*
X490600Y507600D02*
X493400D01*
X490600Y507500D02*
X493400D01*
X490600Y507400D02*
X493400D01*
X490600Y507300D02*
X493400D01*
X490600Y507200D02*
X493400D01*
X490600Y507100D02*
X493400D01*
X493500D02*
X493600D01*
X490600Y507000D02*
X493400D01*
X487500Y506400D02*
X487600D01*
X487700Y506200D02*
X487800D01*
Y506100D02*
X487900D01*
X490600Y505000D02*
X493400D01*
X490600Y504900D02*
X493400D01*
X493500D02*
X493600D01*
X490600Y504800D02*
X493400D01*
X490600Y504700D02*
X493400D01*
X490600Y504600D02*
X493400D01*
X490600Y504500D02*
X493400D01*
X490600Y504400D02*
X493400D01*
X490600Y504300D02*
X493400D01*
X490600Y504200D02*
X493400D01*
X490600Y504100D02*
X493400D01*
X490600Y504000D02*
X493400D01*
X490600Y503900D02*
X493400D01*
X490600Y503800D02*
X493400D01*
X490600Y503700D02*
X493400D01*
X490600Y503600D02*
X493400D01*
X490600Y503500D02*
X493400D01*
X490600Y503400D02*
X493400D01*
X490600Y503300D02*
X493400D01*
X490600Y503200D02*
X493400D01*
X490600Y503100D02*
X493400D01*
X490600Y503000D02*
X493400D01*
X490600Y502900D02*
X493400D01*
X490600Y502800D02*
X493400D01*
X490600Y502700D02*
X493400D01*
X490600Y502600D02*
X493400D01*
X490600Y502500D02*
X493400D01*
X490600Y502400D02*
X493400D01*
X490600Y502300D02*
X493400D01*
X490600Y502200D02*
X493400D01*
X490600Y502100D02*
X493400D01*
X490600Y502000D02*
X493400D01*
X490600Y501900D02*
X493400D01*
X490600Y501800D02*
X493400D01*
X490600Y501700D02*
X493400D01*
X490600Y501600D02*
X493400D01*
X490600Y501500D02*
X493400D01*
X490600Y501400D02*
X493400D01*
X490600Y501300D02*
X493400D01*
X490600Y501200D02*
X493400D01*
X490600Y501100D02*
X493400D01*
X490600Y501000D02*
X493400D01*
X490600Y500900D02*
X493400D01*
X490600Y500800D02*
X493400D01*
X490600Y500700D02*
X493400D01*
X490600Y500600D02*
X493400D01*
X490600Y500500D02*
X493400D01*
X490600Y500400D02*
X493400D01*
X490600Y500300D02*
X493400D01*
X490600Y500200D02*
X493400D01*
X490600Y500100D02*
X493400D01*
X490600Y500000D02*
X493400D01*
X490600Y499900D02*
X493400D01*
X490600Y499800D02*
X493400D01*
X490600Y499700D02*
X493500D01*
X490600Y499600D02*
X493500D01*
X493600D02*
X493700D01*
X490600Y499500D02*
X493600D01*
X490600Y499400D02*
X493800D01*
X488400Y499000D02*
X488500D01*
X488400Y498900D02*
X488500D01*
X480800Y516400D02*
X481700D01*
X480800Y516300D02*
X481700D01*
X480800Y516200D02*
X481700D01*
X480800Y516100D02*
X481700D01*
X480800Y516000D02*
X481700D01*
X480800Y515900D02*
X481700D01*
X480800Y515800D02*
X481700D01*
X480800Y515700D02*
X481700D01*
X480800Y515600D02*
X481700D01*
X480800Y515500D02*
X481700D01*
X480800Y515400D02*
X481700D01*
X480800Y515300D02*
X481700D01*
X480800Y515200D02*
X481700D01*
X480800Y515100D02*
X481700D01*
X480800Y515000D02*
X481700D01*
X480800Y514900D02*
X481700D01*
X480800Y514800D02*
X481700D01*
X480800Y514700D02*
X481700D01*
X480800Y514600D02*
X481700D01*
X480800Y514400D02*
X481700D01*
X480800Y514300D02*
X481700D01*
X484800D02*
X486000D01*
X480800Y514200D02*
X481700D01*
X484300D02*
X486400D01*
X480800Y514100D02*
X481700D01*
X484000D02*
X486700D01*
X480800Y514000D02*
X481700D01*
X483900D02*
X486900D01*
X480800Y513900D02*
X481700D01*
X480800Y513800D02*
X481700D01*
X480800Y513700D02*
X481700D01*
X480800Y513600D02*
X481700D01*
X483400D02*
X485200D01*
X480800Y513500D02*
X481700D01*
X483300D02*
X484600D01*
X480800Y513400D02*
X481700D01*
X483200D02*
X484300D01*
X480800Y513300D02*
X481700D01*
X483200D02*
X484200D01*
X486200D02*
X486300D01*
X480800Y513200D02*
X481700D01*
X483100D02*
X484100D01*
X484200D02*
X484300D01*
X480800Y513100D02*
X481700D01*
X483100D02*
X484000D01*
X484100D02*
X484200D01*
X480800Y513000D02*
X481700D01*
X483000D02*
X483900D01*
X484000D02*
X484100D01*
X480800Y512900D02*
X481700D01*
X483000D02*
X483900D01*
X480800Y512800D02*
X481700D01*
X483000D02*
X483800D01*
X480800Y512700D02*
X481700D01*
X482900D02*
X483800D01*
X480800Y512600D02*
X481700D01*
X482900D02*
X483800D01*
X480800Y512500D02*
X481700D01*
X482900D02*
X483800D01*
X480800Y512400D02*
X481700D01*
X482900D02*
X483700D01*
X480800Y512300D02*
X481700D01*
X482900D02*
X483700D01*
X480800Y512200D02*
X481700D01*
X479100Y512100D02*
X480000D01*
X480800D02*
X481700D01*
X479100Y512000D02*
X480000D01*
X480800D02*
X481700D01*
X479100Y511900D02*
X480000D01*
X480100D02*
X480200D01*
X480800D02*
X481700D01*
X479100Y511800D02*
X480000D01*
X480800D02*
X481700D01*
X485200D02*
X485300D01*
X479200Y511700D02*
X480000D01*
X480800D02*
X481700D01*
X479200Y511600D02*
X480000D01*
X480800D02*
X481700D01*
X479200Y511500D02*
X480100D01*
X480800D02*
X481700D01*
X479200Y511400D02*
X480100D01*
X480800D02*
X481700D01*
X479200Y511300D02*
X480100D01*
X480800D02*
X481700D01*
X479200Y511200D02*
X480100D01*
X480800D02*
X481700D01*
X483400D02*
X486600D01*
X479200Y511100D02*
X480100D01*
X480800D02*
X481700D01*
X483300D02*
X486200D01*
X479200Y511000D02*
X480100D01*
X480800D02*
X481700D01*
X483200D02*
X485600D01*
X479200Y510900D02*
X480100D01*
X480800D02*
X481700D01*
X483000D02*
X484900D01*
X479200Y510800D02*
X480100D01*
X480800D02*
X481700D01*
X483000D02*
X484500D01*
X479200Y510700D02*
X480000D01*
X480800D02*
X481700D01*
X482900D02*
X484200D01*
X479200Y510600D02*
X480000D01*
X480800D02*
X481700D01*
X482800D02*
X484000D01*
X479100Y510500D02*
X480000D01*
X480800D02*
X481700D01*
X482800D02*
X483800D01*
X484000D02*
X484100D01*
X479100Y510400D02*
X480000D01*
X480100D02*
X480200D01*
X480800D02*
X481700D01*
X482700D02*
X483700D01*
X483800D02*
X483900D01*
X479100Y510300D02*
X480000D01*
X480800D02*
X481700D01*
X482700D02*
X483600D01*
X483700D02*
X483800D01*
X479100Y510200D02*
X480000D01*
X480800D02*
X481700D01*
X482700D02*
X483600D01*
X480800Y510100D02*
X481700D01*
X482600D02*
X483500D01*
X480800Y510000D02*
X481700D01*
X482600D02*
X483500D01*
X480800Y509900D02*
X481700D01*
X482600D02*
X483500D01*
X480800Y509800D02*
X481700D01*
X482600D02*
X483500D01*
X480800Y509700D02*
X481700D01*
X482600D02*
X483500D01*
X486400D02*
X486500D01*
X480800Y509600D02*
X481700D01*
X482600D02*
X483500D01*
X480800Y509500D02*
X481700D01*
X482600D02*
X483500D01*
X486300D02*
X486400D01*
X480800Y509400D02*
X481700D01*
X482600D02*
X483600D01*
X486200D02*
X486300D01*
X480800Y509300D02*
X481700D01*
X482700D02*
X483600D01*
X483700D02*
X483800D01*
X486100D02*
X486200D01*
X480800Y509200D02*
X481700D01*
X482700D02*
X483700D01*
X483800D02*
X483900D01*
X480800Y509100D02*
X481700D01*
X482700D02*
X483800D01*
X483900D02*
X484000D01*
X480800Y509000D02*
X481700D01*
X482800D02*
X483900D01*
X485900D02*
X486800D01*
X479400Y508900D02*
X479500D01*
X480800D02*
X481700D01*
X482800D02*
X484000D01*
X485700D02*
X486700D01*
X480800Y508800D02*
X481700D01*
X482900D02*
X484200D01*
X485400D02*
X486600D01*
X480800Y508700D02*
X481700D01*
X483000D02*
X486500D01*
X486700D02*
X486800D01*
X480800Y508600D02*
X481700D01*
X483000D02*
X486400D01*
X480800Y508500D02*
X481700D01*
X483100D02*
X486300D01*
X480800Y508400D02*
X481700D01*
X483200D02*
X486200D01*
X480800Y508300D02*
X481700D01*
X483400D02*
X486100D01*
X480800Y508200D02*
X481700D01*
X483600D02*
X485900D01*
X483800Y508100D02*
X485600D01*
X484300Y508000D02*
X485100D01*
X482700Y507300D02*
X482800D01*
X485200D02*
X485300D01*
X483100Y507200D02*
X484800D01*
X482400Y507100D02*
X485700D01*
X482000Y507000D02*
X486100D01*
X481600Y506900D02*
X486400D01*
X481400Y506800D02*
X486700D01*
X481200Y506700D02*
X486900D01*
X479600Y505300D02*
X483300D01*
X479600Y505200D02*
X482900D01*
X479500Y505100D02*
X482700D01*
X479500Y505000D02*
X482600D01*
X484900D02*
X485000D01*
X479400Y504900D02*
X482400D01*
X482600D02*
X482700D01*
X485000D02*
X485100D01*
X479400Y504800D02*
X482400D01*
X482500D02*
X482600D01*
X485100D02*
X485200D01*
X479400Y504700D02*
X482300D01*
X482400D02*
X482500D01*
X479400Y504600D02*
X482300D01*
X479300Y504500D02*
X482200D01*
X479300Y504400D02*
X482200D01*
X479300Y504300D02*
X482100D01*
X479300Y504200D02*
X482100D01*
X479300Y504100D02*
X482100D01*
X479300Y504000D02*
X482100D01*
X479300Y503900D02*
X482100D01*
X485200Y503700D02*
X485300D01*
X485100Y503600D02*
X485200D01*
X482000Y503000D02*
X482100D01*
X479600Y501800D02*
X485400D01*
X479600Y501700D02*
X485100D01*
X479500Y501600D02*
X484800D01*
X479400Y501500D02*
X484200D01*
X479300Y501400D02*
X483500D01*
X479300Y501300D02*
X483000D01*
X479200Y501200D02*
X482700D01*
X483100D02*
X483200D01*
X479200Y501100D02*
X482400D01*
X479100Y501000D02*
X482300D01*
X479100Y500900D02*
X482100D01*
X482300D02*
X482400D01*
X479100Y500800D02*
X482000D01*
Y500600D02*
X482100D01*
X484900Y499600D02*
X485000D01*
X484800Y499500D02*
X484900D01*
X484700Y499400D02*
X484800D01*
X482100Y499300D02*
X482200D01*
X484600D02*
X484700D01*
X482300Y499200D02*
X482400D01*
X484400D02*
X484500D01*
X479100Y499100D02*
X482200D01*
X479100Y499000D02*
X482400D01*
X483200D02*
X483300D01*
X483400D02*
X483600D01*
X479100Y498900D02*
X482800D01*
X479600Y498000D02*
X485500D01*
X479700Y497900D02*
X485400D01*
X479800Y497800D02*
X485300D01*
X485400D02*
X485500D01*
X480000Y497700D02*
X485100D01*
X480100Y497600D02*
X485000D01*
X480200Y497500D02*
X484800D01*
X480400Y497400D02*
X484600D01*
X480600Y497300D02*
X484300D01*
X480900Y497200D02*
X484000D01*
X481200Y497100D02*
X483600D01*
X481900Y497000D02*
X482900D01*
X481500Y496900D02*
X481600D01*
X476600Y514300D02*
X477700D01*
X476200Y514200D02*
X478100D01*
X476000Y514100D02*
X478400D01*
X475800Y514000D02*
X478600D01*
X475600Y513900D02*
X478700D01*
X475500Y513800D02*
X478900D01*
X471400Y513600D02*
X473200D01*
X475200D02*
X477100D01*
X472000Y513500D02*
X473300D01*
X475100D02*
X476500D01*
X472200Y513400D02*
X473400D01*
X475000D02*
X476300D01*
X472100Y513300D02*
X472200D01*
X472400D02*
X473400D01*
X475000D02*
X476100D01*
X472500Y513200D02*
X473500D01*
X474900D02*
X476000D01*
X478100D02*
X478200D01*
X472600Y513100D02*
X473500D01*
X474800D02*
X475900D01*
X476000D02*
X476100D01*
X472600Y513000D02*
X473600D01*
X474700D02*
X475800D01*
X475900D02*
X476000D01*
X472700Y512900D02*
X473600D01*
X474700D02*
X475700D01*
X475800D02*
X475900D01*
X472700Y512800D02*
X473600D01*
X474600D02*
X475600D01*
X475700D02*
X475800D01*
X472800Y512700D02*
X473600D01*
X474600D02*
X475500D01*
X478600D02*
X478700D01*
X472800Y512600D02*
X473700D01*
X474500D02*
X475500D01*
X472600Y512500D02*
X472700D01*
X472800D02*
X473700D01*
X474500D02*
X475400D01*
X472800Y512400D02*
X473700D01*
X474500D02*
X475400D01*
X474400Y512300D02*
X475300D01*
X478800D02*
X478900D01*
X474400Y512200D02*
X475300D01*
X474400Y512100D02*
X475300D01*
X474400Y512000D02*
X475200D01*
X474300Y511900D02*
X475200D01*
X474300Y511800D02*
X475200D01*
X474300Y511700D02*
X475200D01*
X474300Y511600D02*
X475200D01*
X474300Y511500D02*
X475200D01*
X474300Y511400D02*
X475100D01*
X474300Y511300D02*
X475100D01*
X474300Y511200D02*
X475100D01*
X474300Y511100D02*
X475100D01*
X474300Y511000D02*
X475100D01*
X471200Y510900D02*
X473400D01*
X474300D02*
X475100D01*
X471600Y510800D02*
X473500D01*
X474300D02*
X475200D01*
X472000Y510700D02*
X473600D01*
X474300D02*
X475200D01*
X472300Y510600D02*
X473700D01*
X474300D02*
X475200D01*
X472600Y510500D02*
X473700D01*
X474300D02*
X475200D01*
X472700Y510400D02*
X473800D01*
X474300D02*
X475200D01*
X472600Y510300D02*
X472700D01*
X472800D02*
X473800D01*
X474400D02*
X475300D01*
X472700Y510200D02*
X472800D01*
X472900D02*
X473800D01*
X474400D02*
X475300D01*
X473000Y510100D02*
X473900D01*
X474400D02*
X475300D01*
X473000Y510000D02*
X473900D01*
X474400D02*
X475300D01*
X473000Y509900D02*
X473900D01*
X474500D02*
X475400D01*
X473000Y509800D02*
X473900D01*
X474500D02*
X475400D01*
X473000Y509700D02*
X473900D01*
X474500D02*
X475500D01*
X475600D02*
X475700D01*
X473000Y509600D02*
X473900D01*
X474600D02*
X475500D01*
X478600D02*
X478700D01*
X473000Y509500D02*
X473900D01*
X474600D02*
X475600D01*
X478500D02*
X478600D01*
X472900Y509400D02*
X473800D01*
X474700D02*
X475700D01*
X475800D02*
X475900D01*
X472700Y509300D02*
X472800D01*
X472900D02*
X473800D01*
X474700D02*
X475800D01*
X475900D02*
X476000D01*
X472600Y509200D02*
X472700D01*
X472800D02*
X473800D01*
X474800D02*
X475900D01*
X476000D02*
X476100D01*
X478200D02*
X478300D01*
X472700Y509100D02*
X473700D01*
X474900D02*
X476000D01*
X472600Y509000D02*
X473700D01*
X475000D02*
X476100D01*
X477900D02*
X478000D01*
X472400Y508900D02*
X473600D01*
X475000D02*
X476300D01*
X472100Y508800D02*
X473500D01*
X475100D02*
X476500D01*
X475500Y508500D02*
X478900D01*
X475600Y508400D02*
X478700D01*
X475800Y508300D02*
X478500D01*
X476000Y508200D02*
X478300D01*
X476300Y508100D02*
X478100D01*
X476800Y508000D02*
X477600D01*
X472100Y507900D02*
X472200D01*
X477800D02*
X477900D01*
X472200Y507000D02*
X473300D01*
X471600Y506900D02*
X473800D01*
X471300Y506800D02*
X474200D01*
X471100Y506700D02*
X474400D01*
X475600D02*
X478300D01*
X475600Y506600D02*
X478300D01*
X475600Y506400D02*
X478300D01*
X475600Y506300D02*
X478300D01*
X475600Y506200D02*
X478300D01*
X475600Y506100D02*
X478300D01*
X475400Y506000D02*
X475500D01*
X475600D02*
X478300D01*
X475600Y505900D02*
X478300D01*
X475600Y505800D02*
X478300D01*
X475600Y505700D02*
X478300D01*
X473600Y504900D02*
X478300D01*
X474200Y504800D02*
X478300D01*
X474400Y504700D02*
X478300D01*
X474600Y504600D02*
X478300D01*
X474500Y504500D02*
X474600D01*
X474800D02*
X478300D01*
X472200Y504400D02*
X472300D01*
X474900D02*
X478300D01*
X472100Y504300D02*
X472200D01*
X475000D02*
X478300D01*
X472000Y504200D02*
X472100D01*
X475100D02*
X478300D01*
X471900Y504100D02*
X472000D01*
X475100D02*
X478300D01*
X475000Y504000D02*
X475100D01*
X475200D02*
X478300D01*
X475200Y503900D02*
X478300D01*
X475300Y503800D02*
X478300D01*
X475300Y503700D02*
X478300D01*
X475400Y503600D02*
X478300D01*
X475400Y503500D02*
X478300D01*
X475500Y503400D02*
X478300D01*
X475500Y503300D02*
X478300D01*
X475500Y503200D02*
X478300D01*
X475500Y503100D02*
X478300D01*
X475500Y503000D02*
X478300D01*
X475600Y502900D02*
X478300D01*
X475600Y502800D02*
X478300D01*
X475600Y502700D02*
X478300D01*
X475600Y502600D02*
X478300D01*
X475600Y502500D02*
X478300D01*
X475600Y502400D02*
X478300D01*
X475600Y502300D02*
X478300D01*
X475600Y502200D02*
X478300D01*
X475600Y502100D02*
X478300D01*
X475600Y502000D02*
X478300D01*
X475600Y501900D02*
X478300D01*
X475600Y501800D02*
X478300D01*
X475600Y501700D02*
X478300D01*
X475600Y501600D02*
X478300D01*
X475600Y501500D02*
X478300D01*
X475600Y501400D02*
X478300D01*
X475600Y501300D02*
X478300D01*
X475500Y501200D02*
X478300D01*
X475500Y501100D02*
X478300D01*
X475500Y501000D02*
X478300D01*
X475500Y500900D02*
X478300D01*
X475400Y500800D02*
X478300D01*
X475400Y500700D02*
X478300D01*
X475300Y500600D02*
X478300D01*
X475300Y500500D02*
X478300D01*
X471800Y500400D02*
X471900D01*
X475200D02*
X478300D01*
X478800D02*
X478900D01*
X475200Y500300D02*
X478300D01*
X474900Y500200D02*
X475000D01*
X475100D02*
X478300D01*
X472000Y500100D02*
X472100D01*
X474800D02*
X474900D01*
X475000D02*
X478300D01*
X472100Y500000D02*
X472200D01*
X474700D02*
X474800D01*
X474900D02*
X478300D01*
X474800Y499900D02*
X478300D01*
X474700Y499800D02*
X478300D01*
X474500Y499700D02*
X478300D01*
X474300Y499600D02*
X478300D01*
X474000Y499500D02*
X478300D01*
X478800D02*
X478900D01*
X478800Y499400D02*
X478900D01*
X475600Y498400D02*
X478300D01*
X475600Y498300D02*
X478300D01*
X475400Y498200D02*
X475500D01*
X475600D02*
X478300D01*
X475600Y498100D02*
X478300D01*
X475600Y498000D02*
X478300D01*
X475600Y497900D02*
X478300D01*
X475600Y497800D02*
X478300D01*
X475600Y497700D02*
X478300D01*
X475600Y497600D02*
X478300D01*
X471300Y497500D02*
X474000D01*
X475600D02*
X478300D01*
X471600Y497400D02*
X473700D01*
X475600D02*
X478300D01*
X472500Y497300D02*
X473000D01*
X475600D02*
X478300D01*
X471900Y497200D02*
X472000D01*
X475600D02*
X478300D01*
X478400D02*
X478500D01*
X475600Y497100D02*
X478300D01*
X475600Y497000D02*
X478300D01*
X475600Y496900D02*
X478300D01*
X475600Y496800D02*
X478200D01*
X475500Y496700D02*
X478200D01*
X475500Y496600D02*
X478200D01*
X475500Y496500D02*
X478200D01*
X475400Y496400D02*
X478200D01*
X475200Y496300D02*
X475300D01*
X475400D02*
X478100D01*
X475300Y496200D02*
X478100D01*
X475300Y496100D02*
X478100D01*
X475000Y496000D02*
X475100D01*
X475200D02*
X478100D01*
X472000Y495900D02*
X472100D01*
X474900D02*
X475000D01*
X475100D02*
X478000D01*
X472100Y495800D02*
X472200D01*
X474800D02*
X474900D01*
X475000D02*
X478000D01*
X474700Y495700D02*
X474800D01*
X474900D02*
X477900D01*
X474800Y495600D02*
X477900D01*
X474600Y495500D02*
X477800D01*
X474400Y495400D02*
X477800D01*
X473900Y495300D02*
X477700D01*
X477600Y495000D02*
X477700D01*
X476900Y494300D02*
X477000D01*
X471200Y493700D02*
X475500D01*
X471600Y493600D02*
X475200D01*
X472000Y493500D02*
X474700D01*
X472700Y493400D02*
X473800D01*
X469400Y513500D02*
X470600D01*
X469300Y513400D02*
X470400D01*
X469200Y513300D02*
X470200D01*
X469200Y513200D02*
X470100D01*
X470300D02*
X470400D01*
X469200Y513100D02*
X470100D01*
X470200D02*
X470300D01*
X469100Y513000D02*
X470000D01*
X470100D02*
X470200D01*
X469100Y512900D02*
X470000D01*
X469100Y512800D02*
X470000D01*
X469100Y512700D02*
X470000D01*
X469100Y512600D02*
X470000D01*
X469100Y512500D02*
X470000D01*
X469100Y512400D02*
X470000D01*
X470100D02*
X470200D01*
X469100Y512300D02*
X470000D01*
X469100Y512200D02*
X470100D01*
X469200Y512100D02*
X470200D01*
X470400D02*
X470500D01*
X469200Y512000D02*
X470400D01*
X469300Y511900D02*
X470600D01*
X469300Y511800D02*
X470900D01*
X468900Y510100D02*
X469700D01*
X468900Y510000D02*
X469800D01*
X468900Y509900D02*
X469800D01*
X468900Y509800D02*
X469800D01*
X468900Y509700D02*
X469800D01*
X467100Y509600D02*
X467200D01*
X469000D02*
X469800D01*
X467000Y509500D02*
X467100D01*
X469000D02*
X469900D01*
X466900Y509400D02*
X467000D01*
X469000D02*
X469900D01*
X466800Y509300D02*
X466900D01*
X469100D02*
X470000D01*
X470100D02*
X470200D01*
X466700Y509200D02*
X466800D01*
X469100D02*
X470100D01*
X470200D02*
X470300D01*
X466600Y509100D02*
X466700D01*
X469100D02*
X470200D01*
X469200Y509000D02*
X470300D01*
X469300Y508900D02*
X470500D01*
X469300Y508800D02*
X470800D01*
X470000Y506200D02*
X470100D01*
X469500Y505700D02*
X469600D01*
X468800Y504600D02*
X468900D01*
X467100Y501800D02*
X467200D01*
X467000Y501700D02*
X467100D01*
X466900Y501600D02*
X467000D01*
X466800Y501500D02*
X466900D01*
X466700Y501400D02*
X466800D01*
X469900Y498100D02*
X470000D01*
X469500Y494600D02*
X469600D01*
Y494500D02*
X469700D01*
X467100Y494000D02*
X467200D01*
X467000Y493900D02*
X467100D01*
X466900Y493800D02*
X467000D01*
X470600D02*
X470700D01*
X466800Y493700D02*
X466900D01*
X466700Y493600D02*
X466800D01*
X458100Y515700D02*
X458900D01*
X458200Y515600D02*
X459000D01*
X458300Y515500D02*
X459100D01*
X458400Y515400D02*
X459100D01*
X458500Y515300D02*
X459100D01*
X458500Y515200D02*
X459100D01*
X458500Y515100D02*
X459100D01*
X458500Y515000D02*
X459100D01*
X458500Y514900D02*
X459100D01*
X458500Y514800D02*
X459100D01*
X458500Y514700D02*
X459100D01*
X458500Y514600D02*
X459100D01*
X458500Y514400D02*
X459100D01*
X458500Y514300D02*
X459100D01*
X458500Y514200D02*
X459100D01*
X458500Y514100D02*
X459100D01*
X458500Y514000D02*
X459100D01*
X458500Y513900D02*
X459100D01*
X458500Y513800D02*
X459100D01*
X458500Y513700D02*
X459100D01*
X458500Y513600D02*
X459100D01*
X458500Y513500D02*
X459100D01*
X458500Y513400D02*
X459100D01*
X458500Y513300D02*
X459100D01*
X458500Y513200D02*
X459100D01*
X458500Y513100D02*
X459100D01*
X458500Y513000D02*
X459100D01*
X458500Y512900D02*
X459100D01*
X458500Y512800D02*
X459100D01*
X458500Y512700D02*
X459100D01*
X458500Y512600D02*
X459100D01*
X458500Y512500D02*
X459100D01*
X458500Y512400D02*
X459100D01*
X458500Y512300D02*
X459100D01*
X458500Y512200D02*
X459100D01*
X458500Y512100D02*
X459100D01*
X458500Y512000D02*
X459100D01*
X458500Y511900D02*
X459100D01*
X458500Y511800D02*
X459100D01*
X458500Y511700D02*
X459100D01*
X458500Y511600D02*
X459100D01*
X458500Y511500D02*
X459100D01*
X458500Y511400D02*
X459100D01*
X458500Y511300D02*
X459100D01*
X458500Y511200D02*
X459100D01*
X458500Y511100D02*
X459100D01*
X458500Y511000D02*
X459100D01*
X458500Y510900D02*
X459100D01*
X458500Y510800D02*
X459100D01*
X458500Y510700D02*
X459100D01*
X458500Y510600D02*
X459100D01*
X458500Y510500D02*
X459100D01*
X458500Y510400D02*
X459100D01*
X458500Y510300D02*
X459100D01*
X458500Y510200D02*
X459100D01*
X458500Y510100D02*
X459100D01*
X458500Y510000D02*
X459100D01*
X458400Y509900D02*
X459100D01*
X458300Y509800D02*
X459100D01*
X458200Y509700D02*
X459000D01*
X455100Y509600D02*
X455200D01*
X458100D02*
X458900D01*
X459800D02*
X459900D01*
Y509500D02*
X460000D01*
Y509400D02*
X460100D01*
Y509300D02*
X460200D01*
Y509200D02*
X460300D01*
Y509100D02*
X460400D01*
X458400Y508000D02*
X458500D01*
X458600D02*
X458800D01*
X457400Y507900D02*
X458200D01*
X458300D02*
X458400D01*
X458500D02*
X458900D01*
X457300Y507800D02*
X458100D01*
X458200D02*
X458300D01*
X458400D02*
X459000D01*
X457200Y507700D02*
X458000D01*
X458100D02*
X458200D01*
X458300D02*
X459100D01*
X457100Y507600D02*
X457900D01*
X458000D02*
X458100D01*
X458200D02*
X459200D01*
X457000Y507500D02*
X457800D01*
X457900D02*
X458000D01*
X458100D02*
X459200D01*
X456900Y507400D02*
X457700D01*
X457800D02*
X457900D01*
X458000D02*
X459200D01*
X456800Y507300D02*
X457600D01*
X457700D02*
X457800D01*
X457900D02*
X459200D01*
X456700Y507200D02*
X457500D01*
X457600D02*
X457700D01*
X457800D02*
X459200D01*
X456600Y507100D02*
X457400D01*
X457500D02*
X457600D01*
X457700D02*
X459200D01*
X456500Y507000D02*
X457300D01*
X457400D02*
X457500D01*
X457600D02*
X459200D01*
X456400Y506900D02*
X457200D01*
X457300D02*
X457400D01*
X457500D02*
X459200D01*
X456300Y506800D02*
X457100D01*
X457200D02*
X457300D01*
X457400D02*
X459200D01*
X456200Y506700D02*
X457000D01*
X457100D02*
X457200D01*
X457300D02*
X459200D01*
X456100Y506600D02*
X456900D01*
X457000D02*
X457100D01*
X457200D02*
X459200D01*
X455900Y506400D02*
X456700D01*
X456800D02*
X456900D01*
X457000D02*
X459200D01*
X455800Y506300D02*
X456600D01*
X456700D02*
X456800D01*
X456900D02*
X459200D01*
X455700Y506200D02*
X456500D01*
X456600D02*
X456700D01*
X456800D02*
X459200D01*
X455600Y506100D02*
X456400D01*
X456500D02*
X456600D01*
X456700D02*
X459200D01*
X455500Y506000D02*
X456300D01*
X456400D02*
X456500D01*
X456600D02*
X459200D01*
X455400Y505900D02*
X456200D01*
X456300D02*
X456400D01*
X456500D02*
X459200D01*
X455300Y505800D02*
X456100D01*
X456200D02*
X456300D01*
X456400D02*
X459200D01*
X455200Y505700D02*
X456000D01*
X456100D02*
X456200D01*
X456300D02*
X459200D01*
X455100Y505600D02*
X455900D01*
X456000D02*
X456100D01*
X456200D02*
X459200D01*
X455900Y505500D02*
X456000D01*
X456100D02*
X459200D01*
X455800Y505400D02*
X455900D01*
X456000D02*
X459200D01*
X455700Y505300D02*
X455800D01*
X455900D02*
X459200D01*
X455600Y505200D02*
X455700D01*
X455800D02*
X459200D01*
X455500Y505100D02*
X455600D01*
X455700D02*
X459200D01*
X455400Y505000D02*
X455500D01*
X455600D02*
X459200D01*
X455300Y504900D02*
X455400D01*
X455500D02*
X459200D01*
X455200Y504800D02*
X455300D01*
X455400D02*
X459200D01*
X455100Y504700D02*
X455200D01*
X455300D02*
X459200D01*
X455200Y504600D02*
X459200D01*
X455100Y504500D02*
X459200D01*
X459000Y501800D02*
X459100D01*
X459800D02*
X459900D01*
X458900Y501700D02*
X459000D01*
X459900D02*
X460000D01*
X458800Y501600D02*
X458900D01*
X460000D02*
X460100D01*
X458700Y501500D02*
X458800D01*
X460100D02*
X460200D01*
X458600Y501400D02*
X458700D01*
X460200D02*
X460300D01*
X459800Y494000D02*
X459900D01*
Y493900D02*
X460000D01*
Y493800D02*
X460100D01*
Y493700D02*
X460200D01*
Y493600D02*
X460300D01*
X450400Y516200D02*
X450500D01*
X452100D02*
X452200D01*
X450500Y516100D02*
X450600D01*
X452000D02*
X452100D01*
X450600Y516000D02*
X450700D01*
X451900D02*
X452000D01*
X450700Y515900D02*
X450800D01*
X451800D02*
X451900D01*
X450800Y515800D02*
X450900D01*
X451700D02*
X451800D01*
X450000Y515700D02*
X450800D01*
X451800D02*
X452600D01*
X450100Y515600D02*
X450900D01*
X451700D02*
X452500D01*
X450200Y515500D02*
X451000D01*
X451700D02*
X452400D01*
X450300Y515400D02*
X451000D01*
X451600D02*
X452300D01*
X450400Y515300D02*
X451000D01*
X451600D02*
X452200D01*
X450400Y515200D02*
X451000D01*
X451600D02*
X452200D01*
X450400Y515100D02*
X451000D01*
X451600D02*
X452200D01*
X450400Y515000D02*
X451000D01*
X451600D02*
X452200D01*
X450400Y514900D02*
X451000D01*
X451600D02*
X452200D01*
X450400Y514800D02*
X451000D01*
X451600D02*
X452200D01*
X450400Y514700D02*
X451000D01*
X451600D02*
X452200D01*
X450400Y514600D02*
X451000D01*
X451600D02*
X452200D01*
X450400Y514400D02*
X451000D01*
X451600D02*
X452200D01*
X450400Y514300D02*
X451000D01*
X451600D02*
X452200D01*
X450400Y514200D02*
X451000D01*
X451600D02*
X452200D01*
X450400Y514100D02*
X451000D01*
X451600D02*
X452200D01*
X450400Y514000D02*
X451000D01*
X451600D02*
X452200D01*
X450400Y513900D02*
X451000D01*
X451600D02*
X452200D01*
X450400Y513800D02*
X451000D01*
X451600D02*
X452200D01*
X450400Y513700D02*
X451000D01*
X451600D02*
X452200D01*
X450400Y513600D02*
X451000D01*
X451600D02*
X452200D01*
X450400Y513500D02*
X451000D01*
X451600D02*
X452200D01*
X450400Y513400D02*
X451000D01*
X451600D02*
X452200D01*
X450400Y513300D02*
X451000D01*
X451600D02*
X452200D01*
X450400Y513200D02*
X451000D01*
X451600D02*
X452200D01*
X450400Y513100D02*
X451000D01*
X451600D02*
X452200D01*
X450400Y513000D02*
X451000D01*
X451600D02*
X452200D01*
X450400Y512900D02*
X451000D01*
X451600D02*
X452200D01*
X450400Y512800D02*
X451000D01*
X451600D02*
X452200D01*
X450400Y512700D02*
X451000D01*
X451600D02*
X452200D01*
X450400Y512600D02*
X451000D01*
X451600D02*
X452200D01*
X450400Y512500D02*
X451000D01*
X451600D02*
X452200D01*
X450400Y512400D02*
X451000D01*
X451600D02*
X452200D01*
X450400Y512300D02*
X451000D01*
X451600D02*
X452200D01*
X450400Y512200D02*
X451000D01*
X451600D02*
X452200D01*
X450400Y512100D02*
X451000D01*
X451600D02*
X452200D01*
X450400Y512000D02*
X451000D01*
X451600D02*
X452200D01*
X450400Y511900D02*
X451000D01*
X451600D02*
X452200D01*
X450400Y511800D02*
X451000D01*
X451600D02*
X452200D01*
X450400Y511700D02*
X451000D01*
X451600D02*
X452200D01*
X450400Y511600D02*
X451000D01*
X451600D02*
X452200D01*
X450400Y511500D02*
X451000D01*
X451600D02*
X452200D01*
X450400Y511400D02*
X451000D01*
X451600D02*
X452200D01*
X450400Y511300D02*
X451000D01*
X451600D02*
X452200D01*
X450400Y511200D02*
X451000D01*
X451600D02*
X452200D01*
X450400Y511100D02*
X451000D01*
X451600D02*
X452200D01*
X450400Y511000D02*
X451000D01*
X451600D02*
X452200D01*
X450400Y510900D02*
X451000D01*
X451600D02*
X452200D01*
X450400Y510800D02*
X451000D01*
X451600D02*
X452200D01*
X450400Y510700D02*
X451000D01*
X451600D02*
X452200D01*
X450400Y510600D02*
X451000D01*
X451600D02*
X452200D01*
X450400Y510500D02*
X451000D01*
X451600D02*
X452200D01*
X450400Y510400D02*
X451000D01*
X451600D02*
X452200D01*
X450400Y510300D02*
X451000D01*
X451600D02*
X452200D01*
X450400Y510200D02*
X451000D01*
X451600D02*
X452200D01*
X450400Y510100D02*
X451000D01*
X451600D02*
X452200D01*
X450300Y510000D02*
X451000D01*
X451600D02*
X452300D01*
X450200Y509900D02*
X451000D01*
X451600D02*
X452400D01*
X450100Y509800D02*
X450900D01*
X451700D02*
X452500D01*
X450000Y509700D02*
X450800D01*
X451800D02*
X452600D01*
X449800Y509600D02*
X450700D01*
X451700D02*
X451800D01*
X451900D02*
X452700D01*
X451800Y509500D02*
X451900D01*
X452000Y509300D02*
X452100D01*
X450400Y508400D02*
X450500D01*
Y508300D02*
X450600D01*
Y508200D02*
X450700D01*
Y508100D02*
X450800D01*
Y508000D02*
X450900D01*
X450000Y507900D02*
X450800D01*
X451900D02*
X452700D01*
X450100Y507800D02*
X450900D01*
X451800D02*
X452600D01*
X450200Y507700D02*
X451000D01*
X451700D02*
X452500D01*
X450300Y507600D02*
X451000D01*
X451700D02*
X452400D01*
X450400Y507500D02*
X451000D01*
X451700D02*
X452300D01*
X450400Y507400D02*
X451000D01*
X451700D02*
X452300D01*
X450400Y507300D02*
X451000D01*
X451700D02*
X452300D01*
X450400Y507200D02*
X451000D01*
X451700D02*
X452300D01*
X450400Y507100D02*
X451000D01*
X451700D02*
X452300D01*
X450400Y507000D02*
X451000D01*
X451700D02*
X452300D01*
X450400Y506900D02*
X451000D01*
X451700D02*
X452300D01*
X450400Y506800D02*
X451000D01*
X451700D02*
X452300D01*
X450400Y506700D02*
X451000D01*
X451700D02*
X452300D01*
X450400Y506600D02*
X451000D01*
X451700D02*
X452300D01*
X450400Y506400D02*
X451000D01*
X451700D02*
X452300D01*
X450400Y506300D02*
X451000D01*
X451700D02*
X452300D01*
X450400Y506200D02*
X451000D01*
X451700D02*
X452300D01*
X450400Y506100D02*
X451000D01*
X451700D02*
X452300D01*
X450400Y506000D02*
X451000D01*
X451700D02*
X452300D01*
X450400Y505900D02*
X451000D01*
X451700D02*
X452300D01*
X450400Y505800D02*
X451000D01*
X451700D02*
X452300D01*
X450400Y505700D02*
X451000D01*
X451700D02*
X452300D01*
X450400Y505600D02*
X451000D01*
X451700D02*
X452300D01*
X450400Y505500D02*
X451000D01*
X451700D02*
X452300D01*
X450400Y505400D02*
X451000D01*
X451700D02*
X452300D01*
X450400Y505300D02*
X451000D01*
X451700D02*
X452300D01*
X450400Y505200D02*
X451000D01*
X451700D02*
X452300D01*
X450400Y505100D02*
X451000D01*
X451700D02*
X452300D01*
X450400Y505000D02*
X451000D01*
X451700D02*
X452300D01*
X450400Y504900D02*
X451000D01*
X451700D02*
X452300D01*
X450400Y504800D02*
X451000D01*
X451700D02*
X452300D01*
X450400Y504700D02*
X451000D01*
X451700D02*
X452300D01*
X450400Y504600D02*
X451000D01*
X451700D02*
X452300D01*
X454100D02*
X454900D01*
X450400Y504500D02*
X451000D01*
X451700D02*
X452300D01*
X454000D02*
X454800D01*
X450400Y504400D02*
X451000D01*
X451700D02*
X452300D01*
X453900D02*
X454700D01*
X454800D02*
X454900D01*
X450400Y504300D02*
X451000D01*
X451700D02*
X452300D01*
X453800D02*
X454600D01*
X454700D02*
X454800D01*
X450400Y504200D02*
X451000D01*
X451700D02*
X452300D01*
X453700D02*
X454500D01*
X454600D02*
X454700D01*
X450400Y504100D02*
X451000D01*
X451700D02*
X452300D01*
X453600D02*
X454400D01*
X454500D02*
X454600D01*
X450400Y504000D02*
X451000D01*
X451700D02*
X452300D01*
X453500D02*
X454300D01*
X454400D02*
X454500D01*
X450400Y503900D02*
X451000D01*
X451700D02*
X452300D01*
X453400D02*
X454200D01*
X454300D02*
X454400D01*
X450400Y503800D02*
X451000D01*
X451700D02*
X452300D01*
X453300D02*
X454100D01*
X454200D02*
X454300D01*
X450400Y503700D02*
X451000D01*
X451700D02*
X452300D01*
X453200D02*
X454000D01*
X454100D02*
X454200D01*
X450400Y503600D02*
X451000D01*
X451700D02*
X452300D01*
X453100D02*
X453900D01*
X450400Y503500D02*
X451000D01*
X451700D02*
X452300D01*
X453000D02*
X453800D01*
X450500Y503400D02*
X451000D01*
X451700D02*
X452300D01*
X452900D02*
X453700D01*
X450400Y503300D02*
X451000D01*
X451700D02*
X452300D01*
X452800D02*
X453600D01*
X450400Y503200D02*
X451000D01*
X451700D02*
X452300D01*
X452700D02*
X453500D01*
X450400Y503100D02*
X451000D01*
X451700D02*
X452300D01*
X452600D02*
X453400D01*
X450400Y503000D02*
X451000D01*
X451700D02*
X452300D01*
X452500D02*
X453300D01*
X450400Y502900D02*
X451000D01*
X451700D02*
X452300D01*
X452400D02*
X453200D01*
X450400Y502800D02*
X451000D01*
X451700D02*
X453100D01*
X450400Y502700D02*
X451000D01*
X451700D02*
X453000D01*
X450400Y502600D02*
X451000D01*
X451700D02*
X452900D01*
X450400Y502500D02*
X451000D01*
X451700D02*
X452800D01*
X450400Y502400D02*
X451000D01*
X451700D02*
X452700D01*
X450400Y502300D02*
X451000D01*
X451700D02*
X452600D01*
X450300Y502200D02*
X451000D01*
X451700D02*
X452500D01*
X450200Y502100D02*
X451000D01*
X451700D02*
X452400D01*
X450100Y502000D02*
X450900D01*
X451700D02*
X452300D01*
X450000Y501900D02*
X450800D01*
X451800D02*
X452200D01*
X451900Y501800D02*
X452100D01*
X452200Y501300D02*
X452300D01*
X450400Y500600D02*
X450500D01*
X452100D02*
X452200D01*
X450500Y500500D02*
X450600D01*
X452000D02*
X452100D01*
X450600Y500400D02*
X450700D01*
X451900D02*
X452000D01*
X450700Y500300D02*
X450800D01*
Y500200D02*
X450900D01*
X451700D02*
X451800D01*
X451700Y494000D02*
X451800D01*
X451900Y493800D02*
X452000D01*
X452100Y493600D02*
X452200D01*
X444000Y516200D02*
X444100D01*
X443900Y516100D02*
X444000D01*
X443700Y515900D02*
X443800D01*
X443600Y515800D02*
X443700D01*
Y515700D02*
X444500D01*
X443600Y515600D02*
X444400D01*
X443500Y515500D02*
X444300D01*
X443500Y515400D02*
X444200D01*
X443500Y515300D02*
X444100D01*
X443500Y515200D02*
X444100D01*
X443500Y515100D02*
X444100D01*
X443500Y515000D02*
X444100D01*
X443500Y514900D02*
X444100D01*
X443500Y514800D02*
X444100D01*
X443500Y514700D02*
X444100D01*
X443500Y514600D02*
X444100D01*
X443500Y514400D02*
X444100D01*
X443500Y514300D02*
X444100D01*
X443500Y514200D02*
X444100D01*
X443500Y514100D02*
X444100D01*
X443500Y514000D02*
X444100D01*
X443500Y513900D02*
X444100D01*
X443500Y513800D02*
X444100D01*
X443500Y513700D02*
X444100D01*
X443500Y513600D02*
X444100D01*
X443500Y513500D02*
X444100D01*
X443500Y513400D02*
X444100D01*
X443500Y513300D02*
X444100D01*
X443500Y513200D02*
X444100D01*
X443500Y513100D02*
X444100D01*
X443500Y513000D02*
X444100D01*
X443500Y512900D02*
X444100D01*
X443500Y512800D02*
X444100D01*
X443500Y512700D02*
X444100D01*
X443500Y512600D02*
X444100D01*
X443500Y512500D02*
X444100D01*
X443500Y512400D02*
X444100D01*
X443500Y512300D02*
X444100D01*
X443500Y512200D02*
X444100D01*
X443500Y512100D02*
X444100D01*
X443500Y512000D02*
X444100D01*
X443500Y511900D02*
X444100D01*
X443500Y511800D02*
X444100D01*
X443500Y511700D02*
X444100D01*
X443500Y511600D02*
X444100D01*
X443500Y511500D02*
X444100D01*
X443500Y511400D02*
X444100D01*
X443500Y511300D02*
X444100D01*
X443500Y511200D02*
X444100D01*
X443500Y511100D02*
X444100D01*
X443500Y511000D02*
X444100D01*
X443500Y510900D02*
X444100D01*
X443500Y510800D02*
X444100D01*
X443500Y510700D02*
X444100D01*
X443500Y510600D02*
X444100D01*
X443500Y510500D02*
X444100D01*
X443500Y510400D02*
X444100D01*
X443500Y510300D02*
X444100D01*
X443500Y510200D02*
X444100D01*
X443500Y510100D02*
X444100D01*
X443500Y510000D02*
X444200D01*
X443500Y509900D02*
X444300D01*
X443600Y509800D02*
X444400D01*
X443700Y509700D02*
X444500D01*
X443800Y509600D02*
X444600D01*
X443900Y508300D02*
X444000D01*
X443800Y508200D02*
X443900D01*
X443700Y508100D02*
X443800D01*
X443600Y508000D02*
X443700D01*
Y507900D02*
X444500D01*
X443600Y507800D02*
X444400D01*
X443500Y507700D02*
X444300D01*
X443500Y507600D02*
X444200D01*
X443500Y507500D02*
X444100D01*
X443500Y507400D02*
X444100D01*
X443500Y507300D02*
X444100D01*
X443500Y507200D02*
X444100D01*
X443500Y507100D02*
X444100D01*
X443500Y507000D02*
X444100D01*
X443500Y506900D02*
X444100D01*
X443500Y506800D02*
X444100D01*
X443500Y506700D02*
X444100D01*
X443500Y506600D02*
X444100D01*
X443500Y506400D02*
X444100D01*
X443500Y506300D02*
X444100D01*
X443500Y506200D02*
X444100D01*
X443500Y506100D02*
X444100D01*
X443500Y506000D02*
X444100D01*
X443500Y505900D02*
X444100D01*
X443500Y505800D02*
X444100D01*
X443500Y505700D02*
X444100D01*
X443500Y505600D02*
X444100D01*
X443500Y505500D02*
X444100D01*
X443500Y505400D02*
X444100D01*
X443500Y505300D02*
X444100D01*
X443500Y505200D02*
X444100D01*
X443500Y505100D02*
X444100D01*
X443500Y505000D02*
X444100D01*
X443500Y504900D02*
X444100D01*
X443500Y504800D02*
X444100D01*
X443500Y504700D02*
X444100D01*
X443500Y504600D02*
X444100D01*
X443500Y504500D02*
X444100D01*
X443500Y504400D02*
X444100D01*
X443500Y504300D02*
X444100D01*
X443500Y504200D02*
X444100D01*
X443500Y504100D02*
X444100D01*
X443500Y504000D02*
X444100D01*
X443500Y503900D02*
X444100D01*
X443500Y503800D02*
X444100D01*
X443500Y503700D02*
X444100D01*
X443500Y503600D02*
X444100D01*
X443500Y503500D02*
X444100D01*
X443500Y503400D02*
X444100D01*
X443500Y503300D02*
X444100D01*
X443500Y503200D02*
X444100D01*
X443500Y503100D02*
X444100D01*
X443500Y503000D02*
X444100D01*
X443500Y502900D02*
X444100D01*
X443500Y502800D02*
X444100D01*
X443500Y502700D02*
X444100D01*
X443500Y502600D02*
X444100D01*
X443500Y502500D02*
X444100D01*
X443500Y502400D02*
X444100D01*
X443500Y502300D02*
X444100D01*
X443500Y502200D02*
X444200D01*
X443500Y502100D02*
X444300D01*
X443600Y502000D02*
X444400D01*
X443700Y501900D02*
X444500D01*
X444000Y500600D02*
X444100D01*
X443900Y500500D02*
X444000D01*
X443800Y500400D02*
X443900D01*
X443600Y500200D02*
X443700D01*
D16*
X509300Y497600D02*
X509700D01*
X476900D02*
X477300D01*
D17*
X74008Y75004D02*
Y125004D01*
X99992D01*
Y75004D02*
Y125004D01*
X74008Y75004D02*
X99992D01*
X238378Y114764D02*
Y123622D01*
Y114764D02*
Y123622D01*
X285622D01*
X238378D02*
X285622D01*
Y115748D02*
Y123622D01*
Y115748D02*
Y123622D01*
Y95079D02*
Y104921D01*
Y95079D02*
Y104921D01*
Y76378D02*
Y85236D01*
Y76378D02*
Y85236D01*
X238378Y76378D02*
X285622D01*
X238378D02*
X285622D01*
X238378D02*
Y84252D01*
Y76378D02*
Y84252D01*
Y94094D02*
Y104921D01*
Y94094D02*
Y104921D01*
X154008Y75004D02*
Y125004D01*
X179992D01*
Y75004D02*
Y125004D01*
X154008Y75004D02*
X179992D01*
X344008D02*
Y125004D01*
X369992D01*
Y75004D02*
Y125004D01*
X344008Y75004D02*
X369992D01*
X435008Y224504D02*
Y274504D01*
X460992D01*
Y224504D02*
Y274504D01*
X435008Y224504D02*
X460992D01*
X34878Y336764D02*
Y345622D01*
Y336764D02*
Y345622D01*
X82122D01*
X34878D02*
X82122D01*
Y337748D02*
Y345622D01*
Y337748D02*
Y345622D01*
Y317079D02*
Y326921D01*
Y317079D02*
Y326921D01*
Y298378D02*
Y307236D01*
Y298378D02*
Y307236D01*
X34878Y298378D02*
X82122D01*
X34878D02*
X82122D01*
X34878D02*
Y306252D01*
Y298378D02*
Y306252D01*
Y316094D02*
Y326921D01*
Y316094D02*
Y326921D01*
X435008Y325504D02*
X460992D01*
Y375504D01*
X435008D02*
X460992D01*
X435008Y325504D02*
Y375504D01*
X-15622Y140094D02*
Y150921D01*
Y140094D02*
Y150921D01*
Y122378D02*
Y130252D01*
Y122378D02*
Y130252D01*
Y122378D02*
X31622D01*
X-15622D02*
X31622D01*
Y131236D01*
Y122378D02*
Y131236D01*
Y141079D02*
Y150921D01*
Y141079D02*
Y150921D01*
Y161748D02*
Y169622D01*
Y161748D02*
Y169622D01*
X-15622D02*
X31622D01*
X-15622D02*
X31622D01*
X-15622Y160764D02*
Y169622D01*
Y160764D02*
Y169622D01*
X516378Y298094D02*
Y308921D01*
Y298094D02*
Y308921D01*
Y280378D02*
Y288252D01*
Y280378D02*
Y288252D01*
Y280378D02*
X563622D01*
X516378D02*
X563622D01*
Y289236D01*
Y280378D02*
Y289236D01*
Y299079D02*
Y308921D01*
Y299079D02*
Y308921D01*
Y319748D02*
Y327622D01*
Y319748D02*
Y327622D01*
X516378D02*
X563622D01*
X516378D02*
X563622D01*
X516378Y318764D02*
Y327622D01*
Y318764D02*
Y327622D01*
X489878Y130594D02*
Y141421D01*
Y130594D02*
Y141421D01*
Y112878D02*
Y120752D01*
Y112878D02*
Y120752D01*
Y112878D02*
X537122D01*
X489878D02*
X537122D01*
Y121736D01*
Y112878D02*
Y121736D01*
Y131579D02*
Y141421D01*
Y131579D02*
Y141421D01*
Y152248D02*
Y160122D01*
Y152248D02*
Y160122D01*
X489878D02*
X537122D01*
X489878D02*
X537122D01*
X489878Y151264D02*
Y160122D01*
Y151264D02*
Y160122D01*
X-42622Y294764D02*
Y303622D01*
Y294764D02*
Y303622D01*
X4622D01*
X-42622D02*
X4622D01*
Y295748D02*
Y303622D01*
Y295748D02*
Y303622D01*
Y275079D02*
Y284921D01*
Y275079D02*
Y284921D01*
Y256378D02*
Y265236D01*
Y256378D02*
Y265236D01*
X-42622Y256378D02*
X4622D01*
X-42622D02*
X4622D01*
X-42622D02*
Y264252D01*
Y256378D02*
Y264252D01*
Y274094D02*
Y284921D01*
Y274094D02*
Y284921D01*
Y378764D02*
Y387622D01*
Y378764D02*
Y387622D01*
X4622D01*
X-42622D02*
X4622D01*
Y379748D02*
Y387622D01*
Y379748D02*
Y387622D01*
Y359079D02*
Y368921D01*
Y359079D02*
Y368921D01*
Y340378D02*
Y349236D01*
Y340378D02*
Y349236D01*
X-42622Y340378D02*
X4622D01*
X-42622D02*
X4622D01*
X-42622D02*
Y348252D01*
Y340378D02*
Y348252D01*
Y358094D02*
Y368921D01*
Y358094D02*
Y368921D01*
X424008Y75004D02*
Y125004D01*
X449992D01*
Y75004D02*
Y125004D01*
X424008Y75004D02*
X449992D01*
D18*
X247000Y144498D02*
Y138500D01*
X250999D01*
X253998Y142499D02*
X255997D01*
X256997Y141499D01*
Y138500D01*
X253998D01*
X252998Y139500D01*
X253998Y140499D01*
X256997D01*
X259996Y143498D02*
Y142499D01*
X258996D01*
X260996D01*
X259996D01*
Y139500D01*
X260996Y138500D01*
X267993Y142499D02*
X264994D01*
X263995Y141499D01*
Y139500D01*
X264994Y138500D01*
X267993D01*
X269993Y144498D02*
Y138500D01*
Y141499D01*
X270992Y142499D01*
X272992D01*
X273991Y141499D01*
Y138500D01*
X569995Y224996D02*
Y230994D01*
X572994D01*
X573994Y229995D01*
Y227995D01*
X572994Y226996D01*
X569995D01*
X571995D02*
X573994Y224996D01*
X575993D02*
X577993D01*
X576993D01*
Y228995D01*
X575993D01*
X582991Y222997D02*
X583991D01*
X584991Y223997D01*
Y228995D01*
X581991D01*
X580992Y227995D01*
Y225996D01*
X581991Y224996D01*
X584991D01*
X586990Y230994D02*
Y224996D01*
Y227995D01*
X587990Y228995D01*
X589989D01*
X590988Y227995D01*
Y224996D01*
X593988Y229995D02*
Y228995D01*
X592988D01*
X594987D01*
X593988D01*
Y225996D01*
X594987Y224996D01*
X570995Y215998D02*
X569995Y216997D01*
X567996D01*
X566996Y215998D01*
Y214998D01*
X567996Y213998D01*
X569995D01*
X570995Y212999D01*
Y211999D01*
X569995Y210999D01*
X567996D01*
X566996Y211999D01*
X572994Y210999D02*
X574994D01*
X573994D01*
Y214998D01*
X572994D01*
X579992Y209000D02*
X580992D01*
X581991Y210000D01*
Y214998D01*
X578992D01*
X577993Y213998D01*
Y211999D01*
X578992Y210999D01*
X581991D01*
X583991D02*
Y214998D01*
X586990D01*
X587990Y213998D01*
Y210999D01*
X590988Y214998D02*
X592988D01*
X593988Y213998D01*
Y210999D01*
X590988D01*
X589989Y211999D01*
X590988Y212999D01*
X593988D01*
X595987Y210999D02*
X597986D01*
X596987D01*
Y216997D01*
X595987D01*
X429000Y385000D02*
Y390998D01*
X431999D01*
X432999Y389998D01*
Y387999D01*
X431999Y386999D01*
X429000D01*
X430999D02*
X432999Y385000D01*
X437997D02*
X435998D01*
X434998Y386000D01*
Y387999D01*
X435998Y388999D01*
X437997D01*
X438997Y387999D01*
Y386999D01*
X434998D01*
X440996Y388999D02*
X442996Y385000D01*
X444995Y388999D01*
X449993Y385000D02*
X447994D01*
X446994Y386000D01*
Y387999D01*
X447994Y388999D01*
X449993D01*
X450993Y387999D01*
Y386999D01*
X446994D01*
X452992Y388999D02*
Y385000D01*
Y386999D01*
X453992Y387999D01*
X454992Y388999D01*
X455991D01*
X458990Y385000D02*
X461989D01*
X462989Y386000D01*
X461989Y386999D01*
X459990D01*
X458990Y387999D01*
X459990Y388999D01*
X462989D01*
X467987Y385000D02*
X465988D01*
X464988Y386000D01*
Y387999D01*
X465988Y388999D01*
X467987D01*
X468987Y387999D01*
Y386999D01*
X464988D01*
X498000Y348499D02*
Y354497D01*
X500999D01*
X501999Y353498D01*
Y351498D01*
X500999Y350499D01*
X498000D01*
X499999D02*
X501999Y348499D01*
X506997D02*
X504998D01*
X503998Y349499D01*
Y351498D01*
X504998Y352498D01*
X506997D01*
X507997Y351498D01*
Y350499D01*
X503998D01*
X511996Y346500D02*
X512995D01*
X513995Y347500D01*
Y352498D01*
X510996D01*
X509996Y351498D01*
Y349499D01*
X510996Y348499D01*
X513995D01*
X518993D02*
X516994D01*
X515994Y349499D01*
Y351498D01*
X516994Y352498D01*
X518993D01*
X519993Y351498D01*
Y350499D01*
X515994D01*
X521992Y348499D02*
Y352498D01*
X524991D01*
X525991Y351498D01*
Y348499D01*
X533988Y354497D02*
Y348499D01*
X536987D01*
X537987Y349499D01*
Y350499D01*
X536987Y351498D01*
X533988D01*
X536987D01*
X537987Y352498D01*
Y353498D01*
X536987Y354497D01*
X533988D01*
X539986Y352498D02*
Y348499D01*
Y350499D01*
X540986Y351498D01*
X541986Y352498D01*
X542985D01*
X546984D02*
X548983D01*
X549983Y351498D01*
Y348499D01*
X546984D01*
X545985Y349499D01*
X546984Y350499D01*
X549983D01*
X551982Y348499D02*
Y354497D01*
Y350499D02*
X554982Y352498D01*
X551982Y350499D02*
X554982Y348499D01*
X557981D02*
X559980D01*
X558980D01*
Y352498D01*
X557981D01*
X562979Y348499D02*
Y352498D01*
X565978D01*
X566978Y351498D01*
Y348499D01*
X570976Y346500D02*
X571976D01*
X572976Y347500D01*
Y352498D01*
X569977D01*
X568977Y351498D01*
Y349499D01*
X569977Y348499D01*
X572976D01*
X-2500Y183998D02*
Y178000D01*
Y180999D01*
X1499D01*
Y183998D01*
Y178000D01*
X4498D02*
X6497D01*
X7497Y179000D01*
Y180999D01*
X6497Y181999D01*
X4498D01*
X3498Y180999D01*
Y179000D01*
X4498Y178000D01*
X9496Y181999D02*
Y178000D01*
Y179999D01*
X10496Y180999D01*
X11496Y181999D01*
X12495D01*
X15494Y178000D02*
Y181999D01*
X18493D01*
X19493Y180999D01*
Y178000D01*
X153000Y137000D02*
Y142998D01*
X155999D01*
X156999Y141998D01*
Y139999D01*
X155999Y138999D01*
X153000D01*
X159998Y137000D02*
X161997D01*
X162997Y138000D01*
Y139999D01*
X161997Y140999D01*
X159998D01*
X158998Y139999D01*
Y138000D01*
X159998Y137000D01*
X164996Y140999D02*
Y138000D01*
X165996Y137000D01*
X166996Y138000D01*
X167995Y137000D01*
X168995Y138000D01*
Y140999D01*
X173993Y137000D02*
X171994D01*
X170994Y138000D01*
Y139999D01*
X171994Y140999D01*
X173993D01*
X174993Y139999D01*
Y138999D01*
X170994D01*
X176992Y140999D02*
Y137000D01*
Y138999D01*
X177992Y139999D01*
X178992Y140999D01*
X179991D01*
X343496Y146998D02*
Y152996D01*
X345496Y150996D01*
X347495Y152996D01*
Y146998D01*
X350494D02*
X352493D01*
X353493Y147997D01*
Y149997D01*
X352493Y150996D01*
X350494D01*
X349494Y149997D01*
Y147997D01*
X350494Y146998D01*
X356492Y151996D02*
Y150996D01*
X355492D01*
X357492D01*
X356492D01*
Y147997D01*
X357492Y146998D01*
X361490D02*
X363490D01*
X364489Y147997D01*
Y149997D01*
X363490Y150996D01*
X361490D01*
X360491Y149997D01*
Y147997D01*
X361490Y146998D01*
X366489Y150996D02*
Y146998D01*
Y148997D01*
X367488Y149997D01*
X368488Y150996D01*
X369488D01*
X335499Y139998D02*
X334499Y140998D01*
X332500D01*
X331500Y139998D01*
Y136000D01*
X332500Y135000D01*
X334499D01*
X335499Y136000D01*
X338498Y135000D02*
X340497D01*
X341497Y136000D01*
Y137999D01*
X340497Y138999D01*
X338498D01*
X337498Y137999D01*
Y136000D01*
X338498Y135000D01*
X343496D02*
Y138999D01*
X346495D01*
X347495Y137999D01*
Y135000D01*
X350494Y139998D02*
Y138999D01*
X349494D01*
X351494D01*
X350494D01*
Y136000D01*
X351494Y135000D01*
X354493Y138999D02*
Y135000D01*
Y136999D01*
X355492Y137999D01*
X356492Y138999D01*
X357492D01*
X361490Y135000D02*
X363490D01*
X364489Y136000D01*
Y137999D01*
X363490Y138999D01*
X361490D01*
X360491Y137999D01*
Y136000D01*
X361490Y135000D01*
X366489D02*
X368488D01*
X367488D01*
Y140998D01*
X366489D01*
X371487Y135000D02*
X373486D01*
X372487D01*
Y140998D01*
X371487D01*
X379485Y135000D02*
X377485D01*
X376485Y136000D01*
Y137999D01*
X377485Y138999D01*
X379485D01*
X380484Y137999D01*
Y136999D01*
X376485D01*
X382484Y138999D02*
Y135000D01*
Y136999D01*
X383483Y137999D01*
X384483Y138999D01*
X385483D01*
X-68007Y229495D02*
Y223497D01*
X-64009D01*
X-59010D02*
X-61010D01*
X-62009Y224497D01*
Y226496D01*
X-61010Y227496D01*
X-59010D01*
X-58011Y226496D01*
Y225496D01*
X-62009D01*
X-55012Y223497D02*
Y228495D01*
Y226496D01*
X-56011D01*
X-54012D01*
X-55012D01*
Y228495D01*
X-54012Y229495D01*
X-50013Y228495D02*
Y227496D01*
X-51013D01*
X-49014D01*
X-50013D01*
Y224497D01*
X-49014Y223497D01*
X-70007Y216498D02*
X-71007Y217497D01*
X-73006D01*
X-74006Y216498D01*
Y215498D01*
X-73006Y214498D01*
X-71007D01*
X-70007Y213499D01*
Y212499D01*
X-71007Y211499D01*
X-73006D01*
X-74006Y212499D01*
X-68007Y211499D02*
X-66008D01*
X-67008D01*
Y215498D01*
X-68007D01*
X-61010Y209500D02*
X-60010D01*
X-59010Y210500D01*
Y215498D01*
X-62009D01*
X-63009Y214498D01*
Y212499D01*
X-62009Y211499D01*
X-59010D01*
X-57011D02*
Y215498D01*
X-54012D01*
X-53012Y214498D01*
Y211499D01*
X-50013Y215498D02*
X-48014D01*
X-47014Y214498D01*
Y211499D01*
X-50013D01*
X-51013Y212499D01*
X-50013Y213499D01*
X-47014D01*
X-45015Y211499D02*
X-43016D01*
X-44015D01*
Y217497D01*
X-45015D01*
X431999Y141998D02*
X428000D01*
Y136000D01*
X431999D01*
X428000Y138999D02*
X429999D01*
X437997Y139999D02*
X434998D01*
X433998Y138999D01*
Y137000D01*
X434998Y136000D01*
X437997D01*
X440996D02*
X442995D01*
X443995Y137000D01*
Y138999D01*
X442995Y139999D01*
X440996D01*
X439996Y138999D01*
Y137000D01*
X440996Y136000D01*
X70499Y142998D02*
X69499Y143997D01*
X67500D01*
X66500Y142998D01*
Y141998D01*
X67500Y140998D01*
X69499D01*
X70499Y139999D01*
Y138999D01*
X69499Y137999D01*
X67500D01*
X66500Y138999D01*
X73498Y142998D02*
Y141998D01*
X72498D01*
X74497D01*
X73498D01*
Y138999D01*
X74497Y137999D01*
X78496Y141998D02*
X80496D01*
X81495Y140998D01*
Y137999D01*
X78496D01*
X77496Y138999D01*
X78496Y139999D01*
X81495D01*
X83495Y137999D02*
Y141998D01*
X86493D01*
X87493Y140998D01*
Y137999D01*
X93491Y143997D02*
Y137999D01*
X90492D01*
X89493Y138999D01*
Y140998D01*
X90492Y141998D01*
X93491D01*
X95491Y143997D02*
Y137999D01*
X98490D01*
X99489Y138999D01*
Y139999D01*
Y140998D01*
X98490Y141998D01*
X95491D01*
X101489D02*
Y138999D01*
X102488Y137999D01*
X105487D01*
Y137000D01*
X104488Y136000D01*
X103488D01*
X105487Y137999D02*
Y141998D01*
X-38001Y318498D02*
X-39001Y319498D01*
X-41000D01*
X-42000Y318498D01*
Y314500D01*
X-41000Y313500D01*
X-39001D01*
X-38001Y314500D01*
X-36002Y317499D02*
Y313500D01*
Y315499D01*
X-35002Y316499D01*
X-34003Y317499D01*
X-33003D01*
X-30004D02*
Y314500D01*
X-29004Y313500D01*
X-26005D01*
Y317499D01*
X-24006Y313500D02*
X-22006D01*
X-23006D01*
Y317499D01*
X-24006D01*
X-19007Y313500D02*
X-16008D01*
X-15009Y314500D01*
X-16008Y315499D01*
X-18008D01*
X-19007Y316499D01*
X-18008Y317499D01*
X-15009D01*
X-10010Y313500D02*
X-12010D01*
X-13009Y314500D01*
Y316499D01*
X-12010Y317499D01*
X-10010D01*
X-9011Y316499D01*
Y315499D01*
X-13009D01*
X-1013Y316499D02*
X2985D01*
X-38501Y330998D02*
X-39501Y331998D01*
X-41500D01*
X-42500Y330998D01*
Y327000D01*
X-41500Y326000D01*
X-39501D01*
X-38501Y327000D01*
X-36502Y329999D02*
Y326000D01*
Y327999D01*
X-35502Y328999D01*
X-34503Y329999D01*
X-33503D01*
X-30504D02*
Y327000D01*
X-29504Y326000D01*
X-26505D01*
Y329999D01*
X-24506Y326000D02*
X-22506D01*
X-23506D01*
Y329999D01*
X-24506D01*
X-19507Y326000D02*
X-16508D01*
X-15509Y327000D01*
X-16508Y327999D01*
X-18508D01*
X-19507Y328999D01*
X-18508Y329999D01*
X-15509D01*
X-10510Y326000D02*
X-12510D01*
X-13509Y327000D01*
Y328999D01*
X-12510Y329999D01*
X-10510D01*
X-9511Y328999D01*
Y327999D01*
X-13509D01*
X-1513Y328999D02*
X2486D01*
X486Y330998D02*
Y327000D01*
X23499Y376498D02*
X22499Y377498D01*
X20500D01*
X19500Y376498D01*
Y372500D01*
X20500Y371500D01*
X22499D01*
X23499Y372500D01*
X25498Y375499D02*
Y371500D01*
Y373499D01*
X26498Y374499D01*
X27497Y375499D01*
X28497D01*
X31496D02*
Y372500D01*
X32496Y371500D01*
X35495D01*
Y375499D01*
X37494Y371500D02*
X39494D01*
X38494D01*
Y375499D01*
X37494D01*
X42493Y371500D02*
X45492D01*
X46491Y372500D01*
X45492Y373499D01*
X43492D01*
X42493Y374499D01*
X43492Y375499D01*
X46491D01*
X51490Y371500D02*
X49490D01*
X48491Y372500D01*
Y374499D01*
X49490Y375499D01*
X51490D01*
X52489Y374499D01*
Y373499D01*
X48491D01*
X64486Y376498D02*
X63486Y377498D01*
X61486D01*
X60487Y376498D01*
Y372500D01*
X61486Y371500D01*
X63486D01*
X64486Y372500D01*
X67484Y371500D02*
X69484D01*
X70483Y372500D01*
Y374499D01*
X69484Y375499D01*
X67484D01*
X66485Y374499D01*
Y372500D01*
X67484Y371500D01*
X72483D02*
Y375499D01*
X75482D01*
X76482Y374499D01*
Y371500D01*
X79481Y376498D02*
Y375499D01*
X78481D01*
X80480D01*
X79481D01*
Y372500D01*
X80480Y371500D01*
X83479Y375499D02*
Y371500D01*
Y373499D01*
X84479Y374499D01*
X85479Y375499D01*
X86478D01*
X90477Y371500D02*
X92476D01*
X93476Y372500D01*
Y374499D01*
X92476Y375499D01*
X90477D01*
X89477Y374499D01*
Y372500D01*
X90477Y371500D01*
X95475D02*
X97475D01*
X96475D01*
Y377498D01*
X95475D01*
X494500Y188498D02*
Y182500D01*
Y185499D01*
X498499D01*
Y188498D01*
Y182500D01*
X501498Y186499D02*
X503497D01*
X504497Y185499D01*
Y182500D01*
X501498D01*
X500498Y183500D01*
X501498Y184499D01*
X504497D01*
X506496Y186499D02*
X510495D01*
X506496Y182500D01*
X510495D01*
X513494Y186499D02*
X515493D01*
X516493Y185499D01*
Y182500D01*
X513494D01*
X512494Y183500D01*
X513494Y184499D01*
X516493D01*
X518492Y186499D02*
Y182500D01*
Y184499D01*
X519492Y185499D01*
X520492Y186499D01*
X521491D01*
X528489Y188498D02*
Y182500D01*
X525490D01*
X524490Y183500D01*
Y185499D01*
X525490Y186499D01*
X528489D01*
X530488Y182500D02*
X533487D01*
X534487Y183500D01*
X533487Y184499D01*
X531488D01*
X530488Y185499D01*
X531488Y186499D01*
X534487D01*
X421500Y288498D02*
Y282500D01*
Y285499D01*
X425499D01*
Y288498D01*
Y282500D01*
X430497D02*
X428498D01*
X427498Y283500D01*
Y285499D01*
X428498Y286499D01*
X430497D01*
X431497Y285499D01*
Y284499D01*
X427498D01*
X434496Y286499D02*
X436495D01*
X437495Y285499D01*
Y282500D01*
X434496D01*
X433496Y283500D01*
X434496Y284499D01*
X437495D01*
X443493Y288498D02*
Y282500D01*
X440494D01*
X439494Y283500D01*
Y285499D01*
X440494Y286499D01*
X443493D01*
X445492Y282500D02*
X447492D01*
X446492D01*
Y288498D01*
X445492D01*
X450491Y282500D02*
X452490D01*
X451490D01*
Y286499D01*
X450491D01*
X457488Y280501D02*
X458488D01*
X459488Y281500D01*
Y286499D01*
X456489D01*
X455489Y285499D01*
Y283500D01*
X456489Y282500D01*
X459488D01*
X461487Y288498D02*
Y282500D01*
Y285499D01*
X462487Y286499D01*
X464486D01*
X465486Y285499D01*
Y282500D01*
X468485Y287498D02*
Y286499D01*
X467485D01*
X469485D01*
X468485D01*
Y283500D01*
X469485Y282500D01*
X472483D02*
X475483D01*
X476482Y283500D01*
X475483Y284499D01*
X473483D01*
X472483Y285499D01*
X473483Y286499D01*
X476482D01*
D19*
X393832Y508000D02*
X390500D01*
X393832Y511332D01*
Y512165D01*
X392999Y512998D01*
X391333D01*
X390500Y512165D01*
X395498D02*
X396331Y512998D01*
X397998D01*
X398831Y512165D01*
Y508833D01*
X397998Y508000D01*
X396331D01*
X395498Y508833D01*
Y512165D01*
X390500Y498000D02*
X392166D01*
X391333D01*
Y502998D01*
X390500Y502165D01*
X394665D02*
X395498Y502998D01*
X397165D01*
X397998Y502165D01*
Y498833D01*
X397165Y498000D01*
X395498D01*
X394665Y498833D01*
Y502165D01*
X286500Y508000D02*
X288166D01*
X287333D01*
Y512998D01*
X286500Y512165D01*
X282500Y508000D02*
X284166D01*
X283333D01*
Y512998D01*
X282500Y512165D01*
X286500Y496000D02*
X288166D01*
X287333D01*
Y500998D01*
X286500Y500165D01*
D20*
X290443Y355804D02*
X290082Y356165D01*
X289361D01*
X289000Y355804D01*
Y355443D01*
X289361Y355082D01*
X290082D01*
X290443Y354721D01*
Y354361D01*
X290082Y354000D01*
X289361D01*
X289000Y354361D01*
X291165Y356165D02*
X292608D01*
X291886D01*
Y354000D01*
X293329D02*
Y356165D01*
X294051Y355443D01*
X294772Y356165D01*
Y354000D01*
X296576D02*
Y356165D01*
X295494Y355082D01*
X296937D01*
X299102Y356165D02*
X298380Y355804D01*
X297659Y355082D01*
Y354361D01*
X298019Y354000D01*
X298741D01*
X299102Y354361D01*
Y354721D01*
X298741Y355082D01*
X297659D01*
X290443Y350804D02*
X290082Y351165D01*
X289361D01*
X289000Y350804D01*
Y349361D01*
X289361Y349000D01*
X290082D01*
X290443Y349361D01*
Y350082D01*
X289721D01*
X291165Y349000D02*
Y351165D01*
X292608Y349000D01*
Y351165D01*
X293329D02*
Y349000D01*
X294412D01*
X294772Y349361D01*
Y350804D01*
X294412Y351165D01*
X293329D01*
X290443Y346165D02*
X289000D01*
Y345082D01*
X289721Y345443D01*
X290082D01*
X290443Y345082D01*
Y344361D01*
X290082Y344000D01*
X289361D01*
X289000Y344361D01*
X291165Y346165D02*
Y344722D01*
X291886Y344000D01*
X292608Y344722D01*
Y346165D01*
X295494D02*
Y344722D01*
X296216Y344000D01*
X296937Y344722D01*
Y346165D01*
X299102Y345804D02*
X298741Y346165D01*
X298019D01*
X297659Y345804D01*
Y344361D01*
X298019Y344000D01*
X298741D01*
X299102Y344361D01*
X301266Y345804D02*
X300906Y346165D01*
X300184D01*
X299823Y345804D01*
Y344361D01*
X300184Y344000D01*
X300906D01*
X301266Y344361D01*
X333000Y338500D02*
Y340665D01*
X334443Y338500D01*
Y340665D01*
X336608Y340304D02*
X336247Y340665D01*
X335525D01*
X335165Y340304D01*
Y338861D01*
X335525Y338500D01*
X336247D01*
X336608Y338861D01*
X334443Y345304D02*
X334082Y345665D01*
X333361D01*
X333000Y345304D01*
Y343861D01*
X333361Y343500D01*
X334082D01*
X334443Y343861D01*
X335165Y343500D02*
Y344943D01*
X335886Y345665D01*
X336608Y344943D01*
Y343500D01*
Y344582D01*
X335165D01*
X337329Y343500D02*
Y345665D01*
X338772Y343500D01*
Y345665D01*
X339494D02*
Y343500D01*
X340937D01*
X334443Y350304D02*
X334082Y350665D01*
X333361D01*
X333000Y350304D01*
Y348861D01*
X333361Y348500D01*
X334082D01*
X334443Y348861D01*
X335165Y348500D02*
Y349943D01*
X335886Y350665D01*
X336608Y349943D01*
Y348500D01*
Y349582D01*
X335165D01*
X337329Y348500D02*
Y350665D01*
X338772Y348500D01*
Y350665D01*
X339494D02*
Y348500D01*
Y349582D01*
X340937D01*
Y350665D01*
Y348500D01*
X334443Y355304D02*
X334082Y355665D01*
X333361D01*
X333000Y355304D01*
Y353861D01*
X333361Y353500D01*
X334082D01*
X334443Y353861D01*
Y354582D01*
X333721D01*
X335165Y353500D02*
Y355665D01*
X336608Y353500D01*
Y355665D01*
X337329D02*
Y353500D01*
X338412D01*
X338772Y353861D01*
Y355304D01*
X338412Y355665D01*
X337329D01*
X290443Y340804D02*
X290082Y341165D01*
X289361D01*
X289000Y340804D01*
Y340443D01*
X289361Y340082D01*
X290082D01*
X290443Y339721D01*
Y339361D01*
X290082Y339000D01*
X289361D01*
X289000Y339361D01*
X291165Y341165D02*
X292608D01*
X291886D01*
Y339000D01*
X293329D02*
Y341165D01*
X294051Y340443D01*
X294772Y341165D01*
Y339000D01*
X296576D02*
Y341165D01*
X295494Y340082D01*
X296937D01*
X299102Y341165D02*
X297659D01*
Y340082D01*
X298380Y340443D01*
X298741D01*
X299102Y340082D01*
Y339361D01*
X298741Y339000D01*
X298019D01*
X297659Y339361D01*
M02*
