G04*
G04 #@! TF.GenerationSoftware,Altium Limited,Altium Designer,19.1.5 (86)*
G04*
G04 Layer_Color=16711935*
%FSLAX25Y25*%
%MOIN*%
G70*
G01*
G75*
%ADD11C,0.00787*%
%ADD16C,0.00394*%
D11*
X74008Y75004D02*
Y125004D01*
X99992D01*
Y75004D02*
Y125004D01*
X74008Y75004D02*
X99992D01*
X238378Y76378D02*
X285622D01*
Y123622D01*
X238378D02*
X285622D01*
X238378Y76378D02*
Y123622D01*
X154008Y75004D02*
Y125004D01*
X179992D01*
Y75004D02*
Y125004D01*
X154008Y75004D02*
X179992D01*
X344008D02*
Y125004D01*
X369992D01*
Y75004D02*
Y125004D01*
X344008Y75004D02*
X369992D01*
X435008Y224504D02*
Y274504D01*
X460992D01*
Y224504D02*
Y274504D01*
X435008Y224504D02*
X460992D01*
X52378Y298378D02*
X99622D01*
Y345622D01*
X52378D02*
X99622D01*
X52378Y298378D02*
Y345622D01*
X435008Y325504D02*
X460992D01*
Y375504D01*
X435008D02*
X460992D01*
X435008Y325504D02*
Y375504D01*
X-15622Y122378D02*
Y169622D01*
X31622D01*
Y122378D02*
Y169622D01*
X-15622Y122378D02*
X31622D01*
X516378Y280378D02*
Y327622D01*
X563622D01*
Y280378D02*
Y327622D01*
X516378Y280378D02*
X563622D01*
X489878Y112878D02*
Y160122D01*
X537122D01*
Y112878D02*
Y160122D01*
X489878Y112878D02*
X537122D01*
X-31122Y256378D02*
X16122D01*
Y303622D01*
X-31122D02*
X16122D01*
X-31122Y256378D02*
Y303622D01*
Y340378D02*
X16122D01*
Y387622D01*
X-31122D02*
X16122D01*
X-31122Y340378D02*
Y387622D01*
X424008Y75004D02*
Y125004D01*
X449992D01*
Y75004D02*
Y125004D01*
X424008Y75004D02*
X449992D01*
D16*
X314138Y353299D02*
G03*
X314138Y353299I-1969J0D01*
G01*
X195807Y288543D02*
X209193D01*
X195807Y281457D02*
X209193D01*
X195807D02*
Y288543D01*
X209193Y281457D02*
Y288543D01*
X195807Y297043D02*
X209193D01*
X195807Y289957D02*
X209193D01*
X195807D02*
Y297043D01*
X209193Y289957D02*
Y297043D01*
X194543Y315307D02*
Y328693D01*
X187457Y315307D02*
Y328693D01*
X194543D01*
X187457Y315307D02*
X194543D01*
X185043D02*
Y328693D01*
X177957Y315307D02*
Y328693D01*
X185043D01*
X177957Y315307D02*
X185043D01*
X227307Y280957D02*
X240693D01*
X227307Y288043D02*
X240693D01*
Y280957D02*
Y288043D01*
X227307Y280957D02*
Y288043D01*
Y289957D02*
X240693D01*
X227307Y297043D02*
X240693D01*
Y289957D02*
Y297043D01*
X227307Y289957D02*
Y297043D01*
X270043Y328492D02*
Y341878D01*
X262957Y328492D02*
Y341878D01*
X270043D01*
X262957Y328492D02*
X270043D01*
X261043Y328307D02*
Y341693D01*
X253957Y328307D02*
Y341693D01*
X261043D01*
X253957Y328307D02*
X261043D01*
X197807Y371043D02*
X211193D01*
X197807Y363957D02*
X211193D01*
X197807D02*
Y371043D01*
X211193Y363957D02*
Y371043D01*
X197807Y360543D02*
X211193D01*
X197807Y353457D02*
X211193D01*
X197807D02*
Y360543D01*
X211193Y353457D02*
Y360543D01*
X204815Y343217D02*
X206783Y345185D01*
X204815Y305815D02*
Y345185D01*
Y305815D02*
X244185D01*
Y345185D01*
X204815D02*
X244185D01*
X308626Y337157D02*
X324374D01*
X308626Y356843D02*
X324374D01*
Y337157D02*
Y356843D01*
X308626Y337157D02*
Y356843D01*
M02*
