M48
;Layer_Color=9474304
;FILE_FORMAT=2:5
INCH,LZ
;TYPE=PLATED
T1F00S00C0.00787
T2F00S00C0.00800
T3F00S00C0.01000
T4F00S00C0.02756
T5F00S00C0.03346
T6F00S00C0.03543
T7F00S00C0.04000
T8F00S00C0.07283
T9F00S00C0.11800
T10F00S00C0.13600
%
T01
X01955Y03105
X02155Y0313
X02255Y0337
X0223Y0341
X-0017Y03385
X-002Y03475
T02
X01185Y02785
X0122Y0284
X0128Y0272
X01845Y0294
X0197Y02835
X018Y02205
X0176Y0221
X02055Y0262
X0204Y0274
X0214Y02735
X02135Y0294
X02215Y02945
X02325Y0292
Y02835
X02375Y0273
X02235Y0308
X02125Y03075
X0207Y0314
X0231445Y0325055
X03245Y03085
X0338Y0305
X0488Y0268008
X03655Y0408
X0326Y03955
X0327Y03885
X0322Y0385
X03135
X031Y03885
X0313Y03915
X0308Y04085
X0305505Y03495
X0327378Y03545
X03345Y03485
Y03455
X0266Y03545
X02685Y033037
X02595Y0330185
X0253Y03375
X02345Y0338
X02355Y03285
X0223Y0328
X02155Y03305
X0211Y033
X02155Y0355
X02035Y0378
X0199185Y03675
Y0358
X0191Y0327315
X01815
X01485Y0352
X015605Y037995
T03
X02995Y04245
T04
X01118Y021013
Y0218004
Y0225878
Y0233752
Y0241626
Y02495
Y0257374
Y0265248
Y0273122
Y0280996
Y028887
Y0296744
Y0304618
Y0312492
Y0320366
X0403139
Y0312492
Y0304618
Y0296744
Y028887
Y0280996
Y0273122
Y0265248
Y0257374
Y02495
Y0241626
Y0233752
Y0225878
Y0218004
Y021013
Y032824
Y0336114
Y0343988
Y0351862
Y0359736
X01118
Y0351862
Y0343988
Y0336114
Y032824
T05
X-0007Y02235
X0023
X05055Y0224
X0485Y01725
X0515
X05355Y0224
X05395Y03385
X05095
X00845Y03585
X00545
T06
X-0035Y02235
X-0025
X0549
X0559
X05325Y01725
X05225
X0548Y03385
X0558
X0278Y0415
X0268
X0258
X0248
X0238
X0228
X0218
X0208
X0198
X0046059Y03585
X0036059
X02945Y05
Y051
X03045
X03145
X03245
X03345
X03445
X03545
Y05
X03445
X03345
X03245
X03145
X03045
X03645
Y051
X03745
X03845
Y05
X03745
T07
X036535Y0036
X037715
X038895
X035355
X034175
X032995
X031815
X030635
X029455
X022895
X021715
X020535
X019355
X018175
X016995
X015815
X014635
X013455
X01373Y0494
X01491
X01609
X01727
X01845
X01963
X02081
X02199
X02317
T08
X0357Y00815
Y0100004
Y0118508
X0437Y0118508
Y0100004
Y00815
X0167
Y0100004
Y0118508
X0087
Y0100004
Y00815
X0448Y0231
Y0249504
Y0268008
Y0332
Y0350504
Y0369008
T09
X038045Y0019
X030285
X022045
X014285
X01458Y0511
X02234
T10
X0499Y0025
X0025
X01Y0504
X0424
M30
