M48
;Layer_Color=9474304
;FILE_FORMAT=2:4
INCH,LZ
;TYPE=PLATED
T1F00S00C0.0110
T2F00S00C0.0276
T3F00S00C0.0335
T4F00S00C0.0354
T5F00S00C0.0400
T6F00S00C0.0728
T7F00S00C0.1180
T8F00S00C0.1360
%
T01
X01185Y02785
X0122Y0284
X0128Y0272
X01915Y0283
X01845Y0294
X01955Y03105
X0207Y0314
X02155Y0313
X0214Y0308
X02235Y03075
X02215Y02945
X02135Y0294
X0214Y02735
X0204Y0274
X02055Y0262
X02375Y0273
X0228Y0283
X0233Y0325
X02685Y03255
X03245Y03085
X0338Y0305
X0488Y026801
X03655Y0408
X0326Y03955
X0327Y03885
X0322Y0385
X03135
X031Y03885
X0313Y03915
X0308Y04085
X02995Y04245
X03Y03495
X03345
Y03445
X03295Y0358
X0266Y03545
X0253Y03375
X02345Y0338
X02355Y03285
X0223Y0328
X02155Y03305
X0211Y033
X02245Y0337
X0223Y0341
X02155Y0355
X02035Y0378
X0193Y03635
X01815Y03315
X01485Y0352
X015605Y037995
X-002Y03475
X-0017Y03385
T02
X01118Y021013
Y0218
Y022588
Y023375
Y024163
Y02495
Y025737
Y026525
Y027312
Y0281
Y028887
Y029674
Y030462
Y031249
Y032037
X040314
Y031249
Y030462
Y029674
Y028887
Y0281
Y027312
Y026525
Y025737
Y02495
Y024163
Y023375
Y022588
Y0218
Y021013
Y032824
Y033611
Y034399
Y035186
Y035974
X01118
Y035186
Y034399
Y033611
Y032824
T03
X-0007Y02235
X0023
X05055Y0224
X0485Y01725
X0515
X05355Y0224
X05395Y03385
X05095
X00845Y03585
X00545
T04
X-0035Y02235
X-0025
X0549
X0559
X05325Y01725
X05225
X0548Y03385
X0558
X0545Y03815
Y03915
Y04015
X0278Y0415
X0268
X0258
X0248
X0238
X0228
X0218
X0208
X0198
X004606Y03585
X003606
X02945Y05
Y051
X03045
X03145
X03245
X03345
X03445
X03545
Y05
X03445
X03345
X03245
X03145
X03045
X03645
Y051
X03745
X03845
Y05
X03745
T05
X036535Y0036
X037715
X038895
X035355
X034175
X032995
X031815
X030635
X029455
X01963Y0494
X01845
X01727
X01609
X01491
X01373
X02081
X02199
X02317
T06
X0435Y00655
Y0084
Y01025
X0355Y010251
Y0084
Y00655
X0166Y0065
Y00835
Y0102
X01605Y0156
X0142
X01235
X00855Y010301
Y00845
Y0066
X0448Y02305
Y0249
Y02675
X045Y0332
Y03505
Y0369
T07
X038045Y0019
X030285
X01458Y0511
X02234
T08
X0499Y0025
X0025
X01Y0504
X0424
M30
