G04*
G04 #@! TF.GenerationSoftware,Altium Limited,Altium Designer,19.1.5 (86)*
G04*
G04 Layer_Color=2752767*
%FSLAX24Y24*%
%MOIN*%
G70*
G01*
G75*
%ADD10C,0.0079*%
%ADD15C,0.0039*%
%ADD21C,0.0020*%
%ADD70C,0.0020*%
%ADD71C,0.0027*%
D10*
X43450Y22400D02*
X46150D01*
Y27400D01*
X43450D02*
X46150D01*
X43450Y22400D02*
Y27400D01*
X43650Y32550D02*
X46350D01*
Y37550D01*
X43650D02*
X46350D01*
X43650Y32550D02*
Y37550D01*
X11700Y14301D02*
Y16899D01*
Y14301D02*
X16700D01*
Y16899D01*
X11700D02*
X16700D01*
X34150Y5900D02*
X36850D01*
Y10900D01*
X34150D02*
X36850D01*
X34150Y5900D02*
Y10900D01*
X42150Y5900D02*
X44850D01*
Y10900D01*
X42150D02*
X44850D01*
X42150Y5900D02*
Y10900D01*
X15250Y5850D02*
Y10850D01*
X17950D01*
Y5850D02*
Y10850D01*
X15250Y5850D02*
X17950D01*
X7200Y5950D02*
Y10950D01*
X9900D01*
Y5950D02*
Y10950D01*
X7200Y5950D02*
X9900D01*
X23688Y6088D02*
X28412D01*
Y10812D01*
X23688D02*
X28412D01*
X23688Y6088D02*
Y10812D01*
X3488Y29838D02*
X8212D01*
Y34562D01*
X3488D02*
X8212D01*
X3488Y29838D02*
Y34562D01*
X-1562Y12238D02*
Y16962D01*
X3162D01*
Y12238D02*
Y16962D01*
X-1562Y12238D02*
X3162D01*
X51638Y28038D02*
Y32762D01*
X56362D01*
Y28038D02*
Y32762D01*
X51638Y28038D02*
X56362D01*
X48988Y11288D02*
Y16012D01*
X53712D01*
Y11288D02*
Y16012D01*
X48988Y11288D02*
X53712D01*
X-4262Y25638D02*
X462D01*
Y30362D01*
X-4262D02*
X462D01*
X-4262Y25638D02*
Y30362D01*
Y34038D02*
X462D01*
Y38762D01*
X-4262D02*
X462D01*
X-4262Y34038D02*
Y38762D01*
D15*
X31414Y35330D02*
G03*
X31414Y35330I-197J0D01*
G01*
X23170Y28665D02*
X24430D01*
Y28035D02*
Y28665D01*
X23170Y28035D02*
X24430D01*
X23170D02*
Y28665D01*
X19620Y28935D02*
X20880D01*
X19620D02*
Y29565D01*
X20880D01*
Y28935D02*
Y29565D01*
X17835Y31570D02*
Y32830D01*
X18465D01*
Y31570D02*
Y32830D01*
X17835Y31570D02*
X18465D01*
X26535Y32939D02*
Y34198D01*
X27165D01*
Y32939D02*
Y34198D01*
X26535Y32939D02*
X27165D01*
X19820Y35485D02*
X21080D01*
X19820D02*
Y36115D01*
X21080D01*
Y35485D02*
Y36115D01*
X23170Y29565D02*
X24430D01*
Y28935D02*
Y29565D01*
X23170Y28935D02*
X24430D01*
X23170D02*
Y29565D01*
X19620Y28035D02*
X20880D01*
X19620D02*
Y28665D01*
X20880D01*
Y28035D02*
Y28665D01*
X18785Y31570D02*
Y32830D01*
X19415D01*
Y31570D02*
Y32830D01*
X18785Y31570D02*
X19415D01*
X25635Y32920D02*
Y34180D01*
X26265D01*
Y32920D02*
Y34180D01*
X25635Y32920D02*
X26265D01*
X19820Y36435D02*
X21080D01*
X19820D02*
Y37065D01*
X21080D01*
Y36435D02*
Y37065D01*
X20482Y34322D02*
X20678Y34518D01*
X20482Y30582D02*
Y34518D01*
Y30582D02*
X24418D01*
Y34518D01*
X20482D02*
X24418D01*
X30863Y33716D02*
X32437D01*
X30863Y35684D02*
X32437D01*
Y33716D02*
Y35684D01*
X30863Y33716D02*
Y35684D01*
X43056Y22006D02*
X46544D01*
Y27794D01*
X43056D02*
X46544D01*
X43056Y22006D02*
Y27794D01*
X43256Y32156D02*
X46744D01*
Y37944D01*
X43256D02*
X46744D01*
X43256Y32156D02*
Y37944D01*
X11306Y13907D02*
Y17293D01*
Y13907D02*
X17094D01*
Y17293D01*
X11306D02*
X17094D01*
X33756Y5507D02*
X37244D01*
Y11294D01*
X33756D02*
X37244D01*
X33756Y5507D02*
Y11294D01*
X41756Y5506D02*
X45244D01*
Y11294D01*
X41756D02*
X45244D01*
X41756Y5506D02*
Y11294D01*
X14856Y5456D02*
Y11244D01*
X18344D01*
Y5456D02*
Y11244D01*
X14856Y5456D02*
X18344D01*
X6806Y5557D02*
Y11344D01*
X10294D01*
Y5557D02*
Y11344D01*
X6806Y5557D02*
X10294D01*
X22172Y11206D02*
X29495D01*
Y5694D02*
Y11206D01*
X22172Y5694D02*
X29495D01*
X22172D02*
Y11206D01*
X1972Y34956D02*
X9295D01*
Y29444D02*
Y34956D01*
X1972Y29444D02*
X9295D01*
X1972D02*
Y34956D01*
X-3078Y11844D02*
Y17356D01*
Y11844D02*
X4245D01*
Y17356D01*
X-3078D02*
X4245D01*
X50122Y27644D02*
Y33156D01*
Y27644D02*
X57445D01*
Y33156D01*
X50122D02*
X57445D01*
X47472Y10894D02*
Y16406D01*
Y10894D02*
X54795D01*
Y16406D01*
X47472D02*
X54795D01*
X-5778Y30756D02*
X1545D01*
Y25244D02*
Y30756D01*
X-5778Y25244D02*
X1545D01*
X-5778D02*
Y30756D01*
X31650Y34503D02*
Y34897D01*
X31453Y34700D02*
X31847D01*
X-5778Y39156D02*
X1545D01*
Y33644D02*
Y39156D01*
X-5778Y33644D02*
X1545D01*
X-5778D02*
Y39156D01*
D21*
X22997Y28759D02*
X24603D01*
Y27941D02*
Y28759D01*
X22997Y27941D02*
X24603D01*
X22997D02*
Y28759D01*
X19447Y28841D02*
X21053D01*
X19447D02*
Y29659D01*
X21053D01*
Y28841D02*
Y29659D01*
X17741Y31397D02*
Y33003D01*
X18559D01*
Y31397D02*
Y33003D01*
X17741Y31397D02*
X18559D01*
X26441Y32765D02*
Y34372D01*
X27259D01*
Y32765D02*
Y34372D01*
X26441Y32765D02*
X27259D01*
X19647Y35391D02*
X21253D01*
X19647D02*
Y36209D01*
X21253D01*
Y35391D02*
Y36209D01*
X22989Y29667D02*
X24611D01*
Y28833D02*
Y29667D01*
X22989Y28833D02*
X24611D01*
X22989D02*
Y29667D01*
X19439Y27933D02*
X21061D01*
X19439D02*
Y28767D01*
X21061D01*
Y27933D02*
Y28767D01*
X18683Y31389D02*
Y33011D01*
X19517D01*
Y31389D02*
Y33011D01*
X18683Y31389D02*
X19517D01*
X25533Y32739D02*
Y34361D01*
X26367D01*
Y32739D02*
Y34361D01*
X25533Y32739D02*
X26367D01*
X19639Y36333D02*
X21261D01*
X19639D02*
Y37167D01*
X21261D01*
Y36333D02*
Y37167D01*
X19802Y29902D02*
Y35198D01*
Y29902D02*
X25098D01*
Y35198D01*
X19802D02*
X25098D01*
X30193Y33617D02*
X33107D01*
X30193Y35783D02*
X33107D01*
Y33617D02*
Y35783D01*
X30193Y33617D02*
Y35783D01*
D70*
X44720Y26670D02*
Y26830D01*
X44880D01*
Y26670D01*
X44720D01*
Y24820D02*
Y24980D01*
X44880D01*
Y24820D01*
X44720D01*
Y22970D02*
Y23130D01*
X44880D01*
Y22970D01*
X44720D01*
X44920Y36820D02*
Y36980D01*
X45080D01*
Y36820D01*
X44920D01*
Y34970D02*
Y35130D01*
X45080D01*
Y34970D01*
X44920D01*
Y33120D02*
Y33280D01*
X45080D01*
Y33120D01*
X44920D01*
X15970Y15520D02*
Y15680D01*
X16130D01*
Y15520D01*
X15970D01*
X14120D02*
Y15680D01*
X14280D01*
Y15520D01*
X14120D01*
X12270D02*
Y15680D01*
X12430D01*
Y15520D01*
X12270D01*
X35420Y10171D02*
Y10331D01*
X35580D01*
Y10171D01*
X35420D01*
Y8320D02*
Y8480D01*
X35580D01*
Y8320D01*
X35420D01*
Y6470D02*
Y6630D01*
X35580D01*
Y6470D01*
X35420D01*
X43420Y10170D02*
Y10330D01*
X43580D01*
Y10170D01*
X43420D01*
Y8320D02*
Y8480D01*
X43580D01*
Y8320D01*
X43420D01*
Y6470D02*
Y6630D01*
X43580D01*
Y6470D01*
X43420D01*
X16520Y6420D02*
Y6580D01*
X16680D01*
Y6420D01*
X16520D01*
Y8270D02*
Y8430D01*
X16680D01*
Y8270D01*
X16520D01*
Y10120D02*
Y10280D01*
X16680D01*
Y10120D01*
X16520D01*
X8470Y6520D02*
Y6680D01*
X8630D01*
Y6520D01*
X8470D01*
Y8370D02*
Y8530D01*
X8630D01*
Y8370D01*
X8470D01*
Y10221D02*
Y10381D01*
X8630D01*
Y10221D01*
X8470D01*
X11180Y30382D02*
X11100Y30542D01*
X11260D01*
X11180Y30382D01*
Y31957D02*
X11100Y32117D01*
X11260D01*
X11180Y31957D01*
Y34319D02*
X11100Y34479D01*
X11260D01*
X11180Y34319D01*
Y33531D02*
X11100Y33691D01*
X11260D01*
X11180Y33531D01*
Y32744D02*
X11100Y32904D01*
X11260D01*
X11180Y32744D01*
Y31169D02*
X11100Y31329D01*
X11260D01*
X11180Y31169D01*
Y35106D02*
X11100Y35266D01*
X11260D01*
X11180Y35106D01*
Y29594D02*
X11100Y29754D01*
X11260D01*
X11180Y29594D01*
Y28807D02*
X11100Y28967D01*
X11260D01*
X11180Y28807D01*
Y23295D02*
X11100Y23455D01*
X11260D01*
X11180Y23295D01*
Y24870D02*
X11100Y25030D01*
X11260D01*
X11180Y24870D01*
Y26445D02*
X11100Y26605D01*
X11260D01*
X11180Y26445D01*
Y25657D02*
X11100Y25817D01*
X11260D01*
X11180Y25657D01*
Y24083D02*
X11100Y24243D01*
X11260D01*
X11180Y24083D01*
Y28020D02*
X11100Y28180D01*
X11260D01*
X11180Y28020D01*
Y22508D02*
X11100Y22668D01*
X11260D01*
X11180Y22508D01*
Y21720D02*
X11100Y21880D01*
X11260D01*
X11180Y21720D01*
Y27232D02*
X11100Y27392D01*
X11260D01*
X11180Y27232D01*
Y20933D02*
X11100Y21093D01*
X11260D01*
X11180Y20933D01*
Y35894D02*
X11100Y36054D01*
X11260D01*
X11180Y35894D01*
X40314Y30382D02*
X40234Y30542D01*
X40394D01*
X40314Y30382D01*
Y31957D02*
X40234Y32117D01*
X40394D01*
X40314Y31957D01*
Y34319D02*
X40234Y34479D01*
X40394D01*
X40314Y34319D01*
Y33531D02*
X40234Y33691D01*
X40394D01*
X40314Y33531D01*
Y32744D02*
X40234Y32904D01*
X40394D01*
X40314Y32744D01*
Y31169D02*
X40234Y31329D01*
X40394D01*
X40314Y31169D01*
Y35106D02*
X40234Y35266D01*
X40394D01*
X40314Y35106D01*
Y29594D02*
X40234Y29754D01*
X40394D01*
X40314Y29594D01*
Y28807D02*
X40234Y28967D01*
X40394D01*
X40314Y28807D01*
Y23295D02*
X40234Y23455D01*
X40394D01*
X40314Y23295D01*
Y24870D02*
X40234Y25030D01*
X40394D01*
X40314Y24870D01*
Y26445D02*
X40234Y26605D01*
X40394D01*
X40314Y26445D01*
Y25657D02*
X40234Y25817D01*
X40394D01*
X40314Y25657D01*
Y24083D02*
X40234Y24243D01*
X40394D01*
X40314Y24083D01*
Y28020D02*
X40234Y28180D01*
X40394D01*
X40314Y28020D01*
Y22508D02*
X40234Y22668D01*
X40394D01*
X40314Y22508D01*
Y21720D02*
X40234Y21880D01*
X40394D01*
X40314Y21720D01*
Y27232D02*
X40234Y27392D01*
X40394D01*
X40314Y27232D01*
Y20933D02*
X40234Y21093D01*
X40394D01*
X40314Y20933D01*
Y35894D02*
X40234Y36054D01*
X40394D01*
X40314Y35894D01*
X38895Y3520D02*
X38935Y3560D01*
X38975D01*
X38935Y3600D01*
X38975Y3640D01*
X38935D01*
X38895Y3680D01*
X38855Y3640D01*
X38815D01*
X38855Y3600D01*
X38815Y3560D01*
X38855D01*
X38895Y3520D01*
X37715D02*
X37755Y3560D01*
X37795D01*
X37755Y3600D01*
X37795Y3640D01*
X37755D01*
X37715Y3680D01*
X37675Y3640D01*
X37635D01*
X37675Y3600D01*
X37635Y3560D01*
X37675D01*
X37715Y3520D01*
X36535D02*
X36575Y3560D01*
X36615D01*
X36575Y3600D01*
X36615Y3640D01*
X36575D01*
X36535Y3680D01*
X36495Y3640D01*
X36455D01*
X36495Y3600D01*
X36455Y3560D01*
X36495D01*
X36535Y3520D01*
X35355D02*
X35395Y3560D01*
X35435D01*
X35395Y3600D01*
X35435Y3640D01*
X35395D01*
X35355Y3680D01*
X35315Y3640D01*
X35275D01*
X35315Y3600D01*
X35275Y3560D01*
X35315D01*
X35355Y3520D01*
X34175D02*
X34215Y3560D01*
X34255D01*
X34215Y3600D01*
X34255Y3640D01*
X34215D01*
X34175Y3680D01*
X34135Y3640D01*
X34095D01*
X34135Y3600D01*
X34095Y3560D01*
X34135D01*
X34175Y3520D01*
X32995D02*
X33035Y3560D01*
X33075D01*
X33035Y3600D01*
X33075Y3640D01*
X33035D01*
X32995Y3680D01*
X32955Y3640D01*
X32915D01*
X32955Y3600D01*
X32915Y3560D01*
X32955D01*
X32995Y3520D01*
X31815D02*
X31855Y3560D01*
X31895D01*
X31855Y3600D01*
X31895Y3640D01*
X31855D01*
X31815Y3680D01*
X31775Y3640D01*
X31735D01*
X31775Y3600D01*
X31735Y3560D01*
X31775D01*
X31815Y3520D01*
X30635D02*
X30675Y3560D01*
X30715D01*
X30675Y3600D01*
X30715Y3640D01*
X30675D01*
X30635Y3680D01*
X30595Y3640D01*
X30555D01*
X30595Y3600D01*
X30555Y3560D01*
X30595D01*
X30635Y3520D01*
X29455D02*
X29495Y3560D01*
X29535D01*
X29495Y3600D01*
X29535Y3640D01*
X29495D01*
X29455Y3680D01*
X29415Y3640D01*
X29375D01*
X29415Y3600D01*
X29375Y3560D01*
X29415D01*
X29455Y3520D01*
X37965Y1820D02*
X38005Y1900D01*
X37965Y1980D01*
X38045Y1940D01*
X38125Y1980D01*
X38085Y1900D01*
X38125Y1820D01*
X38045Y1860D01*
X37965Y1820D01*
X30205D02*
X30245Y1900D01*
X30205Y1980D01*
X30285Y1940D01*
X30365Y1980D01*
X30325Y1900D01*
X30365Y1820D01*
X30285Y1860D01*
X30205Y1820D01*
X13730Y49320D02*
X13770Y49360D01*
X13810D01*
X13770Y49400D01*
X13810Y49440D01*
X13770D01*
X13730Y49480D01*
X13690Y49440D01*
X13650D01*
X13690Y49400D01*
X13650Y49360D01*
X13690D01*
X13730Y49320D01*
X14910D02*
X14950Y49360D01*
X14990D01*
X14950Y49400D01*
X14990Y49440D01*
X14950D01*
X14910Y49480D01*
X14870Y49440D01*
X14830D01*
X14870Y49400D01*
X14830Y49360D01*
X14870D01*
X14910Y49320D01*
X16090D02*
X16130Y49360D01*
X16170D01*
X16130Y49400D01*
X16170Y49440D01*
X16130D01*
X16090Y49480D01*
X16050Y49440D01*
X16010D01*
X16050Y49400D01*
X16010Y49360D01*
X16050D01*
X16090Y49320D01*
X17270D02*
X17310Y49360D01*
X17350D01*
X17310Y49400D01*
X17350Y49440D01*
X17310D01*
X17270Y49480D01*
X17230Y49440D01*
X17190D01*
X17230Y49400D01*
X17190Y49360D01*
X17230D01*
X17270Y49320D01*
X18450D02*
X18490Y49360D01*
X18530D01*
X18490Y49400D01*
X18530Y49440D01*
X18490D01*
X18450Y49480D01*
X18410Y49440D01*
X18370D01*
X18410Y49400D01*
X18370Y49360D01*
X18410D01*
X18450Y49320D01*
X19630D02*
X19670Y49360D01*
X19710D01*
X19670Y49400D01*
X19710Y49440D01*
X19670D01*
X19630Y49480D01*
X19590Y49440D01*
X19550D01*
X19590Y49400D01*
X19550Y49360D01*
X19590D01*
X19630Y49320D01*
X20810D02*
X20850Y49360D01*
X20890D01*
X20850Y49400D01*
X20890Y49440D01*
X20850D01*
X20810Y49480D01*
X20770Y49440D01*
X20730D01*
X20770Y49400D01*
X20730Y49360D01*
X20770D01*
X20810Y49320D01*
X21990D02*
X22030Y49360D01*
X22070D01*
X22030Y49400D01*
X22070Y49440D01*
X22030D01*
X21990Y49480D01*
X21950Y49440D01*
X21910D01*
X21950Y49400D01*
X21910Y49360D01*
X21950D01*
X21990Y49320D01*
X23170D02*
X23210Y49360D01*
X23250D01*
X23210Y49400D01*
X23250Y49440D01*
X23210D01*
X23170Y49480D01*
X23130Y49440D01*
X23090D01*
X23130Y49400D01*
X23090Y49360D01*
X23130D01*
X23170Y49320D01*
X14500Y51020D02*
X14540Y51100D01*
X14500Y51180D01*
X14580Y51140D01*
X14660Y51180D01*
X14620Y51100D01*
X14660Y51020D01*
X14580Y51060D01*
X14500Y51020D01*
X22260D02*
X22300Y51100D01*
X22260Y51180D01*
X22340Y51140D01*
X22420Y51180D01*
X22380Y51100D01*
X22420Y51020D01*
X22340Y51060D01*
X22260Y51020D01*
X2460Y2460D02*
Y2420D01*
X2540D01*
Y2460D01*
X2580D01*
Y2540D01*
X2540D01*
Y2580D01*
X2460D01*
Y2540D01*
X2420D01*
Y2460D01*
X2460D01*
X49860D02*
Y2420D01*
X49940D01*
Y2460D01*
X49980D01*
Y2540D01*
X49940D01*
Y2580D01*
X49860D01*
Y2540D01*
X49820D01*
Y2460D01*
X49860D01*
X42360Y50360D02*
Y50320D01*
X42440D01*
Y50360D01*
X42480D01*
Y50440D01*
X42440D01*
Y50480D01*
X42360D01*
Y50440D01*
X42320D01*
Y50360D01*
X42360D01*
X9960D02*
Y50320D01*
X10040D01*
Y50360D01*
X10080D01*
Y50440D01*
X10040D01*
Y50480D01*
X9960D01*
Y50440D01*
X9920D01*
Y50360D01*
X9960D01*
X8370Y35770D02*
X8410D01*
X8450Y35810D01*
X8490Y35770D01*
X8530D01*
Y35810D01*
X8490Y35850D01*
X8530Y35890D01*
Y35930D01*
X8490D01*
X8450Y35890D01*
X8410Y35930D01*
X8370D01*
Y35890D01*
X8410Y35850D01*
X8370Y35810D01*
Y35770D01*
X5370D02*
X5410D01*
X5450Y35810D01*
X5490Y35770D01*
X5530D01*
Y35810D01*
X5490Y35850D01*
X5530Y35890D01*
Y35930D01*
X5490D01*
X5450Y35890D01*
X5410Y35930D01*
X5370D01*
Y35890D01*
X5410Y35850D01*
X5370Y35810D01*
Y35770D01*
X48420Y17170D02*
X48460D01*
X48500Y17210D01*
X48540Y17170D01*
X48580D01*
Y17210D01*
X48540Y17250D01*
X48580Y17290D01*
Y17330D01*
X48540D01*
X48500Y17290D01*
X48460Y17330D01*
X48420D01*
Y17290D01*
X48460Y17250D01*
X48420Y17210D01*
Y17170D01*
X51420D02*
X51460D01*
X51500Y17210D01*
X51540Y17170D01*
X51580D01*
Y17210D01*
X51540Y17250D01*
X51580Y17290D01*
Y17330D01*
X51540D01*
X51500Y17290D01*
X51460Y17330D01*
X51420D01*
Y17290D01*
X51460Y17250D01*
X51420Y17210D01*
Y17170D01*
X53470Y22320D02*
X53510D01*
X53550Y22360D01*
X53590Y22320D01*
X53630D01*
Y22360D01*
X53590Y22400D01*
X53630Y22440D01*
Y22480D01*
X53590D01*
X53550Y22440D01*
X53510Y22480D01*
X53470D01*
Y22440D01*
X53510Y22400D01*
X53470Y22360D01*
Y22320D01*
X50470D02*
X50510D01*
X50550Y22360D01*
X50590Y22320D01*
X50630D01*
Y22360D01*
X50590Y22400D01*
X50630Y22440D01*
Y22480D01*
X50590D01*
X50550Y22440D01*
X50510Y22480D01*
X50470D01*
Y22440D01*
X50510Y22400D01*
X50470Y22360D01*
Y22320D01*
X-780Y22270D02*
X-740D01*
X-700Y22310D01*
X-660Y22270D01*
X-620D01*
Y22310D01*
X-660Y22350D01*
X-620Y22390D01*
Y22430D01*
X-660D01*
X-700Y22390D01*
X-740Y22430D01*
X-780D01*
Y22390D01*
X-740Y22350D01*
X-780Y22310D01*
Y22270D01*
X2220D02*
X2260D01*
X2300Y22310D01*
X2340Y22270D01*
X2380D01*
Y22310D01*
X2340Y22350D01*
X2380Y22390D01*
Y22430D01*
X2340D01*
X2300Y22390D01*
X2260Y22430D01*
X2220D01*
Y22390D01*
X2260Y22350D01*
X2220Y22310D01*
Y22270D01*
X50870Y33770D02*
X50910D01*
X50950Y33810D01*
X50990Y33770D01*
X51030D01*
Y33810D01*
X50990Y33850D01*
X51030Y33890D01*
Y33930D01*
X50990D01*
X50950Y33890D01*
X50910Y33930D01*
X50870D01*
Y33890D01*
X50910Y33850D01*
X50870Y33810D01*
Y33770D01*
X53870D02*
X53910D01*
X53950Y33810D01*
X53990Y33770D01*
X54030D01*
Y33810D01*
X53990Y33850D01*
X54030Y33890D01*
Y33930D01*
X53990D01*
X53950Y33890D01*
X53910Y33930D01*
X53870D01*
Y33890D01*
X53910Y33850D01*
X53870Y33810D01*
Y33770D01*
X19220Y36350D02*
X19300Y36430D01*
X19380Y36350D01*
X19300Y36270D01*
X19220Y36350D01*
X18070Y33150D02*
X18150Y33230D01*
X18230Y33150D01*
X18150Y33070D01*
X18070Y33150D01*
X19070Y28300D02*
X19150Y28380D01*
X19230Y28300D01*
X19150Y28220D01*
X19070Y28300D01*
X22720D02*
X22800Y28380D01*
X22880Y28300D01*
X22800Y28220D01*
X22720Y28300D01*
X26770Y32550D02*
X26850Y32630D01*
X26930Y32550D01*
X26850Y32470D01*
X26770Y32550D01*
X29920Y34950D02*
X30000Y35030D01*
X30080Y34950D01*
X30000Y34870D01*
X29920Y34950D01*
X32870Y35800D02*
X32950Y35880D01*
X33030Y35800D01*
X32950Y35720D01*
X32870Y35800D01*
X33370Y34450D02*
X33450Y34530D01*
X33530Y34450D01*
X33450Y34370D01*
X33370Y34450D01*
Y34950D02*
X33450Y35030D01*
X33530Y34950D01*
X33450Y34870D01*
X33370Y34950D01*
X23220Y32500D02*
X23300Y32580D01*
X23380Y32500D01*
X23300Y32420D01*
X23220Y32500D01*
X22370Y33700D02*
X22450Y33780D01*
X22530Y33700D01*
X22450Y33620D01*
X22370Y33700D01*
X21320Y30800D02*
X21400Y30880D01*
X21480Y30800D01*
X21400Y30720D01*
X21320Y30800D01*
X22270Y30750D02*
X22350Y30830D01*
X22430Y30750D01*
X22350Y30670D01*
X22270Y30750D01*
X12720Y27200D02*
X12800Y27280D01*
X12880Y27200D01*
X12800Y27120D01*
X12720Y27200D01*
X12120Y28400D02*
X12200Y28480D01*
X12280Y28400D01*
X12200Y28320D01*
X12120Y28400D01*
X11770Y27850D02*
X11850Y27930D01*
X11930Y27850D01*
X11850Y27770D01*
X11770Y27850D01*
X48720Y26801D02*
X48800Y26881D01*
X48880Y26801D01*
X48800Y26721D01*
X48720Y26801D01*
X-1780Y33850D02*
X-1700Y33930D01*
X-1620Y33850D01*
X-1700Y33770D01*
X-1780Y33850D01*
X-2080Y34750D02*
X-2000Y34830D01*
X-1920Y34750D01*
X-2000Y34670D01*
X-2080Y34750D01*
X32620Y38850D02*
X32700Y38930D01*
X32780Y38850D01*
X32700Y38770D01*
X32620Y38850D01*
X32520Y39550D02*
X32600Y39630D01*
X32680Y39550D01*
X32600Y39470D01*
X32520Y39550D01*
X32120Y38500D02*
X32200Y38580D01*
X32280Y38500D01*
X32200Y38420D01*
X32120Y38500D01*
X22220Y32800D02*
X22300Y32880D01*
X22380Y32800D01*
X22300Y32720D01*
X22220Y32800D01*
X20620Y31400D02*
X20700Y31480D01*
X20780Y31400D01*
X20700Y31320D01*
X20620Y31400D01*
X21470Y35500D02*
X21550Y35580D01*
X21630Y35500D01*
X21550Y35420D01*
X21470Y35500D01*
X21020Y33000D02*
X21100Y33080D01*
X21180Y33000D01*
X21100Y32920D01*
X21020Y33000D01*
X33720Y30500D02*
X33800Y30580D01*
X33880Y30500D01*
X33800Y30420D01*
X33720Y30500D01*
X25220Y33750D02*
X25300Y33830D01*
X25380Y33750D01*
X25300Y33670D01*
X25220Y33750D01*
X26520Y35450D02*
X26600Y35530D01*
X26680Y35450D01*
X26600Y35370D01*
X26520Y35450D01*
X20320Y27400D02*
X20400Y27480D01*
X20480Y27400D01*
X20400Y27320D01*
X20320Y27400D01*
X19470Y31050D02*
X19550Y31130D01*
X19630Y31050D01*
X19550Y30970D01*
X19470Y31050D01*
X22220Y34100D02*
X22300Y34180D01*
X22380Y34100D01*
X22300Y34020D01*
X22220Y34100D01*
X20270Y37800D02*
X20350Y37880D01*
X20430Y37800D01*
X20350Y37720D01*
X20270Y37800D01*
X14770Y35200D02*
X14850Y35280D01*
X14930Y35200D01*
X14850Y35120D01*
X14770Y35200D01*
X15525Y37995D02*
X15605Y38075D01*
X15685Y37995D01*
X15605Y37915D01*
X15525Y37995D01*
X21270Y29400D02*
X21350Y29480D01*
X21430Y29400D01*
X21350Y29320D01*
X21270Y29400D01*
X21320Y27350D02*
X21400Y27430D01*
X21480Y27350D01*
X21400Y27270D01*
X21320Y27350D01*
X20470Y26200D02*
X20550Y26280D01*
X20630Y26200D01*
X20550Y26120D01*
X20470Y26200D01*
X18370Y29400D02*
X18450Y29480D01*
X18530Y29400D01*
X18450Y29320D01*
X18370Y29400D01*
X21470Y31300D02*
X21550Y31380D01*
X21630Y31300D01*
X21550Y31220D01*
X21470Y31300D01*
X23670Y27300D02*
X23750Y27380D01*
X23830Y27300D01*
X23750Y27220D01*
X23670Y27300D01*
X21470Y33050D02*
X21550Y33130D01*
X21630Y33050D01*
X21550Y32970D01*
X21470Y33050D01*
X32370Y30850D02*
X32450Y30930D01*
X32530Y30850D01*
X32450Y30770D01*
X32370Y30850D01*
X23470Y32850D02*
X23550Y32930D01*
X23630Y32850D01*
X23550Y32770D01*
X23470Y32850D01*
X30920Y38850D02*
X31000Y38930D01*
X31080Y38850D01*
X31000Y38770D01*
X30920Y38850D01*
X31270Y38500D02*
X31350Y38580D01*
X31430Y38500D01*
X31350Y38420D01*
X31270Y38500D01*
X36470Y40800D02*
X36550Y40880D01*
X36630Y40800D01*
X36550Y40720D01*
X36470Y40800D01*
X30720Y40850D02*
X30800Y40930D01*
X30880Y40850D01*
X30800Y40770D01*
X30720Y40850D01*
X31220Y39150D02*
X31300Y39230D01*
X31380Y39150D01*
X31300Y39070D01*
X31220Y39150D01*
X23370Y33800D02*
X23450Y33880D01*
X23530Y33800D01*
X23450Y33720D01*
X23370Y33800D01*
X22070Y29450D02*
X22150Y29530D01*
X22230Y29450D01*
X22150Y29370D01*
X22070Y29450D01*
X29870Y42450D02*
X29950Y42530D01*
X30030Y42450D01*
X29950Y42370D01*
X29870Y42450D01*
D71*
X54580Y40150D02*
G03*
X54580Y40150I-80J0D01*
G01*
Y39150D02*
G03*
X54580Y39150I-80J0D01*
G01*
Y38150D02*
G03*
X54580Y38150I-80J0D01*
G01*
X53330Y17250D02*
G03*
X53330Y17250I-80J0D01*
G01*
X52330D02*
G03*
X52330Y17250I-80J0D01*
G01*
X55980Y22350D02*
G03*
X55980Y22350I-80J0D01*
G01*
X54980D02*
G03*
X54980Y22350I-80J0D01*
G01*
X55880Y33850D02*
G03*
X55880Y33850I-80J0D01*
G01*
X54880D02*
G03*
X54880Y33850I-80J0D01*
G01*
X-3420Y22350D02*
G03*
X-3420Y22350I-80J0D01*
G01*
X-2420D02*
G03*
X-2420Y22350I-80J0D01*
G01*
X3686Y35850D02*
G03*
X3686Y35850I-80J0D01*
G01*
X4686D02*
G03*
X4686Y35850I-80J0D01*
G01*
X19880Y41500D02*
G03*
X19880Y41500I-80J0D01*
G01*
X21880D02*
G03*
X21880Y41500I-80J0D01*
G01*
X22880D02*
G03*
X22880Y41500I-80J0D01*
G01*
X23880D02*
G03*
X23880Y41500I-80J0D01*
G01*
X24880D02*
G03*
X24880Y41500I-80J0D01*
G01*
X25880D02*
G03*
X25880Y41500I-80J0D01*
G01*
X26880D02*
G03*
X26880Y41500I-80J0D01*
G01*
X27880D02*
G03*
X27880Y41500I-80J0D01*
G01*
X20880D02*
G03*
X20880Y41500I-80J0D01*
G01*
X38530Y51000D02*
G03*
X38530Y51000I-80J0D01*
G01*
X37530D02*
G03*
X37530Y51000I-80J0D01*
G01*
X36530D02*
G03*
X36530Y51000I-80J0D01*
G01*
X35530D02*
G03*
X35530Y51000I-80J0D01*
G01*
X34530D02*
G03*
X34530Y51000I-80J0D01*
G01*
X33530D02*
G03*
X33530Y51000I-80J0D01*
G01*
X32530D02*
G03*
X32530Y51000I-80J0D01*
G01*
X31530D02*
G03*
X31530Y51000I-80J0D01*
G01*
X30530D02*
G03*
X30530Y51000I-80J0D01*
G01*
X29530D02*
G03*
X29530Y51000I-80J0D01*
G01*
X38530Y50000D02*
G03*
X38530Y50000I-80J0D01*
G01*
X37530D02*
G03*
X37530Y50000I-80J0D01*
G01*
X36530D02*
G03*
X36530Y50000I-80J0D01*
G01*
X35530D02*
G03*
X35530Y50000I-80J0D01*
G01*
X34530D02*
G03*
X34530Y50000I-80J0D01*
G01*
X33530D02*
G03*
X33530Y50000I-80J0D01*
G01*
X32530D02*
G03*
X32530Y50000I-80J0D01*
G01*
X31530D02*
G03*
X31530Y50000I-80J0D01*
G01*
X30530D02*
G03*
X30530Y50000I-80J0D01*
G01*
X29530D02*
G03*
X29530Y50000I-80J0D01*
G01*
M02*
