G04*
G04 #@! TF.GenerationSoftware,Altium Limited,Altium Designer,19.1.5 (86)*
G04*
G04 Layer_Color=8388736*
%FSLAX24Y24*%
%MOIN*%
G70*
G01*
G75*
%ADD10C,0.0079*%
%ADD15C,0.0039*%
%ADD21C,0.0020*%
%ADD30R,0.0497X0.0781*%
%ADD31R,0.0781X0.0497*%
%ADD32R,0.0482X0.0797*%
%ADD33R,0.0797X0.0482*%
%ADD34R,0.0690X0.0710*%
%ADD35R,0.0198X0.0651*%
%ADD36R,0.0651X0.0198*%
%ADD37O,0.0651X0.0316*%
%ADD38C,0.1173*%
%ADD39R,0.0671X0.0671*%
%ADD40C,0.0671*%
%ADD41R,0.1173X0.1173*%
%ADD42C,0.0580*%
%ADD43R,0.0580X0.0580*%
%ADD44C,0.0540*%
%ADD45R,0.0780X0.0780*%
%ADD46C,0.0780*%
%ADD47C,0.1380*%
%ADD48C,0.1540*%
%ADD49R,0.0671X0.0671*%
%ADD50C,0.0631*%
%ADD51C,0.0330*%
D10*
X43450Y22400D02*
X46150D01*
Y27400D01*
X43450D02*
X46150D01*
X43450Y22400D02*
Y27400D01*
X43650Y32550D02*
X46350D01*
Y37550D01*
X43650D02*
X46350D01*
X43650Y32550D02*
Y37550D01*
X11700Y14301D02*
Y16899D01*
Y14301D02*
X16700D01*
Y16899D01*
X11700D02*
X16700D01*
X34150Y5900D02*
X36850D01*
Y10900D01*
X34150D02*
X36850D01*
X34150Y5900D02*
Y10900D01*
X42150Y5900D02*
X44850D01*
Y10900D01*
X42150D02*
X44850D01*
X42150Y5900D02*
Y10900D01*
X15250Y5850D02*
Y10850D01*
X17950D01*
Y5850D02*
Y10850D01*
X15250Y5850D02*
X17950D01*
X7200Y5950D02*
Y10950D01*
X9900D01*
Y5950D02*
Y10950D01*
X7200Y5950D02*
X9900D01*
X23688Y6088D02*
X28412D01*
Y10812D01*
X23688D02*
X28412D01*
X23688Y6088D02*
Y10812D01*
X3488Y29838D02*
X8212D01*
Y34562D01*
X3488D02*
X8212D01*
X3488Y29838D02*
Y34562D01*
X-1562Y12238D02*
Y16962D01*
X3162D01*
Y12238D02*
Y16962D01*
X-1562Y12238D02*
X3162D01*
X51638Y28038D02*
Y32762D01*
X56362D01*
Y28038D02*
Y32762D01*
X51638Y28038D02*
X56362D01*
X48988Y11288D02*
Y16012D01*
X53712D01*
Y11288D02*
Y16012D01*
X48988Y11288D02*
X53712D01*
X-4262Y25638D02*
X462D01*
Y30362D01*
X-4262D02*
X462D01*
X-4262Y25638D02*
Y30362D01*
Y34038D02*
X462D01*
Y38762D01*
X-4262D02*
X462D01*
X-4262Y34038D02*
Y38762D01*
D15*
X31414Y35330D02*
G03*
X31414Y35330I-197J0D01*
G01*
X23170Y28665D02*
X24430D01*
Y28035D02*
Y28665D01*
X23170Y28035D02*
X24430D01*
X23170D02*
Y28665D01*
X19620Y28935D02*
X20880D01*
X19620D02*
Y29565D01*
X20880D01*
Y28935D02*
Y29565D01*
X17835Y31570D02*
Y32830D01*
X18465D01*
Y31570D02*
Y32830D01*
X17835Y31570D02*
X18465D01*
X26535Y32939D02*
Y34198D01*
X27165D01*
Y32939D02*
Y34198D01*
X26535Y32939D02*
X27165D01*
X19820Y35485D02*
X21080D01*
X19820D02*
Y36115D01*
X21080D01*
Y35485D02*
Y36115D01*
X23170Y29565D02*
X24430D01*
Y28935D02*
Y29565D01*
X23170Y28935D02*
X24430D01*
X23170D02*
Y29565D01*
X19620Y28035D02*
X20880D01*
X19620D02*
Y28665D01*
X20880D01*
Y28035D02*
Y28665D01*
X18785Y31570D02*
Y32830D01*
X19415D01*
Y31570D02*
Y32830D01*
X18785Y31570D02*
X19415D01*
X25635Y32920D02*
Y34180D01*
X26265D01*
Y32920D02*
Y34180D01*
X25635Y32920D02*
X26265D01*
X19820Y36435D02*
X21080D01*
X19820D02*
Y37065D01*
X21080D01*
Y36435D02*
Y37065D01*
X20482Y34322D02*
X20678Y34518D01*
X20482Y30582D02*
Y34518D01*
Y30582D02*
X24418D01*
Y34518D01*
X20482D02*
X24418D01*
X30863Y33716D02*
X32437D01*
X30863Y35684D02*
X32437D01*
Y33716D02*
Y35684D01*
X30863Y33716D02*
Y35684D01*
X43056Y22006D02*
X46544D01*
Y27794D01*
X43056D02*
X46544D01*
X43056Y22006D02*
Y27794D01*
X43256Y32156D02*
X46744D01*
Y37944D01*
X43256D02*
X46744D01*
X43256Y32156D02*
Y37944D01*
X11306Y13907D02*
Y17293D01*
Y13907D02*
X17094D01*
Y17293D01*
X11306D02*
X17094D01*
X33756Y5507D02*
X37244D01*
Y11294D01*
X33756D02*
X37244D01*
X33756Y5507D02*
Y11294D01*
X41756Y5506D02*
X45244D01*
Y11294D01*
X41756D02*
X45244D01*
X41756Y5506D02*
Y11294D01*
X14856Y5456D02*
Y11244D01*
X18344D01*
Y5456D02*
Y11244D01*
X14856Y5456D02*
X18344D01*
X6806Y5557D02*
Y11344D01*
X10294D01*
Y5557D02*
Y11344D01*
X6806Y5557D02*
X10294D01*
X22172Y11206D02*
X29495D01*
Y5694D02*
Y11206D01*
X22172Y5694D02*
X29495D01*
X22172D02*
Y11206D01*
X1972Y34956D02*
X9295D01*
Y29444D02*
Y34956D01*
X1972Y29444D02*
X9295D01*
X1972D02*
Y34956D01*
X-3078Y11844D02*
Y17356D01*
Y11844D02*
X4245D01*
Y17356D01*
X-3078D02*
X4245D01*
X50122Y27644D02*
Y33156D01*
Y27644D02*
X57445D01*
Y33156D01*
X50122D02*
X57445D01*
X47472Y10894D02*
Y16406D01*
Y10894D02*
X54795D01*
Y16406D01*
X47472D02*
X54795D01*
X-5778Y30756D02*
X1545D01*
Y25244D02*
Y30756D01*
X-5778Y25244D02*
X1545D01*
X-5778D02*
Y30756D01*
X31650Y34503D02*
Y34897D01*
X31453Y34700D02*
X31847D01*
X-5778Y39156D02*
X1545D01*
Y33644D02*
Y39156D01*
X-5778Y33644D02*
X1545D01*
X-5778D02*
Y39156D01*
D21*
X22997Y28759D02*
X24603D01*
Y27941D02*
Y28759D01*
X22997Y27941D02*
X24603D01*
X22997D02*
Y28759D01*
X19447Y28841D02*
X21053D01*
X19447D02*
Y29659D01*
X21053D01*
Y28841D02*
Y29659D01*
X17741Y31397D02*
Y33003D01*
X18559D01*
Y31397D02*
Y33003D01*
X17741Y31397D02*
X18559D01*
X26441Y32765D02*
Y34372D01*
X27259D01*
Y32765D02*
Y34372D01*
X26441Y32765D02*
X27259D01*
X19647Y35391D02*
X21253D01*
X19647D02*
Y36209D01*
X21253D01*
Y35391D02*
Y36209D01*
X22989Y29667D02*
X24611D01*
Y28833D02*
Y29667D01*
X22989Y28833D02*
X24611D01*
X22989D02*
Y29667D01*
X19439Y27933D02*
X21061D01*
X19439D02*
Y28767D01*
X21061D01*
Y27933D02*
Y28767D01*
X18683Y31389D02*
Y33011D01*
X19517D01*
Y31389D02*
Y33011D01*
X18683Y31389D02*
X19517D01*
X25533Y32739D02*
Y34361D01*
X26367D01*
Y32739D02*
Y34361D01*
X25533Y32739D02*
X26367D01*
X19639Y36333D02*
X21261D01*
X19639D02*
Y37167D01*
X21261D01*
Y36333D02*
Y37167D01*
X19802Y29902D02*
Y35198D01*
Y29902D02*
X25098D01*
Y35198D01*
X19802D02*
X25098D01*
X30193Y33617D02*
X33107D01*
X30193Y35783D02*
X33107D01*
Y33617D02*
Y35783D01*
X30193Y33617D02*
Y35783D01*
D30*
X23265Y28350D02*
D03*
X24335D02*
D03*
X20785Y29250D02*
D03*
X19715D02*
D03*
X20985Y35800D02*
D03*
X19915D02*
D03*
D31*
X18150Y31665D02*
D03*
Y32735D02*
D03*
X26850Y33033D02*
D03*
Y34104D02*
D03*
D32*
X23249Y29250D02*
D03*
X24351D02*
D03*
X20801Y28350D02*
D03*
X19699D02*
D03*
X21001Y36750D02*
D03*
X19899D02*
D03*
D33*
X19100Y31649D02*
D03*
Y32751D02*
D03*
X25950Y32999D02*
D03*
Y34101D02*
D03*
D34*
X23304Y9434D02*
D03*
X28796D02*
D03*
X23304Y7466D02*
D03*
X28796D02*
D03*
X3104Y33184D02*
D03*
X8596D02*
D03*
X3104Y31216D02*
D03*
X8596D02*
D03*
X3546Y13616D02*
D03*
X-1946D02*
D03*
X3546Y15584D02*
D03*
X-1946D02*
D03*
X56746Y29416D02*
D03*
X51254D02*
D03*
X56746Y31384D02*
D03*
X51254D02*
D03*
X54096Y12666D02*
D03*
X48604D02*
D03*
X54096Y14634D02*
D03*
X48604D02*
D03*
X-4646Y28984D02*
D03*
X846D02*
D03*
X-4646Y27016D02*
D03*
X846D02*
D03*
X-4646Y37384D02*
D03*
X846D02*
D03*
X-4646Y35416D02*
D03*
X846D02*
D03*
D35*
X20974Y34814D02*
D03*
X21170D02*
D03*
X21367D02*
D03*
X21564D02*
D03*
X21761D02*
D03*
X21958D02*
D03*
X22155D02*
D03*
X22352D02*
D03*
X22548D02*
D03*
X22745D02*
D03*
X22942D02*
D03*
X23139D02*
D03*
X23336D02*
D03*
X23533D02*
D03*
X23730D02*
D03*
X23926D02*
D03*
Y30286D02*
D03*
X23730D02*
D03*
X23533D02*
D03*
X23336D02*
D03*
X23139D02*
D03*
X22942D02*
D03*
X22745D02*
D03*
X22548D02*
D03*
X22352D02*
D03*
X22155D02*
D03*
X21958D02*
D03*
X21761D02*
D03*
X21564D02*
D03*
X21367D02*
D03*
X21170D02*
D03*
X20974D02*
D03*
D36*
X24714Y34026D02*
D03*
Y33830D02*
D03*
Y33633D02*
D03*
Y33436D02*
D03*
Y33239D02*
D03*
Y33042D02*
D03*
Y32845D02*
D03*
Y32648D02*
D03*
Y32452D02*
D03*
Y32255D02*
D03*
Y32058D02*
D03*
Y31861D02*
D03*
Y31664D02*
D03*
Y31467D02*
D03*
Y31270D02*
D03*
Y31074D02*
D03*
X20186D02*
D03*
Y31270D02*
D03*
Y31467D02*
D03*
Y31664D02*
D03*
Y31861D02*
D03*
Y32058D02*
D03*
Y32255D02*
D03*
Y32452D02*
D03*
Y32648D02*
D03*
Y32845D02*
D03*
Y33042D02*
D03*
Y33239D02*
D03*
Y33436D02*
D03*
Y33633D02*
D03*
Y33830D02*
D03*
Y34026D02*
D03*
D37*
X32723Y33950D02*
D03*
Y34450D02*
D03*
Y34950D02*
D03*
Y35450D02*
D03*
X30577Y33950D02*
D03*
Y34450D02*
D03*
Y34950D02*
D03*
Y35450D02*
D03*
D38*
X44800Y26750D02*
D03*
Y24900D02*
D03*
Y23050D02*
D03*
X45000Y36900D02*
D03*
Y35050D02*
D03*
Y33200D02*
D03*
X16050Y15600D02*
D03*
X14200D02*
D03*
X35500Y10251D02*
D03*
Y8400D02*
D03*
Y6550D02*
D03*
X43500Y10250D02*
D03*
Y8400D02*
D03*
Y6550D02*
D03*
X16600Y6500D02*
D03*
Y8350D02*
D03*
Y10200D02*
D03*
X8550Y6600D02*
D03*
Y8450D02*
D03*
Y10301D02*
D03*
D39*
X54500Y40150D02*
D03*
D40*
Y39150D02*
D03*
Y38150D02*
D03*
X21800Y41500D02*
D03*
X22800D02*
D03*
X23800D02*
D03*
X24800D02*
D03*
X25800D02*
D03*
X26800D02*
D03*
X27800D02*
D03*
X20800D02*
D03*
X38450Y51000D02*
D03*
X37450D02*
D03*
X36450D02*
D03*
X35450D02*
D03*
X34450D02*
D03*
X33450D02*
D03*
X32450D02*
D03*
X31450D02*
D03*
X30450D02*
D03*
X29450D02*
D03*
X38450Y50000D02*
D03*
X37450D02*
D03*
X36450D02*
D03*
X35450D02*
D03*
X34450D02*
D03*
X33450D02*
D03*
X32450D02*
D03*
X31450D02*
D03*
X30450D02*
D03*
D41*
X12350Y15600D02*
D03*
D42*
X11180Y30462D02*
D03*
Y32037D02*
D03*
Y34399D02*
D03*
Y33611D02*
D03*
Y32824D02*
D03*
Y31249D02*
D03*
Y35186D02*
D03*
Y29674D02*
D03*
Y28887D02*
D03*
Y23375D02*
D03*
Y24950D02*
D03*
Y26525D02*
D03*
Y25737D02*
D03*
Y24163D02*
D03*
Y28100D02*
D03*
Y22588D02*
D03*
Y21800D02*
D03*
Y27312D02*
D03*
Y21013D02*
D03*
X40314Y30462D02*
D03*
Y32037D02*
D03*
Y34399D02*
D03*
Y33611D02*
D03*
Y32824D02*
D03*
Y31249D02*
D03*
Y35186D02*
D03*
Y29674D02*
D03*
Y28887D02*
D03*
Y23375D02*
D03*
Y24950D02*
D03*
Y26525D02*
D03*
Y25737D02*
D03*
Y24163D02*
D03*
Y28100D02*
D03*
Y22588D02*
D03*
Y21800D02*
D03*
Y27312D02*
D03*
Y21013D02*
D03*
D43*
X11180Y35974D02*
D03*
X40314D02*
D03*
D44*
X53250Y17250D02*
D03*
X52250D02*
D03*
X55900Y22350D02*
D03*
X54900D02*
D03*
X55800Y33850D02*
D03*
X54800D02*
D03*
X-3500Y22350D02*
D03*
X-2500D02*
D03*
X3606Y35850D02*
D03*
X4606D02*
D03*
D45*
X38895Y3600D02*
D03*
X13730Y49400D02*
D03*
D46*
X37715Y3600D02*
D03*
X36535D02*
D03*
X35355D02*
D03*
X34175D02*
D03*
X32995D02*
D03*
X31815D02*
D03*
X30635D02*
D03*
X29455D02*
D03*
X14910Y49400D02*
D03*
X16090D02*
D03*
X17270D02*
D03*
X18450D02*
D03*
X19630D02*
D03*
X20810D02*
D03*
X21990D02*
D03*
X23170D02*
D03*
D47*
X38045Y1900D02*
D03*
X30285D02*
D03*
X14580Y51100D02*
D03*
X22340D02*
D03*
D48*
X2500Y2500D02*
D03*
X49900D02*
D03*
X42400Y50400D02*
D03*
X10000D02*
D03*
D49*
X19800Y41500D02*
D03*
X29450Y50000D02*
D03*
D50*
X8450Y35850D02*
D03*
X5450D02*
D03*
X48500Y17250D02*
D03*
X51500D02*
D03*
X53550Y22400D02*
D03*
X50550D02*
D03*
X-700Y22350D02*
D03*
X2300D02*
D03*
X50950Y33850D02*
D03*
X53950D02*
D03*
D51*
X19300Y36350D02*
D03*
X18150Y33150D02*
D03*
X19150Y28300D02*
D03*
X22800D02*
D03*
X26850Y32550D02*
D03*
X30000Y34950D02*
D03*
X32950Y35800D02*
D03*
X33450Y34450D02*
D03*
Y34950D02*
D03*
X23300Y32500D02*
D03*
X22450Y33700D02*
D03*
X21400Y30800D02*
D03*
X22350Y30750D02*
D03*
X12800Y27200D02*
D03*
X12200Y28400D02*
D03*
X11850Y27850D02*
D03*
X48800Y26801D02*
D03*
X-1700Y33850D02*
D03*
X-2000Y34750D02*
D03*
X32700Y38850D02*
D03*
X32600Y39550D02*
D03*
X32200Y38500D02*
D03*
X22300Y32800D02*
D03*
X20700Y31400D02*
D03*
X21550Y35500D02*
D03*
X21100Y33000D02*
D03*
X33800Y30500D02*
D03*
X25300Y33750D02*
D03*
X26600Y35450D02*
D03*
X20400Y27400D02*
D03*
X19550Y31050D02*
D03*
X22300Y34100D02*
D03*
X20350Y37800D02*
D03*
X14850Y35200D02*
D03*
X15605Y37995D02*
D03*
X21350Y29400D02*
D03*
X21400Y27350D02*
D03*
X20550Y26200D02*
D03*
X18450Y29400D02*
D03*
X21550Y31300D02*
D03*
X23750Y27300D02*
D03*
X21550Y33050D02*
D03*
X32450Y30850D02*
D03*
X23550Y32850D02*
D03*
X31000Y38850D02*
D03*
X31350Y38500D02*
D03*
X36550Y40800D02*
D03*
X30800Y40850D02*
D03*
X31300Y39150D02*
D03*
X23450Y33800D02*
D03*
X22150Y29450D02*
D03*
X29950Y42450D02*
D03*
M02*
