G04*
G04 #@! TF.GenerationSoftware,Altium Limited,Altium Designer,19.1.5 (86)*
G04*
G04 Layer_Physical_Order=2*
G04 Layer_Color=16711680*
%FSLAX24Y24*%
%MOIN*%
G70*
G01*
G75*
%ADD11C,0.0100*%
%ADD18C,0.0200*%
%ADD19C,0.0080*%
%ADD50C,0.0150*%
%ADD54C,0.1093*%
%ADD55R,0.0591X0.0591*%
%ADD56C,0.0591*%
%ADD57R,0.1093X0.1093*%
%ADD58C,0.0500*%
%ADD59R,0.0500X0.0500*%
%ADD60R,0.0700X0.0700*%
%ADD61C,0.0700*%
%ADD62C,0.1300*%
%ADD63C,0.1460*%
%ADD64R,0.0591X0.0591*%
%ADD65C,0.0551*%
%ADD66C,0.0250*%
G36*
X21142Y49277D02*
X21136Y49238D01*
X21134Y49201D01*
X21135Y49166D01*
X21139Y49133D01*
X21145Y49103D01*
X21155Y49074D01*
X21169Y49048D01*
X21185Y49024D01*
X21204Y49002D01*
X21073Y48921D01*
X21055Y48937D01*
X21034Y48952D01*
X21009Y48967D01*
X20980Y48982D01*
X20948Y48996D01*
X20874Y49022D01*
X20831Y49035D01*
X20736Y49058D01*
X21150Y49319D01*
X21142Y49277D01*
D02*
G37*
G36*
X22060Y49057D02*
X22025Y49048D01*
X21993Y49037D01*
X21966Y49023D01*
X21942Y49007D01*
X21921Y48989D01*
X21905Y48968D01*
X21892Y48944D01*
X21882Y48918D01*
X21877Y48890D01*
X21875Y48859D01*
X21725Y48961D01*
X21724Y48983D01*
X21722Y49007D01*
X21714Y49063D01*
X21700Y49131D01*
X21654Y49301D01*
X22060Y49057D01*
D02*
G37*
G36*
X30054Y42341D02*
X30053Y42338D01*
X30052Y42332D01*
X30051Y42317D01*
X30050Y42265D01*
X30050Y42248D01*
X29850D01*
X29845Y42343D01*
X30055D01*
X30054Y42341D01*
D02*
G37*
G36*
X30899Y40870D02*
X30901Y40866D01*
X30905Y40862D01*
X30910Y40859D01*
X30916Y40856D01*
X30923Y40854D01*
X30930Y40852D01*
X30939Y40851D01*
X30949Y40850D01*
X30960Y40850D01*
X30947Y40750D01*
X30831Y40755D01*
X30897Y40875D01*
X30899Y40870D01*
D02*
G37*
G36*
X36479Y40730D02*
X36474Y40734D01*
X36469Y40737D01*
X36464Y40740D01*
X36457Y40743D01*
X36450Y40745D01*
X36442Y40747D01*
X36434Y40748D01*
X36424Y40749D01*
X36403Y40750D01*
Y40850D01*
X36414Y40850D01*
X36434Y40852D01*
X36442Y40853D01*
X36450Y40855D01*
X36457Y40857D01*
X36464Y40860D01*
X36469Y40863D01*
X36474Y40866D01*
X36479Y40870D01*
Y40730D01*
D02*
G37*
G36*
X32629Y38780D02*
X32624Y38784D01*
X32619Y38787D01*
X32614Y38790D01*
X32607Y38793D01*
X32600Y38795D01*
X32592Y38797D01*
X32584Y38798D01*
X32574Y38799D01*
X32553Y38800D01*
Y38900D01*
X32564Y38900D01*
X32584Y38902D01*
X32592Y38903D01*
X32600Y38905D01*
X32607Y38907D01*
X32614Y38910D01*
X32619Y38913D01*
X32624Y38916D01*
X32629Y38920D01*
Y38780D01*
D02*
G37*
G36*
X23679Y27230D02*
X23674Y27234D01*
X23669Y27237D01*
X23664Y27240D01*
X23657Y27243D01*
X23650Y27245D01*
X23642Y27247D01*
X23634Y27248D01*
X23624Y27249D01*
X23603Y27250D01*
Y27350D01*
X23614Y27350D01*
X23634Y27352D01*
X23642Y27353D01*
X23650Y27355D01*
X23657Y27357D01*
X23664Y27360D01*
X23669Y27363D01*
X23674Y27366D01*
X23679Y27370D01*
Y27230D01*
D02*
G37*
D11*
X54105Y40545D02*
X54500Y40150D01*
X54895Y40545D01*
X54105Y39755D02*
X54500Y40150D01*
X54895Y39755D01*
X38450Y51000D02*
X38730Y51280D01*
X38450Y51000D02*
X38730Y50721D01*
X38450Y50000D02*
X38730Y50279D01*
X38450Y50000D02*
X38730Y49721D01*
X38170Y51280D02*
X38450Y51000D01*
X38170Y50721D02*
X38450Y51000D01*
X37450D02*
X37729Y50721D01*
X37171Y51280D02*
X37450Y51000D01*
X37729Y51280D01*
X38170Y50279D02*
X38450Y50000D01*
X38170Y49721D02*
X38450Y50000D01*
X37450D02*
X37729Y50279D01*
X37171Y49721D02*
X37450Y50000D01*
X37729Y49721D01*
X37171Y50279D02*
X37450Y50000D01*
X37171Y50721D02*
X37450Y51000D01*
X36450D02*
X36730Y51280D01*
X36170D02*
X36450Y51000D01*
X36170Y50721D02*
X36450Y51000D01*
X36730Y50721D01*
X55800Y33850D02*
Y34200D01*
X55450Y33850D02*
X55800D01*
X56150D01*
X55800Y33500D02*
Y33850D01*
X45000Y33200D02*
X45457Y33657D01*
X44543D02*
X45000Y33200D01*
X45457Y32743D01*
X44543D02*
X45000Y33200D01*
X35171Y51280D02*
X35450Y51000D01*
X34170Y51280D02*
X34450Y51000D01*
X34729Y51280D01*
X33450Y51000D02*
X33730Y51280D01*
X35450Y51000D02*
X35729Y51280D01*
X35171Y50721D02*
X35450Y51000D01*
X35729Y50721D01*
X34450Y51000D02*
X34729Y50721D01*
X34170D02*
X34450Y51000D01*
X33450D02*
X33730Y50721D01*
X33170Y51280D02*
X33450Y51000D01*
X32450D02*
X32729Y51280D01*
X32171D02*
X32450Y51000D01*
X33170Y50721D02*
X33450Y51000D01*
X32171Y50721D02*
X32450Y51000D01*
X32729Y50721D01*
X35450Y50000D02*
X35729Y50279D01*
X35171D02*
X35450Y50000D01*
X34170Y50279D02*
X34450Y50000D01*
X34729Y50279D01*
X35450Y50000D02*
X35729Y49721D01*
X35171D02*
X35450Y50000D01*
X34170Y49721D02*
X34450Y50000D01*
X34729Y49721D01*
X31450Y51000D02*
X31730Y51280D01*
X31170D02*
X31450Y51000D01*
X31730Y50721D01*
X31170D02*
X31450Y51000D01*
X30450D02*
X30729Y51280D01*
X31450Y50000D02*
X31730Y50279D01*
X31450Y50000D02*
X31730Y49721D01*
X31170Y50279D02*
X31450Y50000D01*
X31170Y49721D02*
X31450Y50000D01*
X30171Y50721D02*
X30450Y51000D01*
X30729Y50721D01*
X30171Y51280D02*
X30450Y51000D01*
Y50000D02*
X30729Y50279D01*
X30450Y50000D02*
X30729Y49721D01*
X30171Y50279D02*
X30450Y50000D01*
X30171Y49721D02*
X30450Y50000D01*
X32950Y35800D02*
X33109Y35959D01*
X32791D02*
X32950Y35800D01*
X33109Y35641D01*
X32791D02*
X32950Y35800D01*
X29841Y35109D02*
X30000Y34950D01*
X30159Y35109D01*
X30000Y34950D02*
X30159Y34791D01*
X29841D02*
X30000Y34950D01*
X26850Y32550D02*
X27009Y32391D01*
X26850Y32550D02*
X27009Y32709D01*
X26691D02*
X26850Y32550D01*
X26691Y32391D02*
X26850Y32550D01*
X55900Y22350D02*
X56250D01*
X55550D02*
X55900D01*
Y22700D01*
Y22000D02*
Y22350D01*
X44800Y23050D02*
X45257Y23507D01*
X44800Y23050D02*
X45257Y22593D01*
X44343Y23507D02*
X44800Y23050D01*
X44343Y22593D02*
X44800Y23050D01*
X53250Y17250D02*
X53600D01*
X52900D02*
X53250D01*
Y16900D02*
Y17250D01*
Y17600D01*
X43500Y6550D02*
X43957Y7007D01*
X43043D02*
X43500Y6550D01*
X43957Y6093D01*
X43043D02*
X43500Y6550D01*
X40314Y28100D02*
X40561Y27852D01*
X40314Y27312D02*
X40561Y27560D01*
X40314Y27312D02*
X40561Y27065D01*
X40314Y26525D02*
X40561Y26772D01*
X40314Y25737D02*
X40561Y25490D01*
X40314Y24950D02*
X40561Y25197D01*
X40066Y27852D02*
X40314Y28100D01*
X40066Y27560D02*
X40314Y27312D01*
Y26525D02*
X40561Y26277D01*
X40066Y26772D02*
X40314Y26525D01*
X40066Y26277D02*
X40314Y26525D01*
X40066Y27065D02*
X40314Y27312D01*
Y25737D02*
X40561Y25985D01*
X40314Y24950D02*
X40561Y24703D01*
X40314Y24163D02*
X40561Y24410D01*
X40314Y24163D02*
X40561Y23915D01*
X40066Y25197D02*
X40314Y24950D01*
X40066Y24703D02*
X40314Y24950D01*
X40066Y25985D02*
X40314Y25737D01*
X40066Y25490D02*
X40314Y25737D01*
X40066Y24410D02*
X40314Y24163D01*
X40066Y23915D02*
X40314Y24163D01*
Y23375D02*
X40561Y23128D01*
X40314Y23375D02*
X40561Y23623D01*
X40314Y22588D02*
X40561Y22340D01*
X40314Y21800D02*
X40561Y22048D01*
X40066Y22835D02*
X40314Y22588D01*
X40561Y22835D01*
X40066Y22048D02*
X40314Y21800D01*
X40066Y23623D02*
X40314Y23375D01*
X40066Y23128D02*
X40314Y23375D01*
X40066Y22340D02*
X40314Y22588D01*
X35500Y6550D02*
X35957Y6093D01*
X35043Y7007D02*
X35500Y6550D01*
X35957Y7007D01*
X35043Y6093D02*
X35500Y6550D01*
X23170Y49400D02*
X23488Y49082D01*
X22852Y49718D02*
X23170Y49400D01*
X23488Y49718D01*
X22852Y49082D02*
X23170Y49400D01*
X25300Y33750D02*
X25459Y33909D01*
X25300Y33750D02*
X25459Y33591D01*
X25141Y33909D02*
X25300Y33750D01*
X25141Y33591D02*
X25300Y33750D01*
X19300Y36350D02*
X19459Y36509D01*
X19300Y36350D02*
X19459Y36191D01*
X19141Y36509D02*
X19300Y36350D01*
X19141Y36191D02*
X19300Y36350D01*
X21550Y35500D02*
X21709Y35659D01*
X21391D02*
X21550Y35500D01*
X21391Y35341D02*
X21550Y35500D01*
X21709Y35341D01*
X18150Y33150D02*
X18309Y32991D01*
X17991D02*
X18150Y33150D01*
X3606Y35850D02*
Y36200D01*
Y35850D02*
X3956D01*
X3256D02*
X3606D01*
Y35500D02*
Y35850D01*
X11180Y31249D02*
X11427Y31497D01*
X11180Y32824D02*
X11427Y32577D01*
X11180Y32037D02*
X11427Y32284D01*
X10933Y32577D02*
X11180Y32824D01*
Y32037D02*
X11427Y31789D01*
X10933D02*
X11180Y32037D01*
X10933Y31497D02*
X11180Y31249D01*
X10933Y32284D02*
X11180Y32037D01*
Y31249D02*
X11427Y31002D01*
X11180Y30462D02*
X11427Y30709D01*
X11180Y30462D02*
X11427Y30214D01*
X11180Y29674D02*
X11427Y29922D01*
X11180Y29674D02*
X11427Y29427D01*
X10933Y31002D02*
X11180Y31249D01*
X10933Y30709D02*
X11180Y30462D01*
X10933Y30214D02*
X11180Y30462D01*
X10933Y29922D02*
X11180Y29674D01*
X10933Y29427D02*
X11180Y29674D01*
X22750Y29100D02*
X22909Y29259D01*
X22750Y29100D02*
X22909Y28941D01*
X22591Y29259D02*
X22750Y29100D01*
X22591Y28941D02*
X22750Y29100D01*
X19150Y28300D02*
X19309Y28459D01*
X19150Y28300D02*
X19309Y28141D01*
X18991Y28459D02*
X19150Y28300D01*
X18991Y28141D02*
X19150Y28300D01*
X16600Y6500D02*
X17057Y6043D01*
X16600Y6500D02*
X17057Y6957D01*
X16143D02*
X16600Y6500D01*
X16143Y6043D02*
X16600Y6500D01*
X11180Y28887D02*
X11427Y29135D01*
X10933D02*
X11180Y28887D01*
X-3500Y22350D02*
Y22700D01*
Y22350D02*
X-3150D01*
X-3500Y22000D02*
Y22350D01*
X-3850D02*
X-3500D01*
X8550Y6600D02*
X9007Y7057D01*
X8550Y6600D02*
X9007Y6143D01*
X8093D02*
X8550Y6600D01*
X8093Y7057D02*
X8550Y6600D01*
X40314Y35186D02*
X42300Y33200D01*
X45000D01*
X22150Y28450D02*
Y29450D01*
Y28450D02*
X23300Y27300D01*
X22200Y33550D02*
X22350Y33700D01*
X13100Y33550D02*
X22200D01*
X12801Y33251D02*
X13100Y33550D01*
X22100Y33750D02*
X22300Y33950D01*
X15100Y33750D02*
X22100D01*
X14091Y34759D02*
X15100Y33750D01*
X21850Y27454D02*
Y32800D01*
X20596Y26200D02*
X21850Y27454D01*
X20550Y26200D02*
X20596D01*
X21850Y32800D02*
X22350Y33300D01*
X24450Y31350D02*
X32950D01*
X23300Y32500D02*
X24450Y31350D01*
X22350Y33700D02*
X22450D01*
X20700Y31400D02*
X21300Y30800D01*
X21400D01*
X20650Y32600D02*
X21087D01*
X18000Y29950D02*
X20650Y32600D01*
X18000Y22050D02*
Y29950D01*
X21205Y31645D02*
X21550Y31300D01*
X20145Y31645D02*
X21205D01*
X19550Y31050D02*
X20145Y31645D01*
X22450Y30850D02*
X32450D01*
X22350Y30750D02*
X22450Y30850D01*
X12350Y15600D02*
Y16850D01*
X16050Y20100D02*
X18000Y22050D01*
X16050Y15600D02*
Y20100D01*
X12350Y16850D02*
X17600Y22100D01*
X12800Y24995D02*
Y27200D01*
X11180Y23375D02*
X12800Y24995D01*
X11180Y24163D02*
X12200Y25183D01*
Y28400D01*
X11180Y24950D02*
X11850Y25620D01*
Y27850D01*
X9900Y33850D02*
X10499Y33251D01*
X-1700Y33850D02*
X9900D01*
X10499Y33251D02*
X12801D01*
X-1991Y34759D02*
X14091D01*
X-2000Y34750D02*
X-1991Y34759D01*
X32200Y39150D02*
X32600Y39550D01*
X31300Y39150D02*
X32200D01*
X31000Y38850D02*
X32700D01*
X32950Y31350D02*
X33800Y30500D01*
X17600Y30150D02*
X20450Y33000D01*
X17600Y22100D02*
Y30150D01*
X22300Y32800D02*
X23473D01*
X21087Y32600D02*
X21537Y33050D01*
X20450Y33000D02*
X21100D01*
X22300Y33950D02*
Y34100D01*
X31350Y38500D02*
X32200D01*
X22350Y33300D02*
X22950D01*
X23450Y33800D01*
X18850Y29800D02*
X20950D01*
X21350Y29400D01*
X23300Y27300D02*
X23750D01*
X21550Y33050D02*
X21562Y33038D01*
X18450Y29400D02*
X18850Y29800D01*
X21537Y33050D02*
X21550D01*
X23523Y32850D02*
X23550D01*
X23473Y32800D02*
X23523Y32850D01*
X30800Y40850D02*
X30827D01*
X30877Y40800D01*
X36550D01*
D18*
X35500Y10351D02*
X35550Y10301D01*
X35100Y12917D02*
X35500D01*
X34900D02*
X35100D01*
X35051Y12966D02*
X35100Y12917D01*
X18117D02*
X34900D01*
X34901Y12918D01*
X35051Y12966D02*
Y36700D01*
X38700D01*
X39426Y35974D01*
X40314D01*
X43550Y10301D02*
Y11684D01*
X42317Y12917D02*
X43550Y11684D01*
X35500Y12917D02*
X42317D01*
X35500Y10351D02*
Y12917D01*
X9417D02*
X18117D01*
X16550Y11350D02*
X18117Y12917D01*
X16550Y10301D02*
Y11350D01*
X8550Y10301D02*
Y12050D01*
X9417Y12917D01*
X33691Y38060D02*
X35051Y36700D01*
X30690Y38060D02*
X33691D01*
X29950Y38800D02*
X30690Y38060D01*
X29950Y38800D02*
Y42450D01*
D19*
X40360Y48100D02*
G03*
X40474Y47824I390J0D01*
G01*
X40360Y48100D02*
G03*
X40474Y47824I390J0D01*
G01*
X45824Y42474D02*
G03*
X46100Y42360I276J276D01*
G01*
X45824Y42474D02*
G03*
X46100Y42360I276J276D01*
G01*
X38885Y51000D02*
G03*
X38885Y51000I-435J0D01*
G01*
X37885D02*
G03*
X37885Y51000I-435J0D01*
G01*
Y50000D02*
G03*
X37057Y50187I-435J0D01*
G01*
X36885Y51000D02*
G03*
X36263Y50607I-435J0D01*
G01*
X36637D02*
G03*
X36885Y51000I-187J393D01*
G01*
X37057Y50187D02*
G03*
X36637Y50607I-607J-187D01*
G01*
X36263D02*
G03*
X35843Y50187I187J-607D01*
G01*
X38885Y50000D02*
G03*
X38885Y50000I-435J0D01*
G01*
X37057Y49813D02*
G03*
X37885Y50000I393J187D01*
G01*
X35843Y49813D02*
G03*
X37057Y49813I607J187D01*
G01*
X36940Y40800D02*
G03*
X36606Y41186I-390J0D01*
G01*
Y40414D02*
G03*
X36940Y40800I-56J386D01*
G01*
X55135Y39150D02*
G03*
X54791Y39715I-635J0D01*
G01*
X54892Y38650D02*
G03*
X55135Y39150I-392J500D01*
G01*
Y38150D02*
G03*
X54892Y38650I-635J0D01*
G01*
X54019Y37735D02*
G03*
X55135Y38150I481J415D01*
G01*
X54108Y38650D02*
G03*
X54019Y38565I392J-500D01*
G01*
X54209Y39715D02*
G03*
X54108Y38650I291J-565D01*
G01*
X43950Y38565D02*
G03*
X43656Y38443I0J-415D01*
G01*
X43950Y38565D02*
G03*
X43656Y38443I0J-415D01*
G01*
X45886Y36900D02*
G03*
X45298Y37735I-886J0D01*
G01*
X44217Y36485D02*
G03*
X45886Y36900I783J415D01*
G01*
X56190Y33850D02*
G03*
X56190Y33850I-390J0D01*
G01*
X54393Y34277D02*
G03*
X54393Y33423I-443J-427D01*
G01*
X55390Y33850D02*
G03*
X54393Y34277I-590J0D01*
G01*
Y33423D02*
G03*
X55390Y33850I407J427D01*
G01*
X51566D02*
G03*
X51566Y33850I-616J0D01*
G01*
X45886Y35050D02*
G03*
X45886Y35050I-886J0D01*
G01*
X45686Y33200D02*
G03*
X44435Y33590I-686J0D01*
G01*
Y32810D02*
G03*
X45686Y33200I565J390D01*
G01*
X38900Y37315D02*
G03*
X38607Y37194I0J-415D01*
G01*
X38900Y37315D02*
G03*
X38607Y37193I0J-415D01*
G01*
X39115Y35663D02*
G03*
X39426Y35534I311J311D01*
G01*
X39115Y35663D02*
G03*
X39426Y35534I311J311D01*
G01*
X39978Y35384D02*
G03*
X40032Y34917I336J-197D01*
G01*
X39978Y35384D02*
G03*
X40032Y34917I336J-197D01*
G01*
X42025Y32924D02*
G03*
X42300Y32810I276J276D01*
G01*
X42025Y32924D02*
G03*
X42300Y32810I276J276D01*
G01*
X40032Y34917D02*
G03*
X39874Y34005I282J-518D01*
G01*
X40753D02*
G03*
X40832Y34117I-439J394D01*
G01*
X40904Y33611D02*
G03*
X40753Y34005I-590J0D01*
G01*
Y33218D02*
G03*
X40904Y33611I-439J394D01*
G01*
X39874Y34005D02*
G03*
X39874Y33218I439J-394D01*
G01*
X40904Y32824D02*
G03*
X40753Y33218I-590J0D01*
G01*
X40753Y32430D02*
G03*
X40904Y32824I-439J394D01*
G01*
X39874Y33218D02*
G03*
X39874Y32430I439J-394D01*
G01*
X40904Y32037D02*
G03*
X40753Y32430I-590J0D01*
G01*
X40753Y31643D02*
G03*
X40904Y32037I-439J394D01*
G01*
X39874Y32430D02*
G03*
X39874Y31643I439J-394D01*
G01*
X35885Y51000D02*
G03*
X35885Y51000I-435J0D01*
G01*
X34885D02*
G03*
X34885Y51000I-435J0D01*
G01*
X33885D02*
G03*
X33263Y50607I-435J0D01*
G01*
X33637D02*
G03*
X33885Y51000I-187J393D01*
G01*
X32885D02*
G03*
X32263Y50607I-435J0D01*
G01*
X32637D02*
G03*
X32885Y51000I-187J393D01*
G01*
X34885Y50000D02*
G03*
X34057Y50187I-435J0D01*
G01*
X35843D02*
G03*
X35843Y49813I-393J-187D01*
G01*
X34057D02*
G03*
X34885Y50000I393J187D01*
G01*
X33263Y50607D02*
G03*
X32950Y50392I187J-607D01*
G01*
X34057Y50187D02*
G03*
X33637Y50607I-607J-187D01*
G01*
X32950Y49608D02*
G03*
X34057Y49813I500J392D01*
G01*
X32950Y50392D02*
G03*
X32637Y50607I-500J-392D01*
G01*
X32263D02*
G03*
X31843Y50187I187J-607D01*
G01*
Y49813D02*
G03*
X32950Y49608I607J187D01*
G01*
X30885Y51000D02*
G03*
X30057Y51187I-435J0D01*
G01*
X31885Y51000D02*
G03*
X31885Y51000I-435J0D01*
G01*
X30057Y50813D02*
G03*
X30885Y51000I393J187D01*
G01*
X31843Y50187D02*
G03*
X31843Y49813I-393J-187D01*
G01*
X30885Y50000D02*
G03*
X30085Y50238I-435J0D01*
G01*
Y49762D02*
G03*
X30885Y50000I365J238D01*
G01*
X30057Y51187D02*
G03*
X28930Y50635I-607J-187D01*
G01*
X29970D02*
G03*
X30057Y50813I-520J365D01*
G01*
X30390Y42450D02*
G03*
X29510Y42450I-440J0D01*
G01*
X31000Y41200D02*
G03*
X30827Y41240I-173J-350D01*
G01*
X28895Y41973D02*
G03*
X28773Y42267I-415J0D01*
G01*
X28895Y41973D02*
G03*
X28774Y42267I-415J0D01*
G01*
X27470Y42043D02*
G03*
X27300Y41892I330J-543D01*
G01*
X34002Y38371D02*
G03*
X33691Y38500I-311J-311D01*
G01*
X34002Y38371D02*
G03*
X33691Y38500I-311J-311D01*
G01*
X33797Y37043D02*
G03*
X33504Y37165I-294J-293D01*
G01*
X33797Y37043D02*
G03*
X33504Y37165I-293J-293D01*
G01*
X32990Y39550D02*
G03*
X32324Y39826I-390J0D01*
G01*
X32876Y39274D02*
G03*
X32990Y39550I-276J276D01*
G01*
X31300Y39540D02*
G03*
X30919Y39231I0J-390D01*
G01*
X33090Y38850D02*
G03*
X32822Y39220I-390J0D01*
G01*
X32872Y38500D02*
G03*
X33090Y38850I-172J350D01*
G01*
X34465Y36204D02*
G03*
X34343Y36497I-415J0D01*
G01*
X34465Y36204D02*
G03*
X34343Y36497I-415J0D01*
G01*
X33385Y35360D02*
G03*
X33035Y34950I65J-410D01*
G01*
X34343Y34478D02*
G03*
X34465Y34771I-293J293D01*
G01*
X34343Y34478D02*
G03*
X34465Y34771I-293J294D01*
G01*
X33854Y34160D02*
G03*
X34147Y34282I0J415D01*
G01*
X33854Y34160D02*
G03*
X34147Y34282I0J415D01*
G01*
X33035Y34450D02*
G03*
X33747Y34160I415J0D01*
G01*
X33215Y35800D02*
G03*
X33215Y35800I-265J0D01*
G01*
X33035Y34885D02*
G03*
X33070Y34718I415J0D01*
G01*
X33035Y34885D02*
G03*
X33070Y34718I415J0D01*
G01*
Y34718D02*
G03*
X33035Y34550I380J-168D01*
G01*
X33070Y34718D02*
G03*
X33035Y34550I380J-168D01*
G01*
X33226Y31626D02*
G03*
X32950Y31740I-276J-276D01*
G01*
X33226Y31626D02*
G03*
X32950Y31740I-276J-276D01*
G01*
X31000Y41200D02*
G03*
X30827Y41240I-173J-350D01*
G01*
X30800D02*
G03*
X30570Y40535I0J-390D01*
G01*
X30919Y39231D02*
G03*
X30623Y38749I81J-381D01*
G01*
X30379Y37749D02*
G03*
X30690Y37620I311J311D01*
G01*
X30379Y37749D02*
G03*
X30690Y37620I311J311D01*
G01*
X27300Y41108D02*
G03*
X27815Y40865I500J392D01*
G01*
X29510Y38800D02*
G03*
X29639Y38489I440J0D01*
G01*
X29510Y38800D02*
G03*
X29639Y38489I440J0D01*
G01*
X27815Y37866D02*
G03*
X27937Y37572I415J0D01*
G01*
X27815Y37866D02*
G03*
X27937Y37573I415J0D01*
G01*
X29303Y36207D02*
G03*
X29596Y36085I294J293D01*
G01*
X29303Y36207D02*
G03*
X29596Y36085I293J293D01*
G01*
X30265Y34950D02*
G03*
X30265Y34950I-265J0D01*
G01*
X27015Y35450D02*
G03*
X26600Y35865I-415J0D01*
G01*
Y35035D02*
G03*
X27015Y35450I0J415D01*
G01*
X27115Y32550D02*
G03*
X27115Y32550I-265J0D01*
G01*
X60220Y26450D02*
G03*
X57401Y42360I-46310J0D01*
G01*
X49215Y26801D02*
G03*
X48800Y27216I-415J0D01*
G01*
Y26386D02*
G03*
X49215Y26801I0J415D01*
G01*
X56447Y8140D02*
G03*
X60220Y26450I-42537J18310D01*
G01*
X56290Y22350D02*
G03*
X56290Y22350I-390J0D01*
G01*
X54166Y22400D02*
G03*
X54166Y22400I-616J0D01*
G01*
X55490Y22350D02*
G03*
X55490Y22350I-590J0D01*
G01*
X51166Y22400D02*
G03*
X51166Y22400I-616J0D01*
G01*
X45554Y27216D02*
G03*
X45608Y26386I-754J-465D01*
G01*
X45686Y24900D02*
G03*
X45686Y24900I-886J0D01*
G01*
X45486Y23050D02*
G03*
X45486Y23050I-686J0D01*
G01*
X53640Y17250D02*
G03*
X53640Y17250I-390J0D01*
G01*
X52840D02*
G03*
X51896Y17722I-590J0D01*
G01*
D02*
G03*
X51896Y16778I-396J-472D01*
G01*
X49116Y17250D02*
G03*
X49116Y17250I-616J0D01*
G01*
X51896Y16778D02*
G03*
X52840Y17250I354J472D01*
G01*
X44386Y10250D02*
G03*
X43990Y10989I-886J0D01*
G01*
Y11684D02*
G03*
X43861Y11995I-440J0D01*
G01*
X43990Y11684D02*
G03*
X43861Y11995I-440J0D01*
G01*
X48700Y8140D02*
G03*
X48424Y8026I0J-390D01*
G01*
X48700Y8140D02*
G03*
X48424Y8026I0J-390D01*
G01*
X44624Y4226D02*
G03*
X44510Y3950I276J-276D01*
G01*
X44624Y4226D02*
G03*
X44510Y3950I276J-276D01*
G01*
X42628Y13228D02*
G03*
X42317Y13357I-311J-311D01*
G01*
X42628Y13228D02*
G03*
X42317Y13357I-311J-311D01*
G01*
X43110Y11046D02*
G03*
X44386Y10250I390J-796D01*
G01*
Y8400D02*
G03*
X44386Y8400I-886J0D01*
G01*
X44186Y6550D02*
G03*
X44186Y6550I-686J0D01*
G01*
X40904Y31249D02*
G03*
X40753Y31643I-590J0D01*
G01*
Y30856D02*
G03*
X40904Y31249I-439J394D01*
G01*
Y30462D02*
G03*
X40753Y30856I-590J0D01*
G01*
Y30068D02*
G03*
X40904Y30462I-439J394D01*
G01*
Y28887D02*
G03*
X40753Y29281I-590J0D01*
G01*
X40596Y28369D02*
G03*
X40904Y28887I-282J518D01*
G01*
Y29674D02*
G03*
X40753Y30068I-590J0D01*
G01*
Y29281D02*
G03*
X40904Y29674I-439J394D01*
G01*
X40032Y28369D02*
G03*
X40704Y28100I282J-269D01*
G01*
D02*
G03*
X40596Y28369I-390J0D01*
G01*
X40704Y27312D02*
G03*
X40704Y27312I-390J0D01*
G01*
Y26525D02*
G03*
X40704Y26525I-390J0D01*
G01*
Y25737D02*
G03*
X40704Y25737I-390J0D01*
G01*
Y24950D02*
G03*
X40704Y24950I-390J0D01*
G01*
Y24163D02*
G03*
X40704Y24163I-390J0D01*
G01*
X39874Y30068D02*
G03*
X39874Y29281I439J-394D01*
G01*
Y29281D02*
G03*
X40032Y28369I439J-394D01*
G01*
X39874Y31643D02*
G03*
X39874Y30856I439J-394D01*
G01*
D02*
G03*
X39874Y30068I439J-394D01*
G01*
X40704Y23375D02*
G03*
X40704Y23375I-390J0D01*
G01*
Y22588D02*
G03*
X40704Y22588I-390J0D01*
G01*
X40596Y21531D02*
G03*
X40704Y21800I-282J269D01*
G01*
X40904Y21013D02*
G03*
X40596Y21531I-590J0D01*
G01*
X40704Y21800D02*
G03*
X40032Y21531I-390J0D01*
G01*
D02*
G03*
X40904Y21013I282J-518D01*
G01*
X32840Y30850D02*
G03*
X32835Y30914I-390J0D01*
G01*
X32450Y30460D02*
G03*
X32840Y30850I0J390D01*
G01*
X34190Y30500D02*
G03*
X34076Y30776I-390J0D01*
G01*
X33524Y30224D02*
G03*
X34190Y30500I276J276D01*
G01*
X36386Y10251D02*
G03*
X35940Y11020I-886J0D01*
G01*
X36186Y6550D02*
G03*
X36186Y6550I-686J0D01*
G01*
X38205Y4086D02*
G03*
X37125Y3958I-490J-486D01*
G01*
X39035Y1900D02*
G03*
X39035Y1900I-990J0D01*
G01*
X37125Y3242D02*
G03*
X38205Y3114I590J358D01*
G01*
X37125Y3958D02*
G03*
X35945Y3958I-590J-358D01*
G01*
Y3242D02*
G03*
X37125Y3242I590J358D01*
G01*
X35945Y3958D02*
G03*
X34765Y3958I-590J-358D01*
G01*
X35060Y11020D02*
G03*
X36386Y10251I440J-769D01*
G01*
Y8400D02*
G03*
X36386Y8400I-886J0D01*
G01*
X34765Y3958D02*
G03*
X33585Y3958I-590J-358D01*
G01*
X34765Y3242D02*
G03*
X35945Y3242I590J358D01*
G01*
X33585D02*
G03*
X34765Y3242I590J358D01*
G01*
X33585Y3958D02*
G03*
X32405Y3958I-590J-358D01*
G01*
Y3242D02*
G03*
X33585Y3242I590J358D01*
G01*
X31225D02*
G03*
X32405Y3242I590J358D01*
G01*
Y3958D02*
G03*
X31225Y3958I-590J-358D01*
G01*
D02*
G03*
X30045Y3958I-590J-358D01*
G01*
Y3242D02*
G03*
X31225Y3242I590J358D01*
G01*
X30045Y3958D02*
G03*
X30045Y3242I-590J-358D01*
G01*
X31275Y1900D02*
G03*
X31275Y1900I-990J0D01*
G01*
X23660Y49400D02*
G03*
X22680Y49400I-490J0D01*
G01*
D02*
G03*
X23660Y49400I490J0D01*
G01*
X22271Y48770D02*
G03*
X22680Y49400I-281J630D01*
G01*
X27300Y41892D02*
G03*
X26300Y41892I-500J-392D01*
G01*
X25300D02*
G03*
X24300Y41892I-500J-392D01*
G01*
X26300D02*
G03*
X25300Y41892I-500J-392D01*
G01*
X24300D02*
G03*
X23300Y41892I-500J-392D01*
G01*
X22300Y41108D02*
G03*
X23300Y41108I500J392D01*
G01*
Y41892D02*
G03*
X22300Y41892I-500J-392D01*
G01*
X23330Y51100D02*
G03*
X23330Y51100I-990J0D01*
G01*
X22680Y49400D02*
G03*
X21400Y49758I-690J0D01*
G01*
D02*
G03*
X20220Y49758I-590J-358D01*
G01*
D02*
G03*
X19040Y49758I-590J-358D01*
G01*
Y49042D02*
G03*
X20220Y49042I590J358D01*
G01*
D02*
G03*
X20633Y48733I590J358D01*
G01*
X19040Y49758D02*
G03*
X17860Y49758I-590J-358D01*
G01*
Y49042D02*
G03*
X19040Y49042I590J358D01*
G01*
X22300Y41892D02*
G03*
X21300Y41892I-500J-392D01*
G01*
D02*
G03*
X20435Y42020I-500J-392D01*
G01*
Y40980D02*
G03*
X21300Y41108I365J520D01*
G01*
X26300D02*
G03*
X27300Y41108I500J392D01*
G01*
X25300D02*
G03*
X26300Y41108I500J392D01*
G01*
X24300D02*
G03*
X25300Y41108I500J392D01*
G01*
X23300D02*
G03*
X24300Y41108I500J392D01*
G01*
X23207Y35157D02*
G03*
X23500Y35035I293J293D01*
G01*
X23206Y35157D02*
G03*
X23500Y35035I294J293D01*
G01*
X22690Y34100D02*
G03*
X21912Y34140I-390J0D01*
G01*
X25565Y33750D02*
G03*
X25565Y33750I-265J0D01*
G01*
X23726Y33524D02*
G03*
X23840Y33800I-276J276D01*
G01*
D02*
G03*
X23174Y34076I-390J0D01*
G01*
X22838Y33740D02*
G03*
X22690Y34007I-388J-40D01*
G01*
X23523Y33240D02*
G03*
X23430Y33229I0J-390D01*
G01*
X23940Y32850D02*
G03*
X23550Y33240I-390J0D01*
G01*
X23523D02*
G03*
X23430Y33229I0J-390D01*
G01*
X23800Y32551D02*
G03*
X23940Y32850I-250J299D01*
G01*
X22240Y30376D02*
G03*
X22611Y30460I110J374D01*
G01*
X22540Y29450D02*
G03*
X22240Y29829I-390J0D01*
G01*
X21300Y41108D02*
G03*
X22300Y41108I500J392D01*
G01*
X21443Y38093D02*
G03*
X21150Y38215I-293J-293D01*
G01*
X21444Y38093D02*
G03*
X21150Y38215I-294J-293D01*
G01*
X20350D02*
G03*
X20350Y37385I0J-415D01*
G01*
X19565Y36350D02*
G03*
X19565Y36350I-265J0D01*
G01*
X21815Y35500D02*
G03*
X21815Y35500I-265J0D01*
G01*
X17885Y33160D02*
G03*
X18415Y33150I265J-10D01*
G01*
X16680Y49758D02*
G03*
X15500Y49758I-590J-358D01*
G01*
X17860D02*
G03*
X16680Y49758I-590J-358D01*
G01*
X15570Y51100D02*
G03*
X15570Y51100I-990J0D01*
G01*
X15500Y49758D02*
G03*
X14420Y49886I-590J-358D01*
G01*
X16680Y49042D02*
G03*
X17860Y49042I590J358D01*
G01*
X15500D02*
G03*
X16680Y49042I590J358D01*
G01*
X14420Y48914D02*
G03*
X15500Y49042I490J486D01*
G01*
X16015Y37931D02*
G03*
X16020Y37995I-410J64D01*
G01*
X15893Y35757D02*
G03*
X16015Y36050I-293J293D01*
G01*
X15893Y35756D02*
G03*
X16015Y36050I-293J294D01*
G01*
X16020Y37995D02*
G03*
X15312Y38288I-415J0D01*
G01*
X15307Y38283D02*
G03*
X15185Y37990I293J-293D01*
G01*
X15307Y38283D02*
G03*
X15185Y37990I293J-293D01*
G01*
X14557Y35594D02*
G03*
X14435Y35300I293J-294D01*
G01*
X14557Y35593D02*
G03*
X14435Y35300I293J-293D01*
G01*
X11926Y47824D02*
G03*
X12040Y48100I-276J276D01*
G01*
X11926Y47824D02*
G03*
X12040Y48100I-276J276D01*
G01*
X6300Y42360D02*
G03*
X6576Y42474I0J390D01*
G01*
X6300Y42360D02*
G03*
X6576Y42474I0J390D01*
G01*
X6066Y35850D02*
G03*
X5010Y36280I-616J0D01*
G01*
X9066Y35850D02*
G03*
X9066Y35850I-616J0D01*
G01*
X5010Y35420D02*
G03*
X6066Y35850I440J430D01*
G01*
X5010Y36280D02*
G03*
X5010Y35420I-404J-430D01*
G01*
X3996Y35850D02*
G03*
X3996Y35850I-390J0D01*
G01*
X14435Y35200D02*
G03*
X15257Y35120I415J0D01*
G01*
X14367Y35035D02*
G03*
X14091Y35149I-276J-276D01*
G01*
X14367Y35035D02*
G03*
X14091Y35149I-276J-276D01*
G01*
X13100Y33940D02*
G03*
X12824Y33826I0J-390D01*
G01*
X13100Y33940D02*
G03*
X12824Y33826I0J-390D01*
G01*
X11570Y35186D02*
G03*
X11516Y35384I-390J0D01*
G01*
X11568Y35149D02*
G03*
X11570Y35186I-388J37D01*
G01*
X10791Y34369D02*
G03*
X11569Y34369I389J30D01*
G01*
X10844Y35384D02*
G03*
X10792Y35149I336J-197D01*
G01*
X11569Y33641D02*
G03*
X10791Y33641I-389J-30D01*
G01*
X12801Y32861D02*
G03*
X13077Y32976I0J390D01*
G01*
X12801Y32861D02*
G03*
X13077Y32976I0J390D01*
G01*
X11570Y32824D02*
G03*
X11568Y32861I-390J0D01*
G01*
X10792D02*
G03*
X11570Y32824I388J-37D01*
G01*
Y32037D02*
G03*
X11570Y32037I-390J0D01*
G01*
Y31249D02*
G03*
X11570Y31249I-390J0D01*
G01*
X17324Y30426D02*
G03*
X17210Y30150I276J-276D01*
G01*
X17324Y30426D02*
G03*
X17210Y30150I276J-276D01*
G01*
X11570Y30462D02*
G03*
X11570Y30462I-390J0D01*
G01*
Y29674D02*
G03*
X11570Y29674I-390J0D01*
G01*
X10223Y32976D02*
G03*
X10499Y32861I276J276D01*
G01*
X10223Y32976D02*
G03*
X10499Y32861I276J276D01*
G01*
X-1991Y35149D02*
G03*
X-2267Y35035I0J-390D01*
G01*
X-1991Y35149D02*
G03*
X-2267Y35035I0J-390D01*
G01*
X-2276Y35026D02*
G03*
X-1918Y34369I276J-276D01*
G01*
X10176Y34126D02*
G03*
X9900Y34240I-276J-276D01*
G01*
X10176Y34126D02*
G03*
X9900Y34240I-276J-276D01*
G01*
X-1700D02*
G03*
X-1700Y33460I0J-390D01*
G01*
X23015Y29100D02*
G03*
X22540Y29262I-265J0D01*
G01*
Y28938D02*
G03*
X23015Y29100I210J162D01*
G01*
X24140Y27300D02*
G03*
X23806Y27686I-390J0D01*
G01*
X21074Y29124D02*
G03*
X21460Y29026I276J276D01*
G01*
X22126Y27178D02*
G03*
X22240Y27454I-276J276D01*
G01*
X22126Y27178D02*
G03*
X22240Y27454I-276J276D01*
G01*
X21460Y27761D02*
G03*
X21421Y27764I-60J-411D01*
G01*
X23806Y26914D02*
G03*
X24140Y27300I-56J386D01*
G01*
X23024Y27024D02*
G03*
X23300Y26910I276J276D01*
G01*
X23024Y27024D02*
G03*
X23300Y26910I276J276D01*
G01*
X20421Y27814D02*
G03*
X20379Y26986I-21J-414D01*
G01*
X20596Y25810D02*
G03*
X20872Y25924I0J390D01*
G01*
X20596Y25810D02*
G03*
X20872Y25924I0J390D01*
G01*
X20408Y26563D02*
G03*
X20550Y25810I142J-363D01*
G01*
X19415Y28300D02*
G03*
X19415Y28300I-265J0D01*
G01*
X18390Y29015D02*
G03*
X18726Y29124I60J385D01*
G01*
X18276Y21774D02*
G03*
X18390Y22050I-276J276D01*
G01*
X18276Y21774D02*
G03*
X18390Y22050I-276J276D01*
G01*
X17486Y10200D02*
G03*
X16990Y10996I-886J0D01*
G01*
X16937Y15600D02*
G03*
X16440Y16396I-886J0D01*
G01*
X15660D02*
G03*
X16937Y15600I390J-796D01*
G01*
X16239Y11661D02*
G03*
X16110Y11350I311J-311D01*
G01*
X16239Y11661D02*
G03*
X16110Y11350I311J-311D01*
G01*
Y10939D02*
G03*
X17486Y10200I490J-738D01*
G01*
Y8350D02*
G03*
X17486Y8350I-886J0D01*
G01*
X17286Y6500D02*
G03*
X17286Y6500I-686J0D01*
G01*
X11462Y28618D02*
G03*
X11570Y28887I-282J269D01*
G01*
D02*
G03*
X10898Y28618I-390J0D01*
G01*
X12590Y28400D02*
G03*
X11810Y28400I-390J0D01*
G01*
X11756Y28228D02*
G03*
X11462Y28618I-576J-129D01*
G01*
X13190Y27200D02*
G03*
X12590Y27529I-390J0D01*
G01*
X11810Y28238D02*
G03*
X11756Y28228I40J-388D01*
G01*
X13076Y24719D02*
G03*
X13190Y24995I-276J276D01*
G01*
X13076Y24719D02*
G03*
X13190Y24995I-276J276D01*
G01*
X11770Y23375D02*
G03*
X11769Y23412I-590J0D01*
G01*
X11619Y22982D02*
G03*
X11770Y23375I-439J394D01*
G01*
Y22588D02*
G03*
X11619Y22982I-590J0D01*
G01*
X11462Y22070D02*
G03*
X11770Y22588I-282J518D01*
G01*
X11570Y21800D02*
G03*
X11462Y22070I-390J0D01*
G01*
X10898Y28618D02*
G03*
X10741Y27706I282J-518D01*
G01*
Y26131D02*
G03*
X10741Y25344I439J-394D01*
G01*
X10741Y27706D02*
G03*
X10741Y26919I439J-394D01*
G01*
D02*
G03*
X10741Y26131I439J-394D01*
G01*
X10741Y25344D02*
G03*
X10741Y24556I439J-394D01*
G01*
Y24556D02*
G03*
X10741Y23769I439J-394D01*
G01*
D02*
G03*
X10741Y22982I439J-394D01*
G01*
X10898Y22070D02*
G03*
X10898Y21531I282J-269D01*
G01*
X10741Y22982D02*
G03*
X10898Y22070I439J-394D01*
G01*
X2916Y22350D02*
G03*
X2916Y22350I-616J0D01*
G01*
X-84D02*
G03*
X-84Y22350I-616J0D01*
G01*
X-1910D02*
G03*
X-1910Y22350I-590J0D01*
G01*
X-5001Y42360D02*
G03*
X-4047Y8140I43491J-15910D01*
G01*
X-3110Y22350D02*
G03*
X-3110Y22350I-390J0D01*
G01*
X15086Y15600D02*
G03*
X15086Y15600I-886J0D01*
G01*
X12074Y17125D02*
G03*
X11960Y16850I276J-276D01*
G01*
X12074Y17125D02*
G03*
X11960Y16850I276J-276D01*
G01*
X10898Y21531D02*
G03*
X11770Y21013I282J-518D01*
G01*
D02*
G03*
X11462Y21531I-590J0D01*
G01*
D02*
G03*
X11570Y21800I-282J269D01*
G01*
X9417Y13357D02*
G03*
X9106Y13228I0J-440D01*
G01*
X9417Y13357D02*
G03*
X9106Y13228I0J-440D01*
G01*
X9436Y10301D02*
G03*
X8990Y11070I-886J0D01*
G01*
X8239Y12361D02*
G03*
X8110Y12050I311J-311D01*
G01*
X8239Y12361D02*
G03*
X8110Y12050I311J-311D01*
G01*
Y11070D02*
G03*
X9436Y10301I440J-769D01*
G01*
Y8450D02*
G03*
X9436Y8450I-886J0D01*
G01*
X9236Y6600D02*
G03*
X9236Y6600I-686J0D01*
G01*
X7890Y3800D02*
G03*
X7776Y4076I-390J0D01*
G01*
X7890Y3800D02*
G03*
X7776Y4076I-390J0D01*
G01*
X3826Y8026D02*
G03*
X3550Y8140I-276J-276D01*
G01*
X3826Y8026D02*
G03*
X3550Y8140I-276J-276D01*
G01*
X54700Y40585D02*
Y42360D01*
X54900Y40585D02*
Y42360D01*
X54300Y40585D02*
Y42360D01*
X54500Y40585D02*
Y42360D01*
X54100Y40585D02*
Y42360D01*
X55100Y39359D02*
Y42360D01*
X53700Y38565D02*
Y42360D01*
X53900Y39359D02*
Y42360D01*
X49900Y38565D02*
Y42360D01*
X46100D02*
X57401D01*
X49500Y38565D02*
Y42360D01*
X49700Y38565D02*
Y42360D01*
X53100Y38565D02*
Y42360D01*
X53500Y38565D02*
Y42360D01*
X50100Y38565D02*
Y42360D01*
X50300Y38565D02*
Y42360D01*
X54935Y40450D02*
X58053D01*
X54935Y40250D02*
X58116D01*
X54935Y39715D02*
Y40585D01*
Y40050D02*
X58178D01*
X54065Y39715D02*
Y40585D01*
X54935D01*
X52700Y38565D02*
Y42360D01*
X52900Y38565D02*
Y42360D01*
X50700Y38565D02*
Y42360D01*
X52500Y38565D02*
Y42360D01*
X50500Y38565D02*
Y42360D01*
X38859Y50850D02*
X40360D01*
X38709Y50650D02*
X40360D01*
X38806Y51250D02*
X40360D01*
X38882Y51050D02*
X40360D01*
Y48100D02*
Y52510D01*
X38882Y50050D02*
X40360D01*
X38700Y50356D02*
Y50644D01*
X38806Y50250D02*
X40360D01*
X38500Y51432D02*
Y52510D01*
X38700Y51356D02*
Y52510D01*
X38500Y50432D02*
Y50568D01*
X48300Y38565D02*
Y42360D01*
X48500Y38565D02*
Y42360D01*
X47900Y38565D02*
Y42360D01*
X48100Y38565D02*
Y42360D01*
X49100Y38565D02*
Y42360D01*
X49300Y38565D02*
Y42360D01*
X48700Y38565D02*
Y42360D01*
X48900Y38565D02*
Y42360D01*
X38859Y49850D02*
X40360D01*
X38709Y49650D02*
X40360D01*
X40474Y47824D02*
X45824Y42474D01*
X46500Y38565D02*
Y42360D01*
X46700Y38565D02*
Y42360D01*
X46100Y38565D02*
Y42360D01*
X46300Y38565D02*
Y42360D01*
X47300Y38565D02*
Y42360D01*
X47500Y38565D02*
Y42360D01*
X46900Y38565D02*
Y42360D01*
X47100Y38565D02*
Y42360D01*
X44900Y38565D02*
Y43398D01*
X45100Y38565D02*
Y43198D01*
X44500Y38565D02*
Y43798D01*
X44700Y38565D02*
Y43598D01*
X45700Y38565D02*
Y42598D01*
X45900Y38565D02*
Y42415D01*
X45300Y38565D02*
Y42998D01*
X45500Y38565D02*
Y42798D01*
X53300Y38565D02*
Y42360D01*
X55700Y34227D02*
Y42360D01*
X52100Y38565D02*
Y42360D01*
X52300Y38565D02*
Y42360D01*
X55900Y34227D02*
Y42360D01*
X56100Y34099D02*
Y42360D01*
X55300Y34163D02*
Y42360D01*
X55500Y34099D02*
Y42360D01*
X51100Y38565D02*
Y42360D01*
X51300Y38565D02*
Y42360D01*
X47700Y38565D02*
Y42360D01*
X50900Y38565D02*
Y42360D01*
X51700Y38565D02*
Y42360D01*
X51900Y38565D02*
Y42360D01*
X51500Y38565D02*
Y42360D01*
X40300Y37315D02*
Y52510D01*
X40500Y37315D02*
Y47798D01*
X39900Y37315D02*
Y52510D01*
X40100Y37315D02*
Y52510D01*
X41100Y37315D02*
Y47198D01*
X41300Y37315D02*
Y46998D01*
X40700Y37315D02*
Y47598D01*
X40900Y37315D02*
Y47398D01*
X39500Y37315D02*
Y52510D01*
X39700Y37315D02*
Y52510D01*
X39100Y37315D02*
Y52510D01*
X39300Y37315D02*
Y52510D01*
X38900Y37315D02*
Y52510D01*
X38700Y37264D02*
Y49644D01*
X38500Y37140D02*
Y49568D01*
X44100Y38565D02*
Y44198D01*
X44300Y38565D02*
Y43998D01*
X43700Y38482D02*
Y44598D01*
X43900Y38562D02*
Y44398D01*
X43300Y38087D02*
Y44998D01*
X43500Y38287D02*
Y44798D01*
X42900Y37687D02*
Y45398D01*
X43100Y37887D02*
Y45198D01*
X42500Y37315D02*
Y45798D01*
X42700Y37487D02*
Y45598D01*
X42100Y37315D02*
Y46198D01*
X42300Y37315D02*
Y45998D01*
X41700Y37315D02*
Y46598D01*
X41900Y37315D02*
Y46398D01*
X41500Y37315D02*
Y46798D01*
X38300Y51409D02*
Y52510D01*
X38100Y51259D02*
Y52510D01*
X37882Y51050D02*
X38018D01*
X37859Y50850D02*
X38041D01*
X38100Y50259D02*
Y50741D01*
X29898Y51450D02*
X40360D01*
X37806Y51250D02*
X38094D01*
X37500Y51432D02*
Y52510D01*
X37700Y51356D02*
Y52510D01*
X37709Y50650D02*
X38191D01*
X38300Y50409D02*
Y50591D01*
X37700Y50356D02*
Y50644D01*
X37806Y50250D02*
X38094D01*
X37882Y50050D02*
X38018D01*
X37859Y49850D02*
X38041D01*
X36898Y50450D02*
X40360D01*
X37500Y50432D02*
Y50568D01*
X37100Y51259D02*
Y52510D01*
X37300Y51409D02*
Y52510D01*
X36500Y51432D02*
Y52510D01*
X36700Y51356D02*
Y52510D01*
X36806Y51250D02*
X37094D01*
X36900Y50448D02*
Y52510D01*
X36882Y51050D02*
X37018D01*
X36100Y51259D02*
Y52510D01*
X36300Y51409D02*
Y52510D01*
X35806Y51250D02*
X36094D01*
X35882Y51050D02*
X36018D01*
X36859Y50850D02*
X37041D01*
X36709Y50650D02*
X37191D01*
X36700Y50584D02*
Y50644D01*
X37100Y50259D02*
Y50741D01*
X37300Y50409D02*
Y50591D01*
X37034Y50250D02*
X37094D01*
X35859Y50850D02*
X36041D01*
X35709Y50650D02*
X36191D01*
X36100Y50530D02*
Y50741D01*
X33898Y50450D02*
X36002D01*
X36768Y49450D02*
X40360D01*
X37709Y49650D02*
X38191D01*
X38300Y37140D02*
Y49591D01*
X27990Y43050D02*
X45248D01*
X37900Y37140D02*
Y52510D01*
X38100Y37140D02*
Y49741D01*
X26790Y44250D02*
X44048D01*
X26990Y44050D02*
X44248D01*
X26390Y44650D02*
X43648D01*
X26590Y44450D02*
X43848D01*
X27590Y43450D02*
X44848D01*
X27790Y43250D02*
X45048D01*
X27190Y43850D02*
X44448D01*
X27390Y43650D02*
X44648D01*
X30390Y42050D02*
X57513D01*
X30390Y41850D02*
X57584D01*
X30390Y42450D02*
X45851D01*
X30393Y42250D02*
X57441D01*
X36937Y40850D02*
X57924D01*
X36910Y40650D02*
X57989D01*
X36849Y41050D02*
X57858D01*
X36722Y40450D02*
X54065D01*
X30390Y41650D02*
X57654D01*
X30390Y41450D02*
X57723D01*
X30133Y42850D02*
X45448D01*
X30342Y42650D02*
X45648D01*
X30390Y41250D02*
X57791D01*
X30390Y40250D02*
X54065D01*
X30390Y40050D02*
X54065D01*
X36980Y49650D02*
X37191D01*
X36900Y40972D02*
Y49552D01*
X36700Y41160D02*
Y49416D01*
X36500Y41212D02*
Y49367D01*
X37700Y37140D02*
Y49644D01*
X37500Y37140D02*
Y49568D01*
X37100Y37140D02*
Y49741D01*
X37300Y37140D02*
Y49591D01*
X36444Y41208D02*
X36479Y41213D01*
X35709Y49650D02*
X35920D01*
X33768Y49450D02*
X36132D01*
X36300Y41190D02*
Y49383D01*
X36499Y41212D02*
X36533Y41206D01*
X36100Y41190D02*
Y49470D01*
X36533Y41206D02*
X36567Y41201D01*
X36533Y40394D02*
X36567Y40399D01*
X36900Y37140D02*
Y40628D01*
X36700Y37140D02*
Y40440D01*
X36499Y40388D02*
X36533Y40394D01*
X36500Y37140D02*
Y40388D01*
X36410Y41206D02*
X36444Y41208D01*
X36410Y40394D02*
X36444Y40392D01*
X31029Y41190D02*
X36361D01*
X30991Y40410D02*
X36361D01*
X36300Y37140D02*
Y40410D01*
X36444Y40392D02*
X36479Y40387D01*
X36100Y37140D02*
Y40410D01*
X55127Y39050D02*
X58473D01*
X55060Y38850D02*
X58529D01*
X55060Y39450D02*
X58358D01*
X55127Y39250D02*
X58416D01*
X55127Y38050D02*
X58744D01*
X55060Y37850D02*
X58795D01*
X55060Y38450D02*
X58638D01*
X55127Y38250D02*
X58691D01*
X54892Y39650D02*
X58299D01*
X54892Y38650D02*
X58584D01*
X54935Y39850D02*
X58239D01*
X54892Y37650D02*
X58845D01*
X45695Y37450D02*
X58895D01*
X45885Y36850D02*
X59037D01*
X45850Y36650D02*
X59083D01*
X45814Y37250D02*
X58943D01*
X45874Y37050D02*
X58991D01*
X45863Y34850D02*
X59452D01*
X54088Y34450D02*
X59524D01*
X45863Y35250D02*
X59376D01*
X45886Y35050D02*
X59414D01*
X45250Y36050D02*
X59214D01*
X45381Y35850D02*
X59256D01*
X45763Y36450D02*
X59127D01*
X45602Y36250D02*
X59171D01*
X45791Y35450D02*
X59337D01*
X45791Y34650D02*
X59488D01*
X45652Y35650D02*
X59297D01*
X54900Y39644D02*
Y39715D01*
X54791D02*
X54935D01*
X54100Y39644D02*
Y39715D01*
X54065D02*
X54209D01*
X55100Y38359D02*
Y38941D01*
X53900Y38565D02*
Y38941D01*
X43950Y38565D02*
X54019D01*
X53900Y34464D02*
Y37735D01*
X45298D02*
X54019D01*
X50900Y34464D02*
Y37735D01*
X45700Y37444D02*
Y37735D01*
X45473Y37650D02*
X54108D01*
X45500Y37632D02*
Y37735D01*
X45300Y35884D02*
Y36066D01*
X45652Y34450D02*
X50812D01*
X51088D02*
X53812D01*
X45700Y35594D02*
Y36357D01*
X45500Y35782D02*
Y36169D01*
X44900Y35931D02*
Y36020D01*
X45100Y35931D02*
Y36020D01*
X44500Y35782D02*
Y36169D01*
X44700Y35884D02*
Y36066D01*
X44300Y35594D02*
Y36357D01*
X55100Y34358D02*
Y37941D01*
X55234Y34250D02*
X59558D01*
X54900Y34431D02*
Y37656D01*
X54700Y34431D02*
Y37547D01*
X56135Y34050D02*
X59592D01*
X55355D02*
X55465D01*
X54300Y34356D02*
Y37547D01*
X54500Y34358D02*
Y37515D01*
X53700Y34413D02*
Y37735D01*
X54100Y34447D02*
Y37656D01*
X53500Y34270D02*
Y37735D01*
X51418Y34250D02*
X53482D01*
X56190Y33850D02*
X59625D01*
X56135Y33650D02*
X59657D01*
X55234Y33450D02*
X59688D01*
X55355Y33650D02*
X55465D01*
X51088Y33250D02*
X53812D01*
X54088D02*
X59718D01*
X51532Y34050D02*
X53368D01*
X51418Y33450D02*
X53482D01*
X45591Y32850D02*
X59776D01*
X45411Y32650D02*
X59803D01*
X45670Y33050D02*
X59747D01*
X51100Y34447D02*
Y37735D01*
X51300Y34356D02*
Y37735D01*
X50500Y34270D02*
Y37735D01*
X50700Y34413D02*
Y37735D01*
X51500Y34127D02*
Y37735D01*
X45500Y33670D02*
Y34318D01*
X45381Y34250D02*
X50482D01*
X44700Y33817D02*
Y34216D01*
X44300Y33590D02*
Y34506D01*
X44500Y33670D02*
Y34318D01*
X43900Y33590D02*
Y36485D01*
X44100Y33590D02*
Y36485D01*
X43700Y33590D02*
Y36485D01*
X45219Y33850D02*
X50334D01*
X51566D02*
X53334D01*
X45300Y33817D02*
Y34216D01*
X45100Y33879D02*
Y34169D01*
X51532Y33650D02*
X53368D01*
X45684Y33250D02*
X50812D01*
X45518Y33650D02*
X50368D01*
X45639Y33450D02*
X50482D01*
X44900Y33879D02*
Y34169D01*
X34123Y38250D02*
X43463D01*
X34323Y38050D02*
X43263D01*
X34523Y37850D02*
X43063D01*
X34723Y37650D02*
X42863D01*
X42528Y37315D02*
X43656Y38443D01*
X34923Y37450D02*
X42663D01*
X38900Y37315D02*
X42528D01*
X41300Y34752D02*
Y36485D01*
X32849Y39850D02*
X54065D01*
X32977Y39650D02*
X54108D01*
X32977Y39450D02*
X53940D01*
X32852Y39250D02*
X53873D01*
X33090Y38850D02*
X53940D01*
X33035Y38650D02*
X54108D01*
X33035Y39050D02*
X53873D01*
X33895Y38450D02*
X43663D01*
X42700Y36485D02*
X44217D01*
X40904Y36450D02*
X44237D01*
X41002Y35050D02*
X44114D01*
X41202Y34850D02*
X44137D01*
X41402Y34650D02*
X44209D01*
X41602Y34450D02*
X44348D01*
X41500Y34552D02*
Y36485D01*
X41700Y34352D02*
Y36485D01*
X40904Y36050D02*
X44750D01*
X40904Y35850D02*
X44619D01*
X40904Y36485D02*
X42700D01*
X40904Y36250D02*
X44398D01*
X40904Y35650D02*
X44348D01*
X40904Y35450D02*
X44209D01*
X40802Y35250D02*
X44137D01*
X38518Y36260D02*
X39115Y35663D01*
X38553Y37140D02*
X38607Y37193D01*
X40904Y35384D02*
Y36485D01*
X41100Y34952D02*
Y36485D01*
X35123Y37250D02*
X38677D01*
X35233Y37140D02*
X38553D01*
X35491Y36260D02*
X38518D01*
X35491Y36250D02*
X38528D01*
X35491Y35850D02*
X38928D01*
X35491Y35650D02*
X39128D01*
X35491Y36050D02*
X38728D01*
X40700Y35352D02*
Y35384D01*
X40668D02*
X40904D01*
X39724D02*
Y35534D01*
Y35384D02*
X39978D01*
X40900Y35152D02*
Y35384D01*
X39900Y34819D02*
Y35384D01*
X35491Y35250D02*
X39929D01*
X35491Y35050D02*
X39948D01*
X39426Y35534D02*
X39724D01*
X35491Y35450D02*
X39724D01*
X35491Y34850D02*
X39934D01*
X35491Y34650D02*
X39780D01*
X35491Y34450D02*
X39726D01*
X42700Y33590D02*
Y36485D01*
X42402Y33650D02*
X44482D01*
X42300Y33752D02*
Y36485D01*
X42500Y33590D02*
Y36485D01*
X43300Y33590D02*
Y36485D01*
X43500Y33590D02*
Y36485D01*
X42900Y33590D02*
Y36485D01*
X43100Y33590D02*
Y36485D01*
X41802Y34250D02*
X44619D01*
X42002Y34050D02*
X50368D01*
X41900Y34152D02*
Y36485D01*
X42100Y33952D02*
Y36485D01*
X40668Y35384D02*
X42462Y33590D01*
X42202Y33850D02*
X44781D01*
X40832Y34117D02*
X42025Y32924D01*
X40903Y33650D02*
X41299D01*
X42462Y33590D02*
X44435D01*
X40881Y33450D02*
X41499D01*
X40903Y32850D02*
X42128D01*
X40878Y32650D02*
X44589D01*
X40904Y32050D02*
X59880D01*
X42300Y32810D02*
X44435D01*
X40770Y32450D02*
X59830D01*
X40864Y32250D02*
X59855D01*
X40780Y33250D02*
X41699D01*
X40859Y33050D02*
X41899D01*
X40760Y31650D02*
X59927D01*
X40869Y31450D02*
X59949D01*
X40874Y31850D02*
X59904D01*
X40790Y34050D02*
X40899D01*
X40853Y33850D02*
X41099D01*
X40900Y33679D02*
Y34049D01*
Y32891D02*
Y33544D01*
X35491Y34050D02*
X39838D01*
X35491Y33850D02*
X39774D01*
X35491Y34250D02*
X39743D01*
X35491Y33650D02*
X39725D01*
X35491Y33250D02*
X39848D01*
X35491Y33450D02*
X39746D01*
X35491Y33050D02*
X39769D01*
X40900Y32104D02*
Y32757D01*
X35491Y32450D02*
X39858D01*
X35491Y32250D02*
X39764D01*
X35491Y32850D02*
X39724D01*
X35491Y32650D02*
X39750D01*
X35491Y31850D02*
X39754D01*
X35491Y31650D02*
X39868D01*
X35491Y32050D02*
X39724D01*
X35300Y51409D02*
Y52510D01*
X35500Y51432D02*
Y52510D01*
X34500Y51432D02*
Y52510D01*
X34700Y51356D02*
Y52510D01*
X35700Y51356D02*
Y52510D01*
X35100Y51259D02*
Y52510D01*
X34100Y51259D02*
Y52510D01*
X34300Y51409D02*
Y52510D01*
X33900Y50448D02*
Y52510D01*
X34806Y51250D02*
X35094D01*
X34882Y51050D02*
X35018D01*
X34859Y50850D02*
X35041D01*
X34709Y50650D02*
X35191D01*
X33806Y51250D02*
X34094D01*
X33882Y51050D02*
X34018D01*
X33859Y50850D02*
X34041D01*
X33709Y50650D02*
X34191D01*
X33500Y51432D02*
Y52510D01*
X33700Y51356D02*
Y52510D01*
X32500Y51432D02*
Y52510D01*
X33300Y51409D02*
Y52510D01*
X33100Y51259D02*
Y52510D01*
X32700Y51356D02*
Y52510D01*
X32806Y51250D02*
X33094D01*
X32100Y51259D02*
Y52510D01*
X32300Y51409D02*
Y52510D01*
X31700Y51356D02*
Y52510D01*
X31806Y51250D02*
X32094D01*
X32709Y50650D02*
X33191D01*
X32882Y51050D02*
X33018D01*
X32859Y50850D02*
X33041D01*
X33100Y50530D02*
Y50741D01*
X33700Y50584D02*
Y50644D01*
X32700Y50584D02*
Y50644D01*
X32898Y50450D02*
X33002D01*
X31882Y51050D02*
X32018D01*
X31859Y50850D02*
X32041D01*
X31709Y50650D02*
X32191D01*
X32100Y50530D02*
Y50741D01*
X35900Y50318D02*
Y52510D01*
X35700Y50356D02*
Y50644D01*
X35300Y50409D02*
Y50591D01*
X35500Y50432D02*
Y50568D01*
X35806Y50250D02*
X35866D01*
X35100Y50259D02*
Y50741D01*
X34806Y50250D02*
X35094D01*
X34700Y50356D02*
Y50644D01*
X34500Y50432D02*
Y50568D01*
X34900Y41190D02*
Y52510D01*
X35700Y41190D02*
Y49644D01*
X34882Y50050D02*
X35018D01*
X35900Y41190D02*
Y49682D01*
X35500Y41190D02*
Y49568D01*
X35100Y41190D02*
Y49741D01*
X35300Y41190D02*
Y49591D01*
X34859Y49850D02*
X35041D01*
X34709Y49650D02*
X35191D01*
X34700Y41190D02*
Y49644D01*
X34500Y41190D02*
Y49568D01*
X34100Y50259D02*
Y50741D01*
X34300Y50409D02*
Y50591D01*
X32900Y50448D02*
Y52510D01*
X34034Y50250D02*
X34094D01*
X34100Y41190D02*
Y49741D01*
X31900Y50318D02*
Y52510D01*
X31700Y50356D02*
Y50644D01*
X31806Y50250D02*
X31866D01*
X31900Y41190D02*
Y49682D01*
X33980Y49650D02*
X34191D01*
X34300Y41190D02*
Y49591D01*
X33900Y41190D02*
Y49552D01*
X33700Y41190D02*
Y49416D01*
X33300Y41190D02*
Y49383D01*
X33500Y41190D02*
Y49367D01*
X32900Y41190D02*
Y49552D01*
X33100Y41190D02*
Y49470D01*
X32768Y49450D02*
X33132D01*
X32700Y41190D02*
Y49416D01*
X31709Y49650D02*
X31920D01*
X32500Y41190D02*
Y49367D01*
X32100Y41190D02*
Y49470D01*
X32300Y41190D02*
Y49383D01*
X31700Y41190D02*
Y49644D01*
X31500Y51432D02*
Y52510D01*
X31100Y51259D02*
Y52510D01*
X31300Y51409D02*
Y52510D01*
X31100Y50259D02*
Y50741D01*
X30806Y51250D02*
X31094D01*
X30882Y51050D02*
X31018D01*
X30709Y50650D02*
X31191D01*
X30859Y50850D02*
X31041D01*
X31500Y50432D02*
Y50568D01*
X31300Y50409D02*
Y50591D01*
X30882Y50050D02*
X31018D01*
X30085Y50450D02*
X32002D01*
X30806Y50250D02*
X31094D01*
X30859Y49850D02*
X31041D01*
X30709Y49650D02*
X31191D01*
X30085Y49450D02*
X32132D01*
X30500Y51432D02*
Y52510D01*
X30700Y51356D02*
Y52510D01*
X30100Y51259D02*
Y52510D01*
X30300Y51409D02*
Y52510D01*
X30034Y51250D02*
X30094D01*
X29500Y51633D02*
Y52510D01*
X29700Y51584D02*
Y52510D01*
X29100Y51530D02*
Y52510D01*
X29300Y51617D02*
Y52510D01*
X29900Y51448D02*
Y52510D01*
X28900Y51318D02*
Y52510D01*
X30700Y50356D02*
Y50644D01*
X30500Y50432D02*
Y50568D01*
X30100Y50259D02*
Y50741D01*
X30300Y50409D02*
Y50591D01*
X29980Y50650D02*
X30191D01*
X29970Y50635D02*
X30085D01*
X28815D02*
X28930D01*
X30085Y50238D02*
Y50635D01*
Y49650D02*
X30191D01*
X28900Y50635D02*
Y50682D01*
X30900Y41233D02*
Y52510D01*
X30700Y41227D02*
Y49644D01*
X30100Y42864D02*
Y49741D01*
X30300Y42717D02*
Y49591D01*
X31300Y41190D02*
Y49591D01*
X31500Y41190D02*
Y49568D01*
X31100Y41190D02*
Y49741D01*
X30500Y41099D02*
Y49568D01*
X30085Y49365D02*
Y49762D01*
X28815Y49365D02*
X30085D01*
X29900Y42887D02*
Y49365D01*
X28190Y42850D02*
X29767D01*
X29700Y42812D02*
Y49365D01*
X28390Y42650D02*
X29558D01*
X29510Y42415D02*
Y42450D01*
X30391Y42395D02*
X30398Y42358D01*
X30394Y42313D02*
X30398Y42343D01*
X30390Y42403D02*
Y42450D01*
X29507Y42378D02*
X29510Y42414D01*
X30393Y42261D02*
X30394Y42300D01*
X30390Y38982D02*
Y42225D01*
X29510Y38800D02*
Y42217D01*
X28590Y42450D02*
X29510D01*
X28888Y42050D02*
X29510D01*
X29503Y42325D02*
X29508Y42230D01*
X28895Y41850D02*
X29510D01*
X28895Y41450D02*
X29510D01*
X28895Y41250D02*
X29510D01*
X28895Y41650D02*
X29510D01*
X28100Y42940D02*
Y52510D01*
X28815Y49365D02*
Y50635D01*
X27700Y43340D02*
Y52510D01*
X27900Y43140D02*
Y52510D01*
X28700Y42340D02*
Y52510D01*
X28900Y38137D02*
Y49365D01*
X28300Y42740D02*
Y52510D01*
X28500Y42540D02*
Y52510D01*
X26700Y44340D02*
Y52510D01*
X26900Y44140D02*
Y52510D01*
X26300Y44740D02*
Y52510D01*
X26500Y44540D02*
Y52510D01*
X27300Y43740D02*
Y52510D01*
X27500Y43540D02*
Y52510D01*
X27100Y43940D02*
Y52510D01*
X29502Y42343D02*
X29507Y42378D01*
X28790Y42250D02*
X29506D01*
X29300Y37737D02*
Y49365D01*
X29500Y37537D02*
Y49365D01*
X29100Y37937D02*
Y49365D01*
X28895Y38142D02*
Y41973D01*
X26900Y42127D02*
Y42613D01*
X27100Y42060D02*
Y42413D01*
X26500Y42060D02*
Y43013D01*
X26700Y42127D02*
Y42813D01*
X27118Y42050D02*
X27463D01*
X27300Y41892D02*
Y42213D01*
X34900Y37473D02*
Y40410D01*
X35100Y37273D02*
Y40410D01*
X34500Y37873D02*
Y40410D01*
X34700Y37673D02*
Y40410D01*
X35700Y37140D02*
Y40410D01*
X35900Y37140D02*
Y40410D01*
X35300Y37140D02*
Y40410D01*
X35500Y37140D02*
Y40410D01*
X33500Y38500D02*
Y40410D01*
X33700Y38500D02*
Y40410D01*
X33100Y38500D02*
Y40410D01*
X33300Y38500D02*
Y40410D01*
X34100Y38273D02*
Y40410D01*
X34300Y38073D02*
Y40410D01*
X33900Y38447D02*
Y40410D01*
X34002Y38371D02*
X35233Y37140D01*
X33790Y37050D02*
X34079D01*
X33700Y37116D02*
Y37429D01*
X33900Y36940D02*
Y37229D01*
X34300Y36540D02*
Y36829D01*
X34190Y36650D02*
X34479D01*
X34100Y36740D02*
Y37029D01*
X33990Y36850D02*
X34279D01*
X32872Y38500D02*
X33691D01*
X33300Y37165D02*
Y37620D01*
X33500Y37165D02*
Y37620D01*
X33509D02*
X34611Y36518D01*
X32700Y39927D02*
Y40410D01*
X32900Y39799D02*
Y40410D01*
X32300Y39802D02*
Y40410D01*
X32500Y39927D02*
Y40410D01*
X32100Y39602D02*
Y40410D01*
X32038Y39540D02*
X32324Y39826D01*
X31900Y39540D02*
Y40410D01*
X31300Y39540D02*
X32038D01*
X31500D02*
Y40410D01*
X31700Y39540D02*
Y40410D01*
X31300Y39540D02*
Y40410D01*
X31100Y39485D02*
Y40410D01*
X32900Y39185D02*
Y39301D01*
X32822Y39220D02*
X32876Y39274D01*
X32900Y37165D02*
Y37620D01*
X33100Y37165D02*
Y37620D01*
X32500Y37165D02*
Y37620D01*
X32700Y37165D02*
Y37620D01*
X31500Y37165D02*
Y37620D01*
X31700Y37165D02*
Y37620D01*
X31100Y37165D02*
Y37620D01*
X31300Y37165D02*
Y37620D01*
X32100Y37165D02*
Y37620D01*
X32300Y37165D02*
Y37620D01*
X31900Y37165D02*
Y37620D01*
X34465Y36050D02*
X34611D01*
X34465Y35850D02*
X34611D01*
X34384Y36450D02*
X34611D01*
X34462Y36250D02*
X34611D01*
X34465Y35650D02*
X34611D01*
X34465Y35450D02*
X34611D01*
X34465Y34771D02*
Y36204D01*
Y35250D02*
X34611D01*
X33797Y37043D02*
X34343Y36497D01*
X33228Y36085D02*
X33385Y35928D01*
Y35360D02*
Y35928D01*
X33210Y35850D02*
X33385D01*
X33168Y35650D02*
X33385D01*
X34465Y35050D02*
X34611D01*
X34465Y34850D02*
X34611D01*
X34447Y34650D02*
X34611D01*
X34315Y34450D02*
X34611D01*
X34112Y34250D02*
X34611D01*
X34147Y34282D02*
X34343Y34478D01*
X33561Y34050D02*
X34611D01*
X33747Y34160D02*
X33854D01*
X33199Y31650D02*
X34611D01*
X33402Y31450D02*
X34611D01*
X33038Y36050D02*
X33263D01*
X32700Y35888D02*
Y36085D01*
X33100Y36018D02*
Y36085D01*
X33300Y35337D02*
Y36013D01*
X32500Y31740D02*
Y36085D01*
X31500Y31740D02*
Y36085D01*
X31700Y31740D02*
Y36085D01*
X31100Y31740D02*
Y36085D01*
X31300Y31740D02*
Y36085D01*
X32100Y31740D02*
Y36085D01*
X32300Y31740D02*
Y36085D01*
X31900Y31740D02*
Y36085D01*
X33100Y35173D02*
Y35582D01*
X33035Y34885D02*
Y34950D01*
X33100Y31710D02*
Y34227D01*
X33300Y31552D02*
Y34063D01*
X33035Y34450D02*
Y34550D01*
X32700Y31740D02*
Y35712D01*
X32900Y31740D02*
Y35540D01*
X30816Y40412D02*
X30851Y40411D01*
X30750Y40422D02*
X30783Y40418D01*
X30816Y40412D01*
X30869Y40410D02*
X30932Y40407D01*
X30877Y40410D02*
X30991D01*
X30700Y39099D02*
Y40441D01*
X30900Y39227D02*
Y40409D01*
X30390Y40450D02*
X30677D01*
X30594Y40507D02*
X30621Y40487D01*
X30647Y40466D01*
X30698Y40442D02*
X30728Y40428D01*
X30390Y39850D02*
X32351D01*
X30500Y38872D02*
Y40601D01*
X30666Y40454D02*
X30698Y40442D01*
X30390Y39650D02*
X32148D01*
X30390Y39450D02*
X31051D01*
X30390Y39050D02*
X30665D01*
X30522Y38850D02*
X30610D01*
X30690Y37620D02*
X33509D01*
X30390Y38982D02*
X30623Y38749D01*
X30900Y37165D02*
Y37620D01*
X30390Y39250D02*
X30923D01*
X29387Y37650D02*
X30530D01*
X29587Y37450D02*
X33679D01*
X29787Y37250D02*
X33879D01*
X29872Y37165D02*
X33504D01*
X28895Y41050D02*
X29510D01*
X30390D02*
X30465D01*
X28895Y40850D02*
X29510D01*
X28895Y40650D02*
X29510D01*
X30390D02*
X30465D01*
X28895Y39650D02*
X29510D01*
X28895Y39450D02*
X29510D01*
X28895Y39250D02*
X29510D01*
X28895Y40450D02*
X29510D01*
X28895Y40250D02*
X29510D01*
X27248Y41050D02*
X27352D01*
X28895Y40050D02*
X29510D01*
X28895Y39850D02*
X29510D01*
X27815Y37866D02*
Y40865D01*
X28987Y38050D02*
X30078D01*
X29187Y37850D02*
X30278D01*
X29639Y38489D02*
X30379Y37749D01*
X30500Y37165D02*
Y37663D01*
X29700Y37337D02*
Y38428D01*
X30300Y37165D02*
Y37828D01*
X28895Y38650D02*
X29536D01*
X28895Y38450D02*
X29678D01*
X28895Y39050D02*
X29510D01*
X28895Y38850D02*
X29510D01*
X28895Y38250D02*
X29878D01*
X30100Y37165D02*
Y38028D01*
X30700Y37165D02*
Y37620D01*
X29900Y37165D02*
Y38228D01*
X30100Y35195D02*
Y36085D01*
X30700Y31740D02*
Y36085D01*
X30900Y31740D02*
Y36085D01*
X30300Y31740D02*
Y36085D01*
X30500Y31740D02*
Y36085D01*
X28895Y38142D02*
X29872Y37165D01*
X29596Y36085D02*
X33228D01*
X29900Y35195D02*
Y36085D01*
X26711Y35850D02*
X32690D01*
X29700Y31740D02*
Y36085D01*
X30245Y35050D02*
X33047D01*
X30245Y34850D02*
X33037D01*
X30100Y31740D02*
Y34705D01*
X29900Y31740D02*
Y34705D01*
X27015Y35450D02*
X33385D01*
X26964Y35250D02*
X33163D01*
X26964Y35650D02*
X32732D01*
X26711Y35050D02*
X29755D01*
X27095Y32650D02*
X34611D01*
X27095Y32450D02*
X34611D01*
X27937Y37572D02*
X29303Y36207D01*
X29100Y31740D02*
Y36410D01*
X28700Y31740D02*
Y36810D01*
X28900Y31740D02*
Y36610D01*
X28300Y31740D02*
Y37210D01*
X28500Y31740D02*
Y37010D01*
X27900Y31740D02*
Y37615D01*
X28100Y31740D02*
Y37410D01*
X27100Y32638D02*
Y40940D01*
X26900Y35737D02*
Y40873D01*
X26500Y35865D02*
Y40940D01*
X26700Y35853D02*
Y40873D01*
X27500Y31740D02*
Y40940D01*
X27700Y31740D02*
Y40873D01*
X27300Y31740D02*
Y41108D01*
X29300Y31740D02*
Y36210D01*
X26900Y32810D02*
Y35163D01*
X29500Y31740D02*
Y36096D01*
X27100Y31740D02*
Y32462D01*
X26700Y31740D02*
Y32332D01*
X26900Y31740D02*
Y32290D01*
X26700Y32768D02*
Y35047D01*
X26500Y31740D02*
Y35035D01*
X60100Y23118D02*
Y29782D01*
X55100Y22905D02*
Y33342D01*
X54900Y22940D02*
Y33269D01*
X56100Y22685D02*
Y33601D01*
X55900Y22740D02*
Y33473D01*
X55300Y22784D02*
Y33537D01*
X55700Y22685D02*
Y33473D01*
X49187Y26650D02*
X60220D01*
X49022Y26450D02*
X60220D01*
X49132Y27050D02*
X60216D01*
X49212Y26850D02*
X60218D01*
X54500Y22784D02*
Y33342D01*
X54700Y22905D02*
Y33269D01*
X54100Y22676D02*
Y33253D01*
X53900Y22906D02*
Y33236D01*
X56149Y22650D02*
X60064D01*
X56277Y22450D02*
X60047D01*
X55481D02*
X55523D01*
X56277Y22250D02*
X60029D01*
X55481D02*
X55523D01*
X55213Y22850D02*
X60080D01*
X55408Y22650D02*
X55651D01*
X53970Y22850D02*
X54587D01*
X54113Y22650D02*
X54392D01*
X54147Y22250D02*
X54319D01*
X54056Y22050D02*
X54392D01*
X54164Y22450D02*
X54319D01*
X48900Y27204D02*
Y37735D01*
X49100Y27088D02*
Y37735D01*
X48500Y27216D02*
Y37735D01*
X48700Y27216D02*
Y37735D01*
X53100Y22820D02*
Y37735D01*
X53300Y22963D02*
Y37735D01*
X50100Y22820D02*
Y37735D01*
X50300Y22963D02*
Y37735D01*
X46900Y27216D02*
Y37735D01*
X47100Y27216D02*
Y37735D01*
X46500Y27216D02*
Y37735D01*
X46700Y27216D02*
Y37735D01*
X47500Y27216D02*
Y37735D01*
X48300Y27216D02*
Y37735D01*
X47300Y27216D02*
Y37735D01*
X53500Y23014D02*
Y33430D01*
X53700Y22997D02*
Y33287D01*
X50900Y22906D02*
Y33236D01*
X50970Y22850D02*
X53130D01*
X51113Y22650D02*
X52987D01*
X51147Y22250D02*
X52953D01*
X51100Y22676D02*
Y33253D01*
X51164Y22450D02*
X52936D01*
X48100Y27216D02*
Y37735D01*
X47700Y27216D02*
Y37735D01*
X47900Y27216D02*
Y37735D01*
X50500Y23014D02*
Y33430D01*
X50700Y22997D02*
Y33287D01*
X59100Y16327D02*
Y36573D01*
X59300Y17265D02*
Y35635D01*
X58700Y14683D02*
Y38217D01*
X58900Y15472D02*
Y37428D01*
X58300Y13254D02*
Y39646D01*
X58500Y13946D02*
Y38954D01*
X57900Y11976D02*
Y40924D01*
X58100Y12599D02*
Y40301D01*
X57500Y10813D02*
Y42087D01*
X57700Y11382D02*
Y41518D01*
X57100Y9740D02*
Y42360D01*
X57300Y10266D02*
Y42360D01*
X56700Y8740D02*
Y42360D01*
X56900Y9232D02*
Y42360D01*
X56300Y8140D02*
Y42360D01*
X56500Y8265D02*
Y42360D01*
X59900Y21015D02*
Y31885D01*
X56149Y22050D02*
X60010D01*
X59700Y19530D02*
Y33370D01*
X59500Y18316D02*
Y34584D01*
X55700Y8140D02*
Y22015D01*
X56100Y8140D02*
Y22015D01*
X55408Y22050D02*
X55651D01*
X55500Y8140D02*
Y33601D01*
X54300Y8140D02*
Y33344D01*
X54100Y8140D02*
Y22123D01*
X52100Y17821D02*
Y37735D01*
X52300Y17838D02*
Y37735D01*
X51700Y17832D02*
Y37735D01*
X51500Y17866D02*
Y33574D01*
X52700Y17632D02*
Y37735D01*
X52900Y17422D02*
Y37735D01*
X51900Y17725D02*
Y37735D01*
X52500Y17784D02*
Y37735D01*
X49900Y8140D02*
Y37735D01*
X51300Y17832D02*
Y33344D01*
X49100Y17388D02*
Y26514D01*
X48900Y17718D02*
Y26398D01*
X49500Y8140D02*
Y37735D01*
X49700Y8140D02*
Y37735D01*
X49300Y8140D02*
Y37735D01*
X51056Y22050D02*
X53044D01*
X48500Y17866D02*
Y26386D01*
X48700Y17832D02*
Y26386D01*
X48300Y17832D02*
Y26386D01*
X51100Y17718D02*
Y22123D01*
X47900Y17388D02*
Y26386D01*
X48100Y17718D02*
Y26386D01*
X47500Y7102D02*
Y26386D01*
X47700Y7302D02*
Y26386D01*
X47100Y6702D02*
Y26386D01*
X47300Y6902D02*
Y26386D01*
X46700Y6302D02*
Y26386D01*
X46900Y6502D02*
Y26386D01*
X46500Y6102D02*
Y26386D01*
X40877Y29850D02*
X60095D01*
X40903Y29650D02*
X60109D01*
X40904Y31250D02*
X59971D01*
X40904Y30450D02*
X60047D01*
X40881Y29050D02*
X60147D01*
X40903Y28850D02*
X60158D01*
X46100Y27216D02*
Y37735D01*
X46300Y27216D02*
Y37735D01*
X40873Y30650D02*
X60029D01*
X40865Y30250D02*
X60064D01*
X40869Y31050D02*
X59991D01*
X40758Y30850D02*
X60010D01*
X40779Y29250D02*
X60135D01*
X40854Y28650D02*
X60168D01*
X40769Y30050D02*
X60080D01*
X40860Y29450D02*
X60123D01*
X45344Y27450D02*
X60209D01*
X45532Y27250D02*
X60213D01*
X45554Y27216D02*
X48800D01*
X45608Y26386D02*
X48800D01*
X45531Y26250D02*
X60220D01*
X45343Y26050D02*
X60218D01*
X45495Y25450D02*
X60209D01*
X45614Y25250D02*
X60204D01*
X40701Y28050D02*
X60192D01*
X40614Y27850D02*
X60199D01*
X40710Y28450D02*
X60177D01*
X40674Y28250D02*
X60185D01*
X40687Y25850D02*
X60216D01*
X45272Y25650D02*
X60213D01*
X40509Y27650D02*
X60204D01*
X44900Y27631D02*
Y32521D01*
X45100Y27584D02*
Y32521D01*
X44500Y27584D02*
Y32730D01*
X44700Y27631D02*
Y32582D01*
X45900Y27216D02*
Y37735D01*
X45700Y27216D02*
Y34506D01*
X45500Y27294D02*
Y32730D01*
X45300Y27482D02*
Y32582D01*
X44300Y27482D02*
Y32810D01*
X40679Y27450D02*
X44256D01*
X44100Y27294D02*
Y32810D01*
X40699Y27250D02*
X44068D01*
X40603Y27050D02*
X43966D01*
X40529Y26850D02*
X43919D01*
X45100Y25734D02*
Y25916D01*
X44900Y25781D02*
Y25870D01*
X44500Y25734D02*
Y25916D01*
X44700Y25781D02*
Y25870D01*
X45500Y25444D02*
Y26207D01*
X45300Y25632D02*
Y26019D01*
X44100Y25444D02*
Y26207D01*
X44300Y25632D02*
Y26019D01*
X40591Y26250D02*
X44069D01*
X40547Y26050D02*
X44257D01*
X40683Y26650D02*
X43919D01*
X40697Y26450D02*
X43966D01*
X40694Y25650D02*
X44328D01*
X40577Y25450D02*
X44105D01*
X40563Y25250D02*
X43986D01*
X45673Y25050D02*
X60199D01*
X45685Y24850D02*
X60192D01*
X45650Y24650D02*
X60185D01*
X45564Y24450D02*
X60177D01*
X46100Y5702D02*
Y26386D01*
X46300Y5902D02*
Y26386D01*
X45700Y5302D02*
Y26386D01*
X45900Y5502D02*
Y26386D01*
X45402Y24250D02*
X60168D01*
X45051Y24050D02*
X60158D01*
X40547Y23850D02*
X60147D01*
X45500Y5102D02*
Y24356D01*
X45300Y23520D02*
Y24168D01*
X45100Y23667D02*
Y24066D01*
X44900Y23729D02*
Y24019D01*
X45132Y23650D02*
X60135D01*
X45357Y23450D02*
X60123D01*
X45456Y23250D02*
X60109D01*
X45486Y23050D02*
X60095D01*
X45457Y22850D02*
X50130D01*
X45358Y22650D02*
X49987D01*
X45300Y4902D02*
Y22580D01*
X45134Y22450D02*
X49936D01*
X40509Y22250D02*
X49953D01*
X45100Y4702D02*
Y22432D01*
X40614Y22050D02*
X50044D01*
X44900Y4502D02*
Y22371D01*
X43300Y12557D02*
Y32810D01*
X44300Y23520D02*
Y24168D01*
X42900Y12957D02*
Y32810D01*
X43100Y12757D02*
Y32810D01*
X43900Y11951D02*
Y32810D01*
X44100Y10903D02*
Y24356D01*
X43500Y12357D02*
Y32810D01*
X43700Y12157D02*
Y32810D01*
X40563Y24650D02*
X43950D01*
X40577Y24450D02*
X44036D01*
X40691Y25050D02*
X43927D01*
X40691Y24850D02*
X43915D01*
X42700Y13157D02*
Y32810D01*
X40694Y24250D02*
X44198D01*
X42500Y13317D02*
Y32810D01*
X44700Y23729D02*
Y24019D01*
X44500Y23667D02*
Y24066D01*
X40699Y22650D02*
X44242D01*
X44700Y4302D02*
Y22371D01*
X44300Y10632D02*
Y22580D01*
X44500Y390D02*
Y22432D01*
X40687Y24050D02*
X44549D01*
X40591Y23650D02*
X44468D01*
X40697Y23450D02*
X44243D01*
X40683Y23250D02*
X44144D01*
X40603Y22850D02*
X44143D01*
X40679Y22450D02*
X44466D01*
X40529Y23050D02*
X44114D01*
X55213Y21850D02*
X59991D01*
X53585Y17450D02*
X59337D01*
X53826Y21850D02*
X54587D01*
X53640Y17250D02*
X59297D01*
X53585Y17050D02*
X59256D01*
X52684Y16850D02*
X59214D01*
X51638Y17850D02*
X59414D01*
X52684Y17650D02*
X59376D01*
X51638Y16650D02*
X59171D01*
X43607Y12250D02*
X57989D01*
X43807Y12050D02*
X57924D01*
X43958Y11850D02*
X57858D01*
X43990Y11650D02*
X57791D01*
X43990Y11450D02*
X57723D01*
X44291Y10650D02*
X57441D01*
X44363Y10450D02*
X57368D01*
X44386Y10250D02*
X57294D01*
X44363Y10050D02*
X57219D01*
X44291Y9850D02*
X57143D01*
X44264Y8850D02*
X56745D01*
X44350Y8650D02*
X56663D01*
X44385Y8450D02*
X56579D01*
X43990Y11250D02*
X57654D01*
X43990Y11050D02*
X57584D01*
X44153Y10850D02*
X57513D01*
X44152Y9650D02*
X57065D01*
X43881Y9450D02*
X56987D01*
X43751Y9250D02*
X56907D01*
X44102Y9050D02*
X56827D01*
X53300Y17637D02*
Y21837D01*
X53500Y17549D02*
Y21786D01*
X53100Y17610D02*
Y21980D01*
X52805Y17450D02*
X52915D01*
X50827Y21850D02*
X53274D01*
X48638Y17850D02*
X51362D01*
X48968Y17650D02*
X51032D01*
X49082Y17450D02*
X50918D01*
X50900Y17388D02*
Y21894D01*
X52805Y17050D02*
X52915D01*
X48968Y16850D02*
X51032D01*
X49116Y17250D02*
X50884D01*
X49082Y17050D02*
X50918D01*
X48638Y16650D02*
X51362D01*
X44300Y8781D02*
Y9869D01*
X44100Y9052D02*
Y9598D01*
X43990Y10989D02*
Y11684D01*
X43900Y9191D02*
Y9460D01*
X43700Y9263D02*
Y9387D01*
X43500Y9286D02*
Y9364D01*
X54500Y8140D02*
Y21916D01*
X54700Y8140D02*
Y21795D01*
X53900Y8140D02*
Y21894D01*
X53700Y8140D02*
Y21803D01*
X55900Y8140D02*
Y21960D01*
X55300Y8140D02*
Y21916D01*
X55100Y8140D02*
Y21795D01*
X54900Y8140D02*
Y21760D01*
X50300Y8140D02*
Y21837D01*
X50500Y8140D02*
Y21786D01*
X50100Y8140D02*
Y21980D01*
X49100Y8140D02*
Y17112D01*
X52900Y8140D02*
Y17078D01*
X53500Y8140D02*
Y16951D01*
X50700Y8140D02*
Y21803D01*
X50900Y8140D02*
Y17112D01*
X52100Y8140D02*
Y16679D01*
X52300Y8140D02*
Y16662D01*
X51900Y8140D02*
Y16775D01*
X51700Y8140D02*
Y16668D01*
X53100Y8140D02*
Y16890D01*
X53300Y8140D02*
Y16863D01*
X52700Y8140D02*
Y16868D01*
X52500Y8140D02*
Y16716D01*
X51500Y8140D02*
Y16634D01*
X44373Y8250D02*
X56494D01*
X51100Y8140D02*
Y16782D01*
X51300Y8140D02*
Y16668D01*
X48900Y8140D02*
Y16782D01*
X48700Y8140D02*
X56447D01*
X48700D02*
Y16668D01*
X48300Y7902D02*
Y16668D01*
X48500Y8085D02*
Y16634D01*
X48100Y7702D02*
Y16782D01*
X47899Y7501D02*
X48424Y8026D01*
X47900Y7502D02*
Y17112D01*
X47474Y7076D02*
X47899Y7501D01*
X44314Y8050D02*
X48451D01*
X44195Y7850D02*
X48248D01*
X43972Y7650D02*
X48048D01*
X43700Y7206D02*
Y7537D01*
X44300Y390D02*
Y8019D01*
X44100Y6883D02*
Y7748D01*
X43900Y7107D02*
Y7609D01*
X45674Y5276D02*
X47474Y7076D01*
X44179Y6650D02*
X47048D01*
X44179Y6450D02*
X46848D01*
X44117Y6250D02*
X46648D01*
X44624Y4226D02*
X45674Y5276D01*
X44510Y390D02*
Y3950D01*
X43970Y7050D02*
X47448D01*
X44117Y6850D02*
X47248D01*
X44100Y390D02*
Y6217D01*
X43970Y6050D02*
X46448D01*
X43900Y390D02*
Y5992D01*
X43700Y390D02*
Y5893D01*
X43500Y390D02*
Y5863D01*
X40674Y21650D02*
X59971D01*
X40710Y21450D02*
X59949D01*
X40854Y21250D02*
X59927D01*
X40903Y21050D02*
X59904D01*
X40881Y20850D02*
X59880D01*
X40779Y20650D02*
X59855D01*
X40490Y20450D02*
X59830D01*
X35491Y20250D02*
X59803D01*
X35491Y20050D02*
X59776D01*
X35491Y19850D02*
X59747D01*
X35491Y19650D02*
X59718D01*
X35491Y19450D02*
X59688D01*
X35491Y19250D02*
X59657D01*
X35491Y19050D02*
X59625D01*
X35491Y18850D02*
X59592D01*
X35491Y18650D02*
X59558D01*
X35491Y15650D02*
X58943D01*
X35491Y15450D02*
X58895D01*
X35491Y15250D02*
X58845D01*
X35491Y15050D02*
X58795D01*
X35491Y14850D02*
X58744D01*
X35491Y14650D02*
X58691D01*
X35491Y14450D02*
X58638D01*
X35491Y14250D02*
X58584D01*
X35491Y18450D02*
X59524D01*
X35491Y18250D02*
X59488D01*
X35491Y18050D02*
X59452D01*
X35491Y16450D02*
X59127D01*
X35491Y16250D02*
X59083D01*
X35491Y16050D02*
X59037D01*
X35491Y15850D02*
X58991D01*
X40701Y21850D02*
X50273D01*
X35491Y17850D02*
X48362D01*
X35491Y17450D02*
X47918D01*
X35491Y17250D02*
X47884D01*
X35491Y17050D02*
X47918D01*
X42605Y13250D02*
X58299D01*
X35491Y16650D02*
X48362D01*
X35491Y14050D02*
X58529D01*
X35491Y17650D02*
X48032D01*
X35491Y16850D02*
X48032D01*
X35491Y13850D02*
X58473D01*
X35491Y13650D02*
X58416D01*
X35491Y13450D02*
X58358D01*
X42807Y13050D02*
X58239D01*
X43007Y12850D02*
X58178D01*
X43207Y12650D02*
X58116D01*
X43407Y12450D02*
X58053D01*
X42628Y13228D02*
X43861Y11995D01*
X43110Y11046D02*
Y11502D01*
X42900Y10903D02*
Y11712D01*
X43100Y11041D02*
Y11512D01*
X42135Y12477D02*
X43110Y11502D01*
X35940Y11650D02*
X42962D01*
X35940Y12050D02*
X42562D01*
X35940Y11850D02*
X42762D01*
X35940Y11250D02*
X43110D01*
X35940Y11050D02*
X43110D01*
X35940Y11450D02*
X43110D01*
X43500Y7236D02*
Y7514D01*
X43300Y9263D02*
Y9387D01*
Y7206D02*
Y7537D01*
Y390D02*
Y5893D01*
X35880Y9450D02*
X43119D01*
X35752Y9250D02*
X43249D01*
X39585Y4250D02*
X44648D01*
X39585Y4050D02*
X44523D01*
X39585Y3450D02*
X44510D01*
X39585Y3250D02*
X44510D01*
X39585Y3850D02*
X44510D01*
X39585Y3650D02*
X44510D01*
X39034Y1850D02*
X44510D01*
X39003Y1650D02*
X44510D01*
X39585Y3050D02*
X44510D01*
X39024Y2050D02*
X44510D01*
X38868Y2450D02*
X44510D01*
X38971Y2250D02*
X44510D01*
X38324Y2850D02*
X44510D01*
X38691Y2650D02*
X44510D01*
X38792Y1250D02*
X44510D01*
X38553Y1050D02*
X44510D01*
X38927Y1450D02*
X44510D01*
X42700Y10632D02*
Y11912D01*
X36363Y10050D02*
X42637D01*
X36364Y10450D02*
X42637D01*
X36386Y10250D02*
X42614D01*
X42900Y9052D02*
Y9598D01*
X43100Y9191D02*
Y9460D01*
X42700Y8781D02*
Y9869D01*
X36385Y8450D02*
X42615D01*
X36153Y10850D02*
X42847D01*
X36152Y9650D02*
X42848D01*
X36291Y10650D02*
X42709D01*
X36290Y9850D02*
X42709D01*
X36103Y9050D02*
X42898D01*
X36264Y8850D02*
X42736D01*
X36350Y8650D02*
X42650D01*
X36195Y7850D02*
X42805D01*
X43100Y7107D02*
Y7609D01*
X36373Y8250D02*
X42627D01*
X36314Y8050D02*
X42686D01*
X42900Y6883D02*
Y7748D01*
X43100Y390D02*
Y5992D01*
X42700Y390D02*
Y8019D01*
X42900Y390D02*
Y6217D01*
X35972Y7650D02*
X43028D01*
X35970Y7050D02*
X43030D01*
X36117Y6850D02*
X42883D01*
X36179Y6650D02*
X42821D01*
X36117Y6250D02*
X42883D01*
X35970Y6050D02*
X43030D01*
X36179Y6450D02*
X42821D01*
X40900Y31317D02*
Y31969D01*
Y30529D02*
Y31182D01*
Y29742D02*
Y30394D01*
Y28954D02*
Y29607D01*
X40700Y28154D02*
Y28441D01*
Y27367D02*
Y28045D01*
Y26580D02*
Y27257D01*
Y25005D02*
Y25683D01*
Y24217D02*
Y24895D01*
Y25792D02*
Y26470D01*
X40500Y27655D02*
Y27757D01*
X40100Y27638D02*
Y27773D01*
X40500Y26868D02*
Y26969D01*
X40100Y26851D02*
Y26986D01*
Y26064D02*
Y26199D01*
X40500Y26080D02*
Y26182D01*
X40100Y25276D02*
Y25411D01*
X40500Y25293D02*
Y25395D01*
Y24505D02*
Y24607D01*
X40100Y24489D02*
Y24624D01*
X41300Y13357D02*
Y33649D01*
X41500Y13357D02*
Y33449D01*
X41100Y13357D02*
Y33849D01*
X40900Y21080D02*
Y28820D01*
X42100Y13357D02*
Y32865D01*
X42300Y13357D02*
Y32810D01*
X41700Y13357D02*
Y33249D01*
X41900Y13357D02*
Y33049D01*
X40700Y23430D02*
Y24108D01*
X40500Y23718D02*
Y23820D01*
X40700Y22643D02*
Y23320D01*
X40500Y22931D02*
Y23032D01*
X40700Y21855D02*
Y22533D01*
X40500Y22143D02*
Y22245D01*
X40700Y21459D02*
Y21746D01*
X40900Y13357D02*
Y20946D01*
X40700Y13357D02*
Y20567D01*
X40500Y13357D02*
Y20453D01*
X37700Y13357D02*
Y36260D01*
X37900Y13357D02*
Y36260D01*
X37300Y13357D02*
Y36260D01*
X37500Y13357D02*
Y36260D01*
X38500Y13357D02*
Y36260D01*
X38700Y13357D02*
Y36078D01*
X38100Y13357D02*
Y36260D01*
X38300Y13357D02*
Y36260D01*
X36300Y13357D02*
Y36260D01*
X36500Y13357D02*
Y36260D01*
X35900Y13357D02*
Y36260D01*
X36100Y13357D02*
Y36260D01*
X36900Y13357D02*
Y36260D01*
X37100Y13357D02*
Y36260D01*
X36700Y13357D02*
Y36260D01*
X40100Y23701D02*
Y23836D01*
Y22914D02*
Y23049D01*
X40300Y13357D02*
Y20423D01*
X40100Y22127D02*
Y22262D01*
Y13357D02*
Y20463D01*
X39900Y21433D02*
Y28467D01*
Y13357D02*
Y20592D01*
X39500Y13357D02*
Y35534D01*
X39700Y13357D02*
Y35534D01*
X39100Y13357D02*
Y35678D01*
X39300Y13357D02*
Y35552D01*
X38900Y13357D02*
Y35878D01*
X35491Y27050D02*
X40025D01*
X35491Y26850D02*
X40099D01*
X35491Y27450D02*
X39949D01*
X35491Y27250D02*
X39929D01*
X35491Y26250D02*
X40037D01*
X35491Y26050D02*
X40081D01*
X35491Y26650D02*
X39945D01*
X35491Y26450D02*
X39931D01*
X35491Y30850D02*
X39870D01*
X35491Y28450D02*
X39917D01*
X35491Y30050D02*
X39859D01*
X35491Y29250D02*
X39849D01*
X35491Y27850D02*
X40014D01*
X35491Y27650D02*
X40119D01*
X35491Y28250D02*
X39954D01*
X35491Y28050D02*
X39927D01*
X35491Y24450D02*
X40050D01*
X35491Y23850D02*
X40081D01*
X35491Y24250D02*
X39934D01*
X35491Y24050D02*
X39940D01*
X35491Y23650D02*
X40037D01*
X35491Y23050D02*
X40099D01*
X35491Y23450D02*
X39931D01*
X35491Y23250D02*
X39945D01*
X35491Y25450D02*
X40050D01*
X35491Y25250D02*
X40065D01*
X35491Y25850D02*
X39940D01*
X35491Y25650D02*
X39934D01*
X35491Y24850D02*
X39937D01*
X35491Y24650D02*
X40065D01*
X35491Y25050D02*
X39937D01*
X35491Y31450D02*
X39759D01*
X35491Y31050D02*
X39759D01*
X33700Y31152D02*
Y34119D01*
X35491Y31250D02*
X39724D01*
X33802Y31050D02*
X34611D01*
X34002Y30850D02*
X34611D01*
X34100Y30749D02*
Y34241D01*
X33900Y30952D02*
Y34163D01*
X33500Y31352D02*
Y34038D01*
X33602Y31250D02*
X34611D01*
X32840Y30850D02*
X32898D01*
X33226Y31626D02*
X34076Y30776D01*
X32835Y30914D02*
X33524Y30224D01*
X35491Y30650D02*
X39755D01*
X35491Y30250D02*
X39763D01*
X35491Y30450D02*
X39724D01*
X35491Y29850D02*
X39751D01*
X35491Y29050D02*
X39747D01*
X35491Y28650D02*
X39774D01*
X35491Y29650D02*
X39724D01*
X35491Y28850D02*
X39725D01*
X34160Y30650D02*
X34611D01*
X34187Y30450D02*
X34611D01*
X32785Y30650D02*
X33098D01*
X34099Y30250D02*
X34611D01*
X35491Y29450D02*
X39768D01*
X34500Y13357D02*
Y36629D01*
X34300Y13357D02*
Y34435D01*
X34100Y13357D02*
Y30251D01*
X33900Y13357D02*
Y30123D01*
X35500Y13357D02*
Y36260D01*
X35700Y13357D02*
Y36260D01*
X34611Y13357D02*
Y36518D01*
X35491Y13357D02*
Y36260D01*
X32700Y13357D02*
Y30551D01*
X32500Y13357D02*
Y30463D01*
X32100Y13357D02*
Y30460D01*
X32300Y13357D02*
Y30460D01*
X33300Y13357D02*
Y30448D01*
X33500Y13357D02*
Y30248D01*
X32900Y13357D02*
Y30848D01*
X33100Y13357D02*
Y30648D01*
X35491Y21650D02*
X39954D01*
X35491Y21450D02*
X39917D01*
X35491Y21250D02*
X39774D01*
X35491Y21050D02*
X39725D01*
X35491Y20450D02*
X40137D01*
X35500Y13357D02*
X42317D01*
X35491Y20850D02*
X39747D01*
X35491Y20650D02*
X39849D01*
X35491Y22850D02*
X40025D01*
X35491Y22250D02*
X40119D01*
X35491Y22650D02*
X39929D01*
X35491Y22450D02*
X39949D01*
X35491Y22050D02*
X40014D01*
X35491Y21850D02*
X39927D01*
X33700Y13357D02*
Y30123D01*
X30900Y13357D02*
Y30460D01*
X31100Y13357D02*
Y30460D01*
X30500Y13357D02*
Y30460D01*
X30700Y13357D02*
Y30460D01*
X31700Y13357D02*
Y30460D01*
X31900Y13357D02*
Y30460D01*
X31300Y13357D02*
Y30460D01*
X31500Y13357D02*
Y30460D01*
X29500Y13357D02*
Y30460D01*
X29700Y13357D02*
Y30460D01*
X29100Y13357D02*
Y30460D01*
X29300Y13357D02*
Y30460D01*
X30100Y13357D02*
Y30460D01*
X30300Y13357D02*
Y30460D01*
X29900Y13357D02*
Y30460D01*
X28100Y13357D02*
Y30460D01*
X28300Y13357D02*
Y30460D01*
X27700Y13357D02*
Y30460D01*
X27900Y13357D02*
Y30460D01*
X28900Y13357D02*
Y30460D01*
X30900Y4237D02*
Y12477D01*
X28500Y13357D02*
Y30460D01*
X28700Y13357D02*
Y30460D01*
X26700Y13357D02*
Y30460D01*
X26900Y13357D02*
Y30460D01*
X26300Y13357D02*
Y30460D01*
X26500Y13357D02*
Y30460D01*
X27300Y13357D02*
Y30460D01*
X27500Y13357D02*
Y30460D01*
X27100Y13357D02*
Y30460D01*
X39300Y4290D02*
Y12477D01*
X39500Y4290D02*
Y12477D01*
X38900Y4290D02*
Y12477D01*
X39100Y4290D02*
Y12477D01*
X38500Y4290D02*
Y12477D01*
X38700Y4290D02*
Y12477D01*
X38100Y4173D02*
Y12477D01*
X38300Y4290D02*
Y12477D01*
X37700Y4290D02*
Y12477D01*
X35940D02*
X42135D01*
X36100Y10903D02*
Y12477D01*
X36300Y10632D02*
Y12477D01*
X37500Y4256D02*
Y12477D01*
X37900Y4265D02*
Y12477D01*
X36700Y4270D02*
Y12477D01*
X37300Y4151D02*
Y12477D01*
X38205Y4290D02*
X39585D01*
X37947Y4250D02*
X38205D01*
X36500Y4289D02*
Y12477D01*
X36767Y4250D02*
X37483D01*
X38205Y4086D02*
Y4290D01*
X37058Y4050D02*
X37192D01*
X36900Y4186D02*
Y12477D01*
X37100Y3996D02*
Y12477D01*
X35940Y12450D02*
X42162D01*
X35940Y12250D02*
X42362D01*
X36300Y8782D02*
Y9869D01*
Y4249D02*
Y8019D01*
X35587Y4250D02*
X36303D01*
X35940Y11020D02*
Y12477D01*
X35700Y9264D02*
Y9387D01*
X35300Y9264D02*
Y9387D01*
X35500Y9287D02*
Y9365D01*
X36100Y9053D02*
Y9599D01*
Y6883D02*
Y7748D01*
X35900Y9191D02*
Y9460D01*
Y7108D02*
Y7610D01*
X34900Y12477D02*
X35060D01*
X35100Y9191D02*
Y9460D01*
X34900Y10903D02*
Y12477D01*
X35060Y11020D02*
Y12477D01*
X34900Y9053D02*
Y9599D01*
X35100Y7108D02*
Y7610D01*
X34900Y6883D02*
Y7748D01*
X35700Y7206D02*
Y7537D01*
X35500Y7236D02*
Y7514D01*
Y4275D02*
Y5864D01*
X36100Y4136D02*
Y6217D01*
X35878Y4050D02*
X36012D01*
X35900Y4023D02*
Y5992D01*
X35700Y4198D02*
Y5894D01*
X35300Y7206D02*
Y7537D01*
X35100Y4241D02*
Y5992D01*
X35300Y4288D02*
Y5894D01*
X34900Y4119D02*
Y6217D01*
X41500Y390D02*
Y12477D01*
X41700Y390D02*
Y12477D01*
X41100Y390D02*
Y12477D01*
X41300Y390D02*
Y12477D01*
X42300Y390D02*
Y12312D01*
X42500Y390D02*
Y12112D01*
X41900Y390D02*
Y12477D01*
X42100Y390D02*
Y12477D01*
X39900Y390D02*
Y12477D01*
X40100Y390D02*
Y12477D01*
X39700Y390D02*
Y12477D01*
X40700Y390D02*
Y12477D01*
X40900Y390D02*
Y12477D01*
X40300Y390D02*
Y12477D01*
X40500Y390D02*
Y12477D01*
X39585Y2910D02*
Y4290D01*
X39300Y390D02*
Y2910D01*
X38700Y2642D02*
Y2910D01*
X38900Y2399D02*
Y2910D01*
X39100Y390D02*
Y2910D01*
X39500Y390D02*
Y2910D01*
X38900Y390D02*
Y1401D01*
X38700Y390D02*
Y1158D01*
X38500Y2779D02*
Y2910D01*
X38205D02*
X39585D01*
X38205D02*
Y3114D01*
X38300Y2857D02*
Y2910D01*
X38500Y390D02*
Y1021D01*
X38300Y390D02*
Y943D01*
X38132Y3050D02*
X38205D01*
X36952D02*
X37298D01*
X38100Y2888D02*
Y3027D01*
X37100Y2195D02*
Y3204D01*
X37300Y2552D02*
Y3049D01*
X36100Y390D02*
Y3064D01*
X36900Y390D02*
Y3014D01*
X35772Y3050D02*
X36118D01*
X35900Y390D02*
Y3177D01*
X35700Y390D02*
Y3002D01*
X34900Y390D02*
Y3081D01*
X37900Y2879D02*
Y2935D01*
X37700Y2828D02*
Y2910D01*
X37500Y2726D02*
Y2944D01*
X37300Y390D02*
Y1248D01*
X37900Y390D02*
Y921D01*
X38100Y390D02*
Y912D01*
X37500Y390D02*
Y1074D01*
X37700Y390D02*
Y972D01*
X36300Y390D02*
Y2951D01*
X35500Y390D02*
Y2925D01*
X35100Y390D02*
Y2959D01*
X35300Y390D02*
Y2912D01*
X36700Y390D02*
Y2930D01*
X37100Y390D02*
Y1605D01*
X36500Y390D02*
Y2911D01*
X34700Y10632D02*
Y12477D01*
Y8782D02*
Y9869D01*
X34500Y4209D02*
Y12477D01*
X34700Y4048D02*
Y8019D01*
X34100Y4286D02*
Y12477D01*
X34300Y4279D02*
Y12477D01*
X33100Y4282D02*
Y12477D01*
X33900Y4233D02*
Y12477D01*
X32700Y4224D02*
Y12477D01*
X32900Y4283D02*
Y12477D01*
X33500Y4070D02*
Y12477D01*
X33700Y4100D02*
Y12477D01*
X32500Y4081D02*
Y12477D01*
X33300Y4219D02*
Y12477D01*
X34407Y4250D02*
X35123D01*
X34698Y4050D02*
X34832D01*
X33518D02*
X33652D01*
X34592Y3050D02*
X34938D01*
X33412D02*
X33758D01*
X33227Y4250D02*
X33943D01*
X32047D02*
X32763D01*
X32338Y4050D02*
X32472D01*
X32232Y3050D02*
X32578D01*
X31900Y4285D02*
Y12477D01*
X32100Y4228D02*
Y12477D01*
X30700Y4287D02*
Y12477D01*
X31700Y4280D02*
Y12477D01*
X31500Y4214D02*
Y12477D01*
X32300Y4091D02*
Y12477D01*
X31100Y4110D02*
Y12477D01*
X31300Y4059D02*
Y12477D01*
X29700Y4245D02*
Y12477D01*
X30500Y4277D02*
Y12477D01*
X29300Y4272D02*
Y12477D01*
X29500Y4289D02*
Y12477D01*
X30100Y4036D02*
Y12477D01*
X30300Y4203D02*
Y12477D01*
X29900Y4127D02*
Y12477D01*
X30867Y4250D02*
X31583D01*
X31158Y4050D02*
X31292D01*
X31052Y3050D02*
X31398D01*
X30500Y2866D02*
Y2923D01*
X30100Y2873D02*
Y3164D01*
X30300Y2890D02*
Y2997D01*
X29687Y4250D02*
X30403D01*
X29978Y4050D02*
X30112D01*
X28900Y4010D02*
Y12477D01*
X29100Y4192D02*
Y12477D01*
X29872Y3050D02*
X30218D01*
X33500Y390D02*
Y3130D01*
X33700Y390D02*
Y3100D01*
X33300Y390D02*
Y2981D01*
X33100Y390D02*
Y2918D01*
X34700Y390D02*
Y3152D01*
X34500Y390D02*
Y2991D01*
X33900Y390D02*
Y2967D01*
X34300Y390D02*
Y2921D01*
X32100Y390D02*
Y2972D01*
X31700Y390D02*
Y2920D01*
X31300Y390D02*
Y3141D01*
X31500Y390D02*
Y2986D01*
X32500Y390D02*
Y3119D01*
X32700Y390D02*
Y2976D01*
X32300Y390D02*
Y3109D01*
X31211Y2250D02*
X37119D01*
X31243Y1650D02*
X37087D01*
X31264Y2050D02*
X37066D01*
X31274Y1850D02*
X37056D01*
X34100Y390D02*
Y2914D01*
X31167Y1450D02*
X37163D01*
X32900Y390D02*
Y2917D01*
X31900Y390D02*
Y2915D01*
X30564Y2850D02*
X37766D01*
X30931Y2650D02*
X37399D01*
X31108Y2450D02*
X37222D01*
X31032Y1250D02*
X37298D01*
X30793Y1050D02*
X37537D01*
X31100Y390D02*
Y1338D01*
Y2462D02*
Y3090D01*
X29900Y2812D02*
Y3073D01*
X28700Y390D02*
Y12477D01*
X28900Y390D02*
Y3190D01*
X28300Y390D02*
Y12477D01*
X28500Y390D02*
Y12477D01*
X27900Y390D02*
Y12477D01*
X28100Y390D02*
Y12477D01*
X26900Y390D02*
Y12477D01*
X27100Y390D02*
Y12477D01*
X26500Y390D02*
Y12477D01*
X26700Y390D02*
Y12477D01*
X27500Y390D02*
Y12477D01*
X27700Y390D02*
Y12477D01*
X27300Y390D02*
Y12477D01*
X30900Y2676D02*
Y2963D01*
Y390D02*
Y1124D01*
X30700Y2799D02*
Y2913D01*
Y390D02*
Y1001D01*
X30500Y390D02*
Y934D01*
X30300Y390D02*
Y910D01*
X29900Y390D02*
Y988D01*
X30100Y390D02*
Y927D01*
X29700Y2699D02*
Y2955D01*
Y390D02*
Y1101D01*
X29300Y1999D02*
Y2928D01*
X29500Y2503D02*
Y2911D01*
X29300Y390D02*
Y1801D01*
X29500Y390D02*
Y1297D01*
X29100Y390D02*
Y3008D01*
X23266Y51450D02*
X29002D01*
X23319Y51250D02*
X28866D01*
X23329Y51050D02*
X28817D01*
X23298Y50850D02*
X28833D01*
X23364Y49850D02*
X28815D01*
X23591Y49650D02*
X28815D01*
X23500Y49762D02*
Y52510D01*
X23700Y47340D02*
Y52510D01*
X22619Y52050D02*
X40360D01*
X22986Y51850D02*
X40360D01*
X23163Y51650D02*
X40360D01*
X23222Y50650D02*
X28920D01*
X23087Y50450D02*
X28815D01*
X22848Y50250D02*
X28815D01*
X22222Y50050D02*
X28815D01*
X23513Y49050D02*
X40360D01*
X23190Y47850D02*
X40451D01*
X23657Y49450D02*
X28815D01*
X23636Y49250D02*
X40360D01*
X23590Y47450D02*
X40848D01*
X23790Y47250D02*
X41048D01*
X23500Y47540D02*
Y49038D01*
X23390Y47650D02*
X40648D01*
X22407Y48850D02*
X40360D01*
X22390Y48650D02*
X40360D01*
X22790Y48250D02*
X40360D01*
X22990Y48050D02*
X40363D01*
X22590Y48450D02*
X40360D01*
X23100Y51734D02*
Y52510D01*
X23300Y51342D02*
Y52510D01*
X22700Y52022D02*
Y52510D01*
X22900Y51916D02*
Y52510D01*
X23300Y49872D02*
Y50858D01*
X23100Y49885D02*
Y50466D01*
X22900Y49809D02*
Y50284D01*
X22700Y49539D02*
Y50178D01*
X22300Y52089D02*
Y52510D01*
X22500Y52077D02*
Y52510D01*
X21900Y51987D02*
Y52510D01*
X22100Y52060D02*
Y52510D01*
Y50081D02*
Y50140D01*
X22500Y49865D02*
Y50123D01*
X21900Y50084D02*
Y50213D01*
X22664Y49250D02*
X22704D01*
X23300Y47740D02*
Y48928D01*
X23100Y47940D02*
Y48915D01*
X22700Y48340D02*
Y49261D01*
X22900Y48140D02*
Y48991D01*
X22513Y49850D02*
X22976D01*
X22585Y49050D02*
X22827D01*
X22300Y50016D02*
Y50111D01*
X22633Y49650D02*
X22749D01*
X22500Y48540D02*
Y48935D01*
X22300Y48740D02*
Y48784D01*
X25390Y45650D02*
X42648D01*
X25590Y45450D02*
X42848D01*
X25300Y45740D02*
Y52510D01*
X25500Y45540D02*
Y52510D01*
X26100Y44940D02*
Y52510D01*
X25790Y45250D02*
X43048D01*
X25700Y45340D02*
Y52510D01*
X25900Y45140D02*
Y52510D01*
X24390Y46650D02*
X41648D01*
X24590Y46450D02*
X41848D01*
X23990Y47050D02*
X41248D01*
X24190Y46850D02*
X41448D01*
X24990Y46050D02*
X42248D01*
X25190Y45850D02*
X42448D01*
X22271Y48770D02*
X28773Y42267D01*
X24790Y46250D02*
X42048D01*
X25990Y45050D02*
X43248D01*
X26190Y44850D02*
X43448D01*
X25900Y42127D02*
Y43613D01*
X26100Y42060D02*
Y43413D01*
X26118Y42050D02*
X26482D01*
X26300Y41892D02*
Y43213D01*
Y35865D02*
Y41108D01*
X25500Y42060D02*
Y44013D01*
X25700Y42127D02*
Y43813D01*
X25100Y42060D02*
Y44413D01*
X25118Y42050D02*
X25482D01*
X25300Y41892D02*
Y44213D01*
X24300Y46740D02*
Y52510D01*
X24500Y46540D02*
Y52510D01*
X23900Y47140D02*
Y52510D01*
X24100Y46940D02*
Y52510D01*
X24900Y46140D02*
Y52510D01*
X25100Y45940D02*
Y52510D01*
X24700Y46340D02*
Y52510D01*
X23500Y42060D02*
Y46013D01*
X22900Y42127D02*
Y46613D01*
X23100Y42060D02*
Y46413D01*
X22100Y42060D02*
Y47413D01*
X22700Y42127D02*
Y46813D01*
X22500Y42060D02*
Y47013D01*
X23300Y41892D02*
Y46213D01*
X22300Y41892D02*
Y47213D01*
X24700Y42127D02*
Y44813D01*
X24900Y42127D02*
Y44613D01*
X23900Y42127D02*
Y45613D01*
X24500Y42060D02*
Y45013D01*
X24118Y42050D02*
X24482D01*
X24300Y35865D02*
Y41108D01*
X24100Y42060D02*
Y45413D01*
X24300Y41892D02*
Y45213D01*
X23700Y42127D02*
Y45813D01*
X22118Y42050D02*
X22482D01*
X23118D02*
X23482D01*
X23300Y36237D02*
Y41108D01*
X21500Y51624D02*
Y52510D01*
X21700Y51855D02*
Y52510D01*
X15559Y51250D02*
X21361D01*
X15569Y51050D02*
X21351D01*
X21300Y49886D02*
Y52510D01*
X20900Y50084D02*
Y52510D01*
X21100Y50026D02*
Y52510D01*
X12040D02*
X40360D01*
X12040Y52450D02*
X40360D01*
X12040Y52250D02*
X40360D01*
X14859Y52050D02*
X22061D01*
X15226Y51850D02*
X21694D01*
X15403Y51650D02*
X21517D01*
X15506Y51450D02*
X21414D01*
X15538Y50850D02*
X21382D01*
X21700Y50026D02*
Y50345D01*
X21042Y50050D02*
X21758D01*
X15462Y50650D02*
X21458D01*
X15327Y50450D02*
X21593D01*
X21500Y49886D02*
Y50576D01*
X21333Y49850D02*
X21467D01*
X15088Y50250D02*
X21832D01*
X12040Y48250D02*
X21263D01*
X12040Y48650D02*
X20863D01*
X12040Y48450D02*
X21063D01*
X11949Y47850D02*
X21663D01*
X11752Y47650D02*
X21863D01*
X12037Y48050D02*
X21463D01*
X19900Y50035D02*
Y52510D01*
X20700Y50081D02*
Y52510D01*
X19500Y50078D02*
Y52510D01*
X19700Y50086D02*
Y52510D01*
X20300Y49865D02*
Y52510D01*
X20500Y50016D02*
Y52510D01*
X19300Y50006D02*
Y52510D01*
X20100Y49905D02*
Y52510D01*
X18500Y50088D02*
Y52510D01*
X18700Y50043D02*
Y52510D01*
X18100Y49995D02*
Y52510D01*
X18300Y50073D02*
Y52510D01*
X19100Y49842D02*
Y52510D01*
X18900Y49923D02*
Y52510D01*
X19862Y50050D02*
X20578D01*
X20047Y48850D02*
X20393D01*
X18973Y49850D02*
X19107D01*
X20153D02*
X20287D01*
X20654Y48725D02*
X20742Y48703D01*
X20768Y48696D02*
X20822Y48677D01*
X18682Y50050D02*
X19398D01*
X17502D02*
X18218D01*
X17793Y49850D02*
X17927D01*
X18867Y48850D02*
X19213D01*
X17687D02*
X18033D01*
X11152Y47050D02*
X22463D01*
X10952Y46850D02*
X22663D01*
X11552Y47450D02*
X22063D01*
X11352Y47250D02*
X22263D01*
X20856Y48658D02*
X27470Y42043D01*
X10752Y46650D02*
X22863D01*
X21700Y42127D02*
Y47813D01*
X21900Y42127D02*
Y47613D01*
X10152Y46050D02*
X23463D01*
X9952Y45850D02*
X23663D01*
X10552Y46450D02*
X23063D01*
X10352Y46250D02*
X23263D01*
X9352Y45250D02*
X24263D01*
X9152Y45050D02*
X24463D01*
X9752Y45650D02*
X23863D01*
X9552Y45450D02*
X24063D01*
X8552Y44450D02*
X25063D01*
X8352Y44250D02*
X25263D01*
X8952Y44850D02*
X24663D01*
X8752Y44650D02*
X24863D01*
X7952Y43850D02*
X25663D01*
X7752Y43650D02*
X25863D01*
X8152Y44050D02*
X25463D01*
X7152Y43050D02*
X26463D01*
X6952Y42850D02*
X26663D01*
X7552Y43450D02*
X26063D01*
X7352Y43250D02*
X26263D01*
X6549Y42450D02*
X27063D01*
X-5041Y42250D02*
X27263D01*
X6752Y42650D02*
X26863D01*
X20300Y42135D02*
Y48935D01*
X20100Y42135D02*
Y48895D01*
X19900Y42135D02*
Y48765D01*
X19500Y42135D02*
Y48722D01*
X20700Y42127D02*
Y48714D01*
X20900Y42127D02*
Y48613D01*
X20500Y42060D02*
Y48784D01*
X19700Y42135D02*
Y48714D01*
X19100Y36524D02*
Y48958D01*
X19300Y42135D02*
Y48794D01*
X18900Y34140D02*
Y48877D01*
X18700Y34140D02*
Y48757D01*
X18300Y34140D02*
Y48727D01*
X18500Y34140D02*
Y48712D01*
X18100Y34140D02*
Y48805D01*
X21500Y42060D02*
Y48013D01*
X21118Y42050D02*
X21482D01*
X21100Y42060D02*
Y48413D01*
X20435Y42050D02*
X20482D01*
X21300Y41892D02*
Y48213D01*
X20435Y42020D02*
Y42135D01*
X19165D02*
X20435D01*
X-5113Y42050D02*
X19165D01*
X-5184Y41850D02*
X19165D01*
X-5254Y41650D02*
X19165D01*
Y40865D02*
Y42135D01*
X-5391Y41250D02*
X19165D01*
X-5323Y41450D02*
X19165D01*
X26248Y41050D02*
X26352D01*
X26100Y35865D02*
Y40940D01*
X25700Y35865D02*
Y40873D01*
X25900Y35865D02*
Y40873D01*
X25300Y35865D02*
Y41108D01*
X25500Y35865D02*
Y40940D01*
X22087Y37450D02*
X28060D01*
X22287Y37250D02*
X28260D01*
X25248Y41050D02*
X25352D01*
X25100Y35865D02*
Y40940D01*
X22487Y37050D02*
X28460D01*
X24700Y35865D02*
Y40873D01*
X24900Y35865D02*
Y40873D01*
X23672Y35865D02*
X26600D01*
X23749Y34050D02*
X33339D01*
X25300Y34015D02*
Y35035D01*
X23500D02*
X26600D01*
X25500Y33924D02*
Y35035D01*
X25545Y33850D02*
X34611D01*
X25100Y33924D02*
Y35035D01*
X23837Y33850D02*
X25055D01*
X23087Y36450D02*
X29060D01*
X23287Y36250D02*
X29260D01*
X22687Y36850D02*
X28660D01*
X22887Y36650D02*
X28860D01*
X22472Y34450D02*
X33035D01*
X22660Y34250D02*
X33086D01*
X23487Y36050D02*
X32862D01*
X24248Y41050D02*
X24352D01*
X23248D02*
X23352D01*
X23500Y36037D02*
Y40940D01*
X24100Y35865D02*
Y40940D01*
X24500Y35865D02*
Y40940D01*
X23700Y35865D02*
Y40873D01*
X23900Y35865D02*
Y40873D01*
X22300Y37237D02*
Y41108D01*
X22248Y41050D02*
X22352D01*
X22100Y37437D02*
Y40940D01*
X21900Y37637D02*
Y40873D01*
X23100Y36437D02*
Y40940D01*
X22700Y36837D02*
Y40873D01*
X22500Y37037D02*
Y40940D01*
X23500Y34187D02*
Y35035D01*
X22900Y36637D02*
Y40873D01*
X23300Y34160D02*
Y35086D01*
X23700Y34099D02*
Y35035D01*
X22700Y33999D02*
Y35663D01*
X23100Y34002D02*
Y35263D01*
X22300Y34490D02*
Y36063D01*
X22500Y34435D02*
Y35863D01*
X21900Y34140D02*
Y36463D01*
X22100Y34435D02*
Y36263D01*
X22690Y34050D02*
X23148D01*
X22690Y34007D02*
Y34100D01*
X26300Y31740D02*
Y35035D01*
X25545Y33650D02*
X34611D01*
X25900Y31740D02*
Y35035D01*
X25700Y31740D02*
Y35035D01*
X26100Y31740D02*
Y35035D01*
X25500Y31740D02*
Y33576D01*
X25300Y31740D02*
Y33485D01*
X23652Y33450D02*
X34611D01*
X23452Y33250D02*
X34611D01*
X25100Y31740D02*
Y33576D01*
X23885Y33050D02*
X34611D01*
X23940Y32850D02*
X34611D01*
X24102Y32250D02*
X34611D01*
X23885Y32650D02*
X26605D01*
X23902Y32450D02*
X26605D01*
X24302Y32050D02*
X34611D01*
X24502Y31850D02*
X34611D01*
X24612Y31740D02*
X32950D01*
X22968Y29250D02*
X34611D01*
X22240Y30250D02*
X33498D01*
X22240Y30050D02*
X34611D01*
X22611Y30460D02*
X32450D01*
X22599Y30450D02*
X33298D01*
X22485Y29650D02*
X34611D01*
X22540Y29450D02*
X34611D01*
X22240Y29850D02*
X34611D01*
X24100Y32252D02*
Y35035D01*
X23810Y33650D02*
X25055D01*
X23900Y33022D02*
Y35035D01*
X24700Y31740D02*
Y35035D01*
X24900Y31740D02*
Y35035D01*
X24300Y32052D02*
Y35035D01*
X24500Y31852D02*
Y35035D01*
X22838Y33740D02*
X23174Y34076D01*
X22900Y33802D02*
Y35463D01*
X22810Y33850D02*
X22948D01*
X23430Y33229D02*
X23726Y33524D01*
X23700Y33210D02*
Y33498D01*
X23500Y33239D02*
Y33298D01*
X23800Y32551D02*
X24612Y31740D01*
X23900Y32452D02*
Y32678D01*
X22900Y29318D02*
Y30460D01*
X22500Y29622D02*
Y30390D01*
X22240Y29829D02*
Y30376D01*
X22300Y29810D02*
Y30363D01*
X22700Y29360D02*
Y30460D01*
X22540Y29262D02*
Y29450D01*
X-5589Y40650D02*
X27815D01*
X-5653Y40450D02*
X27815D01*
X-5524Y40850D02*
X27815D01*
X-5716Y40250D02*
X27815D01*
X-5778Y40050D02*
X27815D01*
X21500Y38037D02*
Y40940D01*
X21700Y37837D02*
Y40873D01*
X-5958Y39450D02*
X27815D01*
X-6016Y39250D02*
X27815D01*
X-5839Y39850D02*
X27815D01*
X-5899Y39650D02*
X27815D01*
X-6184Y38650D02*
X27815D01*
X-6238Y38450D02*
X27815D01*
X-6073Y39050D02*
X27815D01*
X-6129Y38850D02*
X27815D01*
X21487Y38050D02*
X27815D01*
X21687Y37850D02*
X27816D01*
X21444Y38093D02*
X23672Y35865D01*
X21887Y37650D02*
X27876D01*
X21500Y35760D02*
Y36863D01*
X21700Y35718D02*
Y36663D01*
X15932Y38250D02*
X27815D01*
X19545Y36450D02*
X21913D01*
X16015Y36850D02*
X21513D01*
X16015Y36650D02*
X21713D01*
X16015Y36050D02*
X22313D01*
X15964Y35850D02*
X22513D01*
X19545Y36250D02*
X22113D01*
X21248Y41050D02*
X21352D01*
X21100Y38215D02*
Y40940D01*
X20435Y40865D02*
Y40980D01*
X20900Y38215D02*
Y40873D01*
X21300Y38187D02*
Y41108D01*
X20350Y38215D02*
X21150D01*
X20500D02*
Y40940D01*
X20700Y38215D02*
Y40873D01*
X20300Y38212D02*
Y40865D01*
X19165D02*
X20435D01*
X-5458Y41050D02*
X19165D01*
X20100Y38131D02*
Y40865D01*
X19500Y36524D02*
Y40865D01*
X19300Y36615D02*
Y40865D01*
X16015Y37450D02*
X20127D01*
X20350Y37385D02*
X20978D01*
X16016Y38050D02*
X20019D01*
X16015Y37250D02*
X21113D01*
X16015Y37050D02*
X21313D01*
X16015Y37850D02*
X19938D01*
X16015Y37650D02*
X19963D01*
X16015Y36250D02*
X19055D01*
X15787Y35650D02*
X21332D01*
X16015Y36450D02*
X19055D01*
X21768Y35650D02*
X22713D01*
X21300Y35588D02*
Y37063D01*
X21810Y35450D02*
X22913D01*
X20978Y37385D02*
X23206Y35157D01*
X21100Y34140D02*
Y37263D01*
X20700Y34140D02*
Y37385D01*
X20900Y34140D02*
Y37385D01*
X20300Y34140D02*
Y37388D01*
X20500Y34140D02*
Y37385D01*
X20100Y34140D02*
Y37469D01*
X21700Y34140D02*
Y35282D01*
X21638Y35250D02*
X23113D01*
X15587Y35450D02*
X21290D01*
X21500Y34140D02*
Y35240D01*
X21300Y34140D02*
Y35412D01*
X19012Y29410D02*
X20788D01*
X17324Y30426D02*
X20058Y33160D01*
X18415D02*
X20058D01*
X15073Y34850D02*
X29755D01*
X14752Y34650D02*
X33047D01*
X15387Y35250D02*
X21462D01*
X15237Y35050D02*
X23389D01*
X14952Y34450D02*
X22128D01*
X15152Y34250D02*
X21940D01*
X15262Y34140D02*
X21912D01*
X19700D02*
Y40865D01*
X19900Y34140D02*
Y40865D01*
X19500Y34140D02*
Y36176D01*
X19300Y34140D02*
Y36085D01*
X19700Y32802D02*
Y33160D01*
X19900Y33002D02*
Y33160D01*
X19300Y32402D02*
Y33160D01*
X19500Y32602D02*
Y33160D01*
X19100Y34140D02*
Y36176D01*
Y32202D02*
Y33160D01*
X18700Y31802D02*
Y33160D01*
X18900Y32002D02*
Y33160D01*
X18500Y31602D02*
Y33160D01*
X18395Y33050D02*
X19948D01*
X11569Y32850D02*
X19748D01*
X13152Y33050D02*
X17905D01*
X18300Y31402D02*
Y32932D01*
X11570Y32050D02*
X18948D01*
X18100Y31202D02*
Y32890D01*
X11570Y31250D02*
X18148D01*
X11529Y32650D02*
X19548D01*
X11290Y32450D02*
X19348D01*
X11506Y32250D02*
X19148D01*
X11522Y31850D02*
X18748D01*
X11231Y31650D02*
X18548D01*
X11514Y31450D02*
X18348D01*
X11515Y31050D02*
X17948D01*
X17300Y50089D02*
Y52510D01*
X17500Y50051D02*
Y52510D01*
X16900Y49982D02*
Y52510D01*
X17100Y50069D02*
Y52510D01*
X17700Y49940D02*
Y52510D01*
X17900Y49817D02*
Y52510D01*
X16500Y49955D02*
Y52510D01*
X16700Y49789D02*
Y52510D01*
X15300Y51779D02*
Y52510D01*
X15500Y51466D02*
Y52510D01*
X14700Y52083D02*
Y52510D01*
X14900Y52037D02*
Y52510D01*
X16100Y50090D02*
Y52510D01*
X16300Y50057D02*
Y52510D01*
X15700Y49969D02*
Y52510D01*
X15900Y50063D02*
Y52510D01*
X16322Y50050D02*
X17038D01*
X16613Y49850D02*
X16747D01*
X15300Y49969D02*
Y50421D01*
X15142Y50050D02*
X15858D01*
X15500Y49758D02*
Y50734D01*
X15433Y49850D02*
X15567D01*
X15100Y51942D02*
Y52510D01*
Y50063D02*
Y50258D01*
X14900Y50090D02*
Y50163D01*
X14700Y50057D02*
Y50117D01*
X14420Y50050D02*
X14678D01*
X14300Y52050D02*
Y52510D01*
X14500Y52087D02*
Y52510D01*
X13900Y51820D02*
Y52510D01*
X14100Y51966D02*
Y52510D01*
X13500Y50090D02*
Y52510D01*
X13700Y51554D02*
Y52510D01*
X13100Y50090D02*
Y52510D01*
X13300Y50090D02*
Y52510D01*
X12040Y52050D02*
X14301D01*
X12040Y51850D02*
X13934D01*
X12040Y51650D02*
X13757D01*
X12040Y51450D02*
X13654D01*
X12040Y51250D02*
X13601D01*
X12040Y50850D02*
X13622D01*
X12040Y51050D02*
X13591D01*
X14100Y50090D02*
Y50234D01*
X14300Y50090D02*
Y50150D01*
X13900Y50090D02*
Y50380D01*
X12040Y50250D02*
X14072D01*
X14500Y49955D02*
Y50113D01*
X13040Y50090D02*
X14420D01*
X13700D02*
Y50646D01*
X14420Y49886D02*
Y50090D01*
X12040Y50650D02*
X13698D01*
X12040Y50450D02*
X13833D01*
X12040Y50050D02*
X13040D01*
X12040Y49850D02*
X13040D01*
X12040Y49450D02*
X13040D01*
X12040Y49250D02*
X13040D01*
X12040Y49650D02*
X13040D01*
X17700Y34140D02*
Y48860D01*
X16507Y48850D02*
X16853D01*
X17500Y34140D02*
Y48749D01*
X17900Y34140D02*
Y48983D01*
X16900Y34140D02*
Y48818D01*
X16700Y34140D02*
Y49011D01*
X16500Y34140D02*
Y48845D01*
X15700Y38399D02*
Y48831D01*
X15327Y48850D02*
X15673D01*
X16300Y34140D02*
Y48743D01*
X15900Y38287D02*
Y48737D01*
X15500Y38396D02*
Y49042D01*
X15300Y38277D02*
Y48831D01*
X16015Y36050D02*
Y37931D01*
X17100Y34140D02*
Y48731D01*
X17300Y34140D02*
Y48711D01*
X16100Y34140D02*
Y48710D01*
X15900Y34140D02*
Y35763D01*
X15185Y36222D02*
Y37990D01*
X15257Y35120D02*
X15893Y35756D01*
X15700Y34140D02*
Y35563D01*
X14557Y35594D02*
X15185Y36222D01*
X14420Y48850D02*
X14493D01*
X15100Y36137D02*
Y48737D01*
X13040Y48710D02*
Y50090D01*
X14420Y48710D02*
Y48914D01*
X14700Y35737D02*
Y48743D01*
X14900Y35937D02*
Y48710D01*
X12900Y35149D02*
Y52510D01*
X14500Y35523D02*
Y48845D01*
X12040Y49050D02*
X13040D01*
X12040Y48850D02*
X13040D01*
X12040Y48100D02*
Y52510D01*
X12500Y35149D02*
Y52510D01*
X12300Y35149D02*
Y52510D01*
X12700Y35149D02*
Y52510D01*
X12100Y35149D02*
Y52510D01*
X13300Y35149D02*
Y48710D01*
X13900Y35149D02*
Y48710D01*
X14100Y35149D02*
Y48710D01*
X14300Y35088D02*
Y48710D01*
X13500Y35149D02*
Y48710D01*
X13700Y35149D02*
Y48710D01*
X13040D02*
X14420D01*
X11770Y35850D02*
X14813D01*
X13100Y35149D02*
Y48710D01*
X11770Y35650D02*
X14613D01*
X11900Y35149D02*
Y47798D01*
X11700Y36564D02*
Y47598D01*
X11500Y36564D02*
Y47398D01*
X11300Y36564D02*
Y47198D01*
X11100Y36564D02*
Y46998D01*
X10900Y36564D02*
Y46798D01*
X10700Y36564D02*
Y46598D01*
X8900Y36270D02*
Y44798D01*
X8700Y36413D02*
Y44598D01*
X-6291Y38250D02*
X15277D01*
X-6344Y38050D02*
X15189D01*
X6576Y42474D02*
X11926Y47824D01*
X-6395Y37850D02*
X15185D01*
X8500Y36464D02*
Y44398D01*
X-6445Y37650D02*
X15185D01*
X8300Y36447D02*
Y44198D01*
X8100Y36356D02*
Y43998D01*
X10590Y36564D02*
X11770D01*
Y36450D02*
X15185D01*
X8588D02*
X10590D01*
X8918Y36250D02*
X10590D01*
X11770D02*
X15185D01*
X11770Y36050D02*
X15013D01*
X9032D02*
X10590D01*
X9066Y35850D02*
X10590D01*
X-6591Y37050D02*
X15185D01*
X-6637Y36850D02*
X15185D01*
X-6495Y37450D02*
X15185D01*
X-6543Y37250D02*
X15185D01*
X-6683Y36650D02*
X15185D01*
X5588Y36450D02*
X8312D01*
X5918Y36250D02*
X7982D01*
X5300Y36447D02*
Y42360D01*
X5500Y36464D02*
Y42360D01*
X7900Y36126D02*
Y43798D01*
X5900Y36270D02*
Y42360D01*
X5100Y36356D02*
Y42360D01*
X5700Y36413D02*
Y42360D01*
X4900Y36361D02*
Y42360D01*
X-5001D02*
X6300D01*
X4500Y36430D02*
Y42360D01*
X4700Y36432D02*
Y42360D01*
X3900Y36106D02*
Y42360D01*
X4300Y36355D02*
Y42360D01*
X3700Y36228D02*
Y42360D01*
X4100Y36154D02*
Y42360D01*
X6032Y36050D02*
X7868D01*
X3500Y36225D02*
Y42360D01*
X3941Y36050D02*
X4051D01*
X6066Y35850D02*
X7834D01*
X-6727Y36450D02*
X5312D01*
X-6771Y36250D02*
X4172D01*
X3300Y36092D02*
Y42360D01*
X-6814Y36050D02*
X3271D01*
X-6897Y35650D02*
X3271D01*
X-6856Y35850D02*
X3216D01*
X9700Y35149D02*
Y45598D01*
X9500Y35149D02*
Y45398D01*
X9300Y35149D02*
Y45198D01*
X9100Y35149D02*
Y44998D01*
X10500Y35149D02*
Y46398D01*
X10300Y35149D02*
Y46198D01*
X10100Y35149D02*
Y45998D01*
X9900Y35149D02*
Y45798D01*
X6900Y35149D02*
Y42798D01*
X6700Y35149D02*
Y42598D01*
X6500Y35149D02*
Y42415D01*
X6100Y35149D02*
Y42360D01*
X7700Y35149D02*
Y43598D01*
X7500Y35149D02*
Y43398D01*
X7300Y35149D02*
Y43198D01*
X7100Y35149D02*
Y42998D01*
X10590Y35384D02*
Y36564D01*
X11770Y35384D02*
Y36564D01*
X6032Y35650D02*
X7868D01*
X9032D02*
X10590D01*
X7900Y35149D02*
Y35573D01*
X6300Y35149D02*
Y42360D01*
X3941Y35650D02*
X4051D01*
X3900Y35149D02*
Y35594D01*
X4100Y35149D02*
Y35546D01*
X3700Y35149D02*
Y35472D01*
X-500Y35149D02*
Y42360D01*
X-300Y35149D02*
Y42360D01*
X-900Y35149D02*
Y42360D01*
X-700Y35149D02*
Y42360D01*
X300Y35149D02*
Y42360D01*
X500Y35149D02*
Y42360D01*
X-100Y35149D02*
Y42360D01*
X100Y35149D02*
Y42360D01*
X-1300Y35149D02*
Y42360D01*
X-1100Y35149D02*
Y42360D01*
X-1700Y35149D02*
Y42360D01*
X-1500Y35149D02*
Y42360D01*
X-2100Y35133D02*
Y42360D01*
X-1900Y35149D02*
Y42360D01*
X-2300Y34999D02*
Y42360D01*
X2500Y35149D02*
Y42360D01*
X2700Y35149D02*
Y42360D01*
X2100Y35149D02*
Y42360D01*
X2300Y35149D02*
Y42360D01*
X3300Y35149D02*
Y35608D01*
X3500Y35149D02*
Y35475D01*
X2900Y35149D02*
Y42360D01*
X3100Y35149D02*
Y42360D01*
X1100Y35149D02*
Y42360D01*
X1300Y35149D02*
Y42360D01*
X700Y35149D02*
Y42360D01*
X900Y35149D02*
Y42360D01*
X1700Y35149D02*
Y42360D01*
X1900Y35149D02*
Y42360D01*
X1500Y35149D02*
Y42360D01*
X14552Y34850D02*
X14627D01*
X14700Y34702D02*
Y34813D01*
X14435Y35200D02*
Y35300D01*
X14500Y34902D02*
Y34977D01*
X15500Y34140D02*
Y35363D01*
X15300Y34140D02*
Y35163D01*
X15100Y34302D02*
Y34869D01*
X14900Y34502D02*
Y34788D01*
X11770Y35450D02*
X14463D01*
X14351Y35050D02*
X14463D01*
X11565Y35250D02*
X14435D01*
X11568Y35149D02*
X14091D01*
X14367Y35035D02*
X15262Y34140D01*
X13500Y33940D02*
Y34369D01*
X13700Y33940D02*
Y34369D01*
X13100Y33940D02*
Y34369D01*
X13300Y33940D02*
Y34369D01*
X13930D02*
X14358Y33940D01*
X14300D02*
Y33998D01*
X13900Y33940D02*
Y34369D01*
X14100Y33940D02*
Y34198D01*
X11354Y34050D02*
X14248D01*
X13100Y33940D02*
X14358D01*
X11569Y34369D02*
X13930D01*
X11540Y34250D02*
X14048D01*
X12900Y33885D02*
Y34369D01*
X11700Y35149D02*
Y35384D01*
X11516D02*
X11770D01*
X11900Y33641D02*
Y34369D01*
X12100Y33641D02*
Y34369D01*
X11700Y33641D02*
Y34369D01*
X10590Y35384D02*
X10844D01*
X10700Y35149D02*
Y35384D01*
X10100Y34185D02*
Y34369D01*
X10500Y33802D02*
Y34369D01*
X10700Y33641D02*
Y34369D01*
X10300Y34002D02*
Y34369D01*
X12700Y33702D02*
Y34369D01*
X11489Y33850D02*
X12851D01*
X11500Y33834D02*
Y34176D01*
X11568Y33650D02*
X12648D01*
X12640Y33641D02*
X12824Y33826D01*
X11569Y33641D02*
X12640D01*
X12300D02*
Y34369D01*
X12500Y33641D02*
Y34369D01*
X10252Y34050D02*
X11006D01*
X11300Y33983D02*
Y34028D01*
X10900Y33883D02*
Y34127D01*
X10452Y33850D02*
X10871D01*
X10652Y33650D02*
X10792D01*
X10660Y33641D02*
X10791D01*
X13077Y32976D02*
X13262Y33160D01*
X17885D01*
X17700Y30802D02*
Y33160D01*
X17900Y31002D02*
Y33062D01*
X17300Y30399D02*
Y33160D01*
X17500Y30602D02*
Y33160D01*
X11568Y32861D02*
X12801D01*
X11500Y32260D02*
Y32601D01*
Y31472D02*
Y31814D01*
X11522Y30650D02*
X17548D01*
X11570Y30450D02*
X17348D01*
X11500Y30685D02*
Y31026D01*
X11507Y30250D02*
X17223D01*
X11528Y29850D02*
X17210D01*
X11569Y29650D02*
X17210D01*
X11218Y30850D02*
X17748D01*
X11285Y30050D02*
X17210D01*
X11500Y29897D02*
Y30239D01*
X11499Y29450D02*
X17210D01*
X11323Y29250D02*
X17210D01*
X11300Y32408D02*
Y32453D01*
Y31620D02*
Y31666D01*
X10176Y34126D02*
X10660Y33641D01*
X10499Y32861D02*
X10792D01*
X10900Y32308D02*
Y32553D01*
Y31521D02*
Y31765D01*
X11300Y30833D02*
Y30878D01*
Y30045D02*
Y30091D01*
Y29258D02*
Y29303D01*
X10900Y30733D02*
Y30978D01*
Y29946D02*
Y30190D01*
X8918Y35450D02*
X10590D01*
X8588Y35250D02*
X10795D01*
X8900Y35149D02*
Y35430D01*
X8700Y35149D02*
Y35287D01*
X9700Y34240D02*
Y34369D01*
X9900Y34240D02*
Y34369D01*
X8900Y34240D02*
Y34369D01*
X9100Y34240D02*
Y34369D01*
X8300Y35149D02*
Y35253D01*
X5588Y35250D02*
X8312D01*
X5918Y35450D02*
X7982D01*
X8100Y35149D02*
Y35344D01*
X-1991Y35149D02*
X10792D01*
X-1918Y34369D02*
X10791D01*
X5900Y35149D02*
Y35430D01*
X8500Y35149D02*
Y35236D01*
X7500Y34240D02*
Y34369D01*
X7700Y34240D02*
Y34369D01*
X7100Y34240D02*
Y34369D01*
X7300Y34240D02*
Y34369D01*
X9300Y34240D02*
Y34369D01*
X9500Y34240D02*
Y34369D01*
X8500Y34240D02*
Y34369D01*
X8700Y34240D02*
Y34369D01*
X6300Y34240D02*
Y34369D01*
X-7158Y34250D02*
X10820D01*
X5700Y34240D02*
Y34369D01*
X6100Y34240D02*
Y34369D01*
X6700Y34240D02*
Y34369D01*
X6900Y34240D02*
Y34369D01*
X6500Y34240D02*
Y34369D01*
X4900Y35149D02*
Y35339D01*
X4700Y35149D02*
Y35268D01*
X4300Y35149D02*
Y35345D01*
X4500Y35149D02*
Y35270D01*
X5700Y35149D02*
Y35287D01*
X5500Y35149D02*
Y35236D01*
X5100Y35149D02*
Y35344D01*
X5300Y35149D02*
Y35253D01*
X-6937Y35450D02*
X4172D01*
X-6976Y35250D02*
X5312D01*
X-7014Y35050D02*
X-2251D01*
X-7052Y34850D02*
X-2377D01*
X4500Y34240D02*
Y34369D01*
X4700Y34240D02*
Y34369D01*
X4100Y34240D02*
Y34369D01*
X4300Y34240D02*
Y34369D01*
X5300Y34240D02*
Y34369D01*
X5500Y34240D02*
Y34369D01*
X4900Y34240D02*
Y34369D01*
X5100Y34240D02*
Y34369D01*
X3700Y34240D02*
Y34369D01*
X3900Y34240D02*
Y34369D01*
X-7088Y34650D02*
X-2377D01*
X-7124Y34450D02*
X-2249D01*
X3300Y34240D02*
Y34369D01*
X3500Y34240D02*
Y34369D01*
X3100Y34240D02*
Y34369D01*
X8300Y34240D02*
Y34369D01*
X-1700Y34240D02*
X9900D01*
X7900D02*
Y34369D01*
X8100Y34240D02*
Y34369D01*
X9738Y33460D02*
X10223Y32976D01*
X-1700Y33460D02*
X9738D01*
X-7347Y33050D02*
X10148D01*
X-7376Y32850D02*
X10791D01*
X-7288Y33450D02*
X9748D01*
X-7318Y33250D02*
X9948D01*
X-7430Y32450D02*
X11070D01*
X-7455Y32250D02*
X10854D01*
X-7403Y32650D02*
X10831D01*
X-7527Y31650D02*
X11129D01*
X-7549Y31450D02*
X10846D01*
X-7480Y32050D02*
X10790D01*
X-7504Y31850D02*
X10838D01*
X-7591Y31050D02*
X10845D01*
X-7610Y30850D02*
X11142D01*
X-7571Y31250D02*
X10790D01*
X-7629Y30650D02*
X10838D01*
X-7664Y30250D02*
X10853D01*
X-7680Y30050D02*
X11075D01*
X-7647Y30450D02*
X10790D01*
X-7695Y29850D02*
X10832D01*
X-7723Y29450D02*
X10861D01*
X-7735Y29250D02*
X11037D01*
X-7709Y29650D02*
X10791D01*
X2100Y34240D02*
Y34369D01*
X2300Y34240D02*
Y34369D01*
X1700Y34240D02*
Y34369D01*
X1900Y34240D02*
Y34369D01*
X2900Y34240D02*
Y34369D01*
X5900Y34240D02*
Y34369D01*
X2500Y34240D02*
Y34369D01*
X2700Y34240D02*
Y34369D01*
X700Y34240D02*
Y34369D01*
X900Y34240D02*
Y34369D01*
X300Y34240D02*
Y34369D01*
X500Y34240D02*
Y34369D01*
X1300Y34240D02*
Y34369D01*
X1500Y34240D02*
Y34369D01*
X1100Y34240D02*
Y34369D01*
X-900Y34240D02*
Y34369D01*
X-700Y34240D02*
Y34369D01*
X-1300Y34240D02*
Y34369D01*
X-1100Y34240D02*
Y34369D01*
X-100Y34240D02*
Y34369D01*
X100Y34240D02*
Y34369D01*
X-500Y34240D02*
Y34369D01*
X-300Y34240D02*
Y34369D01*
X-1700Y34240D02*
Y34369D01*
X-1500Y34240D02*
Y34369D01*
X-1900Y34185D02*
Y34369D01*
X-7192Y34050D02*
X-2035D01*
X-7257Y33650D02*
X-2035D01*
X-7225Y33850D02*
X-2090D01*
X23300Y27852D02*
Y30460D01*
X23010Y29050D02*
X34611D01*
X23100Y28052D02*
Y30460D01*
X22900Y28252D02*
Y28882D01*
X23900Y27660D02*
Y30460D01*
X24100Y27472D02*
Y30460D01*
X23500Y27690D02*
Y30460D01*
X23700Y27712D02*
Y30460D01*
X22838Y28850D02*
X34611D01*
X22540Y28650D02*
X34611D01*
X22702Y28450D02*
X34611D01*
X22540Y28612D02*
X23462Y27690D01*
X23733Y27706D02*
X23767Y27701D01*
X23922Y27650D02*
X34611D01*
X23644Y27708D02*
X23679Y27713D01*
X23699Y27712D02*
X23733Y27706D01*
X24110Y27450D02*
X34611D01*
X24137Y27250D02*
X34611D01*
X24049Y27050D02*
X34611D01*
X22902Y28250D02*
X34611D01*
X23102Y28050D02*
X34611D01*
X23302Y27850D02*
X34611D01*
X23610Y27706D02*
X23644Y27708D01*
X22240Y27808D02*
X23024Y27024D01*
X23462Y27690D02*
X23561D01*
X21998Y27050D02*
X22998D01*
X22540Y28612D02*
Y28938D01*
X21460Y27761D02*
Y29026D01*
X21300Y27771D02*
Y29013D01*
X20900Y27791D02*
Y29298D01*
X21100Y27781D02*
Y29101D01*
X20500Y27811D02*
Y29410D01*
X20788D02*
X21074Y29124D01*
X19100Y28560D02*
Y29410D01*
X19300Y28518D02*
Y29410D01*
X20300Y27803D02*
Y29410D01*
X20700Y27801D02*
Y29410D01*
X20100Y27687D02*
Y29410D01*
X22540Y28850D02*
X22662D01*
X22700Y28452D02*
Y28840D01*
X22240Y27454D02*
Y27808D01*
Y27650D02*
X22398D01*
X22240Y27450D02*
X22598D01*
X22183Y27250D02*
X22798D01*
X19368Y28450D02*
X21460D01*
X19410Y28250D02*
X21460D01*
X19238Y28050D02*
X21460D01*
X20421Y27814D02*
X21421Y27764D01*
X25100Y13357D02*
Y30460D01*
X25300Y13357D02*
Y30460D01*
X24700Y13357D02*
Y30460D01*
X24900Y13357D02*
Y30460D01*
X25900Y13357D02*
Y30460D01*
X26100Y13357D02*
Y30460D01*
X25500Y13357D02*
Y30460D01*
X25700Y13357D02*
Y30460D01*
X24300Y13357D02*
Y30460D01*
X24500Y13357D02*
Y30460D01*
X24100Y13357D02*
Y27128D01*
X22900Y13357D02*
Y27148D01*
X23100Y13357D02*
Y26965D01*
X23733Y26894D02*
X23767Y26899D01*
X23699Y26888D02*
X23733Y26894D01*
X23300Y26910D02*
X23561D01*
X23610Y26894D02*
X23644Y26892D01*
X23900Y13357D02*
Y26940D01*
X23700Y13357D02*
Y26888D01*
X23500Y13357D02*
Y26910D01*
X23644Y26892D02*
X23679Y26887D01*
X21398Y26450D02*
X34611D01*
X21198Y26250D02*
X34611D01*
X21798Y26850D02*
X34611D01*
X21598Y26650D02*
X34611D01*
X20998Y26050D02*
X34611D01*
X20769Y25850D02*
X34611D01*
X23300Y13357D02*
Y26910D01*
X20872Y25924D02*
X22126Y27178D01*
X20379Y26986D02*
X20809Y26964D01*
X20300Y26499D02*
Y26997D01*
X20500Y26655D02*
Y26979D01*
X22500Y13357D02*
Y27548D01*
X22700Y13357D02*
Y27348D01*
X22300Y13357D02*
Y27748D01*
X22100Y13357D02*
Y27152D01*
X20100Y13357D02*
Y27113D01*
X19700Y13357D02*
Y29410D01*
X19900Y13357D02*
Y29410D01*
X19500Y13357D02*
Y29410D01*
X19300Y13357D02*
Y28082D01*
X19100Y13357D02*
Y28040D01*
X21100Y13357D02*
Y26152D01*
X20900Y13357D02*
Y25952D01*
X20700Y26855D02*
Y26969D01*
Y13357D02*
Y25824D01*
X21900Y13357D02*
Y26952D01*
X21700Y13357D02*
Y26752D01*
X21500Y13357D02*
Y26552D01*
X21300Y13357D02*
Y26352D01*
X20408Y26563D02*
X20809Y26964D01*
X20550Y25810D02*
X20596D01*
X20500Y13357D02*
Y25813D01*
X20300Y13357D02*
Y25901D01*
X18622Y29050D02*
X21178D01*
X18390Y28850D02*
X21460D01*
X18726Y29124D02*
X19012Y29410D01*
X18852Y29250D02*
X20948D01*
X18390Y28650D02*
X21460D01*
X18390Y27850D02*
X21460D01*
X18390Y27650D02*
X20069D01*
X18390Y28450D02*
X18932D01*
X18390Y28050D02*
X19062D01*
X18390Y27050D02*
X20177D01*
X18390Y26850D02*
X20695D01*
X18390Y27450D02*
X19988D01*
X18390Y27250D02*
X20013D01*
X18390Y24850D02*
X34611D01*
X18390Y24650D02*
X34611D01*
X18390Y25250D02*
X34611D01*
X18390Y25050D02*
X34611D01*
X18390Y24050D02*
X34611D01*
X18390Y23850D02*
X34611D01*
X18390Y24450D02*
X34611D01*
X18390Y24250D02*
X34611D01*
X18390Y26650D02*
X20495D01*
X18390Y26450D02*
X20251D01*
X18390Y26250D02*
X20163D01*
X18390Y26050D02*
X20190D01*
X18390Y25650D02*
X34611D01*
X18390Y25450D02*
X34611D01*
X18390Y25850D02*
X20378D01*
X18900Y28388D02*
Y29298D01*
X18390Y28250D02*
X18890D01*
X12590D02*
X17210D01*
X13190Y27050D02*
X17210D01*
X13190Y26850D02*
X17210D01*
X13099Y27450D02*
X17210D01*
X13187Y27250D02*
X17210D01*
X12499Y28650D02*
X17210D01*
X12587Y28450D02*
X17210D01*
X11534Y29050D02*
X17210D01*
X11568Y28850D02*
X17210D01*
X12590Y27850D02*
X17210D01*
X12590Y27650D02*
X17210D01*
X12590Y28050D02*
X17210D01*
X13190Y26250D02*
X17210D01*
X13190Y26050D02*
X17210D01*
X13190Y26650D02*
X17210D01*
X13190Y26450D02*
X17210D01*
X13190Y25450D02*
X17210D01*
X13190Y25250D02*
X17210D01*
X13190Y25850D02*
X17210D01*
X13190Y25650D02*
X17210D01*
X13006Y24650D02*
X17210D01*
X12806Y24450D02*
X17210D01*
X13190Y25050D02*
X17210D01*
X13162Y24850D02*
X17210D01*
X12406Y24050D02*
X17210D01*
X12206Y23850D02*
X17210D01*
X12606Y24250D02*
X17210D01*
X18390Y23250D02*
X34611D01*
X18390Y23050D02*
X34611D01*
X18390Y23650D02*
X34611D01*
X18390Y23450D02*
X34611D01*
X18700Y13357D02*
Y29101D01*
X18900Y13357D02*
Y28212D01*
X18390Y22050D02*
Y29015D01*
X18500Y13357D02*
Y29013D01*
X18390Y22450D02*
X34611D01*
X18390Y22250D02*
X34611D01*
X18390Y22850D02*
X34611D01*
X18390Y22650D02*
X34611D01*
X18390Y22050D02*
X34611D01*
X18335Y21850D02*
X34611D01*
X17752Y21250D02*
X34611D01*
X17552Y21050D02*
X34611D01*
X18152Y21650D02*
X34611D01*
X17952Y21450D02*
X34611D01*
X18300Y13357D02*
Y21801D01*
X18100Y13357D02*
Y21598D01*
X17900Y13357D02*
Y21398D01*
X17700Y13357D02*
Y21198D01*
X16952Y20450D02*
X34611D01*
X16752Y20250D02*
X34611D01*
X17352Y20850D02*
X34611D01*
X17152Y20650D02*
X34611D01*
X16440Y19939D02*
X18276Y21774D01*
X16552Y20050D02*
X34611D01*
X17500Y13357D02*
Y20998D01*
X17100Y22152D02*
Y33160D01*
X17210Y22262D02*
Y30150D01*
X16700Y21752D02*
Y33160D01*
X16900Y21952D02*
Y33160D01*
X16300Y21352D02*
Y33160D01*
X16500Y21552D02*
Y33160D01*
X15900Y20952D02*
Y33160D01*
X16100Y21152D02*
Y33160D01*
X11757Y23250D02*
X17210D01*
X11672Y23050D02*
X17210D01*
X12006Y23650D02*
X17210D01*
X11806Y23450D02*
X17210D01*
X11709Y22850D02*
X17210D01*
X11767Y22650D02*
X17210D01*
X15700Y20752D02*
Y33160D01*
X11754Y22450D02*
X17210D01*
X12074Y17125D02*
X17210Y22262D01*
X11769Y21050D02*
X15998D01*
X16500Y16364D02*
Y19998D01*
X17300Y13357D02*
Y20798D01*
X17100Y13357D02*
Y20598D01*
X16900Y15852D02*
Y20398D01*
X16700Y16203D02*
Y20198D01*
X11664Y22250D02*
X17198D01*
X11480Y22050D02*
X16998D01*
X11567Y21850D02*
X16798D01*
X11540Y21650D02*
X16598D01*
X11576Y21450D02*
X16398D01*
X11720Y21250D02*
X16198D01*
X11747Y20850D02*
X15798D01*
X18272Y12450D02*
X35060D01*
X18072Y12250D02*
X35060D01*
X18117Y13357D02*
X34611D01*
X18299Y12477D02*
X34900D01*
X17472Y11650D02*
X35060D01*
X17272Y11450D02*
X35060D01*
X17872Y12050D02*
X35060D01*
X17672Y11850D02*
X35060D01*
X16440Y18450D02*
X34611D01*
X16814Y16050D02*
X34611D01*
X16440Y18850D02*
X34611D01*
X16440Y18650D02*
X34611D01*
X17072Y11250D02*
X35060D01*
X16990Y11050D02*
X35060D01*
X16901Y15850D02*
X34611D01*
X17203Y10850D02*
X34847D01*
X17473Y10050D02*
X34637D01*
X17414Y9850D02*
X34710D01*
X17450Y10450D02*
X34636D01*
X17485Y10250D02*
X34614D01*
X17434Y8650D02*
X34650D01*
X17434Y8050D02*
X34686D01*
X17481Y8450D02*
X34615D01*
X17481Y8250D02*
X34627D01*
X17072Y9450D02*
X35120D01*
X17144Y9050D02*
X34897D01*
X17364Y10650D02*
X34709D01*
X17295Y9650D02*
X34848D01*
X17332Y7850D02*
X34805D01*
X17144Y7650D02*
X35028D01*
X17332Y8850D02*
X34736D01*
X16924Y15450D02*
X34611D01*
X16865Y15250D02*
X34611D01*
X16653Y16250D02*
X34611D01*
X16935Y15650D02*
X34611D01*
X16745Y15050D02*
X34611D01*
X16523Y14850D02*
X34611D01*
X16900Y13357D02*
Y15348D01*
X16700Y13357D02*
Y14997D01*
X16440Y19450D02*
X34611D01*
X16440Y19250D02*
X34611D01*
X16440Y19850D02*
X34611D01*
X16440Y19650D02*
X34611D01*
X16440Y19050D02*
X34611D01*
X16500Y13357D02*
Y14836D01*
X16440Y16396D02*
Y19939D01*
X16990Y11168D02*
X18299Y12477D01*
X17100Y10932D02*
Y11278D01*
X16900Y12322D02*
Y12477D01*
X16990Y10996D02*
Y11168D01*
X17300Y10744D02*
Y11478D01*
Y8894D02*
Y9657D01*
X17100Y9082D02*
Y9469D01*
X16700Y12122D02*
Y12477D01*
Y9231D02*
Y9320D01*
X16500Y11922D02*
Y12477D01*
Y9231D02*
Y9320D01*
X16900Y9184D02*
Y9366D01*
X16700Y7179D02*
Y7469D01*
X16500Y7179D02*
Y7469D01*
X25300Y390D02*
Y12477D01*
X25500Y390D02*
Y12477D01*
X24900Y390D02*
Y12477D01*
X25100Y390D02*
Y12477D01*
X26100Y390D02*
Y12477D01*
X26300Y390D02*
Y12477D01*
X25700Y390D02*
Y12477D01*
X25900Y390D02*
Y12477D01*
X22500Y390D02*
Y12477D01*
X22700Y390D02*
Y12477D01*
X21700Y390D02*
Y12477D01*
X22300Y390D02*
Y12477D01*
X24500Y390D02*
Y12477D01*
X24700Y390D02*
Y12477D01*
X24100Y390D02*
Y12477D01*
X24300Y390D02*
Y12477D01*
X22900Y390D02*
Y12477D01*
X23100Y390D02*
Y12477D01*
X21900Y390D02*
Y12477D01*
X22100Y390D02*
Y12477D01*
X23700Y390D02*
Y12477D01*
X23900Y390D02*
Y12477D01*
X23300Y390D02*
Y12477D01*
X23500Y390D02*
Y12477D01*
X17010Y7050D02*
X35030D01*
X17190Y6850D02*
X34883D01*
X17270Y6650D02*
X34821D01*
X17284Y6450D02*
X34821D01*
X17118Y6050D02*
X35030D01*
X16821Y5850D02*
X46248D01*
X17239Y6250D02*
X34883D01*
X20500Y390D02*
Y12477D01*
X20700Y390D02*
Y12477D01*
X20100Y390D02*
Y12477D01*
X20300Y390D02*
Y12477D01*
X21300Y390D02*
Y12477D01*
X21500Y390D02*
Y12477D01*
X20900Y390D02*
Y12477D01*
X21100Y390D02*
Y12477D01*
X19100Y390D02*
Y12477D01*
X19300Y390D02*
Y12477D01*
X18700Y390D02*
Y12477D01*
X18900Y390D02*
Y12477D01*
X19700Y390D02*
Y12477D01*
X19900Y390D02*
Y12477D01*
X19500Y390D02*
Y12477D01*
X17700Y390D02*
Y11878D01*
X17500Y390D02*
Y11678D01*
X17300Y390D02*
Y7806D01*
X17100Y6970D02*
Y7618D01*
X18300Y390D02*
Y12477D01*
X18500Y390D02*
Y12477D01*
X18100Y390D02*
Y12278D01*
X17900Y390D02*
Y12078D01*
X17100Y390D02*
Y6030D01*
X16900Y7117D02*
Y7516D01*
Y390D02*
Y5882D01*
X16700Y390D02*
Y5821D01*
X16500Y390D02*
Y5821D01*
X16440Y17850D02*
X34611D01*
X16440Y17650D02*
X34611D01*
X16440Y18250D02*
X34611D01*
X16440Y18050D02*
X34611D01*
X16440Y17050D02*
X34611D01*
X16440Y16850D02*
X34611D01*
X16440Y17450D02*
X34611D01*
X16440Y17250D02*
X34611D01*
X16440Y16650D02*
X34611D01*
X16440Y16450D02*
X34611D01*
X-6291Y14650D02*
X34611D01*
X-6238Y14450D02*
X34611D01*
X16300Y13357D02*
Y14750D01*
X-6184Y14250D02*
X34611D01*
X9417Y13357D02*
X18117D01*
X9599Y12477D02*
X17055D01*
X9572Y12450D02*
X17028D01*
X9372Y12250D02*
X16828D01*
X16300Y11722D02*
Y12477D01*
X16239Y11661D02*
X17055Y12477D01*
X-6016Y13650D02*
X34611D01*
X-5958Y13450D02*
X34611D01*
X-6129Y14050D02*
X34611D01*
X-6073Y13850D02*
X34611D01*
X9172Y12050D02*
X16628D01*
X8990Y11850D02*
X16428D01*
X8990Y11650D02*
X16228D01*
X15102Y19050D02*
X15660D01*
X14902Y18850D02*
X15660D01*
X15502Y19450D02*
X15660D01*
X15302Y19250D02*
X15660D01*
X15700Y13357D02*
Y14786D01*
X15900Y13357D02*
Y14727D01*
X15660Y16396D02*
Y19609D01*
X14702Y18650D02*
X15660D01*
X14102Y18050D02*
X15660D01*
X13102Y17050D02*
X15660D01*
X14502Y18450D02*
X15660D01*
X14302Y18250D02*
X15660D01*
X12740Y16650D02*
X15660D01*
X14451Y16450D02*
X15660D01*
X12902Y16850D02*
X15660D01*
X16100Y13357D02*
Y14715D01*
X16110Y10939D02*
Y11350D01*
X15900Y10744D02*
Y12477D01*
X16100Y10932D02*
Y12477D01*
X9365Y10650D02*
X15836D01*
X9424Y10450D02*
X15750D01*
X9435Y10250D02*
X15715D01*
X9400Y10050D02*
X15727D01*
X8990Y11450D02*
X16122D01*
X8990Y11250D02*
X16110D01*
X9023Y11050D02*
X16110D01*
X9246Y10850D02*
X15997D01*
X9152Y9650D02*
X15905D01*
X8798Y9450D02*
X16128D01*
X9313Y9850D02*
X15786D01*
X8770Y7250D02*
X47648D01*
X7402Y4450D02*
X44848D01*
X8932Y9250D02*
X35248D01*
X7602Y4250D02*
X29223D01*
X7799Y4050D02*
X28932D01*
X7890Y3250D02*
X28860D01*
X7887Y3850D02*
X28812D01*
X7890Y3450D02*
X28781D01*
X4402Y7450D02*
X47848D01*
X6202Y5650D02*
X46048D01*
X6402Y5450D02*
X45848D01*
X6602Y5250D02*
X45648D01*
X6802Y5050D02*
X45448D01*
X7002Y4850D02*
X45248D01*
X7202Y4650D02*
X45048D01*
X7890Y1250D02*
X29538D01*
X7890Y1050D02*
X29777D01*
X7890Y1650D02*
X29327D01*
X7890Y1450D02*
X29403D01*
X7890Y450D02*
X44510D01*
X7890Y390D02*
X44510D01*
X7890Y850D02*
X44510D01*
X7890Y650D02*
X44510D01*
X7890Y2850D02*
X30006D01*
X7890Y2650D02*
X29639D01*
X7890Y3050D02*
X29038D01*
X7890Y2450D02*
X29462D01*
X7890Y2250D02*
X29359D01*
X7890Y2050D02*
X29306D01*
X7890Y1850D02*
X29296D01*
X16300Y9184D02*
Y9366D01*
X15900Y8894D02*
Y9657D01*
X16100Y9082D02*
Y9469D01*
X15900Y390D02*
Y7806D01*
X15700Y390D02*
Y12477D01*
X9436Y8450D02*
X15719D01*
X9203Y9050D02*
X16056D01*
X9341Y8850D02*
X15868D01*
X9413Y8650D02*
X15766D01*
X9413Y8250D02*
X15719D01*
X9202Y7850D02*
X15868D01*
X8931Y7650D02*
X16056D01*
X9341Y8050D02*
X15766D01*
X16300Y7117D02*
Y7516D01*
X16100Y6970D02*
Y7618D01*
X9234Y6650D02*
X15930D01*
X16100Y390D02*
Y6030D01*
X16300Y390D02*
Y5882D01*
X9068Y7050D02*
X16190D01*
X9189Y6850D02*
X16010D01*
X9220Y6450D02*
X15916D01*
X9140Y6250D02*
X15961D01*
X6002Y5850D02*
X16379D01*
X7890Y3650D02*
X28767D01*
X8960Y6050D02*
X16082D01*
X12300Y28777D02*
Y32861D01*
X12500Y28649D02*
Y32861D01*
X11900Y28649D02*
Y32861D01*
X12100Y28777D02*
Y32861D01*
X13100Y27449D02*
Y32998D01*
X12900Y27577D02*
Y32874D01*
X12700Y27577D02*
Y32861D01*
X11810Y28238D02*
Y28400D01*
X11490Y28650D02*
X11901D01*
X11500Y29110D02*
Y29451D01*
X11655Y28450D02*
X11813D01*
X11700Y28378D02*
Y32861D01*
X13190Y24995D02*
Y27200D01*
X12590Y27529D02*
Y28400D01*
X11769Y23412D02*
X13076Y24719D01*
X11751Y28250D02*
X11810D01*
X11700Y22867D02*
Y23096D01*
X11500Y22023D02*
Y22092D01*
Y28595D02*
Y28664D01*
X10900Y29158D02*
Y29403D01*
X10700Y26868D02*
Y26969D01*
Y26080D02*
Y26182D01*
Y28443D02*
Y32861D01*
Y27655D02*
Y27757D01*
X2700Y22818D02*
Y33460D01*
X2900Y22488D02*
Y33460D01*
X2500Y22932D02*
Y33460D01*
X10700Y25293D02*
Y25394D01*
Y24506D02*
Y24607D01*
Y23718D02*
Y23820D01*
Y22931D02*
Y23032D01*
X2659Y22850D02*
X10651D01*
X2907Y22250D02*
X10696D01*
X2838Y22650D02*
X10593D01*
X2907Y22450D02*
X10606D01*
X2838Y22050D02*
X10880D01*
X2659Y21850D02*
X10793D01*
X14700Y19752D02*
Y33160D01*
X15100Y20152D02*
Y33160D01*
X14300Y19352D02*
Y33160D01*
X14500Y19552D02*
Y33160D01*
X13900Y18952D02*
Y33160D01*
X14100Y19152D02*
Y33160D01*
X13500Y18552D02*
Y33160D01*
X13700Y18752D02*
Y33160D01*
X9900Y13357D02*
Y33298D01*
X13300Y18352D02*
Y33160D01*
X9500Y13357D02*
Y33460D01*
X9700Y13357D02*
Y33460D01*
X9100Y13222D02*
Y33460D01*
X9300Y13341D02*
Y33460D01*
X8700Y12822D02*
Y33460D01*
X8900Y13022D02*
Y33460D01*
X15300Y20352D02*
Y33160D01*
X15500Y20552D02*
Y33160D01*
X14900Y19952D02*
Y33160D01*
X13100Y18152D02*
Y24746D01*
X12900Y17952D02*
Y24544D01*
X12700Y17752D02*
Y24344D01*
X12500Y17552D02*
Y24144D01*
X12300Y17352D02*
Y23944D01*
X12100Y17152D02*
Y23744D01*
X11900Y16486D02*
Y23544D01*
X11700Y21292D02*
Y22309D01*
X10700Y21356D02*
Y22245D01*
X10300Y13357D02*
Y32916D01*
X10500Y13357D02*
Y32861D01*
X10100Y13357D02*
Y33098D01*
X8300Y12422D02*
Y33460D01*
X8500Y12622D02*
Y33460D01*
X7900Y10903D02*
Y33460D01*
X8100Y11064D02*
Y33460D01*
X7500Y4352D02*
Y33460D01*
X7700Y10552D02*
Y33460D01*
X7100Y4752D02*
Y33460D01*
X7300Y4552D02*
Y33460D01*
X6100Y5752D02*
Y33460D01*
X6300Y5552D02*
Y33460D01*
X5700Y6152D02*
Y33460D01*
X5900Y5952D02*
Y33460D01*
X6700Y5152D02*
Y33460D01*
X6900Y4952D02*
Y33460D01*
X6500Y5352D02*
Y33460D01*
X4500Y7352D02*
Y33460D01*
X4700Y7152D02*
Y33460D01*
X4100Y7752D02*
Y33460D01*
X4300Y7552D02*
Y33460D01*
X5300Y6552D02*
Y33460D01*
X5500Y6352D02*
Y33460D01*
X4900Y6952D02*
Y33460D01*
X5100Y6752D02*
Y33460D01*
X3100Y8140D02*
Y33460D01*
X3300Y8140D02*
Y33460D01*
X2900Y8140D02*
Y22212D01*
X2700Y8140D02*
Y21882D01*
X3700Y8110D02*
Y33460D01*
X3900Y7952D02*
Y33460D01*
X3500Y8140D02*
Y33460D01*
X-7747Y29050D02*
X10826D01*
X-7768Y28650D02*
X10870D01*
X-7758Y28850D02*
X10792D01*
X-7777Y28450D02*
X10705D01*
X-7799Y27850D02*
X10645D01*
X-7804Y27650D02*
X10696D01*
X-7785Y28250D02*
X10609D01*
X-7792Y28050D02*
X10592D01*
X-7816Y27050D02*
X10651D01*
X-7818Y26850D02*
X10688D01*
X-7809Y27450D02*
X10606D01*
X-7813Y27250D02*
X10593D01*
X-7820Y26250D02*
X10658D01*
X-7818Y26050D02*
X10680D01*
X-7820Y26650D02*
X10603D01*
X-7820Y26450D02*
X10595D01*
X-7777Y24450D02*
X10665D01*
X-7747Y23850D02*
X10680D01*
X-7768Y24250D02*
X10597D01*
X-7758Y24050D02*
X10601D01*
X-7735Y23650D02*
X10658D01*
X-7695Y23050D02*
X10688D01*
X-7723Y23450D02*
X10595D01*
X-7709Y23250D02*
X10603D01*
X-7809Y25450D02*
X10665D01*
X-7804Y25250D02*
X10672D01*
X-7816Y25850D02*
X10601D01*
X-7813Y25650D02*
X10597D01*
X-7792Y24850D02*
X10599D01*
X-7785Y24650D02*
X10672D01*
X-7799Y25050D02*
X10599D01*
X-500Y22932D02*
Y33460D01*
X2300Y22966D02*
Y33460D01*
X-900Y22932D02*
Y33460D01*
X-700Y22966D02*
Y33460D01*
X1700Y22488D02*
Y33460D01*
X1900Y22818D02*
Y33460D01*
X-2100Y22784D02*
Y34373D01*
X-100Y22488D02*
Y33460D01*
X-2500Y22940D02*
Y42360D01*
X-2300Y22905D02*
Y34501D01*
X-2900Y22784D02*
Y42360D01*
X-2700Y22905D02*
Y42360D01*
X-3500Y22740D02*
Y42360D01*
X-3300Y22685D02*
Y42360D01*
X-3700Y22685D02*
Y42360D01*
X2100Y22932D02*
Y33460D01*
X-341Y22850D02*
X1941D01*
X-1100Y22818D02*
Y33460D01*
X-300Y22818D02*
Y33460D01*
X-1992Y22650D02*
X-1238D01*
X-162D02*
X1762D01*
X-1300Y22488D02*
Y33460D01*
X-1919Y22450D02*
X-1307D01*
X-7680Y22850D02*
X-2813D01*
X-2187D02*
X-1059D01*
X-7700Y23118D02*
Y29782D01*
X-3251Y22650D02*
X-3008D01*
X-7664D02*
X-3749D01*
X-3123Y22450D02*
X-3081D01*
X-7647D02*
X-3877D01*
X1500Y8140D02*
Y33460D01*
X1100Y8140D02*
Y33460D01*
X1300Y8140D02*
Y33460D01*
X700Y8140D02*
Y33460D01*
X900Y8140D02*
Y33460D01*
X300Y8140D02*
Y33460D01*
X500Y8140D02*
Y33460D01*
X100Y8140D02*
Y33460D01*
X-93Y22450D02*
X1693D01*
X-1700Y8140D02*
Y33460D01*
X-1500Y8140D02*
Y33460D01*
X-3100Y8140D02*
Y42360D01*
X-1900Y8140D02*
Y33515D01*
X1900Y8140D02*
Y21882D01*
X-341Y21850D02*
X1941D01*
X-93Y22250D02*
X1693D01*
X-162Y22050D02*
X1762D01*
X-100Y8140D02*
Y22212D01*
X1700Y8140D02*
Y22212D01*
X-1100Y8140D02*
Y21882D01*
X-300Y8140D02*
Y21882D01*
X-1919Y22250D02*
X-1307D01*
X-1992Y22050D02*
X-1238D01*
X-3123Y22250D02*
X-3081D01*
X-3251Y22050D02*
X-3008D01*
X-1300Y8140D02*
Y22212D01*
X-2100Y8140D02*
Y21916D01*
X-2900Y8140D02*
Y21916D01*
X-4900Y10266D02*
Y42360D01*
X-4700Y9740D02*
Y42360D01*
X-5100Y10813D02*
Y42087D01*
X-5300Y11382D02*
Y41518D01*
X-4100Y8265D02*
Y42360D01*
X-3900Y8140D02*
Y42360D01*
X-4500Y9232D02*
Y42360D01*
X-4300Y8740D02*
Y42360D01*
X-5900Y13254D02*
Y39646D01*
X-6100Y13946D02*
Y38954D01*
X-6300Y14683D02*
Y38217D01*
X-6500Y15472D02*
Y37428D01*
X-5500Y11976D02*
Y40924D01*
X-5700Y12599D02*
Y40301D01*
X-3300Y8140D02*
Y22015D01*
X-3700Y8140D02*
Y22015D01*
X-3500Y8140D02*
Y21960D01*
X-7629Y22250D02*
X-3877D01*
X-7610Y22050D02*
X-3749D01*
X-7300Y19530D02*
Y33370D01*
X-7500Y21015D02*
Y31885D01*
X-6700Y16327D02*
Y36573D01*
X-6900Y17265D02*
Y35635D01*
X-7100Y18316D02*
Y34584D01*
X14500Y16434D02*
Y18448D01*
X13902Y17850D02*
X15660D01*
X14300Y16481D02*
Y18248D01*
X14100Y16481D02*
Y18048D01*
X15500Y16295D02*
Y19448D01*
X15300Y16072D02*
Y19248D01*
X14900Y16144D02*
Y18848D01*
X14700Y16332D02*
Y18648D01*
X13702Y17650D02*
X15660D01*
X13502Y17450D02*
X15660D01*
X11645Y20650D02*
X15598D01*
X11356Y20450D02*
X15398D01*
X12740Y16688D02*
X15660Y19609D01*
X13302Y17250D02*
X15660D01*
X13900Y16434D02*
Y17848D01*
X14802Y16250D02*
X15448D01*
X14964Y16050D02*
X15287D01*
X15050Y15850D02*
X15200D01*
X15085Y15650D02*
X15166D01*
X14895Y15050D02*
X15355D01*
X14672Y14850D02*
X15578D01*
X15073Y15450D02*
X15177D01*
X15014Y15250D02*
X15236D01*
X14500Y13357D02*
Y14766D01*
X14300Y13357D02*
Y14719D01*
X13236Y16450D02*
X13949D01*
X13236Y14850D02*
X13728D01*
X13900Y13357D02*
Y14766D01*
X14100Y13357D02*
Y14719D01*
X13700Y13357D02*
Y14868D01*
X13100Y16486D02*
Y17048D01*
X12900Y16486D02*
Y16848D01*
X13700Y16332D02*
Y17648D01*
X13500Y16144D02*
Y17448D01*
X13300Y13357D02*
Y17248D01*
X11960Y16486D02*
Y16850D01*
X11500Y21509D02*
Y21577D01*
X11700Y16486D02*
Y20734D01*
X11500Y16486D02*
Y20517D01*
X11300Y13357D02*
Y20435D01*
X13236Y16250D02*
X13598D01*
X13236Y16050D02*
X13436D01*
X13236Y15850D02*
X13350D01*
X13236Y15650D02*
X13315D01*
X13500Y13357D02*
Y15056D01*
X13236Y15050D02*
X13505D01*
X13236Y14714D02*
Y16486D01*
Y15250D02*
X13386D01*
X12740Y16486D02*
X13236D01*
Y15450D02*
X13327D01*
X12740Y16486D02*
Y16688D01*
X11463Y16486D02*
X11960D01*
X11900Y13357D02*
Y14714D01*
X11463D02*
X13236D01*
X11463D02*
Y16486D01*
X15300Y13357D02*
Y15128D01*
X15500Y13357D02*
Y14905D01*
X15100Y13357D02*
Y19048D01*
X14700Y13357D02*
Y14868D01*
X15100Y390D02*
Y12477D01*
X15500Y390D02*
Y12477D01*
X14900Y13357D02*
Y15056D01*
X14700Y390D02*
Y12477D01*
X12500Y13357D02*
Y14714D01*
X12700Y13357D02*
Y14714D01*
X12100Y13357D02*
Y14714D01*
X12300Y13357D02*
Y14714D01*
X14300Y390D02*
Y12477D01*
X14500Y390D02*
Y12477D01*
X12900Y13357D02*
Y14714D01*
X13100Y13357D02*
Y14714D01*
X13500Y390D02*
Y12477D01*
X13700Y390D02*
Y12477D01*
X13100Y390D02*
Y12477D01*
X13300Y390D02*
Y12477D01*
X14900Y390D02*
Y12477D01*
X15300Y390D02*
Y12477D01*
X13900Y390D02*
Y12477D01*
X14100Y390D02*
Y12477D01*
X12100Y390D02*
Y12477D01*
X12300Y390D02*
Y12477D01*
X11700Y390D02*
Y12477D01*
X11900Y390D02*
Y12477D01*
X12700Y390D02*
Y12477D01*
X12900Y390D02*
Y12477D01*
X12500Y390D02*
Y12477D01*
X11500Y13357D02*
Y14714D01*
X11700Y13357D02*
Y14714D01*
X10900Y13357D02*
Y20494D01*
X11100Y13357D02*
Y20428D01*
X11300Y390D02*
Y12477D01*
X11500Y390D02*
Y12477D01*
X10700Y390D02*
Y12477D01*
X11100Y390D02*
Y12477D01*
X10700Y13357D02*
Y20670D01*
X10500Y390D02*
Y12477D01*
X10100Y390D02*
Y12477D01*
X10300Y390D02*
Y12477D01*
X9900Y390D02*
Y12477D01*
X9300Y10773D02*
Y12178D01*
Y8923D02*
Y9829D01*
X9100Y10996D02*
Y11978D01*
Y7010D02*
Y7755D01*
X9700Y390D02*
Y12477D01*
X10900Y390D02*
Y12477D01*
X9500Y390D02*
Y12378D01*
X9300Y390D02*
Y7978D01*
X8990Y11868D02*
X9599Y12477D01*
X8990Y11070D02*
Y11868D01*
X8900Y9265D02*
Y9487D01*
X9100Y9145D02*
Y9606D01*
Y390D02*
Y6190D01*
X8900Y7190D02*
Y7636D01*
X-7257Y19250D02*
X14198D01*
X-7225Y19050D02*
X13998D01*
X-7192Y18850D02*
X13798D01*
X-7158Y18650D02*
X13598D01*
X-7124Y18450D02*
X13398D01*
X-7088Y18250D02*
X13198D01*
X-7052Y18050D02*
X12998D01*
X-7014Y17850D02*
X12798D01*
X-7430Y20450D02*
X11004D01*
X-7403Y20250D02*
X15198D01*
X-7571Y21650D02*
X10820D01*
X-7549Y21450D02*
X10784D01*
X-7376Y20050D02*
X14998D01*
X-7347Y19850D02*
X14798D01*
X-7318Y19650D02*
X14598D01*
X-7288Y19450D02*
X14398D01*
X-6591Y15850D02*
X11463D01*
X-6543Y15650D02*
X11463D01*
X-6683Y16250D02*
X11463D01*
X-6637Y16050D02*
X11463D01*
X-6395Y15050D02*
X11463D01*
X-6344Y14850D02*
X11463D01*
X-6495Y15450D02*
X11463D01*
X-6445Y15250D02*
X11463D01*
X-6976Y17650D02*
X12598D01*
X-6937Y17450D02*
X12398D01*
X-6897Y17250D02*
X12198D01*
X-6856Y17050D02*
X12015D01*
X-6814Y16850D02*
X11960D01*
X-6771Y16650D02*
X11960D01*
X-6727Y16450D02*
X11463D01*
X-5778Y12850D02*
X8728D01*
X-5716Y12650D02*
X8528D01*
X-2187Y21850D02*
X-1059D01*
X-5653Y12450D02*
X8328D01*
X8239Y12361D02*
X9106Y13228D01*
X-5589Y12250D02*
X8158D01*
X-7527Y21250D02*
X10640D01*
X-7480Y20850D02*
X10613D01*
X-7591Y21850D02*
X-2813D01*
X-7504Y21050D02*
X10591D01*
X-7455Y20650D02*
X10715D01*
X-5899Y13250D02*
X9129D01*
X-5839Y13050D02*
X8928D01*
X8110Y11070D02*
Y12050D01*
X-5041Y10650D02*
X7735D01*
X-4968Y10450D02*
X7676D01*
X-4894Y10250D02*
X7665D01*
X-4665Y9650D02*
X7948D01*
X-4587Y9450D02*
X8302D01*
X-4819Y10050D02*
X7700D01*
X-4743Y9850D02*
X7787D01*
X-5391Y11650D02*
X8110D01*
X-5323Y11450D02*
X8110D01*
X-5524Y12050D02*
X8110D01*
X-5458Y11850D02*
X8110D01*
X-5254Y11250D02*
X8110D01*
X-5184Y11050D02*
X8077D01*
X-5113Y10850D02*
X7854D01*
X8700Y9324D02*
Y9427D01*
X8500Y9335D02*
Y9416D01*
X8100Y9214D02*
Y9537D01*
X8300Y9301D02*
Y9451D01*
X8700Y7270D02*
Y7577D01*
X8500Y7284D02*
Y7566D01*
X8100Y7118D02*
Y7687D01*
X8300Y7239D02*
Y7600D01*
X4202Y7650D02*
X8169D01*
X7900Y9053D02*
Y9698D01*
X-4507Y9250D02*
X8168D01*
X7900Y6820D02*
Y7848D01*
X8700Y390D02*
Y5930D01*
X8900Y390D02*
Y6010D01*
X8500Y390D02*
Y5916D01*
X8100Y390D02*
Y6082D01*
X8300Y390D02*
Y5961D01*
X4602Y7250D02*
X8330D01*
X4802Y7050D02*
X8032D01*
X5002Y6850D02*
X7911D01*
X5602Y6250D02*
X7960D01*
X5802Y6050D02*
X8140D01*
X7900Y390D02*
Y6380D01*
X2500Y8140D02*
Y21768D01*
X7700Y8701D02*
Y10050D01*
X2100Y8140D02*
Y21768D01*
X2300Y8140D02*
Y21734D01*
X-500Y8140D02*
Y21768D01*
X-700Y8140D02*
Y21734D01*
X-2300Y8140D02*
Y21795D01*
X-900Y8140D02*
Y21768D01*
X-4427Y9050D02*
X7897D01*
X-4345Y8850D02*
X7759D01*
X-4263Y8650D02*
X7687D01*
X-4179Y8450D02*
X7664D01*
X-2500Y8140D02*
Y21760D01*
X-4094Y8250D02*
X7687D01*
X-2700Y8140D02*
Y21795D01*
X4002Y7850D02*
X7898D01*
X5402Y6450D02*
X7880D01*
X7700Y4152D02*
Y8199D01*
X5202Y6650D02*
X7866D01*
X7890Y390D02*
Y3800D01*
X3826Y8026D02*
X7776Y4076D01*
X-2749Y8140D02*
X3550Y8140D01*
X-2801Y8140D02*
X-2749D01*
X-2800Y8140D02*
X-2750D01*
X-4047Y8140D02*
X-2801D01*
X3799Y8050D02*
X7759D01*
D50*
X33450Y34450D02*
Y34550D01*
X33475Y34575D01*
X33450Y34885D02*
X33510Y34825D01*
X33450Y34885D02*
Y34950D01*
X44950Y36900D02*
X45000Y36950D01*
X44800Y26801D02*
X48800D01*
X43950Y38150D02*
X54500D01*
X42700Y36900D02*
X43950Y38150D01*
X42700Y36900D02*
X44950D01*
X38900D02*
X42700D01*
X44950D02*
X45000D01*
X38700Y36700D02*
X38900Y36900D01*
X23500Y35450D02*
X26600D01*
X21150Y37800D02*
X23500Y35450D01*
X20350Y37800D02*
X21150D01*
X14850Y35200D02*
Y35300D01*
X15600Y36050D01*
X20928Y49172D02*
Y49400D01*
X21800Y49328D02*
X21872Y49400D01*
X21800Y48654D02*
Y49328D01*
Y48654D02*
X28480Y41973D01*
Y37970D02*
Y41973D01*
X20928Y49172D02*
X28230Y41870D01*
X15600Y36050D02*
Y37990D01*
X15605Y37995D01*
X20810Y49400D02*
X20928D01*
X33800Y34875D02*
Y36100D01*
X33750Y34825D02*
X33800Y34875D01*
X33510Y34825D02*
X33750D01*
X21872Y49400D02*
X21990D01*
X33854Y34575D02*
X34050Y34771D01*
X33475Y34575D02*
X33854D01*
X28480Y37970D02*
X29700Y36750D01*
X28230Y37866D02*
Y41870D01*
Y37866D02*
X29596Y36500D01*
X29700Y36750D02*
X33504D01*
X34050Y36204D01*
Y34771D02*
Y36204D01*
X29596Y36500D02*
X33400D01*
X33800Y36100D01*
X20400Y27400D02*
X21400Y27350D01*
D54*
X44800Y26750D02*
D03*
Y24900D02*
D03*
Y23050D02*
D03*
X45000Y36900D02*
D03*
Y35050D02*
D03*
Y33200D02*
D03*
X16050Y15600D02*
D03*
X14200D02*
D03*
X35500Y10251D02*
D03*
Y8400D02*
D03*
Y6550D02*
D03*
X43500Y10250D02*
D03*
Y8400D02*
D03*
Y6550D02*
D03*
X16600Y6500D02*
D03*
Y8350D02*
D03*
Y10200D02*
D03*
X8550Y6600D02*
D03*
Y8450D02*
D03*
Y10301D02*
D03*
D55*
X54500Y40150D02*
D03*
D56*
Y39150D02*
D03*
Y38150D02*
D03*
X21800Y41500D02*
D03*
X22800D02*
D03*
X23800D02*
D03*
X24800D02*
D03*
X25800D02*
D03*
X26800D02*
D03*
X27800D02*
D03*
X20800D02*
D03*
X38450Y51000D02*
D03*
X37450D02*
D03*
X36450D02*
D03*
X35450D02*
D03*
X34450D02*
D03*
X33450D02*
D03*
X32450D02*
D03*
X31450D02*
D03*
X30450D02*
D03*
X29450D02*
D03*
X38450Y50000D02*
D03*
X37450D02*
D03*
X36450D02*
D03*
X35450D02*
D03*
X34450D02*
D03*
X33450D02*
D03*
X32450D02*
D03*
X31450D02*
D03*
X30450D02*
D03*
D57*
X12350Y15600D02*
D03*
D58*
X11180Y30462D02*
D03*
Y32037D02*
D03*
Y34399D02*
D03*
Y33611D02*
D03*
Y32824D02*
D03*
Y31249D02*
D03*
Y35186D02*
D03*
Y29674D02*
D03*
Y28887D02*
D03*
Y23375D02*
D03*
Y24950D02*
D03*
Y26525D02*
D03*
Y25737D02*
D03*
Y24163D02*
D03*
Y28100D02*
D03*
Y22588D02*
D03*
Y21800D02*
D03*
Y27312D02*
D03*
Y21013D02*
D03*
X40314Y30462D02*
D03*
Y32037D02*
D03*
Y34399D02*
D03*
Y33611D02*
D03*
Y32824D02*
D03*
Y31249D02*
D03*
Y35186D02*
D03*
Y29674D02*
D03*
Y28887D02*
D03*
Y23375D02*
D03*
Y24950D02*
D03*
Y26525D02*
D03*
Y25737D02*
D03*
Y24163D02*
D03*
Y28100D02*
D03*
Y22588D02*
D03*
Y21800D02*
D03*
Y27312D02*
D03*
Y21013D02*
D03*
X53250Y17250D02*
D03*
X52250D02*
D03*
X55900Y22350D02*
D03*
X54900D02*
D03*
X55800Y33850D02*
D03*
X54800D02*
D03*
X-3500Y22350D02*
D03*
X-2500D02*
D03*
X3606Y35850D02*
D03*
X4606D02*
D03*
D59*
X11180Y35974D02*
D03*
X40314D02*
D03*
D60*
X38895Y3600D02*
D03*
X13730Y49400D02*
D03*
D61*
X37715Y3600D02*
D03*
X36535D02*
D03*
X35355D02*
D03*
X34175D02*
D03*
X32995D02*
D03*
X31815D02*
D03*
X30635D02*
D03*
X29455D02*
D03*
X14910Y49400D02*
D03*
X16090D02*
D03*
X17270D02*
D03*
X18450D02*
D03*
X19630D02*
D03*
X20810D02*
D03*
X21990D02*
D03*
X23170D02*
D03*
D62*
X38045Y1900D02*
D03*
X30285D02*
D03*
X14580Y51100D02*
D03*
X22340D02*
D03*
D63*
X2500Y2500D02*
D03*
X49900D02*
D03*
X42400Y50400D02*
D03*
X10000D02*
D03*
D64*
X19800Y41500D02*
D03*
X29450Y50000D02*
D03*
D65*
X8450Y35850D02*
D03*
X5450D02*
D03*
X48500Y17250D02*
D03*
X51500D02*
D03*
X53550Y22400D02*
D03*
X50550D02*
D03*
X-700Y22350D02*
D03*
X2300D02*
D03*
X50950Y33850D02*
D03*
X53950D02*
D03*
D66*
X22750Y29100D02*
D03*
X19300Y36350D02*
D03*
X18150Y33150D02*
D03*
X19150Y28300D02*
D03*
X26850Y32550D02*
D03*
X30000Y34950D02*
D03*
X32950Y35800D02*
D03*
X33450Y34450D02*
D03*
Y34950D02*
D03*
X23300Y32500D02*
D03*
X22450Y33700D02*
D03*
X21400Y30800D02*
D03*
X22350Y30750D02*
D03*
X12800Y27200D02*
D03*
X12200Y28400D02*
D03*
X11850Y27850D02*
D03*
X48800Y26801D02*
D03*
X-1700Y33850D02*
D03*
X-2000Y34750D02*
D03*
X32700Y38850D02*
D03*
X32600Y39550D02*
D03*
X32200Y38500D02*
D03*
X22300Y32800D02*
D03*
X20700Y31400D02*
D03*
X21550Y35500D02*
D03*
X21100Y33000D02*
D03*
X33800Y30500D02*
D03*
X25300Y33750D02*
D03*
X26600Y35450D02*
D03*
X20400Y27400D02*
D03*
X19550Y31050D02*
D03*
X22300Y34100D02*
D03*
X20350Y37800D02*
D03*
X14850Y35200D02*
D03*
X15605Y37995D02*
D03*
X21350Y29400D02*
D03*
X21400Y27350D02*
D03*
X20550Y26200D02*
D03*
X18450Y29400D02*
D03*
X21550Y31300D02*
D03*
X23750Y27300D02*
D03*
X21550Y33050D02*
D03*
X32450Y30850D02*
D03*
X23550Y32850D02*
D03*
X31000Y38850D02*
D03*
X31350Y38500D02*
D03*
X36550Y40800D02*
D03*
X30800Y40850D02*
D03*
X31300Y39150D02*
D03*
X23450Y33800D02*
D03*
X22150Y29450D02*
D03*
X29950Y42450D02*
D03*
M02*
