G04*
G04 #@! TF.GenerationSoftware,Altium Limited,Altium Designer,19.1.5 (86)*
G04*
G04 Layer_Color=65535*
%FSLAX24Y24*%
%MOIN*%
G70*
G01*
G75*
%ADD10C,0.0079*%
%ADD11C,0.0100*%
%ADD12C,0.0050*%
%ADD13C,0.0098*%
%ADD14C,0.0236*%
%ADD15C,0.0039*%
%ADD16C,0.0010*%
%ADD17C,0.0040*%
%ADD18C,0.0200*%
%ADD19C,0.0080*%
%ADD20C,0.0061*%
D10*
X44800Y22183D02*
G03*
X44879Y22183I39J0D01*
G01*
D02*
G03*
X44800Y22183I-39J0D01*
G01*
X45000Y32333D02*
G03*
X45079Y32333I39J0D01*
G01*
D02*
G03*
X45000Y32333I-39J0D01*
G01*
X35500Y5684D02*
G03*
X35579Y5684I39J0D01*
G01*
D02*
G03*
X35500Y5684I-39J0D01*
G01*
X43500Y5683D02*
G03*
X43579Y5683I39J0D01*
G01*
D02*
G03*
X43500Y5683I-39J0D01*
G01*
X16679Y5633D02*
G03*
X16600Y5633I-39J0D01*
G01*
D02*
G03*
X16679Y5633I39J0D01*
G01*
X8629Y5734D02*
G03*
X8550Y5734I-39J0D01*
G01*
D02*
G03*
X8629Y5734I39J0D01*
G01*
X22585Y9513D02*
G03*
X22585Y9474I0J-20D01*
G01*
D02*
G03*
X22585Y9513I0J20D01*
G01*
D02*
G03*
X22585Y9474I0J-20D01*
G01*
X2385Y33263D02*
G03*
X2385Y33224I0J-20D01*
G01*
D02*
G03*
X2385Y33263I0J20D01*
G01*
D02*
G03*
X2385Y33224I0J-20D01*
G01*
X-2665Y15663D02*
G03*
X-2665Y15624I0J-20D01*
G01*
D02*
G03*
X-2665Y15663I0J20D01*
G01*
D02*
G03*
X-2665Y15624I0J-20D01*
G01*
X50535Y31463D02*
G03*
X50535Y31424I0J-20D01*
G01*
D02*
G03*
X50535Y31463I0J20D01*
G01*
D02*
G03*
X50535Y31424I0J-20D01*
G01*
X47885Y14713D02*
G03*
X47885Y14674I0J-20D01*
G01*
D02*
G03*
X47885Y14713I0J20D01*
G01*
D02*
G03*
X47885Y14674I0J-20D01*
G01*
X-5365Y29063D02*
G03*
X-5365Y29024I0J-20D01*
G01*
D02*
G03*
X-5365Y29063I0J20D01*
G01*
D02*
G03*
X-5365Y29024I0J-20D01*
G01*
Y37463D02*
G03*
X-5365Y37424I0J-20D01*
G01*
D02*
G03*
X-5365Y37463I0J20D01*
G01*
D02*
G03*
X-5365Y37424I0J-20D01*
G01*
X54000Y37650D02*
Y40650D01*
Y37650D02*
X55000D01*
Y40650D01*
X54000D02*
X55000D01*
X23800Y28074D02*
Y28626D01*
X20250Y28974D02*
Y29526D01*
X17874Y32200D02*
X18426D01*
X26574Y33568D02*
X27126D01*
X20450Y35524D02*
Y36076D01*
X23800Y28974D02*
Y29526D01*
X20250Y28074D02*
Y28626D01*
X18824Y32200D02*
X19376D01*
X25674Y33550D02*
X26226D01*
X20450Y36474D02*
Y37026D01*
X10786Y36367D02*
X11574D01*
X10786Y35580D02*
X11574D01*
X10786Y20619D02*
X11574D01*
Y36367D01*
X10786Y20619D02*
Y36367D01*
X39920D02*
X40708D01*
X39920Y35580D02*
X40708D01*
X39920Y20619D02*
X40708D01*
Y36367D01*
X39920Y20619D02*
Y36367D01*
X28300Y41000D02*
Y42000D01*
X19300Y41000D02*
X28300D01*
X19300D02*
Y42000D01*
X28300D01*
X5860Y35850D02*
X5950D01*
X7950D02*
X8040D01*
X5950D02*
Y36150D01*
X7950D01*
Y35550D02*
Y36150D01*
X5950Y35550D02*
X7950D01*
X5950D02*
Y35850D01*
X51000Y17250D02*
X51090D01*
X48910D02*
X49000D01*
X51000Y16950D02*
Y17250D01*
X49000Y16950D02*
X51000D01*
X49000D02*
Y17550D01*
X51000D01*
Y17250D02*
Y17550D01*
X53050Y22400D02*
Y22700D01*
X51050D02*
X53050D01*
X51050Y22100D02*
Y22700D01*
Y22100D02*
X53050D01*
Y22400D01*
X50960D02*
X51050D01*
X53050D02*
X53140D01*
X-200Y22050D02*
Y22350D01*
Y22050D02*
X1800D01*
Y22650D01*
X-200D02*
X1800D01*
X-200Y22350D02*
Y22650D01*
X1800Y22350D02*
X1890D01*
X-290D02*
X-200D01*
X53450Y33850D02*
X53540D01*
X51360D02*
X51450D01*
X53450Y33550D02*
Y33850D01*
X51450Y33550D02*
X53450D01*
X51450D02*
Y34150D01*
X53450D01*
Y33850D02*
Y34150D01*
X20609Y30709D02*
Y34391D01*
Y30709D02*
X24291D01*
Y34391D01*
X20609D02*
X24291D01*
X28950Y51500D02*
X38950D01*
X28950Y49500D02*
Y51500D01*
Y49500D02*
X38950D01*
Y51500D01*
X31020Y33716D02*
X32280D01*
X31020Y35684D02*
X32280D01*
Y33716D02*
Y35684D01*
X31020Y33716D02*
Y35684D01*
D11*
X40904Y38139D02*
G03*
X40511Y38533I-394J0D01*
G01*
Y18454D02*
G03*
X40904Y18848I0J394D01*
G01*
X10589D02*
G03*
X10983Y18454I394J0D01*
G01*
Y38533D02*
G03*
X10589Y38139I0J-394D01*
G01*
X9950Y29300D02*
X10100Y29150D01*
X9950Y29300D02*
X10250D01*
X10100Y29150D02*
X10250Y29300D01*
X10100Y34900D02*
X10250Y34750D01*
X9950D02*
X10250D01*
X9950D02*
X10100Y34900D01*
X41200Y22250D02*
X41350Y22100D01*
X41200Y22250D02*
X41500D01*
X41350Y22100D02*
X41500Y22250D01*
X41200Y27700D02*
X41350Y27850D01*
X41200Y27700D02*
X41500D01*
X41350Y27850D02*
X41500Y27700D01*
X10100Y29150D02*
Y34900D01*
X41350Y22100D02*
Y27850D01*
X40904Y18848D02*
Y38139D01*
X10983Y18454D02*
X40511D01*
X10589Y18848D02*
Y38139D01*
X10983Y38533D02*
X40511D01*
X40235Y36840D02*
Y37814D01*
X40156Y36761D02*
Y37814D01*
X40078Y36800D02*
Y37814D01*
X39999Y36761D02*
Y37814D01*
X40069Y38193D02*
X40156Y38105D01*
X40053Y38193D02*
X40069D01*
X39965Y38105D02*
X40269D01*
X39864Y38004D02*
X40349D01*
X39764Y37904D02*
X40439D01*
X39674Y37814D02*
X40546D01*
X11456Y36761D02*
Y37821D01*
X11377Y36761D02*
Y37745D01*
X11298Y36840D02*
Y37821D01*
X11219Y36800D02*
Y37745D01*
X11141D02*
X11534D01*
X11075Y37995D02*
X11562D01*
X11294Y38213D02*
X11381D01*
X11198Y38118D02*
X11451D01*
X11108Y38028D02*
X11567D01*
X11000Y37920D02*
X11664D01*
X11065Y37821D02*
X11738D01*
X11065D02*
X11141Y37745D01*
X10901Y37821D02*
X11065D01*
X40314Y36761D02*
Y37745D01*
X39920Y36761D02*
Y37745D01*
Y36761D02*
X40314D01*
X39605Y37745D02*
X39920D01*
X40314D02*
X40629D01*
X40117Y38257D02*
X40629Y37745D01*
X39605D02*
X40117Y38257D01*
X11534Y36761D02*
Y37745D01*
X11141Y36761D02*
Y37745D01*
Y36761D02*
X11534D01*
X10826Y37745D02*
X11141D01*
X11534D02*
X11849D01*
X11337Y38257D02*
X11849Y37745D01*
X10826D02*
X11337Y38257D01*
X53800Y41900D02*
X54000D01*
X53900D01*
Y41600D01*
X54100Y41900D02*
Y41600D01*
Y41750D01*
X54150Y41800D01*
X54250D01*
X54300Y41750D01*
Y41600D01*
X54400Y41800D02*
Y41600D01*
Y41700D01*
X54450Y41750D01*
X54500Y41800D01*
X54550D01*
X54750Y41600D02*
X54850D01*
X54900Y41650D01*
Y41750D01*
X54850Y41800D01*
X54750D01*
X54700Y41750D01*
Y41650D01*
X54750Y41600D01*
X55050Y41850D02*
Y41800D01*
X55000D01*
X55100D01*
X55050D01*
Y41650D01*
X55100Y41600D01*
X55300Y41850D02*
Y41800D01*
X55250D01*
X55349D01*
X55300D01*
Y41650D01*
X55349Y41600D01*
X55499D02*
X55599D01*
X55549D01*
Y41900D01*
X55499D01*
X55899Y41600D02*
X55799D01*
X55749Y41650D01*
Y41750D01*
X55799Y41800D01*
X55899D01*
X55949Y41750D01*
Y41700D01*
X55749D01*
X53800Y41300D02*
Y41000D01*
Y41150D01*
X54000D01*
Y41300D01*
Y41000D01*
X54250D02*
X54150D01*
X54100Y41050D01*
Y41150D01*
X54150Y41200D01*
X54250D01*
X54300Y41150D01*
Y41100D01*
X54100D01*
X54450Y41200D02*
X54550D01*
X54600Y41150D01*
Y41000D01*
X54450D01*
X54400Y41050D01*
X54450Y41100D01*
X54600D01*
X54900Y41300D02*
Y41000D01*
X54750D01*
X54700Y41050D01*
Y41150D01*
X54750Y41200D01*
X54900D01*
X55150Y41000D02*
X55050D01*
X55000Y41050D01*
Y41150D01*
X55050Y41200D01*
X55150D01*
X55200Y41150D01*
Y41100D01*
X55000D01*
X55300Y41200D02*
Y41000D01*
Y41100D01*
X55349Y41150D01*
X55399Y41200D01*
X55449D01*
X51650Y33100D02*
Y33400D01*
X51800D01*
X51850Y33350D01*
Y33250D01*
X51800Y33200D01*
X51650D01*
X51750D02*
X51850Y33100D01*
X51950Y33350D02*
X52000Y33400D01*
X52100D01*
X52150Y33350D01*
Y33300D01*
X52100Y33250D01*
X52050D01*
X52100D01*
X52150Y33200D01*
Y33150D01*
X52100Y33100D01*
X52000D01*
X51950Y33150D01*
X41850Y48050D02*
Y48450D01*
X42050Y48650D01*
X42250Y48450D01*
Y48050D01*
Y48350D01*
X41850D01*
X42450Y48650D02*
Y48150D01*
X42550Y48050D01*
X42750D01*
X42850Y48150D01*
Y48650D01*
X43050D02*
X43449Y48050D01*
Y48650D02*
X43050Y48050D01*
X43649Y47950D02*
X44049D01*
X44649Y48550D02*
X44549Y48650D01*
X44349D01*
X44249Y48550D01*
Y48450D01*
X44349Y48350D01*
X44549D01*
X44649Y48250D01*
Y48150D01*
X44549Y48050D01*
X44349D01*
X44249Y48150D01*
X44949Y48550D02*
Y48450D01*
X44849D01*
X45049D01*
X44949D01*
Y48150D01*
X45049Y48050D01*
X45649D02*
X45449D01*
X45349Y48150D01*
Y48350D01*
X45449Y48450D01*
X45649D01*
X45749Y48350D01*
Y48250D01*
X45349D01*
X46249Y48050D02*
X46049D01*
X45949Y48150D01*
Y48350D01*
X46049Y48450D01*
X46249D01*
X46349Y48350D01*
Y48250D01*
X45949D01*
X46548Y48450D02*
Y48050D01*
Y48250D01*
X46648Y48350D01*
X46748Y48450D01*
X46848D01*
X47148Y48050D02*
X47348D01*
X47248D01*
Y48450D01*
X47148D01*
X47648Y48050D02*
Y48450D01*
X47948D01*
X48048Y48350D01*
Y48050D01*
X48448Y47850D02*
X48548D01*
X48648Y47950D01*
Y48450D01*
X48348D01*
X48248Y48350D01*
Y48150D01*
X48348Y48050D01*
X48648D01*
X48848Y48650D02*
Y48050D01*
X49048Y48250D01*
X49248Y48050D01*
Y48650D01*
X49448D02*
Y48050D01*
Y48350D01*
X49548Y48450D01*
X49747D01*
X49847Y48350D01*
Y48050D01*
X50347D02*
X50147D01*
X50047Y48150D01*
Y48350D01*
X50147Y48450D01*
X50347D01*
X50447Y48350D01*
Y48250D01*
X50047D01*
X50947Y48050D02*
X50747D01*
X50647Y48150D01*
Y48350D01*
X50747Y48450D01*
X50947D01*
X51047Y48350D01*
Y48250D01*
X50647D01*
X51247Y48050D02*
X51447D01*
X51347D01*
Y48650D01*
X51247D01*
X51747Y47950D02*
X52147D01*
X52347Y48650D02*
Y48250D01*
X52547Y48050D01*
X52746Y48250D01*
Y48650D01*
X53246Y48050D02*
Y48650D01*
X52946Y48350D01*
X53346D01*
X55450Y38050D02*
Y38650D01*
X55750D01*
X55850Y38550D01*
Y38350D01*
X55750Y38250D01*
X55450D01*
X56450Y38050D02*
X56050D01*
X56450Y38450D01*
Y38550D01*
X56350Y38650D01*
X56150D01*
X56050Y38550D01*
X38000Y10600D02*
X37900Y10700D01*
X37700D01*
X37600Y10600D01*
Y10500D01*
X37700Y10400D01*
X37900D01*
X38000Y10300D01*
Y10200D01*
X37900Y10100D01*
X37700D01*
X37600Y10200D01*
X38200Y10100D02*
X38400D01*
X38300D01*
Y10700D01*
X38200Y10600D01*
X39100Y10100D02*
X38700D01*
X39100Y10500D01*
Y10600D01*
X39000Y10700D01*
X38800D01*
X38700Y10600D01*
X44150Y21550D02*
X44050Y21650D01*
X43850D01*
X43750Y21550D01*
Y21450D01*
X43850Y21350D01*
X44050D01*
X44150Y21250D01*
Y21150D01*
X44050Y21050D01*
X43850D01*
X43750Y21150D01*
X44350Y21050D02*
X44550D01*
X44450D01*
Y21650D01*
X44350Y21550D01*
X44850Y21050D02*
X45050D01*
X44950D01*
Y21650D01*
X44850Y21550D01*
X18800Y10600D02*
X18700Y10700D01*
X18500D01*
X18400Y10600D01*
Y10500D01*
X18500Y10400D01*
X18700D01*
X18800Y10300D01*
Y10200D01*
X18700Y10100D01*
X18500D01*
X18400Y10200D01*
X19400Y10700D02*
X19200Y10600D01*
X19000Y10400D01*
Y10200D01*
X19100Y10100D01*
X19300D01*
X19400Y10200D01*
Y10300D01*
X19300Y10400D01*
X19000D01*
X46150Y10650D02*
X46050Y10750D01*
X45850D01*
X45750Y10650D01*
Y10550D01*
X45850Y10450D01*
X46050D01*
X46150Y10350D01*
Y10250D01*
X46050Y10150D01*
X45850D01*
X45750Y10250D01*
X46750Y10750D02*
X46350D01*
Y10450D01*
X46550Y10550D01*
X46650D01*
X46750Y10450D01*
Y10250D01*
X46650Y10150D01*
X46450D01*
X46350Y10250D01*
X10600Y10800D02*
X10500Y10900D01*
X10300D01*
X10200Y10800D01*
Y10700D01*
X10300Y10600D01*
X10500D01*
X10600Y10500D01*
Y10400D01*
X10500Y10300D01*
X10300D01*
X10200Y10400D01*
X11100Y10300D02*
Y10900D01*
X10800Y10600D01*
X11200D01*
X44150Y31950D02*
X44050Y32050D01*
X43850D01*
X43750Y31950D01*
Y31850D01*
X43850Y31750D01*
X44050D01*
X44150Y31650D01*
Y31550D01*
X44050Y31450D01*
X43850D01*
X43750Y31550D01*
X44350Y31450D02*
X44550D01*
X44450D01*
Y32050D01*
X44350Y31950D01*
X13750Y18000D02*
X13650Y18100D01*
X13450D01*
X13350Y18000D01*
Y17900D01*
X13450Y17800D01*
X13650D01*
X13750Y17700D01*
Y17600D01*
X13650Y17500D01*
X13450D01*
X13350Y17600D01*
X13950Y17500D02*
X14150D01*
X14050D01*
Y18100D01*
X13950Y18000D01*
X14750Y17500D02*
Y18100D01*
X14450Y17800D01*
X14850D01*
X19150Y35900D02*
X19100Y35950D01*
X19000D01*
X18950Y35900D01*
Y35700D01*
X19000Y35650D01*
X19100D01*
X19150Y35700D01*
X19250Y35650D02*
X19350D01*
X19300D01*
Y35950D01*
X19250Y35900D01*
X26650Y3300D02*
Y3900D01*
X26950D01*
X27050Y3800D01*
Y3600D01*
X26950Y3500D01*
X26650D01*
X27650Y3900D02*
X27250D01*
Y3600D01*
X27450Y3700D01*
X27550D01*
X27650Y3600D01*
Y3400D01*
X27550Y3300D01*
X27350D01*
X27250Y3400D01*
X18100Y41200D02*
Y41800D01*
X18400D01*
X18500Y41700D01*
Y41500D01*
X18400Y41400D01*
X18100D01*
X18700Y41200D02*
X18900D01*
X18800D01*
Y41800D01*
X18700Y41700D01*
X11400Y51750D02*
Y51150D01*
Y51450D01*
X11800D01*
Y51750D01*
Y51150D01*
X12000D02*
X12200D01*
X12100D01*
Y51750D01*
X12000Y51650D01*
X51200Y21500D02*
Y21800D01*
X51350D01*
X51400Y21750D01*
Y21650D01*
X51350Y21600D01*
X51200D01*
X51300D02*
X51400Y21500D01*
X51650D02*
Y21800D01*
X51500Y21650D01*
X51700D01*
X-50Y22850D02*
Y23150D01*
X100D01*
X150Y23100D01*
Y23000D01*
X100Y22950D01*
X-50D01*
X50D02*
X150Y22850D01*
X250D02*
X350D01*
X300D01*
Y23150D01*
X250Y23100D01*
X22325Y6750D02*
X22225Y6850D01*
X22025D01*
X21925Y6750D01*
Y6650D01*
X22025Y6550D01*
X22225D01*
X22325Y6450D01*
Y6350D01*
X22225Y6250D01*
X22025D01*
X21925Y6350D01*
X22525Y6250D02*
X22725D01*
X22625D01*
Y6850D01*
X22525Y6750D01*
X23025D02*
X23125Y6850D01*
X23325D01*
X23425Y6750D01*
Y6650D01*
X23325Y6550D01*
X23225D01*
X23325D01*
X23425Y6450D01*
Y6350D01*
X23325Y6250D01*
X23125D01*
X23025Y6350D01*
X24950Y28350D02*
X24900Y28400D01*
X24800D01*
X24750Y28350D01*
Y28150D01*
X24800Y28100D01*
X24900D01*
X24950Y28150D01*
X25050Y28100D02*
X25150D01*
X25100D01*
Y28400D01*
X25050Y28350D01*
X25300D02*
X25350Y28400D01*
X25450D01*
X25500Y28350D01*
Y28150D01*
X25450Y28100D01*
X25350D01*
X25300Y28150D01*
Y28350D01*
X25000Y29200D02*
X24950Y29250D01*
X24850D01*
X24800Y29200D01*
Y29000D01*
X24850Y28950D01*
X24950D01*
X25000Y29000D01*
X25100D02*
X25150Y28950D01*
X25250D01*
X25300Y29000D01*
Y29200D01*
X25250Y29250D01*
X25150D01*
X25100Y29200D01*
Y29150D01*
X25150Y29100D01*
X25300D01*
X19000Y28400D02*
X18950Y28450D01*
X18850D01*
X18800Y28400D01*
Y28200D01*
X18850Y28150D01*
X18950D01*
X19000Y28200D01*
X19100Y28400D02*
X19150Y28450D01*
X19250D01*
X19300Y28400D01*
Y28350D01*
X19250Y28300D01*
X19300Y28250D01*
Y28200D01*
X19250Y28150D01*
X19150D01*
X19100Y28200D01*
Y28250D01*
X19150Y28300D01*
X19100Y28350D01*
Y28400D01*
X19150Y28300D02*
X19250D01*
X18968Y29300D02*
X18918Y29350D01*
X18818D01*
X18769Y29300D01*
Y29100D01*
X18818Y29050D01*
X18918D01*
X18968Y29100D01*
X19068Y29350D02*
X19268D01*
Y29300D01*
X19068Y29100D01*
Y29050D01*
X19050Y33550D02*
X19000Y33600D01*
X18900D01*
X18850Y33550D01*
Y33350D01*
X18900Y33300D01*
X19000D01*
X19050Y33350D01*
X19350Y33600D02*
X19250Y33550D01*
X19150Y33450D01*
Y33350D01*
X19200Y33300D01*
X19300D01*
X19350Y33350D01*
Y33400D01*
X19300Y33450D01*
X19150D01*
X18100Y33550D02*
X18050Y33600D01*
X17950D01*
X17900Y33550D01*
Y33350D01*
X17950Y33300D01*
X18050D01*
X18100Y33350D01*
X18400Y33600D02*
X18200D01*
Y33450D01*
X18300Y33500D01*
X18350D01*
X18400Y33450D01*
Y33350D01*
X18350Y33300D01*
X18250D01*
X18200Y33350D01*
X26750Y34800D02*
X26700Y34850D01*
X26600D01*
X26550Y34800D01*
Y34600D01*
X26600Y34550D01*
X26700D01*
X26750Y34600D01*
X27000Y34550D02*
Y34850D01*
X26850Y34700D01*
X27050D01*
X25850Y34800D02*
X25800Y34850D01*
X25700D01*
X25650Y34800D01*
Y34600D01*
X25700Y34550D01*
X25800D01*
X25850Y34600D01*
X25950Y34800D02*
X26000Y34850D01*
X26100D01*
X26150Y34800D01*
Y34750D01*
X26100Y34700D01*
X26050D01*
X26100D01*
X26150Y34650D01*
Y34600D01*
X26100Y34550D01*
X26000D01*
X25950Y34600D01*
X19150Y36900D02*
X19100Y36950D01*
X19000D01*
X18950Y36900D01*
Y36700D01*
X19000Y36650D01*
X19100D01*
X19150Y36700D01*
X19450Y36650D02*
X19250D01*
X19450Y36850D01*
Y36900D01*
X19400Y36950D01*
X19300D01*
X19250Y36900D01*
X12250Y39550D02*
Y38950D01*
X12650D01*
X13250Y39450D02*
X13150Y39550D01*
X12950D01*
X12850Y39450D01*
Y39050D01*
X12950Y38950D01*
X13150D01*
X13250Y39050D01*
X13450Y39550D02*
Y38950D01*
X13750D01*
X13849Y39050D01*
Y39450D01*
X13750Y39550D01*
X13450D01*
X14049Y38950D02*
X14249D01*
X14149D01*
Y39550D01*
X14049Y39450D01*
X51800Y27400D02*
X51700Y27500D01*
X51500D01*
X51400Y27400D01*
Y27300D01*
X51500Y27200D01*
X51700D01*
X51800Y27100D01*
Y27000D01*
X51700Y26900D01*
X51500D01*
X51400Y27000D01*
X52400Y26900D02*
X52000D01*
X52400Y27300D01*
Y27400D01*
X52300Y27500D01*
X52100D01*
X52000Y27400D01*
X19290Y34510D02*
X19490D01*
X19390D01*
Y35110D01*
X19290Y35010D01*
X49000Y16450D02*
Y16750D01*
X49150D01*
X49200Y16700D01*
Y16600D01*
X49150Y16550D01*
X49000D01*
X49100D02*
X49200Y16450D01*
X49500Y16750D02*
X49300D01*
Y16600D01*
X49400Y16650D01*
X49450D01*
X49500Y16600D01*
Y16500D01*
X49450Y16450D01*
X49350D01*
X49300Y16500D01*
X6000Y36450D02*
Y36750D01*
X6150D01*
X6200Y36700D01*
Y36600D01*
X6150Y36550D01*
X6000D01*
X6100D02*
X6200Y36450D01*
X6500D02*
X6300D01*
X6500Y36650D01*
Y36700D01*
X6450Y36750D01*
X6350D01*
X6300Y36700D01*
X3900Y29350D02*
X3800Y29450D01*
X3600D01*
X3500Y29350D01*
Y29250D01*
X3600Y29150D01*
X3800D01*
X3900Y29050D01*
Y28950D01*
X3800Y28850D01*
X3600D01*
X3500Y28950D01*
X4100Y28850D02*
X4300D01*
X4200D01*
Y29450D01*
X4100Y29350D01*
X4600D02*
X4700Y29450D01*
X4900D01*
X5000Y29350D01*
Y28950D01*
X4900Y28850D01*
X4700D01*
X4600Y28950D01*
Y29350D01*
X-1050Y11550D02*
X-1150Y11650D01*
X-1350D01*
X-1450Y11550D01*
Y11450D01*
X-1350Y11350D01*
X-1150D01*
X-1050Y11250D01*
Y11150D01*
X-1150Y11050D01*
X-1350D01*
X-1450Y11150D01*
X-850D02*
X-750Y11050D01*
X-550D01*
X-450Y11150D01*
Y11550D01*
X-550Y11650D01*
X-750D01*
X-850Y11550D01*
Y11450D01*
X-750Y11350D01*
X-450D01*
X54450Y11800D02*
X54350Y11900D01*
X54150D01*
X54050Y11800D01*
Y11700D01*
X54150Y11600D01*
X54350D01*
X54450Y11500D01*
Y11400D01*
X54350Y11300D01*
X54150D01*
X54050Y11400D01*
X54650Y11800D02*
X54750Y11900D01*
X54950D01*
X55050Y11800D01*
Y11700D01*
X54950Y11600D01*
X55050Y11500D01*
Y11400D01*
X54950Y11300D01*
X54750D01*
X54650Y11400D01*
Y11500D01*
X54750Y11600D01*
X54650Y11700D01*
Y11800D01*
X54750Y11600D02*
X54950D01*
X28940Y36780D02*
Y36280D01*
X29040Y36180D01*
X29240D01*
X29340Y36280D01*
Y36780D01*
X29540Y36180D02*
X29740D01*
X29640D01*
Y36780D01*
X29540Y36680D01*
X-3800Y25150D02*
X-3900Y25250D01*
X-4100D01*
X-4200Y25150D01*
Y25050D01*
X-4100Y24950D01*
X-3900D01*
X-3800Y24850D01*
Y24750D01*
X-3900Y24650D01*
X-4100D01*
X-4200Y24750D01*
X-3600Y25250D02*
X-3200D01*
Y25150D01*
X-3600Y24750D01*
Y24650D01*
X-3800Y39600D02*
X-3900Y39700D01*
X-4100D01*
X-4200Y39600D01*
Y39500D01*
X-4100Y39400D01*
X-3900D01*
X-3800Y39300D01*
Y39200D01*
X-3900Y39100D01*
X-4100D01*
X-4200Y39200D01*
X-3600Y39600D02*
X-3500Y39700D01*
X-3300D01*
X-3200Y39600D01*
Y39500D01*
X-3300Y39400D01*
X-3400D01*
X-3300D01*
X-3200Y39300D01*
Y39200D01*
X-3300Y39100D01*
X-3500D01*
X-3600Y39200D01*
X29150Y52300D02*
Y51700D01*
Y52000D01*
X29550D01*
Y52300D01*
Y51700D01*
X30150D02*
X29750D01*
X30150Y52100D01*
Y52200D01*
X30050Y52300D01*
X29850D01*
X29750Y52200D01*
D12*
X53380Y17250D02*
G03*
X53380Y17250I-630J0D01*
G01*
X56030Y22350D02*
G03*
X56030Y22350I-630J0D01*
G01*
X55930Y33850D02*
G03*
X55930Y33850I-630J0D01*
G01*
X-2370Y22350D02*
G03*
X-2370Y22350I-630J0D01*
G01*
X4736Y35850D02*
G03*
X4736Y35850I-630J0D01*
G01*
X28140Y4000D02*
X40200D01*
Y100D02*
Y4000D01*
X28140Y100D02*
X40200D01*
X28140D02*
Y4000D01*
X12425Y49000D02*
X24485D01*
X12425D02*
Y52900D01*
X24485D01*
Y49000D02*
Y52900D01*
X-6350Y38150D02*
X-6400Y38200D01*
X-6500D01*
X-6550Y38150D01*
Y37950D01*
X-6500Y37900D01*
X-6400D01*
X-6350Y37950D01*
X-6250Y37900D02*
Y38200D01*
X-6100D01*
X-6050Y38150D01*
Y38050D01*
X-6100Y38000D01*
X-6250D01*
X-5950Y37900D02*
X-5850D01*
X-5900D01*
Y38200D01*
X-5950D01*
X-5700Y38100D02*
Y37950D01*
X-5650Y37900D01*
X-5500D01*
Y38100D01*
X-5400Y37900D02*
X-5250D01*
X-5200Y37950D01*
X-5250Y38000D01*
X-5350D01*
X-5400Y38050D01*
X-5350Y38100D01*
X-5200D01*
X-5100Y37850D02*
X-4901D01*
X-4801Y37900D02*
X-4701D01*
X-4751D01*
Y38100D01*
X-4801D01*
X-4551Y37900D02*
Y38100D01*
X-4401D01*
X-4351Y38050D01*
Y37900D01*
X19750Y37600D02*
X19700Y37650D01*
X19600D01*
X19550Y37600D01*
Y37400D01*
X19600Y37350D01*
X19700D01*
X19750Y37400D01*
Y37500D01*
X19650D01*
X19850Y37350D02*
Y37650D01*
X20050Y37350D01*
Y37650D01*
X20150D02*
Y37350D01*
X20300D01*
X20350Y37400D01*
Y37600D01*
X20300Y37650D01*
X20150D01*
X1800Y31200D02*
X1850Y31250D01*
X1950D01*
X2000Y31200D01*
Y31150D01*
X1950Y31100D01*
X1900D01*
X1950D01*
X2000Y31050D01*
Y31000D01*
X1950Y30950D01*
X1850D01*
X1800Y31000D01*
X2100Y31250D02*
Y31050D01*
X2200Y30950D01*
X2300Y31050D01*
Y31250D01*
X2400Y31200D02*
X2450Y31250D01*
X2550D01*
X2600Y31200D01*
Y31150D01*
X2550Y31100D01*
X2500D01*
X2550D01*
X2600Y31050D01*
Y31000D01*
X2550Y30950D01*
X2450D01*
X2400Y31000D01*
X41500Y10500D02*
X41300D01*
Y10350D01*
X41400Y10400D01*
X41450D01*
X41500Y10350D01*
Y10250D01*
X41450Y10200D01*
X41350D01*
X41300Y10250D01*
X41600Y10500D02*
Y10300D01*
X41700Y10200D01*
X41800Y10300D01*
Y10500D01*
X17050Y32750D02*
X17000Y32800D01*
X16900D01*
X16850Y32750D01*
Y32550D01*
X16900Y32500D01*
X17000D01*
X17050Y32550D01*
Y32650D01*
X16950D01*
X17150Y32500D02*
Y32800D01*
X17350Y32500D01*
Y32800D01*
X17450D02*
Y32500D01*
X17600D01*
X17650Y32550D01*
Y32750D01*
X17600Y32800D01*
X17450D01*
X41300Y35350D02*
X41250Y35400D01*
X41150D01*
X41100Y35350D01*
Y35150D01*
X41150Y35100D01*
X41250D01*
X41300Y35150D01*
Y35250D01*
X41200D01*
X41400Y35100D02*
Y35400D01*
X41600Y35100D01*
Y35400D01*
X41700D02*
Y35100D01*
X41850D01*
X41900Y35150D01*
Y35350D01*
X41850Y35400D01*
X41700D01*
X250Y33600D02*
X200Y33650D01*
X100D01*
X50Y33600D01*
Y33400D01*
X100Y33350D01*
X200D01*
X250Y33400D01*
X350Y33550D02*
Y33350D01*
Y33450D01*
X400Y33500D01*
X450Y33550D01*
X500D01*
X650D02*
Y33400D01*
X700Y33350D01*
X850D01*
Y33550D01*
X950Y33350D02*
X1050D01*
X1000D01*
Y33550D01*
X950D01*
X1200Y33350D02*
X1350D01*
X1400Y33400D01*
X1350Y33450D01*
X1250D01*
X1200Y33500D01*
X1250Y33550D01*
X1400D01*
X1649Y33350D02*
X1550D01*
X1500Y33400D01*
Y33500D01*
X1550Y33550D01*
X1649D01*
X1699Y33500D01*
Y33450D01*
X1500D01*
X1799Y33300D02*
X1999D01*
X2099Y33350D02*
X2199D01*
X2149D01*
Y33550D01*
X2099D01*
X2349Y33350D02*
Y33550D01*
X2499D01*
X2549Y33500D01*
Y33350D01*
X9850Y23500D02*
X9800Y23550D01*
X9700D01*
X9650Y23500D01*
Y23450D01*
X9700Y23400D01*
X9800D01*
X9850Y23350D01*
Y23300D01*
X9800Y23250D01*
X9700D01*
X9650Y23300D01*
X9950Y23550D02*
Y23250D01*
X10100D01*
X10150Y23300D01*
Y23500D01*
X10100Y23550D01*
X9950D01*
X10250D02*
X10350D01*
X10300D01*
Y23250D01*
X10250D01*
X10350D01*
X9750Y35300D02*
X9700Y35350D01*
X9600D01*
X9550Y35300D01*
Y35100D01*
X9600Y35050D01*
X9700D01*
X9750Y35100D01*
Y35200D01*
X9650D01*
X9850Y35050D02*
Y35350D01*
X10050Y35050D01*
Y35350D01*
X10150D02*
Y35050D01*
X10300D01*
X10350Y35100D01*
Y35300D01*
X10300Y35350D01*
X10150D01*
X50650Y39250D02*
X50850D01*
X50750D01*
Y38950D01*
X50950Y39250D02*
Y38950D01*
Y39100D01*
X51000Y39150D01*
X51100D01*
X51150Y39100D01*
Y38950D01*
X51250Y39150D02*
Y38950D01*
Y39050D01*
X51300Y39100D01*
X51350Y39150D01*
X51400D01*
X51600Y38950D02*
X51700D01*
X51750Y39000D01*
Y39100D01*
X51700Y39150D01*
X51600D01*
X51550Y39100D01*
Y39000D01*
X51600Y38950D01*
X51900Y39200D02*
Y39150D01*
X51850D01*
X51950D01*
X51900D01*
Y39000D01*
X51950Y38950D01*
X52150Y39200D02*
Y39150D01*
X52100D01*
X52200D01*
X52150D01*
Y39000D01*
X52200Y38950D01*
X52349D02*
X52449D01*
X52399D01*
Y39250D01*
X52349D01*
X52749Y38950D02*
X52649D01*
X52599Y39000D01*
Y39100D01*
X52649Y39150D01*
X52749D01*
X52799Y39100D01*
Y39050D01*
X52599D01*
X52899Y38900D02*
X53099D01*
X53199Y38950D02*
X53299D01*
X53249D01*
Y39150D01*
X53199D01*
X53449Y38950D02*
Y39150D01*
X53599D01*
X53649Y39100D01*
Y38950D01*
X-7400Y28950D02*
X-7450Y29000D01*
X-7550D01*
X-7600Y28950D01*
Y28750D01*
X-7550Y28700D01*
X-7450D01*
X-7400Y28750D01*
X-7300Y28700D02*
Y29000D01*
X-7200Y28900D01*
X-7100Y29000D01*
Y28700D01*
X-7000D02*
X-6900D01*
X-6950D01*
Y28900D01*
X-7000D01*
X-6750Y28700D02*
Y28900D01*
X-6600D01*
X-6550Y28850D01*
Y28700D01*
X-6450Y28900D02*
Y28750D01*
X-6400Y28700D01*
X-6250D01*
Y28900D01*
X-6150Y28700D02*
X-6001D01*
X-5951Y28750D01*
X-6001Y28800D01*
X-6100D01*
X-6150Y28850D01*
X-6100Y28900D01*
X-5951D01*
X-5851Y28650D02*
X-5651D01*
X-5551Y28700D02*
X-5451D01*
X-5501D01*
Y28900D01*
X-5551D01*
X-5301Y28700D02*
Y28900D01*
X-5151D01*
X-5101Y28850D01*
Y28700D01*
X9750Y24250D02*
X9700Y24300D01*
X9600D01*
X9550Y24250D01*
Y24200D01*
X9600Y24150D01*
X9700D01*
X9750Y24100D01*
Y24050D01*
X9700Y24000D01*
X9600D01*
X9550Y24050D01*
X9850Y24300D02*
Y24000D01*
X10000D01*
X10050Y24050D01*
Y24250D01*
X10000Y24300D01*
X9850D01*
X10300D02*
X10200D01*
X10150Y24250D01*
Y24050D01*
X10200Y24000D01*
X10300D01*
X10350Y24050D01*
Y24250D01*
X10300Y24300D01*
X46850Y37150D02*
X46650D01*
Y37000D01*
X46750Y37050D01*
X46800D01*
X46850Y37000D01*
Y36900D01*
X46800Y36850D01*
X46700D01*
X46650Y36900D01*
X46950Y37150D02*
Y36950D01*
X47050Y36850D01*
X47150Y36950D01*
Y37150D01*
X23000Y40662D02*
X23050Y40712D01*
Y40812D01*
X23000Y40862D01*
X22800D01*
X22750Y40812D01*
Y40712D01*
X22800Y40662D01*
X22750Y40562D02*
X23050D01*
X22950Y40462D01*
X23050Y40362D01*
X22750D01*
Y40262D02*
Y40162D01*
Y40212D01*
X22950D01*
Y40262D01*
X22750Y40012D02*
X22950D01*
Y39862D01*
X22900Y39812D01*
X22750D01*
X22950Y39712D02*
X22800D01*
X22750Y39662D01*
Y39512D01*
X22950D01*
X22750Y39412D02*
Y39262D01*
X22800Y39212D01*
X22850Y39262D01*
Y39362D01*
X22900Y39412D01*
X22950Y39362D01*
Y39212D01*
X22700Y39112D02*
Y38912D01*
X22750Y38812D02*
Y38712D01*
Y38762D01*
X22950D01*
Y38812D01*
X22750Y38562D02*
X22950D01*
Y38412D01*
X22900Y38363D01*
X22750D01*
X27750Y40862D02*
X28050D01*
Y40712D01*
X28000Y40662D01*
X27900D01*
X27850Y40712D01*
Y40862D01*
Y40762D02*
X27750Y40662D01*
Y40412D02*
Y40512D01*
X27800Y40562D01*
X27900D01*
X27950Y40512D01*
Y40412D01*
X27900Y40362D01*
X27850D01*
Y40562D01*
X27750Y40262D02*
Y40112D01*
X27800Y40062D01*
X27850Y40112D01*
Y40212D01*
X27900Y40262D01*
X27950Y40212D01*
Y40062D01*
X27750Y39812D02*
Y39912D01*
X27800Y39962D01*
X27900D01*
X27950Y39912D01*
Y39812D01*
X27900Y39762D01*
X27850D01*
Y39962D01*
X27950Y39662D02*
X27750D01*
X27850D01*
X27900Y39612D01*
X27950Y39562D01*
Y39512D01*
Y39362D02*
X27750Y39262D01*
X27950Y39162D01*
X27750Y38912D02*
Y39012D01*
X27800Y39062D01*
X27900D01*
X27950Y39012D01*
Y38912D01*
X27900Y38862D01*
X27850D01*
Y39062D01*
X28050Y38562D02*
X27750D01*
Y38712D01*
X27800Y38762D01*
X27900D01*
X27950Y38712D01*
Y38562D01*
X28000Y38462D02*
X28050Y38412D01*
Y38313D01*
X28000Y38263D01*
X27800D01*
X27750Y38313D01*
Y38412D01*
X27800Y38462D01*
X28000D01*
X53050Y40200D02*
X53000Y40250D01*
X52900D01*
X52850Y40200D01*
Y40000D01*
X52900Y39950D01*
X53000D01*
X53050Y40000D01*
Y40100D01*
X52950D01*
X53150Y39950D02*
Y40250D01*
X53350Y39950D01*
Y40250D01*
X53450D02*
Y39950D01*
X53600D01*
X53650Y40000D01*
Y40200D01*
X53600Y40250D01*
X53450D01*
X-3500Y13700D02*
X-3450Y13750D01*
X-3350D01*
X-3300Y13700D01*
Y13650D01*
X-3350Y13600D01*
X-3400D01*
X-3350D01*
X-3300Y13550D01*
Y13500D01*
X-3350Y13450D01*
X-3450D01*
X-3500Y13500D01*
X-3200Y13750D02*
Y13550D01*
X-3100Y13450D01*
X-3000Y13550D01*
Y13750D01*
X-2900Y13700D02*
X-2850Y13750D01*
X-2750D01*
X-2700Y13700D01*
Y13650D01*
X-2750Y13600D01*
X-2800D01*
X-2750D01*
X-2700Y13550D01*
Y13500D01*
X-2750Y13450D01*
X-2850D01*
X-2900Y13500D01*
X9750Y22000D02*
X9700Y22050D01*
X9600D01*
X9550Y22000D01*
Y21800D01*
X9600Y21750D01*
X9700D01*
X9750Y21800D01*
Y21900D01*
X9650D01*
X9850Y21750D02*
Y22050D01*
X10050Y21750D01*
Y22050D01*
X10150D02*
Y21750D01*
X10300D01*
X10350Y21800D01*
Y22000D01*
X10300Y22050D01*
X10150D01*
X23350Y48500D02*
X23400Y48550D01*
Y48650D01*
X23350Y48700D01*
X23150D01*
X23100Y48650D01*
Y48550D01*
X23150Y48500D01*
X23250D01*
Y48600D01*
X23100Y48400D02*
X23400D01*
X23100Y48200D01*
X23400D01*
Y48100D02*
X23100D01*
Y47950D01*
X23150Y47900D01*
X23350D01*
X23400Y47950D01*
Y48100D01*
X45300Y14800D02*
Y14500D01*
Y14650D01*
X45500D01*
Y14800D01*
Y14500D01*
X45650Y14700D02*
X45750D01*
X45800Y14650D01*
Y14500D01*
X45650D01*
X45600Y14550D01*
X45650Y14600D01*
X45800D01*
X45900Y14700D02*
X46100D01*
X45900Y14500D01*
X46100D01*
X46250Y14700D02*
X46350D01*
X46400Y14650D01*
Y14500D01*
X46250D01*
X46200Y14550D01*
X46250Y14600D01*
X46400D01*
X46500Y14700D02*
Y14500D01*
Y14600D01*
X46550Y14650D01*
X46600Y14700D01*
X46650D01*
X46999Y14800D02*
Y14500D01*
X46849D01*
X46800Y14550D01*
Y14650D01*
X46849Y14700D01*
X46999D01*
X47099Y14500D02*
X47249D01*
X47299Y14550D01*
X47249Y14600D01*
X47149D01*
X47099Y14650D01*
X47149Y14700D01*
X47299D01*
X47399Y14450D02*
X47599D01*
X47699Y14500D02*
X47799D01*
X47749D01*
Y14700D01*
X47699D01*
X47949Y14500D02*
Y14700D01*
X48099D01*
X48149Y14650D01*
Y14500D01*
X20350Y27750D02*
X20400Y27800D01*
X20500D01*
X20550Y27750D01*
Y27700D01*
X20500Y27650D01*
X20450D01*
X20500D01*
X20550Y27600D01*
Y27550D01*
X20500Y27500D01*
X20400D01*
X20350Y27550D01*
X20650Y27800D02*
Y27600D01*
X20750Y27500D01*
X20850Y27600D01*
Y27800D01*
X20950Y27750D02*
X21000Y27800D01*
X21100D01*
X21150Y27750D01*
Y27700D01*
X21100Y27650D01*
X21050D01*
X21100D01*
X21150Y27600D01*
Y27550D01*
X21100Y27500D01*
X21000D01*
X20950Y27550D01*
X53950Y17350D02*
X53900Y17400D01*
X53800D01*
X53750Y17350D01*
Y17150D01*
X53800Y17100D01*
X53900D01*
X53950Y17150D01*
Y17250D01*
X53850D01*
X54050Y17100D02*
Y17400D01*
X54250Y17100D01*
Y17400D01*
X54350D02*
Y17100D01*
X54500D01*
X54550Y17150D01*
Y17350D01*
X54500Y17400D01*
X54350D01*
X27400Y34200D02*
X27450Y34250D01*
X27550D01*
X27600Y34200D01*
Y34150D01*
X27550Y34100D01*
X27500D01*
X27550D01*
X27600Y34050D01*
Y34000D01*
X27550Y33950D01*
X27450D01*
X27400Y34000D01*
X27700Y34250D02*
Y34050D01*
X27800Y33950D01*
X27900Y34050D01*
Y34250D01*
X28000Y34200D02*
X28050Y34250D01*
X28150D01*
X28200Y34200D01*
Y34150D01*
X28150Y34100D01*
X28100D01*
X28150D01*
X28200Y34050D01*
Y34000D01*
X28150Y33950D01*
X28050D01*
X28000Y34000D01*
X46600Y34850D02*
Y35150D01*
X46750D01*
X46800Y35100D01*
Y35000D01*
X46750Y34950D01*
X46600D01*
X46700D02*
X46800Y34850D01*
X47050D02*
X46950D01*
X46900Y34900D01*
Y35000D01*
X46950Y35050D01*
X47050D01*
X47100Y35000D01*
Y34950D01*
X46900D01*
X47200Y35050D02*
X47300Y34850D01*
X47400Y35050D01*
X47650Y34850D02*
X47550D01*
X47500Y34900D01*
Y35000D01*
X47550Y35050D01*
X47650D01*
X47700Y35000D01*
Y34950D01*
X47500D01*
X47800Y35050D02*
Y34850D01*
Y34950D01*
X47850Y35000D01*
X47900Y35050D01*
X47950D01*
X48100Y34850D02*
X48249D01*
X48299Y34900D01*
X48249Y34950D01*
X48149D01*
X48100Y35000D01*
X48149Y35050D01*
X48299D01*
X48549Y34850D02*
X48449D01*
X48399Y34900D01*
Y35000D01*
X48449Y35050D01*
X48549D01*
X48599Y35000D01*
Y34950D01*
X48399D01*
X21350Y9700D02*
Y9400D01*
X21550D01*
X21700Y9600D02*
X21800D01*
X21850Y9550D01*
Y9400D01*
X21700D01*
X21650Y9450D01*
X21700Y9500D01*
X21850D01*
X22000Y9650D02*
Y9600D01*
X21950D01*
X22050D01*
X22000D01*
Y9450D01*
X22050Y9400D01*
X22400Y9600D02*
X22250D01*
X22200Y9550D01*
Y9450D01*
X22250Y9400D01*
X22400D01*
X22500Y9700D02*
Y9400D01*
Y9550D01*
X22550Y9600D01*
X22650D01*
X22700Y9550D01*
Y9400D01*
X9550Y21100D02*
X9600Y21150D01*
X9700D01*
X9750Y21100D01*
Y21050D01*
X9700Y21000D01*
X9650D01*
X9700D01*
X9750Y20950D01*
Y20900D01*
X9700Y20850D01*
X9600D01*
X9550Y20900D01*
X9850Y21150D02*
Y20950D01*
X9950Y20850D01*
X10050Y20950D01*
Y21150D01*
X10150Y21100D02*
X10200Y21150D01*
X10300D01*
X10350Y21100D01*
Y21050D01*
X10300Y21000D01*
X10250D01*
X10300D01*
X10350Y20950D01*
Y20900D01*
X10300Y20850D01*
X10200D01*
X10150Y20900D01*
X13500Y8250D02*
Y8550D01*
X13650D01*
X13700Y8500D01*
Y8400D01*
X13650Y8350D01*
X13500D01*
X13850Y8250D02*
X13950D01*
X14000Y8300D01*
Y8400D01*
X13950Y8450D01*
X13850D01*
X13800Y8400D01*
Y8300D01*
X13850Y8250D01*
X14100Y8450D02*
Y8300D01*
X14150Y8250D01*
X14200Y8300D01*
X14250Y8250D01*
X14300Y8300D01*
Y8450D01*
X14550Y8250D02*
X14450D01*
X14400Y8300D01*
Y8400D01*
X14450Y8450D01*
X14550D01*
X14600Y8400D01*
Y8350D01*
X14400D01*
X14700Y8450D02*
Y8250D01*
Y8350D01*
X14750Y8400D01*
X14800Y8450D01*
X14850D01*
X14500Y10400D02*
X14300D01*
Y10250D01*
X14400Y10300D01*
X14450D01*
X14500Y10250D01*
Y10150D01*
X14450Y10100D01*
X14350D01*
X14300Y10150D01*
X14600Y10400D02*
Y10200D01*
X14700Y10100D01*
X14800Y10200D01*
Y10400D01*
X46500Y26800D02*
X46550Y26850D01*
X46650D01*
X46700Y26800D01*
Y26750D01*
X46650Y26700D01*
X46600D01*
X46650D01*
X46700Y26650D01*
Y26600D01*
X46650Y26550D01*
X46550D01*
X46500Y26600D01*
X46800Y26850D02*
Y26650D01*
X46900Y26550D01*
X47000Y26650D01*
Y26850D01*
X47100Y26800D02*
X47150Y26850D01*
X47250D01*
X47300Y26800D01*
Y26750D01*
X47250Y26700D01*
X47200D01*
X47250D01*
X47300Y26650D01*
Y26600D01*
X47250Y26550D01*
X47150D01*
X47100Y26600D01*
X56500Y22200D02*
X56450Y22250D01*
X56350D01*
X56300Y22200D01*
Y22000D01*
X56350Y21950D01*
X56450D01*
X56500Y22000D01*
Y22100D01*
X56400D01*
X56600Y21950D02*
Y22250D01*
X56800Y21950D01*
Y22250D01*
X56900D02*
Y21950D01*
X57050D01*
X57100Y22000D01*
Y22200D01*
X57050Y22250D01*
X56900D01*
X9550Y24750D02*
Y25050D01*
X9700D01*
X9750Y25000D01*
Y24900D01*
X9700Y24850D01*
X9550D01*
X9650D02*
X9750Y24750D01*
X10050Y25000D02*
X10000Y25050D01*
X9900D01*
X9850Y25000D01*
Y24950D01*
X9900Y24900D01*
X10000D01*
X10050Y24850D01*
Y24800D01*
X10000Y24750D01*
X9900D01*
X9850Y24800D01*
X10150Y25050D02*
X10350D01*
X10250D01*
Y24750D01*
X20950Y48500D02*
X21000Y48550D01*
Y48650D01*
X20950Y48700D01*
X20750D01*
X20700Y48650D01*
Y48550D01*
X20750Y48500D01*
X20700Y48400D02*
X20900D01*
X21000Y48300D01*
X20900Y48200D01*
X20700D01*
X20850D01*
Y48400D01*
X20700Y48100D02*
X21000D01*
X20700Y47900D01*
X21000D01*
Y47800D02*
X20700D01*
X20850D01*
Y47600D01*
X21000D01*
X20700D01*
X6200Y6650D02*
X6150Y6700D01*
X6050D01*
X6000Y6650D01*
Y6450D01*
X6050Y6400D01*
X6150D01*
X6200Y6450D01*
Y6550D01*
X6100D01*
X6300Y6400D02*
Y6700D01*
X6500Y6400D01*
Y6700D01*
X6600D02*
Y6400D01*
X6750D01*
X6800Y6450D01*
Y6650D01*
X6750Y6700D01*
X6600D01*
X41250Y6650D02*
X41200Y6700D01*
X41100D01*
X41050Y6650D01*
Y6450D01*
X41100Y6400D01*
X41200D01*
X41250Y6450D01*
Y6550D01*
X41150D01*
X41350Y6400D02*
Y6700D01*
X41550Y6400D01*
Y6700D01*
X41650D02*
Y6400D01*
X41800D01*
X41850Y6450D01*
Y6650D01*
X41800Y6700D01*
X41650D01*
X41300Y28300D02*
X41250Y28350D01*
X41150D01*
X41100Y28300D01*
Y28100D01*
X41150Y28050D01*
X41250D01*
X41300Y28100D01*
Y28200D01*
X41200D01*
X41400Y28050D02*
Y28350D01*
X41600Y28050D01*
Y28350D01*
X41700D02*
Y28050D01*
X41850D01*
X41900Y28100D01*
Y28300D01*
X41850Y28350D01*
X41700D01*
X32850Y4750D02*
X33150D01*
X33050Y4650D01*
X33150Y4550D01*
X32850D01*
X33100Y4250D02*
X33150Y4300D01*
Y4400D01*
X33100Y4450D01*
X32900D01*
X32850Y4400D01*
Y4300D01*
X32900Y4250D01*
X15100Y48550D02*
X15150Y48600D01*
Y48700D01*
X15100Y48750D01*
X14900D01*
X14850Y48700D01*
Y48600D01*
X14900Y48550D01*
X15050Y48450D02*
X14850D01*
X14950D01*
X15000Y48400D01*
X15050Y48350D01*
Y48300D01*
Y48150D02*
X14900D01*
X14850Y48100D01*
Y47950D01*
X15050D01*
X14850Y47850D02*
Y47750D01*
Y47800D01*
X15050D01*
Y47850D01*
X14850Y47600D02*
Y47450D01*
X14900Y47400D01*
X14950Y47450D01*
Y47550D01*
X15000Y47600D01*
X15050Y47550D01*
Y47400D01*
X14850Y47151D02*
Y47250D01*
X14900Y47300D01*
X15000D01*
X15050Y47250D01*
Y47151D01*
X15000Y47101D01*
X14950D01*
Y47300D01*
X14800Y47001D02*
Y46801D01*
X14850Y46701D02*
Y46601D01*
Y46651D01*
X15050D01*
Y46701D01*
X14850Y46451D02*
X15050D01*
Y46301D01*
X15000Y46251D01*
X14850D01*
X-4100Y23300D02*
X-4150Y23350D01*
X-4250D01*
X-4300Y23300D01*
Y23100D01*
X-4250Y23050D01*
X-4150D01*
X-4100Y23100D01*
Y23200D01*
X-4200D01*
X-4000Y23050D02*
Y23350D01*
X-3800Y23050D01*
Y23350D01*
X-3700D02*
Y23050D01*
X-3550D01*
X-3500Y23100D01*
Y23300D01*
X-3550Y23350D01*
X-3700D01*
X46500Y25150D02*
Y24850D01*
Y25000D01*
X46700D01*
Y25150D01*
Y24850D01*
X46950D02*
X46850D01*
X46800Y24900D01*
Y25000D01*
X46850Y25050D01*
X46950D01*
X47000Y25000D01*
Y24950D01*
X46800D01*
X47150Y25050D02*
X47250D01*
X47300Y25000D01*
Y24850D01*
X47150D01*
X47100Y24900D01*
X47150Y24950D01*
X47300D01*
X47600Y25150D02*
Y24850D01*
X47450D01*
X47400Y24900D01*
Y25000D01*
X47450Y25050D01*
X47600D01*
X47700Y24850D02*
X47800D01*
X47750D01*
Y25150D01*
X47700D01*
X47950Y24850D02*
X48050D01*
X48000D01*
Y25050D01*
X47950D01*
X48299Y24750D02*
X48349D01*
X48399Y24800D01*
Y25050D01*
X48249D01*
X48199Y25000D01*
Y24900D01*
X48249Y24850D01*
X48399D01*
X48499Y25150D02*
Y24850D01*
Y25000D01*
X48549Y25050D01*
X48649D01*
X48699Y25000D01*
Y24850D01*
X48849Y25100D02*
Y25050D01*
X48799D01*
X48899D01*
X48849D01*
Y24900D01*
X48899Y24850D01*
X49049D02*
X49199D01*
X49249Y24900D01*
X49199Y24950D01*
X49099D01*
X49049Y25000D01*
X49099Y25050D01*
X49249D01*
X49349Y24800D02*
X49549D01*
X49649Y24850D02*
X49749D01*
X49699D01*
Y25050D01*
X49649D01*
X49899Y24850D02*
Y25050D01*
X50049D01*
X50099Y25000D01*
Y24850D01*
X14300Y6650D02*
X14250Y6700D01*
X14150D01*
X14100Y6650D01*
Y6450D01*
X14150Y6400D01*
X14250D01*
X14300Y6450D01*
Y6550D01*
X14200D01*
X14400Y6400D02*
Y6700D01*
X14600Y6400D01*
Y6700D01*
X14700D02*
Y6400D01*
X14850D01*
X14900Y6450D01*
Y6650D01*
X14850Y6700D01*
X14700D01*
X41300Y21900D02*
X41250Y21950D01*
X41150D01*
X41100Y21900D01*
Y21700D01*
X41150Y21650D01*
X41250D01*
X41300Y21700D01*
Y21800D01*
X41200D01*
X41400Y21650D02*
Y21950D01*
X41600Y21650D01*
Y21950D01*
X41700D02*
Y21650D01*
X41850D01*
X41900Y21700D01*
Y21900D01*
X41850Y21950D01*
X41700D01*
X24050Y27800D02*
X24100Y27850D01*
X24200D01*
X24250Y27800D01*
Y27750D01*
X24200Y27700D01*
X24150D01*
X24200D01*
X24250Y27650D01*
Y27600D01*
X24200Y27550D01*
X24100D01*
X24050Y27600D01*
X24350Y27850D02*
Y27650D01*
X24450Y27550D01*
X24550Y27650D01*
Y27850D01*
X24650Y27800D02*
X24700Y27850D01*
X24800D01*
X24850Y27800D01*
Y27750D01*
X24800Y27700D01*
X24750D01*
X24800D01*
X24850Y27650D01*
Y27600D01*
X24800Y27550D01*
X24700D01*
X24650Y27600D01*
X33350Y8150D02*
Y8450D01*
X33450Y8350D01*
X33550Y8450D01*
Y8150D01*
X33850Y8400D02*
X33800Y8450D01*
X33700D01*
X33650Y8400D01*
Y8200D01*
X33700Y8150D01*
X33800D01*
X33850Y8200D01*
X9750Y29000D02*
X9700Y29050D01*
X9600D01*
X9550Y29000D01*
Y28800D01*
X9600Y28750D01*
X9700D01*
X9750Y28800D01*
Y28900D01*
X9650D01*
X9850Y28750D02*
Y29050D01*
X10050Y28750D01*
Y29050D01*
X10150D02*
Y28750D01*
X10300D01*
X10350Y28800D01*
Y29000D01*
X10300Y29050D01*
X10150D01*
X46750Y33400D02*
X46700Y33450D01*
X46600D01*
X46550Y33400D01*
Y33200D01*
X46600Y33150D01*
X46700D01*
X46750Y33200D01*
Y33300D01*
X46650D01*
X46850Y33150D02*
Y33450D01*
X47050Y33150D01*
Y33450D01*
X47150D02*
Y33150D01*
X47300D01*
X47350Y33200D01*
Y33400D01*
X47300Y33450D01*
X47150D01*
X22150Y48500D02*
X22200Y48550D01*
Y48650D01*
X22150Y48700D01*
X21950D01*
X21900Y48650D01*
Y48550D01*
X21950Y48500D01*
X21900Y48400D02*
X22100D01*
X22200Y48300D01*
X22100Y48200D01*
X21900D01*
X22050D01*
Y48400D01*
X21900Y48100D02*
X22200D01*
X21900Y47900D01*
X22200D01*
Y47800D02*
X21900D01*
Y47600D01*
X17200Y48700D02*
X17500D01*
Y48550D01*
X17450Y48500D01*
X17350D01*
X17300Y48550D01*
Y48700D01*
Y48600D02*
X17200Y48500D01*
Y48250D02*
Y48350D01*
X17250Y48400D01*
X17350D01*
X17400Y48350D01*
Y48250D01*
X17350Y48200D01*
X17300D01*
Y48400D01*
X17400Y48100D02*
X17200Y48000D01*
X17400Y47900D01*
X17200Y47650D02*
Y47750D01*
X17250Y47800D01*
X17350D01*
X17400Y47750D01*
Y47650D01*
X17350Y47600D01*
X17300D01*
Y47800D01*
X17400Y47500D02*
X17200D01*
X17300D01*
X17350Y47450D01*
X17400Y47400D01*
Y47350D01*
X17200Y47200D02*
Y47051D01*
X17250Y47001D01*
X17300Y47051D01*
Y47151D01*
X17350Y47200D01*
X17400Y47151D01*
Y47001D01*
X17200Y46751D02*
Y46851D01*
X17250Y46901D01*
X17350D01*
X17400Y46851D01*
Y46751D01*
X17350Y46701D01*
X17300D01*
Y46901D01*
X20650Y37600D02*
X20700Y37650D01*
X20800D01*
X20850Y37600D01*
Y37550D01*
X20800Y37500D01*
X20750D01*
X20800D01*
X20850Y37450D01*
Y37400D01*
X20800Y37350D01*
X20700D01*
X20650Y37400D01*
X20950Y37650D02*
Y37450D01*
X21050Y37350D01*
X21150Y37450D01*
Y37650D01*
X21250Y37600D02*
X21300Y37650D01*
X21400D01*
X21450Y37600D01*
Y37550D01*
X21400Y37500D01*
X21350D01*
X21400D01*
X21450Y37450D01*
Y37400D01*
X21400Y37350D01*
X21300D01*
X21250Y37400D01*
X56500Y33950D02*
X56450Y34000D01*
X56350D01*
X56300Y33950D01*
Y33750D01*
X56350Y33700D01*
X56450D01*
X56500Y33750D01*
Y33850D01*
X56400D01*
X56600Y33700D02*
Y34000D01*
X56800Y33700D01*
Y34000D01*
X56900D02*
Y33700D01*
X57050D01*
X57100Y33750D01*
Y33950D01*
X57050Y34000D01*
X56900D01*
X48350Y22250D02*
Y22550D01*
X48500D01*
X48550Y22500D01*
Y22400D01*
X48500Y22350D01*
X48350D01*
X48450D02*
X48550Y22250D01*
X48650Y22550D02*
X48850D01*
X48750D01*
Y22250D01*
X48950Y22200D02*
X49150D01*
X49300Y22250D02*
X49400D01*
X49450Y22300D01*
Y22400D01*
X49400Y22450D01*
X49300D01*
X49250Y22400D01*
Y22300D01*
X49300Y22250D01*
X49550Y22450D02*
Y22300D01*
X49600Y22250D01*
X49750D01*
Y22450D01*
X49900Y22500D02*
Y22450D01*
X49850D01*
X49949D01*
X49900D01*
Y22300D01*
X49949Y22250D01*
X47150Y12650D02*
X47200Y12700D01*
X47300D01*
X47350Y12650D01*
Y12600D01*
X47300Y12550D01*
X47250D01*
X47300D01*
X47350Y12500D01*
Y12450D01*
X47300Y12400D01*
X47200D01*
X47150Y12450D01*
X47450Y12700D02*
Y12500D01*
X47550Y12400D01*
X47650Y12500D01*
Y12700D01*
X47750Y12650D02*
X47800Y12700D01*
X47900D01*
X47950Y12650D01*
Y12600D01*
X47900Y12550D01*
X47850D01*
X47900D01*
X47950Y12500D01*
Y12450D01*
X47900Y12400D01*
X47800D01*
X47750Y12450D01*
X27600Y33150D02*
X27550Y33200D01*
X27450D01*
X27400Y33150D01*
Y32950D01*
X27450Y32900D01*
X27550D01*
X27600Y32950D01*
Y33050D01*
X27500D01*
X27700Y32900D02*
Y33200D01*
X27900Y32900D01*
Y33200D01*
X28000D02*
Y32900D01*
X28150D01*
X28200Y32950D01*
Y33150D01*
X28150Y33200D01*
X28000D01*
X19450Y27750D02*
X19400Y27800D01*
X19300D01*
X19250Y27750D01*
Y27550D01*
X19300Y27500D01*
X19400D01*
X19450Y27550D01*
Y27650D01*
X19350D01*
X19550Y27500D02*
Y27800D01*
X19750Y27500D01*
Y27800D01*
X19850D02*
Y27500D01*
X20000D01*
X20050Y27550D01*
Y27750D01*
X20000Y27800D01*
X19850D01*
X33400Y6700D02*
X33350Y6750D01*
X33250D01*
X33200Y6700D01*
Y6500D01*
X33250Y6450D01*
X33350D01*
X33400Y6500D01*
Y6600D01*
X33300D01*
X33500Y6450D02*
Y6750D01*
X33700Y6450D01*
Y6750D01*
X33800D02*
Y6450D01*
X33950D01*
X34000Y6500D01*
Y6700D01*
X33950Y6750D01*
X33800D01*
X41300Y36100D02*
X41100D01*
Y35950D01*
X41200Y36000D01*
X41250D01*
X41300Y35950D01*
Y35850D01*
X41250Y35800D01*
X41150D01*
X41100Y35850D01*
X41400Y36100D02*
Y35900D01*
X41500Y35800D01*
X41600Y35900D01*
Y36100D01*
X9750Y26600D02*
X9700Y26650D01*
X9600D01*
X9550Y26600D01*
Y26550D01*
X9600Y26500D01*
X9700D01*
X9750Y26450D01*
Y26400D01*
X9700Y26350D01*
X9600D01*
X9550Y26400D01*
X10050Y26600D02*
X10000Y26650D01*
X9900D01*
X9850Y26600D01*
Y26400D01*
X9900Y26350D01*
X10000D01*
X10050Y26400D01*
X10150Y26650D02*
Y26350D01*
Y26450D01*
X10350Y26650D01*
X10200Y26500D01*
X10350Y26350D01*
X6500Y10500D02*
X6300D01*
Y10350D01*
X6400Y10400D01*
X6450D01*
X6500Y10350D01*
Y10250D01*
X6450Y10200D01*
X6350D01*
X6300Y10250D01*
X6600Y10500D02*
Y10300D01*
X6700Y10200D01*
X6800Y10300D01*
Y10500D01*
X47950Y33700D02*
Y34000D01*
X48100D01*
X48150Y33950D01*
Y33850D01*
X48100Y33800D01*
X47950D01*
X48050D02*
X48150Y33700D01*
X48400D02*
X48300D01*
X48250Y33750D01*
Y33850D01*
X48300Y33900D01*
X48400D01*
X48450Y33850D01*
Y33800D01*
X48250D01*
X48650Y33600D02*
X48700D01*
X48750Y33650D01*
Y33900D01*
X48600D01*
X48550Y33850D01*
Y33750D01*
X48600Y33700D01*
X48750D01*
X49000D02*
X48900D01*
X48850Y33750D01*
Y33850D01*
X48900Y33900D01*
X49000D01*
X49050Y33850D01*
Y33800D01*
X48850D01*
X49150Y33700D02*
Y33900D01*
X49300D01*
X49350Y33850D01*
Y33700D01*
X49450Y33650D02*
X49649D01*
X49799Y33700D02*
X49899D01*
X49949Y33750D01*
Y33850D01*
X49899Y33900D01*
X49799D01*
X49749Y33850D01*
Y33750D01*
X49799Y33700D01*
X50049Y33900D02*
Y33750D01*
X50099Y33700D01*
X50249D01*
Y33900D01*
X50399Y33950D02*
Y33900D01*
X50349D01*
X50449D01*
X50399D01*
Y33750D01*
X50449Y33700D01*
X22000Y40662D02*
X22050Y40712D01*
Y40812D01*
X22000Y40862D01*
X21800D01*
X21750Y40812D01*
Y40712D01*
X21800Y40662D01*
X21750Y40562D02*
X22050D01*
Y40412D01*
X22000Y40362D01*
X21900D01*
X21850Y40412D01*
Y40562D01*
X21750Y40262D02*
Y40162D01*
Y40212D01*
X22050D01*
Y40262D01*
X21950Y40012D02*
X21800D01*
X21750Y39962D01*
Y39812D01*
X21950D01*
X21750Y39712D02*
Y39562D01*
X21800Y39512D01*
X21850Y39562D01*
Y39662D01*
X21900Y39712D01*
X21950Y39662D01*
Y39512D01*
X21700Y39412D02*
Y39212D01*
X21750Y39112D02*
Y39012D01*
Y39062D01*
X21950D01*
Y39112D01*
X21750Y38862D02*
X21950D01*
Y38712D01*
X21900Y38662D01*
X21750D01*
X32000Y5600D02*
X31700D01*
Y5400D01*
X31900Y5250D02*
Y5150D01*
X31850Y5100D01*
X31700D01*
Y5250D01*
X31750Y5300D01*
X31800Y5250D01*
Y5100D01*
X31950Y4950D02*
X31900D01*
Y5000D01*
Y4900D01*
Y4950D01*
X31750D01*
X31700Y4900D01*
X31900Y4550D02*
Y4700D01*
X31850Y4750D01*
X31750D01*
X31700Y4700D01*
Y4550D01*
X32000Y4450D02*
X31700D01*
X31850D01*
X31900Y4400D01*
Y4300D01*
X31850Y4250D01*
X31700D01*
X29600Y5350D02*
X29650Y5400D01*
Y5500D01*
X29600Y5550D01*
X29550D01*
X29500Y5500D01*
Y5400D01*
X29450Y5350D01*
X29400D01*
X29350Y5400D01*
Y5500D01*
X29400Y5550D01*
X29600Y5200D02*
X29550D01*
Y5250D01*
Y5150D01*
Y5200D01*
X29400D01*
X29350Y5150D01*
X29650Y4800D02*
X29350D01*
Y4950D01*
X29400Y5000D01*
X29500D01*
X29550Y4950D01*
Y4800D01*
X29650Y4700D02*
X29350D01*
Y4550D01*
X29400Y4500D01*
X29450D01*
X29500Y4550D01*
Y4700D01*
Y4550D01*
X29550Y4500D01*
X29600D01*
X29650Y4550D01*
Y4700D01*
X29550Y4400D02*
X29400D01*
X29350Y4350D01*
Y4200D01*
X29300D01*
X29250Y4250D01*
Y4300D01*
X29350Y4200D02*
X29550D01*
X41100Y29750D02*
X41150Y29800D01*
X41250D01*
X41300Y29750D01*
Y29700D01*
X41250Y29650D01*
X41200D01*
X41250D01*
X41300Y29600D01*
Y29550D01*
X41250Y29500D01*
X41150D01*
X41100Y29550D01*
X41400Y29800D02*
Y29600D01*
X41500Y29500D01*
X41600Y29600D01*
Y29800D01*
X41700Y29750D02*
X41750Y29800D01*
X41850D01*
X41900Y29750D01*
Y29700D01*
X41850Y29650D01*
X41800D01*
X41850D01*
X41900Y29600D01*
Y29550D01*
X41850Y29500D01*
X41750D01*
X41700Y29550D01*
X16850Y31750D02*
X16900Y31800D01*
X17000D01*
X17050Y31750D01*
Y31700D01*
X17000Y31650D01*
X16950D01*
X17000D01*
X17050Y31600D01*
Y31550D01*
X17000Y31500D01*
X16900D01*
X16850Y31550D01*
X17150Y31800D02*
Y31600D01*
X17250Y31500D01*
X17350Y31600D01*
Y31800D01*
X17450Y31750D02*
X17500Y31800D01*
X17600D01*
X17650Y31750D01*
Y31700D01*
X17600Y31650D01*
X17550D01*
X17600D01*
X17650Y31600D01*
Y31550D01*
X17600Y31500D01*
X17500D01*
X17450Y31550D01*
X2500Y35900D02*
X2450Y35950D01*
X2350D01*
X2300Y35900D01*
Y35700D01*
X2350Y35650D01*
X2450D01*
X2500Y35700D01*
Y35800D01*
X2400D01*
X2600Y35650D02*
Y35950D01*
X2800Y35650D01*
Y35950D01*
X2900D02*
Y35650D01*
X3050D01*
X3100Y35700D01*
Y35900D01*
X3050Y35950D01*
X2900D01*
X48350Y31250D02*
Y31550D01*
X48500D01*
X48550Y31500D01*
Y31400D01*
X48500Y31350D01*
X48350D01*
X48450D02*
X48550Y31250D01*
X48800D02*
X48700D01*
X48650Y31300D01*
Y31400D01*
X48700Y31450D01*
X48800D01*
X48850Y31400D01*
Y31350D01*
X48650D01*
X49050Y31150D02*
X49100D01*
X49150Y31200D01*
Y31450D01*
X49000D01*
X48950Y31400D01*
Y31300D01*
X49000Y31250D01*
X49150D01*
X49400D02*
X49300D01*
X49250Y31300D01*
Y31400D01*
X49300Y31450D01*
X49400D01*
X49450Y31400D01*
Y31350D01*
X49250D01*
X49550Y31250D02*
Y31450D01*
X49700D01*
X49750Y31400D01*
Y31250D01*
X49850Y31200D02*
X50049D01*
X50149Y31250D02*
X50249D01*
X50199D01*
Y31450D01*
X50149D01*
X50399Y31250D02*
Y31450D01*
X50549D01*
X50599Y31400D01*
Y31250D01*
X2800Y22550D02*
Y22250D01*
X3000D01*
X3100Y22550D02*
X3300D01*
X3200D01*
Y22250D01*
X3400Y22200D02*
X3600D01*
X3750Y22250D02*
X3850D01*
X3900Y22300D01*
Y22400D01*
X3850Y22450D01*
X3750D01*
X3700Y22400D01*
Y22300D01*
X3750Y22250D01*
X4000Y22450D02*
Y22300D01*
X4050Y22250D01*
X4200D01*
Y22450D01*
X4349Y22500D02*
Y22450D01*
X4300D01*
X4399D01*
X4349D01*
Y22300D01*
X4399Y22250D01*
X7450Y36650D02*
X7400Y36700D01*
X7300D01*
X7250Y36650D01*
Y36450D01*
X7300Y36400D01*
X7400D01*
X7450Y36450D01*
X7550Y36600D02*
Y36400D01*
Y36500D01*
X7600Y36550D01*
X7650Y36600D01*
X7700D01*
X7850D02*
Y36450D01*
X7900Y36400D01*
X8050D01*
Y36600D01*
X8150Y36400D02*
X8250D01*
X8200D01*
Y36600D01*
X8150D01*
X8400Y36400D02*
X8550D01*
X8600Y36450D01*
X8550Y36500D01*
X8450D01*
X8400Y36550D01*
X8450Y36600D01*
X8600D01*
X8849Y36400D02*
X8750D01*
X8700Y36450D01*
Y36550D01*
X8750Y36600D01*
X8849D01*
X8899Y36550D01*
Y36500D01*
X8700D01*
X8999Y36350D02*
X9199D01*
X9349Y36400D02*
X9449D01*
X9499Y36450D01*
Y36550D01*
X9449Y36600D01*
X9349D01*
X9299Y36550D01*
Y36450D01*
X9349Y36400D01*
X9599Y36600D02*
Y36450D01*
X9649Y36400D01*
X9799D01*
Y36600D01*
X9949Y36650D02*
Y36600D01*
X9899D01*
X9999D01*
X9949D01*
Y36450D01*
X9999Y36400D01*
X21650Y7550D02*
X21700Y7600D01*
X21800D01*
X21850Y7550D01*
Y7500D01*
X21800Y7450D01*
X21750D01*
X21800D01*
X21850Y7400D01*
Y7350D01*
X21800Y7300D01*
X21700D01*
X21650Y7350D01*
X21950Y7600D02*
Y7400D01*
X22050Y7300D01*
X22150Y7400D01*
Y7600D01*
X22250Y7550D02*
X22300Y7600D01*
X22400D01*
X22450Y7550D01*
Y7500D01*
X22400Y7450D01*
X22350D01*
X22400D01*
X22450Y7400D01*
Y7350D01*
X22400Y7300D01*
X22300D01*
X22250Y7350D01*
X49750Y29450D02*
X49800Y29500D01*
X49900D01*
X49950Y29450D01*
Y29400D01*
X49900Y29350D01*
X49850D01*
X49900D01*
X49950Y29300D01*
Y29250D01*
X49900Y29200D01*
X49800D01*
X49750Y29250D01*
X50050Y29500D02*
Y29300D01*
X50150Y29200D01*
X50250Y29300D01*
Y29500D01*
X50350Y29450D02*
X50400Y29500D01*
X50500D01*
X50550Y29450D01*
Y29400D01*
X50500Y29350D01*
X50450D01*
X50500D01*
X50550Y29300D01*
Y29250D01*
X50500Y29200D01*
X50400D01*
X50350Y29250D01*
X24050Y40862D02*
X23750D01*
X23900D01*
Y40662D01*
X24050D01*
X23750D01*
X23950Y40512D02*
Y40412D01*
X23900Y40362D01*
X23750D01*
Y40512D01*
X23800Y40562D01*
X23850Y40512D01*
Y40362D01*
X23950Y40262D02*
Y40062D01*
X23750Y40262D01*
Y40062D01*
X23950Y39912D02*
Y39812D01*
X23900Y39762D01*
X23750D01*
Y39912D01*
X23800Y39962D01*
X23850Y39912D01*
Y39762D01*
X23950Y39662D02*
X23750D01*
X23850D01*
X23900Y39612D01*
X23950Y39562D01*
Y39512D01*
X24050Y39162D02*
X23750D01*
Y39312D01*
X23800Y39362D01*
X23900D01*
X23950Y39312D01*
Y39162D01*
X23750Y39062D02*
Y38912D01*
X23800Y38862D01*
X23850Y38912D01*
Y39012D01*
X23900Y39062D01*
X23950Y39012D01*
Y38862D01*
X23700Y38762D02*
Y38562D01*
X23750Y38462D02*
Y38363D01*
Y38412D01*
X23950D01*
Y38462D01*
X23750Y38213D02*
X23950D01*
Y38063D01*
X23900Y38013D01*
X23750D01*
X10050Y28250D02*
X10000Y28300D01*
X9900D01*
X9850Y28250D01*
Y28050D01*
X9900Y28000D01*
X10000D01*
X10050Y28050D01*
X10350Y28250D02*
X10300Y28300D01*
X10200D01*
X10150Y28250D01*
Y28200D01*
X10200Y28150D01*
X10300D01*
X10350Y28100D01*
Y28050D01*
X10300Y28000D01*
X10200D01*
X10150Y28050D01*
X-4550Y15750D02*
Y15450D01*
Y15600D01*
X-4350D01*
Y15750D01*
Y15450D01*
X-4200D02*
X-4100D01*
X-4050Y15500D01*
Y15600D01*
X-4100Y15650D01*
X-4200D01*
X-4250Y15600D01*
Y15500D01*
X-4200Y15450D01*
X-3950Y15650D02*
Y15450D01*
Y15550D01*
X-3900Y15600D01*
X-3850Y15650D01*
X-3800D01*
X-3650Y15450D02*
Y15650D01*
X-3500D01*
X-3450Y15600D01*
Y15450D01*
X-3350Y15400D02*
X-3150D01*
X-3050Y15450D02*
X-2951D01*
X-3000D01*
Y15650D01*
X-3050D01*
X-2801Y15450D02*
Y15650D01*
X-2651D01*
X-2601Y15600D01*
Y15450D01*
X25750Y40862D02*
X26050D01*
Y40712D01*
X26000Y40662D01*
X25900D01*
X25850Y40712D01*
Y40862D01*
Y40762D02*
X25750Y40662D01*
Y40412D02*
Y40512D01*
X25800Y40562D01*
X25900D01*
X25950Y40512D01*
Y40412D01*
X25900Y40362D01*
X25850D01*
Y40562D01*
X25650Y40162D02*
Y40112D01*
X25700Y40062D01*
X25950D01*
Y40212D01*
X25900Y40262D01*
X25800D01*
X25750Y40212D01*
Y40062D01*
Y39812D02*
Y39912D01*
X25800Y39962D01*
X25900D01*
X25950Y39912D01*
Y39812D01*
X25900Y39762D01*
X25850D01*
Y39962D01*
X25750Y39662D02*
X25950D01*
Y39512D01*
X25900Y39462D01*
X25750D01*
X25700Y39362D02*
Y39162D01*
X25750Y39062D02*
Y38962D01*
Y39012D01*
X25950D01*
Y39062D01*
X25750Y38812D02*
X25950D01*
Y38662D01*
X25900Y38612D01*
X25750D01*
X25050Y40862D02*
X24750D01*
X24900D01*
Y40662D01*
X25050D01*
X24750D01*
Y40412D02*
Y40512D01*
X24800Y40562D01*
X24900D01*
X24950Y40512D01*
Y40412D01*
X24900Y40362D01*
X24850D01*
Y40562D01*
X24950Y40212D02*
Y40112D01*
X24900Y40062D01*
X24750D01*
Y40212D01*
X24800Y40262D01*
X24850Y40212D01*
Y40062D01*
X25050Y39762D02*
X24750D01*
Y39912D01*
X24800Y39962D01*
X24900D01*
X24950Y39912D01*
Y39762D01*
X24750Y39662D02*
Y39562D01*
Y39612D01*
X25050D01*
Y39662D01*
X24750Y39412D02*
Y39312D01*
Y39362D01*
X24950D01*
Y39412D01*
X24650Y39062D02*
Y39012D01*
X24700Y38962D01*
X24950D01*
Y39112D01*
X24900Y39162D01*
X24800D01*
X24750Y39112D01*
Y38962D01*
X25050Y38862D02*
X24750D01*
X24900D01*
X24950Y38812D01*
Y38712D01*
X24900Y38662D01*
X24750D01*
X25000Y38512D02*
X24950D01*
Y38562D01*
Y38462D01*
Y38512D01*
X24800D01*
X24750Y38462D01*
Y38313D02*
Y38163D01*
X24800Y38113D01*
X24850Y38163D01*
Y38263D01*
X24900Y38313D01*
X24950Y38263D01*
Y38113D01*
X24700Y38013D02*
Y37813D01*
X24750Y37713D02*
Y37613D01*
Y37663D01*
X24950D01*
Y37713D01*
X24750Y37463D02*
X24950D01*
Y37313D01*
X24900Y37263D01*
X24750D01*
X20000Y40862D02*
X19700D01*
Y40662D01*
X20000Y40562D02*
Y40362D01*
Y40462D01*
X19700D01*
X19650Y40262D02*
Y40062D01*
X19700Y39962D02*
Y39862D01*
Y39912D01*
X19900D01*
Y39962D01*
X19700Y39712D02*
X19900D01*
Y39562D01*
X19850Y39512D01*
X19700D01*
X27050Y40862D02*
X26750D01*
X26900D01*
Y40662D01*
X27050D01*
X26750D01*
Y40512D02*
Y40412D01*
X26800Y40362D01*
X26900D01*
X26950Y40412D01*
Y40512D01*
X26900Y40562D01*
X26800D01*
X26750Y40512D01*
X26950Y40262D02*
X26750D01*
X26850D01*
X26900Y40212D01*
X26950Y40162D01*
Y40112D01*
X26750Y39962D02*
X26950D01*
Y39812D01*
X26900Y39762D01*
X26750D01*
X26700Y39662D02*
Y39462D01*
X26750Y39362D02*
Y39262D01*
Y39312D01*
X26950D01*
Y39362D01*
X26750Y39112D02*
X26950D01*
Y38962D01*
X26900Y38912D01*
X26750D01*
X44850Y17400D02*
Y17100D01*
Y17250D01*
X45050D01*
Y17400D01*
Y17100D01*
X45200Y17300D02*
X45300D01*
X45350Y17250D01*
Y17100D01*
X45200D01*
X45150Y17150D01*
X45200Y17200D01*
X45350D01*
X45450Y17300D02*
X45650D01*
X45450Y17100D01*
X45650D01*
X45800Y17300D02*
X45900D01*
X45950Y17250D01*
Y17100D01*
X45800D01*
X45750Y17150D01*
X45800Y17200D01*
X45950D01*
X46050Y17300D02*
Y17100D01*
Y17200D01*
X46100Y17250D01*
X46150Y17300D01*
X46200D01*
X46549Y17400D02*
Y17100D01*
X46399D01*
X46350Y17150D01*
Y17250D01*
X46399Y17300D01*
X46549D01*
X46649Y17100D02*
X46799D01*
X46849Y17150D01*
X46799Y17200D01*
X46699D01*
X46649Y17250D01*
X46699Y17300D01*
X46849D01*
X46949Y17050D02*
X47149D01*
X47299Y17100D02*
X47399D01*
X47449Y17150D01*
Y17250D01*
X47399Y17300D01*
X47299D01*
X47249Y17250D01*
Y17150D01*
X47299Y17100D01*
X47549Y17300D02*
Y17150D01*
X47599Y17100D01*
X47749D01*
Y17300D01*
X47899Y17350D02*
Y17300D01*
X47849D01*
X47949D01*
X47899D01*
Y17150D01*
X47949Y17100D01*
X34400Y4850D02*
Y5050D01*
X34100D01*
Y4850D01*
X34250Y5050D02*
Y4950D01*
X34300Y4550D02*
Y4700D01*
X34250Y4750D01*
X34150D01*
X34100Y4700D01*
Y4550D01*
Y4400D02*
Y4300D01*
X34150Y4250D01*
X34250D01*
X34300Y4300D01*
Y4400D01*
X34250Y4450D01*
X34150D01*
X34100Y4400D01*
X-6100Y35500D02*
X-6050Y35550D01*
X-5950D01*
X-5900Y35500D01*
Y35450D01*
X-5950Y35400D01*
X-6000D01*
X-5950D01*
X-5900Y35350D01*
Y35300D01*
X-5950Y35250D01*
X-6050D01*
X-6100Y35300D01*
X-5800Y35550D02*
Y35350D01*
X-5700Y35250D01*
X-5600Y35350D01*
Y35550D01*
X-5500Y35500D02*
X-5450Y35550D01*
X-5350D01*
X-5300Y35500D01*
Y35450D01*
X-5350Y35400D01*
X-5400D01*
X-5350D01*
X-5300Y35350D01*
Y35300D01*
X-5350Y35250D01*
X-5450D01*
X-5500Y35300D01*
X5700Y8600D02*
X5650Y8650D01*
X5550D01*
X5500Y8600D01*
Y8550D01*
X5550Y8500D01*
X5650D01*
X5700Y8450D01*
Y8400D01*
X5650Y8350D01*
X5550D01*
X5500Y8400D01*
X5850Y8600D02*
Y8550D01*
X5800D01*
X5900D01*
X5850D01*
Y8400D01*
X5900Y8350D01*
X6250Y8650D02*
Y8350D01*
X6100D01*
X6050Y8400D01*
Y8500D01*
X6100Y8550D01*
X6250D01*
X6350Y8650D02*
Y8350D01*
X6500D01*
X6550Y8400D01*
Y8450D01*
X6500Y8500D01*
X6350D01*
X6500D01*
X6550Y8550D01*
Y8600D01*
X6500Y8650D01*
X6350D01*
X6650Y8550D02*
Y8400D01*
X6700Y8350D01*
X6850D01*
Y8300D01*
X6800Y8250D01*
X6750D01*
X6850Y8350D02*
Y8550D01*
X13800Y48750D02*
X13850Y48700D01*
Y48600D01*
X13800Y48550D01*
X13750D01*
X13700Y48600D01*
Y48650D01*
Y48600D01*
X13650Y48550D01*
X13600D01*
X13550Y48600D01*
Y48700D01*
X13600Y48750D01*
X13850Y48450D02*
X13650D01*
X13550Y48350D01*
X13650Y48250D01*
X13850D01*
X13800Y48150D02*
X13850Y48100D01*
Y48000D01*
X13800Y47950D01*
X13750D01*
X13700Y48000D01*
Y48050D01*
Y48000D01*
X13650Y47950D01*
X13600D01*
X13550Y48000D01*
Y48100D01*
X13600Y48150D01*
X33600Y10450D02*
X33400D01*
Y10300D01*
X33500Y10350D01*
X33550D01*
X33600Y10300D01*
Y10200D01*
X33550Y10150D01*
X33450D01*
X33400Y10200D01*
X33700Y10450D02*
Y10250D01*
X33800Y10150D01*
X33900Y10250D01*
Y10450D01*
X-5950Y27100D02*
X-5900Y27150D01*
X-5800D01*
X-5750Y27100D01*
Y27050D01*
X-5800Y27000D01*
X-5850D01*
X-5800D01*
X-5750Y26950D01*
Y26900D01*
X-5800Y26850D01*
X-5900D01*
X-5950Y26900D01*
X-5650Y27150D02*
Y26950D01*
X-5550Y26850D01*
X-5450Y26950D01*
Y27150D01*
X-5350Y27100D02*
X-5300Y27150D01*
X-5200D01*
X-5150Y27100D01*
Y27050D01*
X-5200Y27000D01*
X-5250D01*
X-5200D01*
X-5150Y26950D01*
Y26900D01*
X-5200Y26850D01*
X-5300D01*
X-5350Y26900D01*
X30550Y5550D02*
X30850D01*
Y5400D01*
X30800Y5350D01*
X30700D01*
X30650Y5400D01*
Y5550D01*
X30550Y5200D02*
Y5100D01*
X30600Y5050D01*
X30700D01*
X30750Y5100D01*
Y5200D01*
X30700Y5250D01*
X30600D01*
X30550Y5200D01*
X30750Y4950D02*
X30600D01*
X30550Y4900D01*
X30600Y4850D01*
X30550Y4800D01*
X30600Y4750D01*
X30750D01*
X30550Y4500D02*
Y4600D01*
X30600Y4650D01*
X30700D01*
X30750Y4600D01*
Y4500D01*
X30700Y4450D01*
X30650D01*
Y4650D01*
X30750Y4350D02*
X30550D01*
X30650D01*
X30700Y4300D01*
X30750Y4250D01*
Y4200D01*
X46700Y23100D02*
X46650Y23150D01*
X46550D01*
X46500Y23100D01*
Y22900D01*
X46550Y22850D01*
X46650D01*
X46700Y22900D01*
Y23000D01*
X46600D01*
X46800Y22850D02*
Y23150D01*
X47000Y22850D01*
Y23150D01*
X47100D02*
Y22850D01*
X47250D01*
X47300Y22900D01*
Y23100D01*
X47250Y23150D01*
X47100D01*
X23050Y27800D02*
X23000Y27850D01*
X22900D01*
X22850Y27800D01*
Y27600D01*
X22900Y27550D01*
X23000D01*
X23050Y27600D01*
Y27700D01*
X22950D01*
X23150Y27550D02*
Y27850D01*
X23350Y27550D01*
Y27850D01*
X23450D02*
Y27550D01*
X23600D01*
X23650Y27600D01*
Y27800D01*
X23600Y27850D01*
X23450D01*
X20750Y40862D02*
X21050D01*
Y40712D01*
X21000Y40662D01*
X20900D01*
X20850Y40712D01*
Y40862D01*
Y40762D02*
X20750Y40662D01*
X21050Y40562D02*
Y40362D01*
Y40462D01*
X20750D01*
X20700Y40262D02*
Y40062D01*
X20750Y39962D02*
Y39862D01*
Y39912D01*
X20950D01*
Y39962D01*
X20750Y39712D02*
X20950D01*
Y39562D01*
X20900Y39512D01*
X20750D01*
X16300Y48500D02*
Y48700D01*
X16150D01*
X16200Y48600D01*
Y48550D01*
X16150Y48500D01*
X16050D01*
X16000Y48550D01*
Y48650D01*
X16050Y48700D01*
X16300Y48400D02*
X16100D01*
X16000Y48300D01*
X16100Y48200D01*
X16300D01*
X41300Y8600D02*
X41100D01*
Y8300D01*
X41300D01*
X41100Y8450D02*
X41200D01*
X41600Y8500D02*
X41450D01*
X41400Y8450D01*
Y8350D01*
X41450Y8300D01*
X41600D01*
X41750D02*
X41850D01*
X41900Y8350D01*
Y8450D01*
X41850Y8500D01*
X41750D01*
X41700Y8450D01*
Y8350D01*
X41750Y8300D01*
D13*
X20048Y34322D02*
G03*
X20048Y34322I-49J0D01*
G01*
X30626Y35785D02*
G03*
X30626Y35785I-49J0D01*
G01*
D14*
X31532Y35291D02*
G03*
X31532Y35291I-118J0D01*
G01*
D15*
X43450Y22400D02*
X46150D01*
Y27400D01*
X43450D02*
X46150D01*
X43450Y22400D02*
Y27400D01*
X43650Y32550D02*
X46350D01*
Y37550D01*
X43650D02*
X46350D01*
X43650Y32550D02*
Y37550D01*
X11700Y14301D02*
Y16899D01*
Y14301D02*
X16700D01*
Y16899D01*
X11700D02*
X16700D01*
X34150Y5900D02*
X36850D01*
Y10900D01*
X34150D02*
X36850D01*
X34150Y5900D02*
Y10900D01*
X42150Y5900D02*
X44850D01*
Y10900D01*
X42150D02*
X44850D01*
X42150Y5900D02*
Y10900D01*
X15250Y5850D02*
Y10850D01*
X17950D01*
Y5850D02*
Y10850D01*
X15250Y5850D02*
X17950D01*
X7200Y5950D02*
Y10950D01*
X9900D01*
Y5950D02*
Y10950D01*
X7200Y5950D02*
X9900D01*
X23688Y9926D02*
Y10812D01*
Y9926D02*
Y10812D01*
X28412D01*
X23688D02*
X28412D01*
Y10025D02*
Y10812D01*
Y10025D02*
Y10812D01*
Y7958D02*
Y8942D01*
Y7958D02*
Y8942D01*
Y6088D02*
Y6974D01*
Y6088D02*
Y6974D01*
X23688Y6088D02*
X28412D01*
X23688D02*
X28412D01*
X23688D02*
Y6875D01*
Y6088D02*
Y6875D01*
Y7859D02*
Y8942D01*
Y7859D02*
Y8942D01*
X3488Y33676D02*
Y34562D01*
Y33676D02*
Y34562D01*
X8212D01*
X3488D02*
X8212D01*
Y33775D02*
Y34562D01*
Y33775D02*
Y34562D01*
Y31708D02*
Y32692D01*
Y31708D02*
Y32692D01*
Y29838D02*
Y30724D01*
Y29838D02*
Y30724D01*
X3488Y29838D02*
X8212D01*
X3488D02*
X8212D01*
X3488D02*
Y30625D01*
Y29838D02*
Y30625D01*
Y31609D02*
Y32692D01*
Y31609D02*
Y32692D01*
X-1562Y14009D02*
Y15092D01*
Y14009D02*
Y15092D01*
Y12238D02*
Y13025D01*
Y12238D02*
Y13025D01*
Y12238D02*
X3162D01*
X-1562D02*
X3162D01*
Y13124D01*
Y12238D02*
Y13124D01*
Y14108D02*
Y15092D01*
Y14108D02*
Y15092D01*
Y16175D02*
Y16962D01*
Y16175D02*
Y16962D01*
X-1562D02*
X3162D01*
X-1562D02*
X3162D01*
X-1562Y16076D02*
Y16962D01*
Y16076D02*
Y16962D01*
X51638Y29809D02*
Y30892D01*
Y29809D02*
Y30892D01*
Y28038D02*
Y28825D01*
Y28038D02*
Y28825D01*
Y28038D02*
X56362D01*
X51638D02*
X56362D01*
Y28924D01*
Y28038D02*
Y28924D01*
Y29908D02*
Y30892D01*
Y29908D02*
Y30892D01*
Y31975D02*
Y32762D01*
Y31975D02*
Y32762D01*
X51638D02*
X56362D01*
X51638D02*
X56362D01*
X51638Y31876D02*
Y32762D01*
Y31876D02*
Y32762D01*
X48988Y13059D02*
Y14142D01*
Y13059D02*
Y14142D01*
Y11288D02*
Y12075D01*
Y11288D02*
Y12075D01*
Y11288D02*
X53712D01*
X48988D02*
X53712D01*
Y12174D01*
Y11288D02*
Y12174D01*
Y13158D02*
Y14142D01*
Y13158D02*
Y14142D01*
Y15225D02*
Y16012D01*
Y15225D02*
Y16012D01*
X48988D02*
X53712D01*
X48988D02*
X53712D01*
X48988Y15126D02*
Y16012D01*
Y15126D02*
Y16012D01*
X-4262Y29476D02*
Y30362D01*
Y29476D02*
Y30362D01*
X462D01*
X-4262D02*
X462D01*
Y29575D02*
Y30362D01*
Y29575D02*
Y30362D01*
Y27508D02*
Y28492D01*
Y27508D02*
Y28492D01*
Y25638D02*
Y26524D01*
Y25638D02*
Y26524D01*
X-4262Y25638D02*
X462D01*
X-4262D02*
X462D01*
X-4262D02*
Y26425D01*
Y25638D02*
Y26425D01*
Y27409D02*
Y28492D01*
Y27409D02*
Y28492D01*
Y37876D02*
Y38762D01*
Y37876D02*
Y38762D01*
X462D01*
X-4262D02*
X462D01*
Y37975D02*
Y38762D01*
Y37975D02*
Y38762D01*
Y35908D02*
Y36892D01*
Y35908D02*
Y36892D01*
Y34038D02*
Y34924D01*
Y34038D02*
Y34924D01*
X-4262Y34038D02*
X462D01*
X-4262D02*
X462D01*
X-4262D02*
Y34825D01*
Y34038D02*
Y34825D01*
Y35809D02*
Y36892D01*
Y35809D02*
Y36892D01*
D16*
X45980Y51450D02*
X46720D01*
X45980Y50650D02*
X46720D01*
X49810D02*
X50380D01*
X45980Y49850D02*
X46720D01*
X49720D02*
X50480D01*
X46000Y51570D02*
X46700D01*
X45990Y51560D02*
X46710D01*
X45980Y51550D02*
X46720D01*
X45980Y51540D02*
X46730D01*
X45980Y51530D02*
X46720D01*
X45980Y51520D02*
X46720D01*
X45980Y51510D02*
X46720D01*
X45980Y51500D02*
X46720D01*
X45980Y51490D02*
X46720D01*
X45980Y51480D02*
X46720D01*
X45980Y51470D02*
X46720D01*
X45980Y51460D02*
X46720D01*
X45980Y51440D02*
X46720D01*
X45980Y51430D02*
X46720D01*
X45980Y51420D02*
X46720D01*
X45980Y51410D02*
X46720D01*
X45980Y51400D02*
X46720D01*
X45980Y51390D02*
X46720D01*
X45980Y51380D02*
X46720D01*
X45980Y51370D02*
X46720D01*
X45980Y51360D02*
X46720D01*
X45980Y51350D02*
X46720D01*
X45980Y51340D02*
X46720D01*
X45980Y51330D02*
X46720D01*
X45980Y51320D02*
X46720D01*
X45980Y51310D02*
X46720D01*
X45980Y51300D02*
X46720D01*
X45980Y51290D02*
X46720D01*
X45980Y51280D02*
X46720D01*
X45980Y51270D02*
X46720D01*
X45980Y51260D02*
X46720D01*
X45980Y51250D02*
X46720D01*
X45980Y51240D02*
X46720D01*
X45980Y51230D02*
X46720D01*
X45980Y51220D02*
X46720D01*
X45980Y51210D02*
X46720D01*
X45980Y51200D02*
X46720D01*
X45980Y51190D02*
X46720D01*
X45980Y51180D02*
X46720D01*
X45980Y51170D02*
X46720D01*
X45980Y51160D02*
X46720D01*
X45980Y51150D02*
X46720D01*
X45980Y51140D02*
X46720D01*
X45980Y51130D02*
X46720D01*
X45980Y51120D02*
X46720D01*
X45980Y51110D02*
X46720D01*
X45980Y51100D02*
X46720D01*
X45980Y51090D02*
X46720D01*
X45980Y51080D02*
X46720D01*
X45980Y51070D02*
X46720D01*
X45980Y51060D02*
X46720D01*
X45980Y51050D02*
X46720D01*
X45980Y51040D02*
X46720D01*
X45980Y51030D02*
X46720D01*
X45980Y51020D02*
X46720D01*
X45980Y51010D02*
X46720D01*
X45980Y51000D02*
X46730D01*
X45980Y50990D02*
X46720D01*
X45980Y50980D02*
X46720D01*
X45990Y50970D02*
X46710D01*
X46000Y50960D02*
X46700D01*
X46000Y50790D02*
X46700D01*
X45990Y50780D02*
X46710D01*
X45980Y50770D02*
X46720D01*
X45980Y50760D02*
X46730D01*
X45980Y50750D02*
X46720D01*
X45980Y50740D02*
X46720D01*
X45980Y50730D02*
X46720D01*
X45980Y50720D02*
X46720D01*
X45980Y50710D02*
X46720D01*
X45980Y50700D02*
X46720D01*
X45980Y50690D02*
X46720D01*
X49900D02*
X50300D01*
X45980Y50680D02*
X46720D01*
X49870D02*
X50330D01*
X45980Y50670D02*
X46720D01*
X49850D02*
X50350D01*
X45980Y50660D02*
X46720D01*
X49830D02*
X50370D01*
X45980Y50640D02*
X46720D01*
X49800D02*
X50400D01*
X45980Y50630D02*
X46720D01*
X49780D02*
X50420D01*
X45980Y50620D02*
X46720D01*
X49770D02*
X50430D01*
X45980Y50610D02*
X46720D01*
X49760D02*
X50440D01*
X45980Y50600D02*
X46720D01*
X49750D02*
X50450D01*
X45980Y50590D02*
X46720D01*
X49740D02*
X50460D01*
X45980Y50580D02*
X46720D01*
X49730D02*
X50470D01*
X45980Y50570D02*
X46720D01*
X49720D02*
X50480D01*
X45980Y50560D02*
X46720D01*
X49710D02*
X50490D01*
X45980Y50550D02*
X46720D01*
X49700D02*
X50500D01*
X45980Y50540D02*
X46720D01*
X49690D02*
X50510D01*
X45980Y50530D02*
X46720D01*
X49680D02*
X50520D01*
X45980Y50520D02*
X46720D01*
X49680D02*
X50520D01*
X45980Y50510D02*
X46720D01*
X45980Y50500D02*
X46720D01*
X45980Y50490D02*
X46720D01*
X45980Y50480D02*
X46720D01*
X45980Y50470D02*
X46720D01*
X45980Y50460D02*
X46720D01*
X45980Y50450D02*
X46720D01*
X45980Y50440D02*
X46720D01*
X45980Y50430D02*
X46720D01*
X45980Y50420D02*
X46720D01*
X45980Y50410D02*
X46720D01*
X45980Y50400D02*
X46720D01*
X45980Y50390D02*
X46720D01*
X45980Y50380D02*
X46720D01*
X45980Y50370D02*
X46720D01*
X45980Y50360D02*
X46720D01*
X45980Y50350D02*
X46720D01*
X45980Y50340D02*
X46720D01*
X45980Y50330D02*
X46720D01*
X45980Y50320D02*
X46720D01*
X45980Y50310D02*
X46720D01*
X45980Y50300D02*
X46720D01*
X45980Y50290D02*
X46720D01*
X45980Y50280D02*
X46720D01*
X45980Y50270D02*
X46720D01*
X45980Y50260D02*
X46720D01*
X45980Y50250D02*
X46720D01*
X45980Y50240D02*
X46720D01*
X45980Y50230D02*
X46720D01*
X45980Y50220D02*
X46730D01*
X45980Y50210D02*
X46720D01*
X45980Y50200D02*
X46720D01*
X45990Y50190D02*
X46710D01*
X46000Y50180D02*
X46700D01*
X46000Y50010D02*
X46700D01*
X45990Y50000D02*
X46710D01*
X45980Y49990D02*
X46720D01*
X45980Y49980D02*
X46730D01*
X45980Y49970D02*
X46720D01*
X45980Y49960D02*
X46720D01*
X45980Y49950D02*
X46720D01*
X45980Y49940D02*
X46720D01*
X45980Y49930D02*
X46720D01*
X45980Y49920D02*
X46720D01*
X45980Y49910D02*
X46720D01*
X45980Y49900D02*
X46720D01*
X49680D02*
X50520D01*
X45980Y49890D02*
X46720D01*
X49680D02*
X50520D01*
X45980Y49880D02*
X46720D01*
X49690D02*
X50510D01*
X45980Y49870D02*
X46720D01*
X49700D02*
X50500D01*
X45980Y49860D02*
X46720D01*
X49710D02*
X50490D01*
X45980Y49840D02*
X46720D01*
X49730D02*
X50470D01*
X45980Y49830D02*
X46720D01*
X49740D02*
X50460D01*
X45980Y49820D02*
X46720D01*
X49750D02*
X50450D01*
X45980Y49810D02*
X46720D01*
X49760D02*
X50440D01*
X49770Y49800D02*
X50430D01*
X45980Y49790D02*
X46720D01*
X49780D02*
X50420D01*
X45980Y49780D02*
X46720D01*
X49800D02*
X50400D01*
X45980Y49770D02*
X46720D01*
X49810D02*
X50380D01*
X45980Y49760D02*
X46720D01*
X49830D02*
X50370D01*
X45980Y49750D02*
X46720D01*
X49850D02*
X50350D01*
X45980Y49740D02*
X46720D01*
X49870D02*
X50330D01*
X45980Y49730D02*
X46720D01*
X49900D02*
X50300D01*
X45980Y49720D02*
X46720D01*
X45980Y49710D02*
X46720D01*
X45980Y49700D02*
X46720D01*
X45980Y49690D02*
X46720D01*
X45980Y49680D02*
X46720D01*
X45980Y49670D02*
X46720D01*
X45980Y49660D02*
X46720D01*
X45980Y49650D02*
X46720D01*
X45980Y49640D02*
X46720D01*
X45980Y49630D02*
X46720D01*
X45980Y49620D02*
X46720D01*
X45980Y49610D02*
X46720D01*
X45980Y49600D02*
X46720D01*
X45980Y49590D02*
X46720D01*
X45980Y49580D02*
X46720D01*
X45980Y49570D02*
X46720D01*
X45980Y49560D02*
X46720D01*
X45980Y49550D02*
X46720D01*
X45980Y49540D02*
X46720D01*
X45980Y49530D02*
X46720D01*
X45980Y49520D02*
X46720D01*
X45980Y49510D02*
X46720D01*
X45980Y49500D02*
X46720D01*
X45980Y49490D02*
X46720D01*
X45980Y49480D02*
X46720D01*
X45980Y49470D02*
X46720D01*
X45980Y49460D02*
X46720D01*
X45980Y49450D02*
X46720D01*
X45980Y49440D02*
X46730D01*
X45980Y49430D02*
X46720D01*
X45980Y49420D02*
X46720D01*
X45990Y49410D02*
X46710D01*
X46000Y49400D02*
X46700D01*
X51090Y50650D02*
X51350D01*
X51540D02*
X52150D01*
X51460Y49850D02*
X52260D01*
X47070Y50650D02*
X47480D01*
X48080D02*
X48720D01*
X48890D02*
X49530D01*
X46970Y49850D02*
X47550D01*
X47930D02*
X48830D01*
X49070D02*
X49530D01*
X44350D02*
X45100D01*
X45160D02*
X45910D01*
X51770Y50720D02*
X51930D01*
X51700Y50710D02*
X52000D01*
X51660Y50700D02*
X52040D01*
X51620Y50690D02*
X52080D01*
X51600Y50680D02*
X52100D01*
X51580Y50670D02*
X52120D01*
X51100Y50660D02*
X51350D01*
X51560D02*
X52140D01*
X51070Y50640D02*
X51350D01*
X51530D02*
X52170D01*
X51060Y50630D02*
X51350D01*
X51520D02*
X52180D01*
X51050Y50620D02*
X51350D01*
X51510D02*
X52190D01*
X51040Y50610D02*
X51350D01*
X51500D02*
X52200D01*
X51030Y50600D02*
X51350D01*
X51490D02*
X52210D01*
X51020Y50590D02*
X51350D01*
X51480D02*
X52220D01*
X51010Y50580D02*
X51350D01*
X51470D02*
X52230D01*
X51000Y50570D02*
X51350D01*
X51460D02*
X52240D01*
X51000Y50560D02*
X51350D01*
X51460D02*
X52240D01*
X50990Y50550D02*
X51350D01*
X51450D02*
X52250D01*
X50980Y50540D02*
X51350D01*
X51450D02*
X52260D01*
X50980Y50530D02*
X51350D01*
X51890D02*
X52260D01*
X50710Y50520D02*
X51350D01*
X50130Y50510D02*
X50530D01*
X50710D02*
X51350D01*
X50180Y50500D02*
X50540D01*
X50710D02*
X51350D01*
X50200Y50490D02*
X50540D01*
X50710D02*
X51350D01*
X50220Y50480D02*
X50550D01*
X50710D02*
X51350D01*
X50230Y50470D02*
X50550D01*
X50710D02*
X51350D01*
X50250Y50460D02*
X50560D01*
X50710D02*
X51350D01*
X50260Y50450D02*
X50560D01*
X50710D02*
X51190D01*
X50270Y50440D02*
X50570D01*
X50710D02*
X51150D01*
X50270Y50430D02*
X50570D01*
X50710D02*
X51120D01*
X50280Y50420D02*
X50580D01*
X50710D02*
X51100D01*
X50290Y50410D02*
X50580D01*
X50290Y50400D02*
X50580D01*
X51090D02*
X51100D01*
X50300Y50390D02*
X50590D01*
X50300Y50380D02*
X50590D01*
X51900Y50350D02*
X51910D01*
X51430Y50330D02*
X51930D01*
X50300Y50320D02*
X50310D01*
X51440D02*
X51980D01*
X51440Y50310D02*
X52020D01*
X51450Y50300D02*
X52060D01*
X51450Y50290D02*
X52090D01*
X51460Y50280D02*
X52120D01*
X51470Y50270D02*
X52150D01*
X51480Y50260D02*
X52170D01*
X51490Y50250D02*
X52190D01*
X51500Y50240D02*
X52200D01*
X51510Y50230D02*
X52220D01*
X51530Y50220D02*
X52230D01*
X51540Y50210D02*
X52240D01*
X51560Y50200D02*
X52250D01*
X51580Y50190D02*
X52260D01*
X51610Y50180D02*
X52270D01*
X51640Y50170D02*
X52280D01*
X51680Y50160D02*
X52290D01*
X51710Y50150D02*
X52290D01*
X51760Y50140D02*
X52300D01*
X51800Y50130D02*
X52300D01*
X51840Y50120D02*
X52300D01*
X51880Y50110D02*
X52310D01*
X50300Y50100D02*
X50310D01*
X50300Y50040D02*
X50590D01*
X50300Y50030D02*
X50590D01*
X50290Y50020D02*
X50580D01*
X50290Y50010D02*
X50580D01*
X50280Y50000D02*
X50580D01*
X50270Y49990D02*
X50570D01*
X50270Y49980D02*
X50570D01*
X50260Y49970D02*
X50560D01*
X50250Y49960D02*
X50560D01*
X50240Y49950D02*
X50550D01*
X50220Y49940D02*
X50550D01*
X50200Y49930D02*
X50540D01*
X50180Y49920D02*
X50540D01*
X50130Y49910D02*
X50530D01*
X51440Y49880D02*
X52280D01*
X51450Y49870D02*
X52270D01*
X51460Y49860D02*
X52270D01*
X51470Y49840D02*
X52250D01*
X51480Y49830D02*
X52240D01*
X51490Y49820D02*
X52230D01*
X51500Y49810D02*
X52220D01*
X51510Y49800D02*
X52210D01*
X51520Y49790D02*
X52200D01*
X51540Y49780D02*
X52190D01*
X51550Y49770D02*
X52170D01*
X51570Y49760D02*
X52160D01*
X51590Y49750D02*
X52140D01*
X51610Y49740D02*
X52120D01*
X51640Y49730D02*
X52090D01*
X51670Y49720D02*
X52060D01*
X51720Y49710D02*
X52010D01*
X51810Y49700D02*
X51920D01*
X47090Y51430D02*
X47190D01*
X47040Y51420D02*
X47240D01*
X47010Y51410D02*
X47260D01*
X46990Y51400D02*
X47280D01*
X46980Y51390D02*
X47290D01*
X48370D02*
X48700D01*
X46960Y51380D02*
X47300D01*
X48360D02*
X48710D01*
X46950Y51370D02*
X47310D01*
X47530D02*
X47900D01*
X48350D02*
X48720D01*
X46940Y51360D02*
X47120D01*
X47730D02*
X47910D01*
X48540D02*
X48730D01*
X47780Y51350D02*
X47920D01*
X48610D02*
X48740D01*
X47810Y51340D02*
X47930D01*
X48630D02*
X48740D01*
X47820Y51330D02*
X47940D01*
X48650D02*
X48750D01*
X47840Y51320D02*
X47950D01*
X48660D02*
X48750D01*
X47850Y51310D02*
X47950D01*
X48660D02*
X48760D01*
X47860Y51300D02*
X47960D01*
X48670D02*
X48760D01*
X47870Y51290D02*
X47970D01*
X48670D02*
X48760D01*
X47870Y51280D02*
X47970D01*
X48670D02*
X48760D01*
X47880Y51270D02*
X47980D01*
X48680D02*
X48760D01*
X47890Y51260D02*
X47980D01*
X48680D02*
X48760D01*
X47890Y51250D02*
X47980D01*
X48680D02*
X48760D01*
X47900Y51240D02*
X47990D01*
X48680D02*
X48760D01*
X47900Y51230D02*
X47990D01*
X48680D02*
X48760D01*
X47900Y51220D02*
X47990D01*
X48680D02*
X48760D01*
X48670Y51210D02*
X48760D01*
X48670Y51200D02*
X48760D01*
X48660Y51190D02*
X48760D01*
X48640Y51180D02*
X48760D01*
X46940Y51170D02*
X47120D01*
X48570D02*
X48760D01*
X46950Y51160D02*
X47170D01*
X48490D02*
X48760D01*
X46960Y51150D02*
X47220D01*
X47900D02*
X47910D01*
X48430D02*
X48760D01*
X46970Y51140D02*
X47260D01*
X48390D02*
X48760D01*
X46990Y51130D02*
X47280D01*
X48360D02*
X48760D01*
X47010Y51120D02*
X47300D01*
X48680D02*
X48760D01*
X47040Y51110D02*
X47320D01*
X48680D02*
X48760D01*
X47070Y51100D02*
X47330D01*
X48680D02*
X48760D01*
X48680Y51090D02*
X48760D01*
X47900Y51080D02*
X47910D01*
X48680D02*
X48760D01*
X48680Y51070D02*
X48760D01*
X48680Y51060D02*
X48760D01*
X48680Y51050D02*
X48760D01*
X48680Y51040D02*
X48760D01*
X48680Y51030D02*
X48760D01*
X48680Y51020D02*
X48760D01*
X47900Y51010D02*
X47990D01*
X48670D02*
X48760D01*
X47900Y51000D02*
X47990D01*
X48670D02*
X48760D01*
X47890Y50990D02*
X47990D01*
X48670D02*
X48760D01*
X47890Y50980D02*
X47980D01*
X48660D02*
X48760D01*
X47880Y50970D02*
X47980D01*
X48660D02*
X48760D01*
X47880Y50960D02*
X47980D01*
X48660D02*
X48760D01*
X47870Y50950D02*
X47970D01*
X48650D02*
X48760D01*
X47870Y50940D02*
X47960D01*
X48640D02*
X48760D01*
X47860Y50930D02*
X47960D01*
X48630D02*
X48760D01*
X47850Y50920D02*
X47950D01*
X48620D02*
X48760D01*
X47840Y50910D02*
X47950D01*
X48610D02*
X48770D01*
X47820Y50900D02*
X47940D01*
X48690D02*
X48770D01*
X47800Y50890D02*
X47930D01*
X48690D02*
X48780D01*
X47780Y50880D02*
X47920D01*
X48690D02*
X48830D01*
X46940Y50870D02*
X47340D01*
X47520D02*
X47910D01*
X48690D02*
X48830D01*
X46950Y50860D02*
X47330D01*
X47540D02*
X47900D01*
X48690D02*
X48830D01*
X46960Y50850D02*
X47320D01*
X48700D02*
X48830D01*
X46980Y50840D02*
X47310D01*
X47000Y50830D02*
X47290D01*
X47020Y50820D02*
X47270D01*
X47040Y50810D02*
X47240D01*
X47100Y50800D02*
X47180D01*
X48890Y50690D02*
X49530D01*
X48890Y50680D02*
X49530D01*
X48890Y50670D02*
X49530D01*
X47090Y50660D02*
X47460D01*
X48100D02*
X48710D01*
X48890D02*
X49530D01*
X47050Y50640D02*
X47490D01*
X48060D02*
X48740D01*
X48890D02*
X49530D01*
X47040Y50630D02*
X47500D01*
X48050D02*
X48750D01*
X48890D02*
X49530D01*
X47020Y50620D02*
X47510D01*
X48040D02*
X48760D01*
X48890D02*
X49530D01*
X47010Y50610D02*
X47520D01*
X48030D02*
X48770D01*
X48890D02*
X49530D01*
X47000Y50600D02*
X47530D01*
X48020D02*
X48780D01*
X48890D02*
X49530D01*
X46990Y50590D02*
X47540D01*
X48010D02*
X48790D01*
X48890D02*
X49530D01*
X46980Y50580D02*
X47550D01*
X48000D02*
X48790D01*
X48890D02*
X49530D01*
X46970Y50570D02*
X47550D01*
X47990D02*
X48800D01*
X48890D02*
X49530D01*
X46960Y50560D02*
X47830D01*
X47980D02*
X48800D01*
X48890D02*
X49530D01*
X46950Y50550D02*
X47830D01*
X47970D02*
X48810D01*
X48890D02*
X49530D01*
X46950Y50540D02*
X47830D01*
X47970D02*
X48810D01*
X48890D02*
X49530D01*
X46940Y50530D02*
X47830D01*
X48440D02*
X48820D01*
X48890D02*
X49530D01*
X46930Y50520D02*
X47830D01*
X48480D02*
X48820D01*
X48890D02*
X49530D01*
X46930Y50510D02*
X47830D01*
X48500D02*
X48820D01*
X48890D02*
X49530D01*
X46920Y50500D02*
X47830D01*
X48520D02*
X48820D01*
X46910Y50490D02*
X47320D01*
X48520D02*
X48830D01*
X46910Y50480D02*
X47270D01*
X48530D02*
X48830D01*
X46900Y50470D02*
X47250D01*
X48540D02*
X48830D01*
X46900Y50460D02*
X47230D01*
X48540D02*
X48830D01*
X46890Y50450D02*
X47220D01*
X48540D02*
X48830D01*
X46890Y50440D02*
X47210D01*
X48550D02*
X48830D01*
X46890Y50430D02*
X47200D01*
X48550D02*
X48830D01*
X46880Y50420D02*
X47190D01*
X48550D02*
X48830D01*
X46880Y50410D02*
X47180D01*
X48550D02*
X48830D01*
X46880Y50400D02*
X47170D01*
X48550D02*
X48830D01*
X46870Y50390D02*
X47170D01*
X48550D02*
X48830D01*
X46870Y50380D02*
X47160D01*
X48540D02*
X48830D01*
X46870Y50370D02*
X47160D01*
X48540D02*
X48830D01*
X46870Y50360D02*
X47150D01*
X48530D02*
X48830D01*
X46860Y50350D02*
X47150D01*
X48520D02*
X48830D01*
X46860Y50340D02*
X47150D01*
X48510D02*
X48830D01*
X46860Y50330D02*
X47140D01*
X48480D02*
X48830D01*
X46860Y50320D02*
X47140D01*
X48450D02*
X48830D01*
X46860Y50310D02*
X47140D01*
X48400D02*
X48830D01*
X46850Y50300D02*
X47140D01*
X48310D02*
X48830D01*
X46850Y50290D02*
X47140D01*
X48230D02*
X48830D01*
X46850Y50280D02*
X47130D01*
X48180D02*
X48830D01*
X46850Y50270D02*
X47130D01*
X48130D02*
X48830D01*
X46850Y50260D02*
X47130D01*
X48100D02*
X48830D01*
X46850Y50250D02*
X47130D01*
X48070D02*
X48830D01*
X46850Y50240D02*
X47130D01*
X48050D02*
X48830D01*
X46850Y50230D02*
X47130D01*
X48030D02*
X48830D01*
X46850Y50220D02*
X47130D01*
X48010D02*
X48830D01*
X46850Y50210D02*
X47130D01*
X48000D02*
X48830D01*
X46850Y50200D02*
X47130D01*
X47990D02*
X48830D01*
X46850Y50190D02*
X47130D01*
X47970D02*
X48830D01*
X46850Y50180D02*
X47130D01*
X48550D02*
X48830D01*
X46850Y50170D02*
X47130D01*
X48550D02*
X48830D01*
X46850Y50160D02*
X47130D01*
X48550D02*
X48830D01*
X46850Y50150D02*
X47140D01*
X48550D02*
X48830D01*
X46850Y50140D02*
X47140D01*
X48550D02*
X48830D01*
X46850Y50130D02*
X47140D01*
X48550D02*
X48830D01*
X46860Y50120D02*
X47140D01*
X48550D02*
X48830D01*
X46860Y50110D02*
X47140D01*
X48550D02*
X48830D01*
X46860Y50100D02*
X47150D01*
X48550D02*
X48830D01*
X46860Y50090D02*
X47150D01*
X48550D02*
X48830D01*
X46860Y50080D02*
X47150D01*
X48550D02*
X48830D01*
X46860Y50070D02*
X47160D01*
X47900D02*
X48200D01*
X48550D02*
X48830D01*
X46870Y50060D02*
X47160D01*
X47900D02*
X48190D01*
X48540D02*
X48830D01*
X46870Y50050D02*
X47170D01*
X47900D02*
X48190D01*
X48540D02*
X48830D01*
X46870Y50040D02*
X47170D01*
X47900D02*
X48180D01*
X48540D02*
X48830D01*
X46870Y50030D02*
X47180D01*
X47900D02*
X48180D01*
X48540D02*
X48830D01*
X46880Y50020D02*
X47180D01*
X47900D02*
X48180D01*
X48540D02*
X48830D01*
X46880Y50010D02*
X47190D01*
X47900D02*
X48180D01*
X48540D02*
X48830D01*
X46880Y50000D02*
X47200D01*
X47900D02*
X48180D01*
X48530D02*
X48830D01*
X46890Y49990D02*
X47210D01*
X47900D02*
X48180D01*
X48530D02*
X48830D01*
X46890Y49980D02*
X47220D01*
X47900D02*
X48180D01*
X48520D02*
X48830D01*
X46890Y49970D02*
X47240D01*
X47900D02*
X48180D01*
X48520D02*
X48830D01*
X46900Y49960D02*
X47250D01*
X47900D02*
X48180D01*
X48510D02*
X48830D01*
X46900Y49950D02*
X47280D01*
X47900D02*
X48190D01*
X48500D02*
X48830D01*
X46910Y49940D02*
X47830D01*
X47900D02*
X48190D01*
X48500D02*
X48830D01*
X46910Y49930D02*
X47830D01*
X47900D02*
X48200D01*
X48480D02*
X48830D01*
X49060D02*
X49530D01*
X46920Y49920D02*
X47830D01*
X47900D02*
X48210D01*
X48470D02*
X48830D01*
X49060D02*
X49530D01*
X46920Y49910D02*
X47830D01*
X48460D02*
X48830D01*
X49060D02*
X49530D01*
X46930Y49900D02*
X47830D01*
X48430D02*
X48830D01*
X49060D02*
X49530D01*
X46940Y49890D02*
X47830D01*
X48390D02*
X48830D01*
X49060D02*
X49530D01*
X46950Y49880D02*
X47830D01*
X47920D02*
X48830D01*
X49060D02*
X49530D01*
X46950Y49870D02*
X47830D01*
X47920D02*
X48830D01*
X49060D02*
X49530D01*
X46960Y49860D02*
X47830D01*
X47920D02*
X48830D01*
X49070D02*
X49530D01*
X46980Y49840D02*
X47540D01*
X47930D02*
X48830D01*
X49070D02*
X49530D01*
X46990Y49830D02*
X47530D01*
X47940D02*
X48840D01*
X49080D02*
X49530D01*
X47000Y49820D02*
X47520D01*
X47950D02*
X48840D01*
X49090D02*
X49530D01*
X47010Y49810D02*
X47510D01*
X47950D02*
X48840D01*
X49090D02*
X49530D01*
X47030Y49800D02*
X47500D01*
X48560D02*
X48840D01*
X49100D02*
X49530D01*
X47040Y49790D02*
X47490D01*
X48560D02*
X48840D01*
X49110D02*
X49530D01*
X47060Y49780D02*
X47470D01*
X48560D02*
X48840D01*
X49120D02*
X49530D01*
X47080Y49770D02*
X47450D01*
X48570D02*
X48850D01*
X49130D02*
X49530D01*
X47100Y49760D02*
X47430D01*
X48570D02*
X48850D01*
X49140D02*
X49530D01*
X48570Y49750D02*
X48850D01*
X49160D02*
X49530D01*
X48570Y49740D02*
X48860D01*
X49180D02*
X49530D01*
X48580Y49730D02*
X48860D01*
X49210D02*
X49530D01*
X49260Y49720D02*
X49510D01*
X46890Y49660D02*
X47150D01*
X46880Y49650D02*
X47160D01*
X46880Y49640D02*
X47170D01*
X46880Y49630D02*
X47170D01*
X46880Y49620D02*
X47170D01*
X46890Y49610D02*
X47180D01*
X46890Y49600D02*
X47180D01*
X46890Y49590D02*
X47190D01*
X46890Y49580D02*
X47200D01*
X46900Y49570D02*
X47210D01*
X46900Y49560D02*
X47220D01*
X46910Y49550D02*
X47240D01*
X46910Y49540D02*
X47270D01*
X46920Y49530D02*
X47320D01*
X46920Y49520D02*
X47760D01*
X46930Y49510D02*
X47760D01*
X46940Y49500D02*
X47750D01*
X46940Y49490D02*
X47740D01*
X46950Y49480D02*
X47730D01*
X46960Y49470D02*
X47720D01*
X46970Y49460D02*
X47710D01*
X46980Y49450D02*
X47700D01*
X46990Y49440D02*
X47690D01*
X47010Y49430D02*
X47670D01*
X47020Y49420D02*
X47660D01*
X47040Y49410D02*
X47640D01*
X47060Y49400D02*
X47620D01*
X47070Y49390D02*
X47600D01*
X47100Y49380D02*
X47580D01*
X44430Y51630D02*
X45020D01*
X45240D02*
X45830D01*
X46060D02*
X46640D01*
X44420Y51620D02*
X45030D01*
X45230D02*
X45840D01*
X46050D02*
X46650D01*
X44410Y51610D02*
X45040D01*
X45220D02*
X45850D01*
X46040D02*
X46660D01*
X44400Y51600D02*
X45050D01*
X45210D02*
X45860D01*
X46030D02*
X46670D01*
X44390Y51590D02*
X45060D01*
X45200D02*
X45870D01*
X46020D02*
X46680D01*
X44380Y51580D02*
X45070D01*
X45190D02*
X45880D01*
X46010D02*
X46690D01*
X44390Y50950D02*
X45060D01*
X45200D02*
X45880D01*
X46010D02*
X46690D01*
X44400Y50940D02*
X45050D01*
X45210D02*
X45870D01*
X46020D02*
X46680D01*
X44410Y50930D02*
X45040D01*
X45220D02*
X45860D01*
X46030D02*
X46670D01*
X44420Y50920D02*
X45030D01*
X45230D02*
X45840D01*
X46040D02*
X46660D01*
X44430Y50910D02*
X45020D01*
X45240D02*
X45840D01*
X46050D02*
X46650D01*
X44430Y50850D02*
X45020D01*
X45250D02*
X45830D01*
X46060D02*
X46640D01*
X44420Y50840D02*
X45030D01*
X45240D02*
X45840D01*
X46050D02*
X46650D01*
X44410Y50830D02*
X45040D01*
X45230D02*
X45850D01*
X46040D02*
X46660D01*
X44400Y50820D02*
X45050D01*
X45220D02*
X45850D01*
X46030D02*
X46670D01*
X44390Y50810D02*
X45060D01*
X45210D02*
X45840D01*
X46020D02*
X46680D01*
X44380Y50800D02*
X45070D01*
X45200D02*
X45830D01*
X46010D02*
X46690D01*
X45500Y50550D02*
X45580D01*
X45490Y50540D02*
X45570D01*
X45480Y50530D02*
X45560D01*
X45470Y50520D02*
X45550D01*
X45460Y50510D02*
X45540D01*
X45450Y50500D02*
X45530D01*
X45440Y50490D02*
X45520D01*
X45430Y50480D02*
X45510D01*
X45420Y50470D02*
X45500D01*
Y50460D02*
X45510D01*
X45490Y50450D02*
X45500D01*
Y50440D02*
X45920D01*
X45490Y50430D02*
X45920D01*
X45480Y50420D02*
X45920D01*
X45470Y50410D02*
X45920D01*
X45460Y50400D02*
X45920D01*
X45450Y50390D02*
X45920D01*
X45440Y50380D02*
X45920D01*
X45430Y50370D02*
X45920D01*
X45420Y50360D02*
X45920D01*
X45410Y50350D02*
X45920D01*
X45400Y50340D02*
X45920D01*
X45390Y50330D02*
X45920D01*
X45380Y50320D02*
X45920D01*
X45370Y50310D02*
X45920D01*
X45360Y50300D02*
X45920D01*
X45350Y50290D02*
X45920D01*
X45340Y50280D02*
X45920D01*
X45330Y50270D02*
X45920D01*
X45320Y50260D02*
X45920D01*
X45310Y50250D02*
X45920D01*
X45300Y50240D02*
X45920D01*
X45290Y50230D02*
X45920D01*
X45280Y50220D02*
X45920D01*
X45270Y50210D02*
X45910D01*
X45260Y50200D02*
X45910D01*
X45250Y50190D02*
X45900D01*
X44380Y50180D02*
X45070D01*
X45240D02*
X45890D01*
X44390Y50170D02*
X45060D01*
X45230D02*
X45880D01*
X46010D02*
X46690D01*
X44400Y50160D02*
X45050D01*
X45220D02*
X45870D01*
X46020D02*
X46680D01*
X44410Y50150D02*
X45040D01*
X45220D02*
X45860D01*
X46030D02*
X46670D01*
X44420Y50140D02*
X45030D01*
X45230D02*
X45850D01*
X46040D02*
X46660D01*
X44430Y50130D02*
X45020D01*
X45240D02*
X45840D01*
X46050D02*
X46650D01*
X44430Y50070D02*
X45020D01*
X45240D02*
X45830D01*
X46060D02*
X46640D01*
X44420Y50060D02*
X45030D01*
X45230D02*
X45840D01*
X46050D02*
X46650D01*
X44410Y50050D02*
X45040D01*
X45220D02*
X45850D01*
X46040D02*
X46660D01*
X44400Y50040D02*
X45050D01*
X45210D02*
X45860D01*
X46030D02*
X46670D01*
X44390Y50030D02*
X45060D01*
X45200D02*
X45870D01*
X46020D02*
X46680D01*
X44380Y50020D02*
X45070D01*
X45190D02*
X45880D01*
X46010D02*
X46690D01*
X44370Y50010D02*
X45080D01*
X45180D02*
X45890D01*
X44360Y50000D02*
X45090D01*
X45170D02*
X45900D01*
X44350Y49990D02*
X45100D01*
X45170D02*
X45910D01*
X44350Y49980D02*
X45100D01*
X45160D02*
X45910D01*
X44350Y49970D02*
X45100D01*
X45160D02*
X45910D01*
X44350Y49960D02*
X45100D01*
X45160D02*
X45910D01*
X44350Y49950D02*
X45100D01*
X45160D02*
X45910D01*
X44350Y49940D02*
X45100D01*
X45160D02*
X45910D01*
X44350Y49930D02*
X45100D01*
X45160D02*
X45910D01*
X44350Y49920D02*
X45100D01*
X45160D02*
X45910D01*
X44350Y49910D02*
X45100D01*
X45160D02*
X45910D01*
X44350Y49900D02*
X45100D01*
X45160D02*
X45910D01*
X44350Y49890D02*
X45100D01*
X45160D02*
X45910D01*
X44350Y49880D02*
X45100D01*
X45160D02*
X45910D01*
X44350Y49870D02*
X45100D01*
X45160D02*
X45910D01*
X44350Y49860D02*
X45100D01*
X45160D02*
X45910D01*
X44350Y49840D02*
X45100D01*
X45160D02*
X45910D01*
X44350Y49830D02*
X45100D01*
X45160D02*
X45910D01*
X44350Y49820D02*
X45100D01*
X45160D02*
X45910D01*
X44350Y49810D02*
X45100D01*
X45160D02*
X45910D01*
X44350Y49800D02*
X45100D01*
X45160D02*
X45910D01*
X44350Y49790D02*
X45100D01*
X45160D02*
X45910D01*
X44350Y49780D02*
X45100D01*
X45160D02*
X45910D01*
X44350Y49770D02*
X45100D01*
X45160D02*
X45910D01*
X44350Y49760D02*
X45100D01*
X45160D02*
X45910D01*
X44350Y49750D02*
X45100D01*
X45160D02*
X45910D01*
X44350Y49740D02*
X45100D01*
X45160D02*
X45910D01*
X44350Y49730D02*
X45100D01*
X45160D02*
X45910D01*
X44350Y49720D02*
X45100D01*
X45160D02*
X45910D01*
X44350Y49710D02*
X45100D01*
X45160D02*
X45910D01*
X44350Y49700D02*
X45100D01*
X45160D02*
X45910D01*
X44350Y49690D02*
X45100D01*
X45160D02*
X45910D01*
X44350Y49680D02*
X45100D01*
X45160D02*
X45910D01*
X44350Y49670D02*
X45100D01*
X45160D02*
X45910D01*
X44350Y49660D02*
X45100D01*
X45160D02*
X45910D01*
X44350Y49650D02*
X45100D01*
X45160D02*
X45910D01*
X44350Y49640D02*
X45100D01*
X45160D02*
X45910D01*
X44350Y49630D02*
X45100D01*
X45160D02*
X45910D01*
X44350Y49620D02*
X45100D01*
X45160D02*
X45910D01*
X44350Y49610D02*
X45100D01*
X45160D02*
X45910D01*
X44350Y49600D02*
X45100D01*
X45160D02*
X45910D01*
X44350Y49590D02*
X45100D01*
X45160D02*
X45910D01*
X44350Y49580D02*
X45100D01*
X45160D02*
X45910D01*
X44350Y49570D02*
X45100D01*
X45160D02*
X45910D01*
X44350Y49560D02*
X45100D01*
X45160D02*
X45910D01*
X44350Y49550D02*
X45100D01*
X45160D02*
X45910D01*
X44350Y49540D02*
X45100D01*
X45160D02*
X45910D01*
X44350Y49530D02*
X45100D01*
X45160D02*
X45910D01*
X44350Y49520D02*
X45100D01*
X45160D02*
X45910D01*
X44350Y49510D02*
X45100D01*
X45160D02*
X45910D01*
X44350Y49500D02*
X45100D01*
X45160D02*
X45910D01*
X44350Y49490D02*
X45100D01*
X45160D02*
X45910D01*
X44350Y49480D02*
X45100D01*
X45160D02*
X45910D01*
X44350Y49470D02*
X45100D01*
X45160D02*
X45910D01*
X44350Y49460D02*
X45100D01*
X45160D02*
X45910D01*
X44350Y49450D02*
X45100D01*
X45160D02*
X45910D01*
X44350Y49440D02*
X45100D01*
X45160D02*
X45910D01*
X44350Y49430D02*
X45100D01*
X45160D02*
X45910D01*
X44360Y49420D02*
X45090D01*
X45170D02*
X45910D01*
X44370Y49410D02*
X45080D01*
X45180D02*
X45900D01*
X44380Y49400D02*
X45070D01*
X45190D02*
X45890D01*
X44390Y49390D02*
X45060D01*
X45200D02*
X45880D01*
X46010D02*
X46690D01*
X44400Y49380D02*
X45050D01*
X45210D02*
X45870D01*
X46020D02*
X46680D01*
X44410Y49370D02*
X45040D01*
X45220D02*
X45860D01*
X46030D02*
X46670D01*
X44420Y49360D02*
X45030D01*
X45230D02*
X45850D01*
X46040D02*
X46660D01*
X44430Y49350D02*
X45020D01*
X45240D02*
X45840D01*
X46050D02*
X46650D01*
X50710Y50650D02*
X50970D01*
X50710Y49850D02*
X50990D01*
X48080Y51450D02*
X48170D01*
X47560Y50650D02*
X47830D01*
X47560Y49850D02*
X47830D01*
X46950D02*
X46960D01*
X45850Y51450D02*
X45910D01*
X45600Y50650D02*
X45680D01*
X45690D02*
X45700D01*
X45710D02*
X45920D01*
X45040Y51450D02*
X45100D01*
X45160D02*
X45220D01*
X45040Y50650D02*
X45100D01*
X45170D02*
X45230D01*
X44350Y51450D02*
X44410D01*
X44350Y50650D02*
X44410D01*
X52240Y50580D02*
X52250D01*
X51940Y50520D02*
X52270D01*
X51960Y50510D02*
X52270D01*
X51950Y50500D02*
X51960D01*
X51980D02*
X52270D01*
X51970Y50490D02*
X51980D01*
X51990D02*
X52280D01*
X51980Y50480D02*
X51990D01*
X52000D02*
X52280D01*
X52010Y50470D02*
X52280D01*
X52010Y50460D02*
X52280D01*
X52010Y50450D02*
X52290D01*
X52020Y50440D02*
X52290D01*
X52020Y50430D02*
X52290D01*
X52020Y50420D02*
X52290D01*
X52020Y50410D02*
X52290D01*
X51920Y50100D02*
X52310D01*
X51950Y50090D02*
X52310D01*
X51970Y50080D02*
X52310D01*
X51990Y50070D02*
X52320D01*
X51980Y50060D02*
X51990D01*
X52010D02*
X52320D01*
X52020Y50050D02*
X52320D01*
X52030Y50040D02*
X52320D01*
X52010Y50030D02*
X52020D01*
X52030D02*
X52320D01*
X52030Y50020D02*
X52320D01*
X52040Y50010D02*
X52320D01*
X52040Y50000D02*
X52320D01*
X52030Y49990D02*
X52310D01*
X52030Y49980D02*
X52310D01*
X52030Y49970D02*
X52310D01*
X52030Y49960D02*
X52310D01*
X52000Y49950D02*
X52010D01*
X52020D02*
X52310D01*
X51990Y49940D02*
X52000D01*
X52010D02*
X52300D01*
X51980Y49930D02*
X51990D01*
X52010D02*
X52300D01*
X51960Y49920D02*
X51970D01*
X51990D02*
X52300D01*
X51980Y49910D02*
X52290D01*
X51950Y49900D02*
X52290D01*
X51910Y49890D02*
X52290D01*
X51960Y49690D02*
X51970D01*
X51730Y50730D02*
X51740D01*
X51230Y50710D02*
X51320D01*
X51190Y50700D02*
X51350D01*
X51160Y50690D02*
X51350D01*
X51140Y50680D02*
X51350D01*
X51120Y50670D02*
X51350D01*
X51530Y50660D02*
X51540D01*
X51440Y50530D02*
X51790D01*
X51440Y50520D02*
X51750D01*
X51430Y50510D02*
X51730D01*
X51430Y50500D02*
X51720D01*
X51430Y50490D02*
X51710D01*
X51430Y50480D02*
X51710D01*
X51430Y50470D02*
X51700D01*
X51420Y50460D02*
X51700D01*
X51310Y50450D02*
X51350D01*
X51420D02*
X51700D01*
X51420Y50440D02*
X51700D01*
X51420Y50430D02*
X51710D01*
X51420Y50420D02*
X51710D01*
X51720D02*
X51730D01*
X51420Y50410D02*
X51710D01*
X51420Y50400D02*
X51720D01*
X51740D02*
X51750D01*
X51420Y50390D02*
X51740D01*
X51420Y50380D02*
X51750D01*
X51420Y50370D02*
X51770D01*
X51430Y50360D02*
X51800D01*
X51430Y50350D02*
X51840D01*
X51430Y50340D02*
X51880D01*
X51780Y50120D02*
X51790D01*
X51400Y50040D02*
X51670D01*
X51400Y50030D02*
X51670D01*
X51400Y50020D02*
X51670D01*
X51400Y50010D02*
X51670D01*
X51400Y50000D02*
X51670D01*
X51400Y49990D02*
X51670D01*
X51400Y49980D02*
X51680D01*
X51410Y49970D02*
X51680D01*
X51410Y49960D02*
X51690D01*
X51700D02*
X51710D01*
X51410Y49950D02*
X51700D01*
X51710D02*
X51720D01*
X51410Y49940D02*
X51710D01*
X51720D02*
X51730D01*
X51420Y49930D02*
X51720D01*
X51420Y49920D02*
X51730D01*
X51430Y49910D02*
X51750D01*
X51430Y49900D02*
X51770D01*
X51850D02*
X51860D01*
X51870D02*
X51880D01*
X51440Y49890D02*
X51820D01*
X51460Y49830D02*
X51470D01*
X51480Y49810D02*
X51490D01*
X51500Y49790D02*
X51510D01*
X51540Y49760D02*
X51550D01*
X51760Y49690D02*
X51770D01*
X50710Y50680D02*
X50970D01*
X50710Y50670D02*
X50970D01*
X50710Y50660D02*
X50970D01*
X50710Y50640D02*
X50970D01*
X50710Y50630D02*
X50970D01*
X50710Y50620D02*
X50970D01*
X50710Y50610D02*
X50970D01*
X50710Y50600D02*
X50970D01*
X50710Y50590D02*
X50970D01*
X50710Y50580D02*
X50970D01*
X50990D02*
X51000D01*
X50710Y50570D02*
X50970D01*
X50710Y50560D02*
X50970D01*
X50710Y50550D02*
X50970D01*
X50710Y50540D02*
X50970D01*
X50710Y50530D02*
X50970D01*
X50710Y50410D02*
X51090D01*
X50710Y50400D02*
X51070D01*
X50710Y50390D02*
X51060D01*
X50710Y50380D02*
X51050D01*
X50310Y50370D02*
X50590D01*
X50710D02*
X51050D01*
X50310Y50360D02*
X50590D01*
X50710D02*
X51040D01*
X51050D02*
X51060D01*
X50310Y50350D02*
X50600D01*
X50710D02*
X51030D01*
X50320Y50340D02*
X50600D01*
X50710D02*
X51030D01*
X50320Y50330D02*
X50600D01*
X50710D02*
X51020D01*
X51030D02*
X51040D01*
X50320Y50320D02*
X50600D01*
X50710D02*
X51020D01*
X50320Y50310D02*
X50610D01*
X50710D02*
X51010D01*
X50320Y50300D02*
X50610D01*
X50710D02*
X51010D01*
X50320Y50290D02*
X50610D01*
X50710D02*
X51010D01*
X50330Y50280D02*
X50610D01*
X50710D02*
X51000D01*
X50330Y50270D02*
X50610D01*
X50620D02*
X50630D01*
X50710D02*
X51000D01*
X50330Y50260D02*
X50610D01*
X50620D02*
X50630D01*
X50710D02*
X51000D01*
X50330Y50250D02*
X50610D01*
X50710D02*
X51000D01*
X50330Y50240D02*
X50610D01*
X50710D02*
X50990D01*
X50330Y50230D02*
X50610D01*
X50710D02*
X50990D01*
X50330Y50220D02*
X50610D01*
X50710D02*
X50990D01*
X50330Y50210D02*
X50610D01*
X50710D02*
X50990D01*
X51000D02*
X51010D01*
X50330Y50200D02*
X50610D01*
X50710D02*
X50990D01*
X51000D02*
X51010D01*
X50330Y50190D02*
X50610D01*
X50710D02*
X50990D01*
X50330Y50180D02*
X50610D01*
X50710D02*
X50990D01*
X50330Y50170D02*
X50610D01*
X50710D02*
X50990D01*
X50330Y50160D02*
X50610D01*
X50710D02*
X50990D01*
X50330Y50150D02*
X50610D01*
X50620D02*
X50630D01*
X50710D02*
X50990D01*
X50330Y50140D02*
X50610D01*
X50710D02*
X50990D01*
X50320Y50130D02*
X50610D01*
X50710D02*
X50990D01*
X50320Y50120D02*
X50610D01*
X50710D02*
X50990D01*
X50320Y50110D02*
X50610D01*
X50710D02*
X50990D01*
X50320Y50100D02*
X50600D01*
X50710D02*
X50990D01*
X50320Y50090D02*
X50600D01*
X50710D02*
X50990D01*
X50320Y50080D02*
X50600D01*
X50710D02*
X50990D01*
X50310Y50070D02*
X50600D01*
X50710D02*
X50990D01*
X50310Y50060D02*
X50600D01*
X50710D02*
X50990D01*
X50310Y50050D02*
X50590D01*
X50710D02*
X50990D01*
X50710Y50040D02*
X50990D01*
X50710Y50030D02*
X50990D01*
X50710Y50020D02*
X50990D01*
X50710Y50010D02*
X50990D01*
X50710Y50000D02*
X50990D01*
X50710Y49990D02*
X50990D01*
X50710Y49980D02*
X50990D01*
X50710Y49970D02*
X50990D01*
X50710Y49960D02*
X50990D01*
X50710Y49950D02*
X50990D01*
X50710Y49940D02*
X50990D01*
X50710Y49930D02*
X50990D01*
X50710Y49920D02*
X50990D01*
X50710Y49910D02*
X50990D01*
X50710Y49900D02*
X50990D01*
X50710Y49890D02*
X50990D01*
X50710Y49880D02*
X50990D01*
X50710Y49870D02*
X50990D01*
X50710Y49860D02*
X50990D01*
X50710Y49840D02*
X50990D01*
X50710Y49830D02*
X50990D01*
X50710Y49820D02*
X50990D01*
X50710Y49810D02*
X50990D01*
X50710Y49800D02*
X50990D01*
X50430Y49790D02*
X50440D01*
X50710D02*
X50990D01*
X50710Y49780D02*
X50990D01*
X50710Y49770D02*
X50990D01*
X50710Y49760D02*
X50990D01*
X50710Y49750D02*
X50990D01*
X50710Y49740D02*
X50990D01*
X50710Y49730D02*
X50990D01*
X50710Y49720D02*
X50990D01*
X49990Y50730D02*
X50000D01*
X50200D02*
X50210D01*
X50030Y50720D02*
X50170D01*
X49960Y50710D02*
X50230D01*
X49930Y50700D02*
X50270D01*
X49670Y50510D02*
X50070D01*
X49660Y50500D02*
X50020D01*
X49660Y50490D02*
X50000D01*
X49650Y50480D02*
X49980D01*
X50000D02*
X50010D01*
X49650Y50470D02*
X49960D01*
X49980D02*
X49990D01*
X49640Y50460D02*
X49950D01*
X50220D02*
X50230D01*
X49640Y50450D02*
X49940D01*
X49630Y50440D02*
X49930D01*
X49630Y50430D02*
X49930D01*
X49620Y50420D02*
X49920D01*
X49930D02*
X49940D01*
X50260D02*
X50270D01*
X49620Y50410D02*
X49910D01*
X49620Y50400D02*
X49910D01*
X49610Y50390D02*
X49900D01*
X49610Y50380D02*
X49900D01*
X49610Y50370D02*
X49890D01*
X49600Y50360D02*
X49890D01*
X49600Y50350D02*
X49890D01*
X49600Y50340D02*
X49880D01*
X49600Y50330D02*
X49880D01*
X49600Y50320D02*
X49880D01*
X49590Y50310D02*
X49880D01*
X49590Y50300D02*
X49880D01*
X49590Y50290D02*
X49880D01*
X49590Y50280D02*
X49870D01*
X49590Y50270D02*
X49870D01*
X49590Y50260D02*
X49870D01*
X49590Y50250D02*
X49870D01*
X49590Y50240D02*
X49870D01*
X49590Y50230D02*
X49870D01*
X49590Y50220D02*
X49870D01*
X49590Y50210D02*
X49870D01*
X49590Y50200D02*
X49870D01*
X49590Y50190D02*
X49870D01*
X49590Y50180D02*
X49870D01*
X49590Y50170D02*
X49870D01*
X49590Y50160D02*
X49870D01*
X49590Y50150D02*
X49870D01*
X49590Y50140D02*
X49870D01*
X49590Y50130D02*
X49870D01*
X49590Y50120D02*
X49880D01*
X49590Y50110D02*
X49880D01*
X49600Y50100D02*
X49880D01*
X49600Y50090D02*
X49880D01*
X49600Y50080D02*
X49880D01*
X49600Y50070D02*
X49890D01*
X49600Y50060D02*
X49890D01*
X49610Y50050D02*
X49890D01*
X49610Y50040D02*
X49900D01*
X49610Y50030D02*
X49900D01*
X49620Y50020D02*
X49910D01*
X49620Y50010D02*
X49910D01*
X49620Y50000D02*
X49920D01*
X49930D02*
X49940D01*
X50260D02*
X50270D01*
X49630Y49990D02*
X49920D01*
X49630Y49980D02*
X49930D01*
X49640Y49970D02*
X49940D01*
X49640Y49960D02*
X49950D01*
X49650Y49950D02*
X49960D01*
X49980D02*
X49990D01*
X50210D02*
X50220D01*
X49650Y49940D02*
X49980D01*
X49660Y49930D02*
X49990D01*
X49660Y49920D02*
X50020D01*
X49670Y49910D02*
X50070D01*
X49930Y49720D02*
X50270D01*
X49970Y49710D02*
X50230D01*
X50050Y49700D02*
X50150D01*
X49130Y51420D02*
X49210D01*
X48900Y51410D02*
X48980D01*
X49100D02*
X49210D01*
X48900Y51400D02*
X48980D01*
X49080D02*
X49210D01*
X48900Y51390D02*
X48980D01*
X49060D02*
X49210D01*
X48900Y51380D02*
X48980D01*
X49050D02*
X49210D01*
X48900Y51370D02*
X48980D01*
X49030D02*
X49210D01*
X48900Y51360D02*
X48980D01*
X49020D02*
X49210D01*
X48900Y51350D02*
X48980D01*
X48990D02*
X49000D01*
X49010D02*
X49210D01*
X48900Y51340D02*
X48980D01*
X49010D02*
X49200D01*
X48900Y51330D02*
X48980D01*
X49000D02*
X49120D01*
X48900Y51320D02*
X48980D01*
X48990D02*
X49090D01*
X48900Y51310D02*
X48980D01*
X48990D02*
X49080D01*
X49100D02*
X49110D01*
X48900Y51300D02*
X49060D01*
X49080D02*
X49090D01*
X48770Y51290D02*
X48780D01*
X48900D02*
X49050D01*
X48900Y51280D02*
X49040D01*
X49050D02*
X49060D01*
X48900Y51270D02*
X49030D01*
X49040D02*
X49050D01*
X48900Y51260D02*
X49020D01*
X49030D02*
X49040D01*
X48900Y51250D02*
X49020D01*
X48900Y51240D02*
X49010D01*
X48900Y51230D02*
X49000D01*
X48900Y51220D02*
X49000D01*
X49010D02*
X49020D01*
X48900Y51210D02*
X49000D01*
X48900Y51200D02*
X48990D01*
X48900Y51190D02*
X48990D01*
X48900Y51180D02*
X48990D01*
X48900Y51170D02*
X48990D01*
X48900Y51160D02*
X48990D01*
X48900Y51150D02*
X48980D01*
X48900Y51140D02*
X48980D01*
X48900Y51130D02*
X48980D01*
X48900Y51120D02*
X48980D01*
X48900Y51110D02*
X48980D01*
X48900Y51100D02*
X48980D01*
X48900Y51090D02*
X48980D01*
X48900Y51080D02*
X48980D01*
X48900Y51070D02*
X48980D01*
X48900Y51060D02*
X48980D01*
X48900Y51050D02*
X48980D01*
X48900Y51040D02*
X48980D01*
X48900Y51030D02*
X48980D01*
X48900Y51020D02*
X48980D01*
X48900Y51010D02*
X48980D01*
X48900Y51000D02*
X48980D01*
X48900Y50990D02*
X48980D01*
X48900Y50980D02*
X48980D01*
X49060D02*
X49340D01*
X48900Y50970D02*
X48980D01*
X49060D02*
X49340D01*
X48900Y50960D02*
X48980D01*
X49060D02*
X49340D01*
X48900Y50950D02*
X48980D01*
X49060D02*
X49340D01*
X48900Y50940D02*
X48980D01*
X49060D02*
X49340D01*
X48900Y50930D02*
X48980D01*
X49060D02*
X49340D01*
X48900Y50920D02*
X48980D01*
X49060D02*
X49340D01*
X48900Y50910D02*
X48980D01*
X49060D02*
X49340D01*
X48900Y50900D02*
X48980D01*
X49060D02*
X49340D01*
X48820Y50890D02*
X48830D01*
X48900D02*
X48980D01*
X49060D02*
X49340D01*
X48900Y50880D02*
X48980D01*
X49060D02*
X49340D01*
X48900Y50870D02*
X48980D01*
X49060D02*
X49340D01*
X48900Y50860D02*
X48980D01*
X49060D02*
X49340D01*
X48900Y50850D02*
X48980D01*
X49060D02*
X49340D01*
X48710Y50840D02*
X48830D01*
X48900D02*
X48980D01*
X49060D02*
X49340D01*
X48720Y50830D02*
X48830D01*
X48900D02*
X48980D01*
X49060D02*
X49340D01*
X48730Y50820D02*
X48830D01*
X48900D02*
X48980D01*
X49060D02*
X49340D01*
X49060Y50810D02*
X49340D01*
X49060Y50800D02*
X49340D01*
X49060Y50790D02*
X49340D01*
X49060Y50780D02*
X49340D01*
X49060Y50770D02*
X49340D01*
X49060Y50760D02*
X49340D01*
X49060Y50750D02*
X49340D01*
X49060Y50740D02*
X49340D01*
X49060Y50730D02*
X49340D01*
X49060Y50720D02*
X49340D01*
X49060Y50710D02*
X49340D01*
X49350D02*
X49360D01*
X49060Y50700D02*
X49340D01*
X48750Y50640D02*
X48760D01*
X48770Y50620D02*
X48780D01*
Y50610D02*
X48790D01*
X49060Y50500D02*
X49340D01*
X49060Y50490D02*
X49340D01*
X49350D02*
X49360D01*
X49060Y50480D02*
X49340D01*
X49060Y50470D02*
X49340D01*
X49060Y50460D02*
X49340D01*
X49060Y50450D02*
X49340D01*
X49060Y50440D02*
X49340D01*
X49060Y50430D02*
X49340D01*
X49060Y50420D02*
X49340D01*
X49060Y50410D02*
X49340D01*
X49060Y50400D02*
X49340D01*
X49060Y50390D02*
X49340D01*
X49060Y50380D02*
X49340D01*
X49060Y50370D02*
X49340D01*
X49060Y50360D02*
X49340D01*
X49060Y50350D02*
X49340D01*
X49060Y50340D02*
X49340D01*
X49060Y50330D02*
X49340D01*
X49060Y50320D02*
X49340D01*
X49060Y50310D02*
X49340D01*
X49060Y50300D02*
X49340D01*
X49060Y50290D02*
X49340D01*
X49060Y50280D02*
X49340D01*
X49060Y50270D02*
X49340D01*
X49060Y50260D02*
X49340D01*
X49060Y50250D02*
X49340D01*
X49060Y50240D02*
X49340D01*
X49060Y50230D02*
X49340D01*
X49060Y50220D02*
X49340D01*
X49060Y50210D02*
X49340D01*
X49060Y50200D02*
X49340D01*
X49060Y50190D02*
X49340D01*
X49060Y50180D02*
X49340D01*
X49060Y50170D02*
X49340D01*
X49060Y50160D02*
X49340D01*
X49060Y50150D02*
X49340D01*
X49060Y50140D02*
X49340D01*
X49060Y50130D02*
X49340D01*
X49060Y50120D02*
X49340D01*
X49060Y50110D02*
X49340D01*
X49060Y50100D02*
X49340D01*
X49060Y50090D02*
X49340D01*
X49060Y50080D02*
X49340D01*
X49060Y50070D02*
X49340D01*
X49060Y50060D02*
X49340D01*
X49060Y50050D02*
X49340D01*
X49060Y50040D02*
X49340D01*
X49060Y50030D02*
X49340D01*
X49060Y50020D02*
X49340D01*
X49060Y50010D02*
X49340D01*
X49060Y50000D02*
X49340D01*
X49060Y49990D02*
X49340D01*
X49060Y49980D02*
X49340D01*
X49060Y49970D02*
X49350D01*
X49060Y49960D02*
X49350D01*
X49360D02*
X49370D01*
X49060Y49950D02*
X49360D01*
X49060Y49940D02*
X49380D01*
X48840Y49900D02*
X48850D01*
X48840Y49890D02*
X48850D01*
X48080Y51640D02*
X48170D01*
X48080Y51630D02*
X48170D01*
X48080Y51620D02*
X48170D01*
X48080Y51610D02*
X48170D01*
X48080Y51600D02*
X48170D01*
X48080Y51590D02*
X48170D01*
X48080Y51580D02*
X48170D01*
X48080Y51570D02*
X48170D01*
X48080Y51560D02*
X48170D01*
X48080Y51550D02*
X48170D01*
X48080Y51540D02*
X48170D01*
X48080Y51530D02*
X48170D01*
X48080Y51520D02*
X48170D01*
X48080Y51510D02*
X48170D01*
X48080Y51500D02*
X48170D01*
X48080Y51490D02*
X48170D01*
X48080Y51480D02*
X48170D01*
X48080Y51470D02*
X48170D01*
X48080Y51460D02*
X48170D01*
X48080Y51440D02*
X48170D01*
X48080Y51430D02*
X48170D01*
X48480D02*
X48600D01*
X48080Y51420D02*
X48170D01*
X48430D02*
X48640D01*
X48080Y51410D02*
X48170D01*
X48400D02*
X48670D01*
X48080Y51400D02*
X48170D01*
X48390D02*
X48690D01*
X48080Y51390D02*
X48170D01*
X48080Y51380D02*
X48170D01*
X48080Y51370D02*
X48170D01*
X48080Y51360D02*
X48170D01*
X48340D02*
X48520D01*
X48080Y51350D02*
X48170D01*
X48330D02*
X48460D01*
X48080Y51340D02*
X48170D01*
X48320D02*
X48430D01*
X48080Y51330D02*
X48170D01*
X48320D02*
X48420D01*
X48620D02*
X48630D01*
X48080Y51320D02*
X48170D01*
X48310D02*
X48410D01*
X48420D02*
X48430D01*
X48080Y51310D02*
X48170D01*
X48310D02*
X48400D01*
X48410D02*
X48420D01*
X48080Y51300D02*
X48170D01*
X48300D02*
X48390D01*
X48400D02*
X48410D01*
X48080Y51290D02*
X48170D01*
X48300D02*
X48390D01*
X48080Y51280D02*
X48170D01*
X48300D02*
X48380D01*
X48080Y51270D02*
X48170D01*
X48290D02*
X48380D01*
X48080Y51260D02*
X48170D01*
X48290D02*
X48380D01*
X48080Y51250D02*
X48170D01*
X48290D02*
X48380D01*
X48080Y51240D02*
X48170D01*
X48290D02*
X48370D01*
X48080Y51230D02*
X48170D01*
X48290D02*
X48370D01*
X48080Y51220D02*
X48170D01*
X47910Y51210D02*
X48000D01*
X48080D02*
X48170D01*
X47910Y51200D02*
X48000D01*
X48080D02*
X48170D01*
X47910Y51190D02*
X48000D01*
X48010D02*
X48020D01*
X48080D02*
X48170D01*
X47910Y51180D02*
X48000D01*
X48080D02*
X48170D01*
X48520D02*
X48530D01*
X47920Y51170D02*
X48000D01*
X48080D02*
X48170D01*
X47920Y51160D02*
X48000D01*
X48080D02*
X48170D01*
X47920Y51150D02*
X48010D01*
X48080D02*
X48170D01*
X47920Y51140D02*
X48010D01*
X48080D02*
X48170D01*
X47920Y51130D02*
X48010D01*
X48080D02*
X48170D01*
X47920Y51120D02*
X48010D01*
X48080D02*
X48170D01*
X48340D02*
X48660D01*
X47920Y51110D02*
X48010D01*
X48080D02*
X48170D01*
X48330D02*
X48620D01*
X47920Y51100D02*
X48010D01*
X48080D02*
X48170D01*
X48320D02*
X48560D01*
X47920Y51090D02*
X48010D01*
X48080D02*
X48170D01*
X48300D02*
X48490D01*
X47920Y51080D02*
X48010D01*
X48080D02*
X48170D01*
X48300D02*
X48450D01*
X47920Y51070D02*
X48000D01*
X48080D02*
X48170D01*
X48290D02*
X48420D01*
X47920Y51060D02*
X48000D01*
X48080D02*
X48170D01*
X48280D02*
X48400D01*
X47910Y51050D02*
X48000D01*
X48080D02*
X48170D01*
X48280D02*
X48380D01*
X48400D02*
X48410D01*
X47910Y51040D02*
X48000D01*
X48010D02*
X48020D01*
X48080D02*
X48170D01*
X48270D02*
X48370D01*
X48380D02*
X48390D01*
X47910Y51030D02*
X48000D01*
X48080D02*
X48170D01*
X48270D02*
X48360D01*
X48370D02*
X48380D01*
X47910Y51020D02*
X48000D01*
X48080D02*
X48170D01*
X48270D02*
X48360D01*
X48080Y51010D02*
X48170D01*
X48260D02*
X48350D01*
X48080Y51000D02*
X48170D01*
X48260D02*
X48350D01*
X48080Y50990D02*
X48170D01*
X48260D02*
X48350D01*
X48080Y50980D02*
X48170D01*
X48260D02*
X48350D01*
X48080Y50970D02*
X48170D01*
X48260D02*
X48350D01*
X48640D02*
X48650D01*
X48080Y50960D02*
X48170D01*
X48260D02*
X48350D01*
X48080Y50950D02*
X48170D01*
X48260D02*
X48350D01*
X48630D02*
X48640D01*
X48080Y50940D02*
X48170D01*
X48260D02*
X48360D01*
X48620D02*
X48630D01*
X48080Y50930D02*
X48170D01*
X48270D02*
X48360D01*
X48370D02*
X48380D01*
X48610D02*
X48620D01*
X48080Y50920D02*
X48170D01*
X48270D02*
X48370D01*
X48380D02*
X48390D01*
X48080Y50910D02*
X48170D01*
X48270D02*
X48380D01*
X48390D02*
X48400D01*
X48080Y50900D02*
X48170D01*
X48280D02*
X48390D01*
X48590D02*
X48680D01*
X47940Y50890D02*
X47950D01*
X48080D02*
X48170D01*
X48280D02*
X48400D01*
X48570D02*
X48670D01*
X48080Y50880D02*
X48170D01*
X48290D02*
X48420D01*
X48540D02*
X48660D01*
X48080Y50870D02*
X48170D01*
X48300D02*
X48650D01*
X48670D02*
X48680D01*
X48080Y50860D02*
X48170D01*
X48300D02*
X48640D01*
X48080Y50850D02*
X48170D01*
X48310D02*
X48630D01*
X48080Y50840D02*
X48170D01*
X48320D02*
X48620D01*
X48080Y50830D02*
X48170D01*
X48340D02*
X48610D01*
X48080Y50820D02*
X48170D01*
X48360D02*
X48590D01*
X48380Y50810D02*
X48560D01*
X48430Y50800D02*
X48510D01*
X48270Y50730D02*
X48280D01*
X48520D02*
X48530D01*
X48310Y50720D02*
X48480D01*
X48240Y50710D02*
X48570D01*
X48200Y50700D02*
X48610D01*
X48160Y50690D02*
X48640D01*
X48140Y50680D02*
X48670D01*
X48120Y50670D02*
X48690D01*
X47960Y50530D02*
X48330D01*
X47960Y50520D02*
X48290D01*
X47950Y50510D02*
X48270D01*
X47950Y50500D02*
X48260D01*
X48490D02*
X48500D01*
X47940Y50490D02*
X48240D01*
X48260D02*
X48270D01*
X48500D02*
X48510D01*
X47940Y50480D02*
X48240D01*
X48250D02*
X48260D01*
X48510D02*
X48520D01*
X47940Y50470D02*
X48230D01*
X48240D02*
X48250D01*
X47940Y50460D02*
X48230D01*
X47930Y50450D02*
X48220D01*
X47930Y50440D02*
X48220D01*
X47930Y50430D02*
X48210D01*
X47930Y50420D02*
X48210D01*
X47930Y50410D02*
X48210D01*
X47930Y50400D02*
X48210D01*
X47930Y50390D02*
X48210D01*
X48520Y50370D02*
X48530D01*
X48510Y50360D02*
X48520D01*
X48200Y50300D02*
X48210D01*
X47960Y50180D02*
X48540D01*
X47960Y50170D02*
X48510D01*
X47950Y50160D02*
X48480D01*
X47940Y50150D02*
X48420D01*
X47930Y50140D02*
X48350D01*
X47930Y50130D02*
X48300D01*
X47920Y50120D02*
X48270D01*
X48310D02*
X48320D01*
X47920Y50110D02*
X48240D01*
X47910Y50100D02*
X48230D01*
X47910Y50090D02*
X48210D01*
X48230D02*
X48240D01*
X47910Y50080D02*
X48200D01*
Y50060D02*
X48210D01*
X48490Y49960D02*
X48500D01*
X48480Y49950D02*
X48490D01*
X48470Y49940D02*
X48480D01*
X48210Y49930D02*
X48220D01*
X48460D02*
X48470D01*
X48230Y49920D02*
X48240D01*
X48440D02*
X48450D01*
X47910Y49910D02*
X48220D01*
X47910Y49900D02*
X48240D01*
X48320D02*
X48330D01*
X48340D02*
X48360D01*
X47910Y49890D02*
X48280D01*
X47960Y49800D02*
X48550D01*
X47970Y49790D02*
X48540D01*
X47980Y49780D02*
X48530D01*
X48540D02*
X48550D01*
X48000Y49770D02*
X48510D01*
X48010Y49760D02*
X48500D01*
X48020Y49750D02*
X48480D01*
X48040Y49740D02*
X48460D01*
X48060Y49730D02*
X48430D01*
X48090Y49720D02*
X48400D01*
X48120Y49710D02*
X48360D01*
X48190Y49700D02*
X48290D01*
X48150Y49690D02*
X48160D01*
X47660Y51430D02*
X47770D01*
X47620Y51420D02*
X47810D01*
X47600Y51410D02*
X47840D01*
X47580Y51400D02*
X47860D01*
X47560Y51390D02*
X47870D01*
X47550Y51380D02*
X47890D01*
X47140Y51360D02*
X47320D01*
X47520D02*
X47710D01*
X47200Y51350D02*
X47330D01*
X47510D02*
X47650D01*
X47220Y51340D02*
X47340D01*
X47500D02*
X47630D01*
X47210Y51330D02*
X47220D01*
X47240D02*
X47340D01*
X47500D02*
X47610D01*
X47250Y51320D02*
X47350D01*
X47490D02*
X47600D01*
X47810D02*
X47820D01*
X47260Y51310D02*
X47350D01*
X47480D02*
X47590D01*
X47600D02*
X47610D01*
X47260Y51300D02*
X47360D01*
X47470D02*
X47580D01*
X47590D02*
X47600D01*
X47270Y51290D02*
X47360D01*
X47470D02*
X47570D01*
X47580D02*
X47590D01*
X47270Y51280D02*
X47360D01*
X47460D02*
X47560D01*
X47570D02*
X47580D01*
X47280Y51270D02*
X47360D01*
X47460D02*
X47550D01*
X47860D02*
X47870D01*
X47280Y51260D02*
X47370D01*
X47450D02*
X47550D01*
X47260Y51250D02*
X47270D01*
X47280D02*
X47370D01*
X47450D02*
X47540D01*
X47280Y51240D02*
X47370D01*
X47450D02*
X47540D01*
X47440Y51230D02*
X47530D01*
X47880D02*
X47890D01*
X47440Y51220D02*
X47530D01*
X47440Y51210D02*
X47530D01*
X47440Y51200D02*
X47520D01*
X47430Y51190D02*
X47520D01*
X47430Y51180D02*
X47520D01*
X47430Y51170D02*
X47520D01*
X47430Y51160D02*
X47520D01*
X47430Y51150D02*
X47520D01*
X47430Y51140D02*
X47510D01*
X47430Y51130D02*
X47510D01*
X47430Y51120D02*
X47510D01*
X47430Y51110D02*
X47510D01*
X47430Y51100D02*
X47510D01*
X47120Y51090D02*
X47340D01*
X47430D02*
X47510D01*
X47160Y51080D02*
X47350D01*
X47430D02*
X47520D01*
X47200Y51070D02*
X47360D01*
X47430D02*
X47520D01*
X47230Y51060D02*
X47370D01*
X47430D02*
X47520D01*
X47260Y51050D02*
X47370D01*
X47430D02*
X47520D01*
X47270Y51040D02*
X47380D01*
X47430D02*
X47520D01*
X47260Y51030D02*
X47270D01*
X47280D02*
X47380D01*
X47440D02*
X47530D01*
X47270Y51020D02*
X47280D01*
X47290D02*
X47380D01*
X47440D02*
X47530D01*
X47300Y51010D02*
X47390D01*
X47440D02*
X47530D01*
X47300Y51000D02*
X47390D01*
X47440D02*
X47530D01*
X47300Y50990D02*
X47390D01*
X47450D02*
X47540D01*
X47300Y50980D02*
X47390D01*
X47450D02*
X47540D01*
X47300Y50970D02*
X47390D01*
X47450D02*
X47550D01*
X47560D02*
X47570D01*
X47300Y50960D02*
X47390D01*
X47460D02*
X47550D01*
X47860D02*
X47870D01*
X47300Y50950D02*
X47390D01*
X47460D02*
X47560D01*
X47850D02*
X47860D01*
X47290Y50940D02*
X47380D01*
X47470D02*
X47570D01*
X47580D02*
X47590D01*
X47270Y50930D02*
X47280D01*
X47290D02*
X47380D01*
X47470D02*
X47580D01*
X47590D02*
X47600D01*
X47260Y50920D02*
X47270D01*
X47280D02*
X47380D01*
X47480D02*
X47590D01*
X47600D02*
X47610D01*
X47820D02*
X47830D01*
X47270Y50910D02*
X47370D01*
X47490D02*
X47600D01*
X47260Y50900D02*
X47370D01*
X47500D02*
X47610D01*
X47790D02*
X47800D01*
X47240Y50890D02*
X47360D01*
X47500D02*
X47630D01*
X47210Y50880D02*
X47350D01*
X47510D02*
X47650D01*
X47550Y50850D02*
X47890D01*
X47560Y50840D02*
X47870D01*
X47580Y50830D02*
X47850D01*
X47600Y50820D02*
X47830D01*
X47630Y50810D02*
X47810D01*
X47680Y50800D02*
X47760D01*
X47210Y50790D02*
X47220D01*
X47780D02*
X47790D01*
X47220Y50700D02*
X47330D01*
X47160Y50690D02*
X47380D01*
X47130Y50680D02*
X47420D01*
X47110Y50670D02*
X47440D01*
X47560D02*
X47830D01*
X47560Y50660D02*
X47830D01*
X47560Y50640D02*
X47830D01*
X47560Y50630D02*
X47830D01*
X47560Y50620D02*
X47830D01*
X47560Y50610D02*
X47830D01*
X47540Y50600D02*
X47550D01*
X47560D02*
X47830D01*
X47560Y50590D02*
X47830D01*
X47560Y50580D02*
X47830D01*
X47560Y50570D02*
X47830D01*
X47360Y50490D02*
X47830D01*
X47420Y50480D02*
X47830D01*
X47440Y50470D02*
X47830D01*
X47460Y50460D02*
X47830D01*
X47450Y50450D02*
X47460D01*
X47480D02*
X47830D01*
X47220Y50440D02*
X47230D01*
X47490D02*
X47830D01*
X47210Y50430D02*
X47220D01*
X47500D02*
X47830D01*
X47200Y50420D02*
X47210D01*
X47510D02*
X47830D01*
X47190Y50410D02*
X47200D01*
X47510D02*
X47830D01*
X47500Y50400D02*
X47510D01*
X47520D02*
X47830D01*
X47520Y50390D02*
X47830D01*
X47530Y50380D02*
X47830D01*
X47530Y50370D02*
X47830D01*
X47540Y50360D02*
X47830D01*
X47540Y50350D02*
X47830D01*
X47550Y50340D02*
X47830D01*
X47550Y50330D02*
X47830D01*
X47550Y50320D02*
X47830D01*
X47550Y50310D02*
X47830D01*
X47550Y50300D02*
X47830D01*
X47560Y50290D02*
X47830D01*
X47560Y50280D02*
X47830D01*
X47560Y50270D02*
X47830D01*
X47560Y50260D02*
X47830D01*
X47560Y50250D02*
X47830D01*
X47560Y50240D02*
X47830D01*
X47560Y50230D02*
X47830D01*
X47560Y50220D02*
X47830D01*
X47560Y50210D02*
X47830D01*
X47560Y50200D02*
X47830D01*
X47560Y50190D02*
X47830D01*
X47560Y50180D02*
X47830D01*
X47560Y50170D02*
X47830D01*
X47560Y50160D02*
X47830D01*
X47560Y50150D02*
X47830D01*
X47560Y50140D02*
X47830D01*
X47560Y50130D02*
X47830D01*
X47550Y50120D02*
X47830D01*
X47550Y50110D02*
X47830D01*
X47550Y50100D02*
X47830D01*
X47550Y50090D02*
X47830D01*
X47540Y50080D02*
X47830D01*
X47540Y50070D02*
X47830D01*
X47530Y50060D02*
X47830D01*
X47530Y50050D02*
X47830D01*
X47180Y50040D02*
X47190D01*
X47520D02*
X47830D01*
X47880D02*
X47890D01*
X47520Y50030D02*
X47830D01*
X47490Y50020D02*
X47500D01*
X47510D02*
X47830D01*
X47200Y50010D02*
X47210D01*
X47480D02*
X47490D01*
X47500D02*
X47830D01*
X47210Y50000D02*
X47220D01*
X47470D02*
X47480D01*
X47490D02*
X47830D01*
X47480Y49990D02*
X47830D01*
X47470Y49980D02*
X47830D01*
X47450Y49970D02*
X47830D01*
X47430Y49960D02*
X47830D01*
X47400Y49950D02*
X47830D01*
X47880D02*
X47890D01*
X47880Y49940D02*
X47890D01*
X47560Y49840D02*
X47830D01*
X47560Y49830D02*
X47830D01*
X47540Y49820D02*
X47550D01*
X47560D02*
X47830D01*
X47560Y49810D02*
X47830D01*
X47560Y49800D02*
X47830D01*
X47560Y49790D02*
X47830D01*
X47560Y49780D02*
X47830D01*
X47560Y49770D02*
X47830D01*
X47560Y49760D02*
X47830D01*
X47130Y49750D02*
X47400D01*
X47560D02*
X47830D01*
X47160Y49740D02*
X47370D01*
X47560D02*
X47830D01*
X47250Y49730D02*
X47300D01*
X47560D02*
X47830D01*
X47190Y49720D02*
X47200D01*
X47560D02*
X47830D01*
X47840D02*
X47850D01*
X47560Y49710D02*
X47830D01*
X47560Y49700D02*
X47830D01*
X47560Y49690D02*
X47830D01*
X47560Y49680D02*
X47820D01*
X47550Y49670D02*
X47820D01*
X47550Y49660D02*
X47820D01*
X47550Y49650D02*
X47820D01*
X47540Y49640D02*
X47820D01*
X47520Y49630D02*
X47530D01*
X47540D02*
X47810D01*
X47530Y49620D02*
X47810D01*
X47530Y49610D02*
X47810D01*
X47500Y49600D02*
X47510D01*
X47520D02*
X47810D01*
X47200Y49590D02*
X47210D01*
X47490D02*
X47500D01*
X47510D02*
X47800D01*
X47210Y49580D02*
X47220D01*
X47480D02*
X47490D01*
X47500D02*
X47800D01*
X47470Y49570D02*
X47480D01*
X47490D02*
X47790D01*
X47480Y49560D02*
X47790D01*
X47460Y49550D02*
X47780D01*
X47440Y49540D02*
X47780D01*
X47390Y49530D02*
X47770D01*
X47760Y49500D02*
X47770D01*
X47690Y49430D02*
X47700D01*
X47120Y49370D02*
X47550D01*
X47160Y49360D02*
X47520D01*
X47200Y49350D02*
X47470D01*
X47270Y49340D02*
X47380D01*
X46940Y51350D02*
X47060D01*
X46930Y51340D02*
X47040D01*
X46920Y51330D02*
X47020D01*
X46920Y51320D02*
X47010D01*
X47030D02*
X47040D01*
X46920Y51310D02*
X47010D01*
X47020D02*
X47030D01*
X46910Y51300D02*
X47000D01*
X47010D02*
X47020D01*
X46910Y51290D02*
X47000D01*
X46910Y51280D02*
X47000D01*
X46910Y51270D02*
X47000D01*
X46910Y51260D02*
X47000D01*
X46910Y51250D02*
X47000D01*
X46910Y51240D02*
X47000D01*
X47010D02*
X47020D01*
X46910Y51230D02*
X47000D01*
X46910Y51220D02*
X47010D01*
X46920Y51210D02*
X47020D01*
X47040D02*
X47050D01*
X46920Y51200D02*
X47040D01*
X46930Y51190D02*
X47060D01*
X46930Y51180D02*
X47090D01*
X46890Y51010D02*
X46970D01*
X46890Y51000D02*
X46980D01*
X46890Y50990D02*
X46980D01*
X46890Y50980D02*
X46980D01*
X46890Y50970D02*
X46980D01*
X46710Y50960D02*
X46720D01*
X46900D02*
X46980D01*
X46700Y50950D02*
X46710D01*
X46900D02*
X46990D01*
X46690Y50940D02*
X46700D01*
X46900D02*
X46990D01*
X46680Y50930D02*
X46690D01*
X46910D02*
X47000D01*
X47010D02*
X47020D01*
X46670Y50920D02*
X46680D01*
X46910D02*
X47010D01*
X47020D02*
X47030D01*
X46660Y50910D02*
X46670D01*
X46910D02*
X47020D01*
X46920Y50900D02*
X47030D01*
X46930Y50890D02*
X47050D01*
X46930Y50880D02*
X47080D01*
X47000Y50620D02*
X47010D01*
X46950Y50570D02*
X46960D01*
X46880Y50460D02*
X46890D01*
X46710Y50180D02*
X46720D01*
X46700Y50170D02*
X46710D01*
X46690Y50160D02*
X46700D01*
X46680Y50150D02*
X46690D01*
X46670Y50140D02*
X46680D01*
X46990Y49810D02*
X47000D01*
X46950Y49460D02*
X46960D01*
Y49450D02*
X46970D01*
X46710Y49400D02*
X46720D01*
X46700Y49390D02*
X46710D01*
X46690Y49380D02*
X46700D01*
X47060D02*
X47070D01*
X46680Y49370D02*
X46690D01*
X46670Y49360D02*
X46680D01*
X45810Y51570D02*
X45890D01*
X45820Y51560D02*
X45900D01*
X45830Y51550D02*
X45910D01*
X45840Y51540D02*
X45910D01*
X45850Y51530D02*
X45910D01*
X45850Y51520D02*
X45910D01*
X45850Y51510D02*
X45910D01*
X45850Y51500D02*
X45910D01*
X45850Y51490D02*
X45910D01*
X45850Y51480D02*
X45910D01*
X45850Y51470D02*
X45910D01*
X45850Y51460D02*
X45910D01*
X45850Y51440D02*
X45910D01*
X45850Y51430D02*
X45910D01*
X45850Y51420D02*
X45910D01*
X45850Y51410D02*
X45910D01*
X45850Y51400D02*
X45910D01*
X45850Y51390D02*
X45910D01*
X45850Y51380D02*
X45910D01*
X45850Y51370D02*
X45910D01*
X45850Y51360D02*
X45910D01*
X45850Y51350D02*
X45910D01*
X45850Y51340D02*
X45910D01*
X45850Y51330D02*
X45910D01*
X45850Y51320D02*
X45910D01*
X45850Y51310D02*
X45910D01*
X45850Y51300D02*
X45910D01*
X45850Y51290D02*
X45910D01*
X45850Y51280D02*
X45910D01*
X45850Y51270D02*
X45910D01*
X45850Y51260D02*
X45910D01*
X45850Y51250D02*
X45910D01*
X45850Y51240D02*
X45910D01*
X45850Y51230D02*
X45910D01*
X45850Y51220D02*
X45910D01*
X45850Y51210D02*
X45910D01*
X45850Y51200D02*
X45910D01*
X45850Y51190D02*
X45910D01*
X45850Y51180D02*
X45910D01*
X45850Y51170D02*
X45910D01*
X45850Y51160D02*
X45910D01*
X45850Y51150D02*
X45910D01*
X45850Y51140D02*
X45910D01*
X45850Y51130D02*
X45910D01*
X45850Y51120D02*
X45910D01*
X45850Y51110D02*
X45910D01*
X45850Y51100D02*
X45910D01*
X45850Y51090D02*
X45910D01*
X45850Y51080D02*
X45910D01*
X45850Y51070D02*
X45910D01*
X45850Y51060D02*
X45910D01*
X45850Y51050D02*
X45910D01*
X45850Y51040D02*
X45910D01*
X45850Y51030D02*
X45910D01*
X45850Y51020D02*
X45910D01*
X45850Y51010D02*
X45910D01*
X45850Y51000D02*
X45910D01*
X45840Y50990D02*
X45910D01*
X45830Y50980D02*
X45910D01*
X45820Y50970D02*
X45900D01*
X45510Y50960D02*
X45520D01*
X45810D02*
X45890D01*
X45980D02*
X45990D01*
Y50950D02*
X46000D01*
Y50940D02*
X46010D01*
Y50930D02*
X46020D01*
Y50920D02*
X46030D01*
Y50910D02*
X46040D01*
X45840Y50800D02*
X45850D01*
X45860D02*
X45880D01*
X45740Y50790D02*
X45820D01*
X45830D02*
X45840D01*
X45850D02*
X45890D01*
X45730Y50780D02*
X45810D01*
X45820D02*
X45830D01*
X45840D02*
X45900D01*
X45720Y50770D02*
X45800D01*
X45810D02*
X45820D01*
X45830D02*
X45910D01*
X45710Y50760D02*
X45790D01*
X45800D02*
X45810D01*
X45820D02*
X45920D01*
X45700Y50750D02*
X45780D01*
X45790D02*
X45800D01*
X45810D02*
X45920D01*
X45690Y50740D02*
X45770D01*
X45780D02*
X45790D01*
X45800D02*
X45920D01*
X45680Y50730D02*
X45760D01*
X45770D02*
X45780D01*
X45790D02*
X45920D01*
X45670Y50720D02*
X45750D01*
X45760D02*
X45770D01*
X45780D02*
X45920D01*
X45660Y50710D02*
X45740D01*
X45750D02*
X45760D01*
X45770D02*
X45920D01*
X45650Y50700D02*
X45730D01*
X45740D02*
X45750D01*
X45760D02*
X45920D01*
X45640Y50690D02*
X45720D01*
X45730D02*
X45740D01*
X45750D02*
X45920D01*
X45630Y50680D02*
X45710D01*
X45720D02*
X45730D01*
X45740D02*
X45920D01*
X45620Y50670D02*
X45700D01*
X45710D02*
X45720D01*
X45730D02*
X45920D01*
X45610Y50660D02*
X45690D01*
X45700D02*
X45710D01*
X45720D02*
X45920D01*
X45590Y50640D02*
X45670D01*
X45680D02*
X45690D01*
X45700D02*
X45920D01*
X45580Y50630D02*
X45660D01*
X45670D02*
X45680D01*
X45690D02*
X45920D01*
X45570Y50620D02*
X45650D01*
X45660D02*
X45670D01*
X45680D02*
X45920D01*
X45560Y50610D02*
X45640D01*
X45650D02*
X45660D01*
X45670D02*
X45920D01*
X45550Y50600D02*
X45630D01*
X45640D02*
X45650D01*
X45660D02*
X45920D01*
X45540Y50590D02*
X45620D01*
X45630D02*
X45640D01*
X45650D02*
X45920D01*
X45530Y50580D02*
X45610D01*
X45620D02*
X45630D01*
X45640D02*
X45920D01*
X45520Y50570D02*
X45600D01*
X45610D02*
X45620D01*
X45630D02*
X45920D01*
X45510Y50560D02*
X45590D01*
X45600D02*
X45610D01*
X45620D02*
X45920D01*
X45590Y50550D02*
X45600D01*
X45610D02*
X45920D01*
X45580Y50540D02*
X45590D01*
X45600D02*
X45920D01*
X45570Y50530D02*
X45580D01*
X45590D02*
X45920D01*
X45560Y50520D02*
X45570D01*
X45580D02*
X45920D01*
X45550Y50510D02*
X45560D01*
X45570D02*
X45920D01*
X45540Y50500D02*
X45550D01*
X45560D02*
X45920D01*
X45530Y50490D02*
X45540D01*
X45550D02*
X45920D01*
X45520Y50480D02*
X45530D01*
X45540D02*
X45920D01*
X45510Y50470D02*
X45520D01*
X45530D02*
X45920D01*
X45520Y50460D02*
X45920D01*
X45510Y50450D02*
X45920D01*
X45900Y50180D02*
X45910D01*
X45980D02*
X45990D01*
X45890Y50170D02*
X45900D01*
X45990D02*
X46000D01*
X45880Y50160D02*
X45890D01*
X46000D02*
X46010D01*
X45870Y50150D02*
X45880D01*
X46010D02*
X46020D01*
X45860Y50140D02*
X45870D01*
X46020D02*
X46030D01*
X45980Y49400D02*
X45990D01*
Y49390D02*
X46000D01*
Y49380D02*
X46010D01*
Y49370D02*
X46020D01*
Y49360D02*
X46030D01*
X45040Y51620D02*
X45050D01*
X45210D02*
X45220D01*
X45050Y51610D02*
X45060D01*
X45200D02*
X45210D01*
X45060Y51600D02*
X45070D01*
X45190D02*
X45200D01*
X45070Y51590D02*
X45080D01*
X45180D02*
X45190D01*
X45080Y51580D02*
X45090D01*
X45170D02*
X45180D01*
X45000Y51570D02*
X45080D01*
X45180D02*
X45260D01*
X45010Y51560D02*
X45090D01*
X45170D02*
X45250D01*
X45020Y51550D02*
X45100D01*
X45170D02*
X45240D01*
X45030Y51540D02*
X45100D01*
X45160D02*
X45230D01*
X45040Y51530D02*
X45100D01*
X45160D02*
X45220D01*
X45040Y51520D02*
X45100D01*
X45160D02*
X45220D01*
X45040Y51510D02*
X45100D01*
X45160D02*
X45220D01*
X45040Y51500D02*
X45100D01*
X45160D02*
X45220D01*
X45040Y51490D02*
X45100D01*
X45160D02*
X45220D01*
X45040Y51480D02*
X45100D01*
X45160D02*
X45220D01*
X45040Y51470D02*
X45100D01*
X45160D02*
X45220D01*
X45040Y51460D02*
X45100D01*
X45160D02*
X45220D01*
X45040Y51440D02*
X45100D01*
X45160D02*
X45220D01*
X45040Y51430D02*
X45100D01*
X45160D02*
X45220D01*
X45040Y51420D02*
X45100D01*
X45160D02*
X45220D01*
X45040Y51410D02*
X45100D01*
X45160D02*
X45220D01*
X45040Y51400D02*
X45100D01*
X45160D02*
X45220D01*
X45040Y51390D02*
X45100D01*
X45160D02*
X45220D01*
X45040Y51380D02*
X45100D01*
X45160D02*
X45220D01*
X45040Y51370D02*
X45100D01*
X45160D02*
X45220D01*
X45040Y51360D02*
X45100D01*
X45160D02*
X45220D01*
X45040Y51350D02*
X45100D01*
X45160D02*
X45220D01*
X45040Y51340D02*
X45100D01*
X45160D02*
X45220D01*
X45040Y51330D02*
X45100D01*
X45160D02*
X45220D01*
X45040Y51320D02*
X45100D01*
X45160D02*
X45220D01*
X45040Y51310D02*
X45100D01*
X45160D02*
X45220D01*
X45040Y51300D02*
X45100D01*
X45160D02*
X45220D01*
X45040Y51290D02*
X45100D01*
X45160D02*
X45220D01*
X45040Y51280D02*
X45100D01*
X45160D02*
X45220D01*
X45040Y51270D02*
X45100D01*
X45160D02*
X45220D01*
X45040Y51260D02*
X45100D01*
X45160D02*
X45220D01*
X45040Y51250D02*
X45100D01*
X45160D02*
X45220D01*
X45040Y51240D02*
X45100D01*
X45160D02*
X45220D01*
X45040Y51230D02*
X45100D01*
X45160D02*
X45220D01*
X45040Y51220D02*
X45100D01*
X45160D02*
X45220D01*
X45040Y51210D02*
X45100D01*
X45160D02*
X45220D01*
X45040Y51200D02*
X45100D01*
X45160D02*
X45220D01*
X45040Y51190D02*
X45100D01*
X45160D02*
X45220D01*
X45040Y51180D02*
X45100D01*
X45160D02*
X45220D01*
X45040Y51170D02*
X45100D01*
X45160D02*
X45220D01*
X45040Y51160D02*
X45100D01*
X45160D02*
X45220D01*
X45040Y51150D02*
X45100D01*
X45160D02*
X45220D01*
X45040Y51140D02*
X45100D01*
X45160D02*
X45220D01*
X45040Y51130D02*
X45100D01*
X45160D02*
X45220D01*
X45040Y51120D02*
X45100D01*
X45160D02*
X45220D01*
X45040Y51110D02*
X45100D01*
X45160D02*
X45220D01*
X45040Y51100D02*
X45100D01*
X45160D02*
X45220D01*
X45040Y51090D02*
X45100D01*
X45160D02*
X45220D01*
X45040Y51080D02*
X45100D01*
X45160D02*
X45220D01*
X45040Y51070D02*
X45100D01*
X45160D02*
X45220D01*
X45040Y51060D02*
X45100D01*
X45160D02*
X45220D01*
X45040Y51050D02*
X45100D01*
X45160D02*
X45220D01*
X45040Y51040D02*
X45100D01*
X45160D02*
X45220D01*
X45040Y51030D02*
X45100D01*
X45160D02*
X45220D01*
X45040Y51020D02*
X45100D01*
X45160D02*
X45220D01*
X45040Y51010D02*
X45100D01*
X45160D02*
X45220D01*
X45030Y51000D02*
X45100D01*
X45160D02*
X45230D01*
X45020Y50990D02*
X45100D01*
X45160D02*
X45240D01*
X45010Y50980D02*
X45090D01*
X45170D02*
X45250D01*
X45000Y50970D02*
X45080D01*
X45180D02*
X45260D01*
X44980Y50960D02*
X45070D01*
X45170D02*
X45180D01*
X45190D02*
X45270D01*
X45180Y50950D02*
X45190D01*
X45200Y50930D02*
X45210D01*
X45040Y50840D02*
X45050D01*
Y50830D02*
X45060D01*
Y50820D02*
X45070D01*
Y50810D02*
X45080D01*
Y50800D02*
X45090D01*
X45000Y50790D02*
X45080D01*
X45190D02*
X45270D01*
X45010Y50780D02*
X45090D01*
X45180D02*
X45260D01*
X45020Y50770D02*
X45100D01*
X45170D02*
X45250D01*
X45030Y50760D02*
X45100D01*
X45170D02*
X45240D01*
X45040Y50750D02*
X45100D01*
X45170D02*
X45230D01*
X45040Y50740D02*
X45100D01*
X45170D02*
X45230D01*
X45040Y50730D02*
X45100D01*
X45170D02*
X45230D01*
X45040Y50720D02*
X45100D01*
X45170D02*
X45230D01*
X45040Y50710D02*
X45100D01*
X45170D02*
X45230D01*
X45040Y50700D02*
X45100D01*
X45170D02*
X45230D01*
X45040Y50690D02*
X45100D01*
X45170D02*
X45230D01*
X45040Y50680D02*
X45100D01*
X45170D02*
X45230D01*
X45040Y50670D02*
X45100D01*
X45170D02*
X45230D01*
X45040Y50660D02*
X45100D01*
X45170D02*
X45230D01*
X45040Y50640D02*
X45100D01*
X45170D02*
X45230D01*
X45040Y50630D02*
X45100D01*
X45170D02*
X45230D01*
X45040Y50620D02*
X45100D01*
X45170D02*
X45230D01*
X45040Y50610D02*
X45100D01*
X45170D02*
X45230D01*
X45040Y50600D02*
X45100D01*
X45170D02*
X45230D01*
X45040Y50590D02*
X45100D01*
X45170D02*
X45230D01*
X45040Y50580D02*
X45100D01*
X45170D02*
X45230D01*
X45040Y50570D02*
X45100D01*
X45170D02*
X45230D01*
X45040Y50560D02*
X45100D01*
X45170D02*
X45230D01*
X45040Y50550D02*
X45100D01*
X45170D02*
X45230D01*
X45040Y50540D02*
X45100D01*
X45170D02*
X45230D01*
X45040Y50530D02*
X45100D01*
X45170D02*
X45230D01*
X45040Y50520D02*
X45100D01*
X45170D02*
X45230D01*
X45040Y50510D02*
X45100D01*
X45170D02*
X45230D01*
X45040Y50500D02*
X45100D01*
X45170D02*
X45230D01*
X45040Y50490D02*
X45100D01*
X45170D02*
X45230D01*
X45040Y50480D02*
X45100D01*
X45170D02*
X45230D01*
X45040Y50470D02*
X45100D01*
X45170D02*
X45230D01*
X45040Y50460D02*
X45100D01*
X45170D02*
X45230D01*
X45410D02*
X45490D01*
X45040Y50450D02*
X45100D01*
X45170D02*
X45230D01*
X45400D02*
X45480D01*
X45040Y50440D02*
X45100D01*
X45170D02*
X45230D01*
X45390D02*
X45470D01*
X45480D02*
X45490D01*
X45040Y50430D02*
X45100D01*
X45170D02*
X45230D01*
X45380D02*
X45460D01*
X45470D02*
X45480D01*
X45040Y50420D02*
X45100D01*
X45170D02*
X45230D01*
X45370D02*
X45450D01*
X45460D02*
X45470D01*
X45040Y50410D02*
X45100D01*
X45170D02*
X45230D01*
X45360D02*
X45440D01*
X45450D02*
X45460D01*
X45040Y50400D02*
X45100D01*
X45170D02*
X45230D01*
X45350D02*
X45430D01*
X45440D02*
X45450D01*
X45040Y50390D02*
X45100D01*
X45170D02*
X45230D01*
X45340D02*
X45420D01*
X45430D02*
X45440D01*
X45040Y50380D02*
X45100D01*
X45170D02*
X45230D01*
X45330D02*
X45410D01*
X45420D02*
X45430D01*
X45040Y50370D02*
X45100D01*
X45170D02*
X45230D01*
X45320D02*
X45400D01*
X45410D02*
X45420D01*
X45040Y50360D02*
X45100D01*
X45170D02*
X45230D01*
X45310D02*
X45390D01*
X45040Y50350D02*
X45100D01*
X45170D02*
X45230D01*
X45300D02*
X45380D01*
X45050Y50340D02*
X45100D01*
X45170D02*
X45230D01*
X45290D02*
X45370D01*
X45040Y50330D02*
X45100D01*
X45170D02*
X45230D01*
X45280D02*
X45360D01*
X45040Y50320D02*
X45100D01*
X45170D02*
X45230D01*
X45270D02*
X45350D01*
X45040Y50310D02*
X45100D01*
X45170D02*
X45230D01*
X45260D02*
X45340D01*
X45040Y50300D02*
X45100D01*
X45170D02*
X45230D01*
X45250D02*
X45330D01*
X45040Y50290D02*
X45100D01*
X45170D02*
X45230D01*
X45240D02*
X45320D01*
X45040Y50280D02*
X45100D01*
X45170D02*
X45310D01*
X45040Y50270D02*
X45100D01*
X45170D02*
X45300D01*
X45040Y50260D02*
X45100D01*
X45170D02*
X45290D01*
X45040Y50250D02*
X45100D01*
X45170D02*
X45280D01*
X45040Y50240D02*
X45100D01*
X45170D02*
X45270D01*
X45040Y50230D02*
X45100D01*
X45170D02*
X45260D01*
X45030Y50220D02*
X45100D01*
X45170D02*
X45250D01*
X45020Y50210D02*
X45100D01*
X45170D02*
X45240D01*
X45010Y50200D02*
X45090D01*
X45170D02*
X45230D01*
X45000Y50190D02*
X45080D01*
X45180D02*
X45220D01*
X45190Y50180D02*
X45210D01*
X45220Y50130D02*
X45230D01*
X45040Y50060D02*
X45050D01*
X45210D02*
X45220D01*
X45050Y50050D02*
X45060D01*
X45200D02*
X45210D01*
X45060Y50040D02*
X45070D01*
X45190D02*
X45200D01*
X45070Y50030D02*
X45080D01*
Y50020D02*
X45090D01*
X45170D02*
X45180D01*
X45170Y49400D02*
X45180D01*
X45190Y49380D02*
X45200D01*
X45210Y49360D02*
X45220D01*
X44400Y51620D02*
X44410D01*
X44390Y51610D02*
X44400D01*
X44370Y51590D02*
X44380D01*
X44360Y51580D02*
X44370D01*
Y51570D02*
X44450D01*
X44360Y51560D02*
X44440D01*
X44350Y51550D02*
X44430D01*
X44350Y51540D02*
X44420D01*
X44350Y51530D02*
X44410D01*
X44350Y51520D02*
X44410D01*
X44350Y51510D02*
X44410D01*
X44350Y51500D02*
X44410D01*
X44350Y51490D02*
X44410D01*
X44350Y51480D02*
X44410D01*
X44350Y51470D02*
X44410D01*
X44350Y51460D02*
X44410D01*
X44350Y51440D02*
X44410D01*
X44350Y51430D02*
X44410D01*
X44350Y51420D02*
X44410D01*
X44350Y51410D02*
X44410D01*
X44350Y51400D02*
X44410D01*
X44350Y51390D02*
X44410D01*
X44350Y51380D02*
X44410D01*
X44350Y51370D02*
X44410D01*
X44350Y51360D02*
X44410D01*
X44350Y51350D02*
X44410D01*
X44350Y51340D02*
X44410D01*
X44350Y51330D02*
X44410D01*
X44350Y51320D02*
X44410D01*
X44350Y51310D02*
X44410D01*
X44350Y51300D02*
X44410D01*
X44350Y51290D02*
X44410D01*
X44350Y51280D02*
X44410D01*
X44350Y51270D02*
X44410D01*
X44350Y51260D02*
X44410D01*
X44350Y51250D02*
X44410D01*
X44350Y51240D02*
X44410D01*
X44350Y51230D02*
X44410D01*
X44350Y51220D02*
X44410D01*
X44350Y51210D02*
X44410D01*
X44350Y51200D02*
X44410D01*
X44350Y51190D02*
X44410D01*
X44350Y51180D02*
X44410D01*
X44350Y51170D02*
X44410D01*
X44350Y51160D02*
X44410D01*
X44350Y51150D02*
X44410D01*
X44350Y51140D02*
X44410D01*
X44350Y51130D02*
X44410D01*
X44350Y51120D02*
X44410D01*
X44350Y51110D02*
X44410D01*
X44350Y51100D02*
X44410D01*
X44350Y51090D02*
X44410D01*
X44350Y51080D02*
X44410D01*
X44350Y51070D02*
X44410D01*
X44350Y51060D02*
X44410D01*
X44350Y51050D02*
X44410D01*
X44350Y51040D02*
X44410D01*
X44350Y51030D02*
X44410D01*
X44350Y51020D02*
X44410D01*
X44350Y51010D02*
X44410D01*
X44350Y51000D02*
X44420D01*
X44350Y50990D02*
X44430D01*
X44360Y50980D02*
X44440D01*
X44370Y50970D02*
X44450D01*
X44380Y50960D02*
X44460D01*
X44390Y50830D02*
X44400D01*
X44380Y50820D02*
X44390D01*
X44370Y50810D02*
X44380D01*
X44360Y50800D02*
X44370D01*
Y50790D02*
X44450D01*
X44360Y50780D02*
X44440D01*
X44350Y50770D02*
X44430D01*
X44350Y50760D02*
X44420D01*
X44350Y50750D02*
X44410D01*
X44350Y50740D02*
X44410D01*
X44350Y50730D02*
X44410D01*
X44350Y50720D02*
X44410D01*
X44350Y50710D02*
X44410D01*
X44350Y50700D02*
X44410D01*
X44350Y50690D02*
X44410D01*
X44350Y50680D02*
X44410D01*
X44350Y50670D02*
X44410D01*
X44350Y50660D02*
X44410D01*
X44350Y50640D02*
X44410D01*
X44350Y50630D02*
X44410D01*
X44350Y50620D02*
X44410D01*
X44350Y50610D02*
X44410D01*
X44350Y50600D02*
X44410D01*
X44350Y50590D02*
X44410D01*
X44350Y50580D02*
X44410D01*
X44350Y50570D02*
X44410D01*
X44350Y50560D02*
X44410D01*
X44350Y50550D02*
X44410D01*
X44350Y50540D02*
X44410D01*
X44350Y50530D02*
X44410D01*
X44350Y50520D02*
X44410D01*
X44350Y50510D02*
X44410D01*
X44350Y50500D02*
X44410D01*
X44350Y50490D02*
X44410D01*
X44350Y50480D02*
X44410D01*
X44350Y50470D02*
X44410D01*
X44350Y50460D02*
X44410D01*
X44350Y50450D02*
X44410D01*
X44350Y50440D02*
X44410D01*
X44350Y50430D02*
X44410D01*
X44350Y50420D02*
X44410D01*
X44350Y50410D02*
X44410D01*
X44350Y50400D02*
X44410D01*
X44350Y50390D02*
X44410D01*
X44350Y50380D02*
X44410D01*
X44350Y50370D02*
X44410D01*
X44350Y50360D02*
X44410D01*
X44350Y50350D02*
X44410D01*
X44350Y50340D02*
X44410D01*
X44350Y50330D02*
X44410D01*
X44350Y50320D02*
X44410D01*
X44350Y50310D02*
X44410D01*
X44350Y50300D02*
X44410D01*
X44350Y50290D02*
X44410D01*
X44350Y50280D02*
X44410D01*
X44350Y50270D02*
X44410D01*
X44350Y50260D02*
X44410D01*
X44350Y50250D02*
X44410D01*
X44350Y50240D02*
X44410D01*
X44350Y50230D02*
X44410D01*
X44350Y50220D02*
X44420D01*
X44350Y50210D02*
X44430D01*
X44360Y50200D02*
X44440D01*
X44370Y50190D02*
X44450D01*
X44400Y50060D02*
X44410D01*
X44390Y50050D02*
X44400D01*
X44380Y50040D02*
X44390D01*
X44360Y50020D02*
X44370D01*
D17*
X50930Y49760D02*
X50970D01*
X47690D02*
X47730D01*
D18*
X34500Y13200D02*
Y13800D01*
X34700Y13600D01*
X34899Y13800D01*
Y13200D01*
X35199D02*
X35399D01*
X35499Y13300D01*
Y13500D01*
X35399Y13600D01*
X35199D01*
X35099Y13500D01*
Y13300D01*
X35199Y13200D01*
X35799Y13700D02*
Y13600D01*
X35699D01*
X35899D01*
X35799D01*
Y13300D01*
X35899Y13200D01*
X36299D02*
X36499D01*
X36599Y13300D01*
Y13500D01*
X36499Y13600D01*
X36299D01*
X36199Y13500D01*
Y13300D01*
X36299Y13200D01*
X36799Y13600D02*
Y13200D01*
Y13400D01*
X36899Y13500D01*
X36999Y13600D01*
X37099D01*
X33700Y12500D02*
X33600Y12600D01*
X33400D01*
X33300Y12500D01*
Y12100D01*
X33400Y12000D01*
X33600D01*
X33700Y12100D01*
X34000Y12000D02*
X34200D01*
X34300Y12100D01*
Y12300D01*
X34200Y12400D01*
X34000D01*
X33900Y12300D01*
Y12100D01*
X34000Y12000D01*
X34500D02*
Y12400D01*
X34800D01*
X34899Y12300D01*
Y12000D01*
X35199Y12500D02*
Y12400D01*
X35099D01*
X35299D01*
X35199D01*
Y12100D01*
X35299Y12000D01*
X35599Y12400D02*
Y12000D01*
Y12200D01*
X35699Y12300D01*
X35799Y12400D01*
X35899D01*
X36299Y12000D02*
X36499D01*
X36599Y12100D01*
Y12300D01*
X36499Y12400D01*
X36299D01*
X36199Y12300D01*
Y12100D01*
X36299Y12000D01*
X36799D02*
X36999D01*
X36899D01*
Y12600D01*
X36799D01*
X37299Y12000D02*
X37499D01*
X37399D01*
Y12600D01*
X37299D01*
X38098Y12000D02*
X37899D01*
X37799Y12100D01*
Y12300D01*
X37899Y12400D01*
X38098D01*
X38198Y12300D01*
Y12200D01*
X37799D01*
X38398Y12400D02*
Y12000D01*
Y12200D01*
X38498Y12300D01*
X38598Y12400D01*
X38698D01*
X17600Y15300D02*
Y15900D01*
X17900D01*
X18000Y15800D01*
Y15600D01*
X17900Y15500D01*
X17600D01*
X17800D02*
X18000Y15300D01*
X18200Y15900D02*
X18400D01*
X18300D01*
Y15300D01*
X18200D01*
X18400D01*
X19100Y15800D02*
X19000Y15900D01*
X18800D01*
X18700Y15800D01*
Y15400D01*
X18800Y15300D01*
X19000D01*
X19100Y15400D01*
Y15600D01*
X18900D01*
X19299Y15900D02*
Y15300D01*
Y15600D01*
X19699D01*
Y15900D01*
Y15300D01*
X19899Y15900D02*
X20299D01*
X20099D01*
Y15300D01*
X43050Y13000D02*
X42650D01*
Y12400D01*
X43050D01*
X42650Y12700D02*
X42850D01*
X43650Y12800D02*
X43350D01*
X43250Y12700D01*
Y12500D01*
X43350Y12400D01*
X43650D01*
X43950D02*
X44150D01*
X44249Y12500D01*
Y12700D01*
X44150Y12800D01*
X43950D01*
X43850Y12700D01*
Y12500D01*
X43950Y12400D01*
X15150Y12150D02*
Y12750D01*
X15450D01*
X15550Y12650D01*
Y12450D01*
X15450Y12350D01*
X15150D01*
X15850Y12150D02*
X16050D01*
X16150Y12250D01*
Y12450D01*
X16050Y12550D01*
X15850D01*
X15750Y12450D01*
Y12250D01*
X15850Y12150D01*
X16350Y12550D02*
Y12250D01*
X16450Y12150D01*
X16550Y12250D01*
X16650Y12150D01*
X16749Y12250D01*
Y12550D01*
X17249Y12150D02*
X17049D01*
X16949Y12250D01*
Y12450D01*
X17049Y12550D01*
X17249D01*
X17349Y12450D01*
Y12350D01*
X16949D01*
X17549Y12550D02*
Y12150D01*
Y12350D01*
X17649Y12450D01*
X17749Y12550D01*
X17849D01*
X6900Y12750D02*
X6800Y12850D01*
X6600D01*
X6500Y12750D01*
Y12650D01*
X6600Y12550D01*
X6800D01*
X6900Y12450D01*
Y12350D01*
X6800Y12250D01*
X6600D01*
X6500Y12350D01*
X7200Y12750D02*
Y12650D01*
X7100D01*
X7300D01*
X7200D01*
Y12350D01*
X7300Y12250D01*
X7700Y12650D02*
X7900D01*
X8000Y12550D01*
Y12250D01*
X7700D01*
X7600Y12350D01*
X7700Y12450D01*
X8000D01*
X8199Y12250D02*
Y12650D01*
X8499D01*
X8599Y12550D01*
Y12250D01*
X9199Y12850D02*
Y12250D01*
X8899D01*
X8799Y12350D01*
Y12550D01*
X8899Y12650D01*
X9199D01*
X9399Y12850D02*
Y12250D01*
X9699D01*
X9799Y12350D01*
Y12450D01*
Y12550D01*
X9699Y12650D01*
X9399D01*
X9999D02*
Y12350D01*
X10099Y12250D01*
X10399D01*
Y12150D01*
X10299Y12050D01*
X10199D01*
X10399Y12250D02*
Y12650D01*
X8750Y15800D02*
Y15200D01*
X9150D01*
X9750Y15800D02*
X9350D01*
Y15200D01*
X9750D01*
X9350Y15500D02*
X9550D01*
X10349Y15800D02*
X9950D01*
Y15500D01*
X10150D01*
X9950D01*
Y15200D01*
X10549Y15800D02*
X10949D01*
X10749D01*
Y15200D01*
X49800Y34850D02*
Y35450D01*
X50100D01*
X50200Y35350D01*
Y35150D01*
X50100Y35050D01*
X49800D01*
X50000D02*
X50200Y34850D01*
X50700D02*
X50500D01*
X50400Y34950D01*
Y35150D01*
X50500Y35250D01*
X50700D01*
X50800Y35150D01*
Y35050D01*
X50400D01*
X51200Y34650D02*
X51300D01*
X51399Y34750D01*
Y35250D01*
X51100D01*
X51000Y35150D01*
Y34950D01*
X51100Y34850D01*
X51399D01*
X51899D02*
X51699D01*
X51599Y34950D01*
Y35150D01*
X51699Y35250D01*
X51899D01*
X51999Y35150D01*
Y35050D01*
X51599D01*
X52199Y34850D02*
Y35250D01*
X52499D01*
X52599Y35150D01*
Y34850D01*
X53399Y35450D02*
Y34850D01*
X53699D01*
X53799Y34950D01*
Y35050D01*
X53699Y35150D01*
X53399D01*
X53699D01*
X53799Y35250D01*
Y35350D01*
X53699Y35450D01*
X53399D01*
X53999Y35250D02*
Y34850D01*
Y35050D01*
X54099Y35150D01*
X54199Y35250D01*
X54299D01*
X54698D02*
X54898D01*
X54998Y35150D01*
Y34850D01*
X54698D01*
X54598Y34950D01*
X54698Y35050D01*
X54998D01*
X55198Y34850D02*
Y35450D01*
Y35050D02*
X55498Y35250D01*
X55198Y35050D02*
X55498Y34850D01*
X55798D02*
X55998D01*
X55898D01*
Y35250D01*
X55798D01*
X56298Y34850D02*
Y35250D01*
X56598D01*
X56698Y35150D01*
Y34850D01*
X57098Y34650D02*
X57198D01*
X57298Y34750D01*
Y35250D01*
X56998D01*
X56898Y35150D01*
Y34950D01*
X56998Y34850D01*
X57298D01*
X42900Y38500D02*
Y39100D01*
X43200D01*
X43300Y39000D01*
Y38800D01*
X43200Y38700D01*
X42900D01*
X43100D02*
X43300Y38500D01*
X43800D02*
X43600D01*
X43500Y38600D01*
Y38800D01*
X43600Y38900D01*
X43800D01*
X43900Y38800D01*
Y38700D01*
X43500D01*
X44100Y38900D02*
X44300Y38500D01*
X44499Y38900D01*
X44999Y38500D02*
X44799D01*
X44699Y38600D01*
Y38800D01*
X44799Y38900D01*
X44999D01*
X45099Y38800D01*
Y38700D01*
X44699D01*
X45299Y38900D02*
Y38500D01*
Y38700D01*
X45399Y38800D01*
X45499Y38900D01*
X45599D01*
X45899Y38500D02*
X46199D01*
X46299Y38600D01*
X46199Y38700D01*
X45999D01*
X45899Y38800D01*
X45999Y38900D01*
X46299D01*
X46799Y38500D02*
X46599D01*
X46499Y38600D01*
Y38800D01*
X46599Y38900D01*
X46799D01*
X46899Y38800D01*
Y38700D01*
X46499D01*
X24550Y12900D02*
Y12300D01*
X24950D01*
X25250Y12700D02*
X25450D01*
X25550Y12600D01*
Y12300D01*
X25250D01*
X25150Y12400D01*
X25250Y12500D01*
X25550D01*
X25850Y12800D02*
Y12700D01*
X25750D01*
X25950D01*
X25850D01*
Y12400D01*
X25950Y12300D01*
X26649Y12700D02*
X26349D01*
X26249Y12600D01*
Y12400D01*
X26349Y12300D01*
X26649D01*
X26849Y12900D02*
Y12300D01*
Y12600D01*
X26949Y12700D01*
X27149D01*
X27249Y12600D01*
Y12300D01*
X-6801Y22950D02*
Y22350D01*
X-6401D01*
X-5901D02*
X-6101D01*
X-6201Y22450D01*
Y22650D01*
X-6101Y22750D01*
X-5901D01*
X-5801Y22650D01*
Y22550D01*
X-6201D01*
X-5501Y22350D02*
Y22850D01*
Y22650D01*
X-5601D01*
X-5401D01*
X-5501D01*
Y22850D01*
X-5401Y22950D01*
X-5001Y22850D02*
Y22750D01*
X-5101D01*
X-4901D01*
X-5001D01*
Y22450D01*
X-4901Y22350D01*
X-7001Y21650D02*
X-7101Y21750D01*
X-7301D01*
X-7401Y21650D01*
Y21550D01*
X-7301Y21450D01*
X-7101D01*
X-7001Y21350D01*
Y21250D01*
X-7101Y21150D01*
X-7301D01*
X-7401Y21250D01*
X-6801Y21150D02*
X-6601D01*
X-6701D01*
Y21550D01*
X-6801D01*
X-6101Y20950D02*
X-6001D01*
X-5901Y21050D01*
Y21550D01*
X-6201D01*
X-6301Y21450D01*
Y21250D01*
X-6201Y21150D01*
X-5901D01*
X-5701D02*
Y21550D01*
X-5401D01*
X-5301Y21450D01*
Y21150D01*
X-5001Y21550D02*
X-4801D01*
X-4701Y21450D01*
Y21150D01*
X-5001D01*
X-5101Y21250D01*
X-5001Y21350D01*
X-4701D01*
X-4501Y21150D02*
X-4302D01*
X-4402D01*
Y21750D01*
X-4501D01*
X-250Y18400D02*
Y17800D01*
Y18100D01*
X150D01*
Y18400D01*
Y17800D01*
X450D02*
X650D01*
X750Y17900D01*
Y18100D01*
X650Y18200D01*
X450D01*
X350Y18100D01*
Y17900D01*
X450Y17800D01*
X950Y18200D02*
Y17800D01*
Y18000D01*
X1050Y18100D01*
X1150Y18200D01*
X1250D01*
X1549Y17800D02*
Y18200D01*
X1849D01*
X1949Y18100D01*
Y17800D01*
X57000Y22500D02*
Y23099D01*
X57299D01*
X57399Y22999D01*
Y22800D01*
X57299Y22700D01*
X57000D01*
X57199D02*
X57399Y22500D01*
X57599D02*
X57799D01*
X57699D01*
Y22900D01*
X57599D01*
X58299Y22300D02*
X58399D01*
X58499Y22400D01*
Y22900D01*
X58199D01*
X58099Y22800D01*
Y22600D01*
X58199Y22500D01*
X58499D01*
X58699Y23099D02*
Y22500D01*
Y22800D01*
X58799Y22900D01*
X58999D01*
X59099Y22800D01*
Y22500D01*
X59399Y22999D02*
Y22900D01*
X59299D01*
X59499D01*
X59399D01*
Y22600D01*
X59499Y22500D01*
X57099Y21600D02*
X57000Y21700D01*
X56800D01*
X56700Y21600D01*
Y21500D01*
X56800Y21400D01*
X57000D01*
X57099Y21300D01*
Y21200D01*
X57000Y21100D01*
X56800D01*
X56700Y21200D01*
X57299Y21100D02*
X57499D01*
X57399D01*
Y21500D01*
X57299D01*
X57999Y20900D02*
X58099D01*
X58199Y21000D01*
Y21500D01*
X57899D01*
X57799Y21400D01*
Y21200D01*
X57899Y21100D01*
X58199D01*
X58399D02*
Y21500D01*
X58699D01*
X58799Y21400D01*
Y21100D01*
X59099Y21500D02*
X59299D01*
X59399Y21400D01*
Y21100D01*
X59099D01*
X58999Y21200D01*
X59099Y21300D01*
X59399D01*
X59599Y21100D02*
X59799D01*
X59699D01*
Y21700D01*
X59599D01*
X-3800Y31850D02*
X-3900Y31950D01*
X-4100D01*
X-4200Y31850D01*
Y31450D01*
X-4100Y31350D01*
X-3900D01*
X-3800Y31450D01*
X-3600Y31750D02*
Y31350D01*
Y31550D01*
X-3500Y31650D01*
X-3400Y31750D01*
X-3300D01*
X-3000D02*
Y31450D01*
X-2900Y31350D01*
X-2601D01*
Y31750D01*
X-2401Y31350D02*
X-2201D01*
X-2301D01*
Y31750D01*
X-2401D01*
X-1901Y31350D02*
X-1601D01*
X-1501Y31450D01*
X-1601Y31550D01*
X-1801D01*
X-1901Y31650D01*
X-1801Y31750D01*
X-1501D01*
X-1001Y31350D02*
X-1201D01*
X-1301Y31450D01*
Y31650D01*
X-1201Y31750D01*
X-1001D01*
X-901Y31650D01*
Y31550D01*
X-1301D01*
X-101Y31650D02*
X299D01*
X-3850Y33100D02*
X-3950Y33200D01*
X-4150D01*
X-4250Y33100D01*
Y32700D01*
X-4150Y32600D01*
X-3950D01*
X-3850Y32700D01*
X-3650Y33000D02*
Y32600D01*
Y32800D01*
X-3550Y32900D01*
X-3450Y33000D01*
X-3350D01*
X-3050D02*
Y32700D01*
X-2950Y32600D01*
X-2651D01*
Y33000D01*
X-2451Y32600D02*
X-2251D01*
X-2351D01*
Y33000D01*
X-2451D01*
X-1951Y32600D02*
X-1651D01*
X-1551Y32700D01*
X-1651Y32800D01*
X-1851D01*
X-1951Y32900D01*
X-1851Y33000D01*
X-1551D01*
X-1051Y32600D02*
X-1251D01*
X-1351Y32700D01*
Y32900D01*
X-1251Y33000D01*
X-1051D01*
X-951Y32900D01*
Y32800D01*
X-1351D01*
X-151Y32900D02*
X249D01*
X49Y33100D02*
Y32700D01*
X2350Y37650D02*
X2250Y37750D01*
X2050D01*
X1950Y37650D01*
Y37250D01*
X2050Y37150D01*
X2250D01*
X2350Y37250D01*
X2550Y37550D02*
Y37150D01*
Y37350D01*
X2650Y37450D01*
X2750Y37550D01*
X2850D01*
X3150D02*
Y37250D01*
X3250Y37150D01*
X3549D01*
Y37550D01*
X3749Y37150D02*
X3949D01*
X3849D01*
Y37550D01*
X3749D01*
X4249Y37150D02*
X4549D01*
X4649Y37250D01*
X4549Y37350D01*
X4349D01*
X4249Y37450D01*
X4349Y37550D01*
X4649D01*
X5149Y37150D02*
X4949D01*
X4849Y37250D01*
Y37450D01*
X4949Y37550D01*
X5149D01*
X5249Y37450D01*
Y37350D01*
X4849D01*
X6449Y37650D02*
X6349Y37750D01*
X6149D01*
X6049Y37650D01*
Y37250D01*
X6149Y37150D01*
X6349D01*
X6449Y37250D01*
X6748Y37150D02*
X6948D01*
X7048Y37250D01*
Y37450D01*
X6948Y37550D01*
X6748D01*
X6648Y37450D01*
Y37250D01*
X6748Y37150D01*
X7248D02*
Y37550D01*
X7548D01*
X7648Y37450D01*
Y37150D01*
X7948Y37650D02*
Y37550D01*
X7848D01*
X8048D01*
X7948D01*
Y37250D01*
X8048Y37150D01*
X8348Y37550D02*
Y37150D01*
Y37350D01*
X8448Y37450D01*
X8548Y37550D01*
X8648D01*
X9048Y37150D02*
X9248D01*
X9348Y37250D01*
Y37450D01*
X9248Y37550D01*
X9048D01*
X8948Y37450D01*
Y37250D01*
X9048Y37150D01*
X9548D02*
X9747D01*
X9648D01*
Y37750D01*
X9548D01*
X49450Y18850D02*
Y18250D01*
Y18550D01*
X49850D01*
Y18850D01*
Y18250D01*
X50150Y18650D02*
X50350D01*
X50450Y18550D01*
Y18250D01*
X50150D01*
X50050Y18350D01*
X50150Y18450D01*
X50450D01*
X50650Y18650D02*
X51049D01*
X50650Y18250D01*
X51049D01*
X51349Y18650D02*
X51549D01*
X51649Y18550D01*
Y18250D01*
X51349D01*
X51249Y18350D01*
X51349Y18450D01*
X51649D01*
X51849Y18650D02*
Y18250D01*
Y18450D01*
X51949Y18550D01*
X52049Y18650D01*
X52149D01*
X52849Y18850D02*
Y18250D01*
X52549D01*
X52449Y18350D01*
Y18550D01*
X52549Y18650D01*
X52849D01*
X53049Y18250D02*
X53349D01*
X53449Y18350D01*
X53349Y18450D01*
X53149D01*
X53049Y18550D01*
X53149Y18650D01*
X53449D01*
X42150Y28850D02*
Y28250D01*
Y28550D01*
X42550D01*
Y28850D01*
Y28250D01*
X43050D02*
X42850D01*
X42750Y28350D01*
Y28550D01*
X42850Y28650D01*
X43050D01*
X43150Y28550D01*
Y28450D01*
X42750D01*
X43450Y28650D02*
X43650D01*
X43749Y28550D01*
Y28250D01*
X43450D01*
X43350Y28350D01*
X43450Y28450D01*
X43749D01*
X44349Y28850D02*
Y28250D01*
X44049D01*
X43949Y28350D01*
Y28550D01*
X44049Y28650D01*
X44349D01*
X44549Y28250D02*
X44749D01*
X44649D01*
Y28850D01*
X44549D01*
X45049Y28250D02*
X45249D01*
X45149D01*
Y28650D01*
X45049D01*
X45749Y28050D02*
X45849D01*
X45949Y28150D01*
Y28650D01*
X45649D01*
X45549Y28550D01*
Y28350D01*
X45649Y28250D01*
X45949D01*
X46149Y28850D02*
Y28250D01*
Y28550D01*
X46249Y28650D01*
X46449D01*
X46549Y28550D01*
Y28250D01*
X46848Y28750D02*
Y28650D01*
X46749D01*
X46948D01*
X46848D01*
Y28350D01*
X46948Y28250D01*
X47248D02*
X47548D01*
X47648Y28350D01*
X47548Y28450D01*
X47348D01*
X47248Y28550D01*
X47348Y28650D01*
X47648D01*
D19*
X39383Y50800D02*
X39050D01*
X39383Y51133D01*
Y51217D01*
X39300Y51300D01*
X39133D01*
X39050Y51217D01*
X39550D02*
X39633Y51300D01*
X39800D01*
X39883Y51217D01*
Y50883D01*
X39800Y50800D01*
X39633D01*
X39550Y50883D01*
Y51217D01*
X39050Y49800D02*
X39217D01*
X39133D01*
Y50300D01*
X39050Y50217D01*
X39467D02*
X39550Y50300D01*
X39716D01*
X39800Y50217D01*
Y49883D01*
X39716Y49800D01*
X39550D01*
X39467Y49883D01*
Y50217D01*
X28650Y50800D02*
X28817D01*
X28733D01*
Y51300D01*
X28650Y51217D01*
X28250Y50800D02*
X28417D01*
X28333D01*
Y51300D01*
X28250Y51217D01*
X28650Y49600D02*
X28817D01*
X28733D01*
Y50100D01*
X28650Y50017D01*
D20*
X29044Y35580D02*
X29008Y35616D01*
X28936D01*
X28900Y35580D01*
Y35544D01*
X28936Y35508D01*
X29008D01*
X29044Y35472D01*
Y35436D01*
X29008Y35400D01*
X28936D01*
X28900Y35436D01*
X29116Y35616D02*
X29261D01*
X29189D01*
Y35400D01*
X29333D02*
Y35616D01*
X29405Y35544D01*
X29477Y35616D01*
Y35400D01*
X29658D02*
Y35616D01*
X29549Y35508D01*
X29694D01*
X29910Y35616D02*
X29838Y35580D01*
X29766Y35508D01*
Y35436D01*
X29802Y35400D01*
X29874D01*
X29910Y35436D01*
Y35472D01*
X29874Y35508D01*
X29766D01*
X29044Y35080D02*
X29008Y35116D01*
X28936D01*
X28900Y35080D01*
Y34936D01*
X28936Y34900D01*
X29008D01*
X29044Y34936D01*
Y35008D01*
X28972D01*
X29116Y34900D02*
Y35116D01*
X29261Y34900D01*
Y35116D01*
X29333D02*
Y34900D01*
X29441D01*
X29477Y34936D01*
Y35080D01*
X29441Y35116D01*
X29333D01*
X29044Y34616D02*
X28900D01*
Y34508D01*
X28972Y34544D01*
X29008D01*
X29044Y34508D01*
Y34436D01*
X29008Y34400D01*
X28936D01*
X28900Y34436D01*
X29116Y34616D02*
Y34472D01*
X29189Y34400D01*
X29261Y34472D01*
Y34616D01*
X29549D02*
Y34472D01*
X29622Y34400D01*
X29694Y34472D01*
Y34616D01*
X29910Y34580D02*
X29874Y34616D01*
X29802D01*
X29766Y34580D01*
Y34436D01*
X29802Y34400D01*
X29874D01*
X29910Y34436D01*
X30127Y34580D02*
X30091Y34616D01*
X30018D01*
X29982Y34580D01*
Y34436D01*
X30018Y34400D01*
X30091D01*
X30127Y34436D01*
X33300Y33850D02*
Y34066D01*
X33444Y33850D01*
Y34066D01*
X33661Y34030D02*
X33625Y34066D01*
X33553D01*
X33516Y34030D01*
Y33886D01*
X33553Y33850D01*
X33625D01*
X33661Y33886D01*
X33444Y34530D02*
X33408Y34566D01*
X33336D01*
X33300Y34530D01*
Y34386D01*
X33336Y34350D01*
X33408D01*
X33444Y34386D01*
X33516Y34350D02*
Y34494D01*
X33589Y34566D01*
X33661Y34494D01*
Y34350D01*
Y34458D01*
X33516D01*
X33733Y34350D02*
Y34566D01*
X33877Y34350D01*
Y34566D01*
X33949D02*
Y34350D01*
X34094D01*
X33444Y35030D02*
X33408Y35066D01*
X33336D01*
X33300Y35030D01*
Y34886D01*
X33336Y34850D01*
X33408D01*
X33444Y34886D01*
X33516Y34850D02*
Y34994D01*
X33589Y35066D01*
X33661Y34994D01*
Y34850D01*
Y34958D01*
X33516D01*
X33733Y34850D02*
Y35066D01*
X33877Y34850D01*
Y35066D01*
X33949D02*
Y34850D01*
Y34958D01*
X34094D01*
Y35066D01*
Y34850D01*
X33444Y35530D02*
X33408Y35566D01*
X33336D01*
X33300Y35530D01*
Y35386D01*
X33336Y35350D01*
X33408D01*
X33444Y35386D01*
Y35458D01*
X33372D01*
X33516Y35350D02*
Y35566D01*
X33661Y35350D01*
Y35566D01*
X33733D02*
Y35350D01*
X33841D01*
X33877Y35386D01*
Y35530D01*
X33841Y35566D01*
X33733D01*
X29044Y34080D02*
X29008Y34116D01*
X28936D01*
X28900Y34080D01*
Y34044D01*
X28936Y34008D01*
X29008D01*
X29044Y33972D01*
Y33936D01*
X29008Y33900D01*
X28936D01*
X28900Y33936D01*
X29116Y34116D02*
X29261D01*
X29189D01*
Y33900D01*
X29333D02*
Y34116D01*
X29405Y34044D01*
X29477Y34116D01*
Y33900D01*
X29658D02*
Y34116D01*
X29549Y34008D01*
X29694D01*
X29910Y34116D02*
X29766D01*
Y34008D01*
X29838Y34044D01*
X29874D01*
X29910Y34008D01*
Y33936D01*
X29874Y33900D01*
X29802D01*
X29766Y33936D01*
M02*
