G04*
G04 #@! TF.GenerationSoftware,Altium Limited,Altium Designer,19.1.5 (86)*
G04*
G04 Layer_Color=8421504*
%FSLAX24Y24*%
%MOIN*%
G70*
G01*
G75*
%ADD21R,0.0417X0.0701*%
%ADD22R,0.0701X0.0417*%
%ADD23R,0.0402X0.0717*%
%ADD24R,0.0717X0.0402*%
%ADD25R,0.0610X0.0630*%
%ADD26R,0.0118X0.0571*%
%ADD27R,0.0571X0.0118*%
%ADD28O,0.0571X0.0236*%
D21*
X23265Y28350D02*
D03*
X24335D02*
D03*
X20785Y29250D02*
D03*
X19715D02*
D03*
X20985Y35800D02*
D03*
X19915D02*
D03*
D22*
X18150Y31665D02*
D03*
Y32735D02*
D03*
X26850Y33033D02*
D03*
Y34104D02*
D03*
D23*
X23249Y29250D02*
D03*
X24351D02*
D03*
X20801Y28350D02*
D03*
X19699D02*
D03*
X21001Y36750D02*
D03*
X19899D02*
D03*
D24*
X19100Y31649D02*
D03*
Y32751D02*
D03*
X25950Y32999D02*
D03*
Y34101D02*
D03*
D25*
X23304Y9434D02*
D03*
X28796D02*
D03*
X23304Y7466D02*
D03*
X28796D02*
D03*
X3104Y33184D02*
D03*
X8596D02*
D03*
X3104Y31216D02*
D03*
X8596D02*
D03*
X3546Y13616D02*
D03*
X-1946D02*
D03*
X3546Y15584D02*
D03*
X-1946D02*
D03*
X56746Y29416D02*
D03*
X51254D02*
D03*
X56746Y31384D02*
D03*
X51254D02*
D03*
X54096Y12666D02*
D03*
X48604D02*
D03*
X54096Y14634D02*
D03*
X48604D02*
D03*
X-4646Y28984D02*
D03*
X846D02*
D03*
X-4646Y27016D02*
D03*
X846D02*
D03*
X-4646Y37384D02*
D03*
X846D02*
D03*
X-4646Y35416D02*
D03*
X846D02*
D03*
D26*
X20974Y34814D02*
D03*
X21170D02*
D03*
X21367D02*
D03*
X21564D02*
D03*
X21761D02*
D03*
X21958D02*
D03*
X22155D02*
D03*
X22352D02*
D03*
X22548D02*
D03*
X22745D02*
D03*
X22942D02*
D03*
X23139D02*
D03*
X23336D02*
D03*
X23533D02*
D03*
X23730D02*
D03*
X23926D02*
D03*
Y30286D02*
D03*
X23730D02*
D03*
X23533D02*
D03*
X23336D02*
D03*
X23139D02*
D03*
X22942D02*
D03*
X22745D02*
D03*
X22548D02*
D03*
X22352D02*
D03*
X22155D02*
D03*
X21958D02*
D03*
X21761D02*
D03*
X21564D02*
D03*
X21367D02*
D03*
X21170D02*
D03*
X20974D02*
D03*
D27*
X24714Y34026D02*
D03*
Y33830D02*
D03*
Y33633D02*
D03*
Y33436D02*
D03*
Y33239D02*
D03*
Y33042D02*
D03*
Y32845D02*
D03*
Y32648D02*
D03*
Y32452D02*
D03*
Y32255D02*
D03*
Y32058D02*
D03*
Y31861D02*
D03*
Y31664D02*
D03*
Y31467D02*
D03*
Y31270D02*
D03*
Y31074D02*
D03*
X20186D02*
D03*
Y31270D02*
D03*
Y31467D02*
D03*
Y31664D02*
D03*
Y31861D02*
D03*
Y32058D02*
D03*
Y32255D02*
D03*
Y32452D02*
D03*
Y32648D02*
D03*
Y32845D02*
D03*
Y33042D02*
D03*
Y33239D02*
D03*
Y33436D02*
D03*
Y33633D02*
D03*
Y33830D02*
D03*
Y34026D02*
D03*
D28*
X32723Y33950D02*
D03*
Y34450D02*
D03*
Y34950D02*
D03*
Y35450D02*
D03*
X30577Y33950D02*
D03*
Y34450D02*
D03*
Y34950D02*
D03*
Y35450D02*
D03*
M02*
