G04*
G04 #@! TF.GenerationSoftware,Altium Limited,Altium Designer,19.1.5 (86)*
G04*
G04 Layer_Color=255*
%FSLAX25Y25*%
%MOIN*%
G70*
G01*
G75*
%ADD17R,0.06890X0.06299*%
%ADD18R,0.05472X0.03583*%
%ADD19R,0.02362X0.02441*%
%ADD20R,0.03701X0.05630*%
%ADD21R,0.05630X0.03701*%
%ADD22R,0.02441X0.02362*%
%ADD23R,0.02362X0.04724*%
%ADD24R,0.01772X0.05433*%
%ADD25R,0.05807X0.08268*%
%ADD26R,0.04626X0.07480*%
%ADD27R,0.09350X0.07480*%
%ADD28R,0.01575X0.01575*%
%ADD29R,0.02362X0.04921*%
%ADD30R,0.06299X0.06890*%
%ADD31R,0.05709X0.03937*%
%ADD32R,0.06004X0.02559*%
%ADD33R,0.10236X0.12205*%
%ADD34R,0.11221X0.12205*%
%ADD35R,0.05787X0.03819*%
%ADD36R,0.03347X0.04134*%
%ADD37R,0.09055X0.06299*%
%ADD38R,0.03150X0.03937*%
%ADD39R,0.03937X0.03150*%
%ADD40R,0.07087X0.04724*%
%ADD41R,0.05807X0.01181*%
%ADD42R,0.01181X0.05807*%
%ADD43R,0.01181X0.03150*%
%ADD44R,0.03150X0.01181*%
%ADD45R,0.11024X0.11024*%
%ADD92R,0.05000X0.05000*%
%ADD93C,0.05000*%
%ADD94C,0.06500*%
%ADD95C,0.06378*%
%ADD96C,0.05197*%
%ADD97C,0.06319*%
%ADD98C,0.06004*%
%ADD99C,0.04724*%
%ADD100C,0.05906*%
%ADD101R,0.05906X0.05906*%
%ADD102C,0.05512*%
D17*
X379500Y223921D02*
D03*
Y214079D02*
D03*
Y183516D02*
D03*
Y173673D02*
D03*
D18*
X166380Y250228D02*
D03*
Y243772D02*
D03*
D19*
X120189Y153000D02*
D03*
X123811D02*
D03*
X157689Y159500D02*
D03*
X161311D02*
D03*
X132811Y237500D02*
D03*
X129189D02*
D03*
D20*
X119272Y159500D02*
D03*
X125728D02*
D03*
X156272Y152500D02*
D03*
X162728D02*
D03*
X134228Y230500D02*
D03*
X127772D02*
D03*
D21*
X180500Y210272D02*
D03*
Y216728D02*
D03*
X248000Y13228D02*
D03*
Y6772D02*
D03*
D22*
X173500Y210189D02*
D03*
Y213811D02*
D03*
D23*
X189740Y272421D02*
D03*
X186000D02*
D03*
X182260D02*
D03*
Y262579D02*
D03*
X186000D02*
D03*
X189740D02*
D03*
D24*
X212368Y291028D02*
D03*
X209809D02*
D03*
X207250D02*
D03*
X204691D02*
D03*
X202132D02*
D03*
D25*
X197594Y292445D02*
D03*
X216905D02*
D03*
D26*
X210547Y301500D02*
D03*
X203953D02*
D03*
D27*
X218717D02*
D03*
X195783D02*
D03*
D28*
X139150Y129547D02*
D03*
Y131516D02*
D03*
Y133484D02*
D03*
Y135453D02*
D03*
X136984D02*
D03*
X135016D02*
D03*
X132850D02*
D03*
Y133484D02*
D03*
Y131516D02*
D03*
Y129547D02*
D03*
X135016D02*
D03*
X136984D02*
D03*
D29*
X308260Y27366D02*
D03*
X315740D02*
D03*
X312000Y35634D02*
D03*
D30*
X337421Y28500D02*
D03*
X327579D02*
D03*
X337921Y7500D02*
D03*
X328079D02*
D03*
D31*
X291500Y49260D02*
D03*
Y56740D02*
D03*
D32*
X258323Y37500D02*
D03*
Y32500D02*
D03*
Y27500D02*
D03*
Y22500D02*
D03*
X279677D02*
D03*
Y27500D02*
D03*
Y32500D02*
D03*
Y37500D02*
D03*
X81323Y190500D02*
D03*
Y185500D02*
D03*
Y180500D02*
D03*
Y175500D02*
D03*
X102677D02*
D03*
Y180500D02*
D03*
Y185500D02*
D03*
Y190500D02*
D03*
X80823Y158000D02*
D03*
Y153000D02*
D03*
Y148000D02*
D03*
Y143000D02*
D03*
X102177D02*
D03*
Y148000D02*
D03*
Y153000D02*
D03*
Y158000D02*
D03*
X192823Y205000D02*
D03*
Y200000D02*
D03*
Y195000D02*
D03*
Y190000D02*
D03*
X214177D02*
D03*
Y195000D02*
D03*
Y200000D02*
D03*
Y205000D02*
D03*
D33*
X269000Y30000D02*
D03*
D34*
X220173Y44000D02*
D03*
X241827D02*
D03*
D35*
X291500Y32768D02*
D03*
Y26232D02*
D03*
D36*
X312000Y53413D02*
D03*
Y67587D02*
D03*
D37*
X236500Y10000D02*
D03*
X219177D02*
D03*
D38*
X316650Y7500D02*
D03*
X310350D02*
D03*
D39*
X204000Y7850D02*
D03*
Y14150D02*
D03*
X227500Y194850D02*
D03*
Y201150D02*
D03*
D40*
X205500Y44905D02*
D03*
Y33094D02*
D03*
D41*
X120659Y205764D02*
D03*
Y203795D02*
D03*
Y201827D02*
D03*
Y199858D02*
D03*
Y197890D02*
D03*
Y195921D02*
D03*
Y193953D02*
D03*
Y191984D02*
D03*
Y190016D02*
D03*
Y188047D02*
D03*
Y186079D02*
D03*
Y184110D02*
D03*
Y182142D02*
D03*
Y180173D02*
D03*
Y178205D02*
D03*
Y176236D02*
D03*
X165841D02*
D03*
Y178205D02*
D03*
Y180173D02*
D03*
Y182142D02*
D03*
Y184110D02*
D03*
Y186079D02*
D03*
Y188047D02*
D03*
Y190016D02*
D03*
Y191984D02*
D03*
Y193953D02*
D03*
Y195921D02*
D03*
Y197890D02*
D03*
Y199858D02*
D03*
Y201827D02*
D03*
Y203795D02*
D03*
Y205764D02*
D03*
D42*
X128486Y168409D02*
D03*
X130455D02*
D03*
X132423D02*
D03*
X134392D02*
D03*
X136360D02*
D03*
X138329D02*
D03*
X140297D02*
D03*
X142266D02*
D03*
X144234D02*
D03*
X146203D02*
D03*
X148171D02*
D03*
X150140D02*
D03*
X152108D02*
D03*
X154077D02*
D03*
X156045D02*
D03*
X158014D02*
D03*
Y213591D02*
D03*
X156045D02*
D03*
X154077D02*
D03*
X152108D02*
D03*
X150140D02*
D03*
X148171D02*
D03*
X146203D02*
D03*
X144234D02*
D03*
X142266D02*
D03*
X140297D02*
D03*
X138329D02*
D03*
X136360D02*
D03*
X134392D02*
D03*
X132423D02*
D03*
X130455D02*
D03*
X128486D02*
D03*
D43*
X190547Y246295D02*
D03*
X188579D02*
D03*
X186610D02*
D03*
X184642D02*
D03*
X182673D02*
D03*
X180705D02*
D03*
Y230547D02*
D03*
X182673D02*
D03*
X184642D02*
D03*
X186610D02*
D03*
X188579D02*
D03*
X190547D02*
D03*
D44*
X177752Y243342D02*
D03*
Y241374D02*
D03*
Y239405D02*
D03*
Y237437D02*
D03*
Y235469D02*
D03*
Y233500D02*
D03*
X193500D02*
D03*
Y235469D02*
D03*
Y237437D02*
D03*
Y239405D02*
D03*
Y241374D02*
D03*
Y243342D02*
D03*
D45*
X185626Y238421D02*
D03*
D92*
X61561Y230288D02*
D03*
X352900D02*
D03*
D93*
X61561Y80682D02*
D03*
Y143674D02*
D03*
Y88556D02*
D03*
Y96430D02*
D03*
Y151548D02*
D03*
Y112178D02*
D03*
Y127926D02*
D03*
Y135800D02*
D03*
Y120052D02*
D03*
Y104304D02*
D03*
Y159422D02*
D03*
Y167296D02*
D03*
Y222414D02*
D03*
Y183044D02*
D03*
Y198792D02*
D03*
Y206666D02*
D03*
Y214540D02*
D03*
Y190918D02*
D03*
Y175170D02*
D03*
X352900Y80682D02*
D03*
Y143674D02*
D03*
Y88556D02*
D03*
Y96430D02*
D03*
Y151548D02*
D03*
Y112178D02*
D03*
Y127926D02*
D03*
Y135800D02*
D03*
Y120052D02*
D03*
Y104304D02*
D03*
Y159422D02*
D03*
Y167296D02*
D03*
Y222414D02*
D03*
Y183044D02*
D03*
Y198792D02*
D03*
Y206666D02*
D03*
Y214540D02*
D03*
Y190918D02*
D03*
Y175170D02*
D03*
D94*
X39700Y249300D02*
D03*
Y61700D02*
D03*
X374700D02*
D03*
Y249300D02*
D03*
D95*
X401000Y122689D02*
D03*
Y134500D02*
D03*
X401000Y172689D02*
D03*
Y184500D02*
D03*
Y222689D02*
D03*
Y234500D02*
D03*
X13500Y134500D02*
D03*
Y122689D02*
D03*
Y184500D02*
D03*
Y172689D02*
D03*
X13500Y234500D02*
D03*
Y222689D02*
D03*
Y285000D02*
D03*
Y273189D02*
D03*
X401000Y273189D02*
D03*
Y285000D02*
D03*
X13500Y34405D02*
D03*
Y22594D02*
D03*
X13500Y84500D02*
D03*
Y72689D02*
D03*
X144000Y34405D02*
D03*
Y22594D02*
D03*
X100500Y34405D02*
D03*
Y22594D02*
D03*
X57000Y34405D02*
D03*
Y22594D02*
D03*
X401000D02*
D03*
Y34405D02*
D03*
Y72689D02*
D03*
Y84500D02*
D03*
D96*
X393284Y146311D02*
D03*
Y110878D02*
D03*
X393284Y196311D02*
D03*
Y160878D02*
D03*
Y246311D02*
D03*
Y210878D02*
D03*
X21216Y110878D02*
D03*
Y146311D02*
D03*
Y160878D02*
D03*
Y196311D02*
D03*
X21216Y210878D02*
D03*
Y246311D02*
D03*
Y261378D02*
D03*
Y296811D02*
D03*
X393284Y296811D02*
D03*
Y261378D02*
D03*
X21216Y10784D02*
D03*
Y46216D02*
D03*
X21216Y60878D02*
D03*
Y96311D02*
D03*
X151716Y10784D02*
D03*
Y46216D02*
D03*
X108217Y10784D02*
D03*
Y46216D02*
D03*
X64717Y10784D02*
D03*
Y46216D02*
D03*
X393284D02*
D03*
Y10784D02*
D03*
Y96311D02*
D03*
Y60878D02*
D03*
D97*
X268000Y274500D02*
D03*
X279811D02*
D03*
X291622D02*
D03*
X303433D02*
D03*
X315244D02*
D03*
X327055D02*
D03*
X338866D02*
D03*
X350677D02*
D03*
X362488D02*
D03*
X51812D02*
D03*
X63623D02*
D03*
X75435D02*
D03*
X87246D02*
D03*
X99057D02*
D03*
X110868D02*
D03*
X122679D02*
D03*
X134490D02*
D03*
X146301D02*
D03*
D98*
X276465Y291508D02*
D03*
X354024D02*
D03*
X60277D02*
D03*
X137836D02*
D03*
D99*
X179500Y43500D02*
D03*
Y13500D02*
D03*
D100*
X311000Y248000D02*
D03*
X301000D02*
D03*
X291000D02*
D03*
X281000D02*
D03*
X271000D02*
D03*
X261000D02*
D03*
X251000D02*
D03*
X241000D02*
D03*
X231000D02*
D03*
X221000D02*
D03*
X311000Y238000D02*
D03*
X301000D02*
D03*
X291000D02*
D03*
X281000D02*
D03*
X271000D02*
D03*
X261000D02*
D03*
X251000D02*
D03*
X241000D02*
D03*
X231000D02*
D03*
D101*
X221000D02*
D03*
D102*
X128000Y63500D02*
D03*
X158000D02*
D03*
X84500D02*
D03*
X114500D02*
D03*
X76800Y13500D02*
D03*
Y43500D02*
D03*
X381500Y6500D02*
D03*
Y36500D02*
D03*
Y82595D02*
D03*
Y112594D02*
D03*
M02*
