G04*
G04 #@! TF.GenerationSoftware,Altium Limited,Altium Designer,19.1.5 (86)*
G04*
G04 Layer_Color=8388736*
%FSLAX25Y25*%
%MOIN*%
G70*
G01*
G75*
%ADD46R,0.07690X0.07099*%
%ADD47R,0.06272X0.04383*%
%ADD48R,0.03162X0.03241*%
%ADD49R,0.04501X0.06430*%
%ADD50R,0.06430X0.04501*%
%ADD51R,0.03241X0.03162*%
%ADD52R,0.03162X0.05524*%
%ADD53R,0.02572X0.06233*%
%ADD54R,0.06607X0.09068*%
%ADD55R,0.05426X0.08280*%
%ADD56R,0.10150X0.08280*%
%ADD57R,0.02375X0.02375*%
%ADD58R,0.03162X0.05721*%
%ADD59R,0.07099X0.07690*%
%ADD60R,0.06509X0.04737*%
%ADD61R,0.06804X0.03359*%
%ADD62R,0.11036X0.13005*%
%ADD63R,0.12020X0.13005*%
%ADD64R,0.06587X0.04619*%
%ADD65R,0.04147X0.04934*%
%ADD66R,0.09855X0.07099*%
%ADD67R,0.03950X0.04737*%
%ADD68R,0.04737X0.03950*%
%ADD69R,0.07887X0.05524*%
%ADD70R,0.06607X0.01981*%
%ADD71R,0.01981X0.06607*%
%ADD72R,0.01981X0.03950*%
%ADD73R,0.03950X0.01981*%
%ADD74R,0.11824X0.11824*%
%ADD75R,0.05800X0.05800*%
%ADD76C,0.05800*%
%ADD77C,0.07300*%
%ADD78C,0.07178*%
%ADD79C,0.05997*%
%ADD80C,0.07119*%
%ADD81C,0.06804*%
%ADD82C,0.05524*%
%ADD83C,0.06706*%
%ADD84R,0.06706X0.06706*%
%ADD85C,0.06312*%
%ADD86C,0.02600*%
%ADD87C,0.04800*%
%ADD88C,0.07800*%
%ADD89C,0.03300*%
D46*
X379500Y223921D02*
D03*
Y214079D02*
D03*
Y183516D02*
D03*
Y173673D02*
D03*
D47*
X166380Y250228D02*
D03*
Y243772D02*
D03*
D48*
X120189Y153000D02*
D03*
X123811D02*
D03*
X157689Y159500D02*
D03*
X161311D02*
D03*
X132811Y237500D02*
D03*
X129189D02*
D03*
D49*
X119272Y159500D02*
D03*
X125728D02*
D03*
X156272Y152500D02*
D03*
X162728D02*
D03*
X134228Y230500D02*
D03*
X127772D02*
D03*
D50*
X180500Y210272D02*
D03*
Y216728D02*
D03*
X248000Y13228D02*
D03*
Y6772D02*
D03*
D51*
X173500Y210189D02*
D03*
Y213811D02*
D03*
D52*
X189740Y272421D02*
D03*
X186000D02*
D03*
X182260D02*
D03*
Y262579D02*
D03*
X186000D02*
D03*
X189740D02*
D03*
D53*
X212368Y291028D02*
D03*
X209809D02*
D03*
X207250D02*
D03*
X204691D02*
D03*
X202132D02*
D03*
D54*
X197594Y292445D02*
D03*
X216905D02*
D03*
D55*
X210547Y301500D02*
D03*
X203953D02*
D03*
D56*
X218717D02*
D03*
X195783D02*
D03*
D57*
X139150Y129547D02*
D03*
Y131516D02*
D03*
Y133484D02*
D03*
Y135453D02*
D03*
X136984D02*
D03*
X135016D02*
D03*
X132850D02*
D03*
Y133484D02*
D03*
Y131516D02*
D03*
Y129547D02*
D03*
X135016D02*
D03*
X136984D02*
D03*
D58*
X308260Y27366D02*
D03*
X315740D02*
D03*
X312000Y35634D02*
D03*
D59*
X337421Y28500D02*
D03*
X327579D02*
D03*
X337921Y7500D02*
D03*
X328079D02*
D03*
D60*
X291500Y49260D02*
D03*
Y56740D02*
D03*
D61*
X258323Y37500D02*
D03*
Y32500D02*
D03*
Y27500D02*
D03*
Y22500D02*
D03*
X279677D02*
D03*
Y27500D02*
D03*
Y32500D02*
D03*
Y37500D02*
D03*
X81323Y190500D02*
D03*
Y185500D02*
D03*
Y180500D02*
D03*
Y175500D02*
D03*
X102677D02*
D03*
Y180500D02*
D03*
Y185500D02*
D03*
Y190500D02*
D03*
X80823Y158000D02*
D03*
Y153000D02*
D03*
Y148000D02*
D03*
Y143000D02*
D03*
X102177D02*
D03*
Y148000D02*
D03*
Y153000D02*
D03*
Y158000D02*
D03*
X192823Y205000D02*
D03*
Y200000D02*
D03*
Y195000D02*
D03*
Y190000D02*
D03*
X214177D02*
D03*
Y195000D02*
D03*
Y200000D02*
D03*
Y205000D02*
D03*
D62*
X269000Y30000D02*
D03*
D63*
X220173Y44000D02*
D03*
X241827D02*
D03*
D64*
X291500Y32768D02*
D03*
Y26232D02*
D03*
D65*
X312000Y53413D02*
D03*
Y67587D02*
D03*
D66*
X236500Y10000D02*
D03*
X219177D02*
D03*
D67*
X316650Y7500D02*
D03*
X310350D02*
D03*
D68*
X204000Y7850D02*
D03*
Y14150D02*
D03*
X227500Y194850D02*
D03*
Y201150D02*
D03*
D69*
X205500Y44905D02*
D03*
Y33094D02*
D03*
D70*
X120659Y205764D02*
D03*
Y203795D02*
D03*
Y201827D02*
D03*
Y199858D02*
D03*
Y197890D02*
D03*
Y195921D02*
D03*
Y193953D02*
D03*
Y191984D02*
D03*
Y190016D02*
D03*
Y188047D02*
D03*
Y186079D02*
D03*
Y184110D02*
D03*
Y182142D02*
D03*
Y180173D02*
D03*
Y178205D02*
D03*
Y176236D02*
D03*
X165841D02*
D03*
Y178205D02*
D03*
Y180173D02*
D03*
Y182142D02*
D03*
Y184110D02*
D03*
Y186079D02*
D03*
Y188047D02*
D03*
Y190016D02*
D03*
Y191984D02*
D03*
Y193953D02*
D03*
Y195921D02*
D03*
Y197890D02*
D03*
Y199858D02*
D03*
Y201827D02*
D03*
Y203795D02*
D03*
Y205764D02*
D03*
D71*
X128486Y168409D02*
D03*
X130455D02*
D03*
X132423D02*
D03*
X134392D02*
D03*
X136360D02*
D03*
X138329D02*
D03*
X140297D02*
D03*
X142266D02*
D03*
X144234D02*
D03*
X146203D02*
D03*
X148171D02*
D03*
X150140D02*
D03*
X152108D02*
D03*
X154077D02*
D03*
X156045D02*
D03*
X158014D02*
D03*
Y213591D02*
D03*
X156045D02*
D03*
X154077D02*
D03*
X152108D02*
D03*
X150140D02*
D03*
X148171D02*
D03*
X146203D02*
D03*
X144234D02*
D03*
X142266D02*
D03*
X140297D02*
D03*
X138329D02*
D03*
X136360D02*
D03*
X134392D02*
D03*
X132423D02*
D03*
X130455D02*
D03*
X128486D02*
D03*
D72*
X190547Y246295D02*
D03*
X188579D02*
D03*
X186610D02*
D03*
X184642D02*
D03*
X182673D02*
D03*
X180705D02*
D03*
Y230547D02*
D03*
X182673D02*
D03*
X184642D02*
D03*
X186610D02*
D03*
X188579D02*
D03*
X190547D02*
D03*
D73*
X177752Y243342D02*
D03*
Y241374D02*
D03*
Y239405D02*
D03*
Y237437D02*
D03*
Y235469D02*
D03*
Y233500D02*
D03*
X193500D02*
D03*
Y235469D02*
D03*
Y237437D02*
D03*
Y239405D02*
D03*
Y241374D02*
D03*
Y243342D02*
D03*
D74*
X185626Y238421D02*
D03*
D75*
X61561Y230288D02*
D03*
X352900D02*
D03*
D76*
X61561Y80682D02*
D03*
Y143674D02*
D03*
Y88556D02*
D03*
Y96430D02*
D03*
Y151548D02*
D03*
Y112178D02*
D03*
Y127926D02*
D03*
Y135800D02*
D03*
Y120052D02*
D03*
Y104304D02*
D03*
Y159422D02*
D03*
Y167296D02*
D03*
Y222414D02*
D03*
Y183044D02*
D03*
Y198792D02*
D03*
Y206666D02*
D03*
Y214540D02*
D03*
Y190918D02*
D03*
Y175170D02*
D03*
X352900Y80682D02*
D03*
Y143674D02*
D03*
Y88556D02*
D03*
Y96430D02*
D03*
Y151548D02*
D03*
Y112178D02*
D03*
Y127926D02*
D03*
Y135800D02*
D03*
Y120052D02*
D03*
Y104304D02*
D03*
Y159422D02*
D03*
Y167296D02*
D03*
Y222414D02*
D03*
Y183044D02*
D03*
Y198792D02*
D03*
Y206666D02*
D03*
Y214540D02*
D03*
Y190918D02*
D03*
Y175170D02*
D03*
D77*
X39700Y249300D02*
D03*
Y61700D02*
D03*
X374700D02*
D03*
Y249300D02*
D03*
D78*
X401000Y122689D02*
D03*
Y134500D02*
D03*
X401000Y172689D02*
D03*
Y184500D02*
D03*
Y222689D02*
D03*
Y234500D02*
D03*
X13500Y134500D02*
D03*
Y122689D02*
D03*
Y184500D02*
D03*
Y172689D02*
D03*
X13500Y234500D02*
D03*
Y222689D02*
D03*
Y285000D02*
D03*
Y273189D02*
D03*
X401000Y273189D02*
D03*
Y285000D02*
D03*
X13500Y34405D02*
D03*
Y22594D02*
D03*
X13500Y84500D02*
D03*
Y72689D02*
D03*
X144000Y34405D02*
D03*
Y22594D02*
D03*
X100500Y34405D02*
D03*
Y22594D02*
D03*
X57000Y34405D02*
D03*
Y22594D02*
D03*
X401000D02*
D03*
Y34405D02*
D03*
Y72689D02*
D03*
Y84500D02*
D03*
D79*
X393284Y146311D02*
D03*
Y110878D02*
D03*
X393284Y196311D02*
D03*
Y160878D02*
D03*
Y246311D02*
D03*
Y210878D02*
D03*
X21216Y110878D02*
D03*
Y146311D02*
D03*
Y160878D02*
D03*
Y196311D02*
D03*
X21216Y210878D02*
D03*
Y246311D02*
D03*
Y261378D02*
D03*
Y296811D02*
D03*
X393284Y296811D02*
D03*
Y261378D02*
D03*
X21216Y10784D02*
D03*
Y46216D02*
D03*
X21216Y60878D02*
D03*
Y96311D02*
D03*
X151716Y10784D02*
D03*
Y46216D02*
D03*
X108217Y10784D02*
D03*
Y46216D02*
D03*
X64717Y10784D02*
D03*
Y46216D02*
D03*
X393284D02*
D03*
Y10784D02*
D03*
Y96311D02*
D03*
Y60878D02*
D03*
D80*
X268000Y274500D02*
D03*
X279811D02*
D03*
X291622D02*
D03*
X303433D02*
D03*
X315244D02*
D03*
X327055D02*
D03*
X338866D02*
D03*
X350677D02*
D03*
X362488D02*
D03*
X51812D02*
D03*
X63623D02*
D03*
X75435D02*
D03*
X87246D02*
D03*
X99057D02*
D03*
X110868D02*
D03*
X122679D02*
D03*
X134490D02*
D03*
X146301D02*
D03*
D81*
X276465Y291508D02*
D03*
X354024D02*
D03*
X60277D02*
D03*
X137836D02*
D03*
D82*
X179500Y43500D02*
D03*
Y13500D02*
D03*
D83*
X311000Y248000D02*
D03*
X301000D02*
D03*
X291000D02*
D03*
X281000D02*
D03*
X271000D02*
D03*
X261000D02*
D03*
X251000D02*
D03*
X241000D02*
D03*
X231000D02*
D03*
X221000D02*
D03*
X311000Y238000D02*
D03*
X301000D02*
D03*
X291000D02*
D03*
X281000D02*
D03*
X271000D02*
D03*
X261000D02*
D03*
X251000D02*
D03*
X241000D02*
D03*
X231000D02*
D03*
D84*
X221000D02*
D03*
D85*
X128000Y63500D02*
D03*
X158000D02*
D03*
X84500D02*
D03*
X114500D02*
D03*
X76800Y13500D02*
D03*
Y43500D02*
D03*
X381500Y6500D02*
D03*
Y36500D02*
D03*
Y82595D02*
D03*
Y112594D02*
D03*
D86*
X163000Y146500D02*
D03*
X172500Y251000D02*
D03*
X401000Y199500D02*
D03*
Y249500D02*
D03*
X25500Y287500D02*
D03*
X13500Y250000D02*
D03*
Y200000D02*
D03*
Y149500D02*
D03*
Y100000D02*
D03*
X26000Y34000D02*
D03*
X186500Y217000D02*
D03*
X124000Y219000D02*
D03*
Y146500D02*
D03*
X102000Y163000D02*
D03*
X126500Y131500D02*
D03*
X98500Y197000D02*
D03*
X110444Y124556D02*
D03*
X118500Y104500D02*
D03*
X203000D02*
D03*
X220500D02*
D03*
X251000Y159500D02*
D03*
X233500Y186000D02*
D03*
X238000D02*
D03*
X242500D02*
D03*
X233500Y214000D02*
D03*
X242500D02*
D03*
X238000D02*
D03*
X192500Y224500D02*
D03*
X187500Y226500D02*
D03*
X167000Y220000D02*
D03*
X172000Y182500D02*
D03*
Y188500D02*
D03*
X115000Y145000D02*
D03*
X99400Y169750D02*
D03*
X219500Y88500D02*
D03*
X133500Y154500D02*
D03*
Y158500D02*
D03*
X125500Y127000D02*
D03*
X112500Y203000D02*
D03*
X110000Y199500D02*
D03*
X107500Y195500D02*
D03*
X115000Y194000D02*
D03*
X103000Y195250D02*
D03*
X95500Y203500D02*
D03*
X92000D02*
D03*
X88500D02*
D03*
X81000Y167500D02*
D03*
X142000Y126500D02*
D03*
X223000Y120000D02*
D03*
X322500Y67500D02*
D03*
X303500Y256500D02*
D03*
X74000Y153000D02*
D03*
X129000Y124000D02*
D03*
X146000Y223000D02*
D03*
D87*
X186000Y197500D02*
D03*
X401000Y152500D02*
D03*
D88*
X353000Y28500D02*
D03*
D89*
X196000Y256500D02*
D03*
X185500D02*
D03*
M02*
