G04*
G04 #@! TF.GenerationSoftware,Altium Limited,Altium Designer,19.1.5 (86)*
G04*
G04 Layer_Color=16711935*
%FSLAX25Y25*%
%MOIN*%
G70*
G01*
G75*
%ADD75R,0.05800X0.05800*%
%ADD76C,0.05800*%
%ADD77C,0.07300*%
%ADD78C,0.07178*%
%ADD79C,0.05997*%
%ADD80C,0.07119*%
%ADD81C,0.06804*%
%ADD82C,0.05524*%
%ADD83C,0.06706*%
%ADD84R,0.06706X0.06706*%
%ADD85C,0.06312*%
%ADD86C,0.02600*%
%ADD87C,0.04800*%
%ADD88C,0.07800*%
%ADD89C,0.03300*%
D75*
X61561Y230288D02*
D03*
X352900D02*
D03*
D76*
X61561Y80682D02*
D03*
Y143674D02*
D03*
Y88556D02*
D03*
Y96430D02*
D03*
Y151548D02*
D03*
Y112178D02*
D03*
Y127926D02*
D03*
Y135800D02*
D03*
Y120052D02*
D03*
Y104304D02*
D03*
Y159422D02*
D03*
Y167296D02*
D03*
Y222414D02*
D03*
Y183044D02*
D03*
Y198792D02*
D03*
Y206666D02*
D03*
Y214540D02*
D03*
Y190918D02*
D03*
Y175170D02*
D03*
X352900Y80682D02*
D03*
Y143674D02*
D03*
Y88556D02*
D03*
Y96430D02*
D03*
Y151548D02*
D03*
Y112178D02*
D03*
Y127926D02*
D03*
Y135800D02*
D03*
Y120052D02*
D03*
Y104304D02*
D03*
Y159422D02*
D03*
Y167296D02*
D03*
Y222414D02*
D03*
Y183044D02*
D03*
Y198792D02*
D03*
Y206666D02*
D03*
Y214540D02*
D03*
Y190918D02*
D03*
Y175170D02*
D03*
D77*
X39700Y249300D02*
D03*
Y61700D02*
D03*
X374700D02*
D03*
Y249300D02*
D03*
D78*
X401000Y122689D02*
D03*
Y134500D02*
D03*
X401000Y172689D02*
D03*
Y184500D02*
D03*
Y222689D02*
D03*
Y234500D02*
D03*
X13500Y134500D02*
D03*
Y122689D02*
D03*
Y184500D02*
D03*
Y172689D02*
D03*
X13500Y234500D02*
D03*
Y222689D02*
D03*
Y285000D02*
D03*
Y273189D02*
D03*
X401000Y273189D02*
D03*
Y285000D02*
D03*
X13500Y34405D02*
D03*
Y22594D02*
D03*
X13500Y84500D02*
D03*
Y72689D02*
D03*
X144000Y34405D02*
D03*
Y22594D02*
D03*
X100500Y34405D02*
D03*
Y22594D02*
D03*
X57000Y34405D02*
D03*
Y22594D02*
D03*
X401000D02*
D03*
Y34405D02*
D03*
Y72689D02*
D03*
Y84500D02*
D03*
D79*
X393284Y146311D02*
D03*
Y110878D02*
D03*
X393284Y196311D02*
D03*
Y160878D02*
D03*
Y246311D02*
D03*
Y210878D02*
D03*
X21216Y110878D02*
D03*
Y146311D02*
D03*
Y160878D02*
D03*
Y196311D02*
D03*
X21216Y210878D02*
D03*
Y246311D02*
D03*
Y261378D02*
D03*
Y296811D02*
D03*
X393284Y296811D02*
D03*
Y261378D02*
D03*
X21216Y10784D02*
D03*
Y46216D02*
D03*
X21216Y60878D02*
D03*
Y96311D02*
D03*
X151716Y10784D02*
D03*
Y46216D02*
D03*
X108217Y10784D02*
D03*
Y46216D02*
D03*
X64717Y10784D02*
D03*
Y46216D02*
D03*
X393284D02*
D03*
Y10784D02*
D03*
Y96311D02*
D03*
Y60878D02*
D03*
D80*
X268000Y274500D02*
D03*
X279811D02*
D03*
X291622D02*
D03*
X303433D02*
D03*
X315244D02*
D03*
X327055D02*
D03*
X338866D02*
D03*
X350677D02*
D03*
X362488D02*
D03*
X51812D02*
D03*
X63623D02*
D03*
X75435D02*
D03*
X87246D02*
D03*
X99057D02*
D03*
X110868D02*
D03*
X122679D02*
D03*
X134490D02*
D03*
X146301D02*
D03*
D81*
X276465Y291508D02*
D03*
X354024D02*
D03*
X60277D02*
D03*
X137836D02*
D03*
D82*
X179500Y43500D02*
D03*
Y13500D02*
D03*
D83*
X311000Y248000D02*
D03*
X301000D02*
D03*
X291000D02*
D03*
X281000D02*
D03*
X271000D02*
D03*
X261000D02*
D03*
X251000D02*
D03*
X241000D02*
D03*
X231000D02*
D03*
X221000D02*
D03*
X311000Y238000D02*
D03*
X301000D02*
D03*
X291000D02*
D03*
X281000D02*
D03*
X271000D02*
D03*
X261000D02*
D03*
X251000D02*
D03*
X241000D02*
D03*
X231000D02*
D03*
D84*
X221000D02*
D03*
D85*
X128000Y63500D02*
D03*
X158000D02*
D03*
X84500D02*
D03*
X114500D02*
D03*
X76800Y13500D02*
D03*
Y43500D02*
D03*
X381500Y6500D02*
D03*
Y36500D02*
D03*
Y82595D02*
D03*
Y112594D02*
D03*
D86*
X163000Y146500D02*
D03*
X172500Y251000D02*
D03*
X401000Y199500D02*
D03*
Y249500D02*
D03*
X25500Y287500D02*
D03*
X13500Y250000D02*
D03*
Y200000D02*
D03*
Y149500D02*
D03*
Y100000D02*
D03*
X26000Y34000D02*
D03*
X186500Y217000D02*
D03*
X124000Y219000D02*
D03*
Y146500D02*
D03*
X102000Y163000D02*
D03*
X126500Y131500D02*
D03*
X98500Y197000D02*
D03*
X110444Y124556D02*
D03*
X118500Y104500D02*
D03*
X203000D02*
D03*
X220500D02*
D03*
X251000Y159500D02*
D03*
X233500Y186000D02*
D03*
X238000D02*
D03*
X242500D02*
D03*
X233500Y214000D02*
D03*
X242500D02*
D03*
X238000D02*
D03*
X192500Y224500D02*
D03*
X187500Y226500D02*
D03*
X167000Y220000D02*
D03*
X172000Y182500D02*
D03*
Y188500D02*
D03*
X115000Y145000D02*
D03*
X99400Y169750D02*
D03*
X219500Y88500D02*
D03*
X133500Y154500D02*
D03*
Y158500D02*
D03*
X125500Y127000D02*
D03*
X112500Y203000D02*
D03*
X110000Y199500D02*
D03*
X107500Y195500D02*
D03*
X115000Y194000D02*
D03*
X103000Y195250D02*
D03*
X95500Y203500D02*
D03*
X92000D02*
D03*
X88500D02*
D03*
X81000Y167500D02*
D03*
X142000Y126500D02*
D03*
X223000Y120000D02*
D03*
X322500Y67500D02*
D03*
X303500Y256500D02*
D03*
X74000Y153000D02*
D03*
X129000Y124000D02*
D03*
X146000Y223000D02*
D03*
D87*
X186000Y197500D02*
D03*
X401000Y152500D02*
D03*
D88*
X353000Y28500D02*
D03*
D89*
X196000Y256500D02*
D03*
X185500D02*
D03*
M02*
