G04*
G04 #@! TF.GenerationSoftware,Altium Limited,Altium Designer,19.1.5 (86)*
G04*
G04 Layer_Color=255*
%FSLAX25Y25*%
%MOIN*%
G70*
G01*
G75*
%ADD92R,0.05000X0.05000*%
%ADD93C,0.05000*%
%ADD94C,0.06500*%
%ADD95C,0.06378*%
%ADD96C,0.05197*%
%ADD97C,0.06319*%
%ADD98C,0.06004*%
%ADD99C,0.04724*%
%ADD100C,0.05906*%
%ADD101R,0.05906X0.05906*%
%ADD102C,0.05512*%
D92*
X61561Y230288D02*
D03*
X352900D02*
D03*
D93*
X61561Y80682D02*
D03*
Y143674D02*
D03*
Y88556D02*
D03*
Y96430D02*
D03*
Y151548D02*
D03*
Y112178D02*
D03*
Y127926D02*
D03*
Y135800D02*
D03*
Y120052D02*
D03*
Y104304D02*
D03*
Y159422D02*
D03*
Y167296D02*
D03*
Y222414D02*
D03*
Y183044D02*
D03*
Y198792D02*
D03*
Y206666D02*
D03*
Y214540D02*
D03*
Y190918D02*
D03*
Y175170D02*
D03*
X352900Y80682D02*
D03*
Y143674D02*
D03*
Y88556D02*
D03*
Y96430D02*
D03*
Y151548D02*
D03*
Y112178D02*
D03*
Y127926D02*
D03*
Y135800D02*
D03*
Y120052D02*
D03*
Y104304D02*
D03*
Y159422D02*
D03*
Y167296D02*
D03*
Y222414D02*
D03*
Y183044D02*
D03*
Y198792D02*
D03*
Y206666D02*
D03*
Y214540D02*
D03*
Y190918D02*
D03*
Y175170D02*
D03*
D94*
X39700Y249300D02*
D03*
Y61700D02*
D03*
X374700D02*
D03*
Y249300D02*
D03*
D95*
X401000Y122689D02*
D03*
Y134500D02*
D03*
X401000Y172689D02*
D03*
Y184500D02*
D03*
Y222689D02*
D03*
Y234500D02*
D03*
X13500Y134500D02*
D03*
Y122689D02*
D03*
Y184500D02*
D03*
Y172689D02*
D03*
X13500Y234500D02*
D03*
Y222689D02*
D03*
Y285000D02*
D03*
Y273189D02*
D03*
X401000Y273189D02*
D03*
Y285000D02*
D03*
X13500Y34405D02*
D03*
Y22594D02*
D03*
X13500Y84500D02*
D03*
Y72689D02*
D03*
X144000Y34405D02*
D03*
Y22594D02*
D03*
X100500Y34405D02*
D03*
Y22594D02*
D03*
X57000Y34405D02*
D03*
Y22594D02*
D03*
X401000D02*
D03*
Y34405D02*
D03*
Y72689D02*
D03*
Y84500D02*
D03*
D96*
X393284Y146311D02*
D03*
Y110878D02*
D03*
X393284Y196311D02*
D03*
Y160878D02*
D03*
Y246311D02*
D03*
Y210878D02*
D03*
X21216Y110878D02*
D03*
Y146311D02*
D03*
Y160878D02*
D03*
Y196311D02*
D03*
X21216Y210878D02*
D03*
Y246311D02*
D03*
Y261378D02*
D03*
Y296811D02*
D03*
X393284Y296811D02*
D03*
Y261378D02*
D03*
X21216Y10784D02*
D03*
Y46216D02*
D03*
X21216Y60878D02*
D03*
Y96311D02*
D03*
X151716Y10784D02*
D03*
Y46216D02*
D03*
X108217Y10784D02*
D03*
Y46216D02*
D03*
X64717Y10784D02*
D03*
Y46216D02*
D03*
X393284D02*
D03*
Y10784D02*
D03*
Y96311D02*
D03*
Y60878D02*
D03*
D97*
X268000Y274500D02*
D03*
X279811D02*
D03*
X291622D02*
D03*
X303433D02*
D03*
X315244D02*
D03*
X327055D02*
D03*
X338866D02*
D03*
X350677D02*
D03*
X362488D02*
D03*
X51812D02*
D03*
X63623D02*
D03*
X75435D02*
D03*
X87246D02*
D03*
X99057D02*
D03*
X110868D02*
D03*
X122679D02*
D03*
X134490D02*
D03*
X146301D02*
D03*
D98*
X276465Y291508D02*
D03*
X354024D02*
D03*
X60277D02*
D03*
X137836D02*
D03*
D99*
X179500Y43500D02*
D03*
Y13500D02*
D03*
D100*
X311000Y248000D02*
D03*
X301000D02*
D03*
X291000D02*
D03*
X281000D02*
D03*
X271000D02*
D03*
X261000D02*
D03*
X251000D02*
D03*
X241000D02*
D03*
X231000D02*
D03*
X221000D02*
D03*
X311000Y238000D02*
D03*
X301000D02*
D03*
X291000D02*
D03*
X281000D02*
D03*
X271000D02*
D03*
X261000D02*
D03*
X251000D02*
D03*
X241000D02*
D03*
X231000D02*
D03*
D101*
X221000D02*
D03*
D102*
X128000Y63500D02*
D03*
X158000D02*
D03*
X84500D02*
D03*
X114500D02*
D03*
X76800Y13500D02*
D03*
Y43500D02*
D03*
X381500Y6500D02*
D03*
Y36500D02*
D03*
Y82595D02*
D03*
Y112594D02*
D03*
M02*
