M48
;Layer_Color=9474304
;FILE_FORMAT=2:5
INCH,LZ
;TYPE=PLATED
T1F00S00C0.01000
T2F00S00C0.01200
T3F00S00C0.02000
T4F00S00C0.02756
T5F00S00C0.02800
T6F00S00C0.03346
T7F00S00C0.03543
T8F00S00C0.04213
T9F00S00C0.14173
;TYPE=NON_PLATED
T10F00S00C0.05197
T11F00S00C0.12008
%
T01
X0026Y0034
X0401Y01995
X02425Y0186
X0238
X02335
X0251Y01595
X0223Y012
X02205Y01045
X02195Y00885
X03225Y00675
X0203Y01045
X0163Y01465
X01335Y01545
Y01585
X0124Y01465
X0115Y0145
X0110444Y0124556
X01255Y0127
X01265Y01315
X0129Y0124
X0142Y01265
X01185Y01045
X0102Y0163
X00994Y016975
X0081Y01675
X0074Y0153
X00885Y02035
X0092
X00955
X00985Y0197
X0103Y019525
X01075Y01955
X011Y01995
X01125Y0203
X0115Y0194
X0172Y01885
Y01825
X00135Y02
Y01495
Y01
Y025
X00255Y02875
X0124Y0219
X0146Y0223
X0167Y022
X01865Y0217
X01875Y02265
X01925Y02245
X01725Y0251
X02335Y0214
X0238
X02425
X03035Y02565
X0401Y02495
T02
X01855Y02565
X0196
T03
X0401Y01525
X0186Y01975
T04
X01795Y00135
Y00435
X03529Y0080682
Y0088556
Y009643
Y0104304
Y0112178
Y0120052
Y0127926
Y01358
Y0143674
Y0151548
Y0159422
Y0167296
Y017517
Y0183044
Y0190918
Y0198792
Y0206666
X0061561
Y0198792
Y0190918
Y0183044
Y017517
Y0167296
Y0159422
Y0151548
Y0143674
Y01358
Y0127926
Y0120052
Y0112178
Y0104304
Y009643
Y0088556
Y0080682
Y021454
Y0222414
Y0230288
X03529
Y0222414
Y021454
T05
X0353Y00285
T06
X00768Y00135
Y00435
X03815Y00365
Y00065
Y0082595
Y0112594
X0158Y00635
X0128
X01145
X00845
T07
X0221Y0238
Y0248
X0231
X0241
X0251
X0261
X0271
X0281
X0291
X0301
X0311
Y0238
X0301
X0291
X0281
X0271
X0261
X0251
X0241
X0231
T08
X00135Y0022594
Y0034405
X0057
Y0022594
X01005
Y0034405
X0144
Y0022594
X0401
Y0034405
Y0072689
Y00845
Y0122689
Y01345
X0401Y0172689
Y01845
X00135Y01845
Y0172689
Y01345
Y0122689
Y00845
Y0072689
X00135Y0222689
Y02345
Y0273189
Y0285
X0051812Y02745
X0063623
X0075435
X0087246
X0099057
X0110868
X0122679
X013449
X0146301
X0268
X0279811
X0291622
X0303433
X0315244
X0327055
X0338866
X0350677
X0362488
X0401Y0273189
Y0285
Y02345
Y0222689
T09
X03747Y00617
X00397
Y02493
X03747
T10
X0021216Y0010784
Y0046216
X0064717
Y0010784
X0108217
Y0046216
X0151716
Y0010784
X0393284
Y0046216
Y0060878
Y0096311
Y0110878
Y0146311
X0393284Y0160878
Y0196311
Y0210878
X0021216Y0210878
X0021216Y0196311
Y0160878
Y0146311
Y0110878
Y0096311
Y0060878
X0021216Y0246311
Y0261378
Y0296811
X0393284Y0296811
Y0261378
Y0246311
T11
X0060277Y0291508
X0137836
X0276465
X0354024
M30
