G04*
G04 #@! TF.GenerationSoftware,Altium Limited,Altium Designer,19.1.5 (86)*
G04*
G04 Layer_Color=8421504*
%FSLAX25Y25*%
%MOIN*%
G70*
G01*
G75*
%ADD17R,0.06890X0.06299*%
%ADD18R,0.05472X0.03583*%
%ADD19R,0.02362X0.02441*%
%ADD20R,0.03701X0.05630*%
%ADD21R,0.05630X0.03701*%
%ADD22R,0.02441X0.02362*%
%ADD23R,0.02362X0.04724*%
%ADD24R,0.01772X0.05433*%
%ADD25R,0.05807X0.08268*%
%ADD26R,0.04626X0.07480*%
%ADD27R,0.09350X0.07480*%
%ADD28R,0.01575X0.01575*%
%ADD29R,0.02362X0.04921*%
%ADD30R,0.06299X0.06890*%
%ADD31R,0.05709X0.03937*%
%ADD32R,0.06004X0.02559*%
%ADD33R,0.10236X0.12205*%
%ADD34R,0.11221X0.12205*%
%ADD35R,0.05787X0.03819*%
%ADD36R,0.03347X0.04134*%
%ADD37R,0.09055X0.06299*%
%ADD38R,0.03150X0.03937*%
%ADD39R,0.03937X0.03150*%
%ADD40R,0.07087X0.04724*%
%ADD41R,0.05807X0.01181*%
%ADD42R,0.01181X0.05807*%
%ADD43R,0.01181X0.03150*%
%ADD44R,0.03150X0.01181*%
%ADD45R,0.11024X0.11024*%
D17*
X379500Y223921D02*
D03*
Y214079D02*
D03*
Y183516D02*
D03*
Y173673D02*
D03*
D18*
X166380Y250228D02*
D03*
Y243772D02*
D03*
D19*
X120189Y153000D02*
D03*
X123811D02*
D03*
X157689Y159500D02*
D03*
X161311D02*
D03*
X132811Y237500D02*
D03*
X129189D02*
D03*
D20*
X119272Y159500D02*
D03*
X125728D02*
D03*
X156272Y152500D02*
D03*
X162728D02*
D03*
X134228Y230500D02*
D03*
X127772D02*
D03*
D21*
X180500Y210272D02*
D03*
Y216728D02*
D03*
X248000Y13228D02*
D03*
Y6772D02*
D03*
D22*
X173500Y210189D02*
D03*
Y213811D02*
D03*
D23*
X189740Y272421D02*
D03*
X186000D02*
D03*
X182260D02*
D03*
Y262579D02*
D03*
X186000D02*
D03*
X189740D02*
D03*
D24*
X212368Y291028D02*
D03*
X209809D02*
D03*
X207250D02*
D03*
X204691D02*
D03*
X202132D02*
D03*
D25*
X197594Y292445D02*
D03*
X216905D02*
D03*
D26*
X210547Y301500D02*
D03*
X203953D02*
D03*
D27*
X218717D02*
D03*
X195783D02*
D03*
D28*
X139150Y129547D02*
D03*
Y131516D02*
D03*
Y133484D02*
D03*
Y135453D02*
D03*
X136984D02*
D03*
X135016D02*
D03*
X132850D02*
D03*
Y133484D02*
D03*
Y131516D02*
D03*
Y129547D02*
D03*
X135016D02*
D03*
X136984D02*
D03*
D29*
X308260Y27366D02*
D03*
X315740D02*
D03*
X312000Y35634D02*
D03*
D30*
X337421Y28500D02*
D03*
X327579D02*
D03*
X337921Y7500D02*
D03*
X328079D02*
D03*
D31*
X291500Y49260D02*
D03*
Y56740D02*
D03*
D32*
X258323Y37500D02*
D03*
Y32500D02*
D03*
Y27500D02*
D03*
Y22500D02*
D03*
X279677D02*
D03*
Y27500D02*
D03*
Y32500D02*
D03*
Y37500D02*
D03*
X81323Y190500D02*
D03*
Y185500D02*
D03*
Y180500D02*
D03*
Y175500D02*
D03*
X102677D02*
D03*
Y180500D02*
D03*
Y185500D02*
D03*
Y190500D02*
D03*
X80823Y158000D02*
D03*
Y153000D02*
D03*
Y148000D02*
D03*
Y143000D02*
D03*
X102177D02*
D03*
Y148000D02*
D03*
Y153000D02*
D03*
Y158000D02*
D03*
X192823Y205000D02*
D03*
Y200000D02*
D03*
Y195000D02*
D03*
Y190000D02*
D03*
X214177D02*
D03*
Y195000D02*
D03*
Y200000D02*
D03*
Y205000D02*
D03*
D33*
X269000Y30000D02*
D03*
D34*
X220173Y44000D02*
D03*
X241827D02*
D03*
D35*
X291500Y32768D02*
D03*
Y26232D02*
D03*
D36*
X312000Y53413D02*
D03*
Y67587D02*
D03*
D37*
X236500Y10000D02*
D03*
X219177D02*
D03*
D38*
X316650Y7500D02*
D03*
X310350D02*
D03*
D39*
X204000Y7850D02*
D03*
Y14150D02*
D03*
X227500Y194850D02*
D03*
Y201150D02*
D03*
D40*
X205500Y44905D02*
D03*
Y33094D02*
D03*
D41*
X120659Y205764D02*
D03*
Y203795D02*
D03*
Y201827D02*
D03*
Y199858D02*
D03*
Y197890D02*
D03*
Y195921D02*
D03*
Y193953D02*
D03*
Y191984D02*
D03*
Y190016D02*
D03*
Y188047D02*
D03*
Y186079D02*
D03*
Y184110D02*
D03*
Y182142D02*
D03*
Y180173D02*
D03*
Y178205D02*
D03*
Y176236D02*
D03*
X165841D02*
D03*
Y178205D02*
D03*
Y180173D02*
D03*
Y182142D02*
D03*
Y184110D02*
D03*
Y186079D02*
D03*
Y188047D02*
D03*
Y190016D02*
D03*
Y191984D02*
D03*
Y193953D02*
D03*
Y195921D02*
D03*
Y197890D02*
D03*
Y199858D02*
D03*
Y201827D02*
D03*
Y203795D02*
D03*
Y205764D02*
D03*
D42*
X128486Y168409D02*
D03*
X130455D02*
D03*
X132423D02*
D03*
X134392D02*
D03*
X136360D02*
D03*
X138329D02*
D03*
X140297D02*
D03*
X142266D02*
D03*
X144234D02*
D03*
X146203D02*
D03*
X148171D02*
D03*
X150140D02*
D03*
X152108D02*
D03*
X154077D02*
D03*
X156045D02*
D03*
X158014D02*
D03*
Y213591D02*
D03*
X156045D02*
D03*
X154077D02*
D03*
X152108D02*
D03*
X150140D02*
D03*
X148171D02*
D03*
X146203D02*
D03*
X144234D02*
D03*
X142266D02*
D03*
X140297D02*
D03*
X138329D02*
D03*
X136360D02*
D03*
X134392D02*
D03*
X132423D02*
D03*
X130455D02*
D03*
X128486D02*
D03*
D43*
X190547Y246295D02*
D03*
X188579D02*
D03*
X186610D02*
D03*
X184642D02*
D03*
X182673D02*
D03*
X180705D02*
D03*
Y230547D02*
D03*
X182673D02*
D03*
X184642D02*
D03*
X186610D02*
D03*
X188579D02*
D03*
X190547D02*
D03*
D44*
X177752Y243342D02*
D03*
Y241374D02*
D03*
Y239405D02*
D03*
Y237437D02*
D03*
Y235469D02*
D03*
Y233500D02*
D03*
X193500D02*
D03*
Y235469D02*
D03*
Y237437D02*
D03*
Y239405D02*
D03*
Y241374D02*
D03*
Y243342D02*
D03*
D45*
X185626Y238421D02*
D03*
M02*
