G04*
G04 #@! TF.GenerationSoftware,Altium Limited,Altium Designer,19.1.5 (86)*
G04*
G04 Layer_Color=32896*
%FSLAX25Y25*%
%MOIN*%
G70*
G01*
G75*
%ADD10C,0.00787*%
%ADD11C,0.01000*%
D10*
X65498Y76745D02*
Y234225D01*
X57624Y76745D02*
Y234225D01*
Y76745D02*
X65498D01*
X57624Y226351D02*
X65498D01*
X57624Y234225D02*
X65498D01*
X356837Y76745D02*
Y234225D01*
X348963Y76745D02*
Y234225D01*
Y76745D02*
X356837D01*
X348963Y226351D02*
X356837D01*
X348963Y234225D02*
X356837D01*
D11*
X358805Y251942D02*
G03*
X354869Y255879I-3937J0D01*
G01*
Y55091D02*
G03*
X358805Y59028I0J3937D01*
G01*
X55656D02*
G03*
X59593Y55091I3937J0D01*
G01*
Y255879D02*
G03*
X55656Y251942I0J-3937D01*
G01*
X351325Y253123D02*
X356443Y248005D01*
X346207D02*
X351325Y253123D01*
X346207Y248005D02*
X349357D01*
X353294D02*
X356443D01*
X349357Y238162D02*
X353294D01*
Y248005D01*
X349357Y238162D02*
Y248005D01*
X63530Y253123D02*
X68648Y248005D01*
X58412D02*
X63530Y253123D01*
X58412Y248005D02*
X61561D01*
X65498D02*
X68648D01*
X61561Y238162D02*
X65498D01*
Y248005D01*
X61561Y238162D02*
Y248005D01*
X354051Y248762D02*
X355686D01*
X353294Y248005D02*
X354051Y248762D01*
X347319D02*
X354051D01*
X348056Y249749D02*
X354699D01*
X349030Y250828D02*
X353620D01*
X350189Y251732D02*
X352716D01*
X350888Y252686D02*
X351762D01*
X349076Y250502D02*
X353946D01*
X349357Y248005D02*
X353294D01*
X352506Y238556D02*
Y248005D01*
X351719Y238950D02*
Y248762D01*
X350932Y238162D02*
Y248005D01*
X350144Y238162D02*
Y248762D01*
X59240Y248689D02*
X67964D01*
X60311Y249593D02*
X67060D01*
X61214Y250597D02*
X66056D01*
X62008Y251601D02*
X65052D01*
X64015Y252479D02*
X64174D01*
X63136Y251601D02*
X64015Y252479D01*
X64711Y238162D02*
Y248689D01*
X63924Y238556D02*
Y248689D01*
X63136Y238162D02*
Y248689D01*
X62349Y238950D02*
Y248689D01*
X59593Y255879D02*
X354869D01*
X358805Y59028D02*
Y251942D01*
X59593Y55091D02*
X354869D01*
X55656Y59028D02*
Y251942D01*
X72200Y265398D02*
Y259400D01*
X68201D01*
X62203Y264398D02*
X63203Y265398D01*
X65202D01*
X66202Y264398D01*
Y260400D01*
X65202Y259400D01*
X63203D01*
X62203Y260400D01*
X60204Y265398D02*
Y259400D01*
X57205D01*
X56205Y260400D01*
Y264398D01*
X57205Y265398D01*
X60204D01*
M02*
