G04*
G04 #@! TF.GenerationSoftware,Altium Limited,Altium Designer,19.1.5 (86)*
G04*
G04 Layer_Color=32768*
%FSLAX25Y25*%
%MOIN*%
G70*
G01*
G75*
%ADD15C,0.00394*%
%ADD107C,0.00197*%
D15*
X251012Y261902D02*
X379476D01*
X251012D02*
Y313555D01*
X379476D01*
Y261902D02*
Y313555D01*
X34824Y261902D02*
X163289D01*
X34824D02*
Y313555D01*
X163289D01*
Y261902D02*
Y313555D01*
D107*
X374972Y209945D02*
X384028D01*
Y228055D01*
X374972D02*
X384028D01*
X374972Y209945D02*
Y228055D01*
Y169539D02*
X384028D01*
Y187650D01*
X374972D02*
X384028D01*
X374972Y169539D02*
Y187650D01*
X163033Y241390D02*
X169726D01*
Y252610D01*
X163033D02*
X169726D01*
X163033Y241390D02*
Y252610D01*
X125583Y151189D02*
Y154811D01*
X118417D02*
X125583D01*
X118417Y151189D02*
Y154811D01*
Y151189D02*
X125583D01*
X128169Y156075D02*
Y162925D01*
X116831D02*
X128169D01*
X116831Y156075D02*
Y162925D01*
Y156075D02*
X128169D01*
X165169Y149075D02*
Y155925D01*
X153831D02*
X165169D01*
X153831Y149075D02*
Y155925D01*
Y149075D02*
X165169D01*
X163083Y157689D02*
Y161311D01*
X155917D02*
X163083D01*
X155917Y157689D02*
Y161311D01*
Y157689D02*
X163083D01*
X177075Y219169D02*
X183925D01*
X177075Y207831D02*
Y219169D01*
Y207831D02*
X183925D01*
Y219169D01*
X171689Y215583D02*
X175311D01*
X171689Y208417D02*
Y215583D01*
Y208417D02*
X175311D01*
Y215583D01*
X127417Y235689D02*
Y239311D01*
Y235689D02*
X134583D01*
Y239311D01*
X127417D02*
X134583D01*
X125331Y227075D02*
Y233925D01*
Y227075D02*
X136669D01*
Y233925D01*
X125331D02*
X136669D01*
X192988Y259232D02*
Y275768D01*
X179012Y259232D02*
X192988D01*
X179012D02*
Y275768D01*
X192988D01*
X305031Y23921D02*
Y39079D01*
X318969D01*
Y23921D02*
Y39079D01*
X305031Y23921D02*
X318969D01*
X323445Y23972D02*
X341555D01*
X323445D02*
Y33028D01*
X341555D01*
Y23972D02*
Y33028D01*
X287563Y46307D02*
Y59693D01*
X295437D01*
Y46307D02*
Y59693D01*
X287563Y46307D02*
X295437D01*
X254335Y40827D02*
X283665D01*
Y19173D02*
Y40827D01*
X254335Y19173D02*
X283665D01*
X254335D02*
Y40827D01*
X251425Y4331D02*
Y15669D01*
X244575Y4331D02*
X251425D01*
X244575D02*
Y15669D01*
X251425D01*
X213579Y58370D02*
X248421D01*
Y29630D02*
Y58370D01*
X213579Y29630D02*
X248421D01*
X213579D02*
Y58370D01*
X295004Y23732D02*
Y35268D01*
X287996Y23732D02*
X295004D01*
X287996D02*
Y35268D01*
X295004D01*
X305405Y50362D02*
Y70638D01*
X318595D01*
Y50362D02*
Y70638D01*
X305405Y50362D02*
X318595D01*
X213665Y3504D02*
X242012D01*
X213665D02*
Y16496D01*
X242012D01*
Y3504D02*
Y16496D01*
X323945Y2972D02*
X342055D01*
X323945D02*
Y12028D01*
X342055D01*
Y2972D02*
Y12028D01*
X307791Y4547D02*
X319209D01*
X307791D02*
Y10453D01*
X319209D01*
Y4547D02*
Y10453D01*
X201047Y5291D02*
Y16709D01*
X206953D01*
Y5291D02*
Y16709D01*
X201047Y5291D02*
X206953D01*
X210028Y29748D02*
Y48252D01*
X200972Y29748D02*
X210028D01*
X200972D02*
Y48252D01*
X210028D01*
X116774Y217476D02*
X169726D01*
Y164524D02*
Y217476D01*
X116774Y164524D02*
X169726D01*
X116774D02*
Y217476D01*
X195961Y228087D02*
Y248756D01*
X175291Y228087D02*
X195961D01*
X175291D02*
Y248756D01*
X195961D01*
X77335Y193827D02*
X106665D01*
Y172173D02*
Y193827D01*
X77335Y172173D02*
X106665D01*
X77335D02*
Y193827D01*
X76835Y161327D02*
X106165D01*
Y139673D02*
Y161327D01*
X76835Y139673D02*
X106165D01*
X76835D02*
Y161327D01*
X188835Y208327D02*
X218165D01*
Y186673D02*
Y208327D01*
X188835Y186673D02*
X218165D01*
X188835D02*
Y208327D01*
X224547Y192291D02*
Y203709D01*
X230453D01*
Y192291D02*
Y203709D01*
X224547Y192291D02*
X230453D01*
M02*
