G04*
G04 #@! TF.GenerationSoftware,Altium Limited,Altium Designer,19.1.5 (86)*
G04*
G04 Layer_Color=32768*
%FSLAX24Y24*%
%MOIN*%
G70*
G01*
G75*
%ADD10C,0.0079*%
%ADD15C,0.0039*%
%ADD21C,0.0020*%
D10*
X43450Y22400D02*
X46150D01*
Y27400D01*
X43450D02*
X46150D01*
X43450Y22400D02*
Y27400D01*
X43650Y32550D02*
X46350D01*
Y37550D01*
X43650D02*
X46350D01*
X43650Y32550D02*
Y37550D01*
X11700Y14301D02*
Y16899D01*
Y14301D02*
X16700D01*
Y16899D01*
X11700D02*
X16700D01*
X34150Y5900D02*
X36850D01*
Y10900D01*
X34150D02*
X36850D01*
X34150Y5900D02*
Y10900D01*
X42150Y5900D02*
X44850D01*
Y10900D01*
X42150D02*
X44850D01*
X42150Y5900D02*
Y10900D01*
X15250Y5850D02*
Y10850D01*
X17950D01*
Y5850D02*
Y10850D01*
X15250Y5850D02*
X17950D01*
X7200Y5950D02*
Y10950D01*
X9900D01*
Y5950D02*
Y10950D01*
X7200Y5950D02*
X9900D01*
X23688Y6088D02*
X28412D01*
Y10812D01*
X23688D02*
X28412D01*
X23688Y6088D02*
Y10812D01*
X3488Y29838D02*
X8212D01*
Y34562D01*
X3488D02*
X8212D01*
X3488Y29838D02*
Y34562D01*
X-1562Y12238D02*
Y16962D01*
X3162D01*
Y12238D02*
Y16962D01*
X-1562Y12238D02*
X3162D01*
X51638Y28038D02*
Y32762D01*
X56362D01*
Y28038D02*
Y32762D01*
X51638Y28038D02*
X56362D01*
X48988Y11288D02*
Y16012D01*
X53712D01*
Y11288D02*
Y16012D01*
X48988Y11288D02*
X53712D01*
X-4262Y25638D02*
X462D01*
Y30362D01*
X-4262D02*
X462D01*
X-4262Y25638D02*
Y30362D01*
Y34038D02*
X462D01*
Y38762D01*
X-4262D02*
X462D01*
X-4262Y34038D02*
Y38762D01*
D15*
X43056Y22006D02*
X46544D01*
Y27794D01*
X43056D02*
X46544D01*
X43056Y22006D02*
Y27794D01*
X43256Y32156D02*
X46744D01*
Y37944D01*
X43256D02*
X46744D01*
X43256Y32156D02*
Y37944D01*
X11306Y13907D02*
Y17293D01*
Y13907D02*
X17094D01*
Y17293D01*
X11306D02*
X17094D01*
X33756Y5507D02*
X37244D01*
Y11294D01*
X33756D02*
X37244D01*
X33756Y5507D02*
Y11294D01*
X41756Y5506D02*
X45244D01*
Y11294D01*
X41756D02*
X45244D01*
X41756Y5506D02*
Y11294D01*
X14856Y5456D02*
Y11244D01*
X18344D01*
Y5456D02*
Y11244D01*
X14856Y5456D02*
X18344D01*
X6806Y5557D02*
Y11344D01*
X10294D01*
Y5557D02*
Y11344D01*
X6806Y5557D02*
X10294D01*
X22172Y11206D02*
X29495D01*
Y5694D02*
Y11206D01*
X22172Y5694D02*
X29495D01*
X22172D02*
Y11206D01*
X1972Y34956D02*
X9295D01*
Y29444D02*
Y34956D01*
X1972Y29444D02*
X9295D01*
X1972D02*
Y34956D01*
X-3078Y11844D02*
Y17356D01*
Y11844D02*
X4245D01*
Y17356D01*
X-3078D02*
X4245D01*
X50122Y27644D02*
Y33156D01*
Y27644D02*
X57445D01*
Y33156D01*
X50122D02*
X57445D01*
X47472Y10894D02*
Y16406D01*
Y10894D02*
X54795D01*
Y16406D01*
X47472D02*
X54795D01*
X-5778Y30756D02*
X1545D01*
Y25244D02*
Y30756D01*
X-5778Y25244D02*
X1545D01*
X-5778D02*
Y30756D01*
X31650Y34503D02*
Y34897D01*
X31453Y34700D02*
X31847D01*
X-5778Y39156D02*
X1545D01*
Y33644D02*
Y39156D01*
X-5778Y33644D02*
X1545D01*
X-5778D02*
Y39156D01*
X31414Y35330D02*
G03*
X31414Y35330I-197J0D01*
G01*
X23170Y28665D02*
X24430D01*
Y28035D02*
Y28665D01*
X23170Y28035D02*
X24430D01*
X23170D02*
Y28665D01*
X19620Y28935D02*
X20880D01*
X19620D02*
Y29565D01*
X20880D01*
Y28935D02*
Y29565D01*
X17835Y31570D02*
Y32830D01*
X18465D01*
Y31570D02*
Y32830D01*
X17835Y31570D02*
X18465D01*
X26535Y32939D02*
Y34198D01*
X27165D01*
Y32939D02*
Y34198D01*
X26535Y32939D02*
X27165D01*
X19820Y35485D02*
X21080D01*
X19820D02*
Y36115D01*
X21080D01*
Y35485D02*
Y36115D01*
X23170Y29565D02*
X24430D01*
Y28935D02*
Y29565D01*
X23170Y28935D02*
X24430D01*
X23170D02*
Y29565D01*
X19620Y28035D02*
X20880D01*
X19620D02*
Y28665D01*
X20880D01*
Y28035D02*
Y28665D01*
X18785Y31570D02*
Y32830D01*
X19415D01*
Y31570D02*
Y32830D01*
X18785Y31570D02*
X19415D01*
X25635Y32920D02*
Y34180D01*
X26265D01*
Y32920D02*
Y34180D01*
X25635Y32920D02*
X26265D01*
X19820Y36435D02*
X21080D01*
X19820D02*
Y37065D01*
X21080D01*
Y36435D02*
Y37065D01*
X20482Y34322D02*
X20678Y34518D01*
X20482Y30582D02*
Y34518D01*
Y30582D02*
X24418D01*
Y34518D01*
X20482D02*
X24418D01*
X30863Y33716D02*
X32437D01*
X30863Y35684D02*
X32437D01*
Y33716D02*
Y35684D01*
X30863Y33716D02*
Y35684D01*
X43056Y22006D02*
X46544D01*
Y27794D01*
X43056D02*
X46544D01*
X43056Y22006D02*
Y27794D01*
X43256Y32156D02*
X46744D01*
Y37944D01*
X43256D02*
X46744D01*
X43256Y32156D02*
Y37944D01*
X11306Y13907D02*
Y17293D01*
Y13907D02*
X17094D01*
Y17293D01*
X11306D02*
X17094D01*
X33756Y5507D02*
X37244D01*
Y11294D01*
X33756D02*
X37244D01*
X33756Y5507D02*
Y11294D01*
X41756Y5506D02*
X45244D01*
Y11294D01*
X41756D02*
X45244D01*
X41756Y5506D02*
Y11294D01*
X14856Y5456D02*
Y11244D01*
X18344D01*
Y5456D02*
Y11244D01*
X14856Y5456D02*
X18344D01*
X6806Y5557D02*
Y11344D01*
X10294D01*
Y5557D02*
Y11344D01*
X6806Y5557D02*
X10294D01*
X22172Y11206D02*
X29495D01*
Y5694D02*
Y11206D01*
X22172Y5694D02*
X29495D01*
X22172D02*
Y11206D01*
X1972Y34956D02*
X9295D01*
Y29444D02*
Y34956D01*
X1972Y29444D02*
X9295D01*
X1972D02*
Y34956D01*
X-3078Y11844D02*
Y17356D01*
Y11844D02*
X4245D01*
Y17356D01*
X-3078D02*
X4245D01*
X50122Y27644D02*
Y33156D01*
Y27644D02*
X57445D01*
Y33156D01*
X50122D02*
X57445D01*
X47472Y10894D02*
Y16406D01*
Y10894D02*
X54795D01*
Y16406D01*
X47472D02*
X54795D01*
X-5778Y30756D02*
X1545D01*
Y25244D02*
Y30756D01*
X-5778Y25244D02*
X1545D01*
X-5778D02*
Y30756D01*
X31650Y34503D02*
Y34897D01*
X31453Y34700D02*
X31847D01*
X-5778Y39156D02*
X1545D01*
Y33644D02*
Y39156D01*
X-5778Y33644D02*
X1545D01*
X-5778D02*
Y39156D01*
D21*
X22997Y28759D02*
X24603D01*
Y27941D02*
Y28759D01*
X22997Y27941D02*
X24603D01*
X22997D02*
Y28759D01*
X19447Y28841D02*
X21053D01*
X19447D02*
Y29659D01*
X21053D01*
Y28841D02*
Y29659D01*
X17741Y31397D02*
Y33003D01*
X18559D01*
Y31397D02*
Y33003D01*
X17741Y31397D02*
X18559D01*
X26441Y32765D02*
Y34372D01*
X27259D01*
Y32765D02*
Y34372D01*
X26441Y32765D02*
X27259D01*
X19647Y35391D02*
X21253D01*
X19647D02*
Y36209D01*
X21253D01*
Y35391D02*
Y36209D01*
X22989Y29667D02*
X24611D01*
Y28833D02*
Y29667D01*
X22989Y28833D02*
X24611D01*
X22989D02*
Y29667D01*
X19439Y27933D02*
X21061D01*
X19439D02*
Y28767D01*
X21061D01*
Y27933D02*
Y28767D01*
X18683Y31389D02*
Y33011D01*
X19517D01*
Y31389D02*
Y33011D01*
X18683Y31389D02*
X19517D01*
X25533Y32739D02*
Y34361D01*
X26367D01*
Y32739D02*
Y34361D01*
X25533Y32739D02*
X26367D01*
X19639Y36333D02*
X21261D01*
X19639D02*
Y37167D01*
X21261D01*
Y36333D02*
Y37167D01*
X19802Y29902D02*
Y35198D01*
Y29902D02*
X25098D01*
Y35198D01*
X19802D02*
X25098D01*
X30193Y33617D02*
X33107D01*
X30193Y35783D02*
X33107D01*
Y33617D02*
Y35783D01*
X30193Y33617D02*
Y35783D01*
X22997Y28759D02*
X24603D01*
Y27941D02*
Y28759D01*
X22997Y27941D02*
X24603D01*
X22997D02*
Y28759D01*
X19447Y28841D02*
X21053D01*
X19447D02*
Y29659D01*
X21053D01*
Y28841D02*
Y29659D01*
X17741Y31397D02*
Y33003D01*
X18559D01*
Y31397D02*
Y33003D01*
X17741Y31397D02*
X18559D01*
X26441Y32765D02*
Y34372D01*
X27259D01*
Y32765D02*
Y34372D01*
X26441Y32765D02*
X27259D01*
X19647Y35391D02*
X21253D01*
X19647D02*
Y36209D01*
X21253D01*
Y35391D02*
Y36209D01*
X22989Y29667D02*
X24611D01*
Y28833D02*
Y29667D01*
X22989Y28833D02*
X24611D01*
X22989D02*
Y29667D01*
X19439Y27933D02*
X21061D01*
X19439D02*
Y28767D01*
X21061D01*
Y27933D02*
Y28767D01*
X18683Y31389D02*
Y33011D01*
X19517D01*
Y31389D02*
Y33011D01*
X18683Y31389D02*
X19517D01*
X25533Y32739D02*
Y34361D01*
X26367D01*
Y32739D02*
Y34361D01*
X25533Y32739D02*
X26367D01*
X19639Y36333D02*
X21261D01*
X19639D02*
Y37167D01*
X21261D01*
Y36333D02*
Y37167D01*
X19802Y29902D02*
Y35198D01*
Y29902D02*
X25098D01*
Y35198D01*
X19802D02*
X25098D01*
X30193Y33617D02*
X33107D01*
X30193Y35783D02*
X33107D01*
Y33617D02*
Y35783D01*
X30193Y33617D02*
Y35783D01*
M02*
