G04*
G04 #@! TF.GenerationSoftware,Altium Limited,Altium Designer,20.0.9 (164)*
G04*
G04 Layer_Color=8388736*
%FSLAX25Y25*%
%MOIN*%
G70*
G01*
G75*
%ADD27R,0.05131X0.07493*%
%ADD28R,0.06902X0.07099*%
%ADD29R,0.07493X0.05131*%
%ADD30R,0.01981X0.06509*%
%ADD31R,0.06509X0.01981*%
%ADD32O,0.06509X0.03162*%
%ADD33C,0.05400*%
%ADD34R,0.07800X0.07800*%
%ADD35C,0.07800*%
%ADD36C,0.13800*%
%ADD37C,0.15400*%
%ADD38R,0.06706X0.06706*%
%ADD39C,0.06706*%
%ADD40C,0.06312*%
%ADD41C,0.11800*%
%ADD42R,0.11725X0.11725*%
%ADD43C,0.11725*%
%ADD44C,0.02800*%
%ADD45C,0.03800*%
D27*
X209815Y358000D02*
D03*
X199185D02*
D03*
X197185Y284500D02*
D03*
X207815D02*
D03*
X197185Y293500D02*
D03*
X207815D02*
D03*
X239315Y284500D02*
D03*
X228685D02*
D03*
X239315Y293500D02*
D03*
X228685D02*
D03*
X199185Y367500D02*
D03*
X209815D02*
D03*
D28*
X234539Y109843D02*
D03*
X289461D02*
D03*
X234539Y90157D02*
D03*
X289461D02*
D03*
X48539Y331843D02*
D03*
X103461D02*
D03*
X48539Y312157D02*
D03*
X103461D02*
D03*
X35461Y136157D02*
D03*
X-19461D02*
D03*
X35461Y155843D02*
D03*
X-19461D02*
D03*
X567461Y294157D02*
D03*
X512539D02*
D03*
X567461Y313843D02*
D03*
X512539D02*
D03*
X540961Y126657D02*
D03*
X486039D02*
D03*
X540961Y146343D02*
D03*
X486039D02*
D03*
X-34961Y289843D02*
D03*
X19961D02*
D03*
X-34961Y270157D02*
D03*
X19961D02*
D03*
X-34961Y373843D02*
D03*
X19961D02*
D03*
X-34961Y354157D02*
D03*
X19961D02*
D03*
D29*
X191000Y327315D02*
D03*
Y316685D02*
D03*
X181500Y327315D02*
D03*
Y316685D02*
D03*
X266500Y340500D02*
D03*
Y329870D02*
D03*
X257500Y340315D02*
D03*
Y329685D02*
D03*
D30*
X209736Y348138D02*
D03*
X211705D02*
D03*
X213673D02*
D03*
X215642D02*
D03*
X217610D02*
D03*
X219579D02*
D03*
X221547D02*
D03*
X223516D02*
D03*
X225484D02*
D03*
X227453D02*
D03*
X229421D02*
D03*
X231390D02*
D03*
X233358D02*
D03*
X235327D02*
D03*
X237295D02*
D03*
X239264D02*
D03*
Y302862D02*
D03*
X237295D02*
D03*
X235327D02*
D03*
X233358D02*
D03*
X231390D02*
D03*
X229421D02*
D03*
X227453D02*
D03*
X225484D02*
D03*
X223516D02*
D03*
X221547D02*
D03*
X219579D02*
D03*
X217610D02*
D03*
X215642D02*
D03*
X213673D02*
D03*
X211705D02*
D03*
X209736D02*
D03*
D31*
X247138Y340264D02*
D03*
Y338295D02*
D03*
Y336327D02*
D03*
Y334358D02*
D03*
Y332390D02*
D03*
Y330421D02*
D03*
Y328453D02*
D03*
Y326484D02*
D03*
Y324516D02*
D03*
Y322547D02*
D03*
Y320579D02*
D03*
Y318610D02*
D03*
Y316642D02*
D03*
Y314673D02*
D03*
Y312705D02*
D03*
Y310736D02*
D03*
X201862D02*
D03*
Y312705D02*
D03*
Y314673D02*
D03*
Y316642D02*
D03*
Y318610D02*
D03*
Y320579D02*
D03*
Y322547D02*
D03*
Y324516D02*
D03*
Y326484D02*
D03*
Y328453D02*
D03*
Y330421D02*
D03*
Y332390D02*
D03*
Y334358D02*
D03*
Y336327D02*
D03*
Y338295D02*
D03*
Y340264D02*
D03*
D32*
X327228Y339500D02*
D03*
Y344500D02*
D03*
Y349500D02*
D03*
Y354500D02*
D03*
X305772Y339500D02*
D03*
Y344500D02*
D03*
Y349500D02*
D03*
Y354500D02*
D03*
D33*
X532500Y172500D02*
D03*
X522500D02*
D03*
X559000Y223500D02*
D03*
X549000D02*
D03*
X558000Y338500D02*
D03*
X548000D02*
D03*
X-35000Y223500D02*
D03*
X-25000D02*
D03*
X53559Y358500D02*
D03*
X63559D02*
D03*
D34*
X228950Y36000D02*
D03*
X388950D02*
D03*
X137300Y494000D02*
D03*
X142000Y349500D02*
D03*
D35*
X217150Y36000D02*
D03*
X205350D02*
D03*
X193550D02*
D03*
X181750D02*
D03*
X169950D02*
D03*
X158150D02*
D03*
X146350D02*
D03*
X134550D02*
D03*
X377150D02*
D03*
X365350D02*
D03*
X353550D02*
D03*
X341750D02*
D03*
X329950D02*
D03*
X318150D02*
D03*
X306350D02*
D03*
X294550D02*
D03*
X149100Y494000D02*
D03*
X160900D02*
D03*
X172700D02*
D03*
X184500D02*
D03*
X196300D02*
D03*
X208100D02*
D03*
X219900D02*
D03*
X231700D02*
D03*
X142000Y259500D02*
D03*
Y269500D02*
D03*
Y279500D02*
D03*
Y289500D02*
D03*
Y299500D02*
D03*
Y309500D02*
D03*
Y319500D02*
D03*
Y329500D02*
D03*
Y339500D02*
D03*
D36*
X220450Y19000D02*
D03*
X142850D02*
D03*
X380450D02*
D03*
X302850D02*
D03*
X145800Y511000D02*
D03*
X223400D02*
D03*
D37*
X25000Y25000D02*
D03*
X499000D02*
D03*
X424000Y504000D02*
D03*
X100000D02*
D03*
D38*
X198000Y415000D02*
D03*
X294500Y500000D02*
D03*
D39*
X218000Y415000D02*
D03*
X228000D02*
D03*
X238000D02*
D03*
X248000D02*
D03*
X258000D02*
D03*
X268000D02*
D03*
X278000D02*
D03*
X208000D02*
D03*
X384500Y510000D02*
D03*
X374500D02*
D03*
X364500D02*
D03*
X354500D02*
D03*
X344500D02*
D03*
X334500D02*
D03*
X324500D02*
D03*
X314500D02*
D03*
X304500D02*
D03*
X294500D02*
D03*
X384500Y500000D02*
D03*
X374500D02*
D03*
X364500D02*
D03*
X354500D02*
D03*
X344500D02*
D03*
X334500D02*
D03*
X324500D02*
D03*
X314500D02*
D03*
X304500D02*
D03*
D40*
X102000Y358500D02*
D03*
X72000D02*
D03*
X485000Y172500D02*
D03*
X515000D02*
D03*
X535500Y224000D02*
D03*
X505500D02*
D03*
X-7000Y223500D02*
D03*
X23000D02*
D03*
X509500Y338500D02*
D03*
X539500D02*
D03*
D41*
X142000Y374500D02*
D03*
Y234500D02*
D03*
X382000D02*
D03*
Y374500D02*
D03*
D42*
X87000Y81500D02*
D03*
X167000D02*
D03*
X357000D02*
D03*
X448000Y231000D02*
D03*
Y332000D02*
D03*
X437000Y81500D02*
D03*
D43*
X87000Y100004D02*
D03*
Y118508D02*
D03*
X167000Y100004D02*
D03*
Y118508D02*
D03*
X357000Y100004D02*
D03*
Y118508D02*
D03*
X448000Y249504D02*
D03*
Y268008D02*
D03*
Y369008D02*
D03*
Y350504D02*
D03*
X437000Y100004D02*
D03*
Y118508D02*
D03*
D44*
X203500Y378000D02*
D03*
X197000Y284500D02*
D03*
Y293500D02*
D03*
X228500Y293000D02*
D03*
Y284500D02*
D03*
X148500Y352000D02*
D03*
X327378Y354500D02*
D03*
X305505Y349500D02*
D03*
X191000Y327315D02*
D03*
X181500D02*
D03*
X266500Y329870D02*
D03*
X257500Y329685D02*
D03*
X199185Y358000D02*
D03*
Y367500D02*
D03*
X156050Y379950D02*
D03*
X334500Y348500D02*
D03*
Y345500D02*
D03*
X326500Y391500D02*
D03*
X324500Y388500D02*
D03*
X322500Y385500D02*
D03*
X266000Y354500D02*
D03*
X-5500Y334000D02*
D03*
X181000Y220500D02*
D03*
X177000Y221000D02*
D03*
X252500Y337000D02*
D03*
X216500Y355000D02*
D03*
X207000Y314000D02*
D03*
X213500Y294000D02*
D03*
X214000Y273500D02*
D03*
X205500Y262000D02*
D03*
X204000Y274000D02*
D03*
X214000Y288000D02*
D03*
X185000D02*
D03*
X184500Y294000D02*
D03*
X212500Y307500D02*
D03*
X215500Y313000D02*
D03*
X237500Y273000D02*
D03*
X215500Y330500D02*
D03*
X196500Y311500D02*
D03*
X-8500Y344000D02*
D03*
X231445Y325055D02*
D03*
X338000Y306000D02*
D03*
X324500Y308500D02*
D03*
X235500Y328500D02*
D03*
X222000Y328000D02*
D03*
X310000Y388500D02*
D03*
X313500Y385000D02*
D03*
X211000Y331000D02*
D03*
X223000Y342000D02*
D03*
X225500Y339000D02*
D03*
X365500Y408000D02*
D03*
X308000Y408500D02*
D03*
X313000Y391500D02*
D03*
X234500Y338000D02*
D03*
X223500Y308000D02*
D03*
X221500Y294500D02*
D03*
D45*
X299500Y424500D02*
D03*
M02*
