G04*
G04 #@! TF.GenerationSoftware,Altium Limited,Altium Designer,20.0.9 (164)*
G04*
G04 Layer_Color=32768*
%FSLAX25Y25*%
%MOIN*%
G70*
G01*
G75*
%ADD16C,0.00394*%
%ADD63C,0.00197*%
D16*
X212374Y354260D02*
Y361740D01*
X196626Y354260D02*
Y361740D01*
Y354260D02*
X212374D01*
X196626Y361740D02*
X212374D01*
X202532Y358000D02*
X206469D01*
X204500Y356031D02*
Y359969D01*
X70071Y71067D02*
Y128941D01*
X103929D01*
Y71067D02*
Y128941D01*
X70071Y71067D02*
X103929D01*
X223220Y127559D02*
X296449D01*
Y72441D02*
Y127559D01*
X223220Y72441D02*
X296449D01*
X223220D02*
Y127559D01*
X150071Y71067D02*
Y128941D01*
X183929D01*
Y71067D02*
Y128941D01*
X150071Y71067D02*
X183929D01*
X340071D02*
Y128941D01*
X373929D01*
Y71067D02*
Y128941D01*
X340071Y71067D02*
X373929D01*
X202500Y282531D02*
Y286469D01*
X200532Y284500D02*
X204469D01*
X194626Y288240D02*
X210374D01*
X194626Y280760D02*
X210374D01*
X194626D02*
Y288240D01*
X210374Y280760D02*
Y288240D01*
X202500Y291531D02*
Y295469D01*
X200532Y293500D02*
X204469D01*
X194626Y297240D02*
X210374D01*
X194626Y289760D02*
X210374D01*
X194626D02*
Y297240D01*
X210374Y289760D02*
Y297240D01*
X189031Y322000D02*
X192969D01*
X191000Y320032D02*
Y323969D01*
X194740Y314126D02*
Y329874D01*
X187260Y314126D02*
Y329874D01*
X194740D01*
X187260Y314126D02*
X194740D01*
X179531Y322000D02*
X183469D01*
X181500Y320032D02*
Y323969D01*
X185240Y314126D02*
Y329874D01*
X177760Y314126D02*
Y329874D01*
X185240D01*
X177760Y314126D02*
X185240D01*
X234000Y282532D02*
Y286469D01*
X232032Y284500D02*
X235969D01*
X226126Y280760D02*
X241874D01*
X226126Y288240D02*
X241874D01*
Y280760D02*
Y288240D01*
X226126Y280760D02*
Y288240D01*
X234000Y291532D02*
Y295469D01*
X232032Y293500D02*
X235969D01*
X226126Y289760D02*
X241874D01*
X226126Y297240D02*
X241874D01*
Y289760D02*
Y297240D01*
X226126Y289760D02*
Y297240D01*
X264531Y335185D02*
X268469D01*
X266500Y333217D02*
Y337154D01*
X270240Y327311D02*
Y343059D01*
X262760Y327311D02*
Y343059D01*
X270240D01*
X262760Y327311D02*
X270240D01*
X255531Y335000D02*
X259469D01*
X257500Y333032D02*
Y336969D01*
X261240Y327126D02*
Y342874D01*
X253760Y327126D02*
Y342874D01*
X261240D01*
X253760Y327126D02*
X261240D01*
X204500Y365531D02*
Y369469D01*
X202532Y367500D02*
X206469D01*
X196626Y371240D02*
X212374D01*
X196626Y363760D02*
X212374D01*
X196626D02*
Y371240D01*
X212374Y363760D02*
Y371240D01*
X431071Y220567D02*
Y278441D01*
X464929D01*
Y220567D02*
Y278441D01*
X431071Y220567D02*
X464929D01*
X37220Y349559D02*
X110449D01*
Y294441D02*
Y349559D01*
X37220Y294441D02*
X110449D01*
X37220D02*
Y349559D01*
X431071Y321567D02*
X464929D01*
Y379441D01*
X431071D02*
X464929D01*
X431071Y321567D02*
Y379441D01*
X-30780Y118441D02*
Y173559D01*
Y118441D02*
X42449D01*
Y173559D01*
X-30780D02*
X42449D01*
X501220Y276441D02*
Y331559D01*
Y276441D02*
X574449D01*
Y331559D01*
X501220D02*
X574449D01*
X474720Y108941D02*
Y164059D01*
Y108941D02*
X547949D01*
Y164059D01*
X474720D02*
X547949D01*
X-46280Y307559D02*
X26949D01*
Y252441D02*
Y307559D01*
X-46280Y252441D02*
X26949D01*
X-46280D02*
Y307559D01*
X316500Y345032D02*
Y348969D01*
X314531Y347000D02*
X318469D01*
X-46280Y391559D02*
X26949D01*
Y336441D02*
Y391559D01*
X-46280Y336441D02*
X26949D01*
X-46280D02*
Y391559D01*
X420071Y71067D02*
Y128941D01*
X453929D01*
Y71067D02*
Y128941D01*
X420071Y71067D02*
X453929D01*
D63*
X198024Y299024D02*
Y351976D01*
Y299024D02*
X250976D01*
Y351976D01*
X198024D02*
X250976D01*
X301933Y336173D02*
X331067D01*
X301933Y357827D02*
X331067D01*
Y336173D02*
Y357827D01*
X301933Y336173D02*
Y357827D01*
M02*
